<?xml version="1.0" encoding="UTF-8" standalone="no"?>
<!-- Created with Inkscape (http://www.inkscape.org/) -->

<svg
   version="1.1"
   id="svg1"
   width="284.77841"
   height="284.54816"
   viewBox="0 0 284.77841 284.54816"
   sodipodi:docname="Adversary.svg"
   xml:space="preserve"
   inkscape:version="1.4 (86a8ad7, 2024-10-11)"
   xmlns:inkscape="http://www.inkscape.org/namespaces/inkscape"
   xmlns:sodipodi="http://sodipodi.sourceforge.net/DTD/sodipodi-0.dtd"
   xmlns="http://www.w3.org/2000/svg"
   xmlns:svg="http://www.w3.org/2000/svg"><defs
     id="defs1" /><sodipodi:namedview
     id="namedview1"
     pagecolor="#505050"
     bordercolor="#eeeeee"
     borderopacity="1"
     inkscape:showpageshadow="0"
     inkscape:pageopacity="0"
     inkscape:pagecheckerboard="0"
     inkscape:deskcolor="#505050"
     inkscape:zoom="1.4027778"
     inkscape:cx="24.950495"
     inkscape:cy="129.0297"
     inkscape:window-width="1920"
     inkscape:window-height="1010"
     inkscape:window-x="1529"
     inkscape:window-y="-6"
     inkscape:window-maximized="1"
     inkscape:current-layer="g1" /><g
     inkscape:groupmode="layer"
     inkscape:label="Image"
     id="g1"
     transform="translate(107.49028,112.85869)"><path
       style="fill:#0d0f0d;stroke:none"
       d="m 20,-112.07175 c -23.1797409,3.31913 -46.471016,11.6446 -66,24.575595 -14.86274,9.841278 -26.391609,22.253159 -36.330246,36.996155 -22.223864,32.966949 -31.082994,77.815796 -21.060184,117 C -85.659519,135.81909 -12.410965,180.48026 57,170.22839 135.05826,158.69934 187.64633,81.089737 175.56094,4.5 c -0.92801,-5.8812408 -4.15905,-10.4134064 -5.77157,-16 -9.5116,-32.95285 -27.78046,-58.705505 -56.78937,-78 -15.518204,-10.321503 -31.823212,-16.45731 -50,-19.65509 -14.279083,-2.51205 -28.303375,-5.02109 -43,-2.91666 m 8,19.857242 c 13.638199,-1.631073 28.921112,1.25238 42,5.011566 10.249054,2.945831 25.502441,6.877747 33.99614,13.26004 55.20348,41.480683 68.12282,120.5206 28.43211,176.442902 -4.04049,5.69284 -6.40652,12.42526 -11.46838,17.34027 -8.67947,8.4277 -21.062867,13.78113 -31.95987,18.82254 -10.413528,4.81772 -22.56398,9.22992 -34,10.65354 -34.583405,4.30514 -73.244148,-3.193 -100.446762,-26.54322 -16.040909,-13.76919 -27.385574,-35.848569 -34.737652,-55.26927 -2.105225,-5.561004 -7.138504,-8.884048 -8.247684,-15.00386 -1.107937,-6.112946 2.40068,-12.72821 2.431327,-19 0.151482,-30.9992218 10.189888,-61.55191 31.138886,-84.513885 2.527496,-2.770371 2.699074,-7.135254 5.514664,-9.516205 C -28.213501,-78.401367 0.94464111,-88.97879 28,-92.214508 M 3,-22.5 v 2 c -10.4360962,0.534485 -22.419098,5.996185 -29.995369,13.0933533 C -32.805473,-1.9639587 -34.969467,4.126297 -27,8.5 v 1 L -37.168205,10.218369 -21,25.5 c -4.482368,-0.390854 -12.508102,-4.611679 -16.56636,-1.95755 -3.472573,2.271088 -6.979126,26.231827 -3.115738,28.596435 C -35.663963,55.210281 -23.752739,49.762878 -18,49.5 v 1 c -5.616707,2.38269 -10.676094,9.846436 -3.685959,14.721451 C -16.059662,69.145325 -7.2702179,69.355194 -1,72.5 -3.1134033,72.838043 -8.6267929,72.014694 -9.8240738,74.118057 -11.184998,76.508896 -7.8779602,79.612305 -6.8387299,81.5 -4.5914536,85.582016 -2.4918365,99.745911 5.8155823,94.788574 8.4155426,93.237076 10.030823,89.900726 11.720673,87.5 c 2.23439,-3.174332 6.26567,-6.966232 6.7014,-11 0.401627,-3.717957 -3.14418,-6.907272 -4.71759,-10 C 7.8806458,55.052521 -2.1416855,46.745789 -8.0879669,35.5 -13.684418,24.915817 -12.223625,11.253189 -25,6.5 c 11.042198,-6.7094574 21.9353256,-0.525589 32,5 v 1 l -9,5 2,-6 -14,-3 7.8618851,17 4.4405899,7.133484 L 11,28.137344 25,29.5 20,13.5 c 12.018021,11.024673 9.007263,22.806961 -3,31 3.713043,-12.325302 -10.1486053,-9.402588 -17,-5 4.2690125,9.578323 13.410614,14.178101 19.272369,22.184418 1.585251,2.165222 3.038285,10.927795 7.327164,8.064026 4.547989,-3.036774 2.900086,-22.041657 8.481491,-22.041657 7.384186,0 2.230286,21.622818 9.929779,22.871918 3.780609,0.613342 4.452912,-6.689514 5.923615,-8.869599 C 54.301056,56.718582 71.498337,47.147629 68.74382,39.689041 65.997864,32.253632 49.607574,33.873169 54,44.5 40.211914,37.631821 39.602448,24.488144 50,13.5 l -4,16 c 4.804962,-1.27124 9.051285,-2.664444 14,-1.084885 3.336166,1.064865 8.13266,5.056137 11.725311,4.217606 C 77.324921,31.32576 83.939484,13.625412 84,8.5 l -14,3 3,3 v 2 l -1,1 -8,-4 c 4.837387,-9.3106537 23.393173,-13.97988892 31,-6 -8.942978,1.6210327 -9.313629,8.464203 -11.833328,16 -5.362396,16.037643 -17.727509,26.265717 -25.283188,41 -1.725556,3.365005 -5.431046,7.143524 -5.762344,11 -0.562302,6.545532 11.838272,23.166656 18.835647,18.836426 C 76.321442,91.016571 79.085022,79.218887 82,73.5 H 73 C 77.363953,68.917908 103.02637,65.497925 94.361877,54.054779 93.003906,52.261322 90.631989,51.053864 89,49.5 c 5.598694,0.48819 16.80197,5.601105 21.85107,2.929016 4.46772,-2.36441 0.99906,-26.342972 -3.16819,-28.861877 C 103.53091,21.05748 95.525101,25.105423 91,25.5 l 18,-16 H 98 v -1 C 105.65282,4.0737 103.50497,-1.9771729 97.830246,-7.1890411 90.056,-14.329178 78.492645,-19.455399 68,-20.5 v -2 c 9.692734,0.496414 22.703888,5.137421 29.560959,12.188263 2.717631,2.7944335 8.818131,15.7807922 12.443681,15.3464507 3.79382,-0.4544982 5.33902,-5.31939693 4.3557,-8.5347137 -1.46746,-4.7983856 -5.81353,-7.827484 -6.88117,-13 -2.06404,-9.999939 2.46729,-33.41713 -12.494597,-37.266968 -7.977905,-2.052795 -8.830261,7.906922 -12.494598,11.872681 -3.013947,3.261856 -15.928543,8.859405 -20.381943,8.685943 -5.675186,-0.221054 -6.988144,-13.90483 -14.689056,-9.097213 -6.482376,4.04689 -1.897156,17.688278 -12.415894,17.688278 -10.285385,0 -5.468124,-13.952683 -12.231476,-17.66359 -8.072296,-4.429092 -8.635589,9.037537 -14.8256221,8.825623 -4.5920868,-0.157211 -16.5025177,-4.954819 -19.6427459,-8.273148 -4.058701,-4.288909 -4.031906,-13.152862 -12.263115,-12.243835 -3.707825,0.409485 -5.834496,4.577972 -7.460648,7.472229 -6.185875,11.00972 -2.749748,17.926407 -5.098762,29 -0.99601,4.695312 -3.749886,7.9160919 -5.971451,12 -1.62265,2.9829254 -2.433647,8.8357391 1.699844,10.3379517 4.444642,1.6152954 8.80156,-9.5151825 11.229935,-12.323288 C -21.749588,-16.518173 -8.720665,-21.477997 3,-22.5 m -7,151 c 17.649704,0 35.356094,-0.4176 53,0.0146 8.90863,0.21826 18.596481,3.02945 27,-1.01465 C 67.936829,113.01695 57.819443,98.835907 47.975311,85.5 45.292465,81.86554 41.428528,73.414154 36.711426,72.251541 31.519379,70.971863 27.240402,80.204468 24.847992,83.5 c -7.1259,9.815918 -13.717056,19.95859 -20.5185242,30 -3.3129273,4.89105 -7.5240784,8.97455 -8.3294678,15 z"
       id="path1" /></g></svg>
