<?xml version="1.0" encoding="UTF-8" standalone="no"?>
<!-- Created with Inkscape (http://www.inkscape.org/) -->

<svg
   width="70.72242mm"
   height="98.840042mm"
   viewBox="0 0 70.72242 98.840042"
   version="1.1"
   id="svg1"
   xml:space="preserve"
   inkscape:version="1.4 (86a8ad7, 2024-10-11)"
   sodipodi:docname="Aether.svg"
   xmlns:inkscape="http://www.inkscape.org/namespaces/inkscape"
   xmlns:sodipodi="http://sodipodi.sourceforge.net/DTD/sodipodi-0.dtd"
   xmlns="http://www.w3.org/2000/svg"
   xmlns:svg="http://www.w3.org/2000/svg"><sodipodi:namedview
     id="namedview1"
     pagecolor="#505050"
     bordercolor="#eeeeee"
     borderopacity="1"
     inkscape:showpageshadow="0"
     inkscape:pageopacity="0"
     inkscape:pagecheckerboard="0"
     inkscape:deskcolor="#505050"
     inkscape:document-units="mm"
     inkscape:zoom="1.4396184"
     inkscape:cx="51.40251"
     inkscape:cy="143.7881"
     inkscape:window-width="1920"
     inkscape:window-height="1010"
     inkscape:window-x="4601"
     inkscape:window-y="-6"
     inkscape:window-maximized="1"
     inkscape:current-layer="layer1" /><defs
     id="defs1" /><g
     inkscape:label="Layer 1"
     inkscape:groupmode="layer"
     id="layer1"
     transform="translate(-88.75789,-93.080341)"><path
       id="path1"
       style="fill:#000000;fill-opacity:1"
       d="m 127.30127,93.083724 c -0.0429,-0.07511 0.0544,1.124185 -1.4149,1.225765 -2.008,0.138826 -3.66171,-0.202814 -4.8829,0.08372 -1.87145,0.43909 -3.3264,2.316671 -4.08554,4.071586 -0.5107,1.18061 -2.12175,4.992045 0.74931,9.658835 1.87106,3.04134 2.1279,6.99507 1.57458,12.44782 -0.7076,6.97305 -1.58808,10.01292 -6.30091,11.96155 -5.04209,2.08476 -5.38842,6.31091 -5.40122,11.79824 -0.0144,6.16248 -3.1332,9.02304 -3.34347,8.12974 -0.32181,-1.3672 -1.77542,-3.46163 -3.38532,-5.07153 -2.459091,-2.4591 -5.994442,-3.79382 -7.704955,-3.76462 -2.86423,0.0488 -2.601431,0.34099 0.734839,2.15128 1.874031,1.01684 3.788818,3.30474 4.221447,5.09272 0.957242,3.95612 0.03675,3.897 -3.957898,7.25072 -4.343501,3.64658 -5.346443,4.57896 -5.346443,10.15338 0,10.83923 7.63461,18.40982 21.29999,22.26686 7.4481,2.10221 27.78064,1.73087 33.90129,-0.61908 6.59909,-2.53363 15.63895,-12.85075 15.51998,-17.71262 -0.026,-1.06134 -0.60808,-0.8684 -1.69292,0.56069 -2.51478,3.31281 -3.26791,2.61121 -1.77973,-1.65778 2.14976,-6.16683 0.56563,-20.67571 -3.1657,-28.99409 -1.80405,-4.02181 -3.29789,-9.06308 -3.31969,-11.20294 -0.006,-0.5699 -0.19336,-1.41484 0.12247,-1.99626 0.27266,-0.50194 1.05289,-0.76167 1.07229,-1.02112 0.0162,-0.21611 -0.71815,-0.25282 -0.98651,-0.21446 -0.57581,0.0823 -1.03826,0.38239 -1.93321,1.56218 -1.10292,1.45396 -1.42002,3.81874 -0.91881,6.84609 0.67134,4.05489 1.78399,10.44518 1.58802,16.09566 -0.18379,5.29932 -1.62817,9.90099 -2.4567,12.6907 -1.01825,3.4285 -3.89481,7.86302 -7.66207,11.8122 -5.87474,6.15844 -9.02488,7.2464 -6.31382,2.18074 2.17686,-4.0675 1.87875,-8.85161 -1.10123,-10.93887 -1.93461,-1.35506 -4.60729,-2.59819 -4.11137,-1.66088 0,0 3.04353,4.84674 1.26297,4.79868 0,0 -1.12177,-1.69322 -1.48932,-2.34508 -2.28761,-4.05711 -1.65984,-8.86879 -0.6475,-11.93622 1.08071,-3.27444 1.93361,-4.4661 0.55707,-5.98051 -0.45939,-0.5054 -2.1977,-2.13782 -2.41742,-2.0004 -0.23934,0.14968 0.57877,2.27779 0.57877,3.22151 0,1.36076 -2.83547,5.25374 -6.30142,8.65115 -5.30327,5.19839 -6.88519,5.66238 -6.3221,8.54315 0.41887,2.14299 2.18372,5.41135 1.69706,5.35885 -0.5654,-0.061 -2.88582,-2.78406 -5.24774,-6.0446 -2.60834,-3.60071 -5.01279,-6.6007 -4.78111,-7.30653 0.0347,-0.10586 0.10472,-4.62798 0.33176,-4.58938 0.1966,0.0335 0.32393,3.28919 0.62374,4.40335 0.36083,1.34087 1.72651,1.53162 2.2133,1.52962 0.81259,-0.003 1.87533,-1.08565 3.69848,-2.51974 4.27867,-3.99923 4.85084,-5.01935 8.20157,-8.36435 1.74455,-1.74157 -4.29905,-5.6773 -4.96869,-7.44864 -0.2844,-0.75229 -0.44724,-6.46752 0.15193,-6.45852 0.4696,0.004 0.29686,2.50059 1.00769,4.74958 0.40002,1.26564 0.98997,2.54758 1.66398,3.48919 0.65109,0.90958 1.38364,1.4972 1.92753,1.70481 1.17189,0.44734 2.09567,-8.39969 -1.77663,-11.90057 -1.6112,-1.45667 0.59523,-1.95595 1.88619,-1.95595 0.7551,0 2.66763,0.515 3.74344,0.0393 1.09666,-0.48502 1.35708,-1.96107 2.17092,-1.95388 1.19176,0.0105 1.31994,2.14553 2.05207,1.38958 1.07895,-1.11405 1.00554,-4.91137 0.80719,-6.32107 l -0.83199,-5.91126 2.68097,6.93756 c 1.7756,5.84439 0.96255,8.30957 -2.74143,8.30957 -6.44075,0 -7.08428,6.95298 -0.92914,10.04021 3.38626,1.69844 5.76587,4.7905 6.13244,4.74493 0.23436,-0.0291 -0.72873,-2.43577 -1.55391,-3.73207 -1.63388,-2.5667 -2.46211,-3.66182 1.38079,-0.30902 3.03241,2.64566 3.47007,6.43165 1.25936,8.64236 -1.07375,1.07375 -1.93922,3.45266 -1.93322,5.2865 0.0151,5.01512 1.2109,3.50575 1.56011,1.75958 0.5416,-2.70814 1.43417,-2.93956 2.19315,-0.0646 0.38203,1.44713 2.83811,2.57267 5.19038,2.50579 0.14448,-0.004 0.22061,-2.69162 0.35864,-2.70216 0.1325,-0.0101 0.32705,2.65686 0.45372,2.64066 4.07217,-0.52087 5.16247,-4.23461 5.16247,-13.99139 0,-8.76541 -3.76658,-17.18239 -14.7097,-32.87035 -13.04237,-18.69742 -12.15093,-17.82154 -11.35951,-20.672115 0.31616,-0.590827 0.99205,-1.811453 1.97249,-2.035018 1.20756,-0.275353 3.51439,-0.132326 5.04517,-0.56689 1.56842,-0.445249 0.66399,-1.711301 0.52658,-1.951819 z m -0.73949,45.824076 0.79634,1.7384 -0.79634,2.35541 -0.81183,-2.27428 z m 8.63307,0.59325 c 0.175,-0.0393 0.39668,0.1649 0.67283,0.59221 0.66367,1.02695 1.21526,3.40737 1.22576,5.29011 0.0105,1.88273 0.0438,4.17081 -0.64079,4.17081 -0.68463,0 -1.82124,-3.1282 -1.81074,-6.03788 0.01,-2.66359 0.16793,-3.92881 0.55294,-4.01525 z m 3.94188,14.13143 c 0.33198,0.0907 0.41076,1.94308 0.4656,4.88343 0.056,3.00502 -0.64665,3.4688 -1.93425,1.38544 -0.45999,-0.74429 -0.16657,-1.9294 0.12661,-2.96623 0.67244,-2.37813 1.08383,-3.37317 1.34204,-3.30264 z m -22.45135,2.93316 c -1.41328,0.38987 -2.68074,1.2025 -3.07061,2.5833 -0.0921,0.66062 0.79102,1.41843 1.72238,1.25057 0.83389,-0.18952 1.55377,-0.89857 2.1115,-1.73788 0.3628,-0.81223 0.1735,-1.9173 -0.76327,-2.09599 z m -17.46508,2.19935 c 0.30191,0 0.548804,0.56025 0.548804,1.24488 0,0.68463 0.07288,2.50838 -0.652157,2.50838 -0.725034,0 -1.638037,-1.82375 -1.214912,-2.50838 0.423124,-0.68463 1.016355,-1.24488 1.318265,-1.24488 z m -4.030245,5.69164 c 0.183753,-0.0127 0.336761,0.0901 0.430465,0.35967 0.210528,0.60556 0.06763,3.16835 0.232027,4.61522 0.307848,2.70947 0.279003,5.44159 0.905371,6.982 0.679894,1.67206 3.025853,4.82972 2.758488,4.92322 -0.323298,0.11308 -2.905984,-2.49094 -4.635892,-4.69016 -2.736017,-3.47828 -2.869473,-7.17278 -1.414901,-10.32702 0.343863,-0.74566 1.173185,-1.82471 1.724442,-1.86293 z m 20.776505,1.15445 1.89601,3.63595 h -5.1e-4 c 1.04277,1.99962 1.42252,4.10945 0.84336,4.68861 -1.6167,1.6167 -2.75461,-0.24241 -2.74661,-4.48603 z m 18.65675,1.86759 c -0.68463,0 -1.24489,0.55973 -1.24489,1.24436 0,0.68462 0.50446,1.06467 1.11466,1.37511 1.7243,0.87721 3.48675,1.09674 1.79731,-1.47226 -0.37618,-0.57202 -0.98245,-1.14721 -1.66708,-1.14721 z m 13.58521,11.42152 c 0.51847,-0.0756 0.44566,1.98707 0.34004,2.4846 -0.16685,0.78604 -1.14127,2.49044 -2.68356,3.73931 -2.92861,2.37145 -9.72845,3.47631 -9.18652,2.73058 0,0 5.32057,-2.64612 6.94945,-4.10776 1.77453,-1.59233 3.80895,-4.11496 4.32066,-4.6731 0.0998,-0.10888 0.18587,-0.16282 0.25993,-0.17363 z m -45.74656,1.35031 c 0.54988,-0.0283 2.75354,2.0681 5.03794,3.85558 2.29178,1.79326 5.5387,3.16954 5.5671,3.69744 0.023,0.42749 -1.20329,0.99092 -5.65805,-1.72496 -2.30226,-1.40359 -5.41443,-5.41333 -5.03432,-5.79344 0.0215,-0.0215 0.0507,-0.0327 0.0873,-0.0346 z" /></g></svg>
