<?xml version="1.0" encoding="UTF-8" standalone="no"?>
<!-- Created with Inkscape (http://www.inkscape.org/) -->

<svg
   width="82.086975mm"
   height="73.006599mm"
   viewBox="0 0 82.086978 73.006599"
   version="1.1"
   id="svg1"
   xml:space="preserve"
   inkscape:version="1.4 (86a8ad7, 2024-10-11)"
   sodipodi:docname="ArgoFate.svg"
   xmlns:inkscape="http://www.inkscape.org/namespaces/inkscape"
   xmlns:sodipodi="http://sodipodi.sourceforge.net/DTD/sodipodi-0.dtd"
   xmlns="http://www.w3.org/2000/svg"
   xmlns:svg="http://www.w3.org/2000/svg"><sodipodi:namedview
     id="namedview1"
     pagecolor="#505050"
     bordercolor="#eeeeee"
     borderopacity="1"
     inkscape:showpageshadow="0"
     inkscape:pageopacity="0"
     inkscape:pagecheckerboard="0"
     inkscape:deskcolor="#505050"
     inkscape:document-units="mm"
     inkscape:zoom="1.4396184"
     inkscape:cx="31.258283"
     inkscape:cy="31.952912"
     inkscape:window-width="1920"
     inkscape:window-height="1010"
     inkscape:window-x="1529"
     inkscape:window-y="-6"
     inkscape:window-maximized="1"
     inkscape:current-layer="layer1" /><defs
     id="defs1" /><g
     inkscape:label="Layer 1"
     inkscape:groupmode="layer"
     id="layer1"
     transform="translate(-48.958832,-49.936322)"><path
       style="fill:#080a08;stroke:none"
       d="m 48.958832,50.009816 c 6.259722,11.876408 12.981156,23.499704 19.579167,35.189582 0,-11.344878 4.33711,-23.33582 16.933333,-25.929166 l 0.106688,-9.33391 -36.619188,0.07349 m 46.0375,9.260416 c 12.369658,2.546699 16.933338,14.015524 16.933338,25.4 l 19.11614,-34.572227 -36.049478,-0.09617 v 9.268399 m -22.225,32.54375 17.267615,31.12894 16.933333,-31.220834 -2.46244,-0.04556 c 1.01802,-1.920688 1.61008,-3.675568 1.84153,-5.947966 0.76157,-7.477168 -4.29203,-14.967006 -11.549923,-17.071173 l -0.055,21.032575 h -9.186919 l -0.0882,-20.894733 c -7.728267,0.389652 -12.036095,9.826459 -11.355034,16.66875 0.256305,2.574972 2.116679,6.338126 2.029638,6.338424 z"
       id="path2521"
       sodipodi:nodetypes="ccccccccccccccsccccssc" /></g></svg>
