<?xml version="1.0" encoding="UTF-8" standalone="no"?>
<!-- Created with Inkscape (http://www.inkscape.org/) -->

<svg
   width="35.057571mm"
   height="35.663097mm"
   viewBox="0 0 35.057571 35.663097"
   version="1.1"
   id="svg1"
   xml:space="preserve"
   inkscape:version="1.4 (86a8ad7, 2024-10-11)"
   sodipodi:docname="Attachment.svg"
   xmlns:inkscape="http://www.inkscape.org/namespaces/inkscape"
   xmlns:sodipodi="http://sodipodi.sourceforge.net/DTD/sodipodi-0.dtd"
   xmlns="http://www.w3.org/2000/svg"
   xmlns:svg="http://www.w3.org/2000/svg"><sodipodi:namedview
     id="namedview1"
     pagecolor="#505050"
     bordercolor="#eeeeee"
     borderopacity="1"
     inkscape:showpageshadow="0"
     inkscape:pageopacity="0"
     inkscape:pagecheckerboard="0"
     inkscape:deskcolor="#505050"
     inkscape:document-units="mm"
     inkscape:zoom="2.0334082"
     inkscape:cx="29.507111"
     inkscape:cy="130.07718"
     inkscape:window-width="1920"
     inkscape:window-height="1009"
     inkscape:window-x="1529"
     inkscape:window-y="-6"
     inkscape:window-maximized="1"
     inkscape:current-layer="layer1" /><defs
     id="defs1" /><g
     inkscape:label="Layer 1"
     inkscape:groupmode="layer"
     id="layer1"
     transform="translate(-93.289364,-115.56707)"><path
       style="fill:#000000"
       d="m 115.49062,151.10751 c -3.52175,-0.79268 -6.36928,-3.65294 -7.53737,-7.57105 -1.23265,-4.13467 0.83595,-9.06589 4.7816,-11.39859 5.09633,-3.01298 11.90426,-1.04247 14.45977,4.18531 2.0237,4.13984 1.35617,8.53073 -1.7999,11.83955 -2.02454,2.12251 -3.70903,2.88871 -6.67863,3.03778 -1.26468,0.0635 -2.71614,0.0216 -3.22547,-0.093 z m 3.27899,-2.83019 c 0.0883,-0.23018 0.1606,-1.77433 0.1606,-3.43144 v -3.01293 l 3.24114,-0.0743 3.24115,-0.0743 v -0.66145 -0.66146 l -3.24115,-0.0743 -3.24114,-0.0743 -0.004,-2.83613 c -0.004,-3.32247 -0.14509,-4.02675 -0.80538,-4.02675 -0.76877,0 -0.90272,0.47566 -1.04309,3.70417 l -0.13229,3.0427 -3.08324,0.0743 c -3.18064,0.0767 -3.91949,0.3325 -3.57241,1.23699 0.11934,0.31098 0.82274,0.40738 3.40304,0.46639 l 3.25261,0.0744 0.0753,3.0266 c 0.0417,1.67501 0.20382,3.18149 0.36313,3.37344 0.39582,0.47694 1.19062,0.43581 1.38537,-0.0717 z m -19.191518,-2.34649 c -1.240798,-0.84315 -1.408985,-1.34535 -0.757131,-2.2608 0.76362,-1.0724 0.662945,-1.61623 -0.5115,-2.76305 -0.925844,-0.90406 -1.147931,-0.99981 -1.998687,-0.86175 -0.729306,0.11835 -1.076136,0.0363 -1.457204,-0.34478 -1.008145,-1.00815 -0.924034,-3.17545 0.123235,-3.17545 0.978734,0 1.585747,-2.223 0.937672,-3.43394 -0.14386,-0.26881 -0.798704,-0.69387 -1.455208,-0.94459 -1.07399,-0.41016 -1.191001,-0.53846 -1.167271,-1.27981 0.06,-1.87464 0.269517,-2.13564 1.829541,-2.27916 1.350102,-0.12421 1.474475,-0.19695 2.035628,-1.19063 0.764249,-1.3533 0.75592,-1.76604 -0.05509,-2.72987 -0.804391,-0.95596 -0.827535,-1.45312 -0.114275,-2.4548 1.007168,-1.41444 3.670678,-0.84609 2.950709,0.62963 -0.768252,1.57469 -0.956085,3.31024 -0.599749,5.54163 0.529584,3.31627 1.183258,4.45397 4.675538,8.13752 l 1.88515,1.98839 0.13763,2.91042 c 0.0912,1.92893 0.28028,3.1781 0.56063,3.70417 0.23264,0.43656 0.42372,0.88305 0.42462,0.99219 0.003,0.36168 -0.75887,0.20646 -2.27271,-0.46303 -0.82262,-0.3638 -1.58355,-0.66145 -1.69095,-0.66145 -0.10741,0 -0.64475,0.35718 -1.19409,0.79375 -0.54934,0.43656 -1.07385,0.79375 -1.16559,0.79375 -0.0917,0 -0.59613,-0.29176 -1.120903,-0.64834 z m 7.048988,-10.14308 c -1.59983,-0.33381 -4.27177,-3.60695 -5.18524,-6.35195 -0.55445,-1.66613 -0.55801,-1.76452 -0.1336,-3.69601 0.23981,-1.09137 0.82893,-2.78187 1.30915,-3.75665 l 0.87313,-1.77233 -0.53232,-1.09911 -0.53233,-1.0991 0.56474,-0.59953 c 0.3106,-0.32974 1.04796,-0.74908 1.63858,-0.93187 1.28807,-0.39864 1.89052,-0.12474 2.43303,1.10618 0.32569,0.73896 0.46593,0.81126 1.52762,0.78754 1.24121,-0.0277 2.13828,-0.73782 2.13828,-1.69255 0,-0.62978 1.11698,-1.352 1.60917,-1.04046 0.20637,0.13062 0.7324,0.24113 1.16896,0.24559 1.18791,0.0121 1.55218,0.36624 1.57083,1.52704 0.0206,1.27913 0.37412,1.72751 1.70988,2.16835 0.98789,0.32604 1.07377,0.30856 1.7356,-0.35327 0.38296,-0.38296 0.88518,-0.69629 1.11605,-0.69629 0.69278,0 2.18911,1.05967 2.58941,1.83376 0.33548,0.64874 0.321,0.81243 -0.1387,1.56835 -0.28231,0.46421 -0.51328,0.96589 -0.51328,1.11484 0,0.53362 1.40932,1.56847 2.13604,1.56847 0.52776,0 0.96577,0.27893 1.54886,0.98633 1.56022,1.89281 0.72437,2.46439 -1.35246,0.92486 -1.23794,-0.91767 -2.01086,-1.37773 -3.69933,-2.20195 -1.80874,-0.88293 -7.08711,-0.91485 -9.29537,-0.0562 -2.41994,0.94094 -4.65964,3.07419 -4.66997,4.44802 -0.002,0.29104 0.58916,1.58596 1.31412,2.87759 0.72496,1.29163 1.31415,2.48225 1.30931,2.64583 -0.0121,0.40714 -0.82913,1.35112 -1.31412,1.51822 -0.21828,0.0752 -0.635,0.0871 -0.92604,0.0263 z m 17.19792,-5.77506 c -0.29104,-0.22554 -1.06495,-0.66824 -1.71979,-0.98378 -1.33775,-0.64459 -3.34967,-0.71428 -9.19427,-0.31847 -2.9149,0.19741 -3.24115,0.1759 -3.24115,-0.21373 0,-0.58557 2.22478,-2.1711 3.75388,-2.67526 2.37721,-0.78379 5.93635,-0.34393 8.26648,1.02162 1.14655,0.67192 3.32547,2.8512 3.32547,3.32602 0,0.39286 -0.58017,0.31665 -1.19062,-0.1564 z"
       id="path1" /></g></svg>
