<?xml version="1.0" encoding="UTF-8" standalone="no"?>
<!-- Created with Inkscape (http://www.inkscape.org/) -->

<svg
   width="54.918869mm"
   height="53.266125mm"
   viewBox="0 0 54.91887 53.266124"
   version="1.1"
   id="svg1"
   xml:space="preserve"
   inkscape:version="1.4 (86a8ad7, 2024-10-11)"
   sodipodi:docname="Backpack.svg"
   xmlns:inkscape="http://www.inkscape.org/namespaces/inkscape"
   xmlns:sodipodi="http://sodipodi.sourceforge.net/DTD/sodipodi-0.dtd"
   xmlns="http://www.w3.org/2000/svg"
   xmlns:svg="http://www.w3.org/2000/svg"><sodipodi:namedview
     id="namedview1"
     pagecolor="#505050"
     bordercolor="#eeeeee"
     borderopacity="1"
     inkscape:showpageshadow="0"
     inkscape:pageopacity="0"
     inkscape:pagecheckerboard="0"
     inkscape:deskcolor="#505050"
     inkscape:document-units="mm"
     inkscape:zoom="1.0179639"
     inkscape:cx="-38.802946"
     inkscape:cy="62.870597"
     inkscape:window-width="1920"
     inkscape:window-height="1010"
     inkscape:window-x="1529"
     inkscape:window-y="-6"
     inkscape:window-maximized="1"
     inkscape:current-layer="layer1"
     showgrid="false" /><defs
     id="defs1" /><g
     inkscape:label="Layer 1"
     inkscape:groupmode="layer"
     id="layer1"
     transform="translate(-78.25721,-86.837538)"><path
       id="rect9"
       style="fill:#000000;stroke-width:0.271543"
       d="M 118.49093 86.837538 L 118.49093 89.813584 L 92.606205 89.813584 L 92.606205 86.881463 L 88.379073 86.881463 L 88.379073 89.813584 L 82.795951 89.813584 L 81.425492 90.95615 L 81.425492 98.168629 L 82.731356 99.46209 L 88.379073 99.46209 L 88.379073 103.33059 L 92.606205 103.33059 L 92.606205 99.46209 L 118.49093 99.46209 L 118.49093 103.28615 L 122.71806 103.28615 L 122.71806 99.46209 L 127.01392 99.46209 L 129.02672 97.648764 L 129.02672 91.605722 L 127.20926 89.813584 L 122.71806 89.813584 L 122.71806 86.837538 L 118.49093 86.837538 z M 95.152303 101.81388 L 95.152303 105.52735 L 88.838993 105.52735 L 84.825801 109.50747 L 84.825801 137.13834 L 86.713541 137.13834 L 86.713541 140.10354 L 124.75773 140.10354 L 124.75773 137.13834 L 126.6372 137.13834 L 126.6372 109.98393 L 122.18063 105.52735 L 116.01201 105.52735 L 116.01201 101.81388 L 95.152303 101.81388 z M 102.06764 112.99563 L 110.29195 112.99563 L 110.29195 121.70053 L 117.63155 121.70053 L 117.63155 135.87641 L 94.474825 135.87641 L 94.474825 121.70053 L 102.06764 121.70053 L 102.06764 112.99563 z M 104.08302 114.81464 L 104.08302 125.74989 L 108.30964 125.74989 L 108.30964 114.81464 L 104.08302 114.81464 z M 78.25721 116.91581 L 78.25721 133.36493 L 82.484342 133.36493 L 82.484342 116.91581 L 78.25721 116.91581 z M 128.94921 116.91787 L 128.94921 133.36648 L 133.17582 133.36648 L 133.17582 116.91787 L 128.94921 116.91787 z " /></g></svg>
