<?xml version="1.0" encoding="UTF-8" standalone="no"?>
<!-- Created with Inkscape (http://www.inkscape.org/) -->

<svg
   width="108.61818mm"
   height="164.77507mm"
   viewBox="0 0 108.61818 164.77508"
   version="1.1"
   id="svg1"
   xml:space="preserve"
   inkscape:version="1.4 (86a8ad7, 2024-10-11)"
   sodipodi:docname="Burden.svg"
   xmlns:inkscape="http://www.inkscape.org/namespaces/inkscape"
   xmlns:sodipodi="http://sodipodi.sourceforge.net/DTD/sodipodi-0.dtd"
   xmlns="http://www.w3.org/2000/svg"
   xmlns:svg="http://www.w3.org/2000/svg"><sodipodi:namedview
     id="namedview1"
     pagecolor="#505050"
     bordercolor="#eeeeee"
     borderopacity="1"
     inkscape:showpageshadow="0"
     inkscape:pageopacity="0"
     inkscape:pagecheckerboard="0"
     inkscape:deskcolor="#505050"
     inkscape:document-units="mm"
     inkscape:zoom="0.7198092"
     inkscape:cx="261.87495"
     inkscape:cy="380.65643"
     inkscape:window-width="1920"
     inkscape:window-height="1010"
     inkscape:window-x="4601"
     inkscape:window-y="-6"
     inkscape:window-maximized="1"
     inkscape:current-layer="svg1" /><defs
     id="defs1"><inkscape:path-effect
       effect="fillet_chamfer"
       id="path-effect55"
       is_visible="true"
       lpeversion="1"
       nodesatellites_param="F,0,0,1,0,0,0,1 @ F,0,0,1,0,0,0,1 @ F,0,0,1,0,0,0,1 @ F,0,0,1,0,0,0,1 @ F,0,0,1,0,0,0,1 @ F,0,0,1,0,0,0,1 @ F,0,0,1,0,0,0,1 @ F,0,0,1,0,0,0,1 @ F,0,0,1,0,0,0,1 @ F,0,0,1,0,0,0,1 @ F,0,0,1,0,0,0,1 @ F,0,0,1,0,0,0,1 @ F,0,0,1,0,0,0,1 @ F,0,0,1,0,0,0,1 @ F,0,0,1,0,0,0,1 @ F,0,0,1,0,0,0,1 @ F,0,0,1,0,0,0,1 @ F,0,0,1,0,0,0,1 @ F,0,0,1,0,0,0,1 @ F,0,0,1,0,0,0,1 @ F,0,0,1,0,0,0,1 @ F,0,0,1,0,0,0,1 @ F,0,0,1,0,0,0,1 @ F,0,0,1,0,0,0,1 @ F,0,0,1,0,0,0,1 @ F,0,0,1,0,0,0,1 @ F,0,0,1,0,0,0,1 @ F,0,0,1,0,0,0,1 @ F,0,0,1,0,0,0,1 @ F,0,0,1,0,0,0,1 @ F,0,0,1,0,0,0,1 @ F,0,0,1,0,0,0,1 @ F,0,0,1,0,0,0,1 @ F,0,0,1,0,0,0,1 @ F,0,0,1,0,0,0,1 @ F,0,0,1,0,0,0,1 @ F,0,0,1,0,0,0,1 @ F,0,0,1,0,0,0,1 @ F,0,0,1,0,0,0,1 @ F,0,0,1,0,0,0,1 @ F,0,0,1,0,0,0,1 @ F,0,0,1,0,0,0,1 @ F,0,0,1,0,0,0,1 @ F,0,0,1,0,0,0,1 @ F,0,0,1,0,0,0,1 @ F,0,0,1,0,0,0,1 @ F,0,0,1,0,0,0,1 @ F,0,0,1,0,0,0,1 @ F,0,0,1,0,0,0,1 @ F,0,0,1,0,0,0,1 @ F,0,0,1,0,0,0,1 @ F,0,0,1,0,0,0,1 @ F,0,0,1,0,0,0,1 @ F,0,0,1,0,0,0,1 @ F,0,0,1,0,0,0,1 @ F,0,0,1,0,0,0,1 @ F,0,0,1,0,0,0,1 | F,0,0,1,0,0,0,1 @ F,0,0,1,0,0,0,1 @ F,0,0,1,0,0,0,1 @ F,0,0,1,0,0,0,1 @ F,0,0,1,0,0,0,1 @ F,0,0,1,0,0,0,1 @ F,0,0,1,0,0,0,1 @ F,0,0,1,0,0,0,1 @ F,0,0,1,0,0,0,1 @ F,0,0,1,0,0,0,1 @ F,0,0,1,0,0,0,1 @ F,0,0,1,0,0,0,1 @ F,0,0,1,0,0,0,1 @ F,0,0,1,0,0,0,1 @ F,0,0,1,0,0,0,1 @ F,0,0,1,0,0,0,1 @ F,0,0,1,0,0,0,1 @ F,0,0,1,0,0,0,1 @ F,0,0,1,0,0,0,1 @ F,0,0,1,0,0,0,1 | F,0,0,1,0,0,0,1 @ F,0,0,1,0,0,0,1 @ F,0,0,1,0,0,0,1 @ F,0,0,1,0,0,0,1 @ F,0,0,1,0,0,0,1 @ F,0,0,1,0,0,0,1 @ F,0,0,1,0,0,0,1 @ F,0,0,1,0,0,0,1 @ F,0,0,1,0,0,0,1 @ F,0,0,1,0,0,0,1 @ F,0,0,1,0,0,0,1 @ F,0,0,1,0,0,0,1 @ F,0,0,1,0,0,0,1 @ F,0,0,1,0,0,0,1 @ F,0,0,1,0,0,0,1 @ F,0,0,1,0,0,0,1 @ F,0,0,1,0,0,0,1 @ F,0,0,1,0,0,0,1 @ F,0,0,1,0,0,0,1 @ F,0,0,1,0,0,0,1 @ F,0,0,1,0,0,0,1 @ F,0,0,1,0,0,0,1 @ F,0,0,1,0,0,0,1 @ F,0,0,1,0,0,0,1 @ F,0,0,1,0,0,0,1 @ F,0,0,1,0,0,0,1 @ F,0,0,1,0,0,0,1 @ F,0,0,1,0,0,0,1 @ F,0,0,1,0,0,0,1 @ F,0,0,1,0,0,0,1 @ F,0,0,1,0,0,0,1 @ F,0,0,1,0,0,0,1 @ F,0,0,1,0,0,0,1 @ F,0,0,1,0,0,0,1 @ F,0,0,1,0,0,0,1 @ F,0,0,1,0,0,0,1 @ F,0,0,1,0,0,0,1 @ F,0,0,1,0,0,0,1 @ F,0,0,1,0,0,0,1 @ F,0,0,1,0,0,0,1 @ F,0,0,1,0,0,0,1 @ F,0,0,1,0,0,0,1 @ F,0,0,1,0,0,0,1 @ F,0,0,1,0,0,0,1 @ F,0,0,1,0,0,0,1 @ F,0,0,1,0,0,0,1 @ F,0,0,1,0,0,0,1 | F,0,0,1,0,0,0,1 @ F,0,0,1,0,0,0,1 @ F,0,0,1,0,0,0,1 @ F,0,0,1,0,0,0,1 @ F,0,0,1,0,0,0,1"
       radius="0"
       unit="px"
       method="auto"
       mode="F"
       chamfer_steps="1"
       flexible="false"
       use_knot_distance="true"
       apply_no_radius="true"
       apply_with_radius="true"
       only_selected="false"
       hide_knots="false" /></defs><g
     inkscape:groupmode="layer"
     id="layer2"
     inkscape:label="Black"
     transform="translate(-28.548032,-4.0096321)"
     style="display:inline;opacity:1"><path
       id="path55"
       style="display:inline;opacity:1;fill:#000000"
       d="M 82.857378,4.0096321 C 52.863298,4.0094924 28.548177,28.324382 28.548032,58.318462 c 0.04269,14.965335 5.901262,28.98988 16.823262,39.220862 0.636695,-0.550524 1.104925,-1.397104 1.283126,-1.388546 l 7.17889,-8.549349 c 0,0 4.537502,18.456241 4.39043,18.555461 3.055976,1.71348 4.250041,2.73291 7.578349,3.82715 0.378026,-4.89399 4.12998,-8.13542 4.12998,-8.13542 7.271044,-6.036726 12.442666,-3.605577 15.259017,-0.34468 0,0 4.136462,3.70679 4.146517,10.68359 4.615596,-0.63009 9.715919,-1.91653 14.019817,-3.699 l 5.04517,-2.38694 5.14852,-3.09283 C 128.29784,92.906126 137.12891,76.193805 137.16621,58.318462 137.16606,28.324583 112.85126,4.0097762 82.857378,4.0096321 Z M 53.465891,89.43956 47.109173,96.800351 c -0.518512,-0.0249 -4.031788,3.505719 -4.406966,3.673679 -0.637693,0.2855 -4.044082,3.52225 -7.463628,7.09207 -3.553214,3.70936 -5.007162,11.22039 -2.809647,14.51384 3.002328,4.51323 5.907157,9.25867 10.252604,12.5889 4.85846,3.73586 8.68783,2.75182 10.600903,10.64431 1.556622,5.7367 5.358548,10.04065 9.099703,14.81925 1.038841,1.32692 2.101598,2.83885 3.994588,4.60902 2.872902,2.68651 2.724959,2.60808 7.128764,3.78323 2.085205,0.55643 14.869701,0.0222 17.245459,0.17932 11.727757,0.77546 8.851007,-11.29497 7.00319,-13.75885 -1.253982,-1.67206 1.283643,-6.57305 1.283643,-8.41085 0,-5.17642 13.071784,-6.06898 20.449914,-13.58005 4.53262,-4.61429 5.86229,-7.06111 5.60121,-10.30687 -0.20692,-2.57248 -1.77772,-7.98443 -2.50527,-8.63151 -3.44987,-5.20674 -2.81324,-5.46467 -8.30802,-8.71058 l -6.82284,3.70727 c 0,0 -3.21895,1.50293 -2.97192,1.96163 1.05613,1.96112 2.45498,10.1817 0.96429,9.11573 -1.45146,-1.03793 -13.408453,-1.04211 -19.765722,2.09082 -2.128877,1.04913 2.851154,-7.72239 1.158586,-12.85399 -3.358477,-8.90242 -11.036113,-13.577529 -18.713587,-2.72283 -1.389476,3.29849 -0.974868,7.55729 -0.240812,10.4097 0.434377,1.6879 1.15944,2.28655 1.203028,3.5233 -1.501691,1.53244 -14.363999,-5.70697 -16.007809,-6.29574 -3.110384,-1.60889 0.357548,-6.6693 3.951697,-8.85373 z" /></g></svg>
