<?xml version="1.0" encoding="UTF-8" standalone="no"?>
<!-- Created with Inkscape (http://www.inkscape.org/) -->

<svg
   width="53.974998mm"
   height="52.187702mm"
   viewBox="0 0 53.975 52.1877"
   version="1.1"
   id="svg1"
   xml:space="preserve"
   inkscape:version="1.4 (86a8ad7, 2024-10-11)"
   sodipodi:docname="ChariotA.svg"
   xmlns:inkscape="http://www.inkscape.org/namespaces/inkscape"
   xmlns:sodipodi="http://sodipodi.sourceforge.net/DTD/sodipodi-0.dtd"
   xmlns="http://www.w3.org/2000/svg"
   xmlns:svg="http://www.w3.org/2000/svg"><sodipodi:namedview
     id="namedview1"
     pagecolor="#505050"
     bordercolor="#eeeeee"
     borderopacity="1"
     inkscape:showpageshadow="0"
     inkscape:pageopacity="0"
     inkscape:pagecheckerboard="0"
     inkscape:deskcolor="#505050"
     inkscape:document-units="mm"
     inkscape:zoom="1.4142136"
     inkscape:cx="71.417785"
     inkscape:cy="166.17009"
     inkscape:window-width="1920"
     inkscape:window-height="1010"
     inkscape:window-x="4601"
     inkscape:window-y="-6"
     inkscape:window-maximized="1"
     inkscape:current-layer="layer1" /><defs
     id="defs1" /><g
     inkscape:label="Layer 1"
     inkscape:groupmode="layer"
     id="layer1"
     transform="translate(-45.355641,-64.475399)"><path
       id="path12"
       style="display:inline;fill:#000000;fill-opacity:1;stroke-width:0.264999"
       d="m 58.626149,64.475584 c -5.478779,0.02116 -10.823112,1.850534 -10.823112,1.850534 0,0 1.256771,-0.132292 2.711979,0.264583 1.455209,0.396875 3.307292,0.777213 3.307292,0.777213 0,0 6.449663,-2.643245 11.968778,-0.257865 5.519116,2.385383 8.606193,5.939689 8.606193,5.939689 0,0 1.028934,1.801026 4.139283,3.250964 3.110349,1.449935 4.794022,1.42627 4.794022,1.42627 0,0 3.592431,-0.260685 6.10402,0.7953 3.504196,1.473322 3.006955,5.706112 2.525428,5.706112 l 1.964221,1.356506 c -4.37e-4,1.13e-4 1.132345,-3.673582 -1.246436,-6.747391 -2.312178,-2.987744 -8.714296,-2.693126 -8.692492,-2.747636 0,0 -1.426629,0.187341 -4.116028,-1.145667 -2.6894,-1.333005 -6.454387,-4.700488 -6.454387,-4.700488 0,0 -4.560141,-4.209818 -11.038086,-5.44928 -1.214614,-0.232399 -2.486341,-0.323727 -3.750675,-0.318844 z m -0.307992,3.779098 c -3.885165,-0.01572 -6.277688,2.145906 -6.248714,2.238623 l 2.678907,0.694531 c -0.01478,0.03448 5.497071,-1.444528 10.995711,0.833024 3.237442,1.340958 5.667546,4.564322 5.940206,4.44314 0,0 -0.04692,0.795343 3.788399,2.806547 3.835318,2.011201 6.501412,2.478918 6.501412,2.478918 0,0 1.871178,-0.60806 4.537191,0.187069 2.666013,0.795126 3.647839,2.011247 3.647839,2.011247 1.249725,-1.075731 0.751723,-2.151462 0,-3.227193 0,0 -5.803038,-0.16636 -11.13162,-1.63711 -5.511934,-1.521358 -5.629765,-6.187433 -13.002824,-9.260933 -2.08347,-0.868506 -4.154742,-1.111988 -5.952608,-1.415418 -0.613233,-0.103496 -1.198875,-0.1502 -1.753899,-0.152445 z m -7.18199,0.09302 c -0.669449,-0.0064 -1.46451,0.740006 -1.46451,0.740006 l 0.959114,1.190625 c 0,0 1.719792,-0.876432 1.058334,-1.670182 C 51.534075,68.422114 51.3411,68.349647 51.136167,68.3477 Z m 1.620573,3.571875 c -0.267743,-0.0048 -0.430982,0.252181 -0.430982,0.252181 l -0.0248,1.95957 1.157552,-0.959115 c 0,0 0.232071,-0.525504 -0.277503,-1.035079 -0.159242,-0.159242 -0.302562,-0.21537 -0.424263,-0.217557 z m 5.638415,0.855761 c -2.040435,0.02923 -3.502111,0.321428 -3.502111,0.321428 l -0.794784,2.057755 1.964221,7.062618 4.5837,5.051371 c 2.676623,1.096676 4.622307,2.709309 5.799646,4.864303 0,0 2.431926,-3.74169 4.536674,-5.612577 2.104748,-1.870885 7.717875,-4.069003 7.717875,-4.069003 l -5.144906,-1.12293 c 0,0 -3.555102,-5.191449 -8.185547,-7.296196 -2.315222,-1.052375 -4.934332,-1.286003 -6.974768,-1.256771 z M 82.76111,83.259451 c -9.151099,-10e-7 -16.569531,7.374983 -16.569531,16.635677 -2e-6,9.260692 7.418431,16.767972 16.569531,16.767972 9.1511,0 16.569533,-7.50728 16.569531,-16.767972 0,-9.260694 -7.418432,-16.635678 -16.569531,-16.635677 z m -27.814323,1.5875 c 0,0 -0.826823,1.355989 0.859896,3.042708 1.686719,1.686718 -0.131868,1.39879 0.560172,2.090829 0.69204,0.692042 1.291911,-0.437183 1.291911,-0.437183 0,0 0.463021,0.264583 0.463021,-1.322917 0,-1.5875 -3.175,-3.373437 -3.175,-3.373437 z m 28.739331,0.03256 a 15.114323,15.114323 0 0 1 8.302336,3.166732 v 0.571024 l -0.56224,0.396875 -0.167432,-0.01189 A 13.923698,13.923698 0 0 0 83.610154,86.13266 Z m -2.319755,0.09819 0.06046,1.221631 A 13.923698,13.923698 0 0 0 78.5655,86.769314 l -1.195276,-0.202571 0.06046,-0.727088 a 15.114323,15.114323 0 0 1 3.935677,-0.861963 z m -5.323189,1.483631 0.235644,0.535367 -1.39423,1.578199 a 13.923698,13.923698 0 0 0 -0.994254,0.74414 l -0.257349,-0.238745 -1.124479,0.859896 -1.074353,0.03256 a 15.114323,15.114323 0 0 1 4.609021,-3.511413 z m 6.618717,1.395263 0.231511,1.322917 1.422135,-0.06615 0.992187,-0.727604 0.475424,-0.291455 a 12.137761,12.137761 0 0 1 0.762227,0.183451 l -0.77463,0.637171 -0.429948,3.241145 -0.760677,0.297657 -0.959114,2.083593 -2.315104,0.363803 -1.058334,-2.215886 -1.091406,0.826823 -0.03307,0.661458 0.892969,0.496094 -0.03307,0.628386 -0.760677,0.429947 0.08062,0.834058 A 4.887692,4.887692 0 0 0 79.122572,96.7501 l -1.818493,-0.02997 -1.025261,-0.595313 -1.422135,0.297657 -0.892969,-0.859896 -0.959115,0.198437 0.396875,-2.943489 1.157553,-1.256771 1.488281,-0.03307 0.330729,-0.694531 0.661458,0.03307 0.463021,0.760677 h 1.025261 l 0.562239,0.727604 0.429948,0.132292 -0.03307,-1.389063 -0.496094,-1.157552 0.694532,-0.760677 h 1.157552 l 0.859896,-1.289844 z m 5.304586,1.004073 a 12.137761,12.137761 0 0 1 0.483691,0.222726 l -0.562756,0.426847 z m -28.654065,0.02119 c -1.776262,6.124027 1.760155,3.175452 -0.496094,6.416146 l -13.460677,-2.579688 1.190625,2.447396 17.594792,3.638021 1.653646,-4.167188 c 0.494923,0.306381 -1.762639,-4.962263 -6.482292,-5.754687 z m 12.105204,1.111043 0.03256,1.170988 -0.727604,0.429948 -0.264583,0.892969 -0.727604,0.198437 -0.132292,1.35599 -0.805119,0.02015 a 15.114323,15.114323 0 0 1 2.624646,-4.068485 z m 22.753133,0.13901 a 15.114323,15.114323 0 0 1 1.444873,2.000911 l -0.544152,1.39268 a 13.923698,13.923698 0 0 0 -1.83348,-2.662887 l 0.900203,-0.128674 z m -6.481774,0.105936 1.091406,0.03307 0.463021,0.595313 1.630908,-0.07751 a 12.137761,12.137761 0 0 1 0.607198,0.541052 c -0.275066,0.543871 -0.664286,1.426338 -0.485242,1.851567 0.264583,0.628386 1.5875,0.661458 1.5875,0.661458 v 0.529167 l -2.645833,1.653646 -1.852084,-0.09922 -1.436604,0.948262 a 4.887692,4.887692 0 0 0 -1.741496,-1.379244 l 1.292944,-1.189591 -0.529166,-1.554427 0.529166,-0.992188 0.694531,-0.595312 z m -19.307349,5.091162 0.290421,0.200505 0.06615,0.760677 0.595313,-0.429948 0.164331,-0.01499 a 13.923698,13.923698 0 0 0 -0.435633,1.81901 l -0.357084,0.114205 -0.396875,1.025261 0.33073,1.02526 -0.595313,-0.297656 -0.445968,0.604097 a 15.114323,15.114323 0 0 1 -0.01705,-0.174149 15.114323,15.114323 0 0 1 0.800985,-4.632276 z m 27.972453,0.0021 0.772046,0.164331 a 15.114323,15.114323 0 0 1 0.518831,2.281515 l -0.596346,0.7953 -0.476457,-0.279052 a 13.923698,13.923698 0 0 0 -0.49506,-2.331641 z m -3.671094,0.727605 1.620573,2.546614 0.586527,0.272335 a 12.137761,12.137761 0 0 1 0.0708,0.901754 l -1.667598,1.474323 0.140043,0.88832 -0.467672,0.95911 -2.619478,0.0935 -0.06976,0.53743 2.198316,0.39791 -0.584977,2.0345 -0.654741,1.12241 -0.210323,1.28623 -1.122412,-0.42064 -1.099158,0.74827 -0.449068,1.73323 a 12.137761,12.137761 0 0 1 -1.240234,0.51624 l 0.35605,-0.49557 0.397392,-1.84743 -1.496549,0.0703 -0.467672,1.8004 -2.034501,0.18707 -0.61495,1.06815 a 12.137761,12.137761 0 0 1 -0.42633,0.0336 12.137761,12.137761 0 0 1 -0.813387,-0.0641 l -1.021643,-1.48208 -1.894975,0.95705 a 12.137761,12.137761 0 0 1 -0.451652,-0.18345 l 0.47749,-0.51728 -0.297656,-0.69453 0.926042,-1.15755 0.396874,-1.62058 0.529167,-0.46302 -0.06615,-0.29765 0.661459,-0.33073 -0.132292,-1.05834 0.652157,-0.37258 a 4.887692,4.887692 0 0 0 1.046964,0.12609 4.887692,4.887692 0 0 0 1.056266,-0.12816 l -0.175699,1.00304 1.25677,1.75286 0.198438,-1.02526 0.463021,1.05834 0.164847,-3.67678 a 4.887692,4.887692 0 0 0 1.131198,-1.20768 l 2.044319,0.84956 0.628386,-0.29766 0.03307,-1.19062 -2.107365,-0.66404 a 4.887692,4.887692 0 0 0 0.194303,-1.361157 4.887692,4.887692 0 0 0 -0.12609,-1.046964 l 2.369881,-1.95492 z m -19.61224,0.628385 2.612761,1.785938 1.5875,0.23151 0.690397,1.076937 a 4.887692,4.887692 0 0 0 -0.0098,0.139009 4.887692,4.887692 0 0 0 0.0155,0.216517 l -0.960665,1.048 -2.678906,1.88516 -2.875793,0.91519 a 12.137761,12.137761 0 0 1 -0.762228,-4.156334 12.137761,12.137761 0 0 1 0.06925,-0.877983 l 0.889868,-0.444934 0.297656,-1.719791 z m 10.633977,0.544153 1.590083,1.309481 -0.233577,2.338867 -3.601331,2.33836 -1.403532,-1.45004 -0.233577,-2.431887 1.262972,-1.356506 z m -0.608232,0.888318 -1.590084,0.93586 -0.187069,1.54305 0.888835,-0.2806 v 0.42116 l -1.169438,1.35651 2.713013,-1.8712 0.374137,-1.543057 z m 14.71073,1.90944 a 15.114323,15.114323 0 0 1 -0.362769,3.19929 l -1.006657,-0.6041 a 13.923698,13.923698 0 0 0 0.237195,-2.1947 l 0.505913,0.39171 0.198437,-0.76068 z m -28.916065,0.74931 a 13.923698,13.923698 0 0 0 0.584461,3.37189 l -0.737423,-0.0217 -0.160713,1.11001 a 15.114323,15.114323 0 0 1 -0.807703,-3.35483 l 0.07545,-0.0703 0.297656,-0.79375 z m 8.545215,2.09341 1.058334,0.0331 0.06615,1.48828 0.997356,-0.85886 a 4.887692,4.887692 0 0 0 0.479557,0.37879 c -0.156579,0.35088 -0.410771,0.96712 -0.617017,1.73685 -0.313164,1.16874 -0.363802,2.3151 -0.363802,2.3151 l -1.885156,2.05052 -0.04909,0.50901 a 12.137761,12.137761 0 0 1 -4.778519,-4.64416 l 1.685685,-1.68568 1.455208,-0.99219 0.396875,0.89297 z m 19.116146,0.99219 0.719336,0.0832 a 15.114323,15.114323 0 0 1 -14.576888,11.12852 15.114323,15.114323 0 0 1 -4.403349,-0.73174 l -0.06046,-1.18288 a 13.923698,13.923698 0 0 0 3.691247,0.73019 l -0.05426,0.32453 0.926042,0.29766 1.346688,-0.63149 a 13.923698,13.923698 0 0 0 3.144511,-0.68988 l 0.271301,0.22996 0.959114,0.13229 0.314193,-0.99839 a 13.923698,13.923698 0 0 0 3.63182,-2.54558 l 0.61805,-0.0279 0.128157,-0.75551 a 13.923698,13.923698 0 0 0 1.923397,-2.81637 h 0.26355 z m -26.326042,2.8112 0.347266,0.0119 a 13.923698,13.923698 0 0 0 1.743046,2.53731 l -0.568957,-0.0357 0.03307,0.42995 -0.588595,0.0367 A 15.114323,15.114323 0 0 1 70.050775,108.214 Z m 3.40341,3.86229 a 13.923698,13.923698 0 0 0 2.648417,1.77405 l 0.165882,0.91209 -0.591179,0.13643 a 15.114323,15.114323 0 0 1 -2.930053,-1.96009 l 0.313159,-0.82217 z" /></g></svg>
