<?xml version="1.0" encoding="UTF-8" standalone="no"?>
<!-- Created with Inkscape (http://www.inkscape.org/) -->

<svg
   width="55.267429mm"
   height="53.675282mm"
   viewBox="0 0 55.267431 53.675279"
   version="1.1"
   id="svg1"
   xml:space="preserve"
   inkscape:version="1.4 (86a8ad7, 2024-10-11)"
   sodipodi:docname="ChariotB.svg"
   xmlns:inkscape="http://www.inkscape.org/namespaces/inkscape"
   xmlns:sodipodi="http://sodipodi.sourceforge.net/DTD/sodipodi-0.dtd"
   xmlns="http://www.w3.org/2000/svg"
   xmlns:svg="http://www.w3.org/2000/svg"><sodipodi:namedview
     id="namedview1"
     pagecolor="#505050"
     bordercolor="#eeeeee"
     borderopacity="1"
     inkscape:showpageshadow="0"
     inkscape:pageopacity="0"
     inkscape:pagecheckerboard="0"
     inkscape:deskcolor="#505050"
     inkscape:document-units="mm"
     inkscape:zoom="1.4142136"
     inkscape:cx="70.710678"
     inkscape:cy="-38.183766"
     inkscape:window-width="1920"
     inkscape:window-height="1010"
     inkscape:window-x="4601"
     inkscape:window-y="-6"
     inkscape:window-maximized="1"
     inkscape:current-layer="layer1" /><defs
     id="defs1" /><g
     inkscape:label="Layer 1"
     inkscape:groupmode="layer"
     id="layer1"
     transform="translate(-45.518422,-133.57989)"><path
       id="path36"
       style="display:inline;fill:#000000;fill-opacity:1;stroke-width:0.264999"
       d="m 95.535524,133.57989 c 0,0 -1.289844,1.06656 -1.976107,1.15756 -0.686263,0.091 -1.061434,0.0517 -1.061434,0.0517 0,0 -4.117744,0.0867 -9.728605,1.59009 -5.61086,1.50343 -12.348083,5.23844 -12.348083,5.23844 0,0 -8.044558,3.83533 -12.066964,4.67723 -4.022406,0.84195 -7.390247,0.0935 -7.390247,0.0935 l -1.683618,1.87121 0.303858,0.49092 1.637109,-0.88883 c 0,0 8.024833,-0.4408 12.787333,-1.56528 4.7625,-1.12448 6.366537,-2.34818 6.366537,-2.34818 0,0 4.018361,-2.14974 10.169921,-4.79557 6.151563,-2.64583 11.648902,-2.7497 11.648902,-2.7497 l 0.210323,0.2806 0.888835,0.1633 1.613338,-1.54306 z m -2.2903,4.11758 c 0,0 -3.96875,0.0661 -8.73125,1.38906 -4.762499,1.32292 -9.260416,3.83646 -9.260416,3.83646 0,0 -2.513542,2.18281 -9.988021,4.23334 -7.474479,2.05052 -15.08125,2.3151 -15.08125,2.3151 0,0 0.661458,1.38906 0.463021,3.50573 -0.198438,2.11667 -1.190625,4.10104 -1.190625,4.10104 0,0 3.96875,-3.70417 9.988021,-4.29948 6.01927,-0.59531 8.287349,-0.19275 8.287349,-0.19275 0,0 6.595464,0.25888 10.365776,6.01359 3.770313,5.75466 2.38125,10.38489 2.38125,10.38489 0,0 18.123958,-3.83646 18.123958,-3.57187 0,0.26458 2.182813,-3.24115 2.182813,-3.24115 l -13.956771,2.71198 -1.91823,1.65365 6.746876,-24.87084 -4.762501,1.52136 -0.264583,-0.59532 4.960938,-1.91823 z m -30.940747,15.9768 c -9.141371,-8e-5 -16.786053,7.35728 -16.786055,16.83722 -4e-6,9.47994 7.691707,16.74376 16.833081,16.74368 9.141173,-2.1e-4 16.738517,-7.1239 16.738513,-16.60364 -2e-6,-9.47973 -7.64437,-16.97705 -16.785539,-16.97726 z m -0.232027,1.08676 A 15.692061,15.692062 0 0 1 77.764516,170.4531 15.692061,15.692062 0 0 1 62.07245,186.14516 15.692061,15.692062 0 0 1 46.380385,170.4531 15.692061,15.692062 0 0 1 62.07245,154.76103 Z m 0.187069,1.02888 a 14.850163,14.663074 0 0 0 -14.84974,14.66319 14.850163,14.663074 0 0 0 14.84974,14.66267 14.850163,14.663074 0 0 0 14.850256,-14.66267 14.850163,14.663074 0 0 0 -14.850256,-14.66319 z m 3.354317,3.28507 c 0.148548,-0.004 0.327107,0.0442 0.445968,0.25011 0.23772,0.41175 0.10542,0.65061 0.10542,0.65061 -0.66418,1.6287 -1.510847,3.19702 -2.549199,4.701 l -0.888318,0.63149 -1.987992,0.56121 -0.444417,-0.81856 0.245463,-1.3038 -1.325501,-1.3255 -0.159163,0.0568 -0.444417,2.19831 0.65474,1.28623 -1.590601,1.87069 -1.683618,-0.77153 -1.215946,0.0935 -0.365353,0.25787 0.04444,0.53278 2.659269,1.15032 c 0.104456,0.64786 0.583854,1.22776 0.07028,1.98799 -1.193745,1.29298 -2.906307,2.06698 -4.513419,2.94659 l -0.701766,-0.18707 -1.145667,0.51418 c 0,0 -0.701775,-1.52023 -0.608231,-3.46128 0.09354,-1.94104 1.707389,-4.04575 1.707389,-4.04575 l 0.795817,0.34416 0.690914,-0.17725 0.47749,-1.78025 -1.005623,0.77153 -0.654741,-0.18707 -0.374137,-0.35088 c 1.112749,-1.55519 2.180362,-3.12844 3.718636,-4.51342 h 1.543058 l 1.333252,1.14618 0.584461,-0.21084 -0.420646,-1.02888 1.099157,-1.21594 c 1.59769,-0.35883 3.693318,-0.38575 5.635832,-0.5147 0,0 0.11862,-0.0552 0.267167,-0.0589 z m 2.094963,1.57923 c 0.9378,0.34185 1.872924,0.66379 2.993099,2.52543 l 1.192692,0.46819 0.304374,1.09864 -0.701766,1.40353 -1.379761,0.30386 -0.771529,0.63148 -1.894458,-0.14056 -1.122412,0.91209 -0.537952,-0.0465 -0.327628,-0.77204 -0.701249,-0.678 1.028877,-1.73064 -0.303857,-1.05213 0.210323,-0.67852 1.028878,-1.61333 z m 3.60133,6.45439 2.034501,0.0703 c 0,0 0.818535,0.8186 1.005624,2.73626 0.187088,1.91766 -0.607715,3.18069 -0.607715,3.18069 l -1.824178,1.44952 0.51418,0.46819 -0.116788,1.09916 c 0,0 -0.960083,1.19353 -1.987993,2.3151 -1.07576,1.17378 -2.455147,1.88479 -2.455147,1.87069 l -1.262972,0.16381 0.09353,-1.23971 -0.397391,-0.79479 -0.327629,-0.0238 0.327629,0.84233 -0.257349,1.19269 c -0.635301,1.10827 -1.837633,1.27193 -2.806547,1.82418 -1.60088,0.0248 -3.219371,0.15585 -4.700488,-0.53795 -0.65523,-0.1431 -0.423948,-0.99593 -0.514698,-1.59061 l 0.935861,-1.42626 c 0.590343,-0.702 0.965818,-1.54289 1.760616,-2.204 0.494908,-0.43128 0.837587,-0.65084 1.209228,-0.99994 l 0.865064,-0.0703 0.841809,1.68361 1.824178,1.09916 0.14056,-2.05775 -0.467672,-0.25735 v -0.74828 l 0.607715,-0.39739 0.514697,-0.84232 1.286226,0.1173 0.677995,0.72502 0.163815,-0.84232 0.748274,-0.0698 0.327629,0.35037 h 1.473295 l 0.02325,-0.42065 -1.052132,-0.25735 -0.234094,-0.30385 -2.899565,-0.88884 -0.02377,-0.70176 0.491443,-0.32712 0.163814,-1.14618 c 0,0 0.444166,-0.608 1.590084,-1.56683 1.145918,-0.95883 2.315104,-1.47329 2.315104,-1.47329 z m -8.734867,0.6103 c 1.56817,-0.0145 3.002798,1.56003 2.508374,3.26646 -0.398557,1.37557 -1.546649,2.24725 -2.769857,2.6293 -1.678123,0.52412 -3.916937,-1.57589 -3.183268,-3.15846 0.539386,-1.1635 1.507931,-2.22876 2.769857,-2.6293 0.224246,-0.0712 0.45087,-0.10593 0.674894,-0.108 z m 0.275952,0.93482 -0.479557,0.84336 -0.611849,0.0827 -0.992188,1.10795 c 0.01654,0.0992 -0.03307,0.76067 -0.03307,0.76067 l 1.07487,0.26459 1.471745,-1.20716 -0.396875,-0.72761 0.529167,-0.94258 z m -5.619295,4.81573 0.65474,0.0935 0.329179,0.56379 c 0.515941,0.23606 0.660295,0.55716 0.910022,0.81597 0,0 -0.210507,2.24509 -0.912089,3.48455 -0.701583,1.23946 -1.145666,1.80092 -1.145666,1.80092 -0.623629,0.27455 -1.247575,0.27819 -1.871204,0.11679 0,0 -0.958459,-0.32722 -2.268079,-1.68362 -1.307663,-1.35436 -1.449619,-2.24217 -1.45004,-2.24482 v -5.2e-4 l 0.631486,-1.02888 1.987992,-1.47329 2.73575,-0.0465 z" /></g></svg>
