<?xml version="1.0" encoding="UTF-8" standalone="no"?>
<!-- Created with Inkscape (http://www.inkscape.org/) -->

<svg
   width="124.70351mm"
   height="135.4222mm"
   viewBox="0 0 124.70351 135.4222"
   version="1.1"
   id="svg1"
   xml:space="preserve"
   inkscape:version="1.4 (86a8ad7, 2024-10-11)"
   sodipodi:docname="Clutch.svg"
   xmlns:inkscape="http://www.inkscape.org/namespaces/inkscape"
   xmlns:sodipodi="http://sodipodi.sourceforge.net/DTD/sodipodi-0.dtd"
   xmlns="http://www.w3.org/2000/svg"
   xmlns:svg="http://www.w3.org/2000/svg"><sodipodi:namedview
     id="namedview1"
     pagecolor="#505050"
     bordercolor="#eeeeee"
     borderopacity="1"
     inkscape:showpageshadow="0"
     inkscape:pageopacity="0"
     inkscape:pagecheckerboard="0"
     inkscape:deskcolor="#505050"
     inkscape:document-units="mm"
     inkscape:zoom="1.0179639"
     inkscape:cx="213.17062"
     inkscape:cy="276.04121"
     inkscape:window-width="1147"
     inkscape:window-height="1002"
     inkscape:window-x="4602"
     inkscape:window-y="0"
     inkscape:window-maximized="0"
     inkscape:current-layer="layer2" /><defs
     id="defs1"><inkscape:path-effect
       effect="fillet_chamfer"
       id="path-effect55"
       is_visible="true"
       lpeversion="1"
       nodesatellites_param="F,0,0,1,0,0,0,1 @ F,0,0,1,0,0,0,1 @ F,0,0,1,0,0,0,1 @ F,0,0,1,0,0,0,1 @ F,0,0,1,0,0,0,1 @ F,0,0,1,0,0,0,1 @ F,0,0,1,0,0,0,1 @ F,0,0,1,0,0,0,1 @ F,0,0,1,0,0,0,1 @ F,0,0,1,0,0,0,1 @ F,0,0,1,0,0,0,1 @ F,0,0,1,0,0,0,1 @ F,0,0,1,0,0,0,1 @ F,0,0,1,0,0,0,1 @ F,0,0,1,0,0,0,1 @ F,0,0,1,0,0,0,1 @ F,0,0,1,0,0,0,1 @ F,0,0,1,0,0,0,1 @ F,0,0,1,0,0,0,1 @ F,0,0,1,0,0,0,1 @ F,0,0,1,0,0,0,1 @ F,0,0,1,0,0,0,1 @ F,0,0,1,0,0,0,1 @ F,0,0,1,0,0,0,1 @ F,0,0,1,0,0,0,1 @ F,0,0,1,0,0,0,1 @ F,0,0,1,0,0,0,1 @ F,0,0,1,0,0,0,1 @ F,0,0,1,0,0,0,1 @ F,0,0,1,0,0,0,1 @ F,0,0,1,0,0,0,1 @ F,0,0,1,0,0,0,1 @ F,0,0,1,0,0,0,1 @ F,0,0,1,0,0,0,1 @ F,0,0,1,0,0,0,1 @ F,0,0,1,0,0,0,1 @ F,0,0,1,0,0,0,1 @ F,0,0,1,0,0,0,1 @ F,0,0,1,0,0,0,1 @ F,0,0,1,0,0,0,1 @ F,0,0,1,0,0,0,1 @ F,0,0,1,0,0,0,1 @ F,0,0,1,0,0,0,1 @ F,0,0,1,0,0,0,1 @ F,0,0,1,0,0,0,1 @ F,0,0,1,0,0,0,1 @ F,0,0,1,0,0,0,1 @ F,0,0,1,0,0,0,1 @ F,0,0,1,0,0,0,1 @ F,0,0,1,0,0,0,1 @ F,0,0,1,0,0,0,1 @ F,0,0,1,0,0,0,1 @ F,0,0,1,0,0,0,1 @ F,0,0,1,0,0,0,1 @ F,0,0,1,0,0,0,1 @ F,0,0,1,0,0,0,1 @ F,0,0,1,0,0,0,1 | F,0,0,1,0,0,0,1 @ F,0,0,1,0,0,0,1 @ F,0,0,1,0,0,0,1 @ F,0,0,1,0,0,0,1 @ F,0,0,1,0,0,0,1 @ F,0,0,1,0,0,0,1 @ F,0,0,1,0,0,0,1 @ F,0,0,1,0,0,0,1 @ F,0,0,1,0,0,0,1 @ F,0,0,1,0,0,0,1 @ F,0,0,1,0,0,0,1 @ F,0,0,1,0,0,0,1 @ F,0,0,1,0,0,0,1 @ F,0,0,1,0,0,0,1 @ F,0,0,1,0,0,0,1 @ F,0,0,1,0,0,0,1 @ F,0,0,1,0,0,0,1 @ F,0,0,1,0,0,0,1 @ F,0,0,1,0,0,0,1 @ F,0,0,1,0,0,0,1 | F,0,0,1,0,0,0,1 @ F,0,0,1,0,0,0,1 @ F,0,0,1,0,0,0,1 @ F,0,0,1,0,0,0,1 @ F,0,0,1,0,0,0,1 @ F,0,0,1,0,0,0,1 @ F,0,0,1,0,0,0,1 @ F,0,0,1,0,0,0,1 @ F,0,0,1,0,0,0,1 @ F,0,0,1,0,0,0,1 @ F,0,0,1,0,0,0,1 @ F,0,0,1,0,0,0,1 @ F,0,0,1,0,0,0,1 @ F,0,0,1,0,0,0,1 @ F,0,0,1,0,0,0,1 @ F,0,0,1,0,0,0,1 @ F,0,0,1,0,0,0,1 @ F,0,0,1,0,0,0,1 @ F,0,0,1,0,0,0,1 @ F,0,0,1,0,0,0,1 @ F,0,0,1,0,0,0,1 @ F,0,0,1,0,0,0,1 @ F,0,0,1,0,0,0,1 @ F,0,0,1,0,0,0,1 @ F,0,0,1,0,0,0,1 @ F,0,0,1,0,0,0,1 @ F,0,0,1,0,0,0,1 @ F,0,0,1,0,0,0,1 @ F,0,0,1,0,0,0,1 @ F,0,0,1,0,0,0,1 @ F,0,0,1,0,0,0,1 @ F,0,0,1,0,0,0,1 @ F,0,0,1,0,0,0,1 @ F,0,0,1,0,0,0,1 @ F,0,0,1,0,0,0,1 @ F,0,0,1,0,0,0,1 @ F,0,0,1,0,0,0,1 @ F,0,0,1,0,0,0,1 @ F,0,0,1,0,0,0,1 @ F,0,0,1,0,0,0,1 @ F,0,0,1,0,0,0,1 @ F,0,0,1,0,0,0,1 @ F,0,0,1,0,0,0,1 @ F,0,0,1,0,0,0,1 @ F,0,0,1,0,0,0,1 @ F,0,0,1,0,0,0,1 @ F,0,0,1,0,0,0,1 | F,0,0,1,0,0,0,1 @ F,0,0,1,0,0,0,1 @ F,0,0,1,0,0,0,1 @ F,0,0,1,0,0,0,1 @ F,0,0,1,0,0,0,1"
       radius="0"
       unit="px"
       method="auto"
       mode="F"
       chamfer_steps="1"
       flexible="false"
       use_knot_distance="true"
       apply_no_radius="true"
       apply_with_radius="true"
       only_selected="false"
       hide_knots="false" /></defs><g
     inkscape:groupmode="layer"
     id="layer2"
     inkscape:label="Black"
     transform="translate(8.7103544,-20.021122)"
     style="display:inline"><path
       id="path55"
       style="fill:#000000"
       d="m 14.597784,20.021122 -2.338359,1.840715 c -0.241019,0.189722 0.171956,0.640629 0.40566,1.008207 l 1.356506,2.13372 -1.744596,-0.390157 c -0.819976,-0.18345 0.537735,2.185564 1.258321,2.903182 l 3.386357,3.372403 -7.5835167,-4.645194 C 8.1998645,25.546792 5.2152239,24.046198 4.2066866,24.036898 3.6246033,24.031512 2.7146802,23.682356 2.0900199,23.515999 -2.0799823,22.405458 -2.1815979,22.754398 0.02968059,24.52834 1.8667244,26.002062 1.3983365,27.126618 -3.2052641,25.539131 -4.3971647,25.128121 -5.67487,24.490799 -6.1988798,24.968624 l -1.931665,1.761649 c -1.416086,1.291277 -0.2639062,1.834401 3.7382731,4.971273 7.6526011,5.998039 63.1784747,44.539635 64.3831507,43.35756 L 65.664434,69.492521 35.728794,46.59056 68.298382,65.526872 69.568588,56.865385 57.094931,48.860189 c -1.202159,-0.771456 -2.264658,0.08646 -2.86029,-0.312643 l -4.33772,-2.906282 c -0.399347,-0.267586 -0.0151,-1.614119 -0.943612,-2.245858 z m 64.906115,25.64598 c -0.694415,0.110259 -1.49641,1.26521 -2.951757,3.910355 -0.320259,0.582084 -0.668445,1.117865 -0.774113,1.190625 -0.105667,0.07276 -0.392397,0.489479 -0.637171,0.926042 -0.244773,0.436562 -0.739829,1.210469 -1.099674,1.719792 -0.359845,0.509322 -0.801148,1.15329 -0.980819,1.43092 -0.179671,0.277631 -0.627815,0.872943 -0.995805,1.322917 -1.627577,1.990184 -1.661907,2.323303 -1.825728,4.057117 -0.665723,7.045722 -1.304289,8.387922 -3.118156,9.54412 -1.812512,1.155334 -3.384344,2.458367 -3.889168,3.224092 -0.239846,0.363802 -0.844277,1.19724 -1.343588,1.852084 -0.49931,0.654843 -1.147769,1.666874 -1.440739,2.248958 -0.292971,0.582083 -0.646727,1.236927 -0.785998,1.455208 -0.496064,0.777488 -1.876371,3.884182 -1.876371,4.222998 0,0.189605 -0.231892,0.719797 -0.515214,1.178223 -1.243227,2.011582 -1.147647,4.652705 0.180867,4.999178 0.989122,0.257961 1.236986,0.131806 3.064413,-1.560111 1.115522,-1.032802 2.533235,-2.039178 3.478857,-2.4691 1.974162,-0.897541 2.150321,-1.118764 2.331641,-2.931604 0.367258,-3.671853 3.155295,-7.348977 6.902421,-9.103321 1.110732,-0.520027 2.021682,-1.036066 2.024682,-1.1467 0.003,-0.110635 0.03754,-1.867897 0.07648,-3.905188 0.07617,-3.984838 1.360069,-7.306838 3.465939,-8.966894 0.877398,-0.691652 1.693524,-2.942056 1.872754,-5.164026 0.111887,-1.387098 0.370416,-2.580602 0.686779,-3.170866 0.82315,-1.53582 0.631592,-2.59245 -0.769462,-4.242118 -0.278844,-0.328324 -0.531492,-0.538969 -0.788582,-0.607198 -0.09641,-0.02559 -0.193286,-0.03125 -0.292489,-0.0155 z m 1.959054,13.99036 c -1.176353,0.37982 -3.648519,2.024414 -3.875216,6.7877 l -0.309542,6.50813 -4.260205,2.295467 c -4.048101,2.181006 -6.812039,8.181926 -2.987414,6.589778 2.208921,-0.91955 4.004606,-1.197068 5.077209,-0.994254 3.501479,0.662078 2.46774,0.4271 2.926437,-0.45992 0.593039,-1.146811 1.067817,-0.854662 0.965832,0.593762 -0.07589,1.077764 -0.0033,1.246374 0.79375,1.844848 1.373359,1.031213 1.43465,1.043706 2.18798,0.451136 0.793371,-0.624065 0.982691,-0.52922 1.680518,0.842325 0.699502,1.374837 3.711054,2.362071 4.812626,1.577682 0.827568,-0.58928 0.910801,-0.539022 1.178223,0.708484 0.255318,1.19104 0.721466,1.473136 2.255676,1.366841 1.091263,-0.07561 1.330286,-0.01457 1.330151,0.338998 -6.58e-4,1.724321 3.87848,3.007461 4.640027,1.53479 0.525711,-1.016612 1.180807,-0.639298 1.180807,0.680062 0,0.705942 -0.235927,1.061274 -1.308448,1.971972 -2.903321,2.465266 -1.25276,10.331157 2.167827,10.331157 0.159269,0 0.502579,0.19244 0.762739,0.42788 0.26016,0.23544 0.86468,0.52866 1.34359,0.65164 1.75148,0.44977 6.78218,0.10944 7.62848,-0.51625 0.41893,-0.30973 0.86848,-0.56327 0.99942,-0.56327 1.91766,0 5.33972,-5.496848 5.33972,-8.577258 0,-5.855427 -3.39397,-8.399067 -10.61847,-7.958171 -2.99036,0.182496 -4.6312,-0.286568 -6.182567,-1.767334 C 84.661532,70.454317 84.292076,71.322572 83.365162,65.789388 82.915435,63.10476 81.728848,59.571611 81.462953,59.657462 Z m 1.103808,12.860197 c 0.06002,-0.01814 0.08888,0.214371 0.08888,0.696082 -10e-7,0.460816 -0.121457,0.837675 -0.269751,0.837675 -0.16006,0 -0.198712,-0.295661 -0.09508,-0.727604 0.124599,-0.519375 0.215928,-0.788008 0.275952,-0.806153 z m -1.183907,1.831413 c 0.123589,0.08671 0.212474,0.37553 0.210324,0.826823 -0.0044,0.934728 -0.321451,1.63657 -0.609266,1.348755 -0.223673,-0.223669 -0.234647,-1.229755 -0.01964,-1.790072 0.136893,-0.356739 0.29499,-0.472213 0.418579,-0.385506 z m -1.337902,2.903699 c 0.220615,0.02311 0.257457,0.402037 0.116788,1.151867 -0.09682,0.516109 -0.28947,0.938444 -0.428397,0.938444 -0.346911,0 -0.320668,-1.778842 0.02945,-1.995227 0.114533,-0.07079 0.208616,-0.102791 0.282154,-0.09508 z m 5.036901,1.413867 c 0.0816,-0.02779 0.175,-0.0028 0.272335,0.09457 0.216172,0.216171 0.2219,0.468917 0.01964,0.903821 -0.250545,0.53871 -0.301526,0.554084 -0.469738,0.141076 -0.203044,-0.49853 -0.06704,-1.056083 0.177766,-1.139465 z m -1.206127,2.166276 c 0.09533,-0.03549 0.183445,0.0072 0.244429,0.164331 0.09897,0.254987 0.105186,0.761003 0.01395,1.124479 -0.19528,0.778058 -0.569915,0.864011 -0.750859,0.172083 -0.142062,-0.543249 0.206498,-1.354411 0.492477,-1.460893 z m 6.628535,2.268079 c 0.06002,-0.01814 0.08888,0.21437 0.08888,0.696081 -10e-7,0.460816 -0.121458,0.837675 -0.269751,0.837675 -0.16006,0 -0.198713,-0.295661 -0.09508,-0.727604 0.124598,-0.519375 0.215928,-0.788007 0.275952,-0.806152 z m -14.418758,6.306591 c -0.247612,-0.03379 -0.502424,-0.03047 -0.763261,0.0124 -0.963088,0.158287 -2.008798,0.856809 -3.081465,2.229321 -0.867211,1.109624 -2.549715,4.294436 -2.549715,4.826062 0,0.196055 -0.201266,0.737311 -0.447002,1.203027 -0.245736,0.465716 -0.597043,2.137682 -0.78083,3.715026 -0.183786,1.57734 -0.449904,3.00725 -0.591696,3.1781 -0.141792,0.17085 -0.398282,0.8689 -0.569991,1.55081 -0.171708,0.68192 -0.597295,1.62637 -0.945678,2.09858 -0.348382,0.47221 -0.633553,0.97169 -0.633553,1.11001 0,0.13831 -0.236305,0.50187 -0.525033,0.80822 -2.157605,2.28934 -3.510803,3.51809 -4.766634,4.32841 -0.800364,0.51644 -1.871927,1.21106 -2.38125,1.54358 -0.509323,0.33253 -1.283229,0.68855 -1.719792,0.79116 -0.436562,0.1026 -1.27,0.42906 -1.852083,0.72554 -0.798671,0.4068 -1.525578,0.53203 -2.963127,0.50953 -1.513179,-0.0237 -2.038792,0.0753 -2.555399,0.48163 -0.828894,0.65201 -5.539128,0.72596 -7.825362,0.12299 -0.809911,-0.2136 -2.157388,-0.51956 -2.994133,-0.68007 -0.413444,-0.0793 -0.697819,-0.16025 -0.936894,-0.23926 -1.421449,-0.53624 -4.426015,-1.75002 -5.659086,-2.74505 -0.192077,-0.19137 -0.706519,-0.5759 -1.143082,-0.85473 -0.436562,-0.27882 -0.949313,-0.71743 -1.139466,-0.97462 -0.190153,-0.25719 -0.461536,-0.46767 -0.603064,-0.46767 -0.28727,0 -3.185318,-2.91412 -4.210595,-4.23385 -2.644649,-3.40419 -5.920389,-6.65219 -7.522539,-7.45897 -0.591917,-0.29807 -1.236069,-0.66984 -1.43092,-0.82631 -3.800395,-3.05194 -9.3465557,-1.342048 -8.0170817,2.47168 0.2896718,0.83095 0.4805508,1.10751 2.5977747,3.7667 0.667603,0.8385 1.406364,1.87005 1.64176,2.29237 0.235395,0.42231 0.709397,1.27676 1.053682,1.89859 0.344285,0.62184 0.783249,1.2876 0.975134,1.47949 0.191885,0.19188 0.42963,0.61602 0.52865,0.94258 0.09902,0.32656 0.393953,0.83188 0.655258,1.12293 0.261304,0.29104 0.608008,1.02996 0.770495,1.64228 0.162487,0.61232 0.408091,1.18314 0.545703,1.26814 0.137611,0.085 0.380401,0.65582 0.539502,1.26814 0.555666,2.13855 3.073108,5.02667 4.782654,5.487 0.553043,0.14892 1.075086,0.38329 1.160136,0.5209 0.08505,0.13762 0.65582,0.37957 1.26814,0.53795 0.612319,0.15838 1.410766,0.49997 1.774568,0.75913 0.363802,0.25916 1.106352,0.61774 1.650029,0.79685 0.543676,0.17912 1.054521,0.43303 1.135331,0.56379 0.08082,0.13076 0.647952,0.47955 1.260388,0.77514 1.300419,0.62766 2.412497,1.3004 4.71134,2.85099 0.916914,0.61846 1.768855,1.12448 1.893425,1.12448 0.12457,0 0.725873,0.22442 1.336353,0.49868 0.903974,0.40612 2.067494,0.53335 6.269384,0.68626 2.837656,0.10327 5.635625,0.28667 6.217709,0.40721 2.085634,0.43193 3.881187,1.02263 4.549593,1.49707 0.373943,0.26543 0.872528,0.60306 1.107942,0.75034 0.235413,0.14729 0.725538,0.46316 1.08934,0.70177 0.363802,0.23861 1.078177,0.51866 1.5875,0.62218 0.509323,0.10352 1.431492,0.41552 2.049487,0.6935 0.617995,0.27799 1.410623,0.6145 1.761133,0.74776 1.46599,0.55737 2.459227,6.61463 2.089795,12.74341 -0.179909,2.98464 -0.01437,3.86783 0.788065,4.20439 0.82792,0.34725 1.821138,0.12962 2.970878,-0.65061 0.656374,-0.44547 1.192199,-0.61973 1.594218,-0.51883 1.083905,0.27206 3.383354,0.23162 5.678723,-0.0997 1.412179,-0.20388 3.306311,-0.26001 5.094263,-0.15142 2.402832,0.14594 3.006911,0.0999 3.87935,-0.29352 0.950068,-0.42838 1.13641,-0.43336 2.314071,-0.063 4.293513,1.34995 5.951605,0.005 3.884,-3.15071 -0.251467,-0.38378 -0.68248,-1.30843 -0.957564,-2.05466 -0.275084,-0.74622 -0.733785,-1.99498 -1.019576,-2.77502 -0.28579,-0.78004 -0.684619,-1.6725 -0.886251,-1.98386 -0.201632,-0.31137 -0.510293,-1.16168 -0.686263,-1.88929 -0.175971,-0.7276 -0.443944,-1.56105 -0.595312,-1.85209 -0.151368,-0.29104 -0.362906,-1.77932 -0.469739,-3.30729 -0.204692,-2.92758 -0.598128,-3.99773 -2.626713,-7.14375 -0.42225,-0.65485 -1.00784,-1.62889 -1.30173,-2.16472 -0.29389,-0.53583 -0.651843,-1.04663 -0.7953,-1.13533 -0.143457,-0.0887 -0.499605,-0.66243 -0.791166,-1.27486 -0.291561,-0.61244 -0.641415,-1.29222 -0.77773,-1.5105 -2.346736,-3.75783 -2.894344,-11.74775 -1.115178,-16.27188 3.241731,-8.243208 1.139665,-17.077551 -2.57452,-17.584459 z M 38.0563,117.17847 c 3.278558,0 4.778537,-2.83059 2.345077,-4.42505 -0.334529,-0.2192 -0.608232,-0.55653 -0.608232,-0.74983 0,-0.19329 -0.220521,-0.50696 -0.489893,-0.69711 -0.269371,-0.19015 -0.702032,-0.76243 -0.961698,-1.27176 -0.259667,-0.50932 -0.634458,-1.02103 -0.833024,-1.1374 -0.198566,-0.11637 -0.361218,-0.44379 -0.361218,-0.7276 0,-0.28381 -0.22353,-0.73978 -0.496611,-1.01286 -0.273081,-0.27308 -0.856511,-1.25534 -1.296562,-2.18281 -0.747744,-1.57597 -0.986709,-2.20763 -2.062923,-5.456518 -0.228971,-0.691224 -0.525052,-1.435364 -0.658358,-1.653646 -0.133307,-0.218281 -0.482492,-0.839702 -0.775663,-1.380794 -2.696556,-4.97691 -9.107673,-7.03426 -11.265979,-3.615284 -0.96383,1.526807 -0.878693,2.019412 1.067635,6.186703 0.339827,0.727605 0.940736,2.037299 1.335836,2.910419 1.746004,3.85847 2.455217,5.1287 4.034379,7.22643 0.7052,0.93678 2.482402,2.69544 2.723865,2.69544 0.118168,0 0.290552,0.23813 0.382922,0.52917 0.09237,0.29105 0.316093,0.52917 0.497128,0.52917 0.181035,0 0.592256,0.24528 0.914156,0.54518 0.3219,0.29989 1.046417,0.62963 1.505334,0.92966 l 2.110466,1.37976 c 0.77965,0.50971 2.695134,1.37873 2.893363,1.37873 z m 3.256649,-26.946677 c -0.206332,-0.02405 -0.408318,-0.02191 -0.604614,0.0072 -1.42761,0.211991 -2.550664,1.864096 -2.79983,5.437394 -0.5413,7.762783 -0.247953,11.795013 0.959632,13.197643 0.36154,0.41993 0.925888,1.09749 1.254187,1.50534 0.328299,0.40785 0.864753,1.01697 1.192175,1.35341 0.327422,0.33643 0.595313,0.74014 0.595313,0.89709 0,0.15696 0.213255,0.44081 0.473872,0.63097 0.260616,0.19016 0.739277,0.72463 1.063501,1.18752 0.969527,1.38421 2.574183,2.48885 3.952214,2.72078 3.711004,0.62457 5.873029,0.0205 6.321578,-1.76579 0.198726,-0.79141 -0.805539,-2.15489 -1.934766,-2.62671 -0.491045,-0.20518 -1.108966,-0.57861 -1.373042,-0.82992 -0.264076,-0.2513 -0.674318,-0.5759 -0.912089,-0.72142 -0.569071,-0.34827 -1.002122,-3.17268 -1.012342,-6.60372 -0.02331,-7.824129 -4.08081,-14.029079 -7.175789,-14.389822 z m 58.256909,3.490227 c 0.147533,-0.06708 0.352345,0.132879 0.584462,0.613399 0.40567,0.83989 0.40356,0.911773 -0.0315,1.144633 -0.582844,0.311928 -0.799471,0.102352 -0.794271,-0.768945 0.0035,-0.587645 0.0938,-0.922005 0.241329,-0.989087 z"
       sodipodi:nodetypes="cccccsccccssccsccccccccccssssssssssssssssssssssssssssssccssssssssssssssssssssscssscsssscssssssssscssssssssssssssssssssssscssssscsscsssssssssssssssssssssssssssscsssssssscsssccssssssssssssssccsssssssssssssssssssssssssssssssssssssscssssscscccscc" /></g><g
     inkscape:label="Red"
     inkscape:groupmode="layer"
     id="layer1"
     transform="translate(-33.097131,-75.001175)"
     style="display:inline" /></svg>
