<?xml version="1.0" encoding="UTF-8" standalone="no"?>
<!-- Created with Inkscape (http://www.inkscape.org/) -->

<svg
   width="86.635986mm"
   height="81.491669mm"
   viewBox="0 0 86.635989 81.491668"
   version="1.1"
   id="svg1"
   xml:space="preserve"
   inkscape:version="1.4 (86a8ad7, 2024-10-11)"
   sodipodi:docname="CombatTech.svg"
   xmlns:inkscape="http://www.inkscape.org/namespaces/inkscape"
   xmlns:sodipodi="http://sodipodi.sourceforge.net/DTD/sodipodi-0.dtd"
   xmlns="http://www.w3.org/2000/svg"
   xmlns:svg="http://www.w3.org/2000/svg"><sodipodi:namedview
     id="namedview1"
     pagecolor="#505050"
     bordercolor="#eeeeee"
     borderopacity="1"
     inkscape:showpageshadow="0"
     inkscape:pageopacity="0"
     inkscape:pagecheckerboard="0"
     inkscape:deskcolor="#505050"
     inkscape:document-units="mm"
     inkscape:zoom="1.4396184"
     inkscape:cx="92.385593"
     inkscape:cy="136.14719"
     inkscape:window-width="1920"
     inkscape:window-height="1010"
     inkscape:window-x="1529"
     inkscape:window-y="-6"
     inkscape:window-maximized="1"
     inkscape:current-layer="layer1" /><defs
     id="defs1" /><g
     inkscape:label="Layer 1"
     inkscape:groupmode="layer"
     id="layer1"
     transform="translate(-49.003782,-51.839471)"><path
       style="fill:#0b0c0a;stroke:none"
       d="m 96.08644,51.839471 c -0.750645,2.053492 -0.264583,4.951369 -0.264583,7.14375 0,0.625124 -0.213226,1.763329 0.191089,2.293061 0.507273,0.664624 2.887369,0.348598 3.777661,0.793742 2.680243,1.340124 7.318873,3.76156 8.812093,6.438197 0.44775,0.802592 0.4019,1.804703 0.71291,2.645834 2.05325,-0.422729 3.4841,-0.369414 5.55625,0.110244 0.70892,0.164101 2.13261,0.944008 2.82222,0.485068 0.62206,-0.41398 0.47421,-2.522068 0.61736,-3.241146 0.20886,-1.049152 1.10629,-2.889665 0.70556,-3.909952 -0.4334,-1.103501 -5.41162,-4.095405 -6.52639,-4.292131 -1.60441,3.743594 -4.3705,3.28411 -7.67292,2.645833 l 0.70555,-5.005032 -3.0868,-1.675697 -6.35,-4.431771 M 69.363523,73.006138 h -0.529167 l 0.529167,33.866672 v 10.58333 l 0.264583,5.29167 c 2.215357,-1.17414 2.465222,-4.39909 5.291667,-5.5048 0.969137,-0.37914 3.234032,-0.92944 4.233333,-0.904 0.839569,0.0214 1.480966,0.66178 2.38125,0.56591 0.845838,-0.0901 1.52309,-0.88334 2.38125,-0.7423 1.670534,0.27456 4.736533,3.68111 6.158911,1.02159 0.488899,-0.91414 -0.0632,-2.22717 -0.235185,-3.16765 -0.219427,-1.19991 -0.119037,-2.92383 -0.801097,-3.96141 -1.071636,-1.63021 -4.152977,-2.31025 -5.651795,-3.71886 -4.867186,-4.57426 -7.427664,-10.089806 -5.982525,-16.661401 1.005608,-4.572868 4.712391,-9.023291 8.363775,-11.854804 1.668349,-1.293744 4.194136,-1.671491 5.688541,-2.88837 0.888266,-0.723304 1.077712,-3.231888 1.190625,-4.306827 1.849044,1.64151 -0.04409,5.686309 0.0294,7.680265 0.05126,1.390867 1.398404,2.423709 2.182812,3.432236 2.036366,2.618186 9.538542,8.08068 12.310472,2.888369 1.30741,-2.449003 0.22761,-7.46091 0.23519,-10.19381 0.005,-1.635402 0.91596,-3.827206 0.13229,-5.39456 -0.81504,-1.630076 -2.56264,-2.435341 -4.04225,-3.277893 -1.38111,-0.786466 -2.78033,-2.113541 -4.23333,-2.675232 -2.893202,-1.11844 -7.614741,-0.01179 -10.583334,0.558566 -1.521241,0.29227 -3.67679,-0.399645 -4.968285,0.558565 -3.020524,2.241046 -5.51371,5.660532 -7.893404,8.540161 -0.942658,1.140697 -2.21516,3.330901 -3.564527,3.976102 -1.935837,0.925622 -2.866724,-2.423722 -2.888367,-3.711519 m -6.35,-1.852083 -3.601275,6.35 0.161691,14.552084 0.0073,27.252081 1.455208,3.43959 0.124942,5.02708 c 1.494953,-0.11245 2.006338,-1.44832 2.660533,-2.64583 1.769333,-3.23878 2.101967,-5.34103 2.101967,-8.99584 0,-7.91815 0.264584,-15.86783 0.264584,-23.812498 0,-3.53246 0.41094,-7.363738 -0.161691,-10.847917 -0.495799,-3.016688 -0.654702,-4.852118 -1.830034,-7.672917 -0.388595,-0.932626 -0.234761,-2.139566 -1.183275,-2.645833 m 57.149997,2.38125 c 0.79787,3.875361 2.78137,9.214611 -1.05833,12.170834 v 0.529166 c 3.15808,1.247308 4.88532,7.015246 3.19704,10.054167 -1.23684,2.226326 -3.31419,3.188412 -5.04912,4.762498 0.69087,0.41801 1.72861,0.68013 2.21221,1.35232 1.54512,2.14766 -0.7263,6.36322 -2.4768,7.68026 -1.25782,0.94637 -3.26962,1.15148 -3.96875,2.60909 l -3.175,-0.79375 c 1.24579,4.36018 1.07853,7.83609 -3.70416,9.78958 v 0.26459 l 2.38125,-0.42628 4.7625,3.60128 c 1.14806,-1.77913 5.15529,-2.78196 5.73264,-4.50527 0.7251,-2.16433 -2.71425,-6.50741 -0.41893,-8.35642 2.21331,-1.78295 5.72193,2.01343 8.15799,1.37436 1.13333,-0.29732 3.03061,-3.59998 3.48367,-4.65226 1.52687,-3.54626 -5.49244,-5.30016 -2.91041,-9.50295 0.88553,-1.441393 4.24108,-2.161553 5.79879,-2.587036 0.65665,-0.179361 1.99987,-0.202357 2.29306,-0.903994 0.29848,-0.714294 0.0882,-1.85342 0.0882,-2.616434 0,-1.07879 0.46196,-3.592151 -0.35278,-4.40972 -1.90338,-1.910014 -6.51318,-0.667611 -8.0404,-3.527781 -1.89483,-3.548637 2.82924,-5.024838 3.2926,-8.202083 0.14092,-0.966309 -0.7517,-1.899246 -1.24942,-2.645834 -0.57654,-0.864813 -1.17336,-2.215905 -2.12402,-2.719327 -1.54754,-0.819515 -5.41261,0.968174 -6.87182,1.660994 m -9.525,-1.477256 c -3.13382,0.732671 -1.85208,4.434492 -1.85208,6.768923 0,1.609123 -0.64971,4.363877 -0.13229,5.820833 0.766,2.156898 4.66149,1.886093 6.48229,1.477256 1.29079,-0.289828 3.27134,-0.945251 4.10104,-2.02847 1.57602,-2.057586 1.27877,-7.749612 -0.25723,-9.760188 -1.36346,-1.784723 -6.23183,-2.771638 -8.34173,-2.278354 M 89.7364,78.937216 c -7.98451,1.774319 -11.676597,13.187535 -8.334375,19.99809 1.121176,2.284654 3.796393,7.606104 7.011458,7.070254 3.472923,-0.57882 3.191189,-5.00866 4.240681,-7.599421 0.366911,-0.905747 1.460384,-1.662019 1.528706,-2.645833 0.124496,-1.79268 -0.669282,-3.592873 -0.455673,-5.556251 0.169075,-1.554011 1.399059,-3.186804 0.911342,-4.7625 -0.495912,-1.602175 -2.315047,-2.610031 -2.98391,-4.233333 -0.251378,-0.610081 0.01734,-1.546062 -0.426274,-2.02847 -0.378284,-0.411364 -1.001344,-0.351561 -1.491955,-0.242536 m -33.602084,3.329339 c -1.40722,2.226177 -2.86672,4.586591 -4.556713,6.614584 -1.282689,1.539227 -3.00212,2.785347 -2.476795,5.027083 0.415405,1.772667 2.186618,1.637735 3.307293,2.910417 1.610093,1.828482 2.933658,5.261881 3.197048,7.672921 h 0.264583 l 0.264584,-5.291671 0.264583,-11.1125 -0.264583,-5.820834 m 50.800004,5.188774 c -1.11581,0.379685 -1.9342,1.188348 -3.175,1.153879 -1.69707,-0.04714 -4.802508,-1.633775 -6.291205,-0.433622 -1.575756,1.27034 -2.377714,6.174046 -0.580617,7.496522 0.842116,0.61971 2.425417,0.76054 3.432232,1.212677 4.0985,1.840533 11.23162,4.856335 15.61042,3.285245 4.32739,-1.552647 6.42435,-4.994072 5.21083,-9.436808 -0.24309,-0.889945 -0.25094,-2.126679 -1.04364,-2.741378 -1.13966,-0.883752 -2.65,-0.183738 -3.90261,-0.183738 -2.8191,0 -6.53348,-1.280692 -9.26041,-0.352777 m -10.05417,9.738138 c -2.461215,0.553915 -4.810103,3.818953 -2.616434,5.909023 1.158605,1.1039 3.036212,1.55762 4.468517,2.19752 3.078467,1.37533 6.187167,2.66236 9.260417,4.04959 1.9558,0.88283 3.65638,1.79886 5.82083,1.10243 1.89371,-0.60931 7.16235,-5.25859 4.40973,-7.57003 -1.19082,-0.99995 -3.47186,-0.18891 -4.93889,-0.61 -3.81078,-1.09384 -7.62824,-2.16996 -11.37709,-3.454286 -1.52191,-0.521396 -3.349013,-2.001909 -5.02708,-1.624247 m -2.910417,8.812093 c -2.200136,1.1315 -2.060045,4.17019 -1.484607,6.15891 1.154839,3.99114 6.851782,11.67986 11.538774,9.26042 3.25462,-1.68005 7.69979,-4.49948 4.63021,-8.7092 -1.10988,-1.52212 -3.85846,-2.49167 -5.42396,-3.54983 -1.81151,-1.22444 -6.994074,-4.32585 -9.260417,-3.1603 m 1.852084,14.09641 v 13.22917 c 2.304595,-0.80371 4.129415,-3.04883 6.350003,-4.17454 0.83284,-0.42221 2.69389,-0.77454 3.24849,-1.514 0.56157,-0.74876 -0.0469,-3.84602 -0.58796,-4.54201 -0.6655,-0.85608 -2.27528,0.41086 -3.1897,0.23518 -2.206491,-0.42393 -3.62209,-2.85502 -5.820833,-3.2338 z"
       id="path2521" /></g></svg>
