<?xml version="1.0" encoding="UTF-8" standalone="no"?>
<!-- Created with Inkscape (http://www.inkscape.org/) -->

<svg
   width="45.488197mm"
   height="85.055908mm"
   viewBox="0 0 45.488199 85.055908"
   version="1.1"
   id="svg1"
   xml:space="preserve"
   inkscape:version="1.4 (86a8ad7, 2024-10-11)"
   sodipodi:docname="DrawAnother.svg"
   xmlns:inkscape="http://www.inkscape.org/namespaces/inkscape"
   xmlns:sodipodi="http://sodipodi.sourceforge.net/DTD/sodipodi-0.dtd"
   xmlns="http://www.w3.org/2000/svg"
   xmlns:svg="http://www.w3.org/2000/svg"><sodipodi:namedview
     id="namedview1"
     pagecolor="#505050"
     bordercolor="#eeeeee"
     borderopacity="1"
     inkscape:showpageshadow="0"
     inkscape:pageopacity="0"
     inkscape:pagecheckerboard="0"
     inkscape:deskcolor="#505050"
     inkscape:document-units="mm"
     inkscape:zoom="2.0359279"
     inkscape:cx="29.961769"
     inkscape:cy="127.21472"
     inkscape:window-width="1920"
     inkscape:window-height="1010"
     inkscape:window-x="1529"
     inkscape:window-y="-6"
     inkscape:window-maximized="1"
     inkscape:current-layer="layer1" /><defs
     id="defs1" /><g
     inkscape:label="Layer 1"
     inkscape:groupmode="layer"
     id="layer1"
     transform="translate(-71.684872,-56.505008)"><path
       id="path2515"
       style="fill:#000000;stroke-width:0.264583"
       d="m 94.757883,56.50616 c -0.45509,-0.02578 -0.90044,0.381069 -1.530656,1.232483 -4.710897,6.364367 -10.378644,13.810479 -13.450342,18.161166 -0.753509,1.067254 -0.203937,1.333236 0.811837,0.325044 2.147249,-2.131219 7.504968,-6.465238 7.504968,-6.465238 5.871739,10.921159 4.77082,28.673073 5.978446,40.286425 l 1.087273,-0.005 c 1.076561,-11.529348 0.0629,-29.015305 6.027541,-40.021333 0,0 6.74642,5.573577 8.7235,7.4073 0.97744,0.906568 1.3968,0.278345 0.73122,-0.519865 C 105.5593,70.811871 99.763095,62.357727 96.346416,57.868351 95.678023,56.990109 95.212973,56.531943 94.757883,56.50616 Z m -6.087484,19.546094 -15.302425,9.391675 -1.547709,2.225704 0.826306,2.676839 18.729606,30.242598 2.868559,0.59273 22.845634,-12.07523 0.0827,-2.95434 -17.758087,-29.250415 -1.525489,9.876916 -2.023132,24.608319 -2.396753,-0.0165 -2.227254,-24.919924 -1.435055,-9.31416 z m -15.120007,20.271114 -1.292945,2.48822 0.701249,2.154392 18.729607,30.24311 2.868558,0.59222 22.390879,-12.01012 0.0176,-2.95435 -3.85248,-4.10362 -19.305855,10.57304 -2.74141,-0.63148 z m -1.261939,6.235282 -0.172599,2.18126 19.766235,31.73708 2.43551,0.29869 22.651331,-12.58941 0.046,-2.48151 -22.605853,12.63541 -2.434994,-0.32195 z m -0.321427,3.55792 -0.282154,2.42001 20.107817,32.67966 2.481502,0.34468 22.513359,-13.18679 0.0465,-2.20504 -22.614636,13.23279 -2.166793,-0.19069 z"
       sodipodi:nodetypes="ssssccccscsscccccccccccccccccccccccccccccccccccccccccccc" /></g></svg>
