<?xml version="1.0" encoding="UTF-8" standalone="no"?>
<!-- Created with Inkscape (http://www.inkscape.org/) -->

<svg
   width="67.997917mm"
   height="68.062759mm"
   viewBox="0 0 67.997919 68.062759"
   version="1.1"
   id="svg1"
   xml:space="preserve"
   inkscape:version="1.4 (86a8ad7, 2024-10-11)"
   sodipodi:docname="Crew.svg"
   xmlns:inkscape="http://www.inkscape.org/namespaces/inkscape"
   xmlns:sodipodi="http://sodipodi.sourceforge.net/DTD/sodipodi-0.dtd"
   xmlns="http://www.w3.org/2000/svg"
   xmlns:svg="http://www.w3.org/2000/svg"><sodipodi:namedview
     id="namedview1"
     pagecolor="#505050"
     bordercolor="#eeeeee"
     borderopacity="1"
     inkscape:showpageshadow="0"
     inkscape:pageopacity="0"
     inkscape:pagecheckerboard="0"
     inkscape:deskcolor="#505050"
     inkscape:document-units="mm"
     inkscape:zoom="0.50898197"
     inkscape:cx="-82.517658"
     inkscape:cy="-17.682355"
     inkscape:window-width="1920"
     inkscape:window-height="1010"
     inkscape:window-x="1529"
     inkscape:window-y="-6"
     inkscape:window-maximized="1"
     inkscape:current-layer="layer1" /><defs
     id="defs1" /><g
     inkscape:label="Layer 1"
     inkscape:groupmode="layer"
     id="layer1"
     transform="translate(-54.427741,-61.181911)"><path
       style="fill:#0a0b09;stroke:none"
       d="m 54.427741,123.76044 c 0.777499,1.25352 4.609151,6.06814 6.085417,5.36516 2.293347,-1.09207 2.217848,-3.71487 3.711516,-5.36516 3.832619,-4.23451 8.124359,-8.13171 12.163483,-12.17084 L 88.55899,99.418771 c 1.820738,-1.820739 3.66681,-4.321555 5.820833,-5.732637 1.340628,-0.878233 4.104934,0.0064 5.820837,-0.66881 3.27628,-1.289274 5.77509,-4.665316 8.20208,-7.092304 l 10.05417,-10.054167 c 1.1232,-1.123199 3.26914,-2.555787 3.43223,-4.233333 0.41243,-4.242159 -4.52998,-12.520062 -9.78223,-9.760185 -2.58335,1.357459 -4.82668,4.532689 -6.87917,6.585185 -4.33968,4.339682 -9.268536,8.49435 -13.170368,13.229167 -2.084139,2.529073 0.483209,5.455357 -1.49196,7.408333 l -2.77642,2.745223 -2.244232,-2.14362 c -1.690939,-1.615132 0.185835,-6.131675 -0.792829,-7.745353 -1.285323,-2.119306 -3.447528,-3.815005 -5.188774,-5.55625 l -9.524999,-9.525 c -1.595754,-1.595753 -3.669146,-4.646955 -5.820834,-5.423959 -2.30709,-0.833121 -5.2397,0.38901 -6.857118,2.006426 -1.7601,1.7601 -3.466534,4.808279 -2.53559,7.386283 0.776998,2.151685 3.828207,4.225081 5.423959,5.820833 l 9.789583,9.789584 c 1.653343,1.653343 3.286101,3.779409 5.291666,5.005036 1.313638,0.802781 5.699585,-0.726319 7.137374,1.052641 l 2.360398,2.461238 -2.354022,2.593585 -5.291667,5.291663 c -5.590108,5.59011 -10.94443,11.75418 -16.933332,16.91129 -1.865917,1.60676 -4.046738,2.00081 -5.820834,3.9908 m 67.965429,0.10213 -1.84726,-2.05969 c -1.16491,-1.29889 -3.19622,-0.86303 -4.69314,-2.35477 -4.85953,-4.84272 -10.40298,-10.46016 -15.29934,-15.26684 l -6.019268,-5.909026 -3.417532,3.527776 5.644443,6.08542 c 5.000867,5.39156 10.678527,10.17743 15.772867,15.48046 0.87747,0.91342 0.75192,2.98787 2.10503,4.23495 l 1.82854,1.68527 z"
       id="path2521"
       sodipodi:nodetypes="csscsscssssssscssscsccssssccssccsssccssscc" /></g></svg>
