<?xml version="1.0" encoding="UTF-8" standalone="no"?>
<!-- Created with Inkscape (http://www.inkscape.org/) -->

<svg
   width="43.735558mm"
   height="46.831249mm"
   viewBox="0 0 43.735556 46.83125"
   version="1.1"
   id="svg1"
   xml:space="preserve"
   inkscape:version="1.4 (86a8ad7, 2024-10-11)"
   sodipodi:docname="CritDie.svg"
   xmlns:inkscape="http://www.inkscape.org/namespaces/inkscape"
   xmlns:sodipodi="http://sodipodi.sourceforge.net/DTD/sodipodi-0.dtd"
   xmlns="http://www.w3.org/2000/svg"
   xmlns:svg="http://www.w3.org/2000/svg"><sodipodi:namedview
     id="namedview1"
     pagecolor="#505050"
     bordercolor="#eeeeee"
     borderopacity="1"
     inkscape:showpageshadow="0"
     inkscape:pageopacity="0"
     inkscape:pagecheckerboard="0"
     inkscape:deskcolor="#505050"
     inkscape:document-units="mm"
     inkscape:zoom="0.7198092"
     inkscape:cx="98.63725"
     inkscape:cy="101.41576"
     inkscape:window-width="1920"
     inkscape:window-height="1010"
     inkscape:window-x="1529"
     inkscape:window-y="-6"
     inkscape:window-maximized="1"
     inkscape:current-layer="layer1" /><defs
     id="defs1" /><g
     inkscape:label="Layer 1"
     inkscape:groupmode="layer"
     id="layer1"
     transform="translate(-81.616372,-115.91551)"><path
       style="fill:#ffffff;stroke:none"
       d="m 81.626151,138.93426 c 5.109093,-0.10884 13.176192,-3.61741 12.7,-9.78958 l 3.249107,-3.96875 5.482142,-9.26042 c -2.34233,0.65747 -3.935364,3.34201 -5.559108,5.02709 -3.991011,4.14174 -7.912281,8.38144 -11.714345,12.7 -1.385993,1.57427 -3.580334,3.23432 -4.157796,5.29166 m 22.489579,-23.01875 4.86744,8.46667 4.22659,7.14375 2.57622,4.32541 4.66532,1.21655 4.8311,1.86637 c -0.56733,-2.0212 -2.76634,-3.72032 -4.12125,-5.29166 -3.68357,-4.27196 -7.54696,-8.39793 -11.48529,-12.43542 -1.59804,-1.63829 -3.30712,-4.63091 -5.56013,-5.29167 m 4.23334,21.16667 0.79375,1.5875 c 1.16393,-0.33531 4.76276,-1.39001 5.0726,-2.70218 0.23667,-1.00225 -1.011,-2.5519 -1.48072,-3.38324 -1.63748,-2.89815 -3.26353,-5.80689 -4.85376,-8.73125 -0.67732,-1.24557 -2.89418,-6.84808 -4.54487,-6.59866 -1.07256,0.16207 -1.63743,1.81088 -2.07257,2.62991 -1.422867,2.67818 -2.89075,5.31627 -4.40278,7.9375 -1.160929,2.01257 -2.262721,4.06056 -3.402427,6.08542 -0.35014,0.62207 -1.058938,1.5305 -0.683711,2.27795 0.560897,1.1173 2.871974,1.64796 3.932819,2.15239 3.750419,1.78334 10.109679,4.58247 11.641669,-1.25534 m -5.55625,25.66458 0.26458,-3.70416 h -0.79375 c 0.68295,-4.03096 0.79375,-7.79197 0.79375,-11.90625 0,-1.41024 0.36616,-3.4854 -0.4916,-4.70616 -0.75488,-1.07433 -2.09951,-1.08745 -3.13703,-1.71244 -2.085473,-1.25627 -5.509301,-3.7053 -8.013036,-3.72703 -1.714426,-0.0149 -3.705021,1.08508 -5.291667,1.66487 -0.983013,0.35922 -3.957602,0.7759 -4.451369,1.75062 -0.590384,1.16545 3.636006,4.82765 4.475051,5.65649 3.891338,3.84404 7.73011,7.93845 11.614105,11.92156 1.600908,1.64176 2.763436,3.99164 5.030966,4.7625 m 1.32291,0 c 3.4212,-1.16305 5.75299,-5.91847 8.27068,-8.36745 3.34804,-3.25665 6.67408,-6.56167 9.98537,-9.8888 0.7324,-0.7359 3.25758,-2.68479 2.95513,-3.89239 -0.27114,-1.08259 -3.59725,-1.68732 -4.54243,-2.04072 -1.5737,-0.58842 -3.58588,-1.56755 -5.29166,-1.52993 -1.45335,0.032 -2.71343,1.03991 -3.96875,1.64731 -2.13606,1.03355 -5.04389,1.70477 -6.79506,3.37854 -1.15674,1.10563 -0.61328,3.87863 -0.61328,5.34761 0,4.73853 -1.34878,10.78274 0,15.34583 z"
       id="path1" /></g></svg>
