<?xml version="1.0" encoding="UTF-8" standalone="no"?>
<!-- Created with Inkscape (http://www.inkscape.org/) -->

<svg
   width="6.7758141mm"
   height="6.1489801mm"
   viewBox="0 0 6.7758143 6.1489798"
   version="1.1"
   id="svg1"
   xml:space="preserve"
   inkscape:version="1.4 (86a8ad7, 2024-10-11)"
   sodipodi:docname="DaedalusWorkshop.svg"
   xmlns:inkscape="http://www.inkscape.org/namespaces/inkscape"
   xmlns:sodipodi="http://sodipodi.sourceforge.net/DTD/sodipodi-0.dtd"
   xmlns="http://www.w3.org/2000/svg"
   xmlns:svg="http://www.w3.org/2000/svg"><sodipodi:namedview
     id="namedview1"
     pagecolor="#505050"
     bordercolor="#eeeeee"
     borderopacity="1"
     inkscape:showpageshadow="0"
     inkscape:pageopacity="0"
     inkscape:pagecheckerboard="0"
     inkscape:deskcolor="#505050"
     inkscape:document-units="mm"
     inkscape:zoom="11.313709"
     inkscape:cx="0.88388347"
     inkscape:cy="16.793786"
     inkscape:window-width="1920"
     inkscape:window-height="1010"
     inkscape:window-x="4601"
     inkscape:window-y="-6"
     inkscape:window-maximized="1"
     inkscape:current-layer="layer1" /><defs
     id="defs1" /><g
     inkscape:label="Layer 1"
     inkscape:groupmode="layer"
     id="layer1"
     transform="translate(-72.110446,-134.3124)"><path
       id="path2"
       style="fill:#000000;fill-opacity:1;stroke-width:0.264999"
       d="m 74.305661,134.3124 v 0.0574 0.61702 l 0.487309,0.48731 h 0.682129 v -0.56844 L 74.88237,134.3124 Z m -0.775663,0.25322 -0.800468,0.80046 0.08268,10e-4 h 0.608748 l 0.800985,-0.8015 z m 0.53175,0.4811 -0.516764,0.54157 0.562239,0.56224 0.529167,-0.52917 z m 0.666109,0.80926 -0.41031,0.41031 v 0.46715 h 1.750797 l -0.877466,-0.87746 z m -1.989025,0.0341 v 0.30593 h -0.628386 v 0.50436 l 0.967383,0.96738 h 0.487825 v -0.63665 h 0.297657 v -0.74414 l -0.454753,-0.39688 z m 1.822627,1.18236 0.636654,0.67799 h 1.887223 l -0.644922,-0.67799 z m 1.002523,1.05006 0.674378,0.68627 h 1.90531 l -0.686263,-0.68627 z m 0.975134,0.99219 0.487826,0.4961 h 1.792655 l 0.06666,-0.0594 -0.436666,-0.43667 z m 0.902271,0.91778 0.42168,0.42891 0.482141,-0.42891 z" /></g></svg>
