<?xml version="1.0" encoding="UTF-8" standalone="no"?>
<!-- Created with Inkscape (http://www.inkscape.org/) -->

<svg
   width="37.46106mm"
   height="44.532333mm"
   viewBox="0 0 37.461059 44.532334"
   version="1.1"
   id="svg1"
   xml:space="preserve"
   inkscape:version="1.4 (86a8ad7, 2024-10-11)"
   sodipodi:docname="Danger.svg"
   xmlns:inkscape="http://www.inkscape.org/namespaces/inkscape"
   xmlns:sodipodi="http://sodipodi.sourceforge.net/DTD/sodipodi-0.dtd"
   xmlns="http://www.w3.org/2000/svg"
   xmlns:svg="http://www.w3.org/2000/svg"><sodipodi:namedview
     id="namedview1"
     pagecolor="#505050"
     bordercolor="#eeeeee"
     borderopacity="1"
     inkscape:showpageshadow="0"
     inkscape:pageopacity="0"
     inkscape:pagecheckerboard="0"
     inkscape:deskcolor="#505050"
     inkscape:document-units="mm"
     inkscape:zoom="0.7198092"
     inkscape:cx="84.744679"
     inkscape:cy="100.02651"
     inkscape:window-width="1920"
     inkscape:window-height="1010"
     inkscape:window-x="1529"
     inkscape:window-y="-6"
     inkscape:window-maximized="1"
     inkscape:current-layer="layer1" /><defs
     id="defs1" /><g
     inkscape:label="Layer 1"
     inkscape:groupmode="layer"
     id="layer1"
     transform="translate(-85.178368,-116.3604)"><path
       style="fill:#070907;stroke:none"
       d="m 107.88272,146.81349 c 0.43901,5.02832 2.89056,12.80721 8.46667,13.85918 1.36771,0.25804 5.14216,0.5486 6.07418,-0.77925 0.63551,-0.90541 -0.30524,-2.65228 -0.60612,-3.55493 -1.08562,-3.25683 -2.23075,-6.51056 -3.23625,-9.78958 -2.14503,-6.99512 -4.53058,-13.9202 -6.7232,-20.90208 -0.72764,-2.31701 -1.29058,-6.77908 -2.93961,-8.57161 -0.5951,-0.64689 -1.83574,-0.42418 -2.62317,-0.42423 -2.23425,-1.4e-4 -6.09514,-0.74983 -8.142671,0.15965 -0.891166,0.39585 -1.113545,1.66556 -1.43602,2.48619 -0.96797,2.46324 -1.87913,4.949 -2.856723,7.40833 -3.078119,7.74361 -7.124543,16.0915 -8.487899,24.34167 -0.606954,3.6729 0.05752,8.33264 4.254565,9.54112 3.109928,0.89547 5.137802,-1.17849 7.143954,-3.19112 3.208477,-3.21885 6.990844,-8.66136 11.112294,-10.58334 m -6.08541,-21.43125 3.43958,11.64167 0.87398,3.96875 -3.5094,3.96875 -9.006248,8.99583 c -0.653733,-2.74586 0.356771,-5.54615 1.024853,-8.20208 1.611798,-6.40762 3.646418,-14.76196 7.177235,-20.37292 z"
       id="path1" /></g></svg>
