<?xml version="1.0" encoding="UTF-8" standalone="no"?>
<!-- Created with Inkscape (http://www.inkscape.org/) -->

<svg
   width="16.826635mm"
   height="24.958477mm"
   viewBox="0 0 16.826635 24.958477"
   version="1.1"
   id="svg1"
   xml:space="preserve"
   inkscape:version="1.4 (86a8ad7, 2024-10-11)"
   sodipodi:docname="Discard.svg"
   xmlns:inkscape="http://www.inkscape.org/namespaces/inkscape"
   xmlns:sodipodi="http://sodipodi.sourceforge.net/DTD/sodipodi-0.dtd"
   xmlns="http://www.w3.org/2000/svg"
   xmlns:svg="http://www.w3.org/2000/svg"><sodipodi:namedview
     id="namedview1"
     pagecolor="#505050"
     bordercolor="#eeeeee"
     borderopacity="1"
     inkscape:showpageshadow="0"
     inkscape:pageopacity="0"
     inkscape:pagecheckerboard="0"
     inkscape:deskcolor="#505050"
     inkscape:document-units="mm"
     inkscape:zoom="4.0718557"
     inkscape:cx="27.751474"
     inkscape:cy="41.504417"
     inkscape:window-width="1920"
     inkscape:window-height="1010"
     inkscape:window-x="4601"
     inkscape:window-y="-6"
     inkscape:window-maximized="1"
     inkscape:current-layer="layer1" /><defs
     id="defs1" /><g
     inkscape:label="Layer 1"
     inkscape:groupmode="layer"
     id="layer1"
     transform="translate(-92.093788,-128.37831)"><path
       style="fill:#000000"
       d="m 92.800529,152.59915 -0.706741,-0.73768 0.0089,-11.07195 0.0089,-11.07196 0.631183,-0.63118 c 0.34715,-0.34715 0.785422,-0.63901 0.973937,-0.64858 0.188516,-0.01 3.282743,-0.0333 6.876062,-0.0528 7.08159,-0.0384 7.59384,0.0478 8.14162,1.3703 0.23985,0.57905 0.251,13.43915 0.0147,16.95615 -0.0244,0.3638 -0.0378,1.72769 -0.0297,3.03088 0.0228,3.67877 0.48093,3.47904 -8.12511,3.54236 l -7.086873,0.0521 z m 3.598912,-3.23437 c 0.08649,-0.43244 0.98241,-2.47861 1.990939,-4.54704 l 1.83369,-3.76079 1.79088,3.55485 c 0.98498,1.95517 1.86166,3.97157 1.94818,4.4809 0.15679,0.92299 0.16241,0.9263 1.70519,1.00628 l 1.54789,0.0802 -0.83337,-1.40316 c -1.3586,-2.28749 -4.78284,-9.16822 -4.78284,-9.61074 0,-0.50335 1.00308,-2.50535 2.39343,-4.7769 0.57539,-0.94007 1.04616,-1.77384 1.04616,-1.85282 0,-0.079 -0.42283,-0.10665 -0.93963,-0.0615 -0.89898,0.0786 -0.96569,0.1565 -1.54243,1.80191 -0.7167,2.04475 -1.41528,3.43958 -1.72265,3.43958 -0.27047,0 -1.846425,-3.46659 -2.058885,-4.52889 -0.145422,-0.72711 -0.219041,-0.76277 -1.57469,-0.76277 -0.782174,0 -1.422135,0.0619 -1.422135,0.13755 0,0.0756 0.285998,0.5906 0.635551,1.14432 1.008742,1.59795 3.068616,5.80971 3.068616,6.2743 0,0.43198 -3.119534,6.59785 -4.286591,8.4726 -0.354999,0.57027 -0.733395,1.18568 -0.84088,1.36758 -0.142792,0.24166 0.08491,0.33073 0.845449,0.33073 0.942656,0 1.055714,-0.0742 1.198126,-0.78625 z"
       id="path1" /></g></svg>
