<?xml version="1.0" encoding="UTF-8" standalone="no"?>
<!-- Created with Inkscape (http://www.inkscape.org/) -->

<svg
   width="54.345467mm"
   height="76.929276mm"
   viewBox="0 0 54.345466 76.929275"
   version="1.1"
   id="svg1"
   xml:space="preserve"
   inkscape:version="1.4.3 (0d15f75, 2025-12-25)"
   sodipodi:docname="EditDeck.svg"
   xmlns:inkscape="http://www.inkscape.org/namespaces/inkscape"
   xmlns:sodipodi="http://sodipodi.sourceforge.net/DTD/sodipodi-0.dtd"
   xmlns="http://www.w3.org/2000/svg"
   xmlns:svg="http://www.w3.org/2000/svg"><sodipodi:namedview
     id="namedview1"
     pagecolor="#505050"
     bordercolor="#eeeeee"
     borderopacity="1"
     inkscape:showpageshadow="0"
     inkscape:pageopacity="0"
     inkscape:pagecheckerboard="0"
     inkscape:deskcolor="#505050"
     inkscape:document-units="mm"
     inkscape:zoom="0.50898198"
     inkscape:cx="-429.28828"
     inkscape:cy="18.664708"
     inkscape:window-width="1920"
     inkscape:window-height="1057"
     inkscape:window-x="-8"
     inkscape:window-y="-8"
     inkscape:window-maximized="1"
     inkscape:current-layer="layer1" /><defs
     id="defs1" /><g
     inkscape:label="Layer 1"
     inkscape:groupmode="layer"
     id="layer1"
     transform="translate(-71.684872,-64.631527)"><path
       d="m 71.967025,106.11645 -0.282153,2.42001 20.107817,32.67966 2.481502,0.34468 22.513359,-13.18679 0.0465,-2.20504 -22.614636,13.23279 -2.166793,-0.19069 z"
       style="stroke-width:0.264583"
       id="path6" /><path
       d="m 72.288453,102.55853 -0.1726,2.18126 19.766236,31.73708 2.43551,0.29869 22.651331,-12.58941 0.046,-2.4815 -22.605854,12.6354 -2.434993,-0.32194 z"
       style="stroke-width:0.264583"
       id="path5" /><path
       d="m 73.550391,96.323249 -1.292944,2.488221 0.701249,2.15439 18.729606,30.24312 2.868559,0.59221 22.390879,-12.01012 0.0176,-2.95434 -3.85248,-4.10363 -19.305794,10.573 -2.741435,-0.63149 z"
       style="stroke-width:0.264583"
       id="path4" /><path
       id="path3"
       style="stroke-width:0.264583"
       d="m 73.595398,85.346342 -1.775134,2.323172 0.826306,2.676839 18.729607,30.242597 2.868558,0.59273 22.845635,-12.07523 0.0827,-2.95434 -9.32865,-14.532753 -5.0816,4.605098 -10.066786,3.997405 -2.902168,-0.0625 4.747851,-12.735628 6.245483,-5.650081 -3.370031,-4.498979 -3.067145,-0.452758 -19.158619,7.630554 z"
       sodipodi:nodetypes="ccccccccccccccccc" /><path
       id="path1-2"
       style="stroke-width:0.264834"
       d="m 100.39302,94.855583 -4.6628,-4.67993 -3.8707,8.53762 z" /><path
       id="path4-7"
       style="stroke-width:0.264834"
       d="m 116.57144,69.347212 -19.65465,19.582751 4.7259,4.74325 19.65465,-19.582748 z" /><path
       id="path3-9"
       style="stroke-width:0.264834"
       d="m 121.30444,64.631527 -3.47406,3.461355 4.7259,4.743253 3.47406,-3.461355 z" /></g></svg>
