<?xml version="1.0" encoding="UTF-8" standalone="no"?>
<!-- Created with Inkscape (http://www.inkscape.org/) -->

<svg
   width="75.240379mm"
   height="76.669182mm"
   viewBox="0 0 75.240382 76.669182"
   version="1.1"
   id="svg1"
   xml:space="preserve"
   inkscape:version="1.4 (86a8ad7, 2024-10-11)"
   sodipodi:docname="EndStack.svg"
   xmlns:inkscape="http://www.inkscape.org/namespaces/inkscape"
   xmlns:sodipodi="http://sodipodi.sourceforge.net/DTD/sodipodi-0.dtd"
   xmlns="http://www.w3.org/2000/svg"
   xmlns:svg="http://www.w3.org/2000/svg"><sodipodi:namedview
     id="namedview1"
     pagecolor="#505050"
     bordercolor="#eeeeee"
     borderopacity="1"
     inkscape:showpageshadow="0"
     inkscape:pageopacity="0"
     inkscape:pagecheckerboard="0"
     inkscape:deskcolor="#505050"
     inkscape:document-units="mm"
     inkscape:zoom="2.0359279"
     inkscape:cx="109.04119"
     inkscape:cy="150.30002"
     inkscape:window-width="1920"
     inkscape:window-height="1010"
     inkscape:window-x="1529"
     inkscape:window-y="-6"
     inkscape:window-maximized="1"
     inkscape:current-layer="layer1" /><defs
     id="defs1" /><g
     inkscape:label="Layer 1"
     inkscape:groupmode="layer"
     id="layer1"
     transform="translate(-56.319402,-70.4743)"><path
       style="fill:#000000;stroke-width:0.264583"
       d="m 89.676766,97.950474 c -18.103033,0.13784 -17.965192,0 -17.965192,0 l -1.048529,-1.816104 0.703545,-2.625667 22.824836,-13.177924 2.747285,0.736133 0.858118,1.486306 z"
       id="path2509" /><path
       style="fill:#000000;stroke-width:0.264583"
       d="m 88.528096,100.10997 -1.516245,5.83524 -29.543779,-7.213641 z"
       id="path2510" /><path
       style="fill:#000000;stroke-width:0.264583"
       d="M 91.928159,97.950474 102.7716,74.747351 99.141801,99.60456 Z"
       id="path2511" /><path
       style="fill:#000000;stroke-width:0.264583"
       d="m 90.917329,99.650507 -2.43518,7.627163 9.14341,1.56219 2.251392,-7.1677 z"
       id="path2512" /><path
       style="fill:#000000;stroke-width:0.264583"
       d="m 100.84183,100.89107 1.83787,-11.808323 7.58626,13.139773 z"
       id="path2513" /><path
       style="fill:#000000;stroke-width:0.264583"
       d="m 99.601271,108.61013 1.929769,-6.06498 31.52804,7.1762 z"
       id="path2514" /><path
       style="fill:#000000;stroke-width:0.264583"
       d="m 98.360532,110.1762 15.854768,0.25991 3.89871,5.06833 -0.84472,3.18395 -22.712316,13.11297 h -3.019192 l -1.293217,-1.29322 z"
       id="path2515" /><path
       style="fill:#000000;stroke-width:0.264583"
       d="m 75.072248,104.59553 11.929537,3.50462 -1.44203,14.84434 z"
       id="path2516"
       sodipodi:nodetypes="cccc" /><path
       style="fill:#000000;stroke-width:0.264583"
       d="m 88.678726,109.91629 7.732448,0.5848 -12.60584,31.05976 z"
       id="path2517" /><path
       style="fill:#000000;stroke-width:0.264583"
       d="m 89.990508,132.01281 1.891703,2.28157 2.527073,0.046 21.732826,-12.54348 0.27568,-1.33245 2.02166,0.0459 -0.87299,2.9406 -23.249069,13.32457 h -2.481127 l -2.575327,-3.21166 z"
       id="path2518"
       sodipodi:nodetypes="ccccccccccc" /><path
       style="fill:#000000;stroke-width:0.264583"
       d="m 88.422958,135.01573 3.399585,4.35638 2.397116,0.0298 21.879021,-12.81964 0.27568,-1.33245 2.02166,0.0459 -0.87299,2.9406 -23.249062,13.32457 h -2.481127 l -3.946524,-5.09154 z"
       id="path2518-5"
       sodipodi:nodetypes="ccccccccccc" /><path
       style="fill:#000000;stroke-width:0.264583"
       d="m 85.694483,125.18971 -11.846384,-21.13637 -2.64194,-0.87299 14.195248,24.0888 z"
       id="path2519"
       sodipodi:nodetypes="ccccc" /><path
       style="fill:#000000;stroke-width:0.264583"
       d="m 85.160736,129.38725 -14.623228,-25.35003 -0.847592,-0.0218 0.04595,1.79192 15.123913,25.67675 z"
       id="path2520"
       sodipodi:nodetypes="cccccc" /></g></svg>
