<?xml version="1.0" encoding="UTF-8" standalone="no"?>
<!-- Created with Inkscape (http://www.inkscape.org/) -->

<svg
   width="89.092728mm"
   height="76.891411mm"
   viewBox="0 0 89.092726 76.891413"
   version="1.1"
   id="svg1"
   xml:space="preserve"
   inkscape:version="1.4 (86a8ad7, 2024-10-11)"
   sodipodi:docname="Escalation.svg"
   xmlns:inkscape="http://www.inkscape.org/namespaces/inkscape"
   xmlns:sodipodi="http://sodipodi.sourceforge.net/DTD/sodipodi-0.dtd"
   xmlns="http://www.w3.org/2000/svg"
   xmlns:svg="http://www.w3.org/2000/svg"><sodipodi:namedview
     id="namedview1"
     pagecolor="#505050"
     bordercolor="#eeeeee"
     borderopacity="1"
     inkscape:showpageshadow="0"
     inkscape:pageopacity="0"
     inkscape:pagecheckerboard="0"
     inkscape:deskcolor="#505050"
     inkscape:document-units="mm"
     inkscape:zoom="1.4396184"
     inkscape:cx="113.91908"
     inkscape:cy="130.59016"
     inkscape:window-width="1920"
     inkscape:window-height="1010"
     inkscape:window-x="1529"
     inkscape:window-y="-6"
     inkscape:window-maximized="1"
     inkscape:current-layer="layer1" /><defs
     id="defs1" /><g
     inkscape:label="Layer 1"
     inkscape:groupmode="layer"
     id="layer1"
     transform="translate(-53.608225,-77.590396)"><path
       style="fill:#080a08;stroke:none"
       d="m 98.154587,77.590396 c -4.582388,5.020721 -9.505812,13.946977 -9.525001,20.902084 -5.247362,-2.447041 -8.277093,-8.14245 -14.2875,-9.713842 -6.002985,-1.569453 -11.386417,3.23983 -9.895948,9.449258 1.424225,5.933454 6.567144,9.561864 9.895948,14.287504 -5.891634,1.52427 -10.810719,3.50092 -16.139584,6.49944 -0.98376,0.55355 -4.594277,1.98083 -4.594277,3.29034 0,1.57746 5.208304,3.8263 6.446361,4.54794 3.220911,1.87741 6.698747,3.52628 10.31875,4.44688 1.171569,0.29794 3.046471,0.94642 4.23313,0.57449 1.795257,-0.56269 4.1092,-3.64935 4.762703,-5.33618 l -7.14375,-3.96875 c 3.050315,-3.40382 7.906668,-4.38669 11.906251,-6.08541 -1.531482,-3.21915 -5.046208,-5.18816 -5.673231,-8.99584 -0.563443,-3.42157 3.318113,-5.4868 6.202397,-4.46362 3.086751,1.09501 4.961656,4.24572 7.9375,5.25737 0.274531,-3.14444 2.047142,-6.05837 3.591884,-8.731247 0.375797,-0.650243 1.057566,-2.631134 1.971105,-2.631134 0.957972,0 1.642894,1.952045 2.032965,2.631134 1.5232,2.651837 3.35576,5.591827 3.51655,8.731247 3.09009,-1.05049 4.90613,-4.41108 8.20208,-5.3476 3.02228,-0.85876 6.57895,1.42647 5.8435,4.81844 -0.77285,3.5644 -3.73387,5.78099 -5.57892,8.73125 l 11.90625,5.55625 v 0.52916 l -7.14375,3.96875 c 0.71379,1.68583 2.9433,4.76592 4.76271,5.33618 1.19575,0.37478 3.06728,-0.28379 4.23313,-0.6143 3.62903,-1.02884 7.07868,-2.64219 10.31875,-4.56223 1.23894,-0.73419 6.44636,-2.7798 6.44636,-4.39298 0,-1.35125 -3.59842,-2.73144 -4.59428,-3.32158 -5.26077,-3.1175 -10.26914,-4.94922 -16.13958,-6.468 3.40108,-4.83277 9.11239,-8.77763 9.99884,-15.081254 0.6933,-4.930186 -3.35341,-10.17995 -8.67593,-9.026254 -6.14835,1.332703 -11.02415,6.027963 -15.34583,10.349171 -1.37391,-5.704747 -3.18047,-10.488657 -6.12502,-15.610417 -1.0749,-1.869686 -2.062328,-4.087921 -3.664563,-5.55625 M 80.95667,133.68206 c 1.449019,0 5.10807,-0.65805 6.190352,0.42424 0.989951,0.98995 0.424231,4.09159 0.424231,5.3966 v 14.81667 h 15.345837 c 1.15908,0 4.49765,0.56901 5.28431,-0.42424 0.68041,-0.85908 0.27194,-3.03409 0.27194,-4.07368 v -10.84792 c 0,-1.21752 -0.54917,-4.20403 0.61327,-4.97972 1.34985,-0.90075 4.42426,-0.31195 6.00131,-0.31195 -2.8279,-5.53962 -8.66737,-10.33572 -12.67979,-15.08513 -0.86669,-1.02588 -2.989562,-4.42515 -4.473419,-4.40257 -1.503957,0.0229 -3.448727,3.37279 -4.353784,4.40645 -2.827556,3.22936 -5.640498,6.47395 -8.458499,9.71405 -1.437768,1.65313 -3.337105,3.31402 -4.165758,5.3672 z"
       id="path2509" /></g></svg>
