<?xml version="1.0" encoding="UTF-8" standalone="no"?>
<!-- Created with Inkscape (http://www.inkscape.org/) -->

<svg
   width="89.460411mm"
   height="82.772827mm"
   viewBox="0 0 89.460413 82.772826"
   version="1.1"
   id="svg1"
   xml:space="preserve"
   inkscape:version="1.4 (86a8ad7, 2024-10-11)"
   sodipodi:docname="EvasionReroll.svg"
   xmlns:inkscape="http://www.inkscape.org/namespaces/inkscape"
   xmlns:sodipodi="http://sodipodi.sourceforge.net/DTD/sodipodi-0.dtd"
   xmlns="http://www.w3.org/2000/svg"
   xmlns:svg="http://www.w3.org/2000/svg"><sodipodi:namedview
     id="namedview1"
     pagecolor="#505050"
     bordercolor="#eeeeee"
     borderopacity="1"
     inkscape:showpageshadow="0"
     inkscape:pageopacity="0"
     inkscape:pagecheckerboard="0"
     inkscape:deskcolor="#505050"
     inkscape:document-units="mm"
     inkscape:zoom="0.7198092"
     inkscape:cx="318.83449"
     inkscape:cy="47.234739"
     inkscape:window-width="1920"
     inkscape:window-height="1010"
     inkscape:window-x="4601"
     inkscape:window-y="-6"
     inkscape:window-maximized="1"
     inkscape:current-layer="layer1" /><defs
     id="defs1" /><g
     inkscape:label="Layer 1"
     inkscape:groupmode="layer"
     id="layer1"
     transform="translate(-49.011193,-39.791626)"><path
       style="fill:#000000;stroke-width:0.264583"
       d="M 115.3543,104.90014 C 97.030349,105.98312 55.054198,101.6079 76.23721,84.236963 59.277807,85.991383 49.66098,111.33302 114.37963,114.45199 l -4.5485,6.56284 23.07889,-13.22197 -23.91463,-8.36231 z M 81.494005,59.659946 c 18.323951,-1.08298 60.300105,3.29224 39.117095,20.663177 16.9594,-1.75442 26.57623,-27.096057 -38.142425,-30.215027 l 4.5485,-6.562841 -23.07889,13.221971 23.91463,8.36231 z"
       id="path12"
       sodipodi:nodetypes="cccccccccccccc" /><path
       style="fill:#000000;stroke-width:0.264583"
       d="m 88.709212,86.151928 9.510985,-4.732518 9.097463,4.594678 -9.097463,15.484072 z"
       id="path13" /><path
       style="fill:#000000;stroke-width:0.264583"
       d="M 77.727933,82.751868 86.7335,85.922195 97.576942,102.60088 Z"
       id="path14" /><path
       style="fill:#000000;stroke-width:0.264583"
       d="m 77.45225,80.500475 9.832612,3.85953 10.062345,-5.191987 V 61.524454 Z"
       id="path15" /><path
       style="fill:#000000;stroke-width:0.262765"
       d="m 118.52796,82.725971 -8.8822,3.170327 -10.694905,16.678682 z"
       id="path14-1" /><path
       style="fill:#000000;stroke-width:0.262765"
       d="m 118.79987,80.474578 -9.69792,3.85953 -9.924512,-5.191987 V 61.498557 Z"
       id="path15-5" /></g></svg>
