<?xml version="1.0" encoding="UTF-8" standalone="no"?>
<!-- Created with Inkscape (http://www.inkscape.org/) -->

<svg
   width="46.318619mm"
   height="44.475201mm"
   viewBox="0 0 46.318618 44.475201"
   version="1.1"
   id="svg1"
   xml:space="preserve"
   inkscape:version="1.4 (86a8ad7, 2024-10-11)"
   sodipodi:docname="Fate.svg"
   xmlns:inkscape="http://www.inkscape.org/namespaces/inkscape"
   xmlns:sodipodi="http://sodipodi.sourceforge.net/DTD/sodipodi-0.dtd"
   xmlns="http://www.w3.org/2000/svg"
   xmlns:svg="http://www.w3.org/2000/svg"><sodipodi:namedview
     id="namedview1"
     pagecolor="#505050"
     bordercolor="#eeeeee"
     borderopacity="1"
     inkscape:showpageshadow="0"
     inkscape:pageopacity="0"
     inkscape:pagecheckerboard="0"
     inkscape:deskcolor="#505050"
     inkscape:document-units="mm"
     inkscape:zoom="0.7198092"
     inkscape:cx="104.19428"
     inkscape:cy="98.63725"
     inkscape:window-width="1920"
     inkscape:window-height="1010"
     inkscape:window-x="1529"
     inkscape:window-y="-6"
     inkscape:window-maximized="1"
     inkscape:current-layer="layer1" /><defs
     id="defs1" /><g
     inkscape:label="Layer 1"
     inkscape:groupmode="layer"
     id="layer1"
     transform="translate(-79.849515,-116.71873)"><path
       style="fill:#070907;stroke:none"
       d="m 97.942607,161.19393 h 10.054163 c 0,-2.33321 -1.01387,-7.74801 0.27194,-9.70649 0.5417,-0.8251 2.03693,-0.90785 2.90306,-1.19573 1.85607,-0.6169 3.68346,-1.53714 5.29167,-2.64971 5.62547,-3.89175 8.83961,-10.43665 9.48009,-17.13974 0.35575,-3.72328 0.65264,-8.949 -2.12728,-11.87848 -0.82218,-0.86641 -3.85849,-2.60341 -5.06506,-1.60403 -0.61369,0.50829 0.0244,1.55216 0.23927,2.10543 0.74121,1.90828 1.12334,4.03683 1.16286,6.08542 0.13581,7.04058 -4.87407,14.78424 -12.15655,15.875 v -15.875 c 0,-1.7534 0.61992,-4.9462 -0.15964,-6.53047 -0.3505,-0.71231 -1.29132,-0.60849 -1.95702,-0.61308 -1.49031,-0.0103 -6.698922,-0.79646 -7.66557,0.42403 -0.89356,1.12821 -0.271933,4.52934 -0.271933,5.92577 v 16.66875 c -7.236261,-1.24519 -11.903565,-8.64612 -11.90625,-15.61042 -8.61e-4,-2.23254 0.155796,-4.26216 1.02424,-6.35 0.243228,-0.58475 0.887822,-1.59389 0.1868,-2.10543 -1.175406,-0.8577 -3.951291,0.55764 -4.792306,1.39885 -2.692611,2.69325 -2.849873,7.45702 -2.428614,11.02533 0.790667,6.69742 3.008316,13.30533 8.655713,17.52599 1.793828,1.34064 3.731317,2.36935 5.820833,3.16071 0.931183,0.35267 2.58816,0.45669 3.167651,1.35395 1.281932,1.98488 0.271933,7.35649 0.271933,9.70935 z"
       id="path1" /></g></svg>
