<?xml version="1.0" encoding="UTF-8" standalone="no"?>
<!-- Created with Inkscape (http://www.inkscape.org/) -->

<svg
   width="150.85321mm"
   height="156.6702mm"
   viewBox="0 0 150.8532 156.67019"
   version="1.1"
   id="svg1"
   xml:space="preserve"
   inkscape:version="1.4 (86a8ad7, 2024-10-11)"
   sodipodi:docname="FirstCataract.svg"
   xmlns:inkscape="http://www.inkscape.org/namespaces/inkscape"
   xmlns:sodipodi="http://sodipodi.sourceforge.net/DTD/sodipodi-0.dtd"
   xmlns="http://www.w3.org/2000/svg"
   xmlns:svg="http://www.w3.org/2000/svg"><sodipodi:namedview
     id="namedview1"
     pagecolor="#505050"
     bordercolor="#eeeeee"
     borderopacity="1"
     inkscape:showpageshadow="0"
     inkscape:pageopacity="0"
     inkscape:pagecheckerboard="0"
     inkscape:deskcolor="#505050"
     inkscape:document-units="mm"
     inkscape:zoom="0.75811588"
     inkscape:cx="177.41351"
     inkscape:cy="337.01972"
     inkscape:window-width="1920"
     inkscape:window-height="1111"
     inkscape:window-x="-9"
     inkscape:window-y="-9"
     inkscape:window-maximized="1"
     inkscape:current-layer="layer1" /><defs
     id="defs1" /><g
     inkscape:label="Layer 1"
     inkscape:groupmode="layer"
     id="layer1"
     transform="translate(-47.537631,-47.034803)"><path
       style="fill:#000000"
       d="m 156.40032,203.61609 c -0.23014,-0.23014 -17.12878,-0.36234 -39.74232,-0.31089 -10.18646,0.0232 -20.06865,0.0303 -21.960421,0.0159 -1.891771,-0.0144 -13.116593,-0.0448 -24.944049,-0.0675 l -21.504465,-0.0412 -0.368062,-0.57522 C 47.372541,201.84254 47.453075,48.693224 47.962454,47.743725 l 0.319367,-0.595313 11.301629,-0.05999 c 6.215896,-0.03299 11.956472,-0.05695 12.756837,-0.05324 0.800365,0.0037 17.469115,0.120009 37.041663,0.258429 19.57256,0.13842 37.01521,0.247219 38.76146,0.241776 52.8637,-0.164795 49.70082,-0.237592 50.05232,1.152011 0.26126,1.03286 0.25971,154.479642 -0.002,154.741492 -0.12105,0.12131 -1.01402,0.19838 -1.98438,0.17126 -3.8007,-0.10621 -38.83046,-0.0464 -39.22197,0.067 -0.22881,0.0662 -0.49318,0.0433 -0.5875,-0.051 z m 34.91427,-7.06659 c 0.33555,-0.33601 0.1887,-138.83854 -0.14941,-140.913826 -0.15225,-0.934558 -0.38145,-1.803823 -0.50933,-1.931701 -0.27754,-0.277543 -0.25221,-0.27781 -4.9416,0.05194 -5.01706,0.352794 -22.03788,0.445852 -38.1,0.208305 C 119.28336,53.545229 54.918165,53.527832 54.576864,53.939074 54.25403,54.328065 54.040144,194.53757 54.360315,195.8938 l 0.143987,0.60993 19.157049,0.0756 c 10.536377,0.0416 19.183031,0.10158 19.214787,0.13329 0.181918,0.18162 98.256472,0.0191 98.438452,-0.16315 z m -98.998261,-5.75586 c -2.473854,-0.10948 -10.606069,-0.19089 -18.071587,-0.18091 -9.950071,0.0133 -13.655439,-0.0636 -13.879969,-0.28816 C 59.967027,189.92682 59.762614,61.315356 60.158075,60.275214 l 0.256684,-0.67513 33.942452,0.14098 c 50.875629,0.211311 82.395649,0.253991 87.086619,0.117919 3.67501,-0.106601 4.23568,-0.06779 4.51371,0.312451 0.37379,0.511179 0.60468,130.234646 0.23222,130.464836 -0.18517,0.11445 -12.92998,0.22167 -15.68906,0.132 -0.50932,-0.0165 -6.87916,-0.0203 -14.1552,-0.008 -7.27605,0.012 -22.87323,1.8e-4 -34.66042,-0.0263 -11.78719,-0.0264 -22.205157,0.021 -23.151043,0.10546 -0.945885,0.0844 -3.743854,0.0639 -6.217708,-0.0455 z m -11.1125,-14.40783 c 0.873125,-0.0358 1.667336,-0.0777 1.764915,-0.093 0.398182,-0.0623 0.499585,-1.91436 0.602718,-11.00799 0.336913,-29.70694 0.457461,-32.69897 1.330933,-33.03415 0.642025,-0.24637 0.637337,-0.36484 0.789753,19.95795 0.203993,27.19994 0.170348,27.0321 3.708422,18.50016 1.623981,-3.91617 2.808988,-4.47564 8.989926,-4.24438 5.081314,0.19012 5.939124,0.12267 6.169014,-0.48509 0.0894,-0.23645 0.33283,-0.60195 0.54085,-0.81223 0.39884,-0.40315 0.44398,-0.3483 -1.87886,-2.28287 l -0.65861,-0.54852 -0.18155,-4.08168 c -0.0998,-2.24493 -0.14313,-16.94523 -0.0962,-32.66734 l 0.0854,-28.585648 -0.46912,-0.716954 c -0.25802,-0.394325 -0.65064,-0.716955 -0.8725,-0.716955 -0.22186,0 -0.98165,-0.578278 -1.688437,-1.285062 -1.282917,-1.282917 -2.99735,-1.937721 -3.790299,-1.447652 -0.364925,0.225536 -27.70915,0.160237 -28.931566,-0.06909 -1.75261,-0.328791 -1.558976,-5.85387 -1.690773,48.243931 -0.06932,28.45398 -0.315293,25.86261 2.436178,25.66575 2.142154,-0.15327 2.682266,0.13655 3.407496,1.82844 0.604544,1.41034 1.844922,3.27811 3.134661,4.72018 0.521229,0.58279 1.280906,1.46202 1.688171,1.95384 0.845967,1.02159 2.389642,1.68275 3.360559,1.43932 0.363802,-0.0912 1.375834,-0.19517 2.248959,-0.23101 z m 90.978721,-0.20382 c 0.87815,-0.57539 2.7905,-3.13491 3.9061,-5.22799 1.05843,-1.98582 2.54613,-3.5936 3.54737,-3.83369 1.10236,-0.26434 1.40835,-0.56627 1.69023,-1.66782 0.29968,-1.17108 0.50374,-70.563124 0.2099,-71.37675 -0.77211,-2.137927 -31.38531,-1.301996 -33.75682,0.921771 -2.37747,2.22936 -2.18919,-0.722844 -2.23962,35.115749 l -0.0451,32.03255 -1.51988,1.73117 c -2.53615,2.88871 -2.4968,2.91454 4.52594,2.97133 3.70868,0.03 5.64918,0.14719 6.04147,0.36486 0.31786,0.17636 0.92836,0.32066 1.35667,0.32066 0.42831,0 0.92629,0.17778 1.10661,0.39505 0.40187,0.48422 1.8536,3.52254 1.8536,3.87938 0,0.66483 1.86201,4.21734 2.12521,4.05467 0.83822,-0.51805 0.87432,-1.36188 1.45988,-34.12397 0.16463,-9.21109 0.2506,-9.89073 1.18762,-9.38925 l 0.48382,0.25893 0.0338,11.8402 c 0.0634,22.23232 0.21897,31.57312 0.53209,31.95041 0.47831,0.57633 6.55873,0.40021 7.50112,-0.21726 z m -40.67227,-10.08042 c 0.48396,-0.18571 0.46185,-2.66759 -0.0438,-4.91774 -1.6121,-7.17385 -1.51035,-70.362264 0.12399,-76.99375 0.95427,-3.87206 0.45557,-5.278436 -1.7276,-4.871981 -0.71425,0.132975 -3.97753,0.178218 -7.25175,0.100539 -7.26676,-0.172398 -6.68511,-0.335503 -6.52946,1.830975 0.35339,4.918721 0.7143,8.821015 0.8337,9.014203 0.0736,0.119096 0.2071,10.499114 0.29665,23.066714 0.0896,12.5676 0.20339,22.91757 0.25296,22.99994 0.46193,0.76755 -0.69602,22.30548 -1.35754,25.25024 -0.90537,4.03025 -0.70251,4.92036 1.03823,4.55563 0.31387,-0.0658 1.28504,-0.0461 2.15817,0.0437 1.84444,0.18963 11.67245,0.12649 12.20645,-0.0784 z"
       id="path1"
       sodipodi:nodetypes="cssccsscccssscscccsssssssccssscscscssssccccccccssssscssccccsssssssssssccssssssscsssssssssccssscsssssscsscccc" /></g></svg>
