<?xml version="1.0" encoding="UTF-8" standalone="no"?>
<!-- Created with Inkscape (http://www.inkscape.org/) -->

<svg
   width="29.851059mm"
   height="23.694586mm"
   viewBox="0 0 29.85106 23.694585"
   version="1.1"
   id="svg1"
   xml:space="preserve"
   inkscape:version="1.4 (86a8ad7, 2024-10-11)"
   sodipodi:docname="FrozenTime.svg"
   xmlns:inkscape="http://www.inkscape.org/namespaces/inkscape"
   xmlns:sodipodi="http://sodipodi.sourceforge.net/DTD/sodipodi-0.dtd"
   xmlns="http://www.w3.org/2000/svg"
   xmlns:svg="http://www.w3.org/2000/svg"><sodipodi:namedview
     id="namedview1"
     pagecolor="#505050"
     bordercolor="#eeeeee"
     borderopacity="1"
     inkscape:showpageshadow="0"
     inkscape:pageopacity="0"
     inkscape:pagecheckerboard="0"
     inkscape:deskcolor="#505050"
     inkscape:document-units="mm"
     inkscape:zoom="2.8284271"
     inkscape:cx="61.871843"
     inkscape:cy="63.63961"
     inkscape:window-width="1920"
     inkscape:window-height="1010"
     inkscape:window-x="4601"
     inkscape:window-y="-6"
     inkscape:window-maximized="1"
     inkscape:current-layer="layer1" /><defs
     id="defs1" /><g
     inkscape:label="Layer 1"
     inkscape:groupmode="layer"
     id="layer1"
     transform="translate(-58.915537,-120.10268)"><path
       id="path10"
       style="display:inline;fill:#000000;fill-opacity:1"
       d="m 75.597206,120.10312 c -0.246125,-0.0115 -0.580867,0.20153 -1.208711,0.56947 -2.000294,1.17225 -2.340145,2.17069 -1.435055,4.2168 l 0.544153,1.2299 -0.330729,0.91467 -0.330729,0.91467 0.605131,0.64441 0.605647,0.6444 -0.186035,0.58498 -0.185518,0.58498 0.281636,-0.17415 0.281637,-0.17415 -0.107487,0.84697 c -0.05895,0.46578 -0.246824,1.18414 -0.417546,1.59629 l -0.310575,0.74931 0.359151,0.43253 c 0.197474,0.23795 0.830327,0.72999 1.406116,1.09347 l 1.046965,0.66094 -0.849044,0.75861 c -0.466808,0.41709 -1.0779,0.7581 -1.358057,0.7581 -0.491549,0 -0.978162,0.44449 -0.743624,0.67903 0.250815,0.25082 2.584339,0.56248 2.584339,0.34519 0,-0.12674 -0.357187,-0.23047 -0.79375,-0.23047 -0.93104,0 -1.055812,-0.39964 -0.198438,-0.63562 0.327422,-0.0901 0.952501,-0.46087 1.389063,-0.82424 l 0.79375,-0.66094 -1.422653,-1.26039 -1.423168,-1.26039 0.979268,-1.94458 0.979268,-1.94459 -0.67386,-0.94671 -0.673861,-0.94723 0.430981,-0.47594 c 0.236959,-0.26184 0.556918,-0.47646 0.711068,-0.47646 0.15415,0 0.08204,0.19856 -0.160197,0.4408 l -0.440283,0.44029 0.648022,0.77049 c 0.715231,0.85 0.77221,1.16432 0.390674,2.16783 l -0.258382,0.67851 h 0.258382 c 0.141919,0 0.257866,0.13192 0.257866,0.29301 0,0.16109 -0.178368,0.22477 -0.396359,0.14107 l -0.396358,-0.15244 -0.42633,0.65112 c -0.579361,0.88422 -0.401276,1.18116 1.282092,2.13992 l 1.527757,0.86465 -0.01286,-0.83706 c 0.02601,-0.91491 0.274139,-1.35626 0.274139,-0.48131 0,1.05509 1.023151,3.21272 1.926619,3.90183 0.197785,0.27215 0.507147,0.47682 0.951758,0.62555 0.426542,-0.0546 0.630564,-0.58158 0.81132,-1.15807 l 0.690914,0.37 c 1.208588,0.64682 1.574373,1.73058 1.742819,1.95605 0.171525,0.2296 -0.835906,0.28548 -1.405372,0.37301 l -1.146183,0.17621 1.852083,0.14831 v -5.1e-4 c 0.524378,0.0419 1.385359,-0.17049 1.533954,0.26748 0.03307,0.0975 0.81289,0.017 1.045623,-5.3e-4 0.389907,-0.0293 0.311046,-0.45736 0.527819,-0.56049 0.570931,-0.27162 0.52561,-0.6695 -0.445543,-1.03873 -0.676997,-0.2574 -1.206644,-1.00729 -1.206644,-1.70842 v -0.41445 l 0.727604,-0.004 c 0.400182,-0.002 1.931458,0.005 2.149739,-0.13643 0.130596,-0.37812 -0.268025,-0.36509 -0.628385,-0.38034 l -1.613855,-0.004 -1.613855,-0.004 -1.05885,-0.76636 c -0.582137,-0.42169 -1.282757,-0.8101 -1.557528,-0.863 -0.27477,-0.0529 -0.537773,-0.29252 -0.583943,-0.53226 l -0.08372,-0.43615 3.199288,-0.19069 c 5.802128,-0.2136 6.161314,-0.41979 -0.241329,-0.4253 l -3.183268,0.0222 -0.235128,-0.45476 c -0.243256,-0.4707 -0.939242,-3.58934 -1.235067,-5.53403 -0.09987,-0.65651 -0.578806,-1.68423 -1.170988,-2.51354 -0.550985,-0.77161 -1.317406,-2.0281 -1.703255,-2.79208 -0.458086,-0.90701 -0.627681,-1.29314 -0.944129,-1.30793 z m -3.885034,3.82302 -0.485241,1.28933 c -0.49436,1.31372 -2.143638,4.52454 -2.557984,4.98005 -0.125752,0.13824 -0.22841,0.56411 -0.22841,0.9462 0,0.99292 -1.001929,1.81108 -2.462382,2.01125 l -1.241784,0.17053 -0.01189,-0.3669 c -0.0066,-0.20168 -0.158265,-0.70871 -0.33693,-1.12707 l -0.324528,-0.76067 -0.81132,1.30483 -0.81132,1.30534 -1.125513,0.58188 c -0.18392,0.0951 1.813258,-0.004 2.2903,0.0109 l 2.011763,0.0641 -0.374137,-0.45372 -0.374138,-0.45372 0.793234,0.19741 c 0.436264,0.10873 0.851214,0.25591 0.922424,0.32711 0.303005,0.30301 -1.038611,2.07125 -1.747697,2.30322 -0.418839,0.13702 -1.098121,0.52912 -1.509469,0.87126 -0.411347,0.34214 -0.976894,0.63654 -1.25677,0.65474 -0.279877,0.0182 -0.628076,0.0628 -0.773597,0.0992 -0.145521,0.0364 -0.39056,0.081 -0.544669,0.0992 -1.495548,0.17653 0.693203,0.56224 3.190503,0.56224 1.810444,0 3.213121,-0.11222 3.307291,-0.26459 0.165709,-0.26812 2.778125,-0.38378 2.778125,-0.12299 0,0.0779 -0.196612,0.46484 -0.437182,0.8599 l -5.17e-4,5.2e-4 c -0.240571,0.39506 0.221054,0.004 1.025777,-0.8692 l 1.463477,-1.5875 -0.220659,-0.58291 -0.220658,-0.58239 0.385506,0.14779 c 0.491841,0.18873 0.501758,-0.27668 0.01447,-0.68109 l -0.371554,-0.308 -0.136943,0.34159 c -0.07542,0.18797 -0.270664,-0.36701 -0.282152,-0.75862 -0.01137,-0.38763 0.225894,-0.78359 0.576981,-0.69007 0.264956,0.0706 0.608855,0.49952 0.900256,0.76832 0.491164,0.45305 0.878848,0.84689 0.820813,1.18731 l 0.144694,0.36432 0.02067,-0.46405 c 0.01149,-0.25504 -0.455062,-0.89369 -1.037146,-1.41956 -0.582083,-0.52588 -1.0564,-1.15081 -1.0542,-1.38854 l 0.0041,-0.43202 0.220141,0.34727 0.220142,0.34726 0.855761,-0.71985 0.855762,-0.71985 -0.1757,-0.95033 c -0.09644,-0.52276 -0.423696,-1.21795 -0.727604,-1.54461 l -0.552421,-0.59376 0.297656,-0.971 c 0.16393,-0.53414 0.202927,-1.14191 0.0863,-1.35031 l -0.21239,-0.37878 -0.613916,1.51256 -0.613916,1.51309 0.307991,0.49351 c 0.21917,0.35095 0.704753,0.8988 0.334594,1.33332 -0.485995,0.57049 -1.431103,1.37964 -2.068855,1.54919 -0.186881,0.0497 -0.518985,0.28961 -0.525519,0.72718 -0.01566,1.04886 -0.07229,1.01221 -0.488383,1.1223 l -0.58372,0.75176 0.235432,-0.74916 c 0.518257,-0.28195 0.496551,-0.87579 0.489203,-1.54811 l 0.277675,-0.55925 0.855762,-0.44235 c 0.470834,-0.24329 0.99606,-0.63225 1.166853,-0.86455 l 0.310576,-0.42219 -0.376721,-0.41807 c -0.697413,-0.61343 -0.573123,-0.98107 0.281119,-2.83031 l 0.658358,-1.61903 -0.212907,-0.57567 z m 7.840865,4.56251 v 0.38757 c 0,0.21316 -0.238124,0.515 -0.529166,0.67076 -0.291041,0.1558 -0.915037,0.55275 -0.915037,0.47485 0,-0.0779 0.623996,-0.71297 0.915037,-1.00401 z m -2.429826,3.94562 c 0.222936,-0.0393 0.430553,-0.13499 0.552136,-0.055 0.202865,0.13352 0.23922,0.52677 0.242648,0.8057 l 0.08423,0.59531 H 77.5051 c -0.273349,0 -0.7278,-0.17619 -1.010274,-0.39171 l -0.513664,-0.39171 0.396875,-0.2713 c 0.241044,-0.16467 0.504859,-0.3039 0.745174,-0.29133 z m -18.207674,1.0794 1.372526,0.15709 h 1.389063 l 0.206706,-0.15709 z m 17.859375,0.92811 0.363286,0.46302 c 0.345644,0.44073 0.562756,0.58104 0.562756,0.36328 0,-0.0549 -0.20836,-0.26331 -0.463021,-0.46302 z m 3.348116,0.2005 c 0.162838,0.0233 0.346115,0.16605 0.427881,0.41135 0.0576,0.1728 -0.08378,0.31419 -0.314192,0.31419 -0.230408,0 -0.419096,-0.18817 -0.419096,-0.41858 0,-0.23362 0.14257,-0.33022 0.305407,-0.30696 z m -16.102376,0.29559 c -0.447406,0.008 -1.051616,0.0482 -1.665531,0.11524 l -1.984375,0.21652 1.190625,0.28526 v 5.1e-4 c 1.666968,0.3995 2.434361,0.38493 3.017387,-0.0563 l 0.503328,-0.38086 -0.371037,-0.14108 c -0.05106,-0.0193 -0.155601,-0.0314 -0.300757,-0.0372 -0.108867,-0.004 -0.240505,-0.005 -0.38964,-0.002 z m 6.27817,0.5519 c 0.389936,0.0429 0.573738,0.3439 0.478524,0.83923 -0.141878,0.7353 -0.879172,0.73622 -1.21388,0.002 l -0.294039,-0.64544 0.573092,-0.14986 c 0.173071,-0.0453 0.326276,-0.0598 0.456303,-0.0455 z m 8.152991,0.0956 -0.467155,0.48679 -0.467155,0.48627 0.555005,0.0889 c 0.305093,0.0487 0.665681,0.19529 0.801501,0.32607 0.465595,0.4483 0.486375,-0.001 0.03204,-0.69453 z m 1.828829,0.62373 c 0.133669,6.9e-4 0.334129,0.11503 0.519864,0.29301 0.828618,0.79404 0.622376,1.01405 -0.302307,0.3023 -0.275061,-0.21172 -0.425993,-0.45612 -0.324011,-0.5581 0.0255,-0.0255 0.0619,-0.0374 0.106454,-0.0372 z m -11.769308,0.16847 0.211873,0.34261 c 0.11642,0.18837 0.152884,0.43736 0.08113,0.55345 -0.166287,0.26903 -1.422135,0.27751 -1.422135,0.01 0,-0.11052 0.254279,-0.35952 0.564823,-0.55345 z m -8.257377,0.31315 c -0.154109,0 -0.280086,0.11907 -0.280086,0.26459 0,0.14552 0.05262,0.26458 0.116788,0.26458 0.06417,0 0.190147,-0.11906 0.280087,-0.26458 0.08994,-0.14552 0.03732,-0.26459 -0.116789,-0.26459 z m 27.205058,0.56328 c -0.143867,-0.002 -0.297615,0.014 -0.426331,0.0475 -0.257431,0.0671 -0.111001,0.12678 0.325562,0.13178 0.449933,0.005 1.605533,-0.0295 0.468188,-0.12196 -0.08957,-0.0363 -0.223552,-0.0556 -0.367419,-0.0574 z M 76.6204,137.78214 c -0.09192,-0.004 -0.196474,0.013 -0.291972,0.0512 l -0.347266,0.13849 0.506946,0.0212 c 0.278916,0.0115 0.435186,-0.0511 0.347266,-0.13901 -0.04396,-0.0439 -0.123059,-0.068 -0.214974,-0.0718 z m 0.02222,2.11357 c -0.599447,0 -1.198187,0.034 -1.653646,0.0387 -4.960272,0.0516 -0.167791,0.0941 1.653646,0.0941 1.852417,6.8e-4 5.349513,0.0145 1.653646,-0.0941 -0.455288,-0.0134 -1.0542,-0.0387 -1.653646,-0.0387 z m -13.49375,1.55752 v 0.26459 0.26458 l 2.579687,-0.032 c 1.418828,-0.0178 3.829845,-0.11685 5.357813,-0.22014 l 2.778125,-0.1881 -5.357813,-0.0444 z m 19.84375,0.55863 c -0.503536,0 -1.006152,0.0372 -1.389063,0.0403 -3.910791,0.0321 -0.14637,0.0917 1.389063,0.0972 1.82774,0.006 4.593244,0.009 1.389062,-0.0972 -0.382714,-0.0127 -0.885527,-0.0403 -1.389062,-0.0403 z m 0.611849,1.32446 -8.830469,0.0331 4.48138,0.16536 -1.405599,0.14883 c 1.884579,0 0.483335,0.0787 2.761589,0.1111 1.236928,0.0176 2.389333,-0.0577 2.561084,-0.16691 0.02868,-0.0182 0.01256,-0.0336 -0.02532,-0.0475 z"
       sodipodi:nodetypes="csccccccccccccccccsssssccccccccccssccccssccccccsccccsccccssscscccccccsccccccssscccccsccccccccccccccsssscsssccccccccccssscccccccccccccccccccsssccccccccccccccscssccsccscccccccccccsccccssccccccccccccccccccccccccccccsscccsssccscsssccsccccscccccscscscsccccccscsssccccccccc" /></g></svg>
