<?xml version="1.0" encoding="UTF-8" standalone="no"?>
<!-- Created with Inkscape (http://www.inkscape.org/) -->

<svg
   width="120.00337mm"
   height="115.19018mm"
   viewBox="0 0 120.00337 115.19018"
   version="1.1"
   id="svg1"
   xml:space="preserve"
   inkscape:version="1.4 (86a8ad7, 2024-10-11)"
   sodipodi:docname="FuturePortal.svg"
   xmlns:inkscape="http://www.inkscape.org/namespaces/inkscape"
   xmlns:sodipodi="http://sodipodi.sourceforge.net/DTD/sodipodi-0.dtd"
   xmlns="http://www.w3.org/2000/svg"
   xmlns:svg="http://www.w3.org/2000/svg"><sodipodi:namedview
     id="namedview1"
     pagecolor="#505050"
     bordercolor="#eeeeee"
     borderopacity="1"
     inkscape:showpageshadow="0"
     inkscape:pageopacity="0"
     inkscape:pagecheckerboard="0"
     inkscape:deskcolor="#505050"
     inkscape:document-units="mm"
     inkscape:zoom="0.53606888"
     inkscape:cx="112.85863"
     inkscape:cy="114.72406"
     inkscape:window-width="1920"
     inkscape:window-height="1111"
     inkscape:window-x="-9"
     inkscape:window-y="-9"
     inkscape:window-maximized="1"
     inkscape:current-layer="layer1" /><defs
     id="defs1" /><g
     inkscape:label="Layer 1"
     inkscape:groupmode="layer"
     id="layer1"
     transform="translate(-68.209437,-77.664847)"><path
       style="display:inline;fill:#000000;fill-opacity:1"
       d="m 94.648848,192.28172 c -7.914196,-0.51312 -10.689016,-1.81011 -10.59608,-2.08891 0.04323,-0.12971 2.891819,0.0717 5.583713,-0.006 3.595408,-0.10331 5.508774,-0.28436 7.209457,-0.68219 1.273308,-0.29785 2.315104,-0.58855 2.315104,-0.64601 0,-0.0575 -0.625078,-0.0352 -1.389062,0.0494 -3.233707,0.4748 -16.008509,0.60375 -18.983854,-0.10998 -6.568308,-1.57562 -13.298635,-5.4254 -8.259269,-3.64748 5.144875,1.33153 10.897523,2.83722 16.593644,1.61437 6.12653,-1.478 7.538195,-3.86593 9.316425,-4.27679 0.892484,-0.20621 0.714294,-0.69983 0.204172,-2.32164 -0.557153,-1.77134 -0.459222,-2.28196 0.535441,-2.7919 1.184493,-0.86671 2.505018,-1.37515 3.767651,-2.1919 1.16586,-0.76399 2.9596,-1.92485 3.9861,-2.57969 1.02651,-0.65484 1.92496,-1.40762 1.99656,-1.67284 0.20798,-0.77036 -0.13034,-2.36796 -0.66302,-3.13078 -0.52261,-0.74843 -2.57873,-2.07555 -3.21566,-2.07555 -0.37582,0 -1.67134,-0.51971 -4.286003,-1.71938 -0.727604,-0.33384 -1.799166,-0.82141 -2.38125,-1.08349 -0.582083,-0.26208 -0.994942,-0.54429 -1.104082,-0.60047 -0.119041,-0.48036 -1.738327,-1.69767 -2.364878,-2.10273 -0.136772,-0.0884 -0.209813,0.0969 -0.189245,0.10718 0.739439,0.36988 2.273535,2.17198 2.290247,2.27961 0.01507,0.097 0.02313,0.48815 -0.364614,0.47345 -0.152441,-0.006 -0.770226,0.23812 -1.372613,0.52917 -0.602387,0.29104 -1.465792,0.52916 -1.918678,0.52916 -0.452885,0 -0.952865,0.12944 -1.111065,0.28764 -0.660563,0.66056 -0.526619,-0.27571 0.195071,-1.36355 0.428019,-0.64518 0.778727,-1.32187 0.77935,-1.50378 6.23e-4,-0.1819 0.120195,-0.33072 0.265716,-0.33072 0.701924,0 0.08791,-0.89257 -1.653646,-2.40384 -1.055026,-0.91551 -2.094973,-1.82315 -2.310993,-2.01696 -0.281575,-0.25262 -0.371128,-0.78896 -0.316336,-1.89453 l 0.07643,-1.54216 -1.914402,-1.69365 c -1.641103,-1.45187 -2.816306,-2.63111 -4.728968,-4.7452 -0.218281,-0.24127 -0.813593,-0.88048 -1.322916,-1.42047 l -0.926042,-0.98179 -0.0071,-3.22622 c -0.0078,-3.52946 -0.0082,-3.53079 -2.526697,-8.86401 -0.570939,-1.20901 -1.039894,-2.39963 -1.042123,-2.64583 -0.0022,-0.2462 -0.130921,-0.62623 -0.285983,-0.84451 -0.21806,-0.30696 -0.246893,-0.23571 -0.127269,0.31451 0.08506,0.39127 0.05468,0.77319 -0.06753,0.84871 -0.122205,0.0755 -0.210456,0.73767 -0.196113,1.47143 0.01434,0.73375 -0.0647,1.3341 -0.175655,1.3341 -0.82014,0 0.613439,3.70293 2.278954,5.88653 0.381872,0.50066 0.694313,1.13395 0.694313,1.4073 0,0.39161 -0.166661,0.30214 -0.785841,-0.42185 -1.34808,-1.57627 -1.444945,-1.71808 -2.178029,-3.18878 -1.3332,-2.67464 -1.850118,-4.33342 -1.995422,-6.40327 -0.07948,-1.13224 -0.246315,-2.12154 -0.370737,-2.19843 -0.124422,-0.0769 -0.226221,-0.0266 -0.226221,0.1117 0,0.13833 -0.28848,0.32392 -0.641067,0.41241 -0.352586,0.0885 -1.012458,0.47341 -1.466383,0.85536 -0.846132,0.71197 -1.254246,0.70301 -0.976249,-0.0214 0.08617,-0.22455 0.383223,-0.40828 0.660117,-0.40828 0.276894,0 0.999472,-0.44649 1.60573,-0.99219 l 1.102287,-0.99219 -0.05563,-9.525 c -0.06386,-10.93421 -0.118577,-13.18293 -0.370854,-15.24178 -0.16255,-1.32658 -0.118706,-1.54221 0.414608,-2.03907 0.547778,-0.51033 0.571836,-0.648182 0.295204,-1.691545 -0.165646,-0.624765 -0.479577,-2.02678 -0.697624,-3.115589 l -0.396449,-1.979653 1.586073,-1.57141 c 1.034426,-1.024863 1.586073,-1.785702 1.586073,-2.187535 0,-0.338868 0.238125,-0.854249 0.529167,-1.145291 0.649295,-0.649295 0.793285,-0.66127 0.79538,-0.06614 8.96e-4,0.254661 0.17987,0.804784 0.397719,1.222495 0.315792,0.605512 0.360388,1.329614 0.219984,3.571875 -0.483884,7.727653 -0.05041,10.520533 1.921509,12.380283 l 0.932382,0.87935 c 1.65899,-0.63253 2.547256,-1.48941 3.645381,-2.37745 0.112079,0 0.421271,-0.6846 0.687093,-1.52134 0.869933,-2.738342 1.85123,-5.195991 2.561856,-6.416151 0.127128,-0.218281 0.300313,-0.602214 0.384856,-0.853185 0.474727,-1.409257 3.301603,-6.831742 3.498211,-6.710232 0.128213,0.07924 0.30016,0.473972 0.382105,0.877182 0.08195,0.403211 0.752167,1.73438 1.489382,2.958153 0.737215,1.223774 1.340392,2.30215 1.340392,2.39639 0,0.485652 -5.465772,6.165903 -6.206654,6.450213 -0.224361,0.0861 -0.40793,0.2701 -0.40793,0.4089 0,0.39307 1.774982,0.88237 2.443242,0.67352 0.638979,-0.1997 2.135548,-1.79921 2.9376,-3.139657 0.267328,-0.446779 0.624515,-0.931388 0.79375,-1.076909 0.169235,-0.145521 0.882453,-0.949192 1.584929,-1.785937 0.702476,-0.836745 1.446617,-1.521354 1.653646,-1.521354 0.207029,0 0.376416,-0.09146 0.376416,-0.203238 0,-0.11178 0.635634,-0.477627 1.412519,-0.812993 0.776885,-0.335365 1.699619,-0.871314 2.050521,-1.190997 0.350901,-0.319684 1.947688,-1.226213 3.548418,-2.014509 3.19331,-1.461836 6.77762,-2.614174 10.19284,-3.980352 0.1532,-0.06128 1.21333,-0.49389 2.32962,-1.097533 2.54982,-1.378835 3.54973,-1.928741 5.1037,-2.567471 1.42164,-0.584338 2.32388,-1.075917 4.28978,-1.979819 0.072,0.07197 0.41853,-0.05764 0.77014,-0.28802 4.4094,-2.889161 22.58077,-0.835899 23.34654,-1.471439 1.86036,-1.233094 4.99253,-0.670098 6.59318,-1.088979 0.55474,-0.15317 2.01767,-0.236694 3.24356,-0.331688 7.00348,-0.542698 11.63039,0.850905 14.13964,1.283618 0.79615,0.137293 0.81654,1.375729 -1.34129,0.906958 -3.60059,-0.782199 -12.56805,-1.30089 -16.54957,-0.353966 0,0 12.41258,-0.400454 19.87499,1.826208 4.63672,1.383523 9.26818,2.934077 12.71363,4.996022 0.55053,0.32947 0.64519,-0.129581 0.32701,0.379911 -0.61075,0.977965 -1.37913,1.218031 -2.38566,0.74536 -4.54812,-1.213148 -9.04518,-2.824825 -13.7425,-3.726095 -0.15659,-0.02901 -0.38912,0.06396 -0.56367,-0.04392 -0.17456,-0.107879 -0.62104,-0.234049 -0.99219,-0.280378 -0.70664,-0.08821 -0.98,-0.129771 -2.92378,-0.444571 -4.62414,-0.748893 -13.51642,0.08372 -15.46762,1.510829 l -0.51866,0.379357 1.00573,1.227361 c 0.5422,0.415465 8.82244,6.772798 8.50121,7.292549 -0.90489,1.464144 -8.77395,-4.658001 -8.77395,-3.380926 0,0.149833 8.63871,4.755719 8.63871,6.045999 0,0.390729 -3.82907,3.160534 -4.53037,3.160534 -0.40154,0 -0.80365,0.119063 -0.89359,0.264584 -0.0899,0.14552 -0.46948,0.264583 -0.84344,0.264583 -1.41926,0 -7.22635,2.185648 -7.22635,2.719828 1.04602,0.97076 1.39613,3.0227 2.96035,3.36559 0.22699,0 0.92114,-0.17939 1.54257,-0.39864 1.44523,-0.50991 2.11726,-0.64135 4.22833,-0.827 1.96401,-0.17272 2.06358,-0.18524 3.78028,-0.47541 l 1.26674,-0.21411 1.11451,1.18995 c 1.83356,1.95766 2.30514,2.56209 2.30514,2.95454 0,0.77089 -0.3408,1.21025 -0.93874,1.21025 -2.91095,0.59462 -5.37857,1.56195 -4.86278,5.01318 0.13564,0.79272 0.15566,1.53226 0.0445,1.64343 -0.11117,0.11117 -0.77074,-0.48599 -1.46571,-1.32701 -0.69497,-0.84103 -2.03307,-2.27311 -2.97355,-3.1824 -0.94048,-0.90929 -1.70996,-1.75128 -1.70996,-1.87109 0,-0.26817 -2.18119,-1.32087 -3.43959,-1.66003 -3.31272,-0.89284 -9.6563,-1.90468 -10.12501,-1.615 -0.1249,0.0772 -0.46222,-0.0725 -0.7496,-0.33253 -0.69665,-0.63046 -0.47045,-1.65107 0.7863,-3.54772 2.18507,-3.297653 3.09364,-4.306131 3.68951,-4.095236 0.22306,0.07895 0.61272,-0.470102 1.08497,-1.528804 0.66298,-1.486262 0.73213,-1.917436 0.68924,-4.29783 -0.0262,-1.455208 -0.17735,-2.94349 -0.33585,-3.307292 -0.66533,-1.527145 -0.73437,-1.815435 -0.81513,-3.403467 l -0.0453,-0.889926 c -6.67001,1.483766 -6.62825,3.021986 -14.94896,3.655581 -0.38789,-0.482985 -4.43701,0.644585 -4.7398,0.409953 -0.18127,-0.293292 0.0769,-1.095057 0.35259,-1.095057 0.10252,0 0.44262,-0.238719 0.7558,-0.530486 0.31317,-0.291766 1.85019,-1.187205 3.41558,-1.989863 3.01696,-1.546944 3.65502,-1.977568 2.9302,-1.977568 -0.0443,0 -3.56493,1.222013 -3.56988,1.217059 -1.95053,0.586009 -5.5983,2.735248 -7.12516,3.545439 -0.27685,0.146903 -3.47073,3.081934 -7.28407,7.110144 -1.11957,1.18265 -2.14863,2.150273 -2.2868,2.150273 -2.64469,1.527337 -4.80671,2.91236 -6.86765,5.24371 -0.33711,0.37685 -5.081851,7.89609 -5.081851,8.99811 0,0.84035 -2.853324,2.14549 -5.038883,2.30484 -1.165314,0.085 -1.840283,0.0349 -1.840283,-0.13645 0,-0.14884 -0.13759,-0.27063 -0.305755,-0.27063 -0.168166,0 -0.674181,-0.27031 -1.12448,-0.60069 -0.450298,-0.33037 -1.11638,-0.73523 -1.480182,-0.89967 -1.783694,-0.80624 -3.096668,-1.35774 -3.614128,-1.51807 -0.31428,-0.0974 -0.723139,-0.35987 -0.908576,-0.58331 -0.288661,-0.34781 -0.382926,-0.24168 -0.655366,0.73785 -0.175015,0.62926 -0.517113,1.79895 -0.760218,2.59931 -0.638481,2.10205 -0.991194,4.26143 -0.812412,4.97375 l 0.155045,0.61775 0.522192,-0.61294 0.522192,-0.61293 0.79126,0.91604 c 0.435194,0.50383 0.791261,1.0548 0.791261,1.22438 0,0.60873 -0.674689,0.89949 -1.522809,0.65625 L 82.79507,120.2637 c -0.904204,2.25982 -1.18574,4.99458 -1.77435,5.89291 l -0.413148,0.63054 -1.240497,-0.41277 c -0.682274,-0.22702 -1.389326,-0.52953 -1.571227,-0.67225 -0.427453,-0.33537 -0.425526,-0.31936 0.202299,1.67985 2.010392,5.29643 3.173394,10.84489 6.611247,15.58797 2.072522,2.83657 2.065566,2.83138 4.232814,3.15971 1.852352,0.28063 3.708119,0.51582 4.85535,0.61536 0.3375,0.0293 0.769543,0.66224 1.389922,2.03631 0.495107,1.0966 1.019736,2.17242 1.16584,2.3907 0.369338,0.55179 0.683481,1.25647 1.185416,2.65911 0.23695,0.66215 0.810681,1.62746 1.274957,2.14512 0.464277,0.51767 1.541857,1.78874 2.394627,2.8246 1.4823,1.80056 2.92042,2.94729 5.40964,4.31355 1.92771,1.05806 2.06321,1.14419 2.52247,1.60346 0.24508,0.24508 0.9502,0.50548 1.56692,0.57867 0.99591,0.11819 7.19484,0.68971 8.92653,0.823 1.0384,0.0799 1.1093,0.11312 0.99222,0.46447 -0.0606,0.1819 -0.39795,0.35078 -0.74965,0.37528 -0.35169,0.0245 -1.1157,0.16642 -1.69778,0.31537 -1.55038,0.39671 -2.51498,0.5872 -3.70417,0.73147 -1.25628,0.15242 -1.10533,0.15032 -3.45828,0.0482 l -1.87079,-0.0812 0.20562,1.05833 c 0.11309,0.58209 0.21249,1.89178 0.2209,2.91042 l 0.0153,1.85208 c 2.55253,2.02367 7.5565,6.06713 8.25076,8.10067 0.0419,0.1226 0.64177,0.0524 1.33313,-0.15598 1.12788,-0.33997 4.16857,-0.84323 6.48063,-1.0726 0.75558,-0.075 0.82794,-0.0281 0.60362,0.39107 -0.14018,0.26193 -0.85392,0.86064 -1.58609,1.33047 -0.73218,0.46984 -1.33122,0.90627 -1.33122,0.96985 0,0.15363 1.9947,-0.0437 4.7625,-0.47112 l 2.24895,-0.3473 2.91042,-2.93467 c 3.16415,-3.19051 4.04613,-4.22686 6.14349,-7.21881 1.59762,-2.27905 1.5351,-2.23086 4.83672,-3.72855 4.40574,-1.99853 4.35035,-1.97815 7.90097,-2.90731 1.59926,-0.4185 2.13371,-0.70315 2.98639,-1.59053 0.57119,-0.59445 1.13887,-1.08081 1.26151,-1.08081 0.33614,0 2.25013,-2.62592 3.0169,-4.13906 0.37168,-0.73349 1.18171,-2.87046 1.80006,-4.74884 0.97534,-2.96279 1.28099,-3.58034 2.30726,-4.66158 0.65063,-0.68549 1.59329,-1.44106 2.09479,-1.67904 l 0.91182,-0.43268 0.92188,0.88529 c 0.50703,0.4869 1.05633,1.38401 1.53132,1.83565 0.71213,0.67713 2.42061,5.11475 2.40169,4.93156 0.30662,-0.27975 -2.04975,-5.37651 -2.91274,-6.40423 -1.68621,-2.00808 -1.41213,-2.52139 -0.74008,-2.51823 0.43391,0.002 3.87056,2.78043 4.26807,4.3005 l 1.07404,-0.85065 1.07404,-0.85066 v -3.63334 c 0,-1.99833 -0.12942,-4.33981 -0.28759,-5.20329 -0.33232,-1.8141 -1.49942,-4.15157 -2.87041,-5.74886 -0.5253,-0.61201 -1.29985,-1.589 -1.72122,-2.17108 -0.90722,-1.25325 -3.55127,-4.56651 -4.11662,-5.15854 -0.21828,-0.22858 -0.69453,-0.81021 -1.05833,-1.29252 -0.3638,-0.48231 -0.92072,-1.19959 -1.2376,-1.59397 -0.39741,-0.4946 -0.50126,-0.83538 -0.33478,-1.09851 0.4025,-0.63615 0.29999,-0.90494 -1.05281,-2.76054 -0.71625,-0.98246 -1.23929,-1.95041 -1.16232,-2.151 0.20079,-0.52325 0.41404,-0.45937 1.28988,0.38642 0.42781,0.41312 1.13502,0.97755 1.57159,1.25429 1.00278,0.63565 2.39897,1.8751 4.67045,4.14614 0.98246,0.98226 1.83543,1.78593 1.89548,1.78593 0.14883,0 -0.8526,-4.49914 -1.1484,-5.15937 -0.39897,-0.89053 -0.41672,-1.98438 -0.0322,-1.98438 0.46486,0 4.53654,6.43262 4.53654,7.16702 0,0.16272 -0.5344,0.89024 -1.18755,1.61671 -1.5244,1.69549 -1.96678,3.03347 -1.32621,4.01109 0.25187,0.38442 0.62286,0.69894 0.8244,0.69894 0.20154,0 0.36645,0.11464 0.36645,0.25476 0,0.14011 0.50023,0.73543 1.11163,1.32291 0.77574,0.7454 1.34287,1.06816 1.87691,1.06816 h 0.76528 l -0.18414,-1.38906 c -0.10128,-0.76399 -0.41011,-2.06992 -0.68629,-2.90207 -0.27618,-0.83216 -0.50214,-1.76481 -0.50214,-2.07257 0,-0.93255 0.42093,-0.35594 1.04093,0.87113 0.60404,1.19548 1.09177,2.09678 1.42466,3.11601 0.43887,1.34371 0.51438,2.2692 0.0392,2.74443 -0.32838,0.32837 -0.39018,0.68878 -0.25516,1.48794 0.22615,1.33851 0.46243,1.25835 0.82311,4.79001 0.44096,1.5216 0.18725,3.40767 0.67754,4.95368 2.33996,7.3785 1.74137,14.67363 0.23569,19.0043 -0.0277,1.08467 -0.24159,2.16413 -0.53896,2.71977 -0.4275,0.7988 -0.13498,1.00466 0.5501,0.38713 l 0.5608,-0.50549 -0.38359,0.92604 c -0.21098,0.50932 -0.37033,1.58088 -0.35411,2.38125 l 0.0295,1.45521 0.72083,-0.0104 c 0.93912,-0.0136 1.1295,0.61427 0.57892,1.90923 l -0.43011,1.0116 -0.53697,-1.12447 c -0.29533,-0.61847 -0.62675,-1.12448 -0.7365,-1.12448 -0.10974,0 -0.50226,0.23812 -0.87226,0.52916 -0.37,0.29104 -0.73548,0.52917 -0.81217,0.52917 -0.0767,0 -0.13945,-1.18456 -0.13945,-2.63237 0,-3.595 -0.56666,-9.11217 -0.90148,-8.77733 -1.83522,3.68478 -3.55122,10.55091 -8.26116,11.66838 -0.14552,-0.002 -0.6082,-1.06857 -1.02817,-2.37071 l -0.76359,-2.36751 -1.19189,1.04915 c -0.65554,0.57702 -1.30518,1.04914 -1.44364,1.04914 -0.13846,0 -0.55447,0.23812 -0.92447,0.52917 -1.80694,1.42133 -1.16184,0.10445 1.33979,-2.735 l 1.59373,-1.80894 0.46486,0.61627 0.46485,0.61628 0.70602,-0.52712 c 0.38831,-0.28992 0.70928,-0.64536 0.71327,-0.78989 0.0104,-0.37817 -2.40435,-1.64145 -3.54617,-1.85514 -0.84629,-0.15838 -1.02492,-0.097 -1.40486,0.48288 -0.23941,0.36539 -1.14763,1.41853 -2.01826,2.34031 -0.87063,0.92178 -1.9532,2.20001 -2.40572,2.84051 l -0.82276,1.16453 -0.74636,-0.89995 c -0.41049,-0.49497 -0.74956,-0.75525 -0.75348,-0.5784 -0.0121,0.54555 -5.80475,6.94444 -6.30119,6.96063 -0.34729,0.0113 -2.06879,1.70785 -2.26831,2.2354 -0.15307,0.40472 -0.24655,0.44211 -0.41676,0.1667 -0.18048,-0.29202 -0.26017,-0.28582 -0.44879,0.0349 -0.41166,0.69998 -1.30997,0.97403 -2.76836,0.84454 -3.27416,-0.29071 -4.3937,-0.10466 -5.41555,0.57969 -6.18666,4.1433 -12.93227,7.40738 -20.09128,9.52899 -0.87313,0.21882 -1.82563,0.50068 -2.11667,0.62634 -0.9102,0.39301 -5.07128,0.8844 -5.07128,0.57545 0,-0.144 3.93913,-1.14119 4.33781,-1.21188 0.54893,-0.0973 1.71243,-0.47185 2.58555,-0.83227 1.65288,-0.6823 7.64117,-2.69923 -1.71564,0.0266 -6.71215,1.27623 -13.54591,1.87442 -20.391272,1.54153 z m 56.468602,-20.37637 c 1.58985,-0.78027 3.05162,-1.41868 3.24837,-1.41868 0.19675,0 0.35772,-0.13083 0.35772,-0.29074 0,-0.59188 -0.84873,-2.05202 -1.56237,-2.68788 l -0.73608,-0.65585 -0.47233,0.87707 c -0.25978,0.48239 -0.75466,1.1423 -1.09973,1.46648 -0.34507,0.32418 -0.6274,0.74134 -0.6274,0.92702 0,0.18569 -0.14883,0.43548 -0.33073,0.55511 -0.1819,0.11963 -0.92605,0.85284 -1.65365,1.62937 -1.5992,1.70673 -1.34905,1.67178 2.8762,-0.4019 z m 27.31443,4.02739 c 0.0884,-0.23044 0.27702,-0.41898 0.4191,-0.41898 0.34777,0 0.13,0.60134 -0.26551,0.73317 -0.19334,0.0645 -0.25247,-0.0565 -0.15359,-0.31419 z m -47.52084,-9.3165 c 0,-0.0914 0.77391,-0.98664 1.71979,-1.98933 0.94589,-1.00269 1.71603,-1.96967 1.71143,-2.14884 -0.005,-0.17918 -0.31681,0.0252 -0.6938,0.4542 -0.67958,0.77329 -2.97638,2.11197 -3.21469,1.87366 -0.0682,-0.0682 0.13401,-0.72372 0.44934,-1.45673 0.82053,-1.90736 0.85548,-3.23435 0.0941,-3.57196 -0.73298,-0.32501 -0.74347,-0.80778 -0.0724,-3.33138 0.68438,-2.57357 0.66825,-3.00919 -0.1308,-3.53275 -0.56952,-0.37316 -0.82869,-0.39015 -1.78594,-0.11708 -2.31131,1.11035 -4.66031,1.69215 -7.22403,1.96534 -1.35789,0.1451 -1.68231,0.0956 -2.09737,-0.31975 -0.39317,-0.39349 -1.03095,-0.51777 -3.20084,-0.6237 l -2.70982,-0.13229 -1.27822,-1.20562 c -0.70302,-0.66309 -1.814,-1.41784 -2.46884,-1.67722 -0.65484,-0.25939 -1.35785,-0.60983 -1.56224,-0.77876 -0.27516,-0.22742 -0.25799,-0.0874 0.0661,0.5396 0.24076,0.46571 0.64512,0.96279 0.89858,1.10463 0.95952,0.53698 0.10837,0.5336 -1.01021,-0.004 -0.78115,-0.37544 -2.7306,-2.15672 -5.86165,-5.35599 -2.580187,-2.63641 -4.693547,-4.91938 -4.696353,-5.07327 -0.0028,-0.15389 -0.540882,-0.65745 -1.195726,-1.11903 l -1.190625,-0.83923 v -1.59295 c 0,-0.87612 0.07093,-1.59295 0.157614,-1.59295 0.411073,0 1.710932,0.95797 1.836445,1.35343 0.327708,1.03251 3.068725,3.14449 4.081055,3.14449 0.69873,0 0.98876,-1.15698 0.55889,-2.22948 -1.1261,-2.80955 -2.188029,-6.28936 -1.9795,-6.48657 0.13435,-0.12705 0.79438,-0.0956 1.49706,0.0712 l 1.25677,0.29846 v 2.32109 c 0,2.30721 0.15901,2.68904 0.79878,1.91816 0.23833,-0.28717 0.28536,-0.93075 0.16368,-2.23995 -0.14707,-1.58241 -0.0572,-2.22975 0.6481,-4.6708 0.45035,-1.55858 1.15656,-3.43787 1.56936,-4.17619 0.4128,-0.73833 1.06773,-2.17585 1.4554,-3.1945 1.48753,-3.90863 2.34846,-5.7323 2.97191,-6.29525 0.35566,-0.32115 0.84163,-0.82204 1.07993,-1.11308 0.2383,-0.29104 1.38886,-1.48167 2.55681,-2.64583 1.16794,-1.16417 2.64766,-2.80776 3.28827,-3.65242 1.43097,-1.88678 3.68061,-3.94626 4.05672,-3.71381 0.15302,0.0946 0.2016,0.048 0.10796,-0.10354 -0.0936,-0.15152 0.007,-0.42262 0.2237,-0.60244 0.32274,-0.26785 0.39396,-0.24528 0.39396,0.12484 0,0.36031 0.25454,0.26547 1.25677,-0.46823 2.11792,-1.55046 6.71805,-3.67383 7.10999,-3.28188 0.17787,0.17787 -1.20403,1.63725 -1.58029,1.66888 -0.58498,0.0492 -1.37286,0.46252 -2.67843,1.40517 -0.72376,0.52257 -1.46009,0.91702 -1.6363,0.87656 -0.50808,-0.11668 -4.48681,3.86333 -5.00018,5.00179 -0.25563,0.56687 -0.39752,1.09793 -0.31533,1.18013 0.16558,0.16557 0.87341,0.323 1.59204,0.35408 0.36238,0.0157 0.43121,0.1671 0.30482,0.67066 l -0.16325,0.65042 0.88581,-0.26805 c 0.96028,-0.29059 1.4804,-0.41382 2.80404,-0.66434 0.79077,-0.14967 0.8599,-0.10764 0.8599,0.52279 0,0.97221 -0.75466,2.77962 -1.63228,3.90934 -0.92795,1.1945 -0.94674,1.75191 -0.0703,2.08514 0.98118,0.37304 1.15973,0.32843 1.41944,-0.35465 0.12811,-0.33697 0.85149,-1.28947 1.6075,-2.11666 1.27572,-1.39584 1.45886,-1.50399 2.54694,-1.50399 1.49586,0 1.66478,0.41472 0.78228,1.9206 l -0.68111,1.16222 0.67714,0.58876 c 1.1138,0.96844 0.7192,1.22321 -1.89458,1.22321 -2.70173,0 -3.81829,0.43195 -6.22967,2.41 -0.76684,0.62903 -1.43737,1.10057 -1.49008,1.04786 -0.29389,-0.29388 -0.83458,-3.03183 -0.71297,-3.61033 0.0788,-0.3749 0.0216,-1.00163 -0.12707,-1.39273 -0.29385,-0.77288 -1.9529,-2.55584 -2.37821,-2.55584 -0.1447,0 -0.49386,-0.24769 -0.7759,-0.55043 l -0.5128,-0.55042 -1.34959,2.19301 c -0.74227,1.20615 -1.34959,2.27063 -1.34959,2.3655 0,0.1903 -1.47962,1.77239 -2.15273,2.30182 -0.38541,0.30314 -0.40426,0.21609 -0.19538,-0.90198 0.12715,-0.68063 0.53061,-1.89154 0.89658,-2.69092 0.8322,-1.81775 0.66973,-2.12372 -0.21278,-0.40073 -0.3597,0.70227 -0.84602,1.63404 -1.08071,2.07061 -0.2347,0.43656 -0.42745,0.97829 -0.42835,1.20385 -8.9e-4,0.22556 -0.13493,0.5434 -0.29785,0.70632 -0.16292,0.16292 -0.33663,1.40713 -0.38603,2.7649 -0.11815,3.24739 -0.3552,5.8389 -0.6179,6.75515 -0.22065,0.76957 0.23977,4.1092 0.75194,5.45419 0.5176,1.35924 0.34308,1.98777 -0.89596,3.22681 -0.71113,0.71113 -1.33211,1.12107 -1.56362,1.03223 -0.30474,-0.11694 -1.78695,0.43312 -2.24396,0.83275 -0.0508,0.0444 0.23677,0.68555 0.63908,1.42471 0.61738,1.13434 0.8381,1.33313 1.41529,1.27464 0.5967,-0.0605 0.68534,0.0318 0.69558,0.72445 0.006,0.43656 0.21826,1.24465 0.47068,1.79575 0.30258,0.66065 0.37833,1.14602 0.22236,1.42473 -0.16497,0.29478 -0.0872,0.5721 0.25693,0.91623 0.27142,0.27142 0.5828,0.51105 0.69194,0.53251 1.89778,0.37385 1.6288,1.78784 6.15156,2.46476 1.0706,0.16019 1.33673,0.0828 2.63995,-0.7679 0.79713,-0.52032 1.57104,-0.89337 1.71979,-0.82898 1.94143,0.93453 3.52817,1.37342 5.66612,1.56322 2.64841,0.23754 4.70182,-0.31129 6.6186,-1.76901 1.60007,-1.21687 2.07514,-1.17621 1.08262,0.0926 -0.28457,0.3638 -0.52005,0.75646 -0.52328,0.87258 -0.003,0.11612 -0.33011,0.49002 -0.72639,0.83088 l -0.7205,0.61975 0.91894,0.87174 0.91894,0.87173 2.77813,-0.0616 c 1.80777,-0.0401 2.81506,-0.16803 2.88389,-0.36627 0.0582,-0.16756 0.56121,-0.78695 1.11786,-1.37641 l 1.0121,-1.07176 0.007,0.76819 0.007,0.76819 0.92604,-0.95351 0.92604,-0.95352 v -2.49054 c 0,-1.3698 -0.11352,-3.08917 -0.25228,-3.82082 -0.29134,-1.53625 0.13285,-2.99787 1.61575,-5.56726 0.75902,-1.31513 0.87072,-1.74708 0.86921,-3.36115 -0.002,-1.62504 -0.12571,-2.09328 -1.01312,-3.81972 -0.8364,-1.62719 -0.98666,-2.15205 -0.86844,-3.03343 0.0786,-0.58618 0.32944,-1.20215 0.55737,-1.36882 0.22794,-0.16666 0.41443,-0.48338 0.41443,-0.70381 0,-0.43833 1.32553,-0.81543 1.98148,-0.56372 0.81189,0.31155 0.36748,-0.59609 -0.9566,-1.95373 -0.74511,-0.76398 -1.45061,-1.38906 -1.56778,-1.38906 -0.11718,0 -0.41063,-0.19757 -0.6521,-0.43905 -0.24148,-0.24148 -0.81553,-0.46658 -1.27567,-0.50022 -0.46014,-0.0336 -1.07475,-0.15911 -1.36579,-0.27881 -0.29104,-0.11971 -1.45168,-0.22203 -2.57919,-0.22739 -1.12752,-0.005 -2.05026,-0.099 -2.05053,-0.20817 -2.7e-4,-0.10914 -0.13627,-0.19844 -0.30224,-0.19844 -0.59532,0 -2.60866,-1.15931 -2.60866,-1.50211 0,-0.20512 0.32852,-0.36366 0.79375,-0.38305 0.43656,-0.0182 0.91281,-0.0628 1.05833,-0.0992 0.14552,-0.0364 0.8242,-0.081 1.50817,-0.0992 l 1.24358,-0.0331 -1.10982,-0.71962 c -0.94276,-0.6113 -1.05495,-0.7745 -0.74529,-1.08416 0.28736,-0.28736 0.48661,-0.29921 0.94113,-0.056 0.31712,0.16971 0.93191,0.31868 1.36621,0.33103 0.86982,0.0247 1.13554,0.37548 1.40165,1.85016 0.0975,0.5406 0.30672,1.06285 0.46481,1.16056 0.58584,0.36207 2.41928,0.18481 2.74874,-0.26575 0.29189,-0.39918 0.36484,-0.40278 0.73154,-0.0361 1.75541,0.73538 2.90771,2.13256 4.42034,3.17137 1.02221,0.68583 2.42686,1.803 3.12144,2.4826 1.17028,1.14503 3.22208,3.80484 3.22208,4.17687 0,0.089 0.49242,0.59886 1.09427,1.13296 0.88021,0.78111 1.05788,1.08576 0.90822,1.5573 -0.10234,0.32242 -0.2741,0.58622 -0.3817,0.58622 -0.10759,0 -0.82632,-0.65484 -1.59718,-1.45521 -1.74528,-1.81209 -2.16102,-1.93863 -1.57786,-0.48024 0.16381,0.40965 0.44338,1.41349 0.62127,2.23075 0.26599,1.22203 0.25859,1.6097 -0.0417,2.18282 -0.43223,0.82494 -0.35344,0.81201 -1.52988,0.251 -0.75089,-0.35807 -0.93502,-0.59605 -0.93502,-1.20845 0,-0.66733 -0.0744,-0.74028 -0.59531,-0.58406 -1.1777,0.35316 -1.39407,0.81125 -1.31395,2.78187 0.0587,1.44399 -0.0112,1.88061 -0.32003,1.99913 -0.30102,0.11551 -0.38671,0.5713 -0.35974,1.91337 0.0195,0.96895 0.0147,2.48295 -0.0107,3.36444 l -0.0461,1.60272 -1.14589,0.80769 c -0.93037,0.65579 -1.20889,1.05101 -1.48091,2.10145 -0.9964,3.84778 -2.7028,7.66216 -4.14818,9.27262 -0.502,0.55934 -1.70841,1.9783 -2.68091,3.15324 -0.97249,1.17495 -2.24908,2.50959 -2.83687,2.96586 -0.58779,0.45628 -1.56319,1.2809 -2.16757,1.83249 -1.45713,1.32985 -2.47301,1.94524 -2.47301,1.49808 z m 15.74138,-27.25144 0.47403,-1.24124 -0.48536,-0.3549 c -0.62054,-0.45376 -0.82141,-0.44703 -1.00588,0.0337 -0.19787,0.51565 0.11168,3.07037 0.3539,2.92067 0.1041,-0.0643 0.40259,-0.67553 0.66331,-1.35821 z m 12.56904,7.3809 c 0,-0.33694 1.85479,-2.04156 2.81902,-2.59079 l 0.83464,-0.47541 c 0.77923,0.064 2.83985,1.29863 3.3171,1.40717 0.5005,0 1.06957,0.69897 0.73661,0.90475 -0.14071,0.087 -0.93385,-0.0185 -1.76254,-0.23433 -1.08668,-0.28305 -1.64998,-0.31577 -2.02065,-0.1174 -0.28266,0.15128 -0.65616,0.22267 -0.83,0.15865 -0.17383,-0.064 -0.67324,0.0933 -1.10981,0.34954 -1.02205,0.59997 -1.98437,0.88989 -1.98437,0.59782 z m -50.91813,-3.22358 c -0.20402,-0.33011 0.21334,-1.34876 0.85019,-2.07504 0.43036,-0.4908 0.57635,-0.53312 0.82121,-0.23808 0.22389,0.26978 0.19444,0.56603 -0.11867,1.19368 -0.45085,0.90375 -1.30531,1.51977 -1.55273,1.11944 z M 79.602764,127.2053 c 0.0127,-0.30823 0.07539,-0.37092 0.159853,-0.15985 0.07643,0.19099 0.06703,0.41919 -0.02089,0.50711 -0.08792,0.0879 -0.150452,-0.0683 -0.138963,-0.34726 z m 81.140046,-4.6294 c -0.25466,-0.14833 -0.46302,-0.22101 -0.46302,-0.16151 0,0.0595 -0.62171,-0.0945 -1.38158,-0.3422 l -1.38157,-0.45039 -1.64507,-3.28267 c -1.76136,-3.51471 -1.90024,-3.94413 -1.27564,-3.94413 0.35216,0 1.69902,1.30654 4.26763,4.13985 0.41513,0.45791 1.26844,1.38181 1.89626,2.05312 0.84133,0.89962 1.09754,1.35903 0.97436,1.74714 -0.18797,0.59223 -0.32911,0.62651 -0.99137,0.24079 z m -74.149476,-1.16123 c -0.966384,-0.563 -1.087069,-0.74065 -0.965729,-1.42153 0.04983,-0.2796 1.616509,-0.74189 3.346979,-0.98763 0.727604,-0.10332 1.784371,-0.34951 2.348369,-0.5471 1.261816,-0.44204 1.223506,-0.44294 1.223506,0.0288 0,0.467 -1.736722,2.25721 -2.191632,2.25913 -0.17705,7.5e-4 -0.798159,0.29469 -1.380243,0.6532 -0.582083,0.35852 -1.117864,0.64731 -1.190625,0.64177 -0.07276,-0.006 -0.608541,-0.28754 -1.190625,-0.62666 z"
       id="path1"
       sodipodi:nodetypes="ssssscssssssssssssscssssssssssssscsssccscsscsssssssssssssscssssscssssssscscssscssssssssssssssssccscssssssssssssscssssscsssssscsssssssssscssscsccsssscscssscscsscscssssccccsccscssssscsssssssscsscsscssccscsssscsssssssssscsscsccccssssssssssssssssscssssscssssssscscsscssccscsssssscscsscscccscsssscsccsscssssscssssssscsssssssccsccccssscssscscsssccsssscssssssccssscscsscscccssscsccccscsssscsssscssssccsccssssssccsssssscccccsscccsssscscccccscccccssscscsssssscscsssssscssccccscsssssssssssscsscccsssssscccssscscsscsccsscsssssssscsscccsssssscsscssccccs" /></g></svg>
