<?xml version="1.0" encoding="UTF-8" standalone="no"?>
<!-- Created with Inkscape (http://www.inkscape.org/) -->

<svg
   width="316.05615mm"
   height="316.05563mm"
   viewBox="0 0 316.05615 316.05564"
   version="1.1"
   id="svg1"
   xml:space="preserve"
   sodipodi:docname="GT.svg"
   inkscape:version="1.4 (86a8ad7, 2024-10-11)"
   xmlns:inkscape="http://www.inkscape.org/namespaces/inkscape"
   xmlns:sodipodi="http://sodipodi.sourceforge.net/DTD/sodipodi-0.dtd"
   xmlns="http://www.w3.org/2000/svg"
   xmlns:svg="http://www.w3.org/2000/svg"><sodipodi:namedview
     id="namedview1"
     pagecolor="#505050"
     bordercolor="#eeeeee"
     borderopacity="1"
     inkscape:showpageshadow="0"
     inkscape:pageopacity="0"
     inkscape:pagecheckerboard="0"
     inkscape:deskcolor="#505050"
     inkscape:document-units="mm"
     inkscape:zoom="0.3599046"
     inkscape:cx="548.75653"
     inkscape:cy="864.11788"
     inkscape:window-width="1920"
     inkscape:window-height="1010"
     inkscape:window-x="4601"
     inkscape:window-y="-6"
     inkscape:window-maximized="1"
     inkscape:current-layer="layer1" /><defs
     id="defs1"><inkscape:path-effect
       effect="spiro"
       id="path-effect2"
       is_visible="true"
       lpeversion="1" /><inkscape:path-effect
       effect="spiro"
       id="path-effect2-1"
       is_visible="true"
       lpeversion="1" /><inkscape:path-effect
       effect="spiro"
       id="path-effect2-1-6"
       is_visible="true"
       lpeversion="1" /><inkscape:path-effect
       effect="spiro"
       id="path-effect2-14"
       is_visible="true"
       lpeversion="1" /></defs><g
     inkscape:label="Layer 1"
     inkscape:groupmode="layer"
     id="layer1"
     transform="translate(58.201171,18.455466)"><path
       id="path4"
       style="fill:#000000;fill-opacity:1;stroke-width:0.264999"
       d="M 99.826909 -18.455466 A 158.02786 158.02786 0 0 0 -58.201171 139.57261 A 158.02786 158.02786 0 0 0 99.826909 297.60018 A 158.02786 158.02786 0 0 0 257.85499 139.57261 A 158.02786 158.02786 0 0 0 99.826909 -18.455466 z M 120.25099 33.011677 C 122.6133 33.073197 124.95968 33.802724 126.91104 35.136095 C 129.51286 36.913924 131.37578 39.752462 131.93038 42.854487 C 132.56091 46.381299 131.53123 50.03402 129.84368 53.194424 C 128.15613 56.354827 125.83757 59.123483 123.66008 61.968566 C 122.93202 62.919841 122.21283 63.890534 121.70309 64.974584 C 121.19335 66.058634 120.90079 67.274264 121.07006 68.460159 C 121.22862 69.571069 121.79402 70.610183 122.60175 71.389179 C 123.40948 72.168175 124.45059 72.69066 125.54679 72.930687 C 127.73918 73.41074 130.06665 72.761821 131.97068 71.573664 C 133.87471 70.385508 135.41129 68.6966 136.82155 66.95069 C 138.23181 65.204779 139.54806 63.373201 141.13602 61.787181 C 145.71199 57.216769 152.29855 55.022579 158.7644 54.877526 C 162.24031 54.799546 165.76023 55.280128 168.97721 56.598867 C 172.19419 57.917606 175.09809 60.107995 176.98861 63.025865 C 178.29669 65.044789 179.10437 67.401133 179.20243 69.80478 C 179.30053 72.208428 178.6743 74.652624 177.34259 76.656041 C 176.01088 78.659457 173.96586 80.19941 171.6432 80.825812 C 169.32054 81.452214 166.73872 81.134602 164.68858 79.876 C 163.75999 79.305925 162.92379 78.524766 162.49233 77.524205 C 162.27661 77.023924 162.16706 76.474614 162.20346 75.931021 C 162.23986 75.387429 162.42561 74.850307 162.7564 74.417418 C 163.15132 73.900612 163.73442 73.551253 164.3501 73.341515 C 164.96578 73.131777 165.61744 73.052203 166.26523 72.993732 C 166.91302 72.935262 167.56504 72.896683 168.20206 72.765323 C 168.83909 72.633964 169.4677 72.403572 169.97818 72.000511 C 170.53746 71.558922 170.93178 70.919415 171.10008 70.226976 C 171.26837 69.534536 171.21388 68.793774 170.96985 68.124262 C 170.72583 67.454749 170.29561 66.857286 169.75494 66.393102 C 169.21427 65.928918 168.56517 65.596596 167.87909 65.404015 C 166.50692 65.018853 165.01759 65.197649 163.68864 65.712523 C 162.3597 66.227398 161.17566 67.061436 160.09351 67.98887 C 155.34432 72.059071 152.44609 77.896274 147.98263 82.27792 C 143.58229 86.597589 137.6174 89.379232 131.45547 89.609772 C 125.29354 89.840311 119.00832 87.423049 114.84356 82.875817 C 111.74705 79.494923 109.86941 74.976434 109.85472 70.391824 C 109.84002 65.807215 111.73718 61.209992 115.11383 58.108853 C 116.40029 56.927362 117.873 55.970576 119.25931 54.908015 C 120.64563 53.845454 121.97241 52.645412 122.83274 51.1253 C 123.49252 49.959539 123.85723 48.622044 123.83991 47.28264 C 123.82261 45.943235 123.41842 44.605476 122.65756 43.503026 C 121.8967 42.400577 120.77742 41.542169 119.50271 41.130561 C 118.228 40.718954 116.80425 40.764198 115.57323 41.292308 C 114.42892 41.783221 113.4569 42.70105 112.98011 43.851325 C 112.74172 44.426462 112.62726 45.054228 112.65868 45.67602 C 112.69008 46.297813 112.86842 46.913014 113.18423 47.449555 C 113.53443 48.044509 114.05096 48.546239 114.28649 49.195185 C 114.47551 49.715987 114.46343 50.303763 114.27151 50.823509 C 114.0796 51.343254 113.71255 51.793078 113.25296 52.102501 C 112.79338 52.411925 112.24477 52.582266 111.6913 52.60738 C 111.13783 52.63249 110.58076 52.514679 110.0759 52.286469 C 109.06618 51.830045 108.28859 50.944661 107.81815 49.941393 C 107.34772 48.938125 107.16325 47.821401 107.11897 46.7142 C 106.99306 43.565505 108.00484 40.376416 109.95652 37.902334 C 111.9082 35.428251 114.78983 33.696689 117.89764 33.175491 C 118.67459 33.045192 119.46355 32.99117 120.25099 33.011677 z M 77.384351 33.291246 C 78.171789 33.270736 78.960743 33.324247 79.737696 33.454544 C 82.845507 33.975742 85.726617 35.707822 87.678297 38.181904 C 89.629976 40.655987 90.64228 43.845074 90.516366 46.993769 C 90.472086 48.10097 90.287617 49.217694 89.817184 50.220962 C 89.346751 51.224229 88.569159 52.109615 87.559441 52.566039 C 87.054582 52.794251 86.497509 52.911547 85.944036 52.886433 C 85.390562 52.861323 84.841961 52.691494 84.382374 52.382071 C 83.922786 52.072648 83.555737 51.622307 83.363831 51.102562 C 83.171925 50.582816 83.159305 49.995556 83.348329 49.474755 C 83.583861 48.825808 84.10091 48.323562 84.451104 47.728608 C 84.766917 47.192067 84.945233 46.576866 84.976653 45.955073 C 85.008073 45.33328 84.893613 44.706032 84.655225 44.130895 C 84.178441 42.980621 83.206417 42.062792 82.062102 41.571878 C 80.831084 41.043769 79.407335 40.998523 78.132626 41.410131 C 76.857917 41.821739 75.73864 42.680146 74.97778 43.782596 C 74.216919 44.885046 73.81274 46.222806 73.795423 47.56221 C 73.778103 48.901615 74.14282 50.238592 74.802597 51.404353 C 75.662923 52.924464 76.989709 54.125023 78.376022 55.187584 C 79.762335 56.250144 81.235047 57.20693 82.521506 58.388422 C 85.898161 61.489561 87.794784 66.086784 87.780099 70.671394 C 87.765419 75.256004 85.88829 79.773975 82.791773 83.154869 C 78.627021 87.702101 72.341793 90.119882 66.179867 89.889342 C 60.017938 89.658803 54.052527 86.87716 49.652194 82.55749 C 45.188728 78.175845 42.291012 72.33864 37.541822 68.268439 C 36.459673 67.341004 35.275634 66.506967 33.946693 65.992093 C 32.617751 65.477219 31.128414 65.297905 29.756251 65.683068 C 29.070169 65.875649 28.420555 66.20797 27.87988 66.672154 C 27.339206 67.136338 26.909508 67.733803 26.665483 68.403315 C 26.421458 69.072828 26.366964 69.814107 26.535259 70.506546 C 26.703553 71.198986 27.097874 71.838492 27.657154 72.280081 C 28.167638 72.683142 28.796251 72.913016 29.433273 73.044375 C 30.070295 73.175733 30.722315 73.214313 31.370106 73.272785 C 32.017897 73.331255 32.669037 73.411345 33.284718 73.621084 C 33.900398 73.830822 34.484014 74.180182 34.878936 74.696988 C 35.209732 75.129877 35.395466 75.666481 35.431873 76.210074 C 35.468283 76.753667 35.358213 77.302978 35.142485 77.803258 C 34.711034 78.80382 33.875349 79.584977 32.946754 80.155052 C 30.896618 81.413653 28.314802 81.731267 25.99214 81.104865 C 23.669479 80.478463 21.624458 78.938511 20.292746 76.935094 C 18.961033 74.931678 18.334856 72.487996 18.432911 70.084349 C 18.530961 67.680701 19.338647 65.323843 20.646729 63.304918 C 22.537248 60.387048 25.441147 58.197176 28.658127 56.878437 C 31.875106 55.559699 35.39503 55.079118 38.87094 55.157095 C 45.336785 55.302149 51.923348 57.495823 56.499321 62.066234 C 58.087272 63.652255 59.403522 65.483832 60.813787 67.229743 C 62.224051 68.975653 63.760622 70.664561 65.664653 71.852717 C 67.568684 73.040874 69.896155 73.69031 72.088551 73.210257 C 73.184748 72.97023 74.225861 72.447745 75.033591 71.668749 C 75.841321 70.889753 76.406719 69.850638 76.56528 68.739728 C 76.734544 67.553832 76.441984 66.337685 75.932244 65.253636 C 75.422503 64.169586 74.703319 63.198893 73.975257 62.247618 C 71.797762 59.402535 69.479206 56.633881 67.791655 53.473477 C 66.104104 50.313073 65.074422 46.660867 65.704961 43.134056 C 66.259554 40.03203 68.122474 37.193492 70.724293 35.415664 C 72.675657 34.082292 75.022037 33.352767 77.384351 33.291246 z M 156.75625 90.326008 C 156.75625 90.326008 196.57669 121.69234 216.48697 137.5593 C 217.57507 138.86121 217.30631 139.99385 216.44098 141.05159 L 157.67506 186.81418 L 144.44227 164.75971 C 144.44227 164.75971 151.24256 149.50562 151.42634 137.19188 C 151.61013 124.87815 142.78811 110.72631 142.78811 110.72631 L 151.97773 109.07267 L 156.75625 90.326008 z M 42.270732 91.709903 L 47.049252 110.45656 L 56.238872 112.11021 C 56.238872 112.11021 47.416852 126.26205 47.60064 138.57578 C 47.784425 150.88952 54.58471 166.1436 54.58471 166.1436 L 41.351926 188.19755 L -17.413997 142.43497 C -18.279308 141.37723 -18.548092 140.24511 -17.459989 138.9432 C 2.4502817 123.07624 42.270732 91.709903 42.270732 91.709903 z M 99.287407 95.128815 A 44.185425 44.185425 0 0 1 143.47282 139.31423 A 44.185425 44.185425 0 0 1 99.287407 183.49965 A 44.185425 44.185425 0 0 1 55.101991 139.31423 A 44.185425 44.185425 0 0 1 99.287407 95.128815 z M 179.45357 113.48325 A 7.6271658 7.6271658 0 0 0 171.82665 121.11069 A 7.6271658 7.6271658 0 0 0 179.45357 128.73762 A 7.6271658 7.6271658 0 0 0 187.08101 121.11069 A 7.6271658 7.6271658 0 0 0 179.45357 113.48325 z M 19.57341 114.86715 A 7.6271658 7.6271658 0 0 0 11.945968 122.49459 A 7.6271658 7.6271658 0 0 0 19.57341 130.12151 A 7.6271658 7.6271658 0 0 0 27.200335 122.49459 A 7.6271658 7.6271658 0 0 0 19.57341 114.86715 z M 179.30991 151.56775 A 7.6271658 7.6271658 0 0 0 171.68247 159.19467 A 7.6271658 7.6271658 0 0 0 179.30991 166.82211 A 7.6271658 7.6271658 0 0 0 186.93684 159.19467 A 7.6271658 7.6271658 0 0 0 179.30991 151.56775 z M 19.71707 152.95164 A 7.6271658 7.6271658 0 0 0 12.090146 160.57857 A 7.6271658 7.6271658 0 0 0 19.71707 168.20549 A 7.6271658 7.6271658 0 0 0 27.344512 160.57857 A 7.6271658 7.6271658 0 0 0 19.71707 152.95164 z M 67.978207 189.03109 C 73.761242 189.12339 79.529656 191.51494 83.434111 195.77797 C 86.530628 199.15886 88.407753 203.67683 88.422437 208.26144 C 88.437127 212.84604 86.540499 217.44328 83.163844 220.54442 C 81.877385 221.72591 80.404673 222.68269 79.01836 223.74525 C 77.632047 224.80782 76.304744 226.00837 75.444418 227.52849 C 74.784641 228.69425 74.420444 230.03122 74.437761 231.37063 C 74.455081 232.71003 74.859257 234.04779 75.620118 235.15024 C 76.380978 236.25269 77.499738 237.1111 78.774447 237.52271 C 80.049157 237.93432 81.473422 237.88907 82.70444 237.36096 C 83.848755 236.87005 84.82078 235.95222 85.297564 234.80194 C 85.535956 234.22681 85.65041 233.59956 85.618991 232.97777 C 85.587571 232.35597 85.409255 231.74077 85.093442 231.20423 C 84.743248 230.60928 84.226199 230.10703 83.990667 229.45808 C 83.801646 228.93728 83.813743 228.35002 84.005653 227.83028 C 84.197559 227.31053 84.564608 226.86019 85.024195 226.55077 C 85.483782 226.24134 86.0329 226.07152 86.586374 226.04641 C 87.139847 226.02131 87.69692 226.13911 88.201779 226.36732 C 89.211497 226.82374 89.988573 227.70913 90.459006 228.71239 C 90.92944 229.71566 91.113911 230.83239 91.158188 231.93959 C 91.284102 235.08828 90.272314 238.27737 88.320635 240.75145 C 86.368956 243.22553 83.487845 244.9571 80.380034 245.47829 C 77.272223 245.99949 73.967933 245.295 71.366114 243.51717 C 68.764295 241.73935 66.901892 238.90081 66.347299 235.79878 C 65.71676 232.27197 66.745926 228.61977 68.433477 225.45936 C 70.121029 222.29896 72.4401 219.5303 74.617595 216.68522 C 75.345657 215.73395 76.064325 214.76325 76.574065 213.6792 C 77.083805 212.59515 77.376882 211.37901 77.207618 210.19311 C 77.049057 209.0822 76.483142 208.04309 75.675412 207.26409 C 74.867682 206.48509 73.827086 205.96261 72.730889 205.72258 C 70.538493 205.24253 68.211022 205.89197 66.306991 207.08012 C 64.40296 208.26828 62.866389 209.95718 61.456125 211.7031 C 60.04586 213.44901 58.72961 215.28058 57.141659 216.8666 C 52.565686 221.43702 45.978606 223.63069 39.512761 223.77574 C 36.036851 223.85374 32.517444 223.37314 29.300465 222.0544 C 26.083485 220.73566 23.17907 218.54579 21.288551 215.62792 C 19.980468 213.609 19.172787 211.25214 19.074732 208.84849 C 18.976682 206.44484 19.603371 204.00116 20.935084 201.99774 C 22.266796 199.99433 24.311817 198.45438 26.634478 197.82797 C 28.95714 197.20157 31.538956 197.51918 33.589092 198.77779 C 34.517687 199.34786 35.353372 200.12902 35.784823 201.12958 C 36.000549 201.62986 36.110102 202.17916 36.073695 202.72276 C 36.037285 203.26635 35.851553 203.80296 35.520757 204.23585 C 35.125834 204.75266 34.542736 205.10202 33.927056 205.31175 C 33.311375 205.52149 32.659718 205.60158 32.011927 205.66005 C 31.364136 205.71855 30.712633 205.75705 30.075611 205.88846 C 29.438589 206.01982 28.809976 206.2497 28.299492 206.65276 C 27.740212 207.09435 27.345891 207.73385 27.177597 208.42629 C 27.009302 209.11873 27.063797 209.86001 27.307822 210.52952 C 27.551848 211.19904 27.981543 211.7965 28.522218 212.26068 C 29.062892 212.72487 29.712507 213.05719 30.398589 213.24977 C 31.770752 213.63493 33.260089 213.45562 34.589031 212.94075 C 35.917973 212.42587 37.101494 211.59183 38.183643 210.6644 C 42.932834 206.5942 45.831066 200.75699 50.294532 196.37535 C 54.694865 192.05568 60.660279 189.27404 66.822205 189.0435 C 67.207326 189.0291 67.592671 189.02489 67.978207 189.03109 z M 130.94129 189.31066 C 131.32682 189.30466 131.71269 189.30867 132.09781 189.32307 C 138.25973 189.55361 144.22463 192.33525 148.62496 196.65492 C 153.08843 201.03656 155.98666 206.87377 160.73585 210.94397 C 161.818 211.8714 163.00152 212.70544 164.33047 213.22032 C 165.65941 213.73519 167.14926 213.91399 168.52142 213.52882 C 169.20751 213.33624 169.8566 213.00392 170.39728 212.53974 C 170.93795 212.07555 171.36765 211.47861 171.61167 210.80909 C 171.8557 210.13958 171.91071 209.3983 171.74242 208.70586 C 171.57412 208.01342 171.1798 207.37392 170.62052 206.93233 C 170.11004 206.52927 169.48142 206.29887 168.8444 206.16752 C 168.20738 206.03616 167.55536 205.99758 166.90757 205.93911 C 166.25978 205.88061 165.60812 205.80106 164.99244 205.59132 C 164.37676 205.38159 163.79366 205.03223 163.39874 204.51542 C 163.06794 204.08253 162.88221 203.54541 162.8458 203.00182 C 162.8094 202.45823 162.9189 201.90891 163.13467 201.40863 C 163.56612 200.40807 164.40181 199.62691 165.3304 199.05684 C 167.38054 197.79824 169.96287 197.48062 172.28554 198.10703 C 174.6082 198.73343 176.6527 200.27338 177.98441 202.2768 C 179.31613 204.28021 179.94282 206.72441 179.84476 209.12806 C 179.74666 211.53171 178.93903 213.88805 177.63095 215.90697 C 175.74043 218.82484 172.83653 221.01523 169.61955 222.33397 C 166.40257 223.65271 162.88265 224.13329 159.40674 224.05531 C 152.9409 223.91026 146.35433 221.71607 141.77835 217.14566 C 140.1904 215.55964 138.87364 213.72806 137.46337 211.98215 C 136.05311 210.23624 134.51654 208.54733 132.6125 207.35917 C 130.70847 206.17102 128.38152 205.5221 126.18912 206.00215 C 125.09293 206.24218 124.05181 206.76466 123.24408 207.54366 C 122.43635 208.32266 121.87097 209.36177 121.7124 210.47268 C 121.54314 211.65858 121.83569 212.8742 122.34543 213.95825 C 122.85517 215.04229 123.57384 216.013 124.3019 216.96427 C 126.4794 219.80936 128.79847 222.57801 130.48602 225.73841 C 132.17357 228.89882 133.20325 232.55154 132.57271 236.07835 C 132.01812 239.18038 130.1552 242.01892 127.55338 243.79674 C 124.95156 245.57457 121.64727 246.27855 118.53946 245.75735 C 115.43165 245.23615 112.55054 243.50459 110.59886 241.0305 C 108.64718 238.55642 107.63539 235.36733 107.76131 232.21864 C 107.80561 231.11144 107.99006 229.99471 108.46049 228.99145 C 108.93092 227.98818 109.708 227.10279 110.71772 226.64637 C 111.22258 226.41816 111.77965 226.30034 112.33312 226.32546 C 112.8866 226.35056 113.43571 226.52091 113.8953 226.83034 C 114.35489 227.13976 114.72194 227.58958 114.91384 228.10933 C 115.10575 228.62907 115.11784 229.21685 114.92883 229.73765 C 114.6933 230.3866 114.17625 230.88833 113.82605 231.48328 C 113.51024 232.01982 113.33192 232.63503 113.30051 233.25682 C 113.26911 233.87861 113.38411 234.50638 113.62245 235.08151 C 114.09923 236.23179 115.07126 237.14962 116.21557 237.64053 C 117.44659 238.16864 118.87034 238.21389 120.14505 237.80228 C 121.41976 237.39067 122.53904 236.53226 123.2999 235.42981 C 124.06077 234.32736 124.46493 232.9896 124.48225 231.6502 C 124.49955 230.31079 124.13485 228.9733 123.47508 227.80754 C 122.61475 226.28743 121.28797 225.08738 119.90165 224.02482 C 118.51534 222.96226 117.04263 222.00548 115.75617 220.82399 C 112.37951 217.72285 110.48237 213.12562 110.49706 208.54101 C 110.51176 203.95641 112.38938 199.43792 115.4859 196.05702 C 119.39036 191.79399 125.15825 189.40296 130.94129 189.31066 z " /></g></svg>
