<?xml version="1.0" encoding="UTF-8" standalone="no"?>
<!-- Created with Inkscape (http://www.inkscape.org/) -->

<svg
   width="25.215797mm"
   height="23.932558mm"
   viewBox="0 0 25.215797 23.932557"
   version="1.1"
   id="svg1"
   xml:space="preserve"
   inkscape:version="1.4 (86a8ad7, 2024-10-11)"
   sodipodi:docname="Heartseeker.svg"
   xmlns:inkscape="http://www.inkscape.org/namespaces/inkscape"
   xmlns:sodipodi="http://sodipodi.sourceforge.net/DTD/sodipodi-0.dtd"
   xmlns="http://www.w3.org/2000/svg"
   xmlns:svg="http://www.w3.org/2000/svg"><sodipodi:namedview
     id="namedview1"
     pagecolor="#505050"
     bordercolor="#eeeeee"
     borderopacity="1"
     inkscape:showpageshadow="0"
     inkscape:pageopacity="0"
     inkscape:pagecheckerboard="0"
     inkscape:deskcolor="#505050"
     inkscape:document-units="mm"
     inkscape:zoom="3.4671247"
     inkscape:cx="38.360316"
     inkscape:cy="32.303424"
     inkscape:window-width="1920"
     inkscape:window-height="1010"
     inkscape:window-x="4601"
     inkscape:window-y="-6"
     inkscape:window-maximized="1"
     inkscape:current-layer="layer1" /><defs
     id="defs1" /><g
     inkscape:label="Layer 1"
     inkscape:groupmode="layer"
     id="layer1"
     transform="translate(-95.338949,-130.53772)"><path
       id="path5"
       style="fill:#000000;stroke-width:0.264583"
       d="m 101.76712,130.53841 c -1.50722,-0.0213 -3.038578,0.45222 -4.254005,1.45779 -7.631202,7.22421 7.020795,20.43909 10.302215,22.47408 3.33229,-1.94596 19.37074,-15.22408 9.65367,-22.77897 -2.73452,-2.17489 -9.17044,-1.14485 -9.69191,4.12068 -0.34222,-3.38873 -3.13255,-5.23295 -6.00997,-5.27358 z m 5.39398,5.31182 h 1.26814 v 1.29501 c 2.56666,0.29081 4.57771,2.34155 4.81831,4.9134 h 1.39889 v 1.26814 h -1.42886 c -0.34758,2.46292 -2.31684,4.37904 -4.78834,4.65914 v 1.4087 h -1.26814 v -1.41955 c -2.45221,-0.29624 -4.39955,-2.20289 -4.74751,-4.64829 h -1.31103 v -1.26814 h 1.29294 c 0.24079,-2.55024 2.2232,-4.58962 4.7656,-4.90255 z m 1.26814,2.33319 v 1.50999 c 1.18505,0.24648 2.10773,1.17791 2.34301,2.36523 h 1.47278 c -0.24753,-2.00684 -1.81302,-3.59671 -3.81579,-3.87522 z m -1.26814,0.007 c -1.98149,0.29778 -3.52183,1.87932 -3.76721,3.86798 h 1.46451 c 0.23369,-1.17119 1.13681,-2.09397 2.3027,-2.35283 z m -1.54409,4.58731 c 0.18028,1.09442 1.04641,1.94702 2.14354,2.10995 l -0.0212,-2.10995 z m -2.20503,0.54881 c 0.31528,1.91395 1.83042,3.40528 3.74912,3.69021 v -1.43867 c -1.1262,-0.25342 -2.00877,-1.12776 -2.27272,-2.25154 z m 7.3303,0 c -0.26613,1.13969 -1.1679,2.02232 -2.31304,2.26394 v 1.4335 c 1.93734,-0.26883 3.4741,-1.76746 3.7915,-3.69744 z m -0.59526,-0.85536 c -0.18028,-1.09442 -1.04641,-1.94702 -2.14354,-2.10995 l 0.0212,2.10995 z"
       sodipodi:nodetypes="ccccccccccccccccccccccccccccccccccccccccccccccccccc" /></g></svg>
