<?xml version="1.0" encoding="UTF-8" standalone="no"?>
<!-- Created with Inkscape (http://www.inkscape.org/) -->

<svg
   width="70.159531mm"
   height="72.345322mm"
   viewBox="0 0 70.159533 72.345321"
   version="1.1"
   id="svg1"
   xml:space="preserve"
   inkscape:version="1.4 (86a8ad7, 2024-10-11)"
   sodipodi:docname="Hull.svg"
   xmlns:inkscape="http://www.inkscape.org/namespaces/inkscape"
   xmlns:sodipodi="http://sodipodi.sourceforge.net/DTD/sodipodi-0.dtd"
   xmlns="http://www.w3.org/2000/svg"
   xmlns:svg="http://www.w3.org/2000/svg"><sodipodi:namedview
     id="namedview1"
     pagecolor="#505050"
     bordercolor="#eeeeee"
     borderopacity="1"
     inkscape:showpageshadow="0"
     inkscape:pageopacity="0"
     inkscape:pagecheckerboard="0"
     inkscape:deskcolor="#505050"
     inkscape:document-units="mm"
     inkscape:zoom="1.4396184"
     inkscape:cx="103.49965"
     inkscape:cy="144.48273"
     inkscape:window-width="1920"
     inkscape:window-height="1010"
     inkscape:window-x="4601"
     inkscape:window-y="-6"
     inkscape:window-maximized="1"
     inkscape:current-layer="layer7" /><defs
     id="defs1" /><g
     inkscape:groupmode="layer"
     id="layer7"
     inkscape:label="Layer 2"
     style="fill:#ffffff"><path
       style="fill:#ffffff;stroke-width:0.264583"
       d="m 43.17203,34.587722 -1.082868,0.172691 -2.614686,2.813441 2.591718,3.996026 1.105836,0.161592 3.498821,-3.052982 z"
       id="path1" /></g><g
     inkscape:label="Layer 1"
     inkscape:groupmode="layer"
     id="layer1"
     transform="translate(-55.176542,-53.052523)"><path
       style="fill:#080a08;stroke:none"
       d="m 84.590239,64.356912 c 0.692896,0.692896 2.029628,1.595699 2.344503,2.54294 0.241729,0.727201 -0.40138,1.984545 -0.470372,2.748727 -0.201482,2.231755 0.847961,4.644334 2.623786,5.975172 2.71384,2.033803 7.3913,1.168578 10.583333,1.168578 h 25.664581 c -0.12165,-2.412858 -1.70533,-4.586534 -2.88836,-6.614584 -3.27585,-5.615743 -8.51873,-10.320357 -14.30955,-13.229167 -19.601141,-9.845927 -44.272006,-0.359579 -51.211579,20.902084 -7.042892,21.578214 7.98011,44.880228 30.574075,47.338368 10.508952,1.14334 22.373394,-2.43726 29.897914,-10.03212 1.87033,-1.8878 5.22757,-5.21532 5.73265,-7.9375 0.26922,-1.45099 -1.96934,-1.05833 -2.82223,-1.05833 H 110.25482 75.858989 67.656905 c -0.864701,0 -2.443209,0.31007 -2.983912,-0.55857 -1.306112,-2.09824 -0.01117,-4.46851 2.190162,-4.46851 2.405352,0 5.364999,0.46198 7.672917,-0.26459 5.941195,-1.870377 12.023144,-9.82743 11.90625,-16.139581 -0.06604,-3.565868 -3.221622,-5.247467 -4.108391,-8.466667 -1.223246,-4.440697 1.007067,-7.88842 2.256308,-11.90625 m 13.758334,23.283334 c 1.878527,2.614916 1.624953,4.512855 0,7.14375 3.827907,0.993668 7.971147,-1.10179 10.583337,-3.439583 -1.79833,-2.691535 -7.31622,-4.632899 -10.583337,-3.704167 m -7.9375,3.439583 v 0.264584 c 1.687954,1.361714 4.557191,2.642846 6.831662,3.277991 -1.695995,-2.489322 -1.784682,-4.53929 0.02297,-6.809469 -2.378421,0.535902 -5.108561,1.919491 -6.854636,3.266894 z"
       id="path2521"
       sodipodi:nodetypes="csssscsssssssccscssssccccccccccc" /></g></svg>
