<?xml version="1.0" encoding="UTF-8" standalone="no"?>
<!-- Created with Inkscape (http://www.inkscape.org/) -->

<svg
   width="55.378017mm"
   height="57.399601mm"
   viewBox="0 0 55.378019 57.3996"
   version="1.1"
   id="svg1"
   xml:space="preserve"
   inkscape:version="1.4 (86a8ad7, 2024-10-11)"
   sodipodi:docname="Inspect.svg"
   xmlns:inkscape="http://www.inkscape.org/namespaces/inkscape"
   xmlns:sodipodi="http://sodipodi.sourceforge.net/DTD/sodipodi-0.dtd"
   xmlns="http://www.w3.org/2000/svg"
   xmlns:svg="http://www.w3.org/2000/svg"><sodipodi:namedview
     id="namedview1"
     pagecolor="#505050"
     bordercolor="#eeeeee"
     borderopacity="1"
     inkscape:showpageshadow="0"
     inkscape:pageopacity="0"
     inkscape:pagecheckerboard="0"
     inkscape:deskcolor="#505050"
     inkscape:document-units="mm"
     inkscape:zoom="0.7198092"
     inkscape:cx="-43.066968"
     inkscape:cy="75.01988"
     inkscape:window-width="1920"
     inkscape:window-height="1010"
     inkscape:window-x="1529"
     inkscape:window-y="-6"
     inkscape:window-maximized="1"
     inkscape:current-layer="layer1" /><defs
     id="defs1" /><g
     inkscape:label="Layer 1"
     inkscape:groupmode="layer"
     id="layer1"
     transform="translate(-71.447467,-55.675264)"><g
       id="g2"
       transform="translate(3.2162748,0.09189361)"><path
         id="rect1"
         style="fill:#000000;fill-opacity:1;stroke-width:0.254408"
         d="m 105.78187,55.58337 c -9.845762,9e-6 -17.827327,7.981574 -17.827335,17.827336 0.0016,4.306858 1.562248,8.467542 4.393531,11.71298 l -24.116874,24.116874 3.742924,3.74241 24.4321,-24.432103 c 2.814676,1.749817 6.061414,2.68037 9.375654,2.687175 9.84576,-6e-6 17.82733,-7.981572 17.82734,-17.827336 -1e-5,-9.845764 -7.98158,-17.82733 -17.82734,-17.827336 z m 0.14831,3.91139 c 7.68905,-1.52e-4 13.9223,6.233094 13.92215,13.922147 -1.3e-4,7.688852 -6.2333,13.921783 -13.92215,13.921631 C 98.241532,87.338402 92.008686,81.105555 92.008552,73.416907 92.008401,65.728058 98.241331,59.494896 105.93018,59.49476 Z"
         sodipodi:nodetypes="cccccccccccccc" /></g><path
       style="fill:#000000;fill-opacity:1;stroke-width:0.264999"
       d="m 94.926272,73.272881 c 4.706206,-2.473456 9.273078,-4.119256 14.061098,-4.107734 5.49638,0.01323 8.20178,1.867413 14.65564,3.74016 0.50225,0.145741 -0.30667,-2.244141 -0.79625,-2.428142 -5.67013,-2.131247 -9.29037,-3.088205 -13.99861,-3.085471 -4.7696,0.0028 -8.958783,1.169669 -13.900368,3.137197 -1.583139,1.458572 -2.652051,4.126531 -0.02151,2.74399 z"
       id="path3"
       sodipodi:nodetypes="sssssss" /><path
       style="fill:#000000;fill-opacity:1;stroke-width:0.279921"
       d="m 109.29644,76.780553 c -5.80587,-0.01397 -7.76734,-1.476254 -14.584608,-3.454454 -0.530531,-0.153947 -0.523798,2.089029 -0.0066,2.283391 5.989408,2.251256 9.759788,3.287348 14.733148,3.28446 5.03817,-0.003 9.51695,-1.260781 14.73679,-3.339099 0.53736,-0.213952 -0.2101,-2.805949 -0.7098,-2.51478 -3.94887,2.30096 -8.57096,3.880447 -14.16888,3.740482 z"
       id="path3-2"
       sodipodi:nodetypes="ssssssss" /><circle
       style="fill:#000000;fill-opacity:1;stroke-width:0.264999"
       id="path4"
       cx="109.07788"
       cy="73.089096"
       r="4.3189974" /></g></svg>
