<?xml version="1.0" encoding="UTF-8" standalone="no"?>
<!-- Created with Inkscape (http://www.inkscape.org/) -->

<svg
   version="1.1"
   id="svg1"
   width="49"
   height="49"
   viewBox="0 0 49 49"
   sodipodi:docname="InvertedBlackPowerDie.svg"
   inkscape:version="1.4 (86a8ad7, 2024-10-11)"
   xmlns:inkscape="http://www.inkscape.org/namespaces/inkscape"
   xmlns:sodipodi="http://sodipodi.sourceforge.net/DTD/sodipodi-0.dtd"
   xmlns="http://www.w3.org/2000/svg"
   xmlns:svg="http://www.w3.org/2000/svg">
  <defs
     id="defs1" />
  <sodipodi:namedview
     id="namedview1"
     pagecolor="#505050"
     bordercolor="#eeeeee"
     borderopacity="1"
     inkscape:showpageshadow="0"
     inkscape:pageopacity="0"
     inkscape:pagecheckerboard="0"
     inkscape:deskcolor="#505050"
     inkscape:zoom="8.0000001"
     inkscape:cx="3"
     inkscape:cy="16"
     inkscape:window-width="1920"
     inkscape:window-height="1010"
     inkscape:window-x="4601"
     inkscape:window-y="-6"
     inkscape:window-maximized="1"
     inkscape:current-layer="g1"
     showgrid="false" />
  <g
     inkscape:groupmode="layer"
     id="layer3"
     inkscape:label="Image 1"
     style="display:inline">
    <g
       id="g6"
       transform="matrix(-1,0,0,1,49.234374,0)">
      <path
         d="M 17.761719,1.3125 4.6855469,3.9257813 1.2167969,5.5175781 C 0.46083258,6.0747686 0.20614758,7.1285603 0.20898438,8.2636719 L 0.19531248,41.267578 1.8203125,43.814453 36.947266,48.740234 40.466797,45.945312 49.039062,34.835937 V 3.736251 l -0.52384,-2.4217979 z m 30.726562,1.8007813 c -17.510584,5.6932917 0,0 0,0 z"
         style="baseline-shift:baseline;display:inline;overflow:visible;vector-effect:none;fill:#ffffff;enable-background:accumulate;stop-color:#000000;stop-opacity:1"
         id="path7"
         sodipodi:nodetypes="cccccccccccccc" />
    </g>
  </g>
  <g
     inkscape:groupmode="layer"
     inkscape:label="Image"
     id="g1"
     style="display:inline">
    <path
       id="path1"
       style="display:inline;fill:#000000;fill-opacity:1"
       d="M 31.103516 2.1933594 L 1.3417969 2.1953125 L 9.7851562 5.8710938 L 43.462891 4.8046875 L 43.679688 4.7070312 L 31.103516 2.1933594 z M 1.5507812 3.9257812 L 1.0214844 4.1210938 L 1.0214844 34.435547 L 9.265625 45.121094 L 10.021484 45.121094 L 10.123047 9.3867188 L 8.7792969 7.046875 L 1.5507812 3.9257812 z M 45.759766 5.8417969 C 45.645005 5.8380769 45.526134 5.8409319 45.400391 5.8496094 L 14.607422 7.2207031 L 11.980469 9.4003906 L 12.048828 46.757812 L 12.650391 47.808594 L 46.435547 43.070312 L 47.998047 40.621094 L 47.986328 8.8789062 C 47.990228 7.307556 47.481195 5.8975579 45.759766 5.8417969 z M 27.527344 12.755859 L 27.824219 13.183594 C 28.225479 15.134983 28.406402 15.615088 29.371094 16.228516 L 29.216797 16.580078 L 29.740234 17.896484 L 31.326172 20.345703 L 32.40625 23.142578 C 33.130597 22.598515 34.037577 22.151341 35.054688 21.667969 C 33.864691 22.860301 33.061528 24.595389 32.253906 26.0625 C 31.612169 25.747857 31.015186 27.907455 30.640625 29.042969 C 30.182261 30.419348 30.140625 30.497165 30.140625 31.931641 L 28.359375 36.667969 L 27.574219 40.396484 C 27.108041 38.112204 27.31834 35.834806 27.730469 33.574219 C 28.163653 31.291394 28.061807 31.337287 28.875 26.773438 C 28.95625 26.073162 29.307493 25.731061 29.533203 25.605469 L 30.669922 24.710938 L 28.087891 25.322266 L 28.253906 24.933594 L 28.791016 24.574219 C 29.715027 23.166173 29.991452 23.410342 29.638672 22.021484 L 28.771484 19.466797 C 28.393197 18.7957 28.501711 18.777279 27.201172 18.373047 L 27.748047 18.058594 L 27.544922 17.853516 C 27.533732 16.169999 27.541134 14.455178 27.527344 12.755859 z " />
  </g>
</svg>
