<?xml version="1.0" encoding="UTF-8" standalone="no"?>
<!-- Created with Inkscape (http://www.inkscape.org/) -->

<svg
   width="72.230675mm"
   height="109.48978mm"
   viewBox="0 0 72.230674 109.48978"
   version="1.1"
   id="svg1"
   xml:space="preserve"
   inkscape:version="1.4 (86a8ad7, 2024-10-11)"
   sodipodi:docname="Lighthouse.svg"
   xmlns:inkscape="http://www.inkscape.org/namespaces/inkscape"
   xmlns:sodipodi="http://sodipodi.sourceforge.net/DTD/sodipodi-0.dtd"
   xmlns="http://www.w3.org/2000/svg"
   xmlns:svg="http://www.w3.org/2000/svg"><sodipodi:namedview
     id="namedview1"
     pagecolor="#505050"
     bordercolor="#eeeeee"
     borderopacity="1"
     inkscape:showpageshadow="0"
     inkscape:pageopacity="0"
     inkscape:pagecheckerboard="0"
     inkscape:deskcolor="#505050"
     inkscape:document-units="mm"
     inkscape:zoom="1.5162318"
     inkscape:cx="121.68324"
     inkscape:cy="185.65763"
     inkscape:window-width="1920"
     inkscape:window-height="1111"
     inkscape:window-x="-9"
     inkscape:window-y="-9"
     inkscape:window-maximized="1"
     inkscape:current-layer="layer1" /><defs
     id="defs1" /><g
     inkscape:label="Layer 1"
     inkscape:groupmode="layer"
     id="layer1"
     transform="translate(-98.007543,-68.177231)"><path
       style="fill:#000000;fill-opacity:1"
       d="m 129.28852,176.91525 c -0.39649,-0.41384 -0.79243,-1.1933 -0.87987,-1.73213 -0.22078,-1.36052 -0.92996,-1.19049 -1.26103,0.30234 l -0.24926,1.12391 h -5.55835 c -3.36509,0 -5.30699,-0.0456 -5.30699,-0.0456 0.37517,-0.62609 5.83161,-2.33565 6.36857,-2.33565 0.19525,0 0.44257,-0.32742 0.5496,-0.7276 0.25358,-0.94805 0.22803,-4.12871 -0.0345,-4.29948 -0.11186,-0.0728 -0.38049,0.40349 -0.59694,1.05833 -0.21645,0.65484 -0.59138,1.39035 -0.83319,1.63447 -0.24181,0.24411 -2.10652,1.21567 -4.14381,2.15903 l -3.70417,1.71519 -4.29948,0.1109 c -2.36471,0.061 -4.29948,0.0168 -4.29948,-0.0983 0,-0.11506 0.50602,-0.33552 1.12448,-0.4899 3.20658,-0.80044 4.39521,-1.17472 5.3654,-1.68947 1.21868,-0.64658 2.50595,-1.61214 2.50595,-1.87965 0,-0.24708 -1.42776,0.0618 -3.11233,0.67327 -0.32325,0.11734 -1.42341,0.69691 -1.42341,0.69691 -1.91339,0.0546 -6.86315,0.0722 -6.86315,0.0722 0.0883,-0.60894 0.67026,-0.92197 1.46281,-1.42896 0.79255,-0.50698 1.62314,-1.19977 1.84576,-1.53953 0.22261,-0.33975 0.7617,-2.51821 1.19796,-4.84102 1.48283,-7.8951 1.29062,-7.2709 2.64478,-8.58891 0.67281,-0.65484 1.63341,-1.49918 2.13467,-1.8763 l 0.91139,-0.68568 0.24651,-6.5056 c 0.22275,-5.87823 0.20414,-6.57028 -0.19298,-7.17637 -0.62155,-0.9486 -0.55677,-1.1613 0.43732,-1.43578 0.66109,-0.18253 3.57471,-1.99262 3.62976,-2.25498 0.005,-0.0227 0.11515,-1.82727 0.24528,-4.01008 0.13013,-2.18281 0.32158,-4.48435 0.42543,-5.11454 l 0.18882,-1.14578 3.13813,0.0875 c 2.87091,0.08 3.70462,-0.0352 2.79142,-0.38558 -0.27038,-0.10375 -0.32129,-0.9772 -0.23295,-3.99705 0.0957,-3.27175 0.0535,-3.86429 -0.27521,-3.86429 -0.31347,0 -0.42317,0.69561 -0.56949,3.6112 -0.0997,1.98616 -0.24388,3.71256 -0.32045,3.83646 -0.26653,0.43125 -2.36613,0.22449 -3.74149,-0.36846 -1.74876,-0.75393 -1.81139,-1.31337 -0.22558,-2.01485 0.6424,-0.28416 1.28271,-0.73622 1.42292,-1.00457 0.14021,-0.26835 0.3897,-1.64931 0.55442,-3.0688 0.16472,-1.41949 0.46691,-3.02683 0.67152,-3.57187 0.24089,-0.64169 0.47822,-3.22156 0.67331,-7.3193 0.16572,-3.48057 0.41804,-6.54643 0.56071,-6.81302 0.21814,-0.4076 0.59463,-0.48471 2.36677,-0.48471 1.22851,0 2.10735,-0.11034 2.10735,-0.26458 0,-0.14552 -0.17859,-0.26458 -0.39687,-0.26458 -0.33151,0 -0.39688,-0.54213 -0.39688,-3.291679 0,-1.810422 -0.10557,-3.356923 -0.2346,-3.43667 -0.36238,-0.223961 -0.80927,0.469194 -0.76583,1.187841 0.0215,0.355143 0.0172,1.62798 -0.009,2.828527 l -0.0485,2.182811 -1.25677,-0.004 c -1.49416,-0.005 -2.17392,-0.338751 -1.78594,-0.877346 1.38939,-1.928743 1.3131,-1.53189 1.49266,-7.764677 l 0.16975,-5.891887 0.88859,-0.734665 c 0.48872,-0.404065 1.34219,-1.151478 1.89659,-1.660916 l 1.008,-0.926252 0.3732,-3.836248 c 0.20526,-2.109936 0.37673,-3.966993 0.38106,-4.126794 0.004,-0.1598 0.45434,-0.489522 1.00005,-0.732716 1.4634,-0.652171 9.02835,-0.699342 10.46255,-0.06524 0.55204,0.244071 1.05346,0.588831 1.11428,0.766134 0.0608,0.177302 0.21336,1.973388 0.33898,3.9913 l 0.2284,3.668933 2.03076,1.953288 2.03076,1.953289 v 5.632564 5.632565 l 0.78299,0.916047 c 0.43065,0.503826 0.78784,1.183938 0.79375,1.51136 0.01,0.552411 -0.10365,0.595311 -1.57674,0.595311 -1.32453,0 -1.59228,-0.0767 -1.61635,-0.463019 -0.0159,-0.254662 -0.0233,-1.590865 -0.0165,-2.96934 0.0117,-2.365456 -0.24412,-3.361586 -0.77837,-3.031403 -0.12903,0.07975 -0.23461,1.55969 -0.23461,3.288764 0,1.810443 -0.11221,3.213118 -0.26458,3.307288 -0.14552,0.0899 -0.26458,0.31058 -0.26458,0.49031 0,0.22824 0.55918,0.32679 1.8543,0.32679 2.79045,0 2.67504,-0.28368 2.91454,7.16391 0.15719,4.88776 0.30324,6.57434 0.64921,7.49712 0.24553,0.65484 0.48943,1.60734 0.54201,2.11666 0.0526,0.50933 0.16372,1.63445 0.24699,2.50027 0.20762,2.15914 0.7069,2.81493 2.6099,3.42807 1.29077,0.41588 -0.691,2.04376 -2.88497,2.36978 -1.81328,0.26945 -1.96641,-0.005 -2.14828,-3.85452 -0.087,-1.842 -0.2596,-3.50606 -0.38348,-3.69791 -0.49372,-0.76464 -0.66404,0.4217 -0.54275,3.7806 0.0856,2.37097 0.0308,3.53923 -0.1759,3.74589 -0.16518,0.16518 -0.30032,0.37854 -0.30032,0.47414 0,0.0956 1.41003,0.11575 3.13341,0.0448 2.73006,-0.11244 3.15475,-0.0734 3.2992,0.30298 0.0912,0.23761 0.23637,2.36655 0.32265,4.73096 0.0863,2.36441 0.20894,4.55762 0.27259,4.87379 0.12186,0.6054 2.80887,2.46785 3.56043,2.46785 0.8807,0 1.59428,0.39635 0.49844,1.49692 -0.70402,0.70706 -0.53249,1.03874 -0.25771,6.18617 0.15592,2.92077 0.28349,5.78022 0.28349,6.35433 0,0.66945 0.16606,1.18343 0.46302,1.43306 1.95279,1.64159 3.60163,3.2721 3.77911,3.73712 0.1164,0.30496 0.64443,2.96767 1.17341,5.91713 0.52897,2.94946 1.14543,5.64295 1.36989,5.98552 0.40938,0.6248 2.61929,2.22725 3.07156,2.22725 0.1327,0 0.48858,0.55603 0.31727,0.55724 l -6.75894,0.0478 c 0,0 -4.40822,-1.88522 -4.47366,-1.03928 -0.0155,0.20105 1.99832,1.50792 2.95096,1.92899 0.3861,0.17066 1.75532,0.56625 3.04271,0.87908 4.22516,1.02671 4.08311,1.12258 -1.5989,1.07902 l -4.3779,-0.0335 -2.58812,-1.18452 c -4.41619,-2.02117 -4.92229,-2.34243 -5.53017,-3.51048 -0.30844,-0.59267 -0.70196,-1.65714 -0.82116,-1.99224 -0.16007,-0.45002 -0.19806,0.1749 -0.2686,1.52783 -0.12593,2.41544 0.21724,3.20077 1.61178,3.68845 0.60341,0.21102 2.02041,0.7047 3.14889,1.09707 3.50114,1.21734 3.29721,1.26757 -4.82558,1.18865 -3.6394,-0.0354 -3.92355,0.33902 -4.07709,-0.84018 -0.0422,-0.32435 -0.64111,-1.80634 -0.96111,-1.80634 -0.14178,0 -0.25779,0.41846 -0.25779,0.92992 0,0.68978 -0.23369,1.18493 -0.90489,1.91734 -0.49769,0.54307 -1.31158,0.85601 -1.31158,0.85601 -0.008,-5.68056 0.002,-11.37708 -0.0784,-17.06473 h -3.41664 l -3.54751,-0.0218 c -0.0741,7.74477 -0.1812,17.06562 -0.29144,17.06562 -0.10263,0 -0.72914,-0.31679 -1.12563,-0.73064 z m -11.02659,-22.134 c 0.14094,-0.72761 0.45318,-2.27542 0.69386,-3.43959 0.24068,-1.16416 0.58884,-3.3508 0.77368,-4.85919 l 0.33608,-2.74252 1.54798,-1.56429 c 1.02223,-1.03302 1.888,-1.65586 2.54916,-1.83389 0.36074,-0.0971 1.06294,-0.25818 1.18872,-0.35192 0.35454,-0.2642 -0.65679,-0.42214 -1.9389,-0.42214 -0.96532,0 -1.44575,-0.10896 -1.45829,-0.33073 -0.0103,-0.1819 0.28638,-5.55849 0.28598,-6.72266 l -0.21881,-0.63342 -0.44207,5.6475 c -0.21233,2.71251 -0.41007,2.9211 -1.36969,4.06086 -0.55818,0.66296 -1.1789,1.43284 -1.37937,1.71084 -0.3757,0.52099 -0.79751,3.95053 -1.4922,12.13237 -0.57982,6.82901 -0.51647,6.78436 0.92384,-0.65122 z m 32.7112,-0.0642 c -0.24911,-2.72956 -0.58078,-6.30986 -0.73705,-7.95623 l -0.28413,-2.9934 -1.25013,-1.50452 c -1.55285,-1.86885 -1.85807,-2.44167 -1.85807,-3.48711 0,-0.4838 -0.24064,-6.69195 -0.39547,-6.59626 -0.14552,0.0899 -0.13354,6.41693 -0.13334,6.80853 3.5e-4,0.69767 -0.0289,0.71016 -1.45521,0.62135 -1.76622,-0.10997 -1.89938,0.27425 -0.30594,0.88279 0.75419,0.28803 1.60765,0.9594 2.48125,1.95185 1.21944,1.38536 1.25967,0.71875 1.51323,3.22086 0.0952,0.93991 0.53547,3.61305 0.96797,5.94139 0.4325,2.32833 0.84795,4.59052 0.92322,5.02708 0.27227,1.57907 0.73799,3.29511 0.86092,3.17219 0.0691,-0.0691 -0.0781,-2.35895 -0.32725,-5.08852 z m -15.02405,-3.93362 c -0.0663,-0.33005 -0.41328,-0.42532 -1.54075,-0.42303 -2.07454,0.004 -2.11667,0.0132 -2.11667,0.45215 0,0.31537 0.38434,0.39687 1.87149,0.39687 1.57942,0 1.85813,-0.0665 1.78593,-0.42599 z m -0.43956,-2.2738 c 0.0236,-0.1886 0.0649,-0.81917 0.0919,-1.40125 0.0269,-0.58208 0.13624,-2.80523 0.24285,-4.94032 0.18593,-3.72325 0.17206,-3.89365 -0.33904,-4.16719 -0.72814,-0.38969 -1.95384,-0.35848 -2.53227,0.0645 -0.34314,0.25091 -0.47269,0.68063 -0.45865,1.52136 0.0401,2.40203 0.33652,8.58998 0.42438,8.85985 0.13841,0.42515 2.51832,0.48353 2.57087,0.0631 z m -1.21179,-12.85609 c -0.71684,-0.0181 -2.03879,-0.16069 -2.00607,0.90994 0.0114,0.3727 3.73559,0.37485 3.963,0.007 0.0736,-1.07064 -1.20962,-0.89801 -1.95693,-0.91694 z m 1.56581,-6.64512 c 0,-0.26289 -0.3962,-0.39291 -1.34325,-0.4408 -1.45113,-0.0734 -2.14385,0.1764 -1.8423,0.66431 0.2848,0.46082 3.18555,0.25729 3.18555,-0.22351 z m -0.13229,-3.73873 c 0,-0.84837 0.11925,-1.85615 0.26501,-2.23953 0.38849,-1.0218 0.0716,-1.8611 -0.90018,-2.38446 -0.98563,-0.53079 -1.71569,-0.29493 -2.42156,0.78236 -0.37147,0.56693 -0.37147,0.72146 0,1.6105 0.22599,0.54087 0.41089,1.61379 0.41089,2.38425 0,0.77047 0.12641,1.44298 0.2809,1.49448 0.15449,0.0515 0.7498,0.0489 1.32291,-0.006 l 1.04203,-0.0994 z m 0.52916,-6.35933 c 0,-0.13929 -0.41259,-0.45 -0.91686,-0.69047 -0.77524,-0.36968 -1.08178,-0.38782 -1.98438,-0.11739 -0.65167,0.19524 -1.06751,0.47997 -1.06751,0.73091 0,0.34047 0.22438,0.38023 1.30617,0.23144 0.74579,-0.10257 1.50956,-0.0658 1.78028,0.0857 0.50321,0.28162 0.8823,0.17842 0.8823,-0.24018 z m -0.38353,-6.61628 c 0.0702,-0.11353 0.0283,-0.26782 -0.0932,-0.34285 -0.35038,-0.21655 -3.22747,0.14849 -3.22747,0.40949 0,0.28693 3.14107,0.2239 3.32063,-0.0666 z m -0.93938,-2.63079 c 0,-0.89242 0.10712,-1.10561 0.66146,-1.31637 0.7519,-0.28587 0.85463,-0.83321 0.25048,-1.33461 -0.61395,-0.50954 -2.69839,-0.43365 -3.23965,0.11794 -0.42491,0.43303 -0.40772,0.49347 0.30364,1.06732 0.57901,0.46709 0.75407,0.83143 0.75407,1.56945 0,0.83816 0.0813,0.96115 0.635,0.96115 0.56509,0 0.635,-0.11722 0.635,-1.06488 z m 1.05657,-4.49466 c -0.42504,-0.79418 -2.61884,-1.04248 -3.28906,-0.37225 -0.64488,0.64488 -0.33977,0.79276 1.67362,0.8112 1.68066,0.0154 1.836,-0.0268 1.61544,-0.43895 z m 0.26634,-4.99548 c 0,-0.377906 -0.73138,-0.557475 -2.27059,-0.557475 -1.0979,0 -1.43357,0.09293 -1.43357,0.396875 0,0.31498 0.38217,0.39687 1.85208,0.39687 1.01865,0 1.85208,-0.10632 1.85208,-0.23627 z m -0.95435,-2.298906 c 0.0883,-0.230183 0.1606,-1.100396 0.1606,-1.933806 0,-0.922741 0.15191,-1.716128 0.38846,-2.028881 0.51469,-0.680478 0.50903,-2.091853 -0.0105,-2.611358 -0.88697,-0.886972 -3.55298,-0.334128 -3.55298,0.736774 0,0.176551 0.24891,1.029196 0.55314,1.894769 0.3714,1.056702 0.50187,1.894344 0.39711,2.549491 -0.0858,0.536648 -0.0839,1.163779 0.004,1.393624 0.21714,0.565861 1.84262,0.565377 2.05981,-6.13e-4 z M 136.3845,89.3102 c 0.23676,-0.383091 -0.76293,-0.807455 -1.89263,-0.803412 -1.39818,0.005 -2.20021,0.256052 -2.20021,0.688704 0,0.27884 0.46891,0.366017 1.96876,0.366017 1.08282,0 2.03866,-0.113089 2.12408,-0.251309 z m -5.68034,-11.414276 c 0,-1.690008 -0.0842,-2.14167 -0.42357,-2.271898 -0.64445,-0.247298 -0.89084,0.399098 -0.89529,2.348815 -0.003,1.407713 0.0901,1.825501 0.45332,2.028748 0.25155,0.140776 0.54921,0.04651 0.66146,-0.02286 0.11224,-0.06937 0.20408,-0.922656 0.20408,-2.082801 z m 4.5178,-2.621915 -1.72877,-0.01702 -0.0118,4.976683 1.7542,-0.0104 z m 3.94887,2.621915 c 0,-1.690008 -0.0842,-2.14167 -0.42358,-2.271898 -0.63342,-0.243068 -0.89078,0.392431 -0.89528,2.210772 -0.003,1.14167 -0.0861,2.264753 0.3269,2.271079 1.04114,0.01595 0.99196,0.006 0.99196,-2.209953 z M 111.52187,132.7312 c -8.26953,-7.06916 -12.414448,-14.95298 -13.376455,-25.44261 -0.369352,-4.02738 -0.01004,-7.622262 1.240733,-12.413329 1.159112,-4.439962 2.702852,-7.588403 6.237892,-12.722085 1.07587,-1.562403 5.88919,-6.236779 7.1546,-6.948066 0.54571,-0.30674 0.99219,-0.654847 0.99219,-0.773571 0,-0.118725 0.17009,-0.215863 0.37798,-0.215863 0.20788,0 0.5406,-0.162629 0.73937,-0.361398 0.62475,-0.624747 3.95485,-2.323232 6.15869,-3.141176 4.09289,-1.519056 6.2266,-1.980613 10.85538,-2.348203 3.503,-0.278186 4.33744,-0.260927 7.01146,0.145024 4.02452,0.610974 6.31598,1.23885 9.29632,2.547254 4.8464,2.127623 7.75514,4.04665 11.15944,7.362384 4.40718,4.292507 7.36969,8.942152 9.12201,14.316947 1.50082,4.603336 1.77022,6.48213 1.74521,12.170832 -0.0215,4.88033 -0.068,5.33825 -0.86029,8.46667 -0.97668,3.85644 -3.64143,9.49959 -5.9346,12.5677 -1.9443,2.60135 -4.98274,5.72643 -7.07759,7.27941 -1.92592,1.42774 -2.23544,1.54017 -2.4807,0.90104 -0.27877,-0.72648 -0.18738,-0.87976 0.96388,-1.6165 0.61847,-0.39578 1.89837,-1.43926 2.84424,-2.31885 11.55105,-10.74168 14.53414,-27.24412 7.48162,-41.388291 -1.82437,-3.658872 -3.35353,-5.783812 -6.3578,-8.834892 -2.89524,-2.940342 -6.01945,-5.081658 -10.16387,-6.966242 -4.81659,-2.19024 -8.40596,-3.062656 -13.22384,-3.214131 -10.43103,-0.327952 -19.61176,3.44619 -26.72165,10.985111 -4.80419,5.094082 -7.84236,11.645559 -8.947786,19.294865 -0.712291,4.92891 0.06628,11.75739 1.894746,16.61807 0.70203,1.8662 2.58593,5.44096 3.86734,7.33835 1.37434,2.03501 5.3263,6.21804 7.85357,8.31277 1.11453,0.92378 1.27826,1.17116 1.03943,1.57048 -0.15592,0.26069 -0.39405,0.51082 -0.52917,0.55585 -0.13513,0.045 -1.19818,-0.73237 -2.36235,-1.72755 z"
       id="path1"
       sodipodi:nodetypes="csscscsscssscssssssssssssscssscssccsssccssssscssssssccccsccsscsccscscccccscsccsscssssccsscsscscscssssscssssscsssccsssssscssssccccscccssccssssccsssscccscsscsssssssscscssscccssssccsscsssssscssssccssssssssssssssscsssssscsscscssscsscssccccsssssscccssccccccccsscssssssssssssscssssscsssssscsssccs" /></g></svg>
