<?xml version="1.0" encoding="UTF-8" standalone="no"?>
<!-- Created with Inkscape (http://www.inkscape.org/) -->

<svg
   width="101.00832mm"
   height="85.398399mm"
   viewBox="0 0 101.00831 85.3984"
   version="1.1"
   id="svg1"
   xml:space="preserve"
   inkscape:version="1.4 (86a8ad7, 2024-10-11)"
   sodipodi:docname="LoadoutBuilder.svg"
   xmlns:inkscape="http://www.inkscape.org/namespaces/inkscape"
   xmlns:sodipodi="http://sodipodi.sourceforge.net/DTD/sodipodi-0.dtd"
   xmlns="http://www.w3.org/2000/svg"
   xmlns:svg="http://www.w3.org/2000/svg"><sodipodi:namedview
     id="namedview1"
     pagecolor="#505050"
     bordercolor="#eeeeee"
     borderopacity="1"
     inkscape:showpageshadow="0"
     inkscape:pageopacity="0"
     inkscape:pagecheckerboard="0"
     inkscape:deskcolor="#505050"
     inkscape:document-units="mm"
     inkscape:zoom="0.25449098"
     inkscape:cx="-387.04711"
     inkscape:cy="345.78828"
     inkscape:window-width="2400"
     inkscape:window-height="1260"
     inkscape:window-x="5751"
     inkscape:window-y="-9"
     inkscape:window-maximized="1"
     inkscape:current-layer="layer1" /><defs
     id="defs1" /><g
     inkscape:label="Layer 1"
     inkscape:groupmode="layer"
     id="layer1"
     transform="translate(-70.880061,-89.24436)"><path
       style="fill:#000000"
       d="m 70.880061,123.4454 5.442466,-0.26458 0.160628,-2.77812 c 0.04778,-3.17347 0.722642,-6.22838 1.558637,-9.26042 1.45671,-5.32961 5.452866,-10.43144 11.113028,-14.187851 1.944576,-1.290534 7.783921,-3.876072 12.10629,-4.628779 2.34885,-0.409034 9.2909,-0.160446 11.17704,0.40024 5.59867,1.664291 6.22019,1.96453 5.93392,2.866485 -0.26122,0.823031 -4.8529,8.766495 -5.34589,9.248225 -0.42721,0.41745 -0.69582,0.41223 -4.29219,-0.0835 -4.15136,-0.57222 -6.47842,-0.51922 -9.525003,0.21691 -4.871011,1.17696 -9.610047,5.07478 -12.436764,10.22916 -1.4281,2.60406 -2.644487,5.99888 -2.644487,7.38051 0,1.51226 0.287237,1.6199 0.71088,0.2664 1.012683,-3.23541 3.943507,-6.9059 6.829745,-8.55341 3.721733,-2.12441 5.046274,-2.50117 10.138889,-2.88398 4.15134,-0.31205 4.89078,-0.56652 3.42951,-1.18021 -1.19911,-0.5036 -2.02993,-0.50974 -5.10173,-0.0377 -4.118605,0.63284 -8.516587,2.66213 -11.368918,5.24578 -1.468905,1.33054 -1.595983,0.7868 -0.330886,-1.4158 1.835952,-3.19649 3.86878,-4.97053 7.698802,-6.7187 3.074355,-1.40326 4.113502,-1.54473 10.194662,-1.38786 5.3657,0.13842 6.37405,0.26191 6.37405,0.78066 0,0.28778 -0.56236,1.62792 -1.34769,3.21168 -0.27742,0.55946 -0.5044,1.51494 -0.5044,2.12329 0,1.02726 0.14299,1.24706 2.00614,3.08385 5.06058,4.98903 4.45565,6.9465 5.2888,7.77969 0.35211,0.3521 1.28398,0.41577 6.08542,0.41577 3.11831,0 5.66964,0.0674 5.66964,0.14971 0,0.0823 -2.26218,4.10719 -5.02708,8.9441 l -5.02708,8.7944 v 15.04371 l -0.82932,1.66772 c -0.91961,1.84933 -1.81463,2.63232 -1.81913,1.59144 -0.6007,-7.50946 -0.62949,-15.05881 -1.22139,-22.56762 -0.16278,-1.82965 -0.15206,-1.87163 0.79408,-3.11115 1.05351,-1.2652 1.32848,-3.16353 0.53732,-4.64672 -0.40632,-0.5801 -0.44751,-0.58585 -1.12448,-0.15691 -3.63596,2.634 -3.61531,1.08756 -2.79515,5.84273 0.44139,2.80189 0.44172,2.98814 0.007,3.65224 -0.55548,0.84777 -1.01016,1.04633 -1.89022,0.82545 -1.43103,-0.35917 -1.71214,-0.98036 -1.71608,-3.79212 -0.002,-1.41883 -0.0709,-2.83052 -0.15324,-3.13709 -0.16051,-0.59796 -0.47583,-0.78865 -5.91017,-3.57424 -1.95441,-1.00181 -3.871568,-1.82148 -4.26035,-1.82148 -0.951844,0 -2.319232,0.96222 -3.250647,2.28747 -0.614428,0.87422 -0.729547,1.25219 -0.583668,1.91638 0.377962,1.72085 3.940774,3.31762 8.103635,3.63188 1.30369,0.0984 2.45466,0.3104 2.55771,0.47108 0.21806,0.34003 4.12949,22.97597 3.87662,23.77266 l -9.99871,15.54553 c -0.0949,0.1475 -20.558404,-35.90348 -29.290239,-51.19691 z"
       id="path1"
       sodipodi:nodetypes="ccscssssscsssscsccsssssssscsscccccssssscsccsssscccsc" /><path
       id="path2"
       style="fill:#000000;fill-opacity:1;stroke-width:0.264999"
       d="m 142.08592,89.24436 -0.10554,0.494174 -1.13456,5.312112 3.29934,5.091444 5.87266,1.25428 1.04523,-4.893873 -4.01207,-6.197704 z m -7.14353,0.753784 -8.36333,5.419529 0.70998,0.160635 5.2409,1.119346 8.36969,-5.427533 z m 3.69337,5.119701 -5.4448,3.712331 3.80666,5.874324 5.52878,-3.58277 z m 4.24669,8.191985 -4.28694,2.77802 -0.85898,4.02183 15.07314,3.21931 -5.94092,-9.16777 z m -17.18682,-3.363778 -0.56253,2.633848 -5.40997,-1.15546 -0.9274,4.34219 6.54971,10.10726 4.19984,0.897 1.17065,-5.48112 2.56261,0.54732 1.3683,-6.40652 -3.18533,-4.25305 z m 13.51747,13.530678 4.23448,7.00768 16.24768,3.47017 -4.30567,-7.02289 z m 6.70021,10.8837 4.54403,7.14833 16.40339,3.50341 -4.64635,-7.17018 z m 6.57081,10.3351 3.28764,5.16807 15.43351,3.29628 0.68311,-0.38882 -2.95645,-4.56236 z m 6.08034,9.56051 2.84171,4.46799 4.93957,-2.80607 z"
       sodipodi:nodetypes="cccccccccccccccccccccccccccccccccccccccccccccccccccccccc" /></g></svg>
