<?xml version="1.0" encoding="UTF-8" standalone="no"?>
<!-- Created with Inkscape (http://www.inkscape.org/) -->

<svg
   width="96.628677mm"
   height="109.23994mm"
   viewBox="0 0 96.628678 109.23994"
   version="1.1"
   id="svg1"
   xml:space="preserve"
   inkscape:version="1.4 (86a8ad7, 2024-10-11)"
   sodipodi:docname="Midas.svg"
   xmlns:inkscape="http://www.inkscape.org/namespaces/inkscape"
   xmlns:sodipodi="http://sodipodi.sourceforge.net/DTD/sodipodi-0.dtd"
   xmlns="http://www.w3.org/2000/svg"
   xmlns:svg="http://www.w3.org/2000/svg"><sodipodi:namedview
     id="namedview1"
     pagecolor="#505050"
     bordercolor="#eeeeee"
     borderopacity="1"
     inkscape:showpageshadow="0"
     inkscape:pageopacity="0"
     inkscape:pagecheckerboard="0"
     inkscape:deskcolor="#505050"
     inkscape:document-units="mm"
     inkscape:zoom="1.0179639"
     inkscape:cx="124.75884"
     inkscape:cy="184.68238"
     inkscape:window-width="1920"
     inkscape:window-height="1010"
     inkscape:window-x="4601"
     inkscape:window-y="-6"
     inkscape:window-maximized="1"
     inkscape:current-layer="layer1" /><defs
     id="defs1" /><g
     inkscape:label="Layer 1"
     inkscape:groupmode="layer"
     id="layer1"
     transform="translate(-60.454942,-85.842437)"><path
       id="path2"
       style="display:inline;fill:#000000;fill-opacity:1;stroke-width:0.264999"
       inkscape:label="path2"
       d="m 103.11825,85.84564 c -6.521216,0.05374 -12.350114,0.785444 -14.858004,2.32544 -6.805862,4.657744 -9.615255,8.632836 -10.345622,17.77411 -0.808857,14.24226 9.311755,18.31769 4.594552,23.34121 -3.116724,2.82573 -12.482194,-3.67591 -17.827336,1.9296 -12.09932,16.87778 1.991208,48.22904 39.51438,62.16623 2.12886,0.33695 3.24672,-2.72635 6.11074,-2.80293 3.23159,0.62794 3.24711,2.58863 3.35432,4.50308 17.03094,-0.0613 26.80214,-4.53342 27.65981,-34.64388 1.14947,-1.33463 -0.56015,-17.28983 1.69395,-20.76875 4.70011,-5.65314 7.06104,2.27428 13.32064,-8.77208 2.27425,-4.50518 -1.10491,-13.2986 -3.89899,-20.92275 -5.65316,-7.99385 -15.91963,-16.572511 -26.31622,-21.252453 -5.08851,-1.894352 -14.61775,-2.945919 -23.00222,-2.876827 z m 2.74506,6.82439 c 0.62755,0.0338 1.20516,0.215963 1.54357,0.605131 2.1659,7.364239 1.76515,14.663499 1.42937,22.092709 l -2.43758,-0.0351 c -2.1674,-2.70533 -3.14019,-5.96202 -4.15892,-9.35654 -0.55844,-4.12287 0.58313,-7.969823 0.94362,-12.506209 0.44914,-0.500055 1.63402,-0.856282 2.67994,-0.799951 z m 18.38595,2.935738 c 0.86665,0.11949 1.87963,1.136126 3.04116,3.777547 -0.18644,10.524005 -2.02696,19.118255 -4.41885,27.161135 -1.78066,1.2963 -3.19375,0.93852 -3.96358,-1.62471 -0.11814,-1.29949 0.40697,-2.59898 1.29966,-3.89847 1.56343,-1.01402 2.02414,-2.85508 2.20917,-5.52318 l -4.38526,2.60088 c 2.69906,-7.81775 2.73342,-18.851635 3.59461,-20.053041 0.63652,-1.264421 1.50883,-2.59379 2.62309,-2.440161 z M 87.911947,100.6282 c 1.30826,-0.0771 2.418463,0.54924 3.177067,1.63298 1.455789,4.01662 3.693055,9.82523 2.851505,12.60129 -0.899713,2.49557 -2.534819,3.33705 -4.077787,2.06499 l -3.639054,-6.30297 c -0.949134,-2.92656 -1.117174,-5.76123 -0.779798,-8.64185 0.264317,-0.70155 0.98792,-0.89753 1.895492,-1.27744 0.194522,-0.0405 0.385681,-0.066 0.572575,-0.077 z m 51.747743,8.55142 c 1.29136,-0.0992 2.55143,0.80938 3.03961,3.56619 0.47478,4.1199 -2.31258,7.45857 -2.02158,11.94604 -3.35276,3.90311 -6.38048,8.58604 -7.71891,14.24357 2.18607,5.15628 1.51315,9.01269 -0.4594,13.32425 l 0.64285,12.95735 c -0.0982,11.16574 -3.15822,18.742 -11.18381,20.6158 -7.773,0.96465 -13.94859,-6.89249 -16.91318,-10.21643 -0.76578,-1.1793 0.14604,-2.74192 -0.75758,-3.41581 -1.79192,-0.9802 -8.183029,-3.03174 -11.399303,-4.83898 -2.833385,-1.77661 -5.202589,-8.77655 -4.130497,-10.87479 0.90362,-1.62345 2.726179,-1.73049 3.675745,-3.49178 0.290997,-2.34329 0.398439,-4.5031 1.286743,-6.61665 2.205446,-2.92528 5.880778,-2.5424 5.880778,-5.78931 -5.100093,-0.046 -7.167662,-4.68642 -4.686536,-7.71891 16.51021,-3.40006 21.62558,-0.82681 33.54111,4.96249 l 1.47071,-7.07606 2.57297,-6.98355 1.56217,-0.82734 2.20504,-7.35149 c -0.0613,-2.14418 0.29114,-4.2425 1.19476,-5.3299 0.63751,-0.60306 1.4235,-1.02519 2.19831,-1.08469 z m -32.83779,8.65735 c 1.49453,0.0433 2.46922,1.02885 2.53422,2.27428 -0.0541,1.63528 -0.92046,2.97817 -2.20917,3.2489 -1.08295,0.15165 -2.42581,-1.22371 -2.4691,-2.4691 -0.16253,-1.53786 0.58465,-2.8158 2.14405,-3.05408 z m -13.905607,2.85926 2.63188,0.68264 1.136882,6.46524 -2.403988,2.4691 -3.346566,-5.49062 1.273308,-0.74362 -0.972034,-2.09703 z m 23.731367,15.39027 c -4.76838,0.44359 -6.8081,2.96666 -6.8001,6.98407 l -0.092,5.37538 2.06758,-0.78083 2.91713,0.7767 c 0.29055,1.04966 -0.88108,1.70942 -0.78548,2.79156 0.62237,0.88523 1.40721,1.4127 2.64687,1.4857 -1.25306,1.88247 -2.53889,3.1153 -5.51388,3.30832 -2.40922,-0.0115 -3.90835,-1.64732 -5.37538,-3.44578 l -1.88412,0.91881 c 0.0951,3.72642 3.27655,5.60075 5.74332,6.11073 3.18519,-0.0278 5.98089,-0.34778 8.77621,-1.83761 1.71523,-1.08771 2.0458,-1.06563 2.343,-3.17035 l 3.67575,-0.64337 -2.15956,-1.4242 1.70016,-0.9648 c 3.11462,-1.32189 2.52556,-3.19623 2.2288,-6.30504 -0.50947,-3.23299 -6.02231,-8.54544 -9.48831,-9.17929 z m -43.065588,0.13539 c 3.131979,-7.5e-4 4.905072,4.16985 8.612911,13.71493 l -2.66392,1.42937 c -2.382547,-1.29957 -5.739961,-2.8591 -6.368087,-4.28863 -0.498169,-2.98902 -6.519479,-6.0432 -5.003312,-8.38243 2.294555,-1.61093 3.998781,-2.47289 5.422408,-2.47324 z m 58.181978,7.6755 -2.71095,0.22996 c 0.33694,3.98205 0.0765,6.49381 -0.64337,8.91367 -1.04146,1.96039 -1.80724,3.5073 -3.67574,4.22713 -0.70452,0.91894 -1.08707,3.4919 -0.18345,4.13515 2.3586,-0.30631 4.57915,-1.43966 5.55935,-3.67574 1.24057,-1.25588 1.97579,-5.91201 1.65416,-13.83017 z m -32.254361,1.0108 c -2.872459,0.25474 -3.438388,1.93907 -3.354318,4.27312 0.0041,1.73905 1.080509,3.12075 3.813721,3.17035 1.767828,-0.20462 3.307898,-1.15637 3.353798,-3.53777 0.0284,-1.85414 -1.56733,-3.70851 -3.813201,-3.9057 z m 8.384501,4.02146 -1.00717,2.27427 0.9095,2.33888 1.07229,-0.55242 0.32504,1.46244 1.10433,-0.91002 1.29966,-0.22738 c 1.13713,-0.25992 0.90961,-2.11191 -0.29249,-3.31401 l -2.17661,0.29249 z m 14.81822,7.14375 c -2.87933,3.38475 -8.42365,5.16122 -7.94887,6.15673 1.56219,0.9802 3.1707,1.54708 5.10046,0.73535 1.40903,-0.6892 2.58806,-1.56224 3.39979,-3.72174 l -1.33221,-0.36742 z m -29.693798,1.45004 c -0.166198,4.3e-4 -0.316345,0.0359 -0.447001,0.11213 -1.07727,1.0646 -0.627536,5.41061 1.056783,6.80011 l 7.994346,4.45709 c 1.56315,0.68548 2.41193,1.30562 3.03289,2.25102 l 3.62975,-2.89439 c -1.39006,-1.42153 -1.48064,-3.62306 -1.14877,-6.01927 -1.99936,-0.6874 -6.20798,1.2894 -7.752495,0.34209 -1.645773,-1.7661 -4.758921,-5.05294 -6.365503,-5.04878 z m 34.656278,6.08541 -1.10277,4.91598 0.55139,0.22996 1.51618,-1.24075 1.01079,-0.18345 1.10278,-3.40031 z m -7.62744,2.61896 -1.37821,3.30781 0.27544,0.78135 -2.435,-0.13798 2.29754,1.65417 2.52698,-1.01079 0.50539,-2.89492 z m -9.6485,1.14825 0.046,3.63027 2.61896,2.8944 2.11357,-3.44578 -0.91933,-1.19476 -2.52698,0.046 z m -1.88413,1.19476 -2.52697,2.11357 -0.55139,3.21634 3.21634,-1.60817 z m 14.61668,4.10828 -0.9095,1.94923 -3.96359,3.37913 1.94924,1.75441 2.98896,-2.20917 0.71469,-2.79414 z m -4.60023,0.0729 -2.71095,0.91881 -0.36742,2.61896 1.97559,0.64337 0.13798,-1.01079 1.01079,-0.22944 z m -10.42986,0.59738 -0.41341,2.61896 2.57297,2.61897 1.9296,-2.71095 -1.19424,-2.48098 -1.10278,0.046 -0.36794,2.25154 -0.59686,-2.29753 z m 7.7649,3.67575 -1.83761,0.87281 0.27543,2.25155 -1.47019,0.59737 1.60817,1.9296 3.62975,-1.4242 z m 7.67344,3.30832 -3.12436,1.24024 -0.18397,-0.5054 -1.19476,0.18397 -0.4594,0.78135 -2.48099,0.64285 2.94039,1.74615 3.72174,-0.22996 V 182.539 l 1.42472,-0.55138 z" /></g></svg>
