<?xml version="1.0" encoding="UTF-8" standalone="no"?>
<!-- Created with Inkscape (http://www.inkscape.org/) -->

<svg
   width="67.027466mm"
   height="66.848038mm"
   viewBox="0 0 67.027465 66.84804"
   version="1.1"
   id="svg1"
   xml:space="preserve"
   inkscape:version="1.4 (86a8ad7, 2024-10-11)"
   sodipodi:docname="MinotaurTemple.svg"
   xmlns:inkscape="http://www.inkscape.org/namespaces/inkscape"
   xmlns:sodipodi="http://sodipodi.sourceforge.net/DTD/sodipodi-0.dtd"
   xmlns="http://www.w3.org/2000/svg"
   xmlns:svg="http://www.w3.org/2000/svg"><sodipodi:namedview
     id="namedview1"
     pagecolor="#505050"
     bordercolor="#eeeeee"
     borderopacity="1"
     inkscape:showpageshadow="0"
     inkscape:pageopacity="0"
     inkscape:pagecheckerboard="0"
     inkscape:deskcolor="#505050"
     inkscape:document-units="mm"
     inkscape:zoom="2.1442755"
     inkscape:cx="94.903849"
     inkscape:cy="152.26588"
     inkscape:window-width="1920"
     inkscape:window-height="1111"
     inkscape:window-x="-9"
     inkscape:window-y="-9"
     inkscape:window-maximized="1"
     inkscape:current-layer="layer1" /><defs
     id="defs1" /><g
     inkscape:label="Layer 1"
     inkscape:groupmode="layer"
     id="layer1"
     transform="translate(-102.37858,-93.630404)"><path
       style="fill:#000000"
       d="m 130.419,159.99939 c -7.24648,-1.10016 -12.2119,-3.65901 -18.1509,-9.35374 -3.00904,-2.88529 -4.80447,-5.30287 -6.56432,-8.83895 -1.4107,-2.83455 -2.10426,-4.86015 -2.51709,-7.35134 -0.16881,-1.01865 -0.4209,-2.5141 -0.56022,-3.32322 -0.51497,-2.99089 -0.21217,-7.53984 0.76505,-11.49345 0.14388,-0.58208 0.40981,-1.77271 0.59096,-2.64583 0.63702,-3.07032 3.77845,-8.4786 7.13147,-12.27751 1.80234,-2.04202 6.45341,-5.84645 7.14752,-5.84645 0.73007,0 4.06923,-1.675183 5.01378,-2.515303 0.66234,-0.589102 3.90786,-1.607939 7.67292,-2.40869 2.33084,-0.49572 8.77527,-0.381352 9.81324,0.174154 0.3387,0.181265 1.54225,0.422967 2.67455,0.537115 2.50228,0.252255 4.57186,0.956336 7.88513,2.682548 3.78509,1.972034 4.92158,2.782436 7.73125,5.513006 4.2686,4.1484 7.48548,9.2427 8.29289,13.13271 0.20573,0.99119 0.66282,2.45701 1.01576,3.25738 0.69366,1.57303 1.30961,6.77285 0.92819,7.83576 -0.11046,0.30785 -0.27609,1.85566 -0.36805,3.43958 -0.21839,3.76133 -0.79867,6.19119 -1.93349,8.09622 -0.50664,0.85049 -1.02326,2.09288 -1.14806,2.76087 -0.15222,0.81479 -0.54081,1.56199 -1.18069,2.27026 -0.52459,0.58066 -1.13344,1.48908 -1.353,2.01871 -1.10255,2.65964 -5.72362,7.60749 -8.94209,9.57442 -3.53747,2.16189 -8.14239,3.94154 -12.61136,4.87386 -2.5369,0.52926 -7.4276,0.48088 -11.33344,-0.11211 z m 11.05751,-3.06888 c 4.0844,-0.82377 6.78196,-1.86494 11.45214,-4.42017 3.72628,-2.03878 5.18712,-3.2376 6.07438,-4.98483 0.4139,-0.81506 1.03618,-1.82709 1.38285,-2.24895 1.87047,-2.27617 4.03658,-6.858 4.99077,-10.55662 0.46354,-1.79676 0.54274,-2.87644 0.52405,-7.14375 -0.0121,-2.76489 -0.13329,-5.62239 -0.26929,-6.35 -0.78619,-4.20623 -3.10001,-9.57461 -5.30772,-12.31467 -0.65856,-0.81736 -2.50708,-2.87848 -4.10781,-4.58026 -2.81724,-2.99508 -4.60305,-4.399887 -5.60336,-4.407877 -0.57743,-0.0046 -2.49409,-0.653791 -3.56443,-1.207285 -2.84095,-1.469114 -8.28948,-2.268849 -13.47539,-1.977918 -4.18332,0.234685 -8.1858,1.387712 -10.82661,3.118906 -0.94589,0.620084 -1.8472,1.127654 -2.00292,1.127944 -0.15571,3e-4 -1.27847,0.65538 -2.495,1.45575 -1.21653,0.80036 -2.30392,1.4552 -2.41641,1.4552 -0.80242,0 -1.5825,0.71742 -1.84496,1.69676 -0.17947,0.66969 -0.77525,1.59565 -1.56494,2.43223 -2.23891,2.37186 -4.14137,5.73252 -4.40268,7.77726 -0.0837,0.65485 -0.35923,1.55556 -0.61232,2.00158 -0.84638,1.49157 -2.10426,5.16953 -1.85255,9.11092 0.17022,2.66532 -0.32867,4.22263 -0.42312,4.69461 -0.26247,1.31158 0.0756,2.537 1.05292,3.81702 0.48822,0.63939 1.25261,2.07393 1.69865,3.18786 0.97047,2.42364 2.35164,4.71031 4.1477,6.86695 0.72761,0.87368 1.70361,2.08404 2.16891,2.68968 0.46529,0.60565 1.10163,1.43126 1.41408,1.83469 0.31245,0.40344 1.00332,0.9456 1.53526,1.20481 1.10592,0.53889 5.38273,3.04713 6.43073,3.77145 0.38559,0.26649 1.04043,0.55947 1.45521,0.65107 0.41478,0.0916 1.17087,0.32091 1.68019,0.50957 0.50932,0.18866 1.69995,0.43165 2.64583,0.53996 0.94589,0.10832 1.95792,0.29345 2.24896,0.41141 0.95408,0.38668 7.69294,0.27515 9.86688,-0.1633 z m -20.84709,-8.82002 1.71979,-4.52509 3.12503,-9.6e-4 4.14926,-14.81762 c 0.1158,-0.41353 0.98941,1.38494 1.17676,2.91041 0.30104,2.45117 1.30695,4.1336 2.98254,4.98842 1.53608,0.78365 3.19323,0.74137 4.84759,-0.12367 2.21928,-1.16043 2.74424,-2.19244 3.04737,-5.9908 0.0901,-1.12865 0.26323,-1.99062 0.3848,-1.91549 0.25479,0.15747 0.83383,1.73808 1.40503,3.83529 1.59058,5.84 2.99067,10.62557 3.40614,10.61458 l 2.86682,-0.0758 1.89535,4.99202 z m 13.57275,-12.62964 c -1.22372,-0.60341 -1.66616,-1.45482 -1.91663,-3.68821 -0.1219,-1.08702 -0.34263,-2.12323 -0.49051,-2.30268 -0.14788,-0.17945 -1.17453,-2.12881 -2.28146,-4.33193 -1.10693,-2.20311 -2.16263,-4.13017 -2.346,-4.28236 -0.18338,-0.15219 -0.92581,-0.47524 -1.64984,-0.7179 -2.78466,-0.93325 -4.16661,-2.74843 -4.12896,-5.42333 0.0117,-0.82994 0.15018,-1.84812 0.30778,-2.26262 0.2576,-0.67754 2.00822,-3.04699 2.38072,-3.22229 1.39327,-1.29569 3.08899,-2.55824 4.94932,-2.86541 0.0934,0.0934 -0.38567,0.73393 -1.06468,1.4233 -1.38057,1.40166 -3.11227,4.58022 -2.91218,5.34538 0.23555,0.90074 1.05739,1.37922 2.55169,1.4856 l 1.4442,0.10281 3.45106,3.44327 3.45107,3.44326 3.41126,-3.48814 3.41127,-3.48814 1.64504,-0.11899 c 1.95805,-0.14163 2.58292,-0.75681 2.30009,-2.26441 -0.19313,-1.02947 -1.83839,-3.503 -3.41281,-5.13093 -0.59814,-0.61846 -0.95486,-1.12448 -0.79272,-1.12448 0.76273,0 4.90704,2.77459 6.1095,4.09028 1.57396,1.72216 2.05396,3.24799 1.76054,5.59643 -0.25792,2.06436 -1.41821,3.32751 -3.80969,4.14744 l -1.70816,0.58564 -0.98946,1.71979 c -0.5442,0.94589 -0.99592,1.8869 -1.00382,2.09114 l -3.10738,6.43111 c -0.23468,0.4857 -0.37902,0.58003 -0.10373,1.09443 0.4047,0.75618 -0.14489,2.27865 -1.23242,3.41405 -0.58286,0.60853 -0.91616,0.72662 -2.03649,0.72158 -0.73675,-0.003 -1.72072,-0.19397 -2.1866,-0.42369 z m 3.24767,-1.86515 c 0.36056,-0.38906 0.61328,-0.83554 0.56159,-0.99219 -0.12424,-0.37654 -3.62301,-0.52361 -3.97935,-0.16727 -0.19139,0.1914 -0.0425,0.51937 0.4863,1.07133 0.98062,1.02356 2.03515,1.05526 2.93146,0.0881 z m -4.91417,-10.55091 c 0,-0.48695 -1.86758,-2.27037 -2.24896,-2.1476 -0.39359,0.1267 -0.48099,1.74092 -0.11794,2.17837 0.44428,0.53533 2.3669,0.51033 2.3669,-0.0308 z m 9.20877,-0.9787 c 0.0444,-0.69123 -0.03,-1.25677 -0.16518,-1.25677 -0.36112,0 -2.16442,1.70789 -2.16442,2.0499 0,0.34792 0.6715,0.56137 1.5875,0.50462 0.59451,-0.0368 0.66962,-0.16819 0.7421,-1.29775 z m -8.22279,-5.16523 c -1.12437,-1.13101 -2.04431,-2.13099 -2.04431,-2.22218 0,-0.16969 8.51198,0.0335 8.70636,0.20779 0.19703,0.17672 -3.86119,4.07076 -4.24239,4.07076 -0.20644,0 -1.29529,-0.92536 -2.41966,-2.05637 z"
       id="path1"
       sodipodi:nodetypes="sssscccsscsssscsssssssssssssssssssscsssccscccssscsscscsssssscccsssscscscccsssssccccccsscccccssssssscscscscscssscccsscccssccsscss" /></g></svg>
