<?xml version="1.0" encoding="UTF-8" standalone="no"?>
<!-- Created with Inkscape (http://www.inkscape.org/) -->

<svg
   width="22.781551mm"
   height="22.837879mm"
   viewBox="0 0 22.781551 22.837878"
   version="1.1"
   id="svg1"
   xml:space="preserve"
   inkscape:version="1.4 (86a8ad7, 2024-10-11)"
   sodipodi:docname="Motivate.svg"
   xmlns:inkscape="http://www.inkscape.org/namespaces/inkscape"
   xmlns:sodipodi="http://sodipodi.sourceforge.net/DTD/sodipodi-0.dtd"
   xmlns="http://www.w3.org/2000/svg"
   xmlns:svg="http://www.w3.org/2000/svg"><sodipodi:namedview
     id="namedview1"
     pagecolor="#505050"
     bordercolor="#eeeeee"
     borderopacity="1"
     inkscape:showpageshadow="0"
     inkscape:pageopacity="0"
     inkscape:pagecheckerboard="0"
     inkscape:deskcolor="#505050"
     inkscape:document-units="mm"
     inkscape:zoom="3.4671247"
     inkscape:cx="56.819416"
     inkscape:cy="51.627794"
     inkscape:window-width="1920"
     inkscape:window-height="1010"
     inkscape:window-x="4601"
     inkscape:window-y="-6"
     inkscape:window-maximized="1"
     inkscape:current-layer="layer1" /><defs
     id="defs1" /><g
     inkscape:label="Layer 1"
     inkscape:groupmode="layer"
     id="layer1"
     transform="translate(-94.911068,-130.51498)"><path
       id="path7"
       style="fill:#000000"
       d="m 106.33208,130.51498 -3.0484,5.38469 1.88981,0.01 0.0191,1.48673 h 2.43241 v -1.46865 h 1.83141 z m -0.0899,7.58145 c -0.22169,0.008 -0.40804,0.10029 -0.5948,0.25528 -0.29166,0.24207 -0.45032,0.72387 -0.39222,1.46348 0.0148,0.18818 0.0474,0.43169 0.14159,0.54105 0.11966,0.13897 0.24038,0.0532 0.31678,0.19534 0.12857,0.23928 -0.74602,0.49731 -1.22008,0.72244 -0.27565,0.1309 -0.65416,0.19505 -0.89762,0.38033 -0.1937,0.14741 -0.43442,0.38905 -0.52142,0.50798 -0.19598,0.26842 -0.19482,0.74137 -0.19482,1.01803 0,0.27666 -0.23812,0.80564 -0.52916,1.17564 -0.29104,0.37 -0.52917,1.01398 -0.52917,1.43092 0,0.54713 -0.16778,0.73009 0.1664,0.72709 0.25466,-0.002 1.08348,0.003 1.23196,-0.10387 0.14848,-0.10691 0.21124,-0.58943 0.38706,-0.98961 0.17582,-0.40018 0.44151,-0.7276 0.59015,-0.7276 0.14864,0 0.27026,0.17167 0.27026,0.38137 0,0.20969 0.009,0.71799 0.16847,0.81649 0.084,0.052 0.58957,0.0833 0.73019,-0.0155 0.12606,-0.0885 0.15187,-0.31355 0.31729,-0.40205 0.51872,-0.27761 0.75355,-0.27761 1.27227,0 0.34992,0.18729 0.29462,0.51628 0.50798,0.49868 0.22686,0.0364 0.64066,0.12135 0.66766,-0.22324 0.0164,-0.20906 0.14739,-1.05575 0.27854,-1.05575 0.13115,0 0.24471,-0.0977 0.54208,0.41341 0.17067,0.29339 0.10008,0.90284 0.48886,1.33015 0.18274,0.20083 1.17164,0.0816 1.35134,0.0816 0.41858,0 0.23171,-0.33496 0.20051,-0.93689 -0.027,-0.5206 -0.17925,-0.7787 -0.41496,-1.01441 -0.23571,-0.23571 -0.60297,-0.87338 -0.75603,-1.48312 -0.16727,-0.56651 -0.0927,-1.03586 -0.62477,-1.37976 -0.19775,-0.12783 -0.59828,-0.3079 -0.88057,-0.3607 -0.38365,-0.20004 -0.64397,-0.27049 -0.88935,-0.44338 -0.11705,-0.0825 -0.5727,-0.21444 -0.41392,-0.35192 0.10078,-0.0873 0.22035,-0.099 0.30075,-0.22737 0.0841,-0.13444 0.1639,-0.45495 0.1416,-0.72399 -0.0814,-0.98021 -0.0201,-1.08468 -0.61444,-1.35547 -0.2322,-0.10582 -0.42599,-0.1508 -0.59841,-0.1447 z m 6.06578,0.78652 -0.01,1.89032 -1.48673,0.0191 v 2.43241 h 1.46864 v 1.83141 l 5.41259,-3.12487 z m -11.98428,0.0512 -5.412592,3.12487 5.384682,3.04839 0.0103,-1.89032 1.48621,-0.0191 v -2.43241 h -1.46864 z m 4.77645,7.537 v 1.46917 h -1.83141 l 3.12487,5.41258 3.04788,-5.38468 -1.88981,-0.0103 -0.0191,-1.48674 z" /></g></svg>
