<?xml version="1.0" encoding="UTF-8" standalone="no"?>
<!-- Created with Inkscape (http://www.inkscape.org/) -->

<svg
   width="82.694382mm"
   height="82.631531mm"
   viewBox="0 0 82.694378 82.631533"
   version="1.1"
   id="svg1"
   xml:space="preserve"
   inkscape:version="1.4 (86a8ad7, 2024-10-11)"
   sodipodi:docname="MovementAction.svg"
   xmlns:inkscape="http://www.inkscape.org/namespaces/inkscape"
   xmlns:sodipodi="http://sodipodi.sourceforge.net/DTD/sodipodi-0.dtd"
   xmlns="http://www.w3.org/2000/svg"
   xmlns:svg="http://www.w3.org/2000/svg"><sodipodi:namedview
     id="namedview1"
     pagecolor="#505050"
     bordercolor="#eeeeee"
     borderopacity="1"
     inkscape:showpageshadow="0"
     inkscape:pageopacity="0"
     inkscape:pagecheckerboard="0"
     inkscape:deskcolor="#505050"
     inkscape:document-units="mm"
     inkscape:zoom="1.4396184"
     inkscape:cx="103.49965"
     inkscape:cy="134.0633"
     inkscape:window-width="1920"
     inkscape:window-height="1010"
     inkscape:window-x="1529"
     inkscape:window-y="-6"
     inkscape:window-maximized="1"
     inkscape:current-layer="layer1" /><defs
     id="defs1" /><g
     inkscape:label="Layer 1"
     inkscape:groupmode="layer"
     id="layer1"
     transform="translate(-61.886479,-89.925019)"><path
       style="fill:#000000"
       d="m 98.644847,172.31111 c -4.719448,-0.67198 -8.322062,-1.61407 -11.777889,-3.07995 -1.759292,-0.74625 -6.3692,-3.33658 -7.801778,-4.38386 -1.350574,-0.98733 -4.99083,-4.10001 -5.699379,-4.87338 -5.357331,-5.8474 -8.867522,-12.26773 -10.439786,-19.09493 -0.221371,-0.96126 -0.543949,-2.34305 -0.71684,-3.07066 -0.436234,-1.83587 -0.428074,-11.16107 0.01169,-13.36145 1.08489,-5.42829 2.01492,-8.13302 4.366934,-12.7 1.951575,-3.78944 3.917508,-6.41395 7.438333,-9.93014 5.529608,-5.522325 12.069092,-9.24553 19.194753,-10.928385 0.654844,-0.154653 1.845469,-0.436081 2.645834,-0.625396 0.969353,-0.229287 3.398627,-0.342077 7.276041,-0.337824 5.76458,0.0063 6.81149,0.120637 10.71563,1.170067 0.50932,0.136906 1.34276,0.357402 1.85208,0.489991 1.40954,0.366936 5.39567,2.072536 7.33756,3.13962 4.44074,2.440228 8.59337,5.858507 11.84473,9.750107 0.72761,0.87088 1.38424,1.64294 1.45918,1.71571 0.27029,0.26243 2.86548,4.39509 3.5618,5.67192 0.80738,1.48048 2.0623,4.54232 2.82631,6.89578 0.86158,2.65401 1.27885,4.85369 1.65778,8.73912 0.50822,5.21099 -0.0504,10.80851 -1.57033,15.73484 -4.06517,13.17603 -14.5097,23.5948 -27.64619,27.57803 -4.92477,1.49328 -12.04854,2.13981 -16.536466,1.50079 z m 33.125193,-14.66453 c 0.25326,-0.18519 0.36181,-0.49405 0.2636,-0.74999 -0.14942,-0.38939 -0.94229,-0.43513 -7.542,-0.43513 -8.43295,0 -8.25167,0.0416 -10.96673,-2.51354 -0.77316,-0.72761 -1.99669,-1.79513 -2.71895,-2.37228 -0.72226,-0.57715 -1.37273,-1.12012 -1.44549,-1.20659 -0.27404,-0.32571 -3.60429,-2.5458 -4.36562,-2.91032 -1.0841,-0.51906 -2.75442,-1.56968 -3.66515,-2.30535 -0.72574,-0.58624 -1.20558,-0.83047 -4.874538,-2.48102 -1.997877,-0.89879 -3.921479,-2.18619 -4.286982,-2.86914 -0.186884,-0.3492 -0.144633,-1.1432 0.140936,-2.6486 0.339158,-1.78789 0.355518,-2.51531 0.09716,-4.31997 -0.170868,-1.19354 -0.429247,-2.31889 -0.574176,-2.5008 -0.183981,-0.23091 -1.203092,-0.33072 -3.376799,-0.33072 -2.576437,0 -3.209351,0.0798 -3.670354,0.46302 -0.826057,0.6866 -2.442616,3.52155 -2.287236,4.0111 0.07412,0.23354 0.67169,0.98495 1.32793,1.66979 0.656239,0.68485 1.193162,1.34503 1.193162,1.46709 0,0.12205 -1.994297,0.37181 -4.431771,0.55503 -4.216354,0.31694 -5.679524,0.63697 -4.271604,0.93432 1.542392,0.32574 5.973494,0.68923 8.402126,0.68923 1.592369,0 2.720924,0.1127 2.82567,0.28219 0.09592,0.1552 0.129038,0.32754 0.0736,0.38299 -0.05544,0.0554 -1.228225,0.17821 -2.606182,0.27283 -2.992918,0.2055 -4.564035,0.55893 -4.418989,0.99407 0.158791,0.47637 1.756398,0.68856 6.342995,0.84247 3.931644,0.13192 4.264914,0.18515 5.953125,0.95081 5.37072,2.43579 9.367927,4.61753 11.480507,6.26623 1.25612,0.9803 2.61693,2.02707 3.02403,2.32614 1.21101,0.88968 0.66532,1.19833 -1.81797,1.02828 -2.22299,-0.15223 -18.08819,0.50262 -18.342678,0.75711 -0.07783,0.0778 0.106956,0.27448 0.410637,0.43701 0.726393,0.38875 12.256658,0.85679 18.568631,0.75374 4.98314,-0.0814 5.79534,0.051 5.79539,0.94425 1e-5,0.21827 -4.52669,0.29834 -16.867185,0.29834 -12.166321,0 -17.125291,0.0862 -17.793245,0.30931 -0.509323,0.17012 -1.485408,0.38484 -2.169078,0.47717 -0.926434,0.12511 -1.206189,0.26389 -1.098367,0.54486 0.124093,0.32339 4.20624,0.37159 28.702845,0.33896 21.60921,-0.0288 28.66295,-0.11466 28.98875,-0.35289 z m -0.12987,-3.8971 c 0.35568,-0.47294 0.87267,-1.24844 1.14888,-1.72333 0.47118,-0.81011 0.47534,-0.9077 0.0672,-1.58027 -0.74279,-1.22419 -1.91334,-1.65848 -4.44169,-1.64796 -1.45247,0.006 -2.48813,0.14374 -2.91454,0.3875 -0.36381,0.20797 -1.07818,0.38315 -1.5875,0.3893 -0.75981,0.009 -1.04189,0.18127 -1.5714,0.95868 -0.35494,0.52112 -1.15734,1.50257 -1.78311,2.181 -0.62577,0.67844 -1.13904,1.38235 -1.14059,1.56425 -0.002,0.25459 1.32995,0.33073 5.78661,0.33073 h 5.78943 z m -13.40714,-1.17116 c 2.08194,-2.37981 2.75385,-3.34952 2.76175,-3.98581 0.004,-0.33129 -1.39365,-2.64777 -3.16764,-5.24968 -1.74625,-2.56122 -3.175,-4.75904 -3.175,-4.88405 0,-0.125 0.20487,-0.34193 0.45528,-0.48206 0.38354,-0.21465 0.89421,0.3417 3.24114,3.53103 1.53223,2.08221 3.17231,4.33682 3.64462,5.01026 0.87468,1.24714 1.86073,1.84879 2.57854,1.57334 0.64676,-0.24818 0.48293,-0.55668 -1.14371,-2.15368 -1.37632,-1.35122 -4.56086,-5.4575 -5.59009,-7.20807 -1.69369,-2.88074 -3.18578,-5.76361 -3.18578,-6.15525 0,-0.74076 3.5906,-5.78663 6.01073,-8.44687 0.62316,-0.68499 1.13302,-1.41939 1.13302,-1.63201 0,-0.60225 -0.29472,-1.22359 -0.58038,-1.22359 -0.52817,0 -3.71339,3.33908 -4.90781,5.14488 -1.47472,2.22959 -3.24306,5.62878 -3.24306,6.23399 0,0.23837 0.35927,1.09673 0.79838,1.90745 l 0.79838,1.47405 -1.2614,0.90717 c -0.69377,0.49895 -1.85672,1.59149 -2.58432,2.42789 -0.7276,0.83639 -2.23494,2.49274 -3.34963,3.68077 -1.58076,1.68477 -1.97492,2.25682 -1.79135,2.59984 0.12945,0.24188 1.16054,1.1267 2.2913,1.96626 4.62409,3.43328 5.80825,4.37181 6.80598,5.39425 0.57524,0.58948 1.29367,1.07178 1.59651,1.07178 0.3388,0 1.05609,-0.57778 1.86454,-1.50189 z m -13.43355,-9.54447 c 0.48727,-0.5457 1.73639,-2.00421 2.77584,-3.24114 1.03944,-1.23693 2.417,-2.74971 3.06123,-3.36173 1.01891,-0.96797 1.14653,-1.20898 0.98069,-1.85209 -0.60909,-2.36201 -0.50346,-3.13704 0.78328,-5.74718 0.73554,-1.49203 1.15476,-2.64561 1.03303,-2.84259 -0.11269,-0.18233 -0.98593,-1.04852 -1.94055,-1.92488 -0.95461,-0.87635 -3.79483,-3.61757 -6.31159,-6.0916 -2.51677,-2.47403 -4.75542,-4.59867 -4.97479,-4.72144 -0.487563,-0.27285 -1.164898,0.22906 -1.164898,0.8632 0,0.24786 -0.267891,0.69637 -0.595313,0.99668 -0.543533,0.49854 -1.044067,0.56086 -5.754687,0.7165 -5.52102,0.18242 -8.808041,0.58372 -8.650575,1.05611 0.161961,0.48589 2.424431,0.69875 9.497532,0.89358 7.035601,0.1938 7.846491,0.33479 7.099851,1.23443 -0.2563,0.30882 -0.893965,0.40989 -2.621393,0.4155 l -2.282707,0.007 -1.256771,2.21029 c -1.35899,2.39007 -1.552924,3.58554 -0.883766,5.44782 0.320118,0.89089 0.392075,0.93106 1.895776,1.05833 1.174108,0.0994 1.583608,0.24084 1.64574,0.56853 0.0646,0.34069 -0.210424,0.47655 -1.255679,0.62031 -1.540123,0.21182 -1.782915,0.64129 -1.485134,2.62703 0.164132,1.09451 -0.204919,3.38631 -0.973388,6.0447 -0.252294,0.87277 -0.225031,1.04484 0.218754,1.38065 0.278832,0.21099 0.657412,0.38741 0.841287,0.39203 0.183876,0.005 0.541063,0.11359 0.79375,0.24213 0.252687,0.12855 0.757087,0.35977 1.120889,0.51384 2.567978,1.08751 4.843262,2.19867 5.714662,2.7908 0.56252,0.38224 1.19831,0.69498 1.41288,0.69498 0.21457,0 0.78879,-0.44648 1.27605,-0.99219 z m -13.707793,-14.8761 c 0.413299,-0.22119 0.462437,-0.49964 0.345421,-1.95741 -0.09288,-1.15705 -0.0063,-2.08151 0.271327,-2.89621 0.224262,-0.65818 0.342591,-1.26184 0.262953,-1.34148 -0.07964,-0.0796 -1.269689,0.971 -2.644557,2.33474 l -2.499759,2.47954 -2.160905,0.17966 c -3.282968,0.27294 -5.189999,0.95643 -3.549966,1.27231 1.225582,0.23606 9.511897,0.17696 9.975486,-0.0712 z m 24.861073,-4.70306 c 0.59247,-0.69123 1.07798,-1.42216 1.07892,-1.62431 0.004,-0.75567 -7.41877,-8.56467 -10.57422,-11.12514 -2.55602,-2.07407 -3.0868,-2.10239 -4.03249,-0.21514 -1.15631,2.30756 -1.12031,2.5033 0.73902,4.0179 0.81205,0.66149 3.04447,2.67977 4.96094,4.48508 3.79301,3.57298 6.25301,5.71838 6.55695,5.71838 0.10652,0 0.67841,-0.56555 1.27088,-1.25677 z m 9.72578,-8.4584 c 0.39622,-0.49157 0.0545,-1.48652 -1.60526,-4.67335 -1.46007,-2.8035 -3.53786,-5.84104 -6.05503,-8.85195 -1.7306,-2.070051 -1.89534,-2.196576 -2.67137,-2.051769 -0.574,0.107109 -1.09208,-0.0072 -1.69332,-0.373594 -1.27643,-0.777856 -1.70906,-0.66673 -2.30871,0.59302 -0.66684,1.400883 -0.84442,1.442773 -7.54063,1.778543 -2.83765,0.14228 -5.695154,0.40503 -6.349998,0.58386 l -1.190625,0.32517 0.926041,0.211 c 0.509323,0.11606 4.081202,0.28821 7.937502,0.38256 3.8563,0.0944 7.30911,0.28283 7.67292,0.41883 l 0.66145,0.24729 -0.62462,0.50861 c -0.48487,0.39482 -1.04725,0.50952 -2.51354,0.51267 -1.03891,0.002 -2.01995,0.0915 -2.1801,0.19843 -0.44817,0.2992 -1.69319,2.38299 -1.69319,2.8339 0,0.22059 2.78555,3.21139 6.19011,6.64622 l 6.19011,6.24515 3.26874,-2.57451 c 1.79781,-1.41598 3.40859,-2.74801 3.57952,-2.96008 z"
       id="path1" /></g></svg>
