<?xml version="1.0" encoding="UTF-8" standalone="no"?>
<!-- Created with Inkscape (http://www.inkscape.org/) -->

<svg
   width="173.84532mm"
   height="205.95114mm"
   viewBox="0 0 173.84532 205.95114"
   version="1.1"
   id="svg1"
   xml:space="preserve"
   inkscape:version="1.4 (86a8ad7, 2024-10-11)"
   sodipodi:docname="Obol.svg"
   xmlns:inkscape="http://www.inkscape.org/namespaces/inkscape"
   xmlns:sodipodi="http://sodipodi.sourceforge.net/DTD/sodipodi-0.dtd"
   xmlns="http://www.w3.org/2000/svg"
   xmlns:svg="http://www.w3.org/2000/svg"><sodipodi:namedview
     id="namedview1"
     pagecolor="#505050"
     bordercolor="#eeeeee"
     borderopacity="1"
     inkscape:showpageshadow="0"
     inkscape:pageopacity="0"
     inkscape:pagecheckerboard="0"
     inkscape:deskcolor="#505050"
     inkscape:document-units="mm"
     inkscape:zoom="0.25449098"
     inkscape:cx="7.8588246"
     inkscape:cy="412.58829"
     inkscape:window-width="1147"
     inkscape:window-height="1002"
     inkscape:window-x="4602"
     inkscape:window-y="0"
     inkscape:window-maximized="0"
     inkscape:current-layer="layer2" /><defs
     id="defs1" /><g
     inkscape:groupmode="layer"
     id="layer2"
     inkscape:label="Black"
     transform="translate(24.977761,0.14905886)"
     style="display:inline"><path
       style="display:inline;fill:#ffffff;fill-opacity:1;stroke-width:0.264999"
       d="m 100.93098,238.12883 -2.448203,2.48478 5.780913,20.16853 22.81321,-24.50265 c 1.34987,-1.44983 -6.23958,-0.58077 -5.43973,-2.39307 l 4.83995,-10.9664 c 0.81953,-1.85691 3.11882,6.36744 4.03791,4.55774 l 21.19715,-41.73745 c 0.85164,-1.67689 -5.34388,-1.71787 -4.50278,-3.40007 l 5.42172,-10.84343 c 1.98688,-3.97375 10.20823,0.36599 12.95699,-3.12438 1.08024,-1.37169 -0.82875,-3.70118 0,-5.23794 l 13.87594,-25.7302 c 2.17996,-4.0423 -10.93224,5.94363 -13.60026,2.20545 -2.26098,-3.16787 5.34453,-6.40378 5.51362,-10.29208 0.18243,-4.19508 -5.13047,-7.38292 -4.96225,-11.57859 0.20529,-5.12036 3.94537,-9.61565 7.16769,-13.60024 l 17.0922,-21.135525 -44.69479,0.461795 c -2.27298,0.02348 -0.31253,-5.871748 -2.53918,-6.328946 -2.6275,-0.539504 -3.18505,6.624807 -5.69672,5.683364 -4.14023,-1.55187 1.30125,-9.40899 -0.91894,-13.232673 -1.33096,-2.292226 -5.21835,-2.158912 -6.61633,-4.410891 -1.00994,-1.626892 0.27976,-4.073595 -0.73514,-5.6974 -1.47691,-2.36302 -4.21102,-4.318734 -6.98392,-4.594679 -3.74701,-0.372884 -8.17493,1.246356 -10.47586,4.227104 -1.47189,1.906774 0.52938,5.242949 -0.91893,7.167698 -1.48485,1.973315 -5.65399,0.753103 -6.80013,2.940594 -2.17465,4.15047 5.65258,10.100285 2.75681,13.784035 -1.11487,1.418243 -3.76681,0.971994 -5.4074,0.22179 -3.004873,-1.374057 -3.000824,-6.826447 -6.171195,-7.757063 -3.104349,-0.911237 -5.954235,3.08796 -9.189356,3.124382 -4.688576,0.05279 -9.557113,-6.889993 -13.416459,-4.227104 -2.626419,1.812188 2.621379,9.897258 -0.551361,9.55693 L 19.201668,78.22484 c -6.08703,-0.652934 9.463021,12.63294 5.697402,17.459777 -1.62429,2.082043 -9.287827,-2.799705 -7.902847,-0.551361 l 14.151609,22.973394 c 2.867555,4.65512 -1.685995,14.45192 5.770984,17.13644 0.962377,0.34645 -7.559903,-0.14528 -6.886768,0.70938 l 16.921476,21.48462 c 1.848063,2.34642 -2.295735,5.21614 -1.470296,8.08663 1.042706,3.62604 8.11685,2.57763 9.55693,6.06498 0.743115,1.79955 -2.369565,4.0795 -1.286509,5.6974 l 14.886755,22.23824 c 1.568019,2.34235 -1.639538,6.04049 -0.183786,8.45421 1.414953,2.34607 6.119894,1.22843 7.351487,3.67574 0.950803,1.88935 -2.122394,4.39568 -1.102723,6.24877 2.873913,5.22288 10.204995,-0.8567 13.600248,4.04331 z"
       id="path55"
       sodipodi:nodetypes="cccsssssssssssssscsssssssssssssssssssssssssssssssc"
       transform="translate(-41.807486,-54.980058)" /><path
       id="path23"
       style="fill:#000000;fill-opacity:1;stroke-width:0.264999"
       d="m 79.403869,6.8877274 -3.31401,1.7544149 -0.129708,2.8592567 6.043042,4.678268 0.324528,2.274279 2.07946,0.714686 1.23455,-1.104843 0.325045,-2.4691 -4.223515,-3.443717 c 0.129958,-0.45485 -0.195337,-4.0286946 -0.195337,-4.0286946 z m -2.014348,8.3824336 -2.729032,1.949236 -2.599325,-0.779798 -2.534212,1.169438 0.519865,2.664437 5.653402,5.13302 4.678267,-5.13302 0.19482,-3.833875 z m 8.772075,2.923853 -0.84491,2.66392 -2.209167,0.195337 -2.534213,1.42937 -1.949235,3.443718 -2.014347,2.144572 2.923853,3.508829 3.444234,-3.314009 -2.469617,-1.104842 0.779797,-0.779798 4.093807,0.195337 -0.974617,1.62419 1.754415,3.054078 3.50883,-3.31401 -2.729033,-1.364258 0.974618,-1.169954 v -6.627503 z m -48.668864,7.90391 4.227132,6.983553 0.551388,4.77852 3.399792,0.367936 0.183451,2.018482 -3.031856,0.462504 -1.470711,-2.664954 -5.421375,4.227132 2.848405,3.032373 3.675745,-1.929598 5.789311,0.275436 v -3.767729 l -2.331641,0.356051 11.704712,-2.469617 -2.940389,-1.102258 0.183968,-6.708635 -2.297534,-2.113566 -4.502568,0.275952 -3.951697,3.216342 z m 32.488973,3.532084 -2.144055,4.418852 -3.11919,-0.779797 -0.844393,1.169438 -5.913334,-0.974618 -0.38964,2.859257 1.42937,0.324528 c 0,0 -0.909833,1.689819 -0.06511,1.689819 0.844722,0 5.263244,-0.06511 5.263244,-0.06511 l 0.06511,-1.884123 2.599324,0.19482 -0.390157,1.23455 13.840499,1.754415 z m -82.846623,0.603064 -0.183968,1.929598 2.021582,4.503085 1.7461467,-2.389518 1.9704223,0.60048 c 0.7095609,3.252068 1.9027012,7.227964 2.6985433,10.460343 L 7.0429109,47.847501 22.697769,63.22279 35.379166,46.773665 l -8.454265,-7.718909 0.09198,-3.95118 z m 103.012317,1.19476 -1.102775,0.367419 v 2.756938 l -1.194242,1.470194 0.183451,5.513359 -2.205033,0.459403 v -9.281087 l -1.378728,-1.194759 -0.183451,1.562178 h -1.746147 l 0.09198,2.940906 1.286227,1.470195 -0.183452,1.929598 -4.4111,0.735355 0.459404,1.470195 3.124357,0.367419 0.551387,2.389518 1.010791,0.36742 h 4.594552 v -2.20555 l 1.102775,-0.459404 -0.09147,-3.58376 h 1.37821 l 1.470195,-2.57297 -0.275436,-2.297534 z m 9.373071,1.010791 -4.594551,6.340698 v 5.145939 l -1.562179,2.756421 0.09198,1.930115 6.70812,6.616133 5.78931,-8.270296 0.91881,1.470194 -5.69733,8.362281 2.84892,5.605859 13.23279,-0.82734 13.23227,-24.260017 -17.91881,-0.275436 -2.4815,4.961971 -2.29702,0.183968 1.10278,-3.032373 h -7.62744 z m 15.6223,0.734838 -0.55139,2.664954 16.81655,0.183968 0.4594,4.410584 5.60535,-7.259506 z M 63.957783,41.168322 A 41.719677,42.179146 0 0 0 22.238366,83.34766 41.719677,42.179146 0 0 0 63.957783,125.52648 41.719677,42.179146 0 0 0 105.67772,83.34766 41.719677,42.179146 0 0 0 63.957783,41.168322 Z m -68.9198241,5.237923 -6.2492309,0.09199 7.9028767,12.589412 2.57348635,0.183451 2.02158205,6.249231 1.3782104,-0.45992 0.2232422,-0.972034 0.1441773,6.577893 -1.4701945,0.734839 -6.1567302,-0.642855 0.3674195,4.502568 5.0544718,-0.275435 10.2918784,4.502567 -3.3083253,-3.859713 -0.1834514,-1.745629 1.6536459,0.183451 3.9516968,5.421891 8.178312,-11.762589 v -4.043164 l -9.373071,-0.36742 -1.194759,-1.286743 -7.5421756,0.260449 0.6506063,-2.833419 h 8.1783123 l 1.470194,1.929598 3.032373,-0.183451 L 0.6433015,47.692989 -4.2272022,47.509021 Z m 68.6237181,7.625892 c 12.908783,-0.167246 25.88368,5.734174 26.362215,17.129187 0.34888,8.30784 -0.889322,14.513925 -0.02222,17.794779 2.34359,8.867484 2.229946,10.081759 -1.189074,9.906372 -4.146155,-0.212687 -10.885915,1.319445 -12.666927,8.497155 -0.212292,0.85556 -24.087408,1.31711 -24.582479,-0.36742 -1.480312,-5.03688 -5.411717,-8.719314 -11.592574,-8.037751 -5.250838,0.57901 -2.577577,-4.032115 -2.302185,-5.489587 1.368956,-7.244984 0.01677,-13.292533 0.02687,-20.151225 0.214569,-12.878415 13.057591,-19.114265 25.966374,-19.28151 z m 52.909953,13.870471 -2.79415,0.519865 -6.62802,3.89847 2.27428,5.653401 1.88464,-2.599324 0.71469,2.144572 2.14405,-0.519865 z m 5.26324,5.848222 -7.53752,9.032006 -2.01435,-2.664436 -1.81953,0.195337 -0.84439,-1.494483 v 11.761039 l 1.42937,-4.613672 3.18378,-0.325044 0.58498,1.754415 7.27759,-12.020972 z M -0.64344166,84.817854 18.654605,106.13697 l -5.146456,0.4594 -1.74563,2.84892 11.486638,-0.18397 -0.36742,-3.67574 L 3.8596426,85.185274 Z m 5.97327876,0.275436 16.0811889,17.5519 -3.032373,-9.832475 0.09198,-6.249231 z m 121.3135229,5.096846 -18.06401,3.379122 -4.93872,12.346012 7.14789,0.58447 -0.25994,3.37912 6.43269,-0.65009 v -3.83336 l 1.75441,-1.16995 z m -19.58743,21.001304 -8.573122,0.37414 c 0,0 -6.521145,13.91588 -29.884481,17.62114 l -0.780831,-2.3735 -3.124357,0.27544 -0.659908,2.3089 c -20.528602,-0.88534 -27.234643,-8.76324 -27.850497,-8.76845 l -18.53892,-0.15658 15.162382,22.05446 3.124357,-0.18396 -11.39517,-18.10278 1.286743,0.27544 12.773381,18.0113 9.556523,-0.18396 6.61665,-7.16753 0.09198,-4.4111 c 0,0 4.856976,-0.0615 8.806698,-0.0853 l -0.628386,2.19883 0.183968,2.94091 2.205034,3.12435 13.876155,3.3998 -9.189103,-8.54625 -0.995288,-3.02566 25.071338,-0.65009 6.616134,-14.79444 0.55139,0.092 -6.800105,15.34583 0.826823,1.56218 3.124357,-1.74563 h 2.481505 l -2.205553,-1.93011 z m -49.346861,20.76772 10.383862,42.17934 4.595069,0.0915 6.983553,-15.98921 -16.816545,-17.73535 0.09198,-4.22713 z m 18.930111,3.30833 11.211202,11.02723 -5.60586,0.27544 -1.194242,-1.10278 -2.021582,0.73536 1.562178,2.20555 -0.09198,6.06474 7.718909,9.18962 13.876155,-27.93576 -4.04368,-0.092 -6.616134,13.69219 4.870504,-13.96814 z m -18.838127,1.01079 -3.124357,2.20503 -2.940389,15.25437 -2.113566,2.29753 -1.60352,-0.0217 0.19482,-2.01435 1.494483,-1.49448 -0.584978,-4.80849 -6.432682,6.69261 -6.302974,-6.23786 -3.70365,1.62471 6.73809,4.6054 0.183968,2.29753 -2.481502,1.65417 4.686535,0.82682 0.459921,3.03237 1.37821,-1.9296 4.502568,1.74615 0.827339,-2.57297 14.610995,19.9409 2.389001,-4.50308 z m 11.854057,7.2595 7.902877,6.89209 -0.09147,-3.12436 -3.675744,-3.40031 z m -23.065259,2.15956 -10.199894,0.092 5.375899,4.59455 2.389001,-0.27595 2.434994,-2.71043 z m 33.909041,14.84096 -7.076054,14.61099 0.643372,1.65416 1.470195,-0.092 6.800101,-14.79496 z m -11.486637,20.49177 -7.443473,6.61665 3.124357,9.55704 11.578621,-12.6814 z" /></g><g
     inkscape:label="Red"
     inkscape:groupmode="layer"
     id="layer1"
     transform="translate(-16.829724,-54.831)"
     style="display:inline"><path
       id="path3"
       style="display:inline;fill:#700c0c;fill-opacity:1;stroke-width:0.264999"
       d="m 117.44259,73.434005 -1.49448,1.23455 -1.5596,-1.03973 2.66392,3.443718 2.66444,-2.923853 z m -23.898798,11.595158 -2.573486,0.275952 -2.389002,2.848405 -3.767729,-0.918807 -0.459403,2.389002 1.470194,1.562178 2.756938,0.45992 0.735356,1.837614 6.248714,-1.654162 -0.459404,-5.053955 z m 18.895488,3.349666 -0.45475,2.469617 3.70365,0.844393 z m -75.180425,3.11919 1.68982,7.017659 7.017659,0.519865 10.266557,5.588287 7.4073,10.52649 5.328357,-8.31732 5.588289,-4.67827 -6.237862,-5.848219 z m 118.864065,2.169376 -9.37307,16.816545 v 4.50257 l 11.2112,-1.19476 10.29188,-20.124355 z m -15.71377,0.642855 -2.48099,2.113566 -0.55138,6.800614 4.77851,3.58377 4.68654,-6.984074 -0.27543,-2.940389 -4.59507,0.367419 z m -100.810903,9.40356 3.638538,8.05739 9.227344,0.91002 z m 9.746692,15.20527 -0.519865,4.54856 6.237863,6.75773 5.328356,-7.79746 -1.299662,-2.4691 h -6.36757 z m 8.966895,24.43159 -5.717997,0.13022 5.977929,5.97793 z m 105.655566,4.48396 -11.11147,2.20917 -4.35374,9.42165 8.9023,-0.71469 z m -25.99169,26.70587 -14.55519,9.35705 10.78642,0.38964 z m -60.605608,3.11763 -7.167521,0.45941 10.843266,17.36793 8.270813,0.092 6.064746,-6.89208 c 0,0 -0.307525,-2.83606 -0.36742,-2.84892 -13.811153,-2.96495 -17.643884,-8.17832 -17.643884,-8.17832 z m 28.579138,11.21069 1.65416,3.40031 3.03237,1.56218 h 2.94039 l -0.73484,-2.84892 -2.66495,-0.092 -0.91881,-1.83761 z m 17.99115,2.69596 7.79745,8.18761 3.63854,-7.79745 z m -24.699271,3.00137 -2.113567,1.74614 -1.194759,12.222 -3.859712,4.50256 13.140799,17.64389 0.55139,-2.29754 z m 6.892081,5.05447 5.23793,28.48715 7.53494,-14.42755 z m 17.80719,3.90054 v 4.28862 l 2.4691,2.85874 3.37912,-5.97793 z m 7.01766,7.14736 -2.59933,0.39016 -0.7798,0.9095 2.59933,2.20917 z" /></g><path
     id="path22"
     style="display:inline;fill:#700c0c;fill-opacity:1;stroke-width:0.283365"
     d="M 88.935544,44.702187 A 38.779087,39.108444 0 0 0 50.156516,83.810394 38.779087,39.108444 0 0 0 88.935544,122.91912 38.779087,39.108444 0 0 0 127.71457,83.810394 38.779087,39.108444 0 0 0 88.935544,44.702187 Z m -0.296106,9.479008 c 12.908782,-0.167245 25.883672,5.734174 26.362212,17.129187 0.34888,8.30784 -0.88932,14.513926 -0.0222,17.79478 2.34359,8.867484 2.22994,10.081759 -1.18908,9.906372 -4.14615,-0.212687 -10.88591,1.319446 -12.66692,8.497156 -0.21229,0.85556 -24.087407,1.31711 -24.582478,-0.36742 -1.480312,-5.03688 -5.411717,-8.719315 -11.592574,-8.037752 -5.250838,0.57901 -2.577577,-4.032116 -2.302185,-5.489588 1.368956,-7.244984 0.01677,-13.292532 0.02687,-20.151224 0.21455,-12.878415 13.057572,-19.114265 25.966355,-19.281511 z" /><path
     id="path50"
     style="display:inline;fill:#000000;fill-opacity:1;stroke-width:0.264999"
     d="m 88.545387,52.151862 c -13.902037,0.06091 -27.658873,6.136485 -27.699601,18.953882 -0.02327,7.321409 1.539388,15.689789 -1.169438,25.731245 -0.507718,1.882078 0.780155,4.635551 2.729033,4.678781 7.078912,0.15701 11.7826,-0.0433 12.215791,11.04636 0.264606,6.7739 28.148648,7.07505 28.200858,0 0.0866,-11.73946 3.72828,-10.84039 11.69593,-11.04636 1.89801,-0.0491 4.97594,-0.61593 3.89898,-6.497791 C 116.37298,83.854795 117.62116,78.384896 117.11728,69.286216 116.49472,58.04457 102.44742,52.09095 88.545387,52.151862 Z m 0.09405,2.029333 c 12.908783,-0.167245 25.883673,5.734174 26.362213,17.129187 0.34888,8.30784 -0.88932,14.513926 -0.0222,17.79478 2.34359,8.867484 2.22994,10.081759 -1.18908,9.906372 -4.14615,-0.212687 -10.88591,1.319446 -12.66692,8.497156 -0.21229,0.85556 -24.087408,1.31711 -24.582479,-0.36742 -1.480312,-5.03688 -5.411717,-8.719315 -11.592574,-8.037752 -5.250838,0.57901 -2.577577,-4.032116 -2.302185,-5.489588 1.368956,-7.244984 0.01677,-13.292532 0.02687,-20.151224 0.214551,-12.878415 13.057573,-19.114265 25.966355,-19.281511 z" /><g
     id="g53"
     style="display:inline"
     transform="translate(11.928875,7.0367863)"><path
       style="display:inline;fill:#000000;fill-opacity:1;stroke-width:0.264999"
       d="m 56.146968,75.260828 -0.183788,6.892018 c 0,0 0.03142,3.285765 2.756806,4.502785 3.136251,1.400491 9.465039,-0.367576 9.465039,-0.367576 0,0 6.897169,-4.165308 6.897169,-9.939554 0,-2.741757 -4.691725,-2.328235 -4.691725,-2.328235 0,0 -4.433888,-2.980675 -6.857496,-2.954439 -8.48873,0.09189 -7.386005,4.195001 -7.386005,4.195001 z"
       id="path52"
       sodipodi:nodetypes="ccscscsc" /><path
       style="display:inline;fill:#000000;fill-opacity:1;stroke-width:0.266831"
       d="m 98.060134,75.137194 0.186339,6.892018 c 0,0 -0.03186,3.285765 -2.795071,4.502785 -3.179782,1.400491 -9.596415,-0.367576 -9.596415,-0.367576 0,0 -6.992903,-4.165308 -6.992903,-9.939554 0,-2.741757 4.5863,-2.244225 4.5863,-2.244225 0,0 4.665978,-3.064685 7.123226,-3.038449 8.606555,0.09189 7.488524,4.195001 7.488524,4.195001 z"
       id="path52-4"
       sodipodi:nodetypes="ccscscsc" /><path
       style="display:inline;fill:#000000;fill-opacity:1;stroke-width:0.264999"
       d="m 76.999595,82.71771 -5.003349,5.84807 0.06498,4.158628 1.29957,0.844722 1.559486,-0.06498 1.949357,-2.599142 1.884379,2.404205 2.079315,-0.129955 1.169612,-1.494507 v -3.24893 z"
       id="path53"
       sodipodi:nodetypes="ccccccccccc" /></g><g
     id="g54"
     style="display:inline"
     transform="translate(11.928875,7.0367863)"><path
       style="display:inline;fill:#700c0c;fill-opacity:1;stroke-width:0.164005"
       d="m 58.158996,76.096633 -0.102519,4.73243 c 0,0 0.01753,2.256183 1.537778,3.091854 1.749437,0.961653 6.788068,0.191304 6.788068,0.191304 0,0 4.421453,-2.697877 6.094095,-6.292702 1.123664,-2.414968 -3.705739,-1.963017 -3.705739,-1.963017 0,0 -3.255832,-2.644346 -6.491684,-2.640382 -4.138048,0.0051 -4.119999,2.880513 -4.119999,2.880513 z"
       id="path52-6"
       sodipodi:nodetypes="ccscscsc" /><path
       style="display:inline;fill:#700c0c;fill-opacity:1;stroke-width:0.167173"
       d="m 95.893234,76.159003 0.106518,4.73243 c 0,0 -0.01821,2.256183 -1.597758,3.091854 -1.817672,0.961653 -6.917803,-0.06861 -6.917803,-0.06861 0,0 -3.955481,-1.875895 -5.859198,-6.227724 -0.998354,-2.282201 3.575491,-1.806144 3.575491,-1.806144 0,0 3.049992,-2.606283 6.412055,-2.602319 4.299448,0.0051 4.280695,2.880513 4.280695,2.880513 z"
       id="path52-6-6"
       sodipodi:nodetypes="ccscscsc" /><path
       style="display:inline;fill:#700c0c;fill-opacity:1;stroke-width:0.264999"
       d="m 105.22656,147.70447 -1.49451,2.4042 1.29957,-0.25991 0.51983,1.10464 0.45485,-1.16962 1.2346,0.32489 z"
       id="path21"
       transform="translate(-28.7586,-61.867785)" /></g></svg>
