<?xml version="1.0" encoding="UTF-8" standalone="no"?>
<!-- Created with Inkscape (http://www.inkscape.org/) -->

<svg
   width="84.02533mm"
   height="71.046127mm"
   viewBox="0 0 84.025327 71.046127"
   version="1.1"
   id="svg1"
   xml:space="preserve"
   inkscape:version="1.4 (86a8ad7, 2024-10-11)"
   sodipodi:docname="Pain.svg"
   xmlns:inkscape="http://www.inkscape.org/namespaces/inkscape"
   xmlns:sodipodi="http://sodipodi.sourceforge.net/DTD/sodipodi-0.dtd"
   xmlns="http://www.w3.org/2000/svg"
   xmlns:svg="http://www.w3.org/2000/svg"><sodipodi:namedview
     id="namedview1"
     pagecolor="#505050"
     bordercolor="#eeeeee"
     borderopacity="1"
     inkscape:showpageshadow="0"
     inkscape:pageopacity="0"
     inkscape:pagecheckerboard="0"
     inkscape:deskcolor="#505050"
     inkscape:document-units="mm"
     inkscape:zoom="1.0179639"
     inkscape:cx="66.800009"
     inkscape:cy="263.27062"
     inkscape:window-width="1920"
     inkscape:window-height="1010"
     inkscape:window-x="4601"
     inkscape:window-y="-6"
     inkscape:window-maximized="1"
     inkscape:current-layer="layer1" /><defs
     id="defs1" /><g
     inkscape:label="Layer 1"
     inkscape:groupmode="layer"
     id="layer1"
     transform="translate(-59.864055,-128.63711)"><path
       style="fill:#000000"
       d="m 120.78035,199.55949 c -0.93977,-0.0963 -1.91403,-0.53827 -4.1108,-0.95764 -1.62506,-0.31023 -2.70109,-0.86072 -3.21384,-1.03269 l -3.8915,-1.30513 c -0.66088,-0.22165 -7.3741,-2.71556 -7.53939,-3.02443 -0.1875,-0.35035 0.77445,-1.56586 0.49968,-1.47886 -0.2422,0.0767 -1.07184,0.31694 -1.84365,0.53391 l -1.403292,0.39447 -0.228098,-0.59994 c -0.401475,-1.05596 -3.760791,-0.93013 -5.256286,-0.84171 -0.04796,0.003 -3.743291,0.0814 -4.632013,2.80496 -0.289723,1.19653 -2.039757,2.85305 -3.216608,3.04473 -1.935499,0.50984 -3.67801,1.04779 -5.662843,0.34819 -14.975259,-7.41356 -18.537194,-21.63054 -18.537194,-21.63054 l -0.403377,-2.18772 0.792332,-0.63393 c 0.435783,-0.34866 0.996502,-0.63453 1.246044,-0.63525 0.249541,-7.2e-4 0.588842,-0.25381 0.754001,-0.56241 0.154296,-0.2883 -1.146743,-1.13895 -1.687476,-1.31218 -0.714315,-0.22884 -1.769204,-0.71037 -1.769204,-1.3872 0,-0.33134 -0.121141,-0.72358 -0.269201,-0.87164 -0.994147,-1.44461 -0.329895,-6.3146 -0.282557,-8.17101 0.314622,-2.39285 0.27503,-6.03497 1.345446,-8.16941 0.69926,-1.36733 1.025235,-2.40681 1.156474,-3.68778 0.100514,-0.98107 2.774051,-7.78235 2.661574,-8.23049 l 0.761229,-1.57481 c 1.829239,-3.83764 5.37504,-6.8427 9.056617,-7.85441 10.187055,-2.79944 15.422807,2.62384 17.703214,4.383 1.183416,1.15667 2.516973,2.12375 3.718233,3.29504 0.868537,0.86093 3.190964,2.84594 5.513705,2.92115 0.99213,0.0321 1.29505,-0.16549 1.73582,-1.00635 0.2907,-0.55459 0.59344,-1.88455 0.69296,-2.97656 0.0988,-1.08362 0.38238,-2.38693 0.63028,-2.89625 1.0349,-2.60706 0.90006,-3.21319 3.59807,-4.59628 1.96832,-1.00577 2.25965,-1.04467 6.34516,-0.84721 1.30703,0.0632 2.50513,0.008 2.66244,-0.12253 0.26898,-0.22323 1.54918,0.22586 5.27938,1.85199 2.7929,1.21753 3.21161,1.46062 4.40943,2.55998 0.67866,0.62287 1.52428,1.20537 1.87917,1.29444 0.35489,0.0891 0.67044,0.60907 1.01505,0.91853 2.32396,2.08693 3.68357,4.55562 4.87111,6.30521 0.57818,1.0543 0.95436,1.71824 1.55605,2.79471 0.0819,0.14657 -1.56009,1.96911 -1.48034,2.11317 0.0764,0.13797 2.34559,-0.63282 2.41942,-0.49779 0.76404,1.3974 1.1813,2.32225 1.33792,3.03014 0.0503,0.22755 0.16385,0.65858 0.36411,0.94562 0.20026,0.28704 0.5183,1.2129 0.70675,2.05748 0.85119,1.46646 1.23736,2.78681 1.7411,4.20406 0.26383,0.42252 0.33648,0.76842 0.51719,2.46243 0.0776,0.72761 0.30397,1.57312 0.503,1.87891 0.21574,0.33145 0.41343,1.61369 0.48951,3.175 0.0702,1.44046 0.20829,2.9762 0.30689,3.41276 0.25034,1.10836 0.30695,7.30961 0.24329,8.06979 -0.32389,3.86786 -0.93956,8.40104 -0.93956,8.40104 l -0.39363,0.56198 c -0.24968,0.35647 -0.6784,0.56198 -1.17237,0.56198 -0.91914,0 -0.97411,0.3378 -0.24859,1.52775 0.67837,1.11263 0.67455,1.1449 -0.26135,2.20671 -0.43424,0.49266 -0.79216,1.19341 -0.79538,1.55721 -0.0151,1.66236 -3.4618,5.56786 -3.8859,5.67119 -0.4108,0.10009 -1.85013,0.71224 -3.19852,1.36032 -3.43226,1.64969 -2.6677,0.86382 -5.21464,1.6888 l -1.59193,0.51564 -2.00746,0.24098 c -1.39039,0.28434 -1.55452,-0.0171 -3.37565,-0.001 z m -34.518889,-16.41674 4.241971,-10.82794 0.864576,1.23121 c 1.292761,1.84097 3.062071,3.64583 4.495062,2.21283 0.584885,-0.58448 0.740828,-0.98766 0.651932,-1.89128 -0.113264,-1.15132 -1.538471,-3.64558 -1.538471,-3.64558 L 91.3857,161.87518 c -0.20955,-0.48709 -0.569715,-1.232 -0.667243,-1.72291 -0.218565,-1.10016 -1.253729,-3.40611 -1.529035,-3.40611 -0.111166,0 -0.20212,-0.22566 -0.20212,-0.50146 0,-0.8785 -2.038971,-5.34864 -2.667704,-5.84854 -0.09151,-0.0728 -0.252528,-0.60854 -0.357815,-1.19063 -0.115492,-0.6385 -0.449405,-1.26824 -0.841753,-1.5875 -0.41644,-0.33885 -0.459833,-1.24738 -1.056381,-2.09176 l -2.187639,-5.09386 -2.364704,6.65646 4.365449,9.81074 c 1.159913,2.60674 1.319668,3.77887 -0.771039,3.76375 -0.70123,-0.005 -1.669381,-0.14828 -2.0054,-0.0526 l -0.744074,-0.33508 c -0.157522,-0.60236 -1.660682,-0.82618 -1.988592,-0.2961 -0.127176,0.20559 -0.810212,0.34965 -1.74016,0.36703 -0.841948,0.0157 -2.672562,0.0455 -4.068031,0.0661 l -2.537218,0.0375 -0.307053,0.6739 c -0.443955,0.97438 -0.387988,1.68239 0.149297,2.41875 l 0.31851,0.43653 14.257833,-0.13914 c 1.743269,-0.017 2.629024,0.15716 2.629024,0.948 0,0.9166 -0.443968,1.11774 -2.629174,1.19117 l -14.505954,0.049 -0.27335,0.5491 c -1.145299,2.30065 0.0169,3.28849 2.657177,3.12957 0.800365,-0.0482 1.835936,-0.0969 2.30127,-0.10829 0.465334,-0.0114 0.995162,-0.16953 1.177396,-0.35143 0.42688,-0.4261 1.611772,-0.42612 2.037854,-4e-5 0.20911,0.20911 1.225619,0.34711 2.764896,0.37536 1.338815,0.0246 2.601456,-0.0457 3.267453,-0.0233 l 2.620153,-0.10047 -0.741074,1.72388 -5.871574,15.89526 z m 37.051199,3.0993 -6.01494,-14.08095 c -1.03354,-2.41951 0.65854,-4.54348 2.39731,-2.80471 0.28228,0.28227 5.94546,0.20104 6.39801,-0.0918 0.18304,-0.11843 1.30661,-0.21533 2.49683,-0.21533 h 2.16402 c 0.86366,-0.0124 1.4999,-0.51207 1.56757,-1.49912 l -0.054,-1.06136 c -0.30557,-1.25696 -1.41717,-1.28835 -2.40684,-1.28493 -0.71735,0.002 -5.57073,0.20831 -5.9942,0.25422 -0.098,0.0106 -0.56001,0.34064 -1.02675,0.73337 l -0.84861,0.71406 -0.63581,-0.73917 -0.6358,-0.73917 -1.38016,0.0841 c -0.75908,0.0463 -2.12429,-0.0137 -3.0338,-0.13316 l -1.65364,-0.21729 v -0.60794 -0.60794 l 2.05052,-0.13079 c 2.86656,-0.18284 3.51197,-0.19397 9.27304,-0.1599 l 5.10586,0.0302 c 0.39264,0.002 1.0062,-0.40754 1.18381,-0.98996 0.1894,-0.62105 0.17264,-1.29079 -0.15243,-1.76175 -0.35505,-0.35609 -0.95596,-0.78949 -1.53827,-0.80485 -0.6371,-0.0644 -2.64371,-0.11795 -2.64371,-0.11795 l -0.85427,0.29632 -0.53267,-0.33266 c -0.37973,-0.23714 -1.22317,-0.28708 -2.93753,-0.17393 -1.56307,0.10317 -2.66181,0.0523 -3.1389,-0.14531 l -0.73403,-0.30405 -0.85414,0.44169 -0.85413,0.4417 -1.2897,-0.70195 c -0.70934,-0.38607 -1.2897,-0.6204 -1.2897,-0.52074 0,0.0997 -0.17992,0.0319 -0.39981,-0.15061 l -0.39981,-0.33181 6.53011,-17.1944 0.14141,-1.25677 h -0.56524 c -0.31089,0 -1.00699,0.22123 -1.54689,0.49162 -0.53991,0.27039 -1.30402,0.56905 -1.69802,0.66368 -1.14528,0.27507 -1.70817,1.39005 -2.02633,2.2085 l -4.11237,10.57902 c -0.22346,0.53948 -1.13275,2.68905 -1.13275,2.68905 l -0.91817,-1.68759 -0.70614,-1.18595 c -1.40927,-2.36686 -4.65435,0.0583 -3.97208,1.67166 0.15466,0.36571 1.88428,4.20599 2.05799,4.53895 0.57947,1.11072 2.27814,4.27163 2.66302,5.82794 0.25191,1.01864 0.89007,2.63479 1.41814,3.59144 0.52807,0.95664 0.85959,2.34069 1.12838,2.9669 l 4.06772,9.47659 z m -20.52367,-10.7121 c 1.22961,-1.17509 0.80032,-1.86315 -1.31625,-6.87754 l -1.979167,-4.68887 c -0.602936,-1.42842 -2.278232,-4.96568 -2.571576,-5.89446 -0.534112,-1.6911 -1.678908,-3.33465 -2.470254,-3.92578 0,0 -1.487741,-0.71873 -2.58184,0.43644 -1.251083,1.32092 -0.226962,3.55806 0.828869,5.73871 0.539063,1.01887 1.063257,2.23103 1.164874,2.6937 0.101617,0.46266 0.355699,0.98306 0.564626,1.15646 0.208928,0.17339 0.379868,0.51231 0.379868,0.75316 0,0.24084 0.152792,0.67275 0.339537,0.95979 0.186745,0.28704 0.496793,0.99814 0.688996,1.58023 0.192202,0.58208 0.628811,1.47505 0.97024,1.98437 0.34143,0.50932 0.566743,1.37955 0.774839,1.85208 1.463988,3.3243 3.064648,6.27929 5.207248,4.23171 z m 6.35557,0.82286 c 0.33689,-0.13041 1.29178,-0.58399 1.412,-1.16047 0.38019,-1.02309 -0.10236,-1.78921 -0.46382,-2.76243 -0.79155,-2.13119 -1.7699,-4.50162 -2.11361,-5.20281 l -2.58766,-5.27895 c -0.35879,-0.73194 -0.67748,-1.50664 -0.79375,-1.76235 l -2.42665,-5.3367 c -1.17827,-2.59126 -4.85836,-1.175 -3.82757,1.53819 0.194272,0.49742 1.66233,3.80994 1.7563,4.05976 l 1.70423,4.53094 c 1.13783,1.35224 1.46903,3.41241 1.99994,4.49305 l 2.88003,5.8621 c 0.50577,1.02947 1.46701,1.40425 2.46056,1.01967 z"
       id="path1"
       sodipodi:nodetypes="ssssssscsssssccssssssssssssssssccsccsscscsssssscssssscsssscssscccsccscscssscssssccsssscccsscssccscssscscsccccsscccccsccccccccsscssscccsscccssccsccsscsscccssscsscccscsssssssssssscsssssscsssscs" /></g></svg>
