<?xml version="1.0" encoding="UTF-8" standalone="no"?>
<!-- Created with Inkscape (http://www.inkscape.org/) -->

<svg
   width="105.41785mm"
   height="121.39983mm"
   viewBox="0 0 105.41785 121.39983"
   version="1.1"
   id="svg1"
   xml:space="preserve"
   inkscape:version="1.4 (86a8ad7, 2024-10-11)"
   sodipodi:docname="Paradox.svg"
   xmlns:inkscape="http://www.inkscape.org/namespaces/inkscape"
   xmlns:sodipodi="http://sodipodi.sourceforge.net/DTD/sodipodi-0.dtd"
   xmlns="http://www.w3.org/2000/svg"
   xmlns:svg="http://www.w3.org/2000/svg"><sodipodi:namedview
     id="namedview1"
     pagecolor="#505050"
     bordercolor="#eeeeee"
     borderopacity="1"
     inkscape:showpageshadow="0"
     inkscape:pageopacity="0"
     inkscape:pagecheckerboard="0"
     inkscape:deskcolor="#505050"
     inkscape:document-units="mm"
     inkscape:zoom="1.4396184"
     inkscape:cx="188.93896"
     inkscape:cy="229.92204"
     inkscape:window-width="1920"
     inkscape:window-height="1010"
     inkscape:window-x="4601"
     inkscape:window-y="-6"
     inkscape:window-maximized="1"
     inkscape:current-layer="layer1" /><defs
     id="defs1" /><g
     inkscape:label="Layer 1"
     inkscape:groupmode="layer"
     id="layer1"
     transform="translate(-49.254875,-84.628426)"><path
       id="path1"
       style="fill:#000000;fill-opacity:1;stroke-width:0.264999"
       d="m 83.834676,84.628426 -9.952364,5.745903 v 14.114381 l 8.9979,5.19503 V 95.410197 l 62.207058,35.915123 -60.625242,35.002 v 10.47222 l 56.238432,-32.46933 0.0191,0.0134 13.95315,-8.05583 V 125.5267 Z m -25.633061,13.481348 -8.94674,4.627106 v 83.99074 l 8.821683,5.32991 14.455966,-8.34626 v -11.41533 l -13.536642,7.81555 v -71.49331 l 60.361178,35.24074 9.12864,-5.26996 -54.603388,-31.52573 v 0.0997 z M 73.83632,120.47017 v 62.48817 l 0.04599,-0.0263 v 17.39583 l 9.873816,5.70043 70.637554,-40.78252 v -11.59981 l -12.74238,-7.35666 -9.60665,5.54643 13.18783,7.61401 -62.814257,36.26549 V 125.4249 Z" /></g></svg>
