<?xml version="1.0" encoding="UTF-8" standalone="no"?>
<!-- Created with Inkscape (http://www.inkscape.org/) -->

<svg
   width="72.870483mm"
   height="79.288696mm"
   viewBox="0 0 72.870485 79.288695"
   version="1.1"
   id="svg1"
   xml:space="preserve"
   inkscape:version="1.4 (86a8ad7, 2024-10-11)"
   sodipodi:docname="PowerReroll.svg"
   xmlns:inkscape="http://www.inkscape.org/namespaces/inkscape"
   xmlns:sodipodi="http://sodipodi.sourceforge.net/DTD/sodipodi-0.dtd"
   xmlns="http://www.w3.org/2000/svg"
   xmlns:svg="http://www.w3.org/2000/svg"><sodipodi:namedview
     id="namedview1"
     pagecolor="#505050"
     bordercolor="#eeeeee"
     borderopacity="1"
     inkscape:showpageshadow="0"
     inkscape:pageopacity="0"
     inkscape:pagecheckerboard="0"
     inkscape:deskcolor="#505050"
     inkscape:document-units="mm"
     inkscape:zoom="1.0179639"
     inkscape:cx="171.91179"
     inkscape:cy="92.341189"
     inkscape:window-width="1920"
     inkscape:window-height="1010"
     inkscape:window-x="4601"
     inkscape:window-y="-6"
     inkscape:window-maximized="1"
     inkscape:current-layer="layer1" /><defs
     id="defs1" /><g
     inkscape:label="Layer 1"
     inkscape:groupmode="layer"
     id="layer1"
     transform="translate(-63.938447,-43.545402)"><path
       id="path12"
       style="fill:#000000;stroke-width:0.264583"
       d="M 87.017142,43.545402 63.938447,56.767334 87.85275,65.129614 81.493965,59.660181 C 91.5232,59.067434 108.62047,60.116593 118.58679,64.02994 l -24.672395,-0.0026 -11.131103,2.226221 0.191203,0.08475 29.809035,0.945679 6.67814,-2.907833 c 7.605,3.256992 10.39757,8.362861 1.14929,15.94683 16.9594,-1.75442 26.57628,-27.095723 -38.142378,-30.214693 z m 33.053278,22.016227 -6.39754,2.762106 -1.18959,2.070674 0.0894,31.628561 h 0.67024 l 0.21963,-0.28422 5.79034,4.98057 c -17.95219,1.06101 -58.565496,-3.12538 -40.28798,-19.630323 l -0.0036,10.950753 1.382344,2.16731 29.902566,4.19406 0.53279,-0.93018 0.061,-33.063612 -2.32544,-1.930114 -27.253639,-1.213363 c -2.154103,-0.08137 -2.293999,1.198509 -2.290299,2.682007 l -0.0052,16.284277 C 62.772708,88.995128 55.071021,113.22506 118.27828,116.2712 l -4.54856,6.5629 23.07921,-13.22193 -23.17067,-8.10183 6.90035,-8.944674 V 65.734229 Z m -23.245091,6.837826 c -0.01274,1.504046 -0.005,3.02181 -0.0155,4.511869 l -0.179317,0.181384 0.483174,0.277503 c -1.151066,0.357781 -1.054246,0.374951 -1.389062,0.968933 l -0.767912,2.260327 c -0.312244,1.22926 -0.06697,1.013051 0.750859,2.259294 l 0.473872,0.318843 0.148312,0.343649 -2.286166,-0.541569 1.006141,0.791682 c 0.199777,0.111162 0.51104,0.414759 0.58291,1.034563 0.719746,4.039397 0.628932,3.998258 1.012341,6.018754 0.364798,2.000815 0.552131,4.01764 0.139526,6.039424 L 96.08894,93.562504 94.513325,89.370512 c 0,-1.269634 -0.0377,-1.338735 -0.443384,-2.55695 -0.331523,-1.005028 -0.860855,-2.915536 -1.428853,-2.637048 -0.714817,-1.298519 -1.424119,-2.833852 -2.477368,-3.889169 0.900229,0.427826 1.702934,0.823804 2.344043,1.305347 l 0.954464,-2.476851 1.404565,-2.166793 0.463021,-1.166337 -0.135392,-0.310059 c 0.853827,-0.542937 1.013764,-0.967779 1.368908,-2.694926 z" /></g></svg>
