<?xml version="1.0" encoding="UTF-8" standalone="no"?>
<!-- Created with Inkscape (http://www.inkscape.org/) -->

<svg
   width="80.408279mm"
   height="81.75515mm"
   viewBox="0 0 80.408278 81.755152"
   version="1.1"
   id="svg1"
   xml:space="preserve"
   inkscape:version="1.4 (86a8ad7, 2024-10-11)"
   sodipodi:docname="Priority.svg"
   xmlns:inkscape="http://www.inkscape.org/namespaces/inkscape"
   xmlns:sodipodi="http://sodipodi.sourceforge.net/DTD/sodipodi-0.dtd"
   xmlns="http://www.w3.org/2000/svg"
   xmlns:svg="http://www.w3.org/2000/svg"><sodipodi:namedview
     id="namedview1"
     pagecolor="#505050"
     bordercolor="#eeeeee"
     borderopacity="1"
     inkscape:showpageshadow="0"
     inkscape:pageopacity="0"
     inkscape:pagecheckerboard="0"
     inkscape:deskcolor="#505050"
     inkscape:document-units="mm"
     inkscape:zoom="1.4396184"
     inkscape:cx="75.714508"
     inkscape:cy="109.75131"
     inkscape:window-width="1920"
     inkscape:window-height="1010"
     inkscape:window-x="1529"
     inkscape:window-y="-6"
     inkscape:window-maximized="1"
     inkscape:current-layer="layer1" /><defs
     id="defs1" /><g
     inkscape:label="Layer 1"
     inkscape:groupmode="layer"
     id="layer1"
     transform="translate(-63.492658,-83.03745)"><path
       style="fill:#9a2629;stroke:none"
       d="m 103.43643,83.168245 c -1.6421,0.605519 -2.58338,2.460719 -4.257018,3.056799 -2.810826,1.001101 -5.896071,1.04329 -8.73125,2.169748 -9.742574,3.870855 -17.810959,11.075915 -22.251133,20.739168 -1.364076,2.96867 -1.412766,6.41291 -2.238138,9.5248 -0.458792,1.72977 -2.344757,2.62612 -2.459236,4.49811 -0.147127,2.40587 2.070266,4.03467 2.484143,6.35 2.765088,15.46859 13.408762,28.25897 29.226864,31.71918 1.521867,0.33291 3.173337,0.34608 4.497917,1.26167 1.037471,0.71713 2.216871,2.70113 3.679471,2.23467 1.27833,-0.4077 1.73768,-1.974 2.959,-2.47537 1.34431,-0.55186 3.28115,-0.36716 4.73861,-0.67371 3.11215,-0.65456 6.35935,-1.68198 9.26042,-2.98738 9.27135,-4.17187 15.61389,-12.85249 19.31663,-21.93531 0.94585,-2.32017 1.00648,-4.77494 1.62853,-7.14375 0.46368,-1.76568 2.72873,-2.72728 2.6048,-4.7625 -0.11796,-1.93716 -2.00723,-3.41037 -2.43025,-5.29166 -0.81767,-3.63639 -1.42222,-7.40892 -2.99003,-10.84792 -5.22722,-11.465918 -15.10027,-18.748516 -27.12551,-21.758709 -2.33292,-0.583984 -5.48086,-4.574979 -7.91382,-3.677836 M 80.658578,99.873541 c 1.738868,-0.193464 2.808467,-1.459117 4.233334,-2.356349 1.977903,-1.245475 4.283992,-2.330631 6.35,-3.455296 2.677134,-1.457348 5.843159,-1.64579 8.73125,-2.440048 1.526608,-0.419839 2.809098,-1.965626 4.497918,-1.629762 1.56122,0.310495 2.75121,1.465116 4.23333,1.946199 5.50734,1.787625 11.38169,2.433564 15.46853,6.801386 5.27928,5.642249 8.84335,10.309129 11.04676,17.802619 0.50798,1.72756 0.0932,3.58856 0.55632,5.26411 0.37279,1.34865 2.29472,1.69613 2.43842,3.20256 0.15234,1.59703 -2.19351,3.09305 -2.53906,4.7625 -1.14629,5.538 -3.35061,9.88175 -6.47617,14.55208 -1.02774,1.5357 -1.6287,3.17877 -3.03617,4.44912 -5.18648,4.68121 -12.91042,6.64715 -19.57529,7.77724 -1.3797,0.23394 -2.36294,1.77362 -3.69355,1.84106 -1.16507,0.0591 -2.10796,-1.71656 -3.450406,-1.92986 -6.057092,-0.96242 -12.857705,-3.11907 -17.559271,-7.30279 -4.576342,-4.07229 -7.17732,-9.90391 -9.45661,-15.40381 -0.464002,-1.11963 -1.535568,-1.69476 -1.878215,-2.92491 -0.286307,-1.02789 0.239507,-1.9174 0.08431,-2.91022 -0.187222,-1.19773 -1.030651,-2.16533 -1.19777,-3.43856 -0.242652,-1.84869 1.395446,-2.34679 1.847389,-3.96977 1.084325,-3.89396 1.870149,-8.63105 3.85422,-12.17083 1.610976,-2.87415 4.848761,-5.26414 5.520726,-8.466669 m 23.283337,-2.645834 c -2.71867,4.675583 -2.44924,11.982853 -1.8386,17.197913 0.18622,1.59047 0.2434,4.81243 1.57402,5.82084 l 2.35369,-12.43542 -0.83132,-5.55625 -1.25779,-5.027083 M 80.129412,122.09854 c 3.958988,-0.0817 5.387641,-2.19947 8.073465,-4.7625 4.201739,-4.00963 12.546403,-8.95451 12.564033,-15.34583 -3.158683,1.47301 -5.874123,5.68162 -8.225764,8.20208 -3.851765,4.12827 -8.981299,7.4239 -12.411734,11.90625 m 26.458338,-20.10833 c 0.0741,3.59155 2.03017,4.94482 4.30887,7.41874 2.93986,3.19173 5.78074,6.25835 8.92029,9.26042 1.98825,1.90118 3.819,4.27055 6.87917,3.42917 -2.62252,-3.7127 -6.87247,-6.40406 -9.96822,-9.74467 -2.9582,-3.19218 -6.2386,-8.38836 -10.14011,-10.36366 m 0,7.14375 c 4.3e-4,3.95332 3.85856,5.34126 6.23485,8.20208 0.95753,1.15277 1.64845,3.16618 2.82039,4.03694 0.90675,0.67372 2.10635,0.43656 3.11559,0.19639 l -7.93362,-8.46666 -4.23721,-3.96875 m -6.879171,0.79375 c -3.091462,4.38646 -9.608629,7.02006 -11.90625,11.90625 3.586699,0.84362 5.860075,-4.38659 8.466868,-6.40451 1.04575,-0.80952 2.755977,-1.32901 3.544317,-2.38329 0.677346,-0.90584 0.530286,-2.27999 -0.104935,-3.11845 m -24.077084,14.81666 c 2.148268,1.35825 5.19767,1.36543 7.672917,1.60751 5.218266,0.51035 9.884834,0.42398 15.08125,-0.81376 v -0.52916 c -5.51417,-1.54957 -11.080624,-2.41932 -16.66875,-1.64283 -2.315375,0.32173 -4.00974,0.0265 -6.085417,1.37824 m 32.808335,0.52917 c 7.5213,0.61434 15.78847,4.3913 23.01875,0.26458 -1.68656,-1.27483 -4.29994,-1.40687 -6.35,-1.6075 -3.97641,-0.38916 -7.64276,-1.00168 -11.64167,-0.15496 -1.42823,0.30242 -4.20641,0.23182 -5.02708,1.49788 m -27.781252,2.38125 c 0.336139,2.17081 3.260305,4.0709 4.762501,5.55523 3.806635,3.76135 7.401183,7.74175 11.309714,11.38852 1.336995,1.24745 2.408154,3.13352 4.036117,3.95833 -0.35856,-4.112 -2.867491,-5.8653 -5.532566,-8.73125 -4.256507,-4.57732 -8.33558,-10.63353 -14.575766,-12.17083 m 25.400002,20.6375 c 2.47077,-0.6935 4.57178,-4.0342 6.3498,-5.82083 4.65789,-4.68047 9.28737,-10.02601 14.55228,-14.02292 -2.53205,-1.62468 -5.59273,1.88867 -7.14375,3.43958 -4.67726,4.67696 -12.8157,9.40411 -13.75833,16.40417 M 88.596079,128.44854 c 1.54612,3.31547 5.614539,6.66871 8.202083,9.26042 1.08554,1.08729 2.050844,2.49833 3.439588,3.175 0.69098,-3.78042 -3.982461,-5.52234 -6.053777,-8.20209 -0.897491,-1.16111 -1.570455,-3.18498 -2.734029,-4.03693 -0.851236,-0.62327 -1.918649,-0.47221 -2.853865,-0.1964 m 18.256251,11.37708 3.43958,-2.60091 6.13421,-5.73795 2.86163,-3.3028 c -3.84601,0.003 -4.97668,3.79384 -7.74846,5.99416 -1.26116,1.00115 -3.3196,1.75485 -4.26273,3.05148 -0.5389,0.7409 -0.42356,1.73052 -0.42423,2.59602 m -3.43958,-9.525 c -1.38514,5.75135 -2.21644,11.13482 -1.60833,16.93334 0.18896,1.80173 -0.21031,4.90431 1.87291,5.55625 l 1.84167,-13.22917 -1.3125,-9.26042 z"
       id="path2509" /></g></svg>
