<?xml version="1.0" encoding="UTF-8" standalone="no"?>
<!-- Created with Inkscape (http://www.inkscape.org/) -->

<svg
   width="44.979164mm"
   height="44.886082mm"
   viewBox="0 0 44.979163 44.886082"
   version="1.1"
   id="svg1"
   xml:space="preserve"
   inkscape:version="1.4 (86a8ad7, 2024-10-11)"
   sodipodi:docname="Rage.svg"
   xmlns:inkscape="http://www.inkscape.org/namespaces/inkscape"
   xmlns:sodipodi="http://sodipodi.sourceforge.net/DTD/sodipodi-0.dtd"
   xmlns="http://www.w3.org/2000/svg"
   xmlns:svg="http://www.w3.org/2000/svg"><sodipodi:namedview
     id="namedview1"
     pagecolor="#505050"
     bordercolor="#eeeeee"
     borderopacity="1"
     inkscape:showpageshadow="0"
     inkscape:pageopacity="0"
     inkscape:pagecheckerboard="0"
     inkscape:deskcolor="#505050"
     inkscape:document-units="mm"
     inkscape:zoom="0.7198092"
     inkscape:cx="104.19428"
     inkscape:cy="98.63725"
     inkscape:window-width="1920"
     inkscape:window-height="1010"
     inkscape:window-x="1529"
     inkscape:window-y="-6"
     inkscape:window-maximized="1"
     inkscape:current-layer="layer1" /><defs
     id="defs1" /><g
     inkscape:label="Layer 1"
     inkscape:groupmode="layer"
     id="layer1"
     transform="translate(-79.981804,-116.66399)"><path
       style="fill:#1b1b1d;stroke:none"
       d="m 90.035971,154.28956 -10.054167,-0.26458 c 0.02763,10.01504 13.230568,7.14375 20.108336,7.14375 0,-1.67418 0.53929,-4.45295 -0.15965,-5.986 -0.453919,-0.99563 -1.929433,-1.69916 -2.727087,-2.41555 -1.373921,-1.23392 -2.525409,-2.68198 -3.418147,-4.29845 -2.733478,-4.94948 -3.305182,-11.50795 -1.924763,-16.93334 2.879658,-11.31775 18.648627,-11.6635 21.345507,0 1.29569,5.60361 0.86032,12.16617 -2.1234,17.19792 -2.14849,3.6232 -8.6005,6.68013 -6.07031,11.82214 0.65062,1.32224 5.41778,0.61328 6.71951,0.61328 6.07999,0 13.22829,0.95823 13.22917,-7.14375 l -9.78958,0.26458 c 3.20606,-2.95305 5.99766,-5.92776 7.61882,-10.05417 1.15531,-2.94067 1.64146,-6.38944 1.22471,-9.525 -0.49729,-3.74157 -1.28799,-7.26674 -3.68885,-10.31875 -11.40999,-14.50452 -39.285933,-7.4959 -39.285933,11.90625 0,2.27051 0.164412,4.44275 0.887661,6.61459 1.606756,4.82492 4.899114,7.6672 8.108173,11.37708 z"
       id="path1" /></g></svg>
