<?xml version="1.0" encoding="UTF-8" standalone="no"?>
<!-- Created with Inkscape (http://www.inkscape.org/) -->

<svg
   width="78.286179mm"
   height="78.581253mm"
   viewBox="0 0 78.286175 78.581254"
   version="1.1"
   id="svg1"
   xml:space="preserve"
   inkscape:version="1.4 (86a8ad7, 2024-10-11)"
   sodipodi:docname="Reaction.svg"
   xmlns:inkscape="http://www.inkscape.org/namespaces/inkscape"
   xmlns:sodipodi="http://sodipodi.sourceforge.net/DTD/sodipodi-0.dtd"
   xmlns="http://www.w3.org/2000/svg"
   xmlns:svg="http://www.w3.org/2000/svg"><sodipodi:namedview
     id="namedview1"
     pagecolor="#505050"
     bordercolor="#eeeeee"
     borderopacity="1"
     inkscape:showpageshadow="0"
     inkscape:pageopacity="0"
     inkscape:pagecheckerboard="0"
     inkscape:deskcolor="#505050"
     inkscape:document-units="mm"
     inkscape:zoom="1.0179639"
     inkscape:cx="-3.9294124"
     inkscape:cy="147.35297"
     inkscape:window-width="1920"
     inkscape:window-height="1010"
     inkscape:window-x="4601"
     inkscape:window-y="-6"
     inkscape:window-maximized="1"
     inkscape:current-layer="layer9" /><defs
     id="defs1" /><g
     inkscape:groupmode="layer"
     id="layer9"
     inkscape:label="Layer 2"
     style="fill:#ffffff" /><g
     inkscape:label="Layer 1"
     inkscape:groupmode="layer"
     id="layer1"
     transform="translate(-62.035025,-97.11936)"><path
       style="fill:#000000"
       d="M 81.66409,156.43464 C 71.069613,145.83836 62.246744,136.97874 62.057713,136.7466 c -0.299608,-0.36794 2.171806,-2.93637 19.268269,-20.02466 10.786579,-10.78142 19.692638,-19.60258 19.791238,-19.60258 0.2898,0 39.20398,39.00151 39.20398,39.29196 0,0.2932 -38.91829,39.28929 -39.2109,39.28929 -0.10094,0 -8.851733,-8.66968 -19.44621,-19.26597 z m 21.33451,0.5166 c 1.21104,-0.87409 1.73614,-1.84528 1.73614,-3.21105 0,-3.96284 -5.239688,-5.3858 -7.205544,-1.95683 -0.775394,1.35249 -0.753016,2.57471 0.07295,3.98411 0.369936,0.63125 0.697358,1.14952 0.727604,1.15171 0.03025,0.002 0.531242,0.17944 1.113326,0.39389 1.226334,0.45181 2.625524,0.30942 3.555524,-0.36183 z m -0.8353,-11.74386 c 0.14932,-0.1819 0.34543,-1.0451 0.43581,-1.91823 0.0904,-0.87312 0.27549,-2.42093 0.41135,-3.43958 0.13586,-1.01865 0.37571,-2.92365 0.53299,-4.23333 0.15728,-1.30969 0.57896,-4.72259 0.93707,-7.58423 1.03243,-8.25023 0.86367,-10.43968 -0.92039,-11.94086 -1.02791,-0.86493 -2.08293,-1.08516 -3.44348,-0.7188 -2.324897,0.62603 -3.168572,2.51796 -2.814564,6.31162 0.153899,1.64924 0.285778,2.74866 0.949188,7.91299 0.244948,1.90682 1.423189,11.71757 1.71852,14.30945 0.07185,0.63053 0.198116,1.25561 0.280586,1.38906 0.22139,0.3582 1.59864,0.29478 1.91292,-0.0881 z"
       id="path1" /></g></svg>
