<?xml version="1.0" encoding="UTF-8" standalone="no"?>
<!-- Created with Inkscape (http://www.inkscape.org/) -->

<svg
   width="93.133324mm"
   height="82.663528mm"
   viewBox="0 0 93.133324 82.66353"
   version="1.1"
   id="svg1"
   xml:space="preserve"
   inkscape:version="1.4 (86a8ad7, 2024-10-11)"
   sodipodi:docname="RearSpot.svg"
   xmlns:inkscape="http://www.inkscape.org/namespaces/inkscape"
   xmlns:sodipodi="http://sodipodi.sourceforge.net/DTD/sodipodi-0.dtd"
   xmlns="http://www.w3.org/2000/svg"
   xmlns:svg="http://www.w3.org/2000/svg"><sodipodi:namedview
     id="namedview1"
     pagecolor="#505050"
     bordercolor="#eeeeee"
     borderopacity="1"
     inkscape:showpageshadow="0"
     inkscape:pageopacity="0"
     inkscape:pagecheckerboard="0"
     inkscape:deskcolor="#505050"
     inkscape:document-units="mm"
     inkscape:zoom="1.4396184"
     inkscape:cx="125.03313"
     inkscape:cy="143.09347"
     inkscape:window-width="1920"
     inkscape:window-height="1010"
     inkscape:window-x="1529"
     inkscape:window-y="-6"
     inkscape:window-maximized="1"
     inkscape:current-layer="layer1" /><defs
     id="defs1" /><g
     inkscape:label="Layer 1"
     inkscape:groupmode="layer"
     id="layer1"
     transform="translate(-50.669138,-74.265474)"><path
       style="fill:#0e0f0d;stroke:none"
       d="m 79.508728,75.061952 0.792729,7.14375 -0.528146,43.391668 c 1.326797,0 5.755786,0.7012 6.603352,-0.42423 0.621195,-0.82485 -0.164085,-2.60875 -0.22967,-3.54452 -0.228131,-3.25496 -0.288265,-6.52275 -0.288265,-9.78958 0,-1.63415 -0.251342,-3.36781 1.852285,-3.43346 3.907279,-0.12195 6.471814,3.99552 8.772082,6.60846 2.888248,3.28084 6.374435,8.58184 10.542295,10.22973 2.09809,0.82955 4.40829,0.61818 6.61459,0.61818 1.86881,0 3.58371,0.0634 5.29166,-0.79375 v -0.26458 c -6.18184,-0.53972 -10.53612,-5.66878 -14.55596,-9.78958 -2.55105,-2.61512 -5.33371,-5.17368 -7.404453,-8.20209 12.038203,-1.20646 20.199973,-18.074379 11.067383,-27.206962 -7.24021,-7.240191 -19.442957,-5.2602 -28.529882,-4.543036 m 10.583333,1.134895 c 11.609449,-1.493756 18.537919,10.210318 14.432039,20.296355 -2.42462,5.956038 -8.552194,9.150068 -14.696623,9.744668 -0.929004,0.0899 -3.305111,0.45588 -3.809101,-0.56836 -0.835846,-1.69866 -0.159648,-5.17635 -0.159648,-7.059641 0,-4.22687 0.125347,-8.475396 -0.0094,-12.700001 -0.07236,-2.268773 -0.532739,-5.562079 0.446686,-7.668831 0.687103,-1.477962 2.31378,-1.853472 3.796038,-2.04419 m 5.291666,53.898443 c -2.7807,3.82466 -4.978931,8.37008 -8.466868,11.61778 -2.597128,2.41825 -5.88301,4.08173 -8.995631,5.7259 -8.208617,4.33602 -17.847561,8.05632 -27.252081,8.05632 v 0.79375 c 9.680743,0 19.402072,0.26458 29.104164,0.26458 2.691886,0 8.550092,1.09763 10.801981,-0.46098 5.474217,-3.78891 5.337602,-9.58584 5.337602,-15.41402 0,-2.63731 1.073658,-8.46769 -0.529167,-10.58333 m 3.175,0.26458 c -0.669553,2.26519 -0.264583,5.05325 -0.264583,7.40833 0,3.35679 -0.798902,7.8947 0.171694,11.1125 0.480668,1.59355 1.857971,2.92938 2.837531,4.23334 0.79457,1.05769 1.60187,2.54535 2.81549,3.16765 1.44739,0.74216 3.95906,0.27193 5.55237,0.27193 h 13.22916 15.875 c 1.48499,0 4.46107,0.64704 5.02708,-1.05833 -8.63277,0 -17.15771,-3.15905 -24.87083,-6.80036 -3.98254,-1.88014 -8.17614,-4.02065 -11.50468,-6.95145 -2.34026,-2.06062 -4.09744,-5.07671 -5.77469,-7.67944 -0.88648,-1.37562 -1.57367,-2.96146 -3.093542,-3.70417 z"
       id="path2509" /></g></svg>
