<?xml version="1.0" encoding="UTF-8" standalone="no"?>
<!-- Created with Inkscape (http://www.inkscape.org/) -->

<svg
   width="67.249344mm"
   height="99.128395mm"
   viewBox="0 0 67.249343 99.128397"
   version="1.1"
   id="svg1"
   xml:space="preserve"
   sodipodi:docname="Refugees.svg"
   inkscape:version="1.4 (86a8ad7, 2024-10-11)"
   xmlns:inkscape="http://www.inkscape.org/namespaces/inkscape"
   xmlns:sodipodi="http://sodipodi.sourceforge.net/DTD/sodipodi-0.dtd"
   xmlns="http://www.w3.org/2000/svg"
   xmlns:svg="http://www.w3.org/2000/svg"><sodipodi:namedview
     id="namedview1"
     pagecolor="#505050"
     bordercolor="#eeeeee"
     borderopacity="1"
     inkscape:showpageshadow="0"
     inkscape:pageopacity="0"
     inkscape:pagecheckerboard="0"
     inkscape:deskcolor="#505050"
     inkscape:document-units="mm"
     inkscape:zoom="0.7198092"
     inkscape:cx="241.0361"
     inkscape:cy="226.4489"
     inkscape:window-width="1920"
     inkscape:window-height="1010"
     inkscape:window-x="4601"
     inkscape:window-y="-6"
     inkscape:window-maximized="1"
     inkscape:current-layer="layer1"
     showguides="false" /><defs
     id="defs1"><inkscape:path-effect
       effect="spiro"
       id="path-effect2"
       is_visible="true"
       lpeversion="1" /><inkscape:path-effect
       effect="spiro"
       id="path-effect2-1"
       is_visible="true"
       lpeversion="1" /><inkscape:path-effect
       effect="spiro"
       id="path-effect2-1-6"
       is_visible="true"
       lpeversion="1" /><inkscape:path-effect
       effect="spiro"
       id="path-effect2-14"
       is_visible="true"
       lpeversion="1" /></defs><g
     inkscape:label="Layer 1"
     inkscape:groupmode="layer"
     id="layer1"
     transform="translate(-77.158024,-73.272064)"><path
       style="fill:#000000;fill-opacity:1"
       d="m 110.13148,171.37821 c 0,-0.56223 0.55086,-0.9507 1.22414,-0.86328 2.70513,0.35128 3.6042,-0.22119 5.71747,-3.64054 l 2.2048,-3.56744 -4.35167,-4.11159 c -2.39341,-2.26138 -5.00222,-4.32839 -5.79734,-4.59336 l -1.44568,-0.48178 -0.48965,-7.99851 -0.48966,-7.99851 1.078,6.9e-4 c 1.78941,0.001 7.2469,2.10521 7.23554,2.78959 -0.006,0.35127 -0.6612,2.78319 -1.45639,5.40427 -1.4953,4.92879 -1.2814,6.49648 0.8864,6.49648 h 1.26244 l 1.81436,4.02353 1.81435,4.02352 2.25162,1.47532 2.25162,1.47532 v 1.54757 c 0,0.85117 -1.18417,2.78359 -2.63149,4.29427 l -2.6315,2.7467 h -4.22368 -4.22368 z m -21.561922,-5.36386 -1.202055,-1.44838 h -2.70953 -2.70953 l -2.311941,-1.92604 -2.311942,-1.92605 2.20345,-0.0326 2.203449,-0.0326 -0.01488,-3.18276 c -0.02881,-6.1621 -2.204154,-35.33112 -3.299733,-45.45747 -0.180085,-1.66451 -0.09196,-4.03544 -0.27759,-4.45787 l -0.981232,-2.23297 0.444766,-6.106385 0.444766,-6.106384 0.862642,0.533142 c 0.474453,0.293228 0.862641,2.436278 0.862641,4.762334 v 4.229193 l 1.253642,1.04043 c 0.689502,0.57224 3.43961,1.40691 6.111351,1.85483 l 4.857709,0.8144 0.336995,1.74988 c 0.185347,0.96243 0.09642,2.3768 -0.197623,3.14306 l -0.534617,1.39319 -4.609626,-1.97592 -4.609627,-1.97592 -0.79945,1.26001 c -0.439698,0.693 -0.806199,1.9379 -0.814447,2.76644 -0.03757,3.77429 3.047174,47.42014 3.374645,47.74761 0.202697,0.20269 1.887365,-0.35219 3.743706,-1.23308 l 3.375166,-1.60163 0.578562,-5.58207 c 0.31821,-3.07014 0.331393,-8.00586 0.0293,-10.96828 l -0.549266,-5.38621 2.498985,-2.32535 2.498984,-2.32535 1.750717,1.75071 1.750717,1.75072 -0.289935,2.53326 c -0.159465,1.39329 -1.387047,7.38085 -2.727961,13.30568 -0.743085,3.28332 -1.749351,5.93911 -2.295337,8.39079 -0.439258,1.97243 -0.483351,4.02343 -0.594023,4.55681 l -0.451335,2.17518 -1.844226,0.987 -1.844226,0.987 z m 31.069372,-27.2664 -0.71745,-1.8249 -1.94575,0.50882 -1.94574,0.50882 -0.54843,-0.88737 c -0.30164,-0.48806 -1.74643,-0.88737 -3.21066,-0.88737 -1.46423,0 -3.64245,-0.68657 -4.84048,-1.5257 l -2.17824,-1.5257 -0.9776,0.60418 -0.97759,0.60419 v -1.03711 c 0,-0.57041 -0.33052,-0.92693 -0.73448,-0.79228 -0.40397,0.13466 -1.771289,-0.79197 -3.038493,-2.05918 l -2.304007,-2.30401 3.528146,-3.61315 c 1.940484,-1.98723 3.528144,-4.00685 3.528144,-4.48805 0,-0.48119 -0.95656,-1.89312 -2.1257,-3.13761 -1.169136,-1.24449 -1.940344,-2.40319 -1.713794,-2.57489 0.226549,-0.1717 1.954324,-1.30592 3.839494,-2.52049 l 3.42759,-2.20831 -2.99369,0.36065 -2.99368,0.36065 0.80545,-5.88958 c 0.443,-3.23927 1.23929,-6.323429 1.76955,-6.853682 0.53025,-0.530253 0.96409,-2.198029 0.96409,-3.706168 v -2.742071 h -1.34905 c -2.19331,0 -3.557703,2.409935 -3.805179,6.721102 -0.127588,2.222649 -0.59922,4.043459 -1.048071,4.046249 -0.448851,0.003 -0.635652,0.54639 -0.415114,1.20801 0.220538,0.66161 -0.06361,1.70028 -0.63144,2.30814 l -2.396968,4.12671 0.133722,-6.55378 c 0.04197,-2.0569 -1.237464,-4.905762 -1.245573,-6.584454 -0.01464,-3.030535 -3.831404,-13.533487 -4.628422,-12.736469 -0.22887,0.22887 0.250797,2.661903 1.065925,5.406739 l 1.482053,4.990613 -2.761981,-1.428276 -2.761981,-1.428276 V 88.59614 85.998333 l -1.136423,-0.702349 c -0.625034,-0.386291 -1.392657,-2.281327 -1.705831,-4.21119 l -0.569407,-3.508842 2.841396,-1.469343 c 1.562767,-0.808139 4.478755,-1.776513 6.479972,-2.151944 l 3.638576,-0.682601 3.553887,0.666713 3.553889,0.666714 -3.309061,2.830064 c -1.819983,1.556535 -2.846335,2.847973 -2.280783,2.869863 0.565552,0.02189 1.612191,-0.511062 2.325864,-1.184339 l 1.29759,-1.224138 0.41419,1.120177 0.4142,1.120177 1.64925,-1.058578 1.97415,0.111037 2.30342,1.455072 c 1.26688,0.80029 3.29497,1.751001 4.50686,2.112692 l 2.20345,0.65762 v -1.377766 -1.377766 l 2.56081,-1.166782 2.56081,-1.166783 1.92908,0.612267 1.92908,0.612267 -0.65224,2.598764 c -0.35874,1.42932 -0.7266,2.666983 -0.81748,2.750362 -0.67191,0.616493 -5.29953,0.62329 -6.28592,0.0092 l -1.22414,-0.762064 v 1.037107 c 0,0.570409 -0.66103,1.037107 -1.46896,1.037107 -0.80793,0 -1.46897,0.418698 -1.46897,0.93044 v 0.93044 l 5.61338,0.293699 5.61338,0.293699 3.37096,6.113375 c 3.69024,6.692426 4.91683,7.560186 2.49571,1.765627 -0.84656,-2.026091 -1.35648,-3.866516 -1.13316,-4.089835 0.22332,-0.223318 2.2099,1.344562 4.41463,3.484178 l 4.0086,3.89021 -0.58085,-1.664533 c -0.31946,-0.915494 -2.06038,-3.610421 -3.8687,-5.988728 -1.80832,-2.378306 -3.14604,-4.466005 -2.97272,-4.63933 0.5208,-0.5208 11.46729,3.550837 13.9897,5.203582 l 2.34565,1.536926 -0.0426,5.518408 c -0.0235,3.035131 -0.49127,7.501511 -1.03957,9.925311 -0.5483,2.42379 -1.23432,5.57895 -1.52447,7.01145 l -0.52756,2.60456 -1.71454,0.44836 -1.71454,0.44836 -0.79141,4.29192 -0.79141,4.29191 -0.69456,-3.42758 c -0.38201,-1.88518 -0.75933,-2.9869 -0.83848,-2.44828 l -0.14392,0.97931 -0.71948,-1.00193 c -0.39572,-0.55106 -1.92642,-1.76986 -3.40155,-2.70844 l -2.68205,-1.70651 -3.03232,-5.12605 -3.03232,-5.12605 0.57247,3.91725 c 0.31486,2.15448 0.82843,4.84757 1.14128,5.98463 l 0.56882,2.06739 -4.42488,1.1142 -4.42487,1.11419 -2.57269,-0.97813 c -1.41498,-0.53798 -3.42539,-0.97814 -4.46757,-0.97814 h -1.89486 v 1.3369 c 0,0.73529 0.91336,2.49805 2.0297,3.91724 l 2.0297,2.58035 2.13237,-0.031 2.13237,-0.031 -2.69311,-2.00928 c -1.4812,-1.1051 -2.6931,-2.42872 -2.6931,-2.94136 v -0.93209 l 1.89424,1.01377 1.89424,1.01376 h 6.04502 6.04503 l -0.55912,1.45704 c -0.30752,0.80138 -0.85213,3.66586 -1.21025,6.36553 -0.35813,2.69966 -1.00274,4.90848 -1.43248,4.90848 -0.42973,0 -0.93684,0.77121 -1.1269,1.71379 l -0.34557,1.7138 z"
       id="path28"
       sodipodi:nodetypes="ssscsscccccsscccccsscccsccccccccssscccsscsscsscccsssscsscccccssssccccccccssscccssscssssscccssscsscsscsssscccccsscsscccssscccccsscccccccssscssscccsssscssssccsscccccsscsscccsscccsscsscccsscccccsssscc" /></g></svg>
