<?xml version="1.0" encoding="UTF-8" standalone="no"?>
<!-- Created with Inkscape (http://www.inkscape.org/) -->

<svg
   width="65.433517mm"
   height="86.115662mm"
   viewBox="0 0 65.433519 86.115661"
   version="1.1"
   id="svg1"
   xml:space="preserve"
   inkscape:version="1.4 (86a8ad7, 2024-10-11)"
   sodipodi:docname="ReturnRandomToDeck.svg"
   xmlns:inkscape="http://www.inkscape.org/namespaces/inkscape"
   xmlns:sodipodi="http://sodipodi.sourceforge.net/DTD/sodipodi-0.dtd"
   xmlns="http://www.w3.org/2000/svg"
   xmlns:svg="http://www.w3.org/2000/svg"><sodipodi:namedview
     id="namedview1"
     pagecolor="#505050"
     bordercolor="#eeeeee"
     borderopacity="1"
     inkscape:showpageshadow="0"
     inkscape:pageopacity="0"
     inkscape:pagecheckerboard="0"
     inkscape:deskcolor="#505050"
     inkscape:document-units="mm"
     inkscape:zoom="1.4396184"
     inkscape:cx="112.52982"
     inkscape:cy="55.570282"
     inkscape:window-width="1536"
     inkscape:window-height="890"
     inkscape:window-x="-6"
     inkscape:window-y="-6"
     inkscape:window-maximized="1"
     inkscape:current-layer="layer1"
     showgrid="false" /><defs
     id="defs1" /><g
     inkscape:label="Layer 1"
     inkscape:groupmode="layer"
     id="layer1"
     transform="translate(-71.684872,-55.445139)"><path
       d="m 71.967025,106.11645 -0.282153,2.42001 20.107817,32.67966 2.481502,0.34468 22.513359,-13.18679 0.0465,-2.20504 -22.614636,13.23279 -2.166793,-0.19069 z"
       style="stroke-width:0.264583"
       id="path6" /><path
       d="m 72.288453,102.55853 -0.1726,2.18126 19.766236,31.73708 2.43551,0.29869 22.651331,-12.58941 0.046,-2.4815 -22.605854,12.6354 -2.434993,-0.32194 z"
       style="stroke-width:0.264583"
       id="path5" /><path
       d="m 73.550391,96.323249 -1.292944,2.488221 0.701249,2.15439 18.729606,30.24312 2.868559,0.59221 22.390879,-12.01012 0.0176,-2.95434 -3.85248,-4.10363 -19.305794,10.573 -2.741435,-0.63149 z"
       style="stroke-width:0.264583"
       id="path4" /><path
       id="path3"
       style="stroke-width:0.264583"
       d="m 90.489926,74.817585 -17.121953,10.626225 -1.547709,2.225704 0.826306,2.676839 18.729607,30.242597 2.868558,0.59273 22.845635,-12.07523 0.0827,-2.95434 -7.1232,-11.638105 -14.045668,18.389165 c -1.085223,1.82685 -1.732657,0.85186 -2.396753,-0.0165 l -16.804471,-22.452 c -0.365048,-1.562382 1.553988,-3.197659 3.265918,-2.86633 l 7.719451,5.443334 c 1.041921,-1.574404 1.47089,-3.834109 2.253074,-8.17904 1.211074,-6.656934 1.239084,-8.259982 0.988098,-9.068677 z m 15.955254,14.109723 -8.32988,-14.03996 1.189094,8.51556 c 0.377619,3.586967 0.490705,6.469839 1.994446,9.623683 z"
       sodipodi:nodetypes="cccccccccccccccccccccc" /><path
       d="m 94.757882,110.04478 c -0.45509,0.0258 -0.90044,-0.38107 -1.530656,-1.23248 -4.710897,-6.36437 -10.378643,-13.810483 -13.450341,-18.16117 -0.753509,-1.067254 -0.203938,-1.333237 0.811836,-0.325045 2.147249,2.131219 9.250947,8.211217 9.250947,8.211217 3.660579,-10.440472 2.700123,-30.348465 4.232468,-42.032412 l 1.087272,0.005 c 1.529551,11.352096 0.21994,29.834836 4.05183,41.675419 0,0 8.722132,-7.227661 10.699212,-9.061384 0.97744,-0.906568 1.3968,-0.278345 0.73122,0.519865 -5.08237,6.094921 -10.878575,14.54942 -14.295254,19.0388 -0.668393,0.87824 -1.133444,1.33641 -1.588534,1.36219 z"
       style="fill:#000000;stroke-width:0.265;stroke-dasharray:none"
       id="path1"
       sodipodi:nodetypes="ccssccccscsc" /><path
       id="path7"
       style="fill:#000000;stroke-width:0.179186"
       d="m 128.51211,56.685477 c -5.02628,-2.405179 -10.70314,-1.213752 -12.95874,2.719723 l 4.00215,1.924991 c 1.42168,-2.07685 4.57005,-2.638758 7.35383,-1.312482 3.05249,1.468295 4.55924,4.670439 3.36542,7.152172 -0.96902,1.983265 -3.42811,2.950295 -6.04473,2.377067 l -4.01809,-0.533823 -4.26202,8.860968 4.65765,2.240277 3.36422,-6.994395 c 4.48803,0.951356 8.68439,-0.730843 10.32615,-4.139455 2.05203,-4.266378 -0.53837,-9.771029 -5.78584,-12.295043 z m -10.96598,24.070178 a 2.9632,2.4091676 25.687019 0 0 -3.71453,0.886897 2.9632,2.4091676 25.687019 0 0 1.62599,3.455285 2.9632,2.4091676 25.687019 0 0 3.71475,-0.886449 2.9632,2.4091676 25.687019 0 0 -1.62621,-3.455733 z" /><path
       id="path7-8"
       style="fill:#000000;stroke-width:0.120823"
       d="m 135.35559,79.506962 c -2.31951,-2.955758 -6.10698,-3.931899 -8.64578,-2.228256 l 1.84395,2.35948 c 1.47994,-0.830568 3.55091,-0.229451 4.83731,1.404065 1.40636,1.799647 1.36031,4.185468 -0.10289,5.328854 -1.17836,0.909256 -2.95375,0.758986 -4.36412,-0.36939 l -2.26928,-1.523329 -5.224,4.082592 2.14596,2.745928 4.12357,-3.222585 c 2.42857,1.916137 5.46778,2.153232 7.4787,0.583427 2.51522,-1.965703 2.59428,-6.0671 0.17658,-9.160786 z m -13.821,11.272781 a 1.9980522,1.6244744 51.992161 0 0 -2.51032,-0.573853 1.9980522,1.6244744 51.992161 0 0 -0.0496,2.574465 1.9980522,1.6244744 51.992161 0 0 2.5103,0.574185 1.9980522,1.6244744 51.992161 0 0 0.0496,-2.574797 z" /><path
       id="path7-8-1"
       style="fill:#000000;stroke-width:0.120823"
       d="m 109.21556,60.742732 c 3.75707,-0.03299 6.88393,2.31658 7.13778,5.363457 l -2.99437,0.0323 c -0.27496,-1.674652 -2.03735,-2.91734 -4.11651,-2.902617 -2.28386,0.02469 -4.11901,1.549979 -4.09888,3.406821 0.0252,1.488173 1.25088,2.781373 3.0128,3.178835 l 2.60665,0.821928 0.0715,6.629678 -3.48481,0.0376 -0.0565,-5.233137 c -3.01295,-0.701175 -5.09536,-2.92752 -5.12425,-5.478449 -0.0344,-3.192041 3.12042,-5.814035 7.04653,-5.85642 z m -0.17919,17.834336 a 1.6244744,1.9980522 89.381877 0 1 2.01534,1.60294 1.6244744,1.9980522 89.381877 0 1 -1.98029,1.645835 1.6244744,1.9980522 89.381877 0 1 -2.0156,-1.602722 1.6244744,1.9980522 89.381877 0 1 1.98055,-1.646053 z" /></g></svg>
