<?xml version="1.0" encoding="UTF-8" standalone="no"?>
<!-- Created with Inkscape (http://www.inkscape.org/) -->

<svg
   width="66.221245mm"
   height="73.528mm"
   viewBox="0 0 66.221244 73.527999"
   version="1.1"
   id="svg1"
   xml:space="preserve"
   inkscape:version="1.4.3 (0d15f75, 2025-12-25)"
   sodipodi:docname="ReturnAllToDeck.svg"
   xmlns:inkscape="http://www.inkscape.org/namespaces/inkscape"
   xmlns:sodipodi="http://sodipodi.sourceforge.net/DTD/sodipodi-0.dtd"
   xmlns="http://www.w3.org/2000/svg"
   xmlns:svg="http://www.w3.org/2000/svg"><sodipodi:namedview
     id="namedview1"
     pagecolor="#505050"
     bordercolor="#eeeeee"
     borderopacity="1"
     inkscape:showpageshadow="0"
     inkscape:pageopacity="0"
     inkscape:pagecheckerboard="0"
     inkscape:deskcolor="#505050"
     inkscape:document-units="mm"
     inkscape:zoom="0.50898198"
     inkscape:cx="-272.1118"
     inkscape:cy="260.32356"
     inkscape:window-width="1920"
     inkscape:window-height="1057"
     inkscape:window-x="-8"
     inkscape:window-y="-8"
     inkscape:window-maximized="1"
     inkscape:current-layer="layer1" /><defs
     id="defs1" /><g
     inkscape:label="Layer 1"
     inkscape:groupmode="layer"
     id="layer1"
     transform="translate(-63.182745,-68.032798)"><path
       d="m 71.967025,106.11645 -0.282153,2.42001 20.107817,32.67966 2.481502,0.34468 22.513359,-13.18679 0.0465,-2.20504 -22.614636,13.23279 -2.166793,-0.19069 z"
       style="stroke-width:0.264583"
       id="path6" /><path
       d="m 72.288453,102.55853 -0.1726,2.18126 19.766236,31.73708 2.43551,0.29869 22.651331,-12.58941 0.046,-2.4815 -22.605854,12.6354 -2.434993,-0.32194 z"
       style="stroke-width:0.264583"
       id="path5" /><path
       d="m 73.550391,96.323249 -1.292944,2.488221 0.701249,2.15439 18.729606,30.24312 2.868559,0.59221 22.390879,-12.01012 0.0176,-2.95434 -3.85248,-4.10363 -19.305794,10.573 -2.741435,-0.63149 z"
       style="stroke-width:0.264583"
       id="path4" /><path
       id="path3"
       style="stroke-width:0.264583"
       d="m 73.595398,85.346342 -1.775134,2.323172 0.826306,2.676839 18.729607,30.242597 2.868558,0.59273 22.845635,-12.07523 0.0827,-2.95434 -9.00702,-14.440859 -11.518593,15.724249 c -1.085223,1.82685 -1.732657,0.85186 -2.396753,-0.0165 L 83.009075,92.1563 83.05174,88.757612 78.682172,85.459959 75.191405,84.452518 Z"
       sodipodi:nodetypes="ccccccccccccccc" /><path
       d="m 95.624789,103.67727 c -0.300575,0.017 -0.594717,-0.25168 -1.010958,-0.81402 -3.111424,-4.203498 -6.854822,-9.121461 -8.883598,-11.994975 -0.497673,-0.704894 -0.134695,-0.880568 0.536197,-0.214684 1.418201,1.407614 6.110008,5.423294 6.110008,5.423294 2.417716,-6.895659 1.78336,-20.044366 2.795434,-27.761307 l 0.718115,0.0033 c 1.010228,7.497762 0.145264,19.705128 2.676127,27.525522 0,0 5.760736,-4.77368 7.066546,-5.984806 0.64558,-0.598765 0.92255,-0.18384 0.48295,0.343357 -3.35677,4.025536 -7.185009,9.609511 -9.441636,12.574629 -0.441456,0.58005 -0.74861,0.88266 -1.049185,0.89969 z"
       style="fill:#000000;stroke-width:0.175026;stroke-dasharray:none"
       id="path1"
       sodipodi:nodetypes="ccssccccscsc" /><path
       d="m 101.6053,90.72319 c -0.20623,-0.06381 -0.33658,-0.318032 -0.47546,-0.800105 -1.03808,-3.60353 -2.321916,-7.845375 -2.965581,-10.284164 -0.157893,-0.598253 0.129988,-0.625403 0.414044,-0.01 0.600461,1.300927 2.747477,5.173983 2.747477,5.173983 3.35119,-4.027971 4.7591,-14.600944 16.59581,-16.683906 l 0.67175,0.253859 c -8.77269,2.523076 -13.70662,14.154855 -13.05035,17.823724 0,0 5.06611,-1.765071 6.24678,-2.251884 0.58371,-0.240674 0.66592,0.107479 0.23853,0.351641 -3.26349,1.864326 -7.234,4.657749 -9.49274,6.085029 -0.44187,0.279213 -0.72403,0.405633 -0.93026,0.34181 z"
       style="fill:#000000;stroke-width:0.175026;stroke-dasharray:none"
       id="path1-4"
       sodipodi:nodetypes="ccssccccscscc" /><path
       d="m 109.65163,82.286721 c -0.10013,-0.125161 -0.0742,-0.335681 0.0414,-0.689749 0.86397,-2.646682 1.84298,-5.787974 2.46388,-7.554646 0.15231,-0.433381 0.34051,-0.330085 0.25856,0.166414 -0.17323,1.049555 -0.4682,4.32399 -0.4682,4.32399 3.73769,-1.078213 9.00907,-6.987631 17.14978,-3.334427 l 0.30694,0.435928 c -6.44156,-2.105849 -14.32063,2.984629 -15.44643,5.512336 0,0 3.84828,1.026841 4.77659,1.21979 0.45894,0.09539 0.36435,0.343558 6e-5,0.315461 -2.78209,-0.214605 -6.3858,-0.15302 -8.36843,-0.217423 -0.38785,-0.0126 -0.6139,-0.05251 -0.71401,-0.177676 z"
       style="fill:#000000;stroke-width:0.129942;stroke-dasharray:none"
       id="path1-4-1"
       sodipodi:nodetypes="ccssccccscscc" /><path
       d="m 82.935057,82.777074 c 0.100127,-0.12516 0.07425,-0.33568 -0.04135,-0.689748 -0.863972,-2.646683 -1.842979,-5.787975 -2.463878,-7.554647 -0.152312,-0.43338 -0.340507,-0.330084 -0.258555,0.166414 0.173229,1.049555 0.468196,4.323991 0.468196,4.323991 -3.737694,-1.078214 -9.009074,-6.987631 -17.14979,-3.334427 l -0.306935,0.435928 c 6.441561,-2.105849 14.320637,2.984629 15.446435,5.512336 0,0 -3.848284,1.02684 -4.7766,1.21979 -0.458937,0.09539 -0.364343,0.343558 -5.3e-5,0.315461 2.782088,-0.214605 6.385798,-0.153021 8.368428,-0.217423 0.38785,-0.0126 0.613904,-0.05251 0.714012,-0.177676 z"
       style="fill:#000000;stroke-width:0.129942;stroke-dasharray:none"
       id="path1-4-1-1"
       sodipodi:nodetypes="ccssccccscscc" /><path
       d="m 90.403127,90.636975 c 0.20624,-0.06382 0.336584,-0.318031 0.475468,-0.800104 1.03808,-3.603531 2.321914,-7.845375 2.965579,-10.284164 0.157893,-0.598253 -0.129988,-0.625404 -0.414045,-0.01 -0.600461,1.300928 -2.747476,5.173984 -2.747476,5.173984 C 87.331462,80.688733 85.923549,70.11576 74.086842,68.032798 l -0.671748,0.253859 c 8.77269,2.523076 13.706621,14.154855 13.050348,17.823724 0,0 -5.066105,-1.765071 -6.246781,-2.251884 -0.583707,-0.240674 -0.665916,0.107479 -0.23853,0.351641 3.263486,1.864325 7.234004,4.657749 9.492745,6.085028 0.44187,0.279214 0.724025,0.405634 0.930251,0.341811 z"
       style="fill:#000000;stroke-width:0.175026;stroke-dasharray:none"
       id="path1-4-5"
       sodipodi:nodetypes="ccssccccscscc" /></g></svg>
