<?xml version="1.0" encoding="UTF-8" standalone="no"?>
<!-- Created with Inkscape (http://www.inkscape.org/) -->

<svg
   width="45.488197mm"
   height="85.055908mm"
   viewBox="0 0 45.488199 85.055908"
   version="1.1"
   id="svg1"
   xml:space="preserve"
   inkscape:version="1.4.3 (0d15f75, 2025-12-25)"
   sodipodi:docname="ReturnToDeck.svg"
   xmlns:inkscape="http://www.inkscape.org/namespaces/inkscape"
   xmlns:sodipodi="http://sodipodi.sourceforge.net/DTD/sodipodi-0.dtd"
   xmlns="http://www.w3.org/2000/svg"
   xmlns:svg="http://www.w3.org/2000/svg"><sodipodi:namedview
     id="namedview1"
     pagecolor="#505050"
     bordercolor="#eeeeee"
     borderopacity="1"
     inkscape:showpageshadow="0"
     inkscape:pageopacity="0"
     inkscape:pagecheckerboard="0"
     inkscape:deskcolor="#505050"
     inkscape:document-units="mm"
     inkscape:zoom="1.4396184"
     inkscape:cx="-39.941139"
     inkscape:cy="181.64536"
     inkscape:window-width="1920"
     inkscape:window-height="1057"
     inkscape:window-x="-8"
     inkscape:window-y="-8"
     inkscape:window-maximized="1"
     inkscape:current-layer="layer1" /><defs
     id="defs1" /><g
     inkscape:label="Layer 1"
     inkscape:groupmode="layer"
     id="layer1"
     transform="translate(-71.684872,-56.505008)"><path
       d="m 71.967025,106.11645 -0.282153,2.42001 20.107817,32.67966 2.481502,0.34468 22.513359,-13.18679 0.0465,-2.20504 -22.614636,13.23279 -2.166793,-0.19069 z"
       style="stroke-width:0.264583"
       id="path6" /><path
       d="m 72.288453,102.55853 -0.1726,2.18126 19.766236,31.73708 2.43551,0.29869 22.651331,-12.58941 0.046,-2.4815 -22.605854,12.6354 -2.434993,-0.32194 z"
       style="stroke-width:0.264583"
       id="path5" /><path
       d="m 73.550391,96.323249 -1.292944,2.488221 0.701249,2.15439 18.729606,30.24312 2.868559,0.59221 22.390879,-12.01012 0.0176,-2.95434 -3.85248,-4.10363 -19.305794,10.573 -2.741435,-0.63149 z"
       style="stroke-width:0.264583"
       id="path4" /><path
       id="path3"
       style="stroke-width:0.264583"
       d="m 90.489926,74.817585 -17.121953,10.626225 -1.547709,2.225704 0.826306,2.676839 18.729607,30.242597 2.868558,0.59273 22.845635,-12.07523 0.0827,-2.95434 -7.1232,-11.638105 -14.045668,18.389165 c -1.085223,1.82685 -1.732657,0.85186 -2.396753,-0.0165 l -16.804471,-22.452 c -0.365048,-1.562382 1.553988,-3.197659 3.265918,-2.86633 l 7.719451,5.443334 c 1.041921,-1.574404 1.47089,-3.834109 2.253074,-8.17904 1.211074,-6.656934 1.239084,-8.259982 0.988098,-9.068677 z m 15.955254,14.109723 -8.32988,-14.03996 1.189094,8.51556 c 0.377619,3.586967 0.490705,6.469839 1.994446,9.623683 z"
       sodipodi:nodetypes="cccccccccccccccccccccc" /><path
       d="m 94.757882,110.04478 c -0.45509,0.0258 -0.90044,-0.38107 -1.530656,-1.23248 -4.710897,-6.36437 -10.378643,-13.810483 -13.450341,-18.16117 -0.753509,-1.067254 -0.203938,-1.333237 0.811836,-0.325045 2.147249,2.131219 9.250947,8.211217 9.250947,8.211217 3.660579,-10.440472 2.700123,-30.348465 4.232468,-42.032412 l 1.087272,0.005 c 1.529551,11.352096 0.21994,29.834836 4.05183,41.675419 0,0 8.722132,-7.227661 10.699212,-9.061384 0.97744,-0.906568 1.3968,-0.278345 0.73122,0.519865 -5.08237,6.094921 -10.878575,14.54942 -14.295254,19.0388 -0.668393,0.87824 -1.133444,1.33641 -1.588534,1.36219 z"
       style="fill:#000000;stroke-width:0.265;stroke-dasharray:none"
       id="path1"
       sodipodi:nodetypes="ccssccccscsc" /></g></svg>
