<?xml version="1.0" encoding="UTF-8" standalone="no"?>
<!-- Created with Inkscape (http://www.inkscape.org/) -->

<svg
   version="1.1"
   id="svg1"
   width="49"
   height="49"
   viewBox="0 0 49 49"
   sodipodi:docname="InvertedMortalArmorDie.svg"
   inkscape:version="1.4 (86a8ad7, 2024-10-11)"
   xmlns:inkscape="http://www.inkscape.org/namespaces/inkscape"
   xmlns:sodipodi="http://sodipodi.sourceforge.net/DTD/sodipodi-0.dtd"
   xmlns="http://www.w3.org/2000/svg"
   xmlns:svg="http://www.w3.org/2000/svg">
  <defs
     id="defs1" />
  <sodipodi:namedview
     id="namedview1"
     pagecolor="#505050"
     bordercolor="#eeeeee"
     borderopacity="1"
     inkscape:showpageshadow="0"
     inkscape:pageopacity="0"
     inkscape:pagecheckerboard="0"
     inkscape:deskcolor="#505050"
     inkscape:zoom="5.6568543"
     inkscape:cx="-18.031223"
     inkscape:cy="13.611805"
     inkscape:window-width="1920"
     inkscape:window-height="1010"
     inkscape:window-x="4601"
     inkscape:window-y="-6"
     inkscape:window-maximized="1"
     inkscape:current-layer="g1"
     showgrid="false" />
  <g
     inkscape:groupmode="layer"
     id="layer3"
     inkscape:label="Image 1"
     style="display:inline">
    <g
       id="g6"
       transform="matrix(-1,0,0,1,49.234374,0)">
      <path
         d="M 17.761719,1.3125 4.6855469,3.9257813 1.2167969,5.5175781 C 0.46083258,6.0747686 0.20614758,7.1285603 0.20898438,8.2636719 L 0.19531248,41.267578 1.8203125,43.814453 36.947266,48.740234 40.466797,45.945312 49.039062,34.835937 V 3.736251 l -0.52384,-2.4217979 z m 30.726562,1.8007813 c -17.510584,5.6932917 0,0 0,0 z"
         style="baseline-shift:baseline;display:inline;overflow:visible;vector-effect:none;fill:#ffffff;enable-background:accumulate;stop-color:#000000;stop-opacity:1"
         id="path7"
         sodipodi:nodetypes="cccccccccccccc" />
    </g>
  </g>
  <g
     inkscape:groupmode="layer"
     inkscape:label="Image"
     id="g1"
     style="display:inline">
    <path
       id="path1"
       style="display:inline;fill:#666677;fill-opacity:1"
       d="M 31.103516 2.1933594 L 1.3417969 2.1953125 L 9.7851562 5.8710938 L 43.462891 4.8046875 L 43.679688 4.7070312 L 31.103516 2.1933594 z M 1.5507812 3.9257812 L 1.0214844 4.1210938 L 1.0214844 34.435547 L 9.265625 45.121094 L 10.021484 45.121094 L 10.123047 9.3867188 L 8.7792969 7.046875 L 1.5507812 3.9257812 z M 45.759766 5.8417969 C 45.645005 5.8380739 45.526134 5.8409294 45.400391 5.8496094 L 14.607422 7.2207031 L 11.980469 9.4003906 L 12.048828 46.757812 L 12.650391 47.808594 L 46.435547 43.070312 L 47.998047 40.621094 L 47.986328 8.8789062 C 47.990255 7.3075559 47.481195 5.8975579 45.759766 5.8417969 z M 32.898438 10.369141 L 33.083984 10.501953 C 32.969364 11.060873 33.028283 11.583367 33.164062 12.09375 C 33.158763 11.974504 33.153187 11.849451 33.123047 11.736328 L 33.292969 11.857422 C 33.210709 12.267273 33.224321 12.194485 33.212891 12.255859 C 33.436722 13.006674 33.805153 13.735594 34.025391 14.511719 L 34.607422 16.564453 L 34.949219 16.572266 C 34.467481 18.052945 34.927734 19.994142 34.927734 19.994141 L 34.265625 20.253906 C 33.409282 22.058872 34.64899 23.735654 36.644531 24.162109 L 36.59375 26.451172 C 37.631897 26.944957 38.138173 27.13769 38.121094 27.900391 C 38.112494 28.286431 38.183664 28.555853 38.447266 29.130859 C 39.00791 30.353809 39.804082 31.989081 40.214844 32.763672 C 40.625613 33.538263 40.897315 34.156709 40.820312 34.138672 C 40.743313 34.120632 35.193359 31.609375 35.193359 31.609375 L 32.201172 28.511719 C 32.201172 28.511719 31.965063 27.840668 31.941406 24.833984 C 31.938606 24.483505 32.28397 23.839602 32.267578 23.4375 C 32.200298 21.787249 31.675522 20.09169 31.480469 18.912109 L 31.197266 17.197266 L 30.964844 16.660156 L 31.029297 16.183594 L 31.519531 15.853516 L 32.208984 12.873047 C 32.380285 11.646481 32.625906 10.934338 32.898438 10.369141 z M 30.070312 18.136719 C 30.084343 18.127619 30.092843 18.127219 30.095703 18.136719 C 30.118563 18.212439 30.153283 24.500797 30.716797 24.275391 L 29.529297 28.416016 C 29.529297 28.416016 29.065053 28.9553 26.472656 30.478516 C 26.170471 30.656074 25.441647 30.679364 25.101562 30.894531 C 23.705831 31.777589 22.501762 33.081537 21.574219 33.835938 L 20.230469 34.939453 L 19.880859 35.410156 L 19.435547 35.591797 L 18.90625 35.332031 L 15.980469 36.224609 C 14.832469 36.689264 14.092548 36.834428 13.466797 36.880859 L 13.490234 36.652344 C 14.889641 36.186897 15.509321 34.843745 16.492188 33.832031 L 17.978516 32.302734 L 17.814453 32.001953 C 19.337704 31.679171 20.789062 30.310547 20.789062 30.310547 L 21.345703 30.753906 C 23.337059 30.59351 24.170958 28.6818 23.542969 26.740234 L 25.550781 25.640625 C 25.459611 24.494651 25.371872 23.96015 26.041016 23.59375 C 26.379702 23.408296 26.577069 23.211015 26.943359 22.695312 C 27.722403 21.598492 28.741422 20.092525 29.207031 19.349609 C 29.614438 18.699554 29.972131 18.200644 30.070312 18.136719 z M 30.863281 30.193359 C 30.863281 30.193359 31.561915 30.331394 34.164062 31.837891 C 34.467387 32.013495 34.846454 32.638049 35.201172 32.828125 C 36.65696 33.608212 38.384751 34.011347 39.498047 34.447266 L 41.121094 35.074219 L 41.701172 35.146484 L 42.080078 35.445312 L 42.115234 36.035156 L 44.332031 38.140625 C 45.301672 38.911083 45.79213 39.486013 46.140625 40.007812 L 45.929688 40.099609 C 44.835574 39.110715 43.362548 39.232385 41.998047 38.875 L 39.933594 38.333984 L 39.753906 38.625 C 38.723003 37.458073 36.816406 36.867188 36.816406 36.867188 L 36.927734 36.166016 C 35.807708 34.511699 33.73428 34.726011 32.353516 36.228516 L 30.408203 35.023438 C 29.455627 35.667001 29.033127 36.005547 28.384766 35.603516 C 28.056598 35.400025 27.787412 35.324686 27.158203 35.259766 C 25.81997 35.121715 24.008688 34.976995 23.132812 34.9375 C 22.256934 34.898 21.584031 34.818896 21.638672 34.761719 C 21.693312 34.704539 26.675781 31.197266 26.675781 31.197266 L 30.863281 30.193359 z " />
  </g>
</svg>
