<?xml version="1.0" encoding="UTF-8" standalone="no"?>
<!-- Created with Inkscape (http://www.inkscape.org/) -->

<svg
   version="1.1"
   id="svg1"
   width="49"
   height="49"
   viewBox="0 0 49 49"
   sodipodi:docname="ReversedMortalPowerDie.svg"
   inkscape:version="1.4 (86a8ad7, 2024-10-11)"
   xmlns:inkscape="http://www.inkscape.org/namespaces/inkscape"
   xmlns:sodipodi="http://sodipodi.sourceforge.net/DTD/sodipodi-0.dtd"
   xmlns="http://www.w3.org/2000/svg"
   xmlns:svg="http://www.w3.org/2000/svg">
  <defs
     id="defs1" />
  <sodipodi:namedview
     id="namedview1"
     pagecolor="#505050"
     bordercolor="#eeeeee"
     borderopacity="1"
     inkscape:showpageshadow="0"
     inkscape:pageopacity="0"
     inkscape:pagecheckerboard="0"
     inkscape:deskcolor="#505050"
     inkscape:zoom="8.0000001"
     inkscape:cx="2.9375"
     inkscape:cy="16"
     inkscape:window-width="1920"
     inkscape:window-height="1010"
     inkscape:window-x="4601"
     inkscape:window-y="-6"
     inkscape:window-maximized="1"
     inkscape:current-layer="g1"
     showgrid="false" />
  <g
     inkscape:groupmode="layer"
     id="layer3"
     inkscape:label="Image 1"
     style="display:inline">
    <g
       id="g6"
       transform="matrix(-1,0,0,1,49.234374,0)">
      <path
         d="M 17.761719,1.3125 4.6855469,3.9257813 1.2167969,5.5175781 C 0.46083258,6.0747686 0.20614758,7.1285603 0.20898438,8.2636719 L 0.19531248,41.267578 1.8203125,43.814453 36.947266,48.740234 40.466797,45.945312 49.039062,34.835937 V 3.736251 l -0.52384,-2.4217979 z m 30.726562,1.8007813 c -17.510584,5.6932917 0,0 0,0 z"
         style="baseline-shift:baseline;display:inline;overflow:visible;vector-effect:none;fill:#ffffff;enable-background:accumulate;stop-color:#000000;stop-opacity:1;fill-opacity:1"
         id="path7"
         sodipodi:nodetypes="cccccccccccccc" />
    </g>
  </g>
  <g
     inkscape:groupmode="layer"
     inkscape:label="Image"
     id="g1"
     style="display:inline">
    <path
       id="path1"
       style="display:inline;fill:#666677;fill-opacity:1"
       d="M 31.103516,2.1933594 1.3417969,2.1953125 9.7851562,5.8710938 43.462891,4.8046875 43.679688,4.7070312 Z M 1.5507812,3.9257812 1.0214844,4.1210938 V 34.435547 L 9.265625,45.121094 h 0.755859 L 10.123047,9.3867188 8.7792969,7.046875 Z M 45.759766,5.8417969 c -0.114761,-0.00372 -0.233632,-8.625e-4 -0.359375,0.00781 l -30.792969,1.3710937 -2.626953,2.1796875 0.06836,37.3574214 0.601563,1.050782 33.785156,-4.738282 1.5625,-2.449218 -0.01172,-31.7421878 c 0.0039,-1.5713476 -0.505133,-2.9813483 -2.226562,-3.0371093 z m -13.28125,6.4140621 c -0.01378,1.699319 -0.0064,3.41414 -0.01758,5.097657 l -0.203126,0.205078 0.546876,0.314453 c -1.30054,0.404232 -1.192026,0.422653 -1.570313,1.09375 l -0.867187,2.554687 c -0.35278,1.388858 -0.07635,1.144689 0.847656,2.552735 l 0.537109,0.359375 0.166016,0.388672 -2.582031,-0.611328 1.136718,0.894531 c 0.22571,0.125592 0.576953,0.467693 0.658203,1.167969 0.813193,4.563848 0.711348,4.517956 1.144532,6.800781 0.412129,2.260587 0.622428,4.537985 0.15625,6.822265 l -0.785157,-3.728515 -1.78125,-4.736328 c 0,-1.434476 -0.04164,-1.512293 -0.5,-2.888672 -0.374561,-1.135514 -0.971544,-3.295112 -1.613281,-2.980469 -0.807622,-1.467111 -1.610784,-3.202199 -2.800781,-4.394531 1.017111,0.483372 1.92409,0.930546 2.648437,1.474609 l 1.080079,-2.796875 1.585937,-2.449219 0.523437,-1.316406 -0.154296,-0.351562 c 0.964692,-0.613428 1.145615,-1.093533 1.546875,-3.044922 z"
       sodipodi:nodetypes="ccccccccccccccsccccccccscccccccccccccccccccccccccc" />
  </g>
</svg>
