<?xml version="1.0" encoding="UTF-8" standalone="no"?>
<!-- Created with Inkscape (http://www.inkscape.org/) -->

<svg
   width="6.6345139mm"
   height="6.0873194mm"
   viewBox="0 0 6.6345141 6.087319"
   version="1.1"
   id="svg1"
   xml:space="preserve"
   inkscape:version="1.4 (86a8ad7, 2024-10-11)"
   sodipodi:docname="River.svg"
   xmlns:inkscape="http://www.inkscape.org/namespaces/inkscape"
   xmlns:sodipodi="http://sodipodi.sourceforge.net/DTD/sodipodi-0.dtd"
   xmlns="http://www.w3.org/2000/svg"
   xmlns:svg="http://www.w3.org/2000/svg"><sodipodi:namedview
     id="namedview1"
     pagecolor="#505050"
     bordercolor="#eeeeee"
     borderopacity="1"
     inkscape:showpageshadow="0"
     inkscape:pageopacity="0"
     inkscape:pagecheckerboard="0"
     inkscape:deskcolor="#505050"
     inkscape:document-units="mm"
     inkscape:zoom="11.516947"
     inkscape:cx="14.674027"
     inkscape:cy="10.245771"
     inkscape:window-width="1920"
     inkscape:window-height="1010"
     inkscape:window-x="4601"
     inkscape:window-y="-6"
     inkscape:window-maximized="1"
     inkscape:current-layer="layer1" /><defs
     id="defs1" /><g
     inkscape:label="Layer 1"
     inkscape:groupmode="layer"
     id="layer1"
     transform="translate(-72.2262,-134.87309)"><path
       style="fill:#000000"
       d="m 73.800086,140.58742 c -2.094191,-0.92439 -2.098796,-1.78193 -0.01208,-2.24892 1.57216,-0.35183 1.795778,-0.70486 0.938118,-1.48104 -0.829596,-0.75077 -0.384216,-1.37327 1.322917,-1.84903 0.661458,-0.18433 0.661458,-0.18433 0.06615,0.25204 -0.815028,0.59743 -0.74652,1.10834 0.215312,1.60572 1.045035,0.54041 0.908902,0.90535 -0.624067,1.67299 -1.527714,0.76501 -1.618826,1.36599 -0.318849,2.10316 0.802412,0.45502 -0.537246,0.40868 -1.5875,-0.0549 z m 4.007701,-1.70503 c -0.13957,-0.13596 -0.309941,-0.9628 0.154389,-1.34815 0.08677,-0.10733 0.218486,-0.25205 0.325332,-0.25507 0.116515,-0.003 0.205146,0.13316 0.309829,0.27759 0.123792,0.17079 0.229876,0.41701 0.257947,0.68224 0.02514,0.23754 -0.03864,0.49034 -0.157856,0.71788 -0.05925,0.11308 -0.206116,0.11797 -0.230364,0.23445 -0.0212,0.10186 0.01409,0.33085 -0.01664,0.3894 -0.07139,0.13604 -0.201419,0.11231 -0.270049,0.048 -0.02973,-0.0278 -0.0093,-0.36857 -0.04654,-0.44201 -0.0368,-0.0725 -0.132818,-0.1161 -0.167657,-0.15004 z m -5.334186,-1.97815 c -0.118055,-0.45035 -0.08087,-0.86192 0.09364,-1.03643 0.379299,-0.3793 0.642258,0.29833 0.458731,0.96175 -0.02246,0.0812 -0.11478,0.0932 -0.151215,0.17203 -0.05713,0.12356 -0.0061,0.35226 -0.03086,0.4259 -0.03502,0.10402 -0.16554,0.11345 -0.210775,0.0291 -0.04181,-0.078 0.0134,-0.27639 -0.03048,-0.45195 -0.01038,-0.0416 -0.118485,-0.1004 -0.129041,-0.1004 z m 5.162943,-1.50198 c 0,-0.29105 0.119062,-0.52917 0.264583,-0.52917 0.145521,0 0.264584,0.23812 0.264584,0.52917 0,0.29104 -0.119063,0.52916 -0.264584,0.52916 -0.145521,0 -0.264583,-0.23812 -0.264583,-0.52916 z"
       id="path2"
       sodipodi:nodetypes="csscssssccscsssssssssssssssssssssss" /></g></svg>
