<?xml version="1.0" encoding="UTF-8" standalone="no"?>
<!-- Created with Inkscape (http://www.inkscape.org/) -->

<svg
   width="351.20102mm"
   height="283.4967mm"
   viewBox="0 0 351.20103 283.4967"
   version="1.1"
   id="svg1"
   xml:space="preserve"
   inkscape:version="1.4 (86a8ad7, 2024-10-11)"
   sodipodi:docname="SecondCataract.svg"
   xmlns:inkscape="http://www.inkscape.org/namespaces/inkscape"
   xmlns:sodipodi="http://sodipodi.sourceforge.net/DTD/sodipodi-0.dtd"
   xmlns="http://www.w3.org/2000/svg"
   xmlns:svg="http://www.w3.org/2000/svg"><sodipodi:namedview
     id="namedview1"
     pagecolor="#505050"
     bordercolor="#eeeeee"
     borderopacity="1"
     inkscape:showpageshadow="0"
     inkscape:pageopacity="0"
     inkscape:pagecheckerboard="0"
     inkscape:deskcolor="#505050"
     inkscape:document-units="mm"
     inkscape:zoom="0.50898197"
     inkscape:cx="593.34125"
     inkscape:cy="316.31769"
     inkscape:window-width="1920"
     inkscape:window-height="1010"
     inkscape:window-x="4601"
     inkscape:window-y="-6"
     inkscape:window-maximized="1"
     inkscape:current-layer="layer1" /><defs
     id="defs1" /><g
     inkscape:label="Layer 1"
     inkscape:groupmode="layer"
     id="layer1"
     transform="translate(79.034085,4.871804)"><path
       style="fill:#000000"
       d="m -78.510576,278.01719 -0.523509,-239.947579 1.368318,-2.521417 60.505819,-0.563605 c 1.025905,-0.0096 1.780976,0.08753 3.231188,1.342425 l 12.094934,10.465972 c 0.4342365,0.375753 0.1740084,1.703028 0.1707009,3.571875 l -0.329738,186.312299 0.1219042,2.29459 12.1060979,8.63608 c 0.670558,0.47835 -36.136804,1.76522 -42.604241,2.56769 -0.292563,0.0363 -13.269082,26.64095 -13.850416,26.72407 -0.390781,0.0559 -0.607459,0.31987 -0.699974,0.85285 -0.0737,0.42455 -0.259564,0.81368 -0.413038,0.86471 -0.673112,0.22384 -1.920304,-4.46399 -1.953076,-6.79601 L -50.956908,152.8945 c -0.0804,-5.72059 -4.449084,-4.49297 -4.486372,0.69926 l -0.897073,124.91246 z m 338.644286,0.15395 -4.492,-0.13229 -0.23547,-0.79375 c -0.12952,-0.43657 -0.46243,-0.96982 -0.46894,-1.25318 l -2.88708,-125.67126 c -0.0679,-2.95661 -3.63395,-2.34257 -3.66038,0.14009 l -1.34451,126.27241 c -0.008,0.7934 -0.94836,0.63372 -1.71323,0.64427 -2.32541,0.0321 -10.32406,-27.99303 -16.78575,-28.17357 l -38.23989,-1.06845 c -0.80853,-0.0226 -2.66128,-0.61405 -2.13823,-1.21328 l 10.27349,-7.94495 c 0.98671,-0.76307 0.85816,-0.92114 0.85808,-1.93439 L 199.2843,44.34861 c 0,-0.04091 9.71631,-8.792329 10.88081,-8.802202 l 59.77726,-0.506814 c 0.20981,-0.0018 0.75589,0.987952 0.76188,1.973736 l 1.46267,240.56454 -0.7641,0.3165 c -0.88499,0.36658 -4.88517,0.46486 -11.26853,0.27687 z M 40.800311,247.59659 c -0.935356,-0.17548 -1.175215,-0.20031 -0.938149,-1.58862 l 2.826219,-16.551 C 44.009906,221.71781 44.588494,22.329489 41.984754,16.365932 41.857673,16.07488 41.79004,14.8696 41.58346,13.720088 l -2.902481,-16.150842 -0.667347,-0.9833916 0.959873,-0.5144612 46.661576,-0.3571739 1.719791,0.014201 0.07864,1.4975995 C 86.090878,6.6924732 83.532836,37.540971 83.515173,38.576452 l -0.324684,19.034874 c -0.02425,1.421588 -1.538427,89.439044 -0.381741,139.409384 0.813052,8.48368 1.297483,16.97747 1.843806,25.59131 l 4.320382,23.42989 0.04495,1.46082 -1.228364,-0.0317 c -3.131634,-0.0807 -46.473229,0.22233 -46.989211,0.12556 z m 71.698069,-0.0631 c -1.26899,-0.0471 -2.19279,-0.20516 -2.32006,-0.39687 -0.12795,-0.61265 0.60957,-5.67064 0.96931,-6.32379 6.16941,-8.80797 4.12318,-191.769565 0.92204,-220.874983 -1.17625,-6.438257 -0.63052,-15.3995079 -3.57678,-21.7366575 -0.53046,-1.0127715 -0.4464,-1.860455 0.2499,-2.5201555 0.82229,-0.7790583 44.88518,-0.2345646 45.45319,-0.4462997 0.79836,-0.297605 1.8001,0.029846 2.94538,0.9627954 -4.95194,21.0585683 -4.65165,42.8519393 -4.53212,64.3517553 l 0.80594,144.969215 c 0.0351,6.30541 5.73941,40.76207 4.81348,41.68854 -0.15884,0.15884 -44.61586,0.36783 -45.72871,0.32647 z"
       id="path2"
       sodipodi:nodetypes="cccssssccscssssssccccssssssssssssssscscccsssscccccssssccccccsssssssssscc" /></g></svg>
