<?xml version="1.0" encoding="UTF-8" standalone="no"?>
<!-- Created with Inkscape (http://www.inkscape.org/) -->

<svg
   width="183.06528mm"
   height="182.99251mm"
   viewBox="0 0 183.06526 182.9925"
   version="1.1"
   id="svg1"
   xml:space="preserve"
   inkscape:version="1.4 (86a8ad7, 2024-10-11)"
   sodipodi:docname="SpartanStronghold.svg"
   xmlns:inkscape="http://www.inkscape.org/namespaces/inkscape"
   xmlns:sodipodi="http://sodipodi.sourceforge.net/DTD/sodipodi-0.dtd"
   xmlns="http://www.w3.org/2000/svg"
   xmlns:svg="http://www.w3.org/2000/svg"><sodipodi:namedview
     id="namedview1"
     pagecolor="#505050"
     bordercolor="#eeeeee"
     borderopacity="1"
     inkscape:showpageshadow="0"
     inkscape:pageopacity="0"
     inkscape:pagecheckerboard="0"
     inkscape:deskcolor="#505050"
     inkscape:document-units="mm"
     inkscape:zoom="0.75811588"
     inkscape:cx="232.81401"
     inkscape:cy="418.80141"
     inkscape:window-width="1920"
     inkscape:window-height="1111"
     inkscape:window-x="-9"
     inkscape:window-y="-9"
     inkscape:window-maximized="1"
     inkscape:current-layer="layer1" /><defs
     id="defs1" /><g
     inkscape:label="Layer 1"
     inkscape:groupmode="layer"
     id="layer1"
     transform="translate(-32.990458,-33.433955)"><path
       id="path1"
       style="fill:#000000;fill-opacity:1"
       d="m 121.52019,33.439282 c -4.11189,-0.04241 -7.80069,0.166209 -9.64954,0.705383 -0.50854,0.148305 -1.63964,0.394077 -2.51354,0.546737 -0.8739,0.15266 -2.54155,0.499915 -3.70572,0.771529 -1.16417,0.271615 -2.83104,0.636916 -3.70417,0.811837 -2.811892,0.563336 -10.037285,3.148865 -11.405503,4.081404 -4.229154,2.882472 -7.354084,4.544765 -10.951786,5.825484 -4.635508,1.650159 -5.697418,2.268584 -12.283488,7.149952 -1.178043,0.873125 -2.665148,1.928669 -3.304191,2.345593 -0.639043,0.416924 -1.709103,1.322851 -2.378149,2.013314 -6.238912,6.438623 -22.078628,24.387933 -25.422738,43.765285 -0.323633,1.87529 -0.878387,4.25654 -1.233,5.29167 -1.289703,3.76474 -1.956207,9.23337 -1.976107,16.69872 -0.01825,6.8449 0.08265,8.16243 1.228349,16.00729 3.357751,22.99135 12.331977,35.01593 15.65951,38.79195 6.996459,7.97404 13.663632,16.42904 22.891109,22.03018 0.833618,0.47186 1.992787,1.25676 2.57607,1.74408 0.583283,0.48732 1.925295,1.38509 2.982247,1.99471 1.056952,0.60961 2.933878,1.69423 4.170805,2.41019 4.283074,2.47914 10.826801,5.09351 15.742708,6.29005 0.582084,0.14168 2.903804,0.74252 5.159374,1.33481 2.25558,0.5923 4.61959,1.07639 5.25343,1.0759 0.63384,-4.9e-4 1.88399,0.1936 2.77812,0.4315 0.89413,0.23789 2.34012,0.51929 3.21324,0.62528 3.0908,0.37524 21.32531,0.2986 22.76244,-0.0956 13.05329,-3.54398 25.43339,-6.07917 37.0334,-13.78365 1.01864,-0.61769 2.44655,-1.4601 3.17293,-1.87224 1.24024,-0.70371 2.97642,-2.32935 11.77602,-11.02568 5.62069,-5.55474 5.70476,-5.66949 9.44852,-12.90981 1.50476,-2.91016 2.37435,-4.07979 3.51607,-4.72891 2.29189,-1.30305 3.67376,-3.70408 3.9026,-6.78047 0.16342,-2.19704 1.17232,-4.39762 3.85093,-8.40103 4.87748,-7.2898 3.45135,-16.74523 4.68498,-25.06876 0.16358,-1.52797 0.54374,-3.5962 0.8444,-4.5961 0.61779,-2.05455 0.5452,-6.47691 -0.19999,-12.20494 -0.20825,-1.60073 -0.37986,-3.3789 -0.38086,-3.9517 -0.003,-1.69852 -1.03133,-4.88017 -2.39933,-7.42538 -1.65876,-3.08622 -2.10065,-4.840959 -2.10065,-8.345746 v -2.810681 c -4.45065,-8.526665 -8.32766,-17.137279 -14.80013,-24.562325 -0.74829,-0.873125 -1.5818,-2.005984 -1.9451,-2.447913 -12.0729,-14.686022 -28.21004,-23.859215 -45.23031,-28.391032 -3.42002,-0.910614 -5.00417,0.478969 -9.54102,-1.405599 -2.64067,-1.096912 -10.66878,-1.864606 -17.52193,-1.935282 z m 3.35121,9.824206 c 5.19926,0.06632 10.46647,0.405091 13.14546,0.982886 18.15882,3.825312 34.80907,9.832475 46.4354,24.839311 3.8907,3.958423 10.47764,12.941125 12.02046,16.392798 0.35774,0.800364 1.15422,2.467239 1.77043,3.704166 1.45755,2.925774 2.5931,5.876301 3.46129,8.995834 0.38474,1.382448 0.93251,3.227917 1.2175,4.101037 2.49176,7.63402 2.70715,9.74966 2.543,25.00313 -0.14641,12.38351 -0.9968,22.70057 -7.0466,33.60208 -3.26563,5.50256 -6.30662,11.22289 -10.01851,16.40624 -0.64144,0.67557 -1.90237,6.95955 -10.25261,12.01322 -4.36231,2.64011 -20.44709,11.45009 -25.4,12.71757 -1.01864,0.26069 -2.45255,0.7423 -3.18637,1.07073 -1.60364,0.71774 -7.00418,2.07564 -11.498,2.89078 -1.09141,0.19797 -2.1511,0.47446 -2.38125,0.50126 -29.41621,3.41978 -42.776738,-4.63841 -62.627187,-16.61242 -2.918023,-0.94598 -5.919708,-3.93505 -6.036841,-6.011 -0.05171,-0.9165 -0.329764,-1.32465 -2.276347,-3.3476 -6.438907,-6.6915 -11.590682,-13.63422 -13.310815,-17.93792 -0.400779,-1.00273 -0.824909,-1.94221 -0.943095,-2.08773 -0.661583,-0.8146 -2.695831,-5.34416 -2.911967,-6.48384 -0.511,-2.69449 -1.552662,-4.79676 -3.195671,-6.45026 -3.114352,-3.13423 -4.933876,-9.18429 -3.484542,-11.58689 1.10045,-1.82423 1.554445,-5.34806 1.920296,-14.90193 0.298287,-7.78947 0.306375,-7.84494 2.16576,-15.21354 0.590777,-2.3412 1.103809,-3.6382 2.22622,-5.62498 0.8307,-1.470424 1.497785,-3.133599 1.674834,-3.836459 1.80627,-7.170666 4.842646,-13.424617 8.922969,-19.378145 1.14226,-1.755886 3.047273,-3.764127 5.424992,-5.718514 1.764873,-1.450652 2.336808,-2.379961 2.336808,-3.798735 0,-2.521273 1.441251,-4.188786 4.233334,-4.897892 1.895862,-0.481492 3.10307,-1.177064 5.291666,-3.049426 1.387184,-1.186746 6.508525,-3.896841 11.500074,-6.085417 1.15899,-0.508167 2.885396,-1.509058 3.836458,-2.224153 2.530877,-1.902943 5.072547,-3.176074 8.211385,-4.113444 1.527969,-0.456307 3.016249,-0.94138 3.307289,-1.077971 0.87098,-0.408762 3.36206,-0.982674 6.2637,-1.442806 1.50255,-0.238268 3.26792,-0.54724 3.92276,-0.68678 2.40704,-0.512915 7.53847,-0.719514 12.73772,-0.65319 z m 2.32958,5.988265 c -0.56158,0.213057 -1.20345,1.311643 -2.24741,3.418396 -2.32041,4.682707 0.19148,-1.005082 -6.61148,13.327352 -1.4665,3.089573 -1.65044,4.553923 -1.85054,14.718482 -0.16822,8.54525 -0.22202,9.288627 -0.83664,11.641666 -0.58996,2.258674 -0.63972,2.837871 -0.49092,5.71438 0.12521,2.420611 0.0629,3.710821 -0.2558,5.291671 -0.57571,2.85561 -0.63274,3.01009 -1.05007,2.84995 -0.81217,-0.31166 -0.90901,-1.67801 -0.76584,-10.792105 0.15167,-9.656146 0.15639,-9.618437 -1.10536,-9.301758 -2.83227,0.710856 -3.41471,4.554558 -3.31246,21.856543 0.0666,11.27699 -0.0393,12.2799 -1.36891,12.99146 -1.10326,0.59045 -1.39528,-6.91249 -0.84646,-21.730974 0.13765,-3.716772 -0.008,-4.237188 -1.05316,-3.761011 -0.37422,0.170508 -0.68058,0.442724 -0.68058,0.604615 0,0.306165 -1.87056,3.145172 -2.70268,4.10207 -0.99113,1.13977 -1.7754,6.74799 -1.09709,7.84552 0.25916,0.41934 0.13752,12.30026 -0.1633,15.94735 -0.43958,5.32947 -0.875064,44.96879 -0.845424,45.64062 0.251814,5.70779 -0.443144,8.34117 -1.67535,6.34742 -0.314308,-0.50857 -0.257775,-22.16701 0.103353,-39.55263 0.551598,-26.55528 0.465785,-27.25427 -2.782776,-22.62187 -2.687939,3.83296 -2.548071,1.96785 -2.526461,33.73437 0.02358,34.65926 -0.25542,31.94908 3.322278,32.28434 5.43864,0.50964 8.61429,-0.0814 9.40253,-1.7508 0.57463,-1.21697 1.16924,-1.25334 2.20245,-0.13487 2.74186,2.96809 5.13451,2.38176 5.48855,-1.34463 0.12551,-1.3209 0.63451,-3.68967 1.17461,-5.46581 1.74852,-5.75011 1.80313,-6.34229 1.87843,-20.41323 0.15167,-28.33199 -1.13071,-30.25116 3.09646,-30.29479 0.94946,-0.01 0.17258,1.18822 -0.96325,1.4733 l -0.60203,0.15141 -0.20568,4.01629 -0.0491,48.46629 c -0.008,7.98474 -0.5159,7.27605 2.02158,7.27605 2.5866,0 2.81765,-0.21916 2.69235,-2.55437 -0.17045,-3.17627 -0.15709,-8.46561 0.0646,-24.9623 0.15658,-11.65513 0.13665,-17.27752 -0.0682,-19.0469 -0.39287,-3.39301 -0.28001,-3.50563 2.53576,-2.52543 l 2.08566,0.72606 2.30012,-0.80202 2.38693,-0.71469 -0.38654,49.38717 1.83297,0.39222 c 3.35369,0.65922 3.76029,0.46158 3.14399,-1.52962 -0.54544,-1.7623 -0.61268,-9.03807 -0.31988,-34.48575 0.11224,-9.74989 0.19432,-18.79864 0.18242,-20.10833 l -0.0217,-2.38125 -1.07229,-0.92604 c -1.25441,-1.08334 -1.36756,-1.60014 -0.33641,-1.53634 0.9842,0.0609 1.30674,0.34856 1.90324,1.69705 l 0.5085,1.14928 0.11007,20.97443 0.11007,20.97495 c 2.90533,11.83653 0.60405,4.17031 2.84892,12.09745 0.79041,2.79111 3.97871,3.36851 4.74028,0.85835 0.54278,-1.78901 2.87493,-1.58615 3.22513,0.2806 0.30494,1.62546 3.66698,2.42988 5.14697,1.23145 l 0.59428,-0.48111 -0.32711,-2.67012 c -0.21901,-1.7879 -0.29772,-5.54166 -0.23772,-11.35899 0.0493,-4.77875 0.0819,-18.51153 0.0729,-30.517 -0.01,-12.00547 -0.008,-24.10673 0.003,-26.8919 l 0.0202,-5.06429 -0.82527,-1.15342 c -0.45378,-0.63456 -1.15157,-1.80878 -1.55081,-2.609144 -2.61979,-5.251909 -3.74633,-4.339689 -3.43131,2.778124 0.10951,2.47385 0.18289,4.79557 0.16329,5.15938 -0.0196,0.3638 -0.1113,3.7135 -0.2036,7.44347 l -0.16795,6.7815 -0.45527,-0.4315 c -0.25024,-0.23747 -0.67136,-0.55683 -0.93586,-0.70952 -0.71235,-0.41125 -1.01811,-9.3027 -0.66404,-19.30166 0.33197,-9.375172 0.22107,-10.073794 -2.08463,-13.163023 -0.94124,-1.261085 -1.74992,-1.76856 -2.15129,-1.349272 -0.11832,0.123596 -0.0933,3.719929 0.0558,7.99176 0.4081,11.690755 0.12262,13.911735 -1.5074,11.727445 -0.47569,-0.63744 -0.54721,-1.28388 -0.70642,-6.397537 -0.0974,-3.128698 -0.31127,-6.343386 -0.47542,-7.14375 -0.16415,-0.800365 -0.29788,-2.645834 -0.29714,-4.101042 0.004,-8.541242 -0.42027,-18.828622 -0.81907,-19.851501 -2.02872,-4.895326 -5.29786,-9.697633 -6.9696,-14.810466 -0.32038,-0.437305 -1.01678,-1.657696 -1.54771,-2.711979 -0.7233,-1.436275 -1.20472,-2.108549 -1.7663,-1.895492 z m 28.32437,63.178577 -0.0176,14.9009 c -0.0407,34.66663 0.0512,50.12466 0.30386,51.07956 0.6627,2.50501 3.35545,1.1305 4.5191,-2.30683 0.2582,-0.7627 -0.0679,-1.83038 0.1741,-1.91113 -0.12376,-2.73468 0.31217,-5.56171 0.31217,-8.08464 0,-2.93066 -0.63109,-6.90369 -0.79948,-8.07541 -0.25119,-1.74793 0.26167,-2.05993 0.6026,-4.55638 0.28367,-2.0772 0.42903,-5.40438 0.45733,-10.48567 0.0228,-4.09373 0.13193,-8.11209 0.24288,-8.92968 0.25916,-1.90973 -0.11206,-14.58042 -0.45992,-15.69672 -0.59815,-1.91949 -3.43401,-5.36285 -4.73976,-5.7552 z m 5.69677,61.90537 c -0.018,0.1808 0.7718,1.07654 0.96122,1.24891 4.96382,4.20826 11.58083,4.1807 17.55138,4.61471 1.18663,0.30194 1.30565,0.29674 2.92902,-0.12609 1.91012,-0.49753 2.0017,-0.5811 3.44579,-3.15123 4.52124,-8.04653 5.0437,-6.05241 11.21223,-18.94768 0.10442,-0.21828 0.34623,-0.64891 0.53744,-0.95705 0.83201,-1.34081 0.49435,-1.4242 -5.77329,-1.4242 h -5.78931 l -1.05989,-0.72761 -6.84816,-7.35666 -1.90427,-1.5968 c -1.47665,-0.65054 -1.04502,3.46935 -1.24437,6.01204 0.98425,1.42523 2.4524,3.07056 2.25102,3.95686 -1.29265,1.03894 -2.23948,0.46388 -3.19205,-0.0842 -0.80538,-1.42609 -0.44455,-2.75482 0.13022,-4.0659 -1.3906,-2.68364 -1.58834,-5.25822 1.15084,-6.64766 l -3.95583,-4.98057 c -0.31292,-0.37347 0.0568,-4.71115 0.13436,-7.57422 0.14739,-5.43576 0.0332,-6.08299 -1.00149,-5.68595 -1.19587,0.45889 -4.38372,5.66023 -4.38372,7.15253 0,0.35502 -0.46982,1.2071 -1.05833,1.91926 -1.10464,1.33678 -1.2697,2.06022 -0.78651,3.44631 0.0141,0.0405 2.15703,0.60006 1.57044,0.7245 -0.85726,0.18186 -3.04563,1.72095 -1.6061,4.95835 0.42218,0.94944 -0.80729,2.12344 -2.46238,4.11086 l 0.0904,11.27167 c 0.31854,5.20144 0.65634,11.95323 -0.76627,12.58011 z M 83.525091,127.0222 c -1.22394,-0.007 -1.346964,0.40733 -0.99167,3.8654 0.496097,4.82851 0.204555,8.21217 -2.038636,10.31358 -1.217769,1.1408 -1.119652,2.18221 -1.117761,2.42156 0.01091,1.38052 0.213347,3.95568 0.280086,5.45703 0.173554,3.90424 0.219685,9.10861 -0.364318,7.52564 -1.556855,-3.47024 -1.778815,-9.98699 -1.307414,-10.60969 l 0.412378,-1.27848 c -0.07585,0.006 -0.10466,0.0302 -0.196888,0.0305 -0.940301,0.003 -2.338206,1.23415 -7.304463,6.43217 -2.867617,3.00145 -3.855279,3.70245 -5.858557,4.16047 -3.31803,0.75861 -4.010172,2.45611 -2.495455,5.98981 0.657789,1.00022 1.81495,2.70647 2.772957,4.25091 0.742874,1.19761 3.547065,1.94889 3.725354,2.54661 0.124122,0.41612 -2.126085,0.88417 -2.565735,0.73019 -0.560907,-0.19644 -2.371047,-1.5386 -3.086116,-2.7988 -0.337715,-0.33451 -1.813591,-4.02343 -2.625163,-5.04207 -2.291008,-2.16369 -2.813645,-3.17436 -3.10317,-5.53247 l -0.163297,-1.33119 -2.552816,0.46871 c -0.874604,0.16054 -2.215884,-0.61663 -2.871143,-0.66353 l -1.190625,-0.0853 -0.0801,1.23869 c 0.96744,5.70875 6.515063,12.24214 8.768974,16.54421 1.467075,2.80023 5.604225,6.79081 7.186124,7.52409 0.582084,0.26984 1.301385,0.435 1.598352,0.3669 0.296966,-0.0681 1.606655,-0.24595 2.910417,-0.39481 1.303762,-0.14887 2.786527,-0.39091 3.294889,-0.53795 1.507057,-0.43594 2.804054,-0.30961 4.14445,0.40308 1.3518,0.71878 2.292193,0.70169 3.497461,-0.0631 0.796962,-0.50564 1.671374,-0.76452 4.783171,-1.41645 4.33924,-0.90909 4.568583,-1.88552 4.535123,-7.31325 -0.0122,-1.96453 -0.01504,-4.64343 -0.0067,-5.95312 0.01742,-2.73589 0.02243,-2.16113 -0.10077,-10.98021 l -0.09405,-6.74688 -1.999878,-2.18384 -0.0155,-8.16953 c -0.799784,-0.83445 -1.32657,-0.69629 -1.770435,-4.10001 -0.593816,-2.24646 -2.82057,-5.06194 -4.009058,-5.06894 z m 73.587239,54.16207 c -1.58461,-0.0478 -3.59126,0.7217 -5.55573,2.16938 l -0.92604,0.68212 -3.87109,0.0496 c -4.23016,0.054 -5.06088,0.25608 -6.59908,1.60611 -1.70908,1.43575 -5.24659,3.54482 -7.29361,3.26491 -6.8591,-1.16111 -13.74986,-1.57331 -20.40237,-3.3078 -2.63054,-0.0257 -4.44103,-0.58738 -5.25239,-1.62936 -0.95557,-1.22718 -2.4423,-1.35857 -18.493964,-1.63246 -19.63843,-0.33509 -19.976042,-0.31634 -19.976042,1.10432 0,0.8428 1.619459,2.60539 2.811715,3.06028 10.372369,4.14812 21.162556,16.18429 42.828911,17.50229 2.32833,0.14163 5.00723,0.35258 5.95312,0.46871 6.42198,0.78846 19.47006,-0.47927 24.12101,-2.34353 1.11564,-0.44719 2.29067,-0.81287 2.6107,-0.81287 0.61959,0 1.72155,-0.32717 5.94434,-1.76423 2.81889,-0.95931 2.82786,-0.96301 6.87916,-2.95124 7.07996,-3.47457 14.20794,-7.21886 15.875,-8.33903 5.10754,-3.43193 5.50705,-3.80255 4.89221,-4.54339 -1.56388,-1.88428 -14.43496,1.47325 -22.11906,-2.25826 -0.41722,-0.20261 -0.89859,-0.30962 -1.42679,-0.32556 z"
       sodipodi:nodetypes="ssssssssscscssccssssssscccsssssscsscsscccssssccsssscccssssccssssssssssscssscssssssscccscscscsccscscssssssssssssccccccssccccccccscccssccccssscccsccccscsccccssscssscccsscccscsssssscccscscssscccccccccccsscsssccccscssccccsscsssccccccccsssscscsccccccccsccccccssscssssssccsscssc" /></g></svg>
