<?xml version="1.0" encoding="UTF-8" standalone="no"?>
<!-- Created with Inkscape (http://www.inkscape.org/) -->

<svg
   width="78.052086mm"
   height="81.463768mm"
   viewBox="0 0 78.052088 81.463767"
   version="1.1"
   id="svg1"
   xml:space="preserve"
   inkscape:version="1.4 (86a8ad7, 2024-10-11)"
   sodipodi:docname="StructuralTech.svg"
   xmlns:inkscape="http://www.inkscape.org/namespaces/inkscape"
   xmlns:sodipodi="http://sodipodi.sourceforge.net/DTD/sodipodi-0.dtd"
   xmlns="http://www.w3.org/2000/svg"
   xmlns:svg="http://www.w3.org/2000/svg"><sodipodi:namedview
     id="namedview1"
     pagecolor="#505050"
     bordercolor="#eeeeee"
     borderopacity="1"
     inkscape:showpageshadow="0"
     inkscape:pageopacity="0"
     inkscape:pagecheckerboard="0"
     inkscape:deskcolor="#505050"
     inkscape:document-units="mm"
     inkscape:zoom="1.4396184"
     inkscape:cx="88.217822"
     inkscape:cy="141.00959"
     inkscape:window-width="1920"
     inkscape:window-height="1010"
     inkscape:window-x="1529"
     inkscape:window-y="-6"
     inkscape:window-maximized="1"
     inkscape:current-layer="layer1" /><defs
     id="defs1" /><g
     inkscape:label="Layer 1"
     inkscape:groupmode="layer"
     id="layer1"
     transform="translate(-50.194405,-50.603144)"><path
       style="fill:#0c0e0c;stroke:none"
       d="m 83.267322,53.294679 v 0.264583 c 4.61649,2.90235 -2.932286,6.479538 -5.291667,7.768462 -5.015317,2.739852 -10.18148,5.876991 -15.610416,7.724358 -4.39567,1.495763 -8.558497,1.074943 -12.170834,4.615513 4.076513,2.689129 8.086108,-0.412382 11.90625,-2.322452 6.286565,-3.143283 12.539222,-6.345042 18.785417,-9.583798 2.336251,-1.211384 5.557077,-3.508272 8.202083,-3.814407 1.685209,-0.195046 4.836555,1.940555 6.35,2.697276 5.672695,2.83635 11.332065,5.754695 16.933335,8.723902 3.54474,1.879048 8.21163,4.957167 12.17083,5.681194 1.25468,0.229447 3.00336,-0.680938 3.70417,-1.646298 -1.83584,-0.964202 -3.5502,-2.547341 -5.55625,-3.160301 -2.76843,-0.845906 -5.60719,-0.773131 -8.46667,-1.918233 -4.65454,-1.863952 -9.06112,-4.557328 -13.49375,-6.886514 C 98.238247,60.128733 90.726904,56.598741 95.173572,53.559262 91.447818,48.8959 87.420117,50.485451 83.267322,53.294679 M 56.544405,76.048845 h 65.352085 l -2.91042,-1.866783 -8.73125,-4.542015 -14.552082,-6.835064 -6.614583,-2.469447 -5.55625,2.168109 -13.758333,6.342652 -9.525,4.946242 -3.704167,2.256306 m 10.847917,1.322917 c -1.642741,0 -6.455313,-0.805934 -7.540625,0.558566 -0.945638,1.188897 0.396875,3.560017 0.396875,4.997684 0,5.041613 0.264583,10.06063 0.264583,15.08125 0,1.061999 -0.597385,5.282328 0.352777,5.886978 0.87149,0.55459 4.486406,-3.49578 4.644908,-4.299478 1.086872,-5.511114 -0.30132,-11.845341 0.03675,-17.4625 0.11042,-1.834675 1.723753,-2.962933 1.844734,-4.7625 m 8.202083,13.229167 5.291667,1.058333 c 0.963083,-3.581508 0.180044,-7.215383 0.536514,-10.847917 0.105142,-1.07143 1.640436,-1.764459 1.227372,-2.881017 -0.389677,-1.053336 -7.016353,-0.974069 -7.55532,0 -0.550825,0.995498 0.46144,2.110784 0.499767,3.145601 0.117227,3.165108 0,6.3574 0,9.525 m 22.225,1.058333 c 1.728395,-0.653594 2.884543,-1.298742 4.762503,-0.79375 1.02468,-2.803172 0.15388,-6.800611 0.26458,-9.789583 0.0373,-1.005927 1.09754,-2.19918 0.54386,-3.145601 -0.54005,-0.923139 -6.85379,-1.076974 -7.49652,-0.205786 -0.775784,1.051535 1.228042,2.297878 1.374363,3.351387 0.475843,3.42607 -0.80574,7.321153 0.551214,10.583333 m 19.843743,12.435418 c 1.06078,-2.90188 0.34085,-7.456136 0.52182,-10.583335 0.14636,-2.529065 0.14182,-4.88679 0.0367,-7.408333 -0.064,-1.535093 5e-5,-3.778266 0.30133,-5.291667 0.17584,-0.883279 0.89232,-1.750943 0.32338,-2.638485 -0.91886,-1.43342 -4.20235,-0.804522 -5.68119,-0.801098 -0.55936,0.0013 -1.54555,-0.145397 -1.75654,0.558566 -0.37067,1.236754 1.74224,3.453568 1.75654,4.997684 0.0367,3.967975 0,7.938081 0,11.90625 0,1.539182 -0.42954,3.831105 0.0882,5.284318 0.46957,1.31804 3.13886,3.51154 4.40972,3.9761 m -52.916659,4.49792 c 2.707962,1.43362 2.159905,2.98364 2.116666,5.55625 l -3.939351,-0.38953 -1.256771,1.97703 -3.270544,5.55624 h 10.583333 c 1.107289,0 3.238966,0.40786 4.203934,-0.19108 1.253388,-0.77797 1.617206,-4.7755 2.366553,-6.15891 2.678274,-4.94451 7.713282,-8.81321 13.537846,-8.98849 5.992815,-0.18034 11.377083,4.2458 14.008213,9.25307 0.72746,1.38441 0.92979,5.06705 2.19751,5.89433 0.92563,0.60403 3.09014,0.19108 4.16719,0.19108 h 10.58333 c -0.312,-1.95414 -2.25331,-3.4975 -3.10885,-5.29166 -0.3102,-0.65051 -0.55851,-1.78291 -1.20532,-2.19016 -1.02924,-0.64805 -2.53819,0.71908 -3.59393,0.13964 -2.57553,-1.41359 0.5827,-4.77836 1.82269,-5.6224 -0.49304,-1.10702 -2.46937,-4.51797 -3.70417,-4.7331 -1.61289,-0.281 -4.37434,1.56731 -5.79143,0.41158 -2.10931,-1.72028 1.99032,-5.09608 0.41157,-6.945317 -0.94153,-1.102836 -3.24292,-2.641994 -4.6743,-1.932929 -1.341277,0.66443 -2.928288,2.840464 -4.49792,2.50619 -1.963752,-0.418208 -2.580099,-2.687283 -3.072107,-4.387672 -0.196362,-0.678625 -0.179406,-1.981953 -0.926042,-2.293053 -0.518678,-0.216117 -1.272726,-0.0882 -1.822684,-0.0882 -0.91133,0 -2.6388,-0.331206 -3.351386,0.35278 -1.797157,1.725028 -0.477276,5.452926 -3.527781,6.342648 -1.916226,0.558893 -3.332524,-1.945714 -5.027083,-2.55764 -1.343161,-0.485031 -3.634036,1.254123 -4.409723,2.27101 -1.371477,1.79794 2.248645,4.708393 0.632061,6.526393 -1.197196,1.34635 -4.241892,-0.28142 -5.747338,-0.22049 -1.431173,0.0579 -3.483262,3.73006 -3.704166,5.01239 m 24.341666,2.75607 c -4.718228,0.50241 -9.394581,4.14262 -10.032119,9.15018 -0.730265,5.73584 4.651226,11.80707 10.561286,11.56082 5.723875,-0.23849 10.366886,-6.05199 9.767536,-11.56082 -0.490999,-4.51295 -5.536169,-9.65709 -10.296703,-9.15018 z"
       id="path2521" /></g></svg>
