<?xml version="1.0" encoding="UTF-8" standalone="no"?>
<!-- Created with Inkscape (http://www.inkscape.org/) -->

<svg
   width="82.160568mm"
   height="77.035271mm"
   viewBox="0 0 82.160564 77.035272"
   version="1.1"
   id="svg1"
   xml:space="preserve"
   inkscape:version="1.4 (86a8ad7, 2024-10-11)"
   sodipodi:docname="ThreeHanded.svg"
   xmlns:inkscape="http://www.inkscape.org/namespaces/inkscape"
   xmlns:sodipodi="http://sodipodi.sourceforge.net/DTD/sodipodi-0.dtd"
   xmlns="http://www.w3.org/2000/svg"
   xmlns:svg="http://www.w3.org/2000/svg"><sodipodi:namedview
     id="namedview1"
     pagecolor="#505050"
     bordercolor="#eeeeee"
     borderopacity="1"
     inkscape:showpageshadow="0"
     inkscape:pageopacity="0"
     inkscape:pagecheckerboard="0"
     inkscape:deskcolor="#505050"
     inkscape:document-units="mm"
     inkscape:zoom="1.4396184"
     inkscape:cx="94.122165"
     inkscape:cy="164.62696"
     inkscape:window-width="1920"
     inkscape:window-height="1010"
     inkscape:window-x="4601"
     inkscape:window-y="-6"
     inkscape:window-maximized="1"
     inkscape:current-layer="layer1"
     showgrid="false" /><defs
     id="defs1" /><g
     inkscape:label="Layer 1 copy"
     inkscape:groupmode="layer"
     id="g2"
     transform="matrix(1.0612913,0,0,1.0543325,-68.5288,-100.78781)"
     style="fill:#ffffff"><path
       id="path2"
       style="fill:#ffffff;stroke-width:0.910604"
       d="m 103.1755,95.760483 c -4.543724,0.05092 -10.015132,1.001532 -13.375882,2.384116 -0.599496,0.24663 -1.08419,0.60375 -1.122027,0.827 -0.03664,0.21611 -0.09093,2.780301 -0.12096,5.698221 -0.03004,2.91792 -0.0638,5.80196 -0.07501,6.40914 -0.01118,0.6072 0.07351,1.15984 0.188162,1.2285 l 0.25536,1.56628 3.304518,0.15711 -3.242953,3.6663 1.107286,3.1522 0.551475,-0.0354 v 0.46653 c -0.08459,0.71449 0.0071,1.03517 0.238886,1.4144 0.400043,0.65462 1.715877,1.52366 2.146073,1.41791 l 1.235617,-0.7646 1.334899,1.03386 c 0.0083,0.005 0.01617,0.0128 0.02515,0.0192 l 0.01127,0.009 0.0026,4.4e-4 c 0.129659,0.0934 0.282215,0.19317 0.47127,0.30636 0.568187,0.34021 1.363915,0.66657 1.768016,0.72576 0.935447,0.13702 2.12492,-0.0643 2.3234,-0.39365 l 0.54323,-0.37837 0.0204,0.64589 1.44849,0.6568 c 0.06,0.0308 0.12038,0.0605 0.19033,0.086 l 0.0373,0.0175 0.0139,-4.3e-4 c 0.62467,0.21173 1.57976,0.2389 2.51676,0.031 l 1.37436,-0.30505 1.7472,0.50667 c 0.51222,0.30147 2.99223,0.45758 4.14647,0.26098 0.84371,-0.14372 1.25918,-0.31843 1.48881,-0.81958 v -0.002 c 0.13777,-0.30072 0.20854,-0.71882 0.2649,-1.3184 0.0883,-0.93975 -0.007,-1.90398 -0.19553,-2.67346 l 0.22804,-0.18242 0.54064,-2.84889 c 0.25245,-0.14903 0.43477,-0.36256 0.68328,-0.71834 1.07346,-1.53708 1.16784,-4.25955 0.26706,-7.70484 -0.62458,-2.38905 -1.0927,-2.87499 -5.16618,-5.36829 l -3.21564,-1.96779 -0.0447,-3.176201 c -0.0247,-1.74681 0.006,-3.26028 0.0685,-3.363421 0.20703,-0.343555 -0.47546,-0.548651 -2.10315,-0.631925 -0.60238,-0.03082 -1.2325,-0.04175 -1.88161,-0.03448 z M 91.790913,125.59575 c -0.063,-0.003 -0.12798,1.3e-4 -0.195965,0.008 -0.326325,0.0371 -0.718807,0.19196 -1.258161,0.45256 -0.845336,0.40842 -1.617834,0.98647 -2.176854,1.54402 l -0.271403,-0.10124 -2.701882,1.00505 c -0.255637,-0.13899 -0.5306,-0.1847 -0.960314,-0.21384 -1.856349,-0.12576 -4.22272,1.19544 -6.697478,3.73917 -1.716065,1.76388 -1.891305,2.41399 -1.937535,7.17853 l -0.03642,3.76099 -2.681939,1.67365 c -1.475021,0.92055 -2.779619,1.67363 -2.899148,1.67363 -0.398145,0 -0.224923,0.68857 0.534134,2.12227 2.247298,4.24469 6.476785,9.35893 9.780885,11.82719 0.51572,0.38525 1.066959,0.61548 1.276371,0.53285 0.202726,-0.08 2.414037,-1.35371 4.914288,-2.83056 2.500248,-1.47686 4.973732,-2.93335 5.496545,-3.23643 0.522814,-0.30307 0.950342,-0.66007 0.950342,-0.7934 l 1.203535,-1.02469 -1.551242,-2.90475 4.775985,0.8833 2.601302,-2.14453 -0.643824,-0.99982 0.003,-0.007 c 0.651607,-0.29564 1.122745,-0.64971 1.327525,-1.04303 0.35351,-0.67891 0.423,-2.25077 0.11359,-2.56392 l -1.281568,-0.66203 0.199866,-1.6732 c 0.0011,-0.0107 0.0029,-0.02 0.0039,-0.031 l 0.0017,-0.0144 -0.0013,-0.003 c 0.01342,-0.15889 0.02038,-0.34052 0.02038,-0.56035 0,-0.66068 -0.127461,-1.50865 -0.283108,-1.88442 -0.360302,-0.86987 -1.138338,-1.78231 -1.520025,-1.78231 l -0.599166,-0.2697 0.539769,-0.34957 -0.179489,-1.57587 c -0.0047,-0.0671 -0.0095,-0.13393 -0.02341,-0.20687 l -0.0048,-0.0406 -0.0083,-0.0118 c -0.138202,-0.64279 -0.602026,-1.47278 -1.256862,-2.16635 l -0.960312,-1.01728 -0.459563,-1.75393 c -0.0045,-0.59292 -1.136022,-2.79218 -1.892012,-3.67721 -0.483529,-0.56605 -0.820251,-0.83983 -1.261197,-0.85799 z m 27.416827,0.12525 -0.26229,0.52064 -0.1977,0.41328 c -0.57611,-0.42582 -1.38691,-0.59604 -1.82784,-0.58217 -0.76112,0.0239 -2.15479,0.73613 -2.27354,1.16129 l 0.0572,1.44845 -1.5456,0.64763 c -0.01,0.004 -0.0186,0.008 -0.0286,0.0122 l -0.0135,0.005 -0.002,0.002 c -0.14408,0.0663 -0.30451,0.1494 -0.49468,0.25748 -0.57154,0.32481 -1.24242,0.85364 -1.49098,1.17482 -0.57537,0.74348 -0.98233,1.8741 -0.79469,2.20868 l 0.0612,0.65767 -0.56752,-0.30112 -1.27508,0.93216 c -0.0559,0.037 -0.11107,0.0742 -0.16735,0.1222 l -0.0329,0.0236 -0.005,0.0131 c -0.48812,0.43717 -0.97794,1.25182 -1.256,2.16678 l -0.40797,1.34196 -1.29111,1.26516 c -0.51072,0.29542 -1.85704,2.36865 -2.251,3.46641 -0.28795,0.80244 -0.33993,1.24869 -0.019,1.69502 h -8.9e-4 c 0.19257,0.26779 0.51914,0.53604 1.00975,0.88069 0.76892,0.54017 1.64904,0.93274 2.40621,1.14863 l 0.0459,0.28804 2.19767,1.87394 c 0.005,0.29242 0.10092,0.55603 0.28701,0.94701 0.80386,1.68901 3.11027,3.11339 6.52752,4.03201 2.3696,0.63699 3.0182,0.47119 7.16268,-1.83074 l 3.27157,-1.81722 2.76648,1.52787 c 1.52155,0.84033 2.81437,1.61383 2.87314,1.71859 0.19575,0.349 0.70627,-0.14152 1.57335,-1.51173 2.56715,-4.05674 4.91202,-10.27835 5.42284,-14.38805 0.0798,-0.64146 0.008,-1.23787 -0.16648,-1.3808 -0.16885,-0.1384 -2.35803,-1.45062 -4.86486,-2.9161 -2.50685,-1.46548 -4.98296,-2.91755 -5.50219,-3.22683 -0.51923,-0.30925 -1.03834,-0.50805 -1.15367,-0.44251 l -1.47797,-0.55119 -1.75024,2.78779 -1.5842,-4.62073 z" /></g><g
     inkscape:label="Layer 1"
     inkscape:groupmode="layer"
     id="layer1"
     transform="translate(-62.157235,-93.813906)"><path
       style="display:inline;fill:#000000;stroke-width:0.890392"
       d="m 97.110667,160.54951 c -1.154765,-1.98267 -1.795784,-3.11653 -2.696984,-4.77055 -0.388286,-0.71263 -0.786877,-1.40171 -0.885762,-1.53128 -0.09888,-0.12957 -0.509836,-0.87166 -0.913228,-1.64908 l -0.733442,-1.4135 1.123843,-0.15605 c 0.618113,-0.0858 1.706909,-0.16693 2.419547,-0.18023 1.186468,-0.0222 1.893072,-0.20137 3.533743,-0.89631 0.323926,-0.13721 0.662556,-0.18104 0.752512,-0.0974 0.138092,0.12839 4.443544,7.54481 5.900704,10.16434 0.25227,0.45349 0.55469,0.92525 0.67204,1.04834 0.11737,0.12309 0.21339,0.41462 0.21339,0.64785 0,0.3926 -0.31372,0.42405 -4.2301,0.42405 h -4.230095 z m -17.630328,0.20204 c -3.275463,-2.38051 -7.468093,-7.31292 -9.695914,-11.40673 -0.752477,-1.38274 -0.924313,-2.04684 -0.52962,-2.04684 0.118494,0 1.411818,-0.72642 2.874055,-1.61425 l 2.658612,-1.61426 0.03618,-3.62746 c 0.04583,-4.59518 0.219754,-5.22201 1.920946,-6.9232 2.45331,-2.45331 4.799106,-3.72741 6.639366,-3.60612 0.970994,0.064 1.150027,0.18022 2.103786,1.36566 0.573361,0.71264 1.322179,1.61374 1.664039,2.00245 1.674932,1.90448 2.414992,2.96103 2.343772,3.34609 -0.09427,0.50967 -1.530593,1.25054 -2.737364,1.41196 -0.726611,0.0972 -1.08401,-0.0271 -2.111471,-0.73424 -0.731465,-0.50344 -1.23681,-0.72657 -1.23681,-0.5461 0,0.16784 0.583068,1.4992 1.295706,2.95859 1.14084,2.33628 1.295705,2.82594 1.295705,4.09679 0,1.40373 -1.025386,5.96678 -1.442017,6.4171 -0.27417,0.29634 -0.265914,1.0719 0.01141,1.0719 0.459849,0 1.565149,-2.81559 2.073719,-5.2825 0.104794,-0.50832 0.294497,-0.95414 0.421563,-0.99073 0.219603,-0.0632 4.942685,9.12865 4.942685,9.61925 0,0.12858 -0.424049,0.47294 -0.942332,0.76524 -0.518282,0.29231 -2.97026,1.69686 -5.448841,3.12122 -2.478581,1.42436 -4.67094,2.65285 -4.871909,2.72997 -0.207598,0.0797 -0.754019,-0.14223 -1.265268,-0.51379 z m 27.301651,-1.13083 c -1.74034,-3.00255 -3.11196,-5.47417 -3.11196,-5.60768 0,-0.0733 0.43723,-0.89853 0.97162,-1.83394 0.53438,-0.93541 1.17985,-2.07179 1.43436,-2.52529 0.79212,-1.41143 0.98715,-1.5302 2.00958,-1.22388 0.80407,0.24091 0.93402,0.38959 1.19573,1.36805 0.22377,0.83667 0.63511,1.43194 1.72946,2.50276 l 1.43586,1.40498 -0.50565,0.97773 c -1.09298,2.11337 -3.70212,6.36521 -3.95842,6.45064 -0.14907,0.0497 -0.68933,-0.63133 -1.20058,-1.51337 z m 10.82015,-5.62712 c -1.98911,-0.4194 -4.69611,-1.76363 -5.89543,-2.92753 -0.81807,-0.79391 -0.96919,-1.08804 -0.96919,-1.88636 0,-0.52019 0.0971,-1.12987 0.21578,-1.35487 0.44071,-0.8355 0.93687,-2.1182 1.65961,-4.29053 0.40849,-1.22781 0.85962,-2.30462 1.00249,-2.39292 0.5443,-0.33641 1.83697,0.52241 2.70167,1.79492 0.40852,0.6012 0.5456,1.13162 0.5456,2.11114 0,0.71951 -0.10601,1.3082 -0.23558,1.3082 -0.12957,0 -0.23558,0.12957 -0.23558,0.28794 0,0.48322 0.84099,-0.51321 2.52537,-2.99213 1.52631,-2.24629 1.67454,-2.38879 3.33397,-3.20487 0.95515,-0.46974 2.75736,-1.09411 4.00491,-1.38749 1.24754,-0.29339 2.42728,-0.59688 2.62164,-0.67442 0.70129,-0.27981 -1.79727,-0.30759 -3.06257,-0.034 -1.2596,0.2723 -1.5125,0.35159 -2.89698,0.9082 -1.28783,0.51775 -1.33855,0.62696 2.21556,-4.7716 2.40392,-3.65148 2.96569,-4.36649 3.33786,-4.24837 0.24613,0.0781 2.84996,1.54069 5.78632,3.25016 l 5.33883,3.10814 -0.0712,1.28661 c -0.0392,0.70763 -0.15953,1.60463 -0.26742,1.99335 -0.10789,0.38871 -0.33514,1.34282 -0.505,2.12025 -0.71718,3.28254 -4.53322,11.42576 -5.35429,11.42576 -0.19363,0 -1.15757,-0.46429 -2.14209,-1.03177 -0.9845,-0.56748 -2.19079,-1.25655 -2.68062,-1.53129 -0.89446,-0.50168 -1.94699,-0.65971 -2.09344,-0.31432 -0.23961,0.56508 -5.50881,3.43974 -6.67485,3.64152 -0.38871,0.0673 -1.38111,-0.0199 -2.20532,-0.19367 z m -26.072795,-4.57751 c -0.69955,-0.26377 -1.098962,-0.83816 -1.011132,-1.45412 0.05766,-0.40438 0.283898,-0.58172 0.90152,-0.7067 0.453497,-0.0918 1.301595,-0.28524 1.884663,-0.42993 0.583067,-0.1447 1.358948,-0.32268 1.72418,-0.39551 0.365233,-0.0728 1.531367,-0.4305 2.591412,-0.79483 1.19726,-0.41149 2.011973,-0.5791 2.150741,-0.44247 0.306731,0.30202 0.237491,1.81775 -0.112934,2.47253 -0.510773,0.9544 -2.642587,1.68577 -5.293277,1.81601 -1.295705,0.0637 -2.571533,0.0345 -2.835173,-0.065 z m 15.735965,-2.77105 c -1.74333,-0.90793 -2.65294,-1.7699 -2.65294,-2.514 0,-1.1627 1.97065,-4.37171 2.68466,-4.37171 0.15783,0 1.18203,0.36261 2.276,0.8058 1.72321,0.69812 1.98517,0.87915 1.96017,1.35461 -0.0341,0.64883 -1.44804,4.65857 -1.79263,5.08376 -0.36816,0.45427 -1.12523,0.34463 -2.47526,-0.35846 z m -18.443332,-1.52619 c -0.931339,-2.0518 -0.96454,-2.01316 3.678052,-4.27948 2.278579,-1.1123 4.274334,-2.02237 4.435008,-2.02237 0.37838,0 1.150041,0.88012 1.50722,1.71906 0.154299,0.36242 0.280542,1.18028 0.280542,1.81748 0,0.89296 -0.101571,1.2129 -0.44309,1.39568 -0.626677,0.33538 -2.279712,0.85895 -3.7974,1.20276 -0.712638,0.16143 -1.996215,0.49029 -2.852393,0.7308 -2.166017,0.60845 -2.286779,0.5842 -2.807939,-0.56393 z m 27.984982,-3.57531 c -0.48413,-0.56779 -1.37306,-1.27091 -1.97539,-1.5625 -1.05471,-0.51057 -1.12269,-0.51531 -1.84112,-0.12841 -0.62496,0.33656 -0.85867,0.35521 -1.44056,0.11496 -0.38202,-0.15773 -1.17164,-0.46096 -1.7547,-0.67385 -0.87008,-0.31768 -1.07392,-0.50522 -1.13711,-1.04618 -0.0424,-0.36252 0.054,-0.99226 0.21425,-1.39944 0.31519,-0.80118 1.34686,-2.03602 1.70102,-2.03602 0.12036,0 0.7243,0.37103 1.34208,0.82454 0.61779,0.45349 1.1931,0.82453 1.27847,0.82453 0.0854,0 1.01307,0.63732 2.06153,1.41626 1.04846,0.77894 2.31606,1.64656 2.81689,1.92805 1.08531,0.60998 1.14786,1.10163 0.26275,2.06515 l -0.64786,0.70525 z m -30.039988,-0.53731 c -0.434117,-0.93476 -0.372103,-1.48248 0.16785,-1.48248 0.254281,0 1.044973,-0.218 1.757094,-0.48444 1.461825,-0.54693 2.490107,-1.59204 2.496481,-2.53732 0.0042,-0.62596 0.642357,-1.28306 2.519217,-2.59409 l 0.756593,-0.5285 0.952235,0.98122 c 0.909685,0.93736 1.459673,2.13959 1.248715,2.72958 -0.125362,0.3506 -8.597287,4.55442 -9.173536,4.55196 -0.236594,-8.9e-4 -0.562686,-0.28718 -0.724649,-0.63593 z m 30.566868,-3.39592 c -1.10135,-0.78347 -2.70694,-1.89487 -3.56797,-2.46977 -0.86104,-0.5749 -1.68793,-1.19276 -1.83753,-1.37303 -0.59031,-0.71127 0.95033,-2.90271 2.499,-3.55467 0.52454,-0.22083 0.79527,-0.21739 1.25742,0.0159 0.84191,0.42507 6.12515,5.9212 6.12515,6.37196 0,0.35916 -0.72153,1.52953 -1.33002,2.15736 -0.50645,0.52255 -1.10489,0.30422 -3.14605,-1.1478 z m 2.7599,-4.99248 c -1.32359,-1.33641 -2.87372,-2.83534 -3.44475,-3.33097 -1.12665,-0.97787 -1.1264,-1.37111 8.9e-4,-1.95105 1.2619,-0.64899 2.92048,-0.15321 4.48119,1.33951 0.76602,0.73264 2.56317,3.99603 2.56317,4.65437 0,0.70299 -0.56947,1.71799 -0.96389,1.71799 -0.12673,0 -1.31336,-1.09343 -2.63695,-2.42985 z m -31.645165,0.2507 c -0.879968,-1.06895 -1.684573,-1.97889 -1.788012,-2.02208 -0.821468,-0.343 0.821173,-2.16729 2.780975,-3.08851 1.425814,-0.67021 1.815023,-0.61475 2.691526,0.38353 0.749438,0.85356 1.871266,2.97448 1.875778,3.54631 0.0023,0.29791 -3.400324,3.12432 -3.761317,3.12432 -0.109455,0 -0.918982,-0.87461 -1.79895,-1.94357 z m 35.391465,-2.413 c -0.89576,-1.53129 -2.10272,-2.90176 -3.34293,-3.79584 -0.78135,-0.56328 -0.76887,-0.61262 0.78051,-3.08536 0.42233,-0.67402 0.76787,-1.27005 0.76787,-1.3245 0,-0.0545 0.58308,-1.07079 1.29571,-2.25852 0.71264,-1.18772 1.29571,-2.19211 1.29571,-2.23195 0,-0.0399 0.50815,-0.92681 1.12923,-1.97101 0.94698,-1.59216 1.19411,-1.86224 1.53129,-1.67355 0.22112,0.12374 0.40205,0.3122 0.40205,0.41877 0,0.10658 0.5796,1.15978 1.28801,2.34045 0.7084,1.18067 1.55117,2.64103 1.87282,3.24524 l 0.58481,1.09858 -0.54503,0.96645 c -2.50309,4.43854 -5.5719,9.40137 -5.96277,9.64296 -0.11911,0.0736 -0.61289,-0.54367 -1.09728,-1.37172 z m -44.679877,-1.45961 c -0.189261,-0.23473 -0.495463,-0.6918 -0.680447,-1.01573 -2.4212,-4.23976 -3.315198,-5.88509 -3.315198,-6.10134 0,-0.17913 1.303803,-0.25939 4.213951,-0.25939 h 4.213951 l 1.240281,2.17913 c 0.682154,1.19853 1.427209,2.51093 1.655677,2.91645 l 0.415399,0.73731 -0.863494,0.81741 c -0.799119,0.75646 -0.907403,0.79397 -1.452452,0.50298 -0.774116,-0.41329 -2.243045,-0.38843 -3.415951,0.0578 -1.577009,0.59999 -1.656033,0.60648 -2.011717,0.16536 z m 28.603387,-4.29644 c -0.52583,-0.22686 -0.65919,-0.68748 -0.92851,-3.20725 -0.17605,-1.64709 -0.0158,-1.87782 1.42886,-2.05672 0.51828,-0.0642 1.615,-0.23906 2.43716,-0.38863 2.01502,-0.36657 2.33118,-0.23383 2.52523,1.06019 0.24186,1.61286 0.0159,3.82033 -0.43746,4.2737 -0.45171,0.45171 -4.17036,0.68755 -5.02528,0.31871 z m -6.05442,-0.36293 c -0.42617,-0.42617 -0.41348,-1.29698 0.0876,-6.01526 0.13074,-1.23092 0.26116,-2.71509 0.28983,-3.29815 l 0.0521,-1.06013 1.14783,-0.073 1.14783,-0.073 -0.16941,0.77973 c -0.0932,0.42885 -0.22143,1.57431 -0.28501,2.54547 -0.11417,1.74351 -0.10647,1.77339 0.6123,2.37344 0.6464,0.53964 0.75432,0.81582 0.96351,2.46579 0.29335,2.31365 0.14004,2.52144 -1.95899,2.65509 -1.17251,0.0746 -1.57732,0.0103 -1.88767,-0.30002 z m -4.696537,-0.45146 c -0.870565,-0.32141 -1.527112,-0.74038 -1.889074,-1.20552 -0.201337,-0.25871 -0.02987,-2.01493 0.287511,-2.94478 0.110564,-0.32392 0.488946,-1.64908 0.840848,-2.94478 0.943527,-3.47406 0.952888,-3.48814 2.229562,-3.35218 0.586245,0.0624 1.334683,0.22137 1.66319,0.35319 l 0.5973,0.23968 -0.17881,2.32198 c -0.0983,1.2771 -0.24394,3.34811 -0.32355,4.60225 -0.0796,1.25415 -0.268278,2.44921 -0.419259,2.65569 -0.385472,0.52716 -1.759479,0.66148 -2.807718,0.27447 z m -5.393837,-1.55332 c -1.353744,-1.11588 -1.335568,-3.27495 0.05035,-5.98075 1.42841,-2.78875 1.608456,-2.97354 2.898841,-2.97536 1.361933,-0.002 1.352201,-0.24731 0.154074,3.88551 -0.542364,1.87083 -1.18204,4.68366 -1.18204,5.19775 0,0.81313 -0.848638,0.75696 -1.921223,-0.12715 z m 23.254814,-1.94912 c -0.0493,-0.16196 -0.20095,-0.64324 -0.33699,-1.0695 -0.22218,-0.69617 -0.18599,-0.82799 0.35564,-1.2957 0.81442,-0.70328 1.40213,-1.92669 1.60817,-3.34769 0.0939,-0.64785 0.27987,-1.31042 0.41318,-1.4724 0.17698,-0.21502 1.34895,-0.29447 4.34362,-0.29447 3.42203,0 4.12363,0.0583 4.2364,0.35217 0.13283,0.34616 -3.49761,6.89483 -4.01468,7.24177 -0.14187,0.0952 -1.66594,0.17471 -3.38682,0.17668 -2.30081,0.003 -3.15259,-0.0744 -3.21852,-0.29086 z m -39.703814,-0.35338 c 0.0028,-0.22675 0.212549,-0.6773 0.465928,-1.00123 0.253378,-0.32392 0.463045,-0.6786 0.465927,-0.78817 0.0028,-0.10957 0.202108,-0.48061 0.442726,-0.82454 0.240618,-0.34392 0.702899,-1.10238 1.02729,-1.68544 0.324391,-0.58308 0.799144,-1.43117 1.055005,-1.88467 l 0.465204,-0.82454 5.666587,-0.063 c 3.432188,-0.0382 5.915035,0.0314 6.296668,0.17654 l 0.630082,0.23955 -1.05623,2.00196 c -0.796781,1.5102 -1.096529,2.37825 -1.220288,3.53389 l -0.164057,1.53195 h -7.04004 c -6.549741,0 -7.039675,-0.0287 -7.034802,-0.41227 z m 30.208254,-1.63077 c -0.40044,-0.15838 -0.37648,-1.94366 0.0394,-2.9391 0.45262,-1.08326 1.08486,-1.60703 2.55141,-2.11367 0.68056,-0.2351 1.13135,-0.43302 1.00178,-0.4398 -0.12957,-0.007 -1.76547,-0.16797 -3.63533,-0.35819 -3.11294,-0.31666 -3.50671,-0.41066 -4.66769,-1.11429 -0.697361,-0.42265 -2.177816,-1.69827 -3.289886,-2.83472 -1.112071,-1.13644 -2.077291,-2.01091 -2.144935,-1.94327 -0.274716,0.27471 0.64381,1.52403 2.485469,3.38055 1.07077,1.07941 1.946855,2.01938 1.946855,2.08882 0,0.0695 -0.238528,0.0614 -0.530062,-0.0177 -0.291533,-0.0792 -2.647071,-0.25931 -5.234529,-0.40023 -2.587458,-0.14092 -4.893224,-0.35723 -5.123927,-0.4807 -0.386578,-0.20689 -0.419458,-0.73124 -0.419458,-6.68929 0,-6.446538 0.0015,-6.465773 0.530062,-6.804533 1.199024,-0.76846 6.798614,-2.228429 10.42454,-2.717966 2.700821,-0.364639 6.590011,-0.331355 6.914121,0.05918 0.15257,0.183834 0.28447,1.687216 0.32332,3.685138 0.0528,2.714481 0.13475,3.410311 0.419,3.557011 0.19435,0.1003 0.72441,0.34488 1.17791,0.54349 0.4535,0.19863 1.66345,0.89347 2.68879,1.54409 1.02533,0.65062 1.93082,1.21252 2.01221,1.24866 0.3723,0.16531 1.36941,1.80656 1.61428,2.65711 0.62823,2.18216 0.74964,2.91363 0.75089,4.52389 8.9e-4,1.56199 -0.12123,2.1293 -0.7586,3.51498 -0.24072,0.52332 -1.29093,0.92997 -2.89161,1.11965 -0.95531,0.11319 -4.8881,0.79366 -5.5362,0.95789 -0.19436,0.0492 -0.4859,0.0371 -0.64786,-0.0269 z"
       id="path1" /></g></svg>
