<?xml version="1.0" encoding="UTF-8" standalone="no"?>
<!-- Created with Inkscape (http://www.inkscape.org/) -->

<svg
   width="75.307556mm"
   height="76.709389mm"
   viewBox="0 0 75.307555 76.709391"
   version="1.1"
   id="svg1"
   xml:space="preserve"
   inkscape:version="1.4 (86a8ad7, 2024-10-11)"
   sodipodi:docname="ToHit.svg"
   xmlns:inkscape="http://www.inkscape.org/namespaces/inkscape"
   xmlns:sodipodi="http://sodipodi.sourceforge.net/DTD/sodipodi-0.dtd"
   xmlns="http://www.w3.org/2000/svg"
   xmlns:svg="http://www.w3.org/2000/svg"><sodipodi:namedview
     id="namedview1"
     pagecolor="#505050"
     bordercolor="#eeeeee"
     borderopacity="1"
     inkscape:showpageshadow="0"
     inkscape:pageopacity="0"
     inkscape:pagecheckerboard="0"
     inkscape:deskcolor="#505050"
     inkscape:document-units="mm"
     inkscape:zoom="1.4396184"
     inkscape:cx="64.600452"
     inkscape:cy="118.78148"
     inkscape:window-width="1920"
     inkscape:window-height="1010"
     inkscape:window-x="1529"
     inkscape:window-y="-6"
     inkscape:window-maximized="1"
     inkscape:current-layer="layer1" /><defs
     id="defs1" /><g
     inkscape:label="Layer 1"
     inkscape:groupmode="layer"
     id="layer1"
     transform="translate(-66.536882,-80.687525)"><path
       style="fill:#107975;stroke:none"
       d="m 124.34683,86.897542 c 0.004,6.218346 4.65688,8.787145 10.05416,10.31875 -1.76628,3.356958 -3.42522,7.042788 -1.84698,10.847918 0.58664,1.41437 3.72672,3.89047 3.53207,5.26798 -0.12663,0.8962 -1.53766,1.71778 -2.07421,2.40596 -1.08524,1.39194 -1.82549,3.26154 -1.96743,5.02606 -0.16766,2.08435 0.23449,3.93246 1.11918,5.82083 0.35222,0.75181 1.51131,1.98264 1.19328,2.85489 -0.7051,1.93385 -4.4551,2.64405 -5.5193,4.82191 -0.96424,1.97328 0.52463,6.03475 -0.94625,7.50939 -0.61538,0.61695 -1.94534,0.51911 -2.75077,0.73005 -1.89674,0.49675 -3.61552,1.18042 -5.00239,2.61521 -2.15272,2.22712 -2.85869,4.90717 -2.64685,7.92689 0.0697,0.99344 0.20706,2.58341 1.3268,2.96308 1.00043,0.33923 1.46943,-0.53164 1.54442,-1.37681 0.30985,-3.49178 -0.31588,-6.71514 3.45612,-8.62999 1.81786,-0.92283 6.89325,-0.33607 7.92505,-2.03234 0.56341,-0.92626 -0.25484,-2.41826 -0.48303,-3.35936 -0.47389,-1.95437 -0.51659,-4.39553 0.90665,-5.99926 1.24086,-1.39823 7.13836,-2.68832 7.04065,-4.58897 -0.0685,-1.33318 -1.8247,-2.4789 -2.59009,-3.43469 -1.49994,-1.87306 -2.25403,-3.96496 -1.73552,-6.35 0.45348,-2.08599 1.9294,-3.74566 3.75194,-4.79435 0.95546,-0.54977 3.21011,-0.94314 3.21011,-2.35021 0,-1.39236 -2.00565,-1.73482 -2.94553,-2.27407 -1.8043,-1.03522 -3.74968,-2.98372 -4.04286,-5.13345 -0.35211,-2.58187 0.63441,-4.87251 2.16404,-6.878966 0.63289,-0.830182 2.55263,-2.200637 2.0795,-3.412021 -0.54033,-1.383471 -2.499,-1.002749 -3.64026,-1.165514 -2.56038,-0.365163 -4.98804,-1.308161 -6.87407,-3.120284 -1.54649,-1.485891 -1.40483,-3.257165 -1.3176,-5.266967 0.0386,-0.888527 0.52446,-2.28996 -0.38994,-2.901841 -1.04126,-0.696768 -2.45372,0.440202 -3.32464,0.936651 -1.93344,1.102105 -4.06572,2.151766 -6.35,1.889444 -2.38374,-0.27374 -4.01606,-1.094894 -5.81675,-2.683396 -0.75081,-0.662322 -1.58288,-2.309339 -2.66135,-2.387984 -2.00587,-0.146277 -4.87786,3.274041 -7.13232,3.813592 -2.2516,0.538864 -4.706281,0.327418 -6.879167,-0.438927 -1.169294,-0.412394 -2.921503,-1.725379 -4.198013,-1.237998 -1.05163,0.401518 -1.1065,1.863711 -1.535443,2.745876 -0.738216,1.518213 -1.893798,2.988545 -3.073536,4.187398 -2.578121,2.61989 -5.952925,3.179611 -9.449258,2.767305 -0.685404,-0.08083 -2.742195,-0.396988 -2.742195,0.745974 0,1.286901 1.829969,1.486602 2.742195,1.600572 2.690243,0.336107 5.402539,0.134985 7.9375,-0.902561 2.070126,-0.847291 3.819625,-2.654198 5.131609,-4.43014 0.687888,-0.931144 1.286435,-2.600794 2.362877,-3.142751 0.964985,-0.485847 2.630276,0.383359 3.618014,0.585519 1.900751,0.389026 4.153108,0.287942 6.085417,0.152502 2.4161,-0.169346 4.15785,-2.015971 6.35,-2.316122 1.42992,-0.195789 3.64266,2.240819 5.02708,2.801194 3.84417,1.556002 7.73044,0.999971 11.37709,-0.725973 m -12.43542,53.445838 c -1.94626,-2.28721 -5.6737,-2.61561 -7.43936,-5.07588 -1.24294,-1.7319 -0.10634,-3.9309 0.10391,-5.77204 0.13469,-1.17945 -0.67966,-2.26401 -0.76333,-3.43958 -0.0812,-1.14127 0.37583,-2.29211 0.42586,-3.43959 l -11.906247,9.78959 c 0.727873,-2.58605 4.47698,-4.74145 6.350001,-6.61459 3.128346,-3.12855 4.609826,-6.34984 6.270176,-10.31875 0.35257,-0.84278 1.15759,-1.49094 1.38498,-2.38125 0.59994,-2.34901 -3.68189,-6.71837 -0.51141,-8.46666 0.43057,3.40392 1.31898,7.53563 5.29167,8.198 0.98526,0.16427 2.74339,0.64839 3.43121,-0.37524 0.96652,-1.43837 -0.63857,-5.42383 -0.92747,-7.02901 -0.38547,-2.14179 -0.28604,-6.181095 -1.82472,-7.834204 -1.0779,-1.158061 -3.14605,-1.495528 -4.64777,-1.645681 -4.09964,-0.409911 -10.514099,0.01416 -13.730567,2.935117 -5.062545,4.597418 -5.371089,12.181698 -9.638715,17.124018 -2.895145,3.35285 -8.754246,4.98112 -12.614052,7.04902 -1.283929,0.68787 -3.41258,1.33732 -4.225984,2.61705 -0.702956,1.10596 -0.271933,3.35874 -0.271933,4.62551 v 11.37708 11.64167 c 0,0.88456 -0.427289,3.37287 0.424232,3.9367 0.786618,0.52086 2.29849,-0.43546 3.015351,-0.7619 2.670018,-1.21587 5.378509,-2.37385 7.937501,-3.81625 3.027657,-1.70656 6.139534,-3.23259 8.995833,-5.23451 2.198835,-1.5411 4.766635,-3.94622 7.408334,-4.66287 1.823003,-0.49455 4.653075,0.26426 6.61458,0.2162 3.64158,-0.0892 7.58808,-1.00699 10.84792,-2.64195 m 6.08542,-40.894052 c -4.27002,0.686142 -2.89795,4.084872 -2.04215,7.291962 0.23866,0.89441 0.25173,2.61392 0.91563,3.27892 0.95992,0.96151 5.62848,-0.14913 6.94715,-0.39096 2.96529,-0.54379 3.51071,-7.28284 1.65977,-9.35126 -1.39472,-1.558584 -5.62151,-1.127364 -7.4804,-0.828662 m 3.70416,12.695912 c -1.15511,0.15167 -2.843,-0.17537 -3.89505,0.31195 -0.73547,0.34068 -0.76975,1.25785 -1.28106,1.80941 -0.75792,0.81759 -2.21739,1.10823 -3.29055,1.13694 -1.60053,0.0428 -4.65262,-2.00499 -5.88208,-0.63961 -0.98221,1.09079 -1.27516,4.12946 0.34134,4.7823 1.23013,0.4968 2.91251,0.0803 4.21782,0.20456 2.837,0.26998 5.63141,0.31378 8.46667,0.50794 1.2524,0.0858 2.68781,0.51424 3.93363,0.15678 2.51522,-0.72167 1.89465,-6.45155 0.56837,-7.95832 -0.65941,-0.74914 -2.31528,-0.42537 -3.17909,-0.31195 m -14.2532,9.8737 c -1.65507,0.71704 -1.98796,4.32844 -0.52427,5.33719 2.92925,2.01878 7.91482,2.71961 11.33789,3.52431 1.12578,0.26465 2.78855,0.89808 3.91976,0.37482 2.086,-0.96491 3.71351,-6.95899 1.33659,-8.29027 -1.21422,-0.68007 -3.1222,-0.34654 -4.4626,-0.3487 -2.69466,-0.004 -5.50383,-0.36807 -8.20208,-0.55285 -1.08605,-0.0744 -2.35019,-0.50162 -3.40529,-0.0445 m -0.74393,8.27762 c -1.69929,1.13028 -0.18008,4.08491 0.98565,4.9248 2.90503,2.09304 9.69924,5.60361 13.19303,3.08395 1.32697,-0.95699 2.57637,-3.38248 0.78314,-4.50384 -2.8504,-1.78242 -7.5445,-2.48167 -10.8126,-3.19215 -1.13873,-0.24755 -3.06424,-1.03444 -4.14922,-0.31276 z"
       id="path2509" /></g></svg>
