<?xml version="1.0" encoding="UTF-8" standalone="no"?>
<!-- Created with Inkscape (http://www.inkscape.org/) -->

<svg
   width="92.84214mm"
   height="75.699013mm"
   viewBox="0 0 92.842139 75.699015"
   version="1.1"
   id="svg1"
   xml:space="preserve"
   inkscape:version="1.4 (86a8ad7, 2024-10-11)"
   sodipodi:docname="UnavoidableKnockback.svg"
   xmlns:inkscape="http://www.inkscape.org/namespaces/inkscape"
   xmlns:sodipodi="http://sodipodi.sourceforge.net/DTD/sodipodi-0.dtd"
   xmlns="http://www.w3.org/2000/svg"
   xmlns:svg="http://www.w3.org/2000/svg"><sodipodi:namedview
     id="namedview1"
     pagecolor="#505050"
     bordercolor="#eeeeee"
     borderopacity="1"
     inkscape:showpageshadow="0"
     inkscape:pageopacity="0"
     inkscape:pagecheckerboard="0"
     inkscape:deskcolor="#505050"
     inkscape:document-units="mm"
     inkscape:zoom="1.4396184"
     inkscape:cx="103.49965"
     inkscape:cy="107.66742"
     inkscape:window-width="1920"
     inkscape:window-height="1010"
     inkscape:window-x="1529"
     inkscape:window-y="-6"
     inkscape:window-maximized="1"
     inkscape:current-layer="layer1" /><defs
     id="defs1" /><g
     inkscape:label="Layer 1"
     inkscape:groupmode="layer"
     id="layer1"
     transform="translate(-56.216621,-83.590249)"><path
       style="fill:#151614;stroke:none"
       d="m 119.18745,92.69474 c -3.07219,0 -6.49433,-0.423844 -9.525,0.08615 -1.58864,0.267337 -3.21559,2.016641 -4.7625,1.900466 -1.52399,-0.114456 -2.92838,-1.566806 -4.49792,-1.862904 -4.485163,-0.846145 -11.372613,-0.795219 -15.874995,-0.03756 -4.803057,0.808252 -8.161432,6.467778 -5.291666,10.761768 l -21.431248,7.40833 v 0.26458 c 5.911878,-0.004 12.471662,-1.96106 18.256248,-3.20562 1.639465,-0.35273 5.83217,-1.87319 7.321363,-1.01648 2.204827,1.26841 4.337748,6.69456 5.378636,8.9846 l -32.543747,5.29167 v 0.26458 l 22.489581,3.62863 10.31875,1.92762 v 0.26459 c -2.513259,1.96756 -3.602602,7.23273 -6.618463,8.41052 -1.726106,0.6741 -5.350894,-0.79067 -7.13987,-1.14796 -5.588373,-1.11609 -11.770961,-3.02546 -17.462498,-3.02923 v 0.26458 c 4.492955,1.77586 9.170874,3.16387 13.758332,4.67533 1.702839,0.56105 4.620505,1.02267 5.990689,2.18363 0.927194,0.78561 -0.15927,2.91072 -0.168631,3.98896 -0.02281,2.6274 1.266493,5.11058 3.703143,6.29876 3.658715,1.78409 10.716092,1.93723 14.55188,0.55652 1.346862,-0.48481 3.408565,-3.0964 4.521596,-3.0964 0.87854,0 1.5404,1.14997 2.1379,1.65732 1.02059,0.86661 2.36853,1.46019 3.65925,1.79084 4.06735,1.04194 9.29856,0.20129 13.49375,0.20129 -0.90151,3.17681 -2.69131,5.9206 0.52917,8.11103 0.62054,0.42207 1.53891,1.25576 2.35655,1.03119 0.89348,-0.24542 1.53258,-1.5617 2.02908,-2.26305 l 4.30826,-6.08542 c 5.01381,-7.02855 10.05141,-14.05378 14.94426,-21.16666 1.44685,-2.10332 5.2119,-5.61715 5.43396,-8.20209 0.0949,-1.10507 -1.07242,-2.33357 -1.66773,-3.175 l -5.0671,-7.14375 c -4.86527,-6.87673 -9.68382,-13.787287 -14.5876,-20.637499 -1.15359,-1.611473 -3.43019,-6.438044 -5.39313,-6.948784 -0.75381,-0.196137 -1.50398,0.391021 -2.09197,0.777213 -3.75645,2.467243 -1.2242,4.658453 -1.05833,8.288238 m -15.61042,21.695832 c 2.46809,-1.90485 4.11296,-5.78786 5.66854,-8.46666 0.51087,-0.87977 1.58203,-2.09092 1.55156,-3.15969 -0.0445,-1.56088 -2.80245,-1.34383 -2.03214,-3.449796 0.929,-2.539799 8.26812,-1.937684 10.42226,-1.464805 1.0819,0.237502 2.13564,1.013476 1.98376,2.248551 -0.1954,1.58898 -2.70421,2.01061 -3.65864,3.18398 -2.84024,3.49179 -5.30256,7.40307 -7.85666,11.10842 -0.83442,1.21053 -2.73329,3.01087 -2.90837,4.49792 -0.18691,1.58758 2.12596,4.21747 2.91225,5.55625 2.83516,4.82729 5.40543,9.92885 8.56446,14.55188 0.87743,1.28406 3.65734,2.02043 3.82952,3.45122 0.22624,1.88007 -1.66119,2.37573 -3.1307,2.55866 -2.92695,0.36436 -6.04747,0.0769 -8.99584,0.0757 -1.27514,-4.9e-4 -2.85151,0.0985 -3.92955,-0.72169 -2.91047,-2.21438 1.97191,-3.17676 1.4697,-5.10016 -1.1466,-4.39138 -4.65608,-8.56302 -6.53598,-12.69898 -2.466838,3.73988 -5.892477,8.44428 -7.300538,12.7 -0.652649,1.97256 3.165241,2.92541 1.131011,4.8758 -1.868729,1.79171 -7.36444,1.16722 -9.705471,0.74435 -1.23847,-0.22371 -2.629636,-0.90992 -2.292035,-2.43352 0.312166,-1.40879 3.302479,-2.48776 4.271714,-3.7158 2.771867,-3.512 5.047144,-7.45493 7.623101,-11.1125 1.010072,-1.43419 3.047626,-3.53518 3.337098,-5.29167 0.250482,-1.51991 -1.7437,-3.76506 -2.471687,-5.02708 -2.61293,-4.52974 -4.953896,-9.52829 -8.031002,-13.75731 -0.903808,-1.24215 -4.000498,-1.90583 -4.070217,-3.44469 -0.07163,-1.581037 1.677227,-2.256916 2.955944,-2.353285 3.314934,-0.249823 6.729608,-0.02388 10.054166,-0.02388 1.375312,0 3.022865,-0.193859 4.159636,0.755167 2.92338,2.440578 -2.456817,3.019308 -2.188733,5.066688 0.496715,3.79344 4.110323,7.15862 5.172843,10.84689 m 21.16667,-3.70416 -6.61458,0.79375 c 0.41673,-1.30551 3.17118,-6.45161 5.1361,-5.25655 0.96167,0.58488 1.32545,3.42273 1.47848,4.4628 m -68.262496,0.79375 v 0.26458 h 0.79375 l -0.79375,-0.26458 m 0.17639,19.66736 0.176388,0.0882 -0.176388,-0.0882 m 68.086106,1.4993 -1.05833,3.70417 c -2.06704,-0.23572 -3.3412,-2.88015 -3.70417,-4.7625 l 4.7625,1.05833 m -23.8125,4.7625 c 0.56486,2.13887 -1.747139,2.10989 -0.52917,0 z"
       id="path2509" /></g></svg>
