<?xml version="1.0" encoding="UTF-8" standalone="no"?>
<!-- Created with Inkscape (http://www.inkscape.org/) -->

<svg
   width="15.764155mm"
   height="16.374165mm"
   viewBox="0 0 15.764156 16.374164"
   version="1.1"
   id="svg1"
   xml:space="preserve"
   inkscape:version="1.4 (86a8ad7, 2024-10-11)"
   sodipodi:docname="UnderwaterCave.svg"
   xmlns:inkscape="http://www.inkscape.org/namespaces/inkscape"
   xmlns:sodipodi="http://sodipodi.sourceforge.net/DTD/sodipodi-0.dtd"
   xmlns="http://www.w3.org/2000/svg"
   xmlns:svg="http://www.w3.org/2000/svg"><sodipodi:namedview
     id="namedview1"
     pagecolor="#505050"
     bordercolor="#eeeeee"
     borderopacity="1"
     inkscape:showpageshadow="0"
     inkscape:pageopacity="0"
     inkscape:pagecheckerboard="0"
     inkscape:deskcolor="#505050"
     inkscape:document-units="mm"
     inkscape:zoom="8"
     inkscape:cx="25"
     inkscape:cy="37.75"
     inkscape:window-width="1920"
     inkscape:window-height="1010"
     inkscape:window-x="4601"
     inkscape:window-y="-6"
     inkscape:window-maximized="1"
     inkscape:current-layer="layer1" /><defs
     id="defs1" /><g
     inkscape:label="Layer 1"
     inkscape:groupmode="layer"
     id="layer1"
     transform="translate(-68.54602,-129.03622)"><path
       style="fill:#000000;fill-opacity:1"
       d="m 68.680241,144.44722 c 0.0052,-0.55368 0.179531,-1.30434 0.387499,-1.66814 0.207968,-0.36381 0.378124,-1.07818 0.378124,-1.5875 0,-0.50933 -0.170156,-1.2237 -0.378124,-1.5875 -1.315139,-2.37512 0.05057,-3.12891 1.936124,-1.7198 0.982426,0.82666 1.106585,0.82531 1.106585,-0.012 0,-1.05642 -0.901797,-1.87313 -2.170787,-1.87313 -0.53203,0 -1.175064,0.1908 -1.187249,0.0239 -0.132464,-1.815 -0.11377,-2.27028 0.798256,-3.13009 0.483891,-0.45619 1.140612,-1.26325 1.459379,-1.79346 1.660379,-2.70028 6.390133,-2.46754 9.663404,-0.91883 0.606607,0.287 0.964755,1.08223 1.442513,1.44933 1.036746,0.79663 1.900734,1.2946 1.900734,2.31478 0,0.37829 -0.13357,0.26715 -0.859896,-0.36074 -3.798094,-3.28334 -9.151021,-1.49788 -9.677922,4.03027 -0.175402,1.84028 -0.173759,2.71524 -1.062185,3.25095 -1.057287,0.63753 -1.14986,2.86493 -1.282778,3.89826 0.07622,0.65066 -0.06612,0.70625 -1.206282,0.60981 -1.488281,0.0144 -1.256771,0.0806 -1.247395,-0.92604 z m 10.177083,0.40266 c -0.291042,-0.16189 -1.020293,-0.84288 -1.620558,-1.51331 -1.066663,-1.19133 -1.136136,-1.38459 -2.673701,-1.21895 -2.456063,0.26458 -1.566873,-0.37488 -0.29848,-1.47526 0.39391,-0.21082 0.491697,-0.57359 0.491697,-1.82412 0,-2.37472 0.729201,-3.77607 2.423707,-4.65781 3.063452,-1.59405 6.307543,0.6609 6.307543,4.38436 0,0.69154 0.178594,1.76353 0.396875,2.3822 0.617317,1.74966 0.54724,3.51819 -0.105749,2.66879 -0.490857,-0.63851 -0.490857,-0.63851 -0.804753,-0.052 -0.701446,1.31066 -2.870937,1.99899 -4.116581,1.30609 z m 3.037331,-2.32485 c 0.676734,-1.3265 0.753401,-4.90526 0.130874,-6.10909 -0.588253,-1.13756 -0.748884,-0.96239 -0.563546,0.61454 0.463608,2.96754 -1.286069,5.37781 -1.836262,3.67602 -0.488323,-0.69717 -1.99167,-1.36701 -3.068069,-1.36701 -1.187219,0 -0.944634,1.07404 0.315297,1.39597 1.185707,0.30296 1.75858,0.82631 2.127225,1.94332 0.0076,0.28301 0.103639,0.89962 0.354072,0.8953 l 1.948436,-0.0336 c 0.335009,-0.006 0.457035,-0.55903 0.591973,-1.01547 z m -8.947459,2.1383 c -0.194633,-0.12337 -0.313696,-0.5085 -0.264584,-0.85584 0.123301,-0.87205 1.381074,-1.03441 1.809652,-0.23361 0.51455,0.96145 -0.556053,1.71635 -1.545068,1.08945 z"
       id="path10"
       sodipodi:nodetypes="scsccsssccssssssccssccscscscccccscccsccsscsccsc" /></g></svg>
