<?xml version="1.0" encoding="UTF-8" standalone="no"?>
<!-- Created with Inkscape (http://www.inkscape.org/) -->

<svg
   width="500.69705mm"
   height="258.02881mm"
   viewBox="0 0 500.69707 258.0288"
   version="1.1"
   id="svg1"
   xml:space="preserve"
   inkscape:version="1.4 (86a8ad7, 2024-10-11)"
   sodipodi:docname="Upstream.svg"
   xmlns:inkscape="http://www.inkscape.org/namespaces/inkscape"
   xmlns:sodipodi="http://sodipodi.sourceforge.net/DTD/sodipodi-0.dtd"
   xmlns="http://www.w3.org/2000/svg"
   xmlns:svg="http://www.w3.org/2000/svg"><sodipodi:namedview
     id="namedview1"
     pagecolor="#505050"
     bordercolor="#eeeeee"
     borderopacity="1"
     inkscape:showpageshadow="0"
     inkscape:pageopacity="0"
     inkscape:pagecheckerboard="0"
     inkscape:deskcolor="#505050"
     inkscape:document-units="mm"
     inkscape:zoom="0.3599046"
     inkscape:cx="758.53434"
     inkscape:cy="552.9243"
     inkscape:window-width="1920"
     inkscape:window-height="1010"
     inkscape:window-x="4601"
     inkscape:window-y="-6"
     inkscape:window-maximized="1"
     inkscape:current-layer="layer1" /><defs
     id="defs1" /><g
     inkscape:label="Layer 1"
     inkscape:groupmode="layer"
     id="layer1"
     transform="translate(164.43235,-26.503483)"><path
       style="fill:#000000;fill-opacity:1;stroke-width:0.264999"
       d="m -160.89872,219.50648 c 15.93972,86.04574 116.421523,65.49493 153.680552,19.94909 41.190299,52.84283 137.516738,64.51734 191.939708,6.35275 71.83093,55.8231 152.48364,36.66105 151.53487,-33.22625 C 287.91513,244.02715 230.75207,235.77421 180.20535,201.05592 127.72257,256.92952 41.422957,248.8452 -8.1192302,194.44653 -42.137311,240.29242 -118.79401,242.0294 -160.89872,219.50648 Z m -2.81463,-87.10827 c 15.93972,86.04574 116.421527,65.49493 153.680557,19.94909 41.190299,52.84283 137.516743,64.51734 191.939703,6.35275 71.83094,55.8231 152.48365,36.66105 151.53488,-33.22625 -48.34128,31.44508 -105.50434,23.19214 -156.05107,-11.52615 -52.48277,55.8736 -138.782388,47.78928 -188.324576,-6.60939 -34.018081,45.84589 -110.674784,47.58287 -152.779494,25.05995 z m -0.719,-80.834776 c 15.93972,86.045736 116.42153,65.494926 153.68056,19.94909 41.190299,52.842826 137.51673,64.517336 191.9397,6.35275 71.83094,55.823096 152.48365,36.661046 151.53488,-33.22625 C 284.38151,76.084104 227.21845,67.831164 176.67172,33.112873 124.18894,88.986474 37.889335,80.902154 -11.652853,26.503483 -45.670934,72.349374 -122.32764,74.086354 -164.43235,51.563434 Z"
       id="path2"
       sodipodi:nodetypes="ccccccccccccccccccccc" /></g></svg>
