<?xml version="1.0" encoding="UTF-8" standalone="no"?>
<!-- Created with Inkscape (http://www.inkscape.org/) -->

<svg
   width="103.84343mm"
   height="107.46237mm"
   viewBox="0 0 103.84343 107.46238"
   version="1.1"
   id="svg1"
   xml:space="preserve"
   inkscape:version="1.4 (86a8ad7, 2024-10-11)"
   sodipodi:docname="VPIcon.svg"
   xmlns:inkscape="http://www.inkscape.org/namespaces/inkscape"
   xmlns:sodipodi="http://sodipodi.sourceforge.net/DTD/sodipodi-0.dtd"
   xmlns="http://www.w3.org/2000/svg"
   xmlns:svg="http://www.w3.org/2000/svg"><sodipodi:namedview
     id="namedview1"
     pagecolor="#505050"
     bordercolor="#eeeeee"
     borderopacity="1"
     inkscape:showpageshadow="0"
     inkscape:pageopacity="0"
     inkscape:pagecheckerboard="0"
     inkscape:deskcolor="#505050"
     inkscape:document-units="mm"
     inkscape:zoom="0.7198092"
     inkscape:cx="200.74764"
     inkscape:cy="266.73735"
     inkscape:window-width="1920"
     inkscape:window-height="1010"
     inkscape:window-x="4601"
     inkscape:window-y="-6"
     inkscape:window-maximized="1"
     inkscape:current-layer="layer1" /><defs
     id="defs1" /><g
     inkscape:label="Layer 1"
     inkscape:groupmode="layer"
     id="layer1"
     transform="translate(-52.474705,-76.798847)"><path
       style="fill:#000000"
       d="m 99.379443,183.04101 c -0.345502,-0.7639 -0.68827,-2.34434 -0.87402,-4.02996 -0.168078,-1.52526 -0.438655,-3.15133 -0.601283,-3.61351 -0.181571,-0.51601 -2.77013,-3.36376 -6.707253,-7.37884 -5.999234,-6.11803 -6.458652,-6.5265 -7.14375,-6.35153 -0.402701,0.10284 -2.706614,0.26594 -5.119806,0.36244 l -4.387621,0.17546 -1.9427,1.79914 c -1.739289,1.61076 -2.041722,1.79083 -2.88842,1.71979 -0.788502,-0.0661 -0.958675,-0.19032 -1.023647,-0.74691 -0.05773,-0.49455 0.308985,-1.11169 1.414975,-2.38125 0.821095,-0.94252 1.600303,-1.98933 1.731572,-2.32622 0.131269,-0.3369 0.238671,-3.0806 0.238671,-6.09712 v -5.48459 l -1.090772,-1.17892 c -2.750839,-2.97314 -9.661623,-9.94281 -10.145076,-10.23152 -0.346365,-0.20685 -1.772694,-0.3247 -4.002832,-0.33073 -3.124264,-0.008 -3.511875,-0.0615 -3.944584,-0.53962 -1.185354,-1.3098 0.692034,-2.39949 4.763473,-2.76486 3.492183,-0.31338 2.655168,-1.01474 23.026419,19.29445 9.891199,9.86107 18.246041,18.10374 18.566317,18.31706 1.241004,0.82655 1.695804,2.41358 1.782244,6.21911 0.0439,1.93469 0.16819,4.06145 0.27608,4.72613 0.15628,0.96272 0.10565,1.29906 -0.24894,1.65365 -0.7078,0.7078 -1.071292,0.53208 -1.679047,-0.81165 z m 8.009187,0.71239 c -0.25318,-0.40966 0.11574,-8.64428 0.44976,-10.03895 0.26427,-1.10341 1.45186,-2.35345 16.2131,-17.06563 19.978,-19.91158 20.85348,-20.75758 22.69061,-21.92652 1.44726,-0.92088 1.60564,-0.95994 3.89268,-0.95994 2.65478,0 4.93524,0.65158 5.51008,1.57435 0.27976,0.44908 0.24079,0.60888 -0.26458,1.08499 -0.55201,0.52004 -0.83766,0.55313 -4.16454,0.48237 -2.27685,-0.0484 -3.76372,0.0311 -4.10104,0.21938 -0.80861,0.4513 -10.49412,10.24802 -10.83677,10.96121 -0.21178,0.44077 -0.25809,2.43179 -0.15612,6.71208 l 0.14498,6.08542 1.36653,1.43049 c 2.26774,2.37391 2.52309,3.4643 0.81125,3.4643 -0.67566,0 -1.21825,-0.29602 -2.32341,-1.26755 -2.93981,-2.58436 -2.54029,-2.43662 -6.58891,-2.43662 -2.50233,0 -4.04767,-0.12686 -5.00374,-0.41079 -1.75255,-0.52045 -2.17515,-0.37597 -2.95125,1.00898 -0.34568,0.61688 -3.22438,3.76363 -6.3971,6.99277 l -5.76858,5.87117 v 2.93502 c 0,2.61146 -0.0734,3.0799 -0.66592,4.24915 -0.65108,1.28485 -1.43302,1.72037 -1.85703,1.03432 z M 90.298086,153.41411 c -0.215916,-0.2582 -0.906843,-1.77914 -1.535394,-3.37987 -0.628552,-1.60073 -1.298972,-3.2676 -1.489824,-3.70417 -0.190852,-0.43656 -0.657422,-1.56765 -1.036822,-2.51354 -0.3794,-0.94588 -0.798223,-1.95792 -0.930718,-2.24896 -0.132495,-0.29104 -0.549214,-1.30307 -0.926042,-2.24896 -0.376828,-0.94588 -0.793546,-1.95791 -0.926041,-2.24895 -0.132495,-0.29105 -0.549214,-1.30308 -0.926042,-2.24896 -0.376828,-0.94589 -0.793547,-1.95792 -0.926042,-2.24896 -0.132495,-0.29104 -0.551318,-1.30307 -0.930718,-2.24896 -0.3794,-0.94588 -0.869031,-2.13651 -1.088069,-2.64583 -0.219038,-0.50933 -0.498538,-1.16417 -0.621112,-1.45521 -0.489669,-1.16268 -1.338373,-3.0375 -2.505391,-5.5345 -0.674526,-1.44325 -1.190422,-2.81247 -1.146437,-3.04271 0.06414,-0.33575 0.529673,-0.43364 2.351644,-0.49448 2.674749,-0.0893 2.749499,-0.0356 3.308408,2.37599 0.367868,1.5873 1.613991,5.25361 2.365698,6.96028 0.192284,0.43656 0.660026,1.56766 1.039426,2.51354 0.3794,0.94589 0.798223,1.95792 0.930718,2.24896 0.132495,0.29104 0.549214,1.30308 0.926042,2.24896 0.376828,0.94589 0.793546,1.95792 0.926041,2.24896 0.132495,0.29104 0.549214,1.30307 0.926042,2.24896 0.376828,0.94588 0.79627,1.95791 0.932094,2.24896 0.135824,0.29104 0.581708,1.3626 0.990853,2.38125 0.983135,2.4477 1.622872,3.6192 1.887179,3.45585 0.228665,-0.14132 1.418425,-2.79909 3.205212,-7.16002 0.596236,-1.45521 1.247782,-3.00302 1.447879,-3.43958 0.200097,-0.43657 0.856591,-1.98438 1.458875,-3.43959 0.602284,-1.45521 1.199433,-2.88396 1.326997,-3.175 0.127564,-0.29104 0.487553,-1.18401 0.799978,-1.98437 0.31242,-0.80037 0.69088,-1.75287 0.84102,-2.11667 0.73932,-1.7914 1.5297,-4.68129 1.5297,-5.59304 0,-1.36345 0.72165,-2.07988 2.09503,-2.07988 2.14956,0 2.26319,0.31138 1.05274,2.8848 -1.51082,3.21203 -2.02586,4.36915 -3.66223,8.2277 -0.89484,2.11006 -1.73452,4.07459 -1.86596,4.36563 -0.13144,0.29104 -0.727839,1.71979 -1.325333,3.175 -0.597495,1.45521 -1.250223,3.00302 -1.450506,3.43958 -0.200284,0.43657 -0.960535,2.2225 -1.689448,3.96875 -2.971397,7.11855 -4.506806,10.57515 -4.730584,10.64974 -0.129958,0.0433 -0.412947,-0.13249 -0.628863,-0.3907 z m 20.649284,0.25815 c -0.0124,-0.10914 -0.0139,-7.34219 -0.003,-16.07344 0.0106,-8.73125 -0.077,-16.70004 -0.19454,-17.70843 -0.18274,-1.56726 -0.14761,-1.8996 0.24198,-2.2892 0.94134,-0.94134 8.98551,-1.01934 12.8107,-0.12421 4.77226,1.11675 7.46884,3.47002 8.63035,7.53162 0.61725,2.15838 0.61834,3.09661 0.006,5.44647 -0.60814,2.33517 -1.13189,3.34219 -2.65717,5.10893 -2.24803,2.60389 -5.6383,4.29638 -9.3175,4.65147 -1.37117,0.13234 -1.8204,0.0846 -2.0733,-0.22008 -0.42989,-0.51798 -0.13156,-0.94136 0.6633,-0.94136 0.89025,0 3.7546,-1.01539 4.90704,-1.73951 0.52407,-0.32929 1.49254,-1.21565 2.15216,-1.96969 1.71342,-1.95871 2.43967,-4.47503 2.24428,-7.77603 -0.24838,-4.19614 -1.68465,-6.6692 -4.82012,-8.29959 -1.1867,-0.61706 -1.62825,-0.68956 -4.28826,-0.70414 -3.49638,-0.0192 -3.63968,0.0642 -4.07752,2.37261 -0.32762,1.72728 -0.1083,27.24724 0.2637,30.68406 0.13342,1.23266 0.10598,1.9171 -0.0821,2.04647 -0.37261,0.25636 -4.37703,0.26004 -4.40611,0.004 z M 56.598036,127.6636 c -3.393675,-0.39454 -5.128305,-1.88296 -3.513003,-3.01436 0.462957,-0.32427 1.349356,-0.41071 4.167187,-0.40638 l 3.57915,0.006 5.628807,-5.76019 5.628807,-5.76018 -0.07256,-5.8458 -0.07256,-5.84581 -1.048682,-1.279125 c -0.576775,-0.70352 -1.317105,-1.568761 -1.645179,-1.922758 -0.884167,-0.954033 -1.035715,-1.6661 -0.447418,-2.102256 0.983169,-0.728911 2.552512,0.07658 5.382522,2.762665 l 0.918327,0.871624 h 5.191275 5.191274 l 2.465177,-2.579687 c 1.355847,-1.418828 4.033914,-4.187032 5.95126,-6.151563 4.01257,-4.111318 4.201642,-4.475717 4.774677,-9.202214 0.273685,-2.257407 0.504974,-3.185522 0.949365,-3.809613 l 0.587528,-0.825106 0.64598,0.750998 c 0.58822,0.683844 0.62712,0.882544 0.43509,2.222112 -0.11599,0.809113 -0.23119,2.840333 -0.25599,4.513823 -0.0248,1.67349 -0.17986,3.372846 -0.34455,3.776347 -0.26133,0.640269 -36.426929,36.885463 -38.18185,38.265883 -1.476315,1.16127 -3.495334,1.61736 -5.91464,1.33609 z m 91.336004,-0.39226 c -0.55196,-0.20258 -1.3854,-0.63921 -1.85208,-0.97029 -0.46668,-0.33108 -6.14679,-5.85537 -12.62247,-12.27621 -6.47567,-6.42084 -14.77133,-14.637622 -18.43479,-18.259513 -4.2939,-4.245169 -6.79564,-6.917475 -7.04017,-7.520158 -0.47144,-1.161912 -0.90817,-10.690777 -0.50151,-10.94211 0.48381,-0.299008 1.07671,0.139478 1.75607,1.298721 0.61611,1.051318 0.67249,1.405923 0.67249,4.229806 v 3.082286 l 5.78057,5.866433 c 3.17932,3.226539 5.9651,6.223902 6.19062,6.660808 0.22553,0.436906 0.64149,1.003829 0.92437,1.259829 0.47379,0.428778 0.60365,0.433938 1.64785,0.06552 0.81521,-0.287621 2.23067,-0.399934 5.0403,-0.399934 h 3.90676 l 2.17576,-1.837731 c 2.16717,-1.830476 3.20849,-2.323476 4.22574,-2.000614 1.04394,0.331335 0.66394,1.150103 -1.97843,4.262812 l -1.05833,1.246715 -0.004,5.44827 c -0.002,2.99654 -0.0918,5.58609 -0.19895,5.75455 -0.10718,0.16846 -0.10259,0.55573 0.0102,0.86059 0.26638,0.72009 10.33878,10.85874 11.06994,11.14274 0.30708,0.11928 2.15703,0.14984 4.11101,0.0679 3.12646,-0.13108 3.60704,-0.0946 4.00573,0.30409 1.05273,1.05273 0.28141,2.06534 -2.03224,2.66797 -1.85849,0.48408 -4.45659,0.47847 -5.79433,-0.0125 z"
       id="path1" /></g></svg>
