<?xml version="1.0" encoding="UTF-8" standalone="no"?>
<!-- Created with Inkscape (http://www.inkscape.org/) -->

<svg
   version="1.1"
   id="svg1"
   width="49"
   height="49"
   viewBox="0 0 49 49"
   sodipodi:docname="WhiteArmorDie.svg"
   inkscape:version="1.4 (86a8ad7, 2024-10-11)"
   xmlns:inkscape="http://www.inkscape.org/namespaces/inkscape"
   xmlns:sodipodi="http://sodipodi.sourceforge.net/DTD/sodipodi-0.dtd"
   xmlns="http://www.w3.org/2000/svg"
   xmlns:svg="http://www.w3.org/2000/svg">
  <defs
     id="defs1" />
  <sodipodi:namedview
     id="namedview1"
     pagecolor="#505050"
     bordercolor="#eeeeee"
     borderopacity="1"
     inkscape:showpageshadow="0"
     inkscape:pageopacity="0"
     inkscape:pagecheckerboard="0"
     inkscape:deskcolor="#505050"
     inkscape:zoom="5.6568543"
     inkscape:cx="-6.2755727"
     inkscape:cy="22.804194"
     inkscape:window-width="1920"
     inkscape:window-height="1010"
     inkscape:window-x="1529"
     inkscape:window-y="-6"
     inkscape:window-maximized="1"
     inkscape:current-layer="g1" />
  <g
     inkscape:groupmode="layer"
     inkscape:label="Image"
     id="g1">
    <path
       id="path1"
       style="fill:#ffffff;fill-opacity:1"
       d="M 17.916016,2.1933594 5.3398438,4.7070312 5.5566406,4.8046875 39.234375,5.8710938 47.677734,2.1953125 Z M 47.46875,3.9257812 40.240234,7.046875 38.896484,9.3867188 38.998047,45.121094 h 0.755859 L 47.998047,34.435547 V 4.1210938 Z M 3.2597656,5.8417969 C 1.5383373,5.8975581 1.0292763,7.3075558 1.0332031,8.8789062 l -0.011719,31.7421878 1.5625,2.449218 33.7851566,4.738282 0.601562,-1.050782 L 37.039062,9.4003906 34.412109,7.2207031 3.6191406,5.8496094 c -0.1257427,-0.00868 -0.2446131,-0.011533 -0.359375,-0.00781 z m 18.7265624,4.5410151 0.185547,0.132813 c -0.11462,0.55892 -0.0557,1.081414 0.08008,1.591797 -0.0053,-0.119246 -0.01088,-0.244299 -0.04102,-0.357422 l 0.169921,0.121094 c -0.08226,0.409851 -0.06865,0.337063 -0.08008,0.398437 0.223831,0.750815 0.592262,1.479735 0.8125,2.25586 l 0.582031,2.052734 0.341797,0.0078 c -0.481738,1.480679 -0.02148,3.421875 -0.02148,3.421874 l -0.662109,0.259766 c -0.856343,1.804966 0.383365,3.481748 2.378906,3.908203 l -0.05078,2.289063 c 1.038147,0.493785 1.544422,0.686517 1.527343,1.449218 -0.0086,0.38604 0.06257,0.655463 0.326172,1.230469 0.560644,1.22295 1.356816,2.858222 1.767578,3.632813 0.410769,0.774591 0.682472,1.393037 0.605469,1.375 -0.077,-0.01804 -5.626953,-2.529297 -5.626953,-2.529297 l -2.992188,-3.097656 c 0,0 -0.236108,-0.671051 -0.259765,-3.677735 -0.0028,-0.350479 0.342564,-0.994382 0.326172,-1.396484 -0.06728,-1.650251 -0.592057,-3.34581 -0.78711,-4.525391 l -0.283203,-1.714843 -0.232422,-0.53711 0.06445,-0.476562 0.490234,-0.330078 0.689453,-2.980469 c 0.171301,-1.226566 0.416921,-1.93871 0.689453,-2.503907 z m -2.828125,7.767579 c 0.01403,-0.0091 0.02253,-0.0095 0.02539,0 0.02286,0.07572 0.05758,6.364077 0.621094,6.138671 l -1.1875,4.140626 c 0,0 -0.464244,0.539284 -3.056641,2.0625 -0.302185,0.177558 -1.031009,0.200848 -1.371094,0.416015 -1.395731,0.883058 -2.599801,2.187006 -3.527344,2.941406 L 9.3183594,34.953125 8.96875,35.423828 8.5234375,35.605469 7.9941406,35.345703 5.0683594,36.238281 c -1.148,0.464655 -1.8879209,0.609819 -2.5136719,0.65625 L 2.578125,36.666016 C 3.977532,36.200569 4.5972124,34.857417 5.5800781,33.845703 L 7.0664062,32.316406 6.9023438,32.015625 c 1.523251,-0.322782 2.9746093,-1.691406 2.9746093,-1.691406 l 0.5566409,0.443359 c 1.991356,-0.160396 2.825254,-2.072106 2.197265,-4.013672 l 2.007813,-1.099609 c -0.09117,-1.145974 -0.17891,-1.680475 0.490234,-2.046875 0.338686,-0.185454 0.536054,-0.382735 0.902344,-0.898438 0.779044,-1.096821 1.798063,-2.602787 2.263672,-3.345703 0.407407,-0.650055 0.7651,-1.148965 0.863281,-1.21289 z m 0.792969,12.05664 c 0,0 0.698633,0.138034 3.300781,1.644531 0.303324,0.175604 0.682391,0.800159 1.037109,0.990235 1.455788,0.780087 3.18358,1.183222 4.296876,1.619141 l 1.623046,0.626953 0.580078,0.07227 0.378907,0.298828 0.03516,0.589844 2.216797,2.105469 c 0.969641,0.770458 1.460099,1.345388 1.808594,1.867187 l -0.210938,0.0918 c -1.094113,-0.988894 -2.567139,-0.867224 -3.93164,-1.224609 l -2.064454,-0.541016 -0.179687,0.291016 c -1.030903,-1.166927 -2.9375,-1.757813 -2.9375,-1.757813 l 0.111328,-0.701171 c -1.120026,-1.654317 -3.193455,-1.440005 -4.574219,0.0625 l -1.945312,-1.205079 c -0.952576,0.643563 -1.375077,0.98211 -2.023438,0.580079 -0.328168,-0.203491 -0.597353,-0.27883 -1.226562,-0.34375 -1.338233,-0.138051 -3.149515,-0.282771 -4.025391,-0.322266 -0.875878,-0.0395 -1.548782,-0.118604 -1.494141,-0.175781 0.05464,-0.05718 5.03711,-3.564453 5.03711,-3.564453 z"
       sodipodi:nodetypes="ccccccccccccccccccccccccccccccccccccccssscccscccccccscccsscccccccccccccccsssscsscccccccccccccccscsscc" />
  </g>
</svg>
