<?xml version="1.0" encoding="UTF-8" standalone="no"?>
<!-- Created with Inkscape (http://www.inkscape.org/) -->

<svg
   version="1.1"
   id="svg1"
   width="49.968746"
   height="48.552734"
   viewBox="0 0 49.968746 48.552734"
   sodipodi:docname="WhitePowerDie.svg"
   inkscape:version="1.4 (86a8ad7, 2024-10-11)"
   xmlns:inkscape="http://www.inkscape.org/namespaces/inkscape"
   xmlns:sodipodi="http://sodipodi.sourceforge.net/DTD/sodipodi-0.dtd"
   xmlns="http://www.w3.org/2000/svg"
   xmlns:svg="http://www.w3.org/2000/svg">
  <defs
     id="defs1" />
  <sodipodi:namedview
     id="namedview1"
     pagecolor="#505050"
     bordercolor="#eeeeee"
     borderopacity="1"
     inkscape:showpageshadow="0"
     inkscape:pageopacity="0"
     inkscape:pagecheckerboard="0"
     inkscape:deskcolor="#505050"
     inkscape:zoom="11.313709"
     inkscape:cx="23.688076"
     inkscape:cy="22.804193"
     inkscape:window-width="1920"
     inkscape:window-height="1010"
     inkscape:window-x="1529"
     inkscape:window-y="-6"
     inkscape:window-maximized="1"
     inkscape:current-layer="svg1" />
  <g
     inkscape:groupmode="layer"
     id="layer3"
     inkscape:label="Image 1"
     style="display:inline;fill:#000000"
     transform="matrix(1.0230326,0,0,1.0237203,-0.19981103,-1.3436329)">
    <g
       id="g6"
       style="fill:#000000">
      <path
         d="M 17.761719,1.3125 4.6855469,3.9257813 1.2167969,5.5175781 C 0.46083258,6.0747686 0.20614758,7.1285603 0.20898438,8.2636719 L 0.19531248,41.267578 1.8203125,43.814453 36.947266,48.740234 40.466797,45.945312 49.039062,34.835937 V 3.736251 l -0.52384,-2.4217979 z m 30.726562,1.8007813 c -17.510584,5.6932917 0,0 0,0 z"
         style="baseline-shift:baseline;display:inline;overflow:visible;vector-effect:none;fill:#000000;enable-background:accumulate;stop-color:#000000;stop-opacity:1"
         id="path7"
         sodipodi:nodetypes="cccccccccccccc" />
    </g>
  </g>
  <g
     inkscape:groupmode="layer"
     inkscape:label="Image"
     id="g1"
     transform="translate(0.40900978,-0.76776686)">
    <path
       style="fill:#ffffff;fill-opacity:1"
       d="M 2.58363,43.069552 1.021797,40.621014 1.032452,8.8793876 C 1.0282634,7.2032803 1.1862245,5.7574006 3.619983,5.8493355 l 30.791994,1.3708562 2.62763,2.1807385 -0.06888,37.3563338 -0.602212,1.051008 z M 21.001739,32.468903 c -0.433184,-2.282825 -0.33098,-2.236026 -1.144173,-6.799876 -0.08125,-0.700275 -0.433032,-1.043467 -0.658742,-1.169059 l -1.136639,-0.894424 2.582975,0.61184 -0.167288,-0.38799 -0.535517,-0.360735 C 19.018344,22.060613 18.741404,22.30504 19.094184,20.916182 l 0.867387,-2.553708 c 0.378287,-0.671097 0.268742,-0.690254 1.569281,-1.094486 l -0.545589,-0.313578 0.202643,-0.205393 c 0.01119,-1.683517 0.0037,-3.398366 0.01749,-5.097685 l -0.29619,0.427772 c -0.40126,1.951389 -0.582047,2.431193 -1.546739,3.044621 l 0.153035,0.350574 -0.522722,1.317305 -1.587163,2.448474 -1.078631,2.798083 c -0.724347,-0.544063 -1.630885,-0.991479 -2.647996,-1.474851 1.189997,1.192332 1.991447,2.92742 2.799069,4.394531 0.641737,-0.314643 1.239667,1.843699 1.614228,2.979213 0.458364,1.376379 0.500756,1.454505 0.500756,2.888981 l 1.780575,4.736045 0.785792,3.730223 c 0.466178,-2.28428 0.25446,-4.562813 -0.157669,-6.8234 z m 17.8941,-23.0827525 1.344133,-2.3396497 7.228239,-3.1208 0.52919,0.1953125 V 34.436271 L 39.754182,45.121014 H 38.997401 Z M 5.5561336,4.8038057 5.3399907,4.7078275 17.916595,2.1926216 l 29.761721,0.00264 -8.443237,3.6764938 z"
       id="path1"
       sodipodi:nodetypes="cccccccccccccccccccccccccccccccccccccccccccccccccc" />
  </g>
</svg>
