<?xml version="1.0" encoding="UTF-8" standalone="no"?>
<!-- Created with Inkscape (http://www.inkscape.org/) -->

<svg
   version="1.1"
   id="svg1"
   width="70.849998"
   height="72.539001"
   viewBox="0 0 70.849998 72.539001"
   sodipodi:docname="WoOLayer3.svg"
   inkscape:version="1.4 (86a8ad7, 2024-10-11)"
   xmlns:inkscape="http://www.inkscape.org/namespaces/inkscape"
   xmlns:sodipodi="http://sodipodi.sourceforge.net/DTD/sodipodi-0.dtd"
   xmlns="http://www.w3.org/2000/svg"
   xmlns:svg="http://www.w3.org/2000/svg">
  <defs
     id="defs1" />
  <sodipodi:namedview
     id="namedview1"
     pagecolor="#505050"
     bordercolor="#eeeeee"
     borderopacity="1"
     inkscape:showpageshadow="0"
     inkscape:pageopacity="0"
     inkscape:pagecheckerboard="0"
     inkscape:deskcolor="#505050"
     inkscape:zoom="8"
     inkscape:cx="25.3125"
     inkscape:cy="41.875"
     inkscape:window-width="1920"
     inkscape:window-height="1010"
     inkscape:window-x="4601"
     inkscape:window-y="-6"
     inkscape:window-maximized="1"
     inkscape:current-layer="g27" />
  <g
     inkscape:groupmode="layer"
     inkscape:label="Image"
     id="g1"
     transform="translate(-27.659527,0.22424811)">
    <g
       id="g27"
       transform="translate(0.13452035,-0.00407612)">
      <path
         style="display:none;fill:#000000;fill-opacity:1"
         d="M 27.525007,36 63.012838,-0.22017199 98.375007,36 63.079738,72.318828 Z M 93.571676,36 63.133175,4.905878 32.650007,36 63.079738,66.470341 Z"
         id="path33"
         sodipodi:nodetypes="cccccccccc" />
      <path
         style="display:inline;fill:#000000;fill-opacity:1;stroke-width:0.967351"
         d="M 33.650007,35.98998 63.101668,5.897828 92.572007,35.98998 63.05887,65.470828 Z"
         id="path27-1"
         sodipodi:nodetypes="ccccc" />
      <path
         style="display:none;fill:#4a2c19"
         d="M 32.650007,36 63.123988,4.8978379 93.571676,36 63.079738,66.470341 Z m 30.073327,17.98099 c 1.978431,0.03377 3.699825,-1.648273 3.688278,-3.605171 -0.01095,-1.855065 -1.257669,-3.353061 -3.31066,-3.344419 -2.05349,0.0086 -3.606034,1.350508 -3.620019,3.527877 -0.01198,1.865376 1.317565,3.388856 3.242401,3.421713 z m 2.878929,-19.334181 c 0.638165,-5.192868 1.066632,-10.639752 1.066632,-12.027533 0,-3.251422 -3.083266,-4.873246 -5.350534,-2.991581 -1.286613,1.067794 -1.689413,2.323322 -1.144438,8.936811 0.974425,11.825051 1.746798,15.545979 2.923565,15.545979 1.113145,0 1.756363,-3.373715 2.504775,-9.463676 z"
         id="path27"
         sodipodi:nodetypes="cccccsssssssssss" />
    </g>
  </g>
</svg>
