<?xml version="1.0" encoding="UTF-8" standalone="no"?>
<!-- Created with Inkscape (http://www.inkscape.org/) -->

<svg
   width="82.653961mm"
   height="70.577957mm"
   viewBox="0 0 82.653964 70.577958"
   version="1.1"
   id="svg1"
   xml:space="preserve"
   inkscape:version="1.4 (86a8ad7, 2024-10-11)"
   sodipodi:docname="AdventureHub.svg"
   xmlns:inkscape="http://www.inkscape.org/namespaces/inkscape"
   xmlns:sodipodi="http://sodipodi.sourceforge.net/DTD/sodipodi-0.dtd"
   xmlns="http://www.w3.org/2000/svg"
   xmlns:svg="http://www.w3.org/2000/svg"><sodipodi:namedview
     id="namedview1"
     pagecolor="#505050"
     bordercolor="#eeeeee"
     borderopacity="1"
     inkscape:showpageshadow="0"
     inkscape:pageopacity="0"
     inkscape:pagecheckerboard="0"
     inkscape:deskcolor="#505050"
     inkscape:document-units="mm"
     inkscape:zoom="1.4396184"
     inkscape:cx="106.97279"
     inkscape:cy="143.09347"
     inkscape:window-width="1920"
     inkscape:window-height="1010"
     inkscape:window-x="1529"
     inkscape:window-y="-6"
     inkscape:window-maximized="1"
     inkscape:current-layer="layer1" /><defs
     id="defs1" /><g
     inkscape:label="Layer 1"
     inkscape:groupmode="layer"
     id="layer1"
     transform="translate(-55.561724,-74.407625)"><path
       style="fill:#000000"
       d="m 91.444364,144.61259 c -1.382448,-0.18786 -3.108854,-0.47759 -3.836458,-0.64384 -0.727605,-0.16626 -1.739636,-0.39901 -2.248959,-0.51723 -0.509323,-0.11822 -1.775935,-0.51721 -2.814694,-0.88665 -1.038759,-0.36945 -2.348446,-0.87603 -2.910417,-1.12574 -0.56197,-0.24972 -1.736138,-0.81645 -2.609263,-1.2594 -0.873125,-0.44296 -2.519186,-1.39884 -3.657913,-2.1242 -1.469836,-0.93627 -1.968706,-1.38331 -1.719792,-1.54113 0.192842,-0.12226 0.93212,-0.22411 1.642841,-0.22634 0.710721,-0.002 1.782283,-0.13254 2.38125,-0.28958 0.598967,-0.15705 1.56528,-0.42204 2.147364,-0.58889 0.582083,-0.16685 1.713177,-0.62242 2.513541,-1.01239 0.800365,-0.38997 2.05014,-1.137 2.777279,-1.66007 0.727139,-0.52307 1.512358,-0.95104 1.74493,-0.95104 0.232573,0 0.649673,0.25239 0.926888,0.56086 0.277215,0.30848 1.131418,0.96332 1.898228,1.45521 0.76681,0.49189 1.452717,0.89435 1.524238,0.89435 0.07152,0 0.634755,0.22032 1.251633,0.4896 0.616877,0.26928 1.688851,0.62647 2.382163,0.79375 0.693313,0.16728 2.328713,0.30415 3.634224,0.30415 1.305511,0 2.940911,-0.13524 3.634223,-0.30052 0.69331,-0.16529 1.91541,-0.54278 2.71578,-0.83888 0.80036,-0.2961 2.28864,-1.07064 3.30729,-1.7212 1.01864,-0.65057 2.0956,-1.34236 2.39322,-1.53731 0.487,-0.319 0.69878,-0.23606 2.11667,0.82898 0.86654,0.6509 2.23037,1.49746 3.03073,1.88125 0.80037,0.38379 1.69334,0.78899 1.98438,0.90045 0.29104,0.11146 1.18401,0.33664 1.98437,0.5004 0.80037,0.16376 2.22912,0.32506 3.175,0.35843 0.94589,0.0334 1.71979,0.16213 1.71979,0.28612 0,0.12399 -0.85357,0.74486 -1.89682,1.37972 -1.04325,0.63486 -2.65683,1.55749 -3.58574,2.05028 -0.9289,0.4928 -2.66346,1.27181 -3.85456,1.73115 -1.19111,0.45934 -2.67315,0.9981 -3.29343,1.19724 -0.62028,0.19914 -1.66356,0.48983 -2.3184,0.64596 -0.65485,0.15614 -1.78594,0.40486 -2.51354,0.55271 -0.72761,0.14786 -2.39448,0.39172 -3.70417,0.5419 -1.30969,0.15019 -3.512345,0.25966 -4.894793,0.24327 -1.382448,-0.0164 -3.644635,-0.18351 -5.027083,-0.37137 z M 69.616239,133.65357 c -0.727604,-0.11628 -1.74102,-0.3875 -2.252036,-0.60272 -0.511015,-0.21522 -1.408155,-0.85572 -1.993644,-1.42334 -0.585489,-0.56763 -1.688302,-1.78581 -2.450695,-2.70709 -0.762393,-0.92127 -1.963851,-2.53113 -2.669906,-3.57746 -0.706055,-1.04633 -1.893303,-3.11712 -2.638328,-4.60175 -0.745025,-1.48464 -1.528419,-3.20388 -1.740877,-3.82054 -0.212458,-0.61667 -0.347185,-1.16031 -0.299395,-1.2081 0.04779,-0.0478 0.846189,0.2676 1.77422,0.70087 0.928031,0.43327 2.254681,0.97294 2.948113,1.19927 0.693431,0.22632 2.122181,0.54635 3.175,0.71117 1.070098,0.16753 3.022619,0.23304 4.427757,0.14857 1.382448,-0.0831 3.168385,-0.32254 3.96875,-0.53206 0.800364,-0.20953 2.191646,-0.68083 3.091738,-1.04735 1.63653,-0.66639 1.63653,-0.66639 3.042708,0.18329 0.773398,0.46732 2.001491,1.20353 2.729095,1.63603 0.727604,0.4325 3.049323,1.63714 5.159375,2.67699 2.110052,1.03984 4.386939,2.13374 5.059749,2.43088 1.215807,0.53694 1.224046,0.54935 1.346704,2.02845 0.07265,0.8761 0.276865,1.58534 0.496501,1.72438 0.205198,0.1299 2.120755,0.238 4.256793,0.24023 3.181669,0.003 3.958859,-0.0711 4.299479,-0.41172 0.26492,-0.26493 0.41577,-0.8865 0.41577,-1.71318 0,-1.29306 0.004,-1.29928 1.25677,-1.85555 0.69123,-0.30698 2.98318,-1.40484 5.09323,-2.43968 2.11006,-1.03485 4.46385,-2.27495 5.23066,-2.75577 0.76681,-0.48082 1.45973,-0.87422 1.53983,-0.87422 0.0801,0 0.64333,-0.33714 1.25163,-0.7492 0.60831,-0.41206 1.3224,-0.82813 1.58687,-0.92459 0.28915,-0.10545 0.92206,0.0676 1.5875,0.434 0.60865,0.33516 1.94008,0.8679 2.95872,1.18387 1.01865,0.31597 2.69704,0.65181 3.72975,0.74631 1.07216,0.0981 2.62321,0.042 3.61555,-0.13083 0.95583,-0.16645 2.4883,-0.54237 3.40549,-0.83537 0.91719,-0.29301 2.41138,-0.94156 3.32042,-1.44124 1.04823,-0.57618 1.71603,-0.80619 1.82565,-0.62882 0.0951,0.15381 0.0519,0.5362 -0.096,0.84975 -0.14784,0.31354 -0.47419,1.04633 -0.72521,1.62842 -0.25102,0.58208 -0.77731,1.71317 -1.16952,2.51354 -0.39222,0.80036 -0.96649,1.89393 -1.27616,2.43014 -0.30967,0.53621 -0.86616,1.42918 -1.23664,1.98437 -0.37048,0.5552 -1.06149,1.5549 -1.53556,2.22157 -0.47408,0.66668 -1.15974,1.55964 -1.5237,1.98438 -0.36395,0.42473 -1.18928,1.18636 -1.83406,1.69249 -0.64479,0.50614 -1.70443,1.18963 -2.35477,1.51887 -0.65033,0.32925 -1.86674,0.79063 -2.70313,1.02531 -1.06861,0.29984 -2.21695,0.39359 -3.86267,0.31535 -1.55502,-0.0739 -2.83095,-0.30406 -3.79718,-0.68486 -0.80036,-0.31543 -2.34817,-1.25194 -3.43958,-2.08114 -1.09141,-0.8292 -2.12098,-1.69417 -2.28795,-1.92216 -0.16696,-0.22799 -0.53897,-0.68341 -0.82669,-1.01204 -0.52312,-0.59752 -0.52312,-0.59752 -2.15296,1.08123 -0.89641,0.92331 -2.36986,2.11874 -3.27435,2.65652 -0.90448,0.53778 -2.45192,1.22481 -3.43875,1.52675 -1.476983,0.4519 -2.319072,0.53186 -4.762496,0.45224 -2.759257,-0.0899 -3.107988,-0.16343 -4.952637,-1.04401 -1.249258,-0.59635 -2.524764,-1.47764 -3.443103,-2.37896 -0.802301,-0.78742 -1.707911,-1.78859 -2.012466,-2.22481 -0.553738,-0.79313 -0.553738,-0.79313 -1.319397,0.11858 -0.421112,0.50144 -1.159048,1.27507 -1.639857,1.71917 -0.480809,0.44411 -1.610083,1.2578 -2.509498,1.8082 -0.899416,0.55041 -2.361821,1.22514 -3.249789,1.49941 -0.887968,0.27426 -2.556662,0.55957 -3.708209,0.63402 -1.151547,0.0744 -2.689034,0.0402 -3.416639,-0.0761 z m 24.346055,-11.59092 c 0.08135,-2.43747 0.262872,-7.28927 0.403378,-10.78177 0.140507,-3.4925 0.372496,-9.74328 0.515532,-13.890622 0.143035,-4.147344 0.335036,-8.914618 0.426668,-10.593943 0.166604,-3.053318 0.166604,-3.053318 1.789569,-3.032296 1.622964,0.02102 1.622964,0.02102 1.926772,7.286651 0.167094,3.996096 0.447195,11.07563 0.622446,15.7323 0.175251,4.65666 0.404251,10.90744 0.508881,13.89062 0.10463,2.98318 0.14493,5.51326 0.0895,5.6224 -0.0554,0.10914 -1.524947,0.19843 -3.265697,0.19843 h -3.165 z m -4.634597,-2.2829 c -1.236927,-0.61869 -3.380052,-1.70912 -4.7625,-2.42318 -1.382448,-0.71406 -3.287448,-1.77854 -4.233333,-2.36552 -0.945885,-0.58698 -2.443127,-1.56291 -3.327204,-2.16873 -0.884077,-0.60582 -2.219007,-1.77067 -2.96651,-2.58856 -0.870967,-0.95297 -1.421913,-1.8219 -1.533996,-2.41935 -0.09619,-0.51276 -0.09205,-1.78804 0.0092,-2.83395 0.101262,-1.04591 0.477096,-2.79463 0.835187,-3.88604 0.358091,-1.0914 0.726127,-2.162964 0.817858,-2.381245 0.09173,-0.218282 0.363416,-0.932657 0.603746,-1.5875 0.436963,-1.190625 0.436963,-1.190625 9.398671,-1.26035 4.92894,-0.03835 9.041289,0.02118 9.138553,0.132291 0.09726,0.11111 0.07446,2.761861 -0.05068,5.890554 -0.125139,3.1287 -0.364832,8.69487 -0.532652,12.36928 -0.265719,5.81792 -0.359514,6.67856 -0.726261,6.66396 -0.231624,-0.009 -1.433166,-0.52297 -2.670093,-1.14166 z m 12.312733,0.90939 c -0.0846,-0.13697 -0.27415,-3.50048 -0.42111,-7.47448 -0.14696,-3.97399 -0.37181,-9.4268 -0.49968,-12.11734 -0.12787,-2.690547 -0.17649,-4.9825 -0.10806,-5.093232 0.0684,-0.110731 4.15242,-0.20133 9.07551,-0.20133 8.95108,0 8.95108,0 9.50939,1.187742 0.30706,0.653257 0.5583,1.309717 0.5583,1.458798 0,0.149081 0.10517,0.477801 0.23371,0.730488 0.12855,0.252687 0.36854,0.757087 0.53333,1.120884 0.16478,0.36381 0.47426,1.4949 0.68773,2.51355 0.21347,1.01864 0.39019,2.63914 0.39272,3.6011 0.004,1.43942 -0.11572,1.93117 -0.67511,2.77812 -0.37384,0.56601 -0.99891,1.30342 -1.38906,1.63869 -0.39015,0.33527 -1.36421,1.11285 -2.16457,1.72795 -0.80036,0.6151 -2.48218,1.73433 -3.73737,2.48719 -1.2552,0.75285 -4.2978,2.38629 -6.76135,3.62986 -2.46355,1.24357 -4.61447,2.26104 -4.77983,2.26104 -0.16535,0 -0.3699,-0.11206 -0.45455,-0.24903 z M 81.25338,92.297029 c -0.06612,-0.181901 -0.151675,-1.640417 -0.190133,-3.241146 -0.06992,-2.910416 -0.06992,-2.910416 -0.92982,-2.993326 -0.472943,-0.0456 -0.859896,-0.174309 -0.859896,-0.28602 0,-0.11171 0.26789,-0.333465 0.595312,-0.492788 0.327422,-0.159322 1.905,-0.697259 3.505729,-1.195415 1.600729,-0.498156 3.803386,-1.174172 4.894792,-1.502259 1.091406,-0.328087 2.698082,-0.825397 3.570392,-1.105135 1.450379,-0.465116 1.61265,-0.47219 1.897445,-0.08271 0.21992,0.300759 0.275586,1.604993 0.189448,4.438654 -0.06709,2.207012 -0.185366,4.637827 -0.262838,5.401812 -0.140857,1.389062 -0.140857,1.389062 -6.215539,1.389062 -4.619246,0 -6.103483,-0.07924 -6.194892,-0.330729 z m 19.35656,0.126748 c -0.0727,-0.117602 -0.21775,-2.679659 -0.32239,-5.693461 -0.15971,-4.600381 -0.13088,-5.484671 0.17964,-5.510989 0.20344,-0.01724 0.54848,-0.01084 0.76676,0.01423 0.21828,0.02506 1.76609,0.472586 3.43958,0.994489 1.67349,0.521903 4.3524,1.356529 5.95312,1.854723 1.60073,0.498195 3.17831,1.0374 3.50573,1.198235 0.32743,0.160835 0.59532,0.383827 0.59532,0.495537 0,0.111711 -0.38696,0.24042 -0.8599,0.28602 -0.8599,0.08291 -0.8599,0.08291 -0.99219,3.25791 l -0.13229,3.175 -6.00061,0.07106 c -3.30034,0.03909 -6.06009,-0.02515 -6.13277,-0.142754 z M 95.992167,82.091285 c -0.45103,-0.34702 -0.772022,-1.126843 -1.222793,-2.970679 -0.336172,-1.375076 -0.690789,-2.943164 -0.788038,-3.484639 -0.157441,-0.87662 -0.110428,-1.001089 0.429043,-1.135902 0.333223,-0.08327 1.735593,-0.116497 3.116378,-0.07383 2.204846,0.06812 2.522013,0.137619 2.604903,0.570767 0.0519,0.271259 -0.24439,1.920025 -0.658439,3.663925 -0.66886,2.817118 -0.832495,3.212098 -1.467281,3.541697 -0.392955,0.204035 -0.869205,0.368324 -1.058333,0.365089 -0.189128,-0.0032 -0.619076,-0.217627 -0.95544,-0.476424 z"
       id="path2509" /></g></svg>
