<?xml version="1.0" encoding="UTF-8" standalone="no"?>
<!-- Created with Inkscape (http://www.inkscape.org/) -->

<svg
   width="72.718758mm"
   height="44.835651mm"
   viewBox="0 0 72.718758 44.835651"
   version="1.1"
   id="svg1"
   xml:space="preserve"
   inkscape:version="1.4 (86a8ad7, 2024-10-11)"
   sodipodi:docname="Ambrosia.svg"
   xmlns:inkscape="http://www.inkscape.org/namespaces/inkscape"
   xmlns:sodipodi="http://sodipodi.sourceforge.net/DTD/sodipodi-0.dtd"
   xmlns="http://www.w3.org/2000/svg"
   xmlns:svg="http://www.w3.org/2000/svg"><sodipodi:namedview
     id="namedview1"
     pagecolor="#505050"
     bordercolor="#eeeeee"
     borderopacity="1"
     inkscape:showpageshadow="0"
     inkscape:pageopacity="0"
     inkscape:pagecheckerboard="0"
     inkscape:deskcolor="#505050"
     inkscape:document-units="mm"
     inkscape:zoom="0.86678117"
     inkscape:cx="476.47551"
     inkscape:cy="101.52505"
     inkscape:window-width="1920"
     inkscape:window-height="1010"
     inkscape:window-x="4601"
     inkscape:window-y="-6"
     inkscape:window-maximized="1"
     inkscape:current-layer="layer1" /><defs
     id="defs1" /><g
     inkscape:label="Layer 1"
     inkscape:groupmode="layer"
     id="layer1"
     transform="translate(-68.193022,-114.5804)"><path
       style="fill:#000000"
       d="m 113.50677,159.11563 c -1.73697,-0.48605 -3.60244,-1.42743 -4.93502,-2.49039 -0.93859,-0.74868 -1.19754,-0.82046 -2.95984,-0.82046 -1.85469,0 -2.00019,-0.0472 -3.66918,-1.18981 -1.89455,-1.29706 -3.486593,-1.78954 -4.994223,-1.54488 -0.639314,0.10374 -1.119572,0.033 -1.409427,-0.20762 -0.667178,-0.55384 -3.944613,-1.12267 -6.245536,-1.08396 -1.127787,0.019 -3.389974,0.0636 -5.027084,0.0992 -3.564773,0.0775 -5.103929,-0.40462 -7.313832,-2.29096 -1.26733,-1.08177 -1.520873,-1.1903 -2.780641,-1.1903 -3.003145,0 -5.978965,-2.47721 -5.978965,-4.97715 0,-1.63264 1.312292,-4.26412 2.971503,-5.95862 0.694007,-0.70877 1.261831,-1.44417 1.261831,-1.63422 0,-0.47388 2.384492,-2.58058 4.662331,-4.11918 2.012127,-1.35911 2.216836,-1.63934 2.216836,-3.03462 0,-0.6394 0.159218,-0.98031 0.55736,-1.19339 0.44607,-0.23873 0.52526,-0.45879 0.396596,-1.1021 -0.204604,-1.02302 0.524564,-2.25122 2.037961,-3.43271 0.610018,-0.47623 1.228187,-1.01805 1.373708,-1.20404 0.145521,-0.186 1.382113,-0.75338 2.747983,-1.26087 2.296228,-0.85314 2.709,-0.92269 5.47664,-0.92269 h 2.993239 l 0.672324,-0.88146 c 1.001517,-1.31306 3.128507,-2.29354 4.975446,-2.29354 0.83171,0 1.98782,0.19031 2.56912,0.4229 1.86092,0.74459 4.2084,0.49813 8.87567,-0.93183 3.13071,-0.95919 6.79488,-1.46501 8.97667,-1.23919 0.91853,0.0951 2.2427,0.49086 3.19591,0.95523 0.89516,0.43609 1.87023,0.79289 2.16681,0.79289 0.336,0 0.80322,0.39889 1.23962,1.05834 0.3852,0.58208 0.81967,1.05833 0.96548,1.05833 0.14581,0 0.45831,0.40514 0.69444,0.90031 0.42825,0.89806 1.28362,1.48094 2.17326,1.48094 0.25827,0 1.02612,0.18963 1.70632,0.4214 0.91862,0.313 1.42501,0.70172 1.96865,1.51118 0.54071,0.80511 0.97294,1.13838 1.65466,1.27586 1.00944,0.20355 2.84,2.0404 3.57318,3.58547 1.05051,2.21379 0.74326,6.36367 -0.82667,11.16527 -0.60922,1.8633 -0.89771,3.24771 -0.89771,4.30798 0,0.85928 -0.18098,1.99549 -0.40219,2.52491 -0.48734,1.16637 -5.46889,6.16919 -7.52028,7.5524 -0.80863,0.54524 -1.74911,0.99173 -2.08996,0.99219 -0.34085,4.6e-4 -0.90232,0.22313 -1.2477,0.49481 -0.35775,0.2814 -1.30055,0.57005 -2.19094,0.67079 -1.26134,0.1427 -1.88856,0.40424 -3.25022,1.35526 -0.96286,0.6725 -1.99016,1.17967 -2.39279,1.18129 -0.44151,0.002 -0.88706,0.24803 -1.19062,0.65801 -0.6328,0.85466 -2.78541,1.09736 -4.78072,0.53903 z m 4.03105,-4.22999 c 1.29371,-0.79682 1.44356,-0.81328 1.26728,-0.13919 -0.10283,0.39324 -0.008,0.52916 0.36873,0.52916 0.50528,0 1.14211,-0.46147 1.14211,-0.82762 0,-0.22473 -2.79508,-0.65258 -3.57187,-0.54675 -1.01855,0.13876 -1.62133,-0.2071 -2.72449,-1.56324 -1.27057,-1.56192 -1.41589,-2.5092 -0.51666,-3.36784 1.81627,-1.73428 2.0849,-1.89663 3.13827,-1.89663 1.07536,0 2.05774,0.36607 2.41393,0.89951 0.10691,0.16011 0.19803,0.8269 0.20249,1.48174 0.004,0.65484 0.12776,1.36922 0.27401,1.5875 0.22693,0.33871 0.34267,0.30533 0.7897,-0.22775 0.54741,-0.6528 0.68759,-2.01411 0.27459,-2.66682 -0.13259,-0.20957 -0.63679,-0.56788 -1.12042,-0.79624 -1.15981,-0.54763 -1.13896,-1.15811 0.0467,-1.36759 0.50932,-0.09 0.71161,-0.17928 0.44953,-0.19844 -0.26208,-0.0191 -1.90342,-0.67992 -3.64742,-1.46837 -3.45111,-1.56021 -5.26878,-2.04752 -5.26878,-1.41255 0,0.20649 0.27371,0.52191 0.60824,0.70094 0.33453,0.17904 0.93644,0.73685 1.33758,1.23958 0.65985,0.82696 0.69013,0.95326 0.3178,1.32559 -0.5467,0.5467 -0.52212,1.34309 0.0515,1.66822 0.4362,0.24725 0.43382,0.28403 -0.0411,0.63496 -0.62495,0.46179 -0.90529,2.98822 -0.43011,3.8761 0.1736,0.32438 0.24176,0.66365 0.15146,0.75395 -0.27971,0.27971 -2.04554,-0.82389 -2.33509,-1.45938 -0.32044,-0.70329 -0.71861,-0.79424 -0.71861,-0.16415 0,1.26622 2.20222,2.96399 4.75361,3.66474 1.67203,0.45923 1.61098,0.46491 2.78702,-0.25943 z m 6.73519,-2.22149 c 0.35738,-0.259 0.75184,-0.87871 0.87659,-1.37712 0.30791,-1.23021 0.84083,-1.56767 2.47573,-1.56767 1.6488,0 2.74478,-0.3645 2.74478,-0.91287 0,-0.28625 -0.20274,-0.36262 -0.72761,-0.2741 -0.40018,0.0675 -1.43222,0.24277 -2.29343,0.3895 -1.93734,0.33008 -2.48416,0.79818 -2.58754,2.21504 -0.0769,1.05454 -0.12743,1.11098 -1.33535,1.49285 -0.69046,0.21828 -1.256,0.49908 -1.25677,0.624 -0.002,0.33419 1.35294,-0.0456 2.1036,-0.58963 z m -17.38467,-0.93185 c 0.76363,-0.57968 0.57938,-0.96764 -0.31198,-0.65691 -0.53701,0.1872 -0.93791,0.18298 -1.30552,-0.0138 -0.68054,-0.36422 -2.15282,-0.36871 -2.15282,-0.007 0,0.38729 1.55978,1.02446 2.51355,1.02679 0.43656,0.001 1.0021,-0.15622 1.25677,-0.34954 z m 21.08749,0.0818 c 1.63429,-0.35049 1.7425,-0.77183 0.19824,-0.77183 -1.05602,0 -1.77271,0.3423 -1.77271,0.84667 0,0.26664 -0.0229,0.26773 1.57447,-0.0748 z m -27.23906,-1.50193 c 0,-0.11052 -0.26789,-0.36551 -0.59531,-0.56665 -0.593198,-0.36441 -0.593522,-0.3637 -0.0913,0.20094 0.53924,0.60623 0.68659,0.68472 0.68659,0.36571 z m 24.51095,-1.67927 c 0.6066,-0.3789 0.91102,-0.83777 1.12833,-1.70076 0.16367,-0.65002 0.53398,-1.32949 0.82291,-1.50993 0.47668,-0.29769 0.75378,-1.25911 0.3629,-1.25911 -0.0893,0 -0.59534,0.22897 -1.12448,0.50882 -0.52913,0.27984 -1.64667,0.80904 -2.48342,1.17598 -0.914,0.40083 -1.52135,0.83146 -1.52135,1.07869 0,0.52106 0.34601,0.51982 1.36064,-0.005 0.44286,-0.22901 0.86797,-0.35362 0.94468,-0.27691 0.31908,0.31908 -0.24949,1.50143 -1.11423,2.31708 -1.16396,1.09788 -1.20092,1.52188 -0.0666,0.76426 0.47294,-0.31589 1.23372,-0.80785 1.69063,-1.09325 z m -37.79969,1.12887 c 0.209265,-0.1328 -0.486929,-0.39118 -1.83409,-0.68067 -1.312547,-0.28205 -2.502332,-0.71903 -3.008106,-1.1048 -0.460195,-0.35101 -0.926162,-0.6382 -1.035483,-0.6382 -0.109321,0 -0.544567,-0.24623 -0.967214,-0.54718 -0.535077,-0.38101 -0.768147,-0.44127 -0.767459,-0.19844 0.0019,0.66847 1.03985,2.0459 1.862062,2.47109 1.222916,0.63239 5.110248,1.1044 5.75029,0.6982 z m 19.04346,-0.55411 c 1.33661,-0.96823 1.48093,-1.19933 0.99883,-1.59944 -0.30302,-0.25148 -0.67258,-0.22329 -1.74584,0.13319 -1.66699,0.55369 -3.70028,0.41331 -4.69669,-0.32425 -0.50065,-0.3706 -0.81364,-0.96236 -1.069103,-2.02132 -0.420347,-1.74245 -0.987943,-2.06576 -0.723517,-0.41213 0.239987,1.50079 1.21286,3.41434 2.04326,4.01891 1.58436,1.15347 3.76495,1.23957 5.19306,0.20504 z M 92.208874,147.8083 c 0.186232,-0.15456 0.294476,-0.32515 0.240542,-0.37908 -0.136006,-0.13601 -2.031393,0.6731 -2.031393,0.86716 0,0.22488 1.387392,-0.15324 1.790851,-0.48808 z m 17.738866,-0.27176 c 0.0596,-0.3129 -0.0791,-0.46302 -0.42792,-0.46302 -0.57855,0 -1.2056,0.61009 -0.92028,0.8954 0.33563,0.33563 1.25822,0.0397 1.3482,-0.43238 z m -32.26265,-1.36429 c -1.010825,-1.0321 -1.728441,-1.52391 -2.480609,-1.70007 -0.582083,-0.13633 -1.296458,-0.33212 -1.5875,-0.43509 -0.535689,-0.18953 0.143846,0.4775 2.081692,2.04338 0.92155,0.74466 3.113292,1.83939 3.302936,1.64974 0.05817,-0.0582 -0.534267,-0.75925 -1.316519,-1.55796 z m 21.110245,0.83512 c -0.0734,-0.1819 -0.133452,-0.0331 -0.133452,0.33073 0,0.36381 0.06005,0.51263 0.133452,0.33073 0.0734,-0.1819 0.0734,-0.47955 0,-0.66146 z m 13.583105,-0.23083 c 0,-0.60578 -0.35102,-0.63712 -0.90714,-0.081 -0.50154,0.50155 -0.52932,0.82226 -0.085,0.98186 0.46509,0.16709 0.99219,-0.3115 0.99219,-0.90086 z m 21.5538,0.30369 c 1.19074,-0.81926 1.72219,-1.82393 1.73891,-3.28734 0.005,-0.45123 0.17953,-1.11807 0.3875,-1.48187 0.50052,-0.87558 0.50052,-1.41931 0,-1.22724 -0.71505,0.27439 -0.44075,-0.82713 0.54904,-2.20484 1.26745,-1.7642 0.93532,-2.15479 -0.68133,-0.80125 -0.70525,0.59046 -1.34998,0.96402 -1.43273,0.83012 -0.0828,-0.13389 0.0974,-0.8037 0.40027,-1.48846 0.3029,-0.68475 0.65121,-1.95588 0.77402,-2.82472 0.38466,-2.72138 -0.54399,-6.43882 -1.60848,-6.43882 -0.30582,0 -0.41562,0.71259 -0.55034,3.57188 -0.14019,2.97541 -0.28181,3.85079 -0.84811,5.24213 -0.77724,1.90962 -3.032,4.67505 -4.01237,4.92111 -0.36287,0.0911 -0.65976,0.3558 -0.65976,0.58828 0,0.28288 0.15315,0.37346 0.46302,0.27385 2.24445,-0.7215 3.17995,-1.20553 4.33211,-2.24142 1.4789,-1.32966 1.81701,-1.2404 1.80472,0.47646 -0.006,0.77485 -1.22377,4.77796 -1.95256,6.41615 -0.28852,0.64854 -0.0199,0.58137 1.29609,-0.32402 z m -39.747044,-1.19437 c 0.27827,-0.53155 0.277925,-0.53155 -0.313597,-0.006 -0.325695,0.28941 -0.717532,0.76566 -0.870749,1.05833 -0.27827,0.53154 -0.277925,0.53155 0.313597,0.006 0.325695,-0.28941 0.717532,-0.76566 0.870749,-1.05833 z m 14.026054,0.55476 c 0.40659,-0.30864 0.66377,-1.21918 0.34436,-1.21918 -0.29363,0 -1.44187,1.26168 -1.28814,1.41541 0.24175,0.24175 0.414,0.20594 0.94378,-0.19623 z m 21.6016,-0.13043 c 0.64404,-0.49519 0.57872,-1.08875 -0.11982,-1.08875 -0.51124,0 -1.49948,1.01196 -1.30133,1.33256 0.23595,0.38178 0.71422,0.29973 1.42115,-0.24381 z m -37.844149,-0.59958 c 1.675753,-1.34989 2.146466,-3.45818 1.075952,-4.81912 -0.447048,-0.56833 -0.768027,-0.69714 -1.737186,-0.69714 -1.505201,0 -2.125666,0.33326 -2.335812,1.25457 -0.09155,0.4014 -0.473521,1.08143 -0.848813,1.51118 l -0.68235,0.78137 -0.627901,-0.72998 c -0.73193,-0.85092 -0.860031,-2.55969 -0.231026,-3.08172 0.423186,-0.35121 0.542391,-1.05833 0.178412,-1.05833 -0.346761,0 -1.290755,1.13304 -1.489242,1.78749 -0.273672,0.90234 0.526151,3.28896 1.367274,4.07986 2.040568,1.91872 3.764957,2.23308 5.330692,0.97182 z m -20.071512,0.049 c 0,-0.14058 -0.198605,-0.67209 -0.441345,-1.18112 -0.415897,-0.87214 -0.413524,-0.98721 0.04115,-1.9955 0.265373,-0.58849 0.636452,-1.03925 0.82462,-1.00169 0.432121,0.0863 1.763528,-2.4798 1.449556,-2.79377 -0.318296,-0.31829 -3.062548,2.30912 -3.60436,3.45091 -0.714201,1.50506 0.114882,3.73748 1.399648,3.76873 0.181901,0.004 0.330729,-0.10698 0.330729,-0.24756 z m 12.268529,-0.48217 c 0.07091,-0.11473 -0.275313,-0.60385 -0.769383,-1.08693 -0.49407,-0.48308 -0.969802,-1.10358 -1.057182,-1.3789 -0.187467,-0.59065 -0.65238,-0.67094 -0.65238,-0.11266 0,1.36181 1.966637,3.40743 2.478945,2.57849 z m 12.857513,-1.9916 c 0.01212,-0.96343 0.449307,-1.76854 0.960341,-1.76854 0.22175,0 0.329866,-0.11863 0.240259,-0.26361 -0.102579,-0.16598 -0.451349,-0.11446 -0.941656,0.13908 -0.626765,0.32412 -0.778735,0.57564 -0.778735,1.28888 0,0.48739 -0.06674,1.28801 -0.148312,1.77914 l -0.148312,0.89297 0.40352,-0.66146 c 0.221935,-0.3638 0.407738,-0.99671 0.412895,-1.40646 z m 27.668349,-0.30521 c 3.10747,-1.8211 5.32817,-5.43197 6.05043,-9.83803 0.54926,-3.35069 0.23198,-5.11905 -0.91846,-5.11905 -0.70482,0 -1.30417,1.02179 -1.3149,2.24168 -0.005,0.58609 -0.17953,1.36327 -0.3875,1.72707 -0.52228,0.91363 -0.50247,0.97107 0.39687,1.15094 0.66373,0.13274 0.79375,0.28487 0.79375,0.92868 0,0.54294 -0.20888,0.90681 -0.7085,1.23416 -0.68668,0.44994 -0.7227,0.44669 -1.16975,-0.1054 -0.25369,-0.31329 -0.51079,-0.71686 -0.57133,-0.89682 -0.0799,-0.23739 -0.43845,-0.16381 -1.30662,0.26813 -0.69739,0.34697 -1.68418,0.59531 -2.36547,0.59531 -1.31642,0 -2.34499,0.57842 -2.34499,1.31872 0,0.80965 -1.24842,1.5917 -2.54092,1.5917 -0.84959,0 -1.1114,-0.0918 -1.01061,-0.35449 0.26735,-0.6967 -0.62857,-1.09196 -1.77907,-0.78487 -0.99087,0.26447 -1.07158,0.24282 -1.29607,-0.34764 -0.2581,-0.67886 -0.7762,-0.79281 -1.6,-0.35193 -0.4281,0.22911 -0.66143,0.13528 -1.33254,-0.53582 -0.66956,-0.66956 -0.7792,-0.94119 -0.61945,-1.53452 0.36321,-1.34891 0.63058,-2.83579 0.64213,-3.57088 0.0282,-1.7922 -2.55207,-1.38389 -3.17459,0.50236 -0.4317,1.30808 -0.1898,3.93373 0.50769,5.51052 0.64887,1.46689 4.21601,5.52438 5.39088,6.13192 1.46404,0.75709 3.93903,1.14936 6.71265,1.06393 2.37553,-0.0732 2.82157,-0.16649 3.94637,-0.82567 z m -2.39614,-4.11705 c -0.10293,-0.16654 -0.0684,-0.42157 0.0768,-0.56673 0.38527,-0.38527 1.51559,-0.15405 1.51559,0.31003 0,0.47998 -1.32261,0.69319 -1.59238,0.2567 z m -45.371167,4.24122 c 0,-0.14552 -0.238125,-0.26458 -0.529167,-0.26458 -0.291042,0 -0.529167,0.11906 -0.529167,0.26458 0,0.14552 0.238125,0.26458 0.529167,0.26458 0.291042,0 0.529167,-0.11906 0.529167,-0.26458 z m 18.985591,-1.19519 c 0.179522,-0.8698 0.337903,-1.06792 0.907196,-1.13483 0.862974,-0.10144 1.746644,-1.00722 1.359916,-1.39394 -0.186114,-0.18612 -0.701608,-0.005 -1.634165,0.57496 -1.34839,0.83821 -1.362288,0.86048 -1.362288,2.18313 0,1.53919 0.389611,1.41669 0.729341,-0.22932 z m -8.242405,-0.58524 c -0.268953,-0.26895 -0.490868,0.13597 -0.270197,0.49302 0.166696,0.26973 0.229017,0.26993 0.318638,0.001 0.06128,-0.18383 0.03948,-0.40617 -0.04844,-0.49409 z m 22.594311,-0.24265 c 0,-0.0941 -0.52576,-0.73309 -1.16836,-1.42008 -0.6426,-0.68699 -1.49298,-1.88967 -1.88974,-2.67263 -0.71463,-1.41027 -0.71996,-1.46023 -0.57042,-5.35112 0.111,-2.8882 0.25284,-4.04366 0.53599,-4.36626 0.21178,-0.24129 0.63016,-0.92648 0.92974,-1.52265 0.60957,-1.21306 2.93793,-3.44322 4.30776,-4.12608 0.49376,-0.24613 1.73118,-0.76642 2.74983,-1.15618 2.14089,-0.81918 2.59025,-1.15168 2.26575,-1.67654 -0.1649,-0.26671 -0.73002,-0.35603 -2.02687,-0.32036 -1.45959,0.0402 -2.06099,0.19981 -3.1935,0.84777 -2.97829,1.70401 -5.49032,5.49723 -5.92312,8.94407 -0.13043,1.03872 -0.37144,2.13953 -0.53558,2.44624 -0.4038,0.75449 -0.0708,3.74606 0.57581,5.17249 0.27672,0.61048 0.50313,1.21514 0.50313,1.3437 0,0.29853 1.5143,2.65244 2.20869,3.43331 0.49443,0.55601 1.23089,0.80988 1.23089,0.42432 z m -29.025319,-1.53528 c 0.08145,-0.50189 0.350735,-1.33958 0.598422,-1.86154 0.810015,-1.70698 -0.06999,-1.58075 -0.945631,0.13564 -0.525335,1.02975 -0.681265,2.12977 -0.348997,2.46204 0.358305,0.3583 0.551804,0.15371 0.696206,-0.73614 z m 16.292556,-2.53214 c 2.657123,-1.50629 4.119893,-5.72614 3.460563,-9.98308 -0.18596,-1.20063 -0.55679,-2.54254 -0.82406,-2.98204 -0.547514,-0.90031 -2.805735,-2.44554 -3.209381,-2.19607 -0.145009,0.0896 0.06735,0.33638 0.471914,0.54835 0.902942,0.4731 1.830648,1.50236 2.388452,2.64993 0.385235,0.79254 0.384375,0.90003 -0.0104,1.2948 -0.252878,0.25288 -0.372179,0.66293 -0.289136,0.9938 0.126391,0.50359 0.0304,0.56329 -0.905569,0.56329 -1.291782,0 -2.131119,0.74865 -2.164731,1.93085 -0.01309,0.46026 0.172929,1.05422 0.413368,1.3199 0.610866,0.675 0.554887,0.94442 -0.393223,1.89253 -0.570881,0.57088 -0.745033,0.91574 -0.55727,1.1035 0.410645,0.41065 2.708283,-0.67356 2.718886,-1.28299 0.0046,-0.26284 0.302229,-0.69181 0.661458,-0.95327 0.803762,-0.58499 0.843462,-0.23388 0.146966,1.29984 -0.571414,1.25829 -1.936849,2.39643 -3.339739,2.78379 -0.81281,0.22442 -1.160732,0.17872 -2.071226,-0.27211 -0.601873,-0.29802 -1.766077,-0.61198 -2.587118,-0.6977 -2.612529,-0.27275 -5.670692,-2.55623 -5.029064,-3.75512 0.594464,-1.11077 -0.991329,-2.18025 -1.894142,-1.27744 -0.33563,0.33563 -0.405,0.25278 -0.55057,-0.65756 -0.128017,-0.80058 -0.01846,-1.34858 0.47352,-2.36839 0.352041,-0.72975 0.579906,-1.32681 0.506368,-1.32681 -0.07354,0 -0.475327,0.24326 -0.892865,0.54057 -0.824903,0.58738 -1.303048,1.87744 -1.305427,3.5221 -0.001,0.6978 -0.256689,1.39812 -0.809482,2.2172 -0.820807,1.21621 -0.966635,2.43797 -0.316473,2.65146 0.232273,0.0763 0.330729,-0.2524 0.330729,-1.10407 0,-0.66697 0.110558,-1.21268 0.245685,-1.21268 0.135126,0 0.420813,-0.17513 0.634859,-0.38917 0.414547,-0.41455 0.69977,-0.15367 3.449524,3.15511 1.943589,2.33871 3.217406,2.82157 7.179307,2.72143 2.530947,-0.064 3.061383,-0.15915 4.068276,-0.72995 z m 2.25128,-6.9903 c -0.08037,-0.20945 -0.02072,-0.5964 0.13255,-0.8599 0.236813,-0.40711 0.279883,-0.3499 0.286723,0.3808 0.008,0.90708 -0.17471,1.11641 -0.419273,0.4791 z m -19.681014,6.03811 c 0,-0.21828 -0.119063,-0.32329 -0.264584,-0.23335 -0.14552,0.0899 -0.264583,0.34211 -0.264583,0.5604 0,0.21828 0.119063,0.32329 0.264583,0.23335 0.145521,-0.0899 0.264584,-0.34212 0.264584,-0.5604 z m 23.812497,-1.34359 c 0,-0.61499 -0.45653,-0.36532 -0.78587,0.42977 -0.1765,0.4261 -0.4886,0.83909 -0.69356,0.91774 -0.20496,0.0786 -0.37265,0.28915 -0.37265,0.46779 0,0.17863 0.41672,-0.0791 0.92604,-0.57277 0.50932,-0.49366 0.92604,-1.05279 0.92604,-1.24253 z m 21.99461,-2.38337 c 1.62362,-1.07446 1.90485,-2.50295 0.5911,-3.00243 -1.66523,-0.63313 -3.58271,1.60854 -2.62551,3.06941 0.53502,0.81654 0.70791,0.81085 2.03441,-0.067 z m -45.277941,-0.38532 c 0,-0.32973 -0.641128,-0.2689 -1.005416,0.0954 -0.530439,0.53044 -0.356309,0.74717 0.343958,0.4281 0.363802,-0.16575 0.661458,-0.40133 0.661458,-0.52349 z m 1.015296,-2.93409 c 0.14542,-0.61847 0.648294,-2.05008 1.117497,-3.18136 0.892809,-2.15264 0.875579,-2.78888 -0.05045,-1.86285 -0.574286,0.57429 -2.186264,5.52191 -1.932737,5.93212 0.310122,0.50179 0.611643,0.19253 0.865688,-0.88791 z m 8.449071,-0.41341 c 0.0576,-0.17281 -0.08378,-0.3142 -0.314193,-0.3142 -0.230408,0 -0.418923,0.18852 -0.418923,0.41893 0,0.46723 0.569584,0.38586 0.733116,-0.10473 z m 47.315214,-0.20836 c -0.0942,-0.24539 -0.23073,-0.38663 -0.30349,-0.31387 -0.0728,0.0728 -0.0553,0.33306 0.0389,0.57845 0.0942,0.24539 0.23074,0.38662 0.3035,0.31386 0.0728,-0.0728 0.0553,-0.33306 -0.0389,-0.57844 z m -48.457071,-1.4921 c 0.481669,-0.68768 0.243768,-1.25957 -0.523969,-1.25957 -0.992921,0 -1.44854,0.28353 -1.44854,0.90143 0,1.21429 1.217949,1.43542 1.972509,0.35814 z m 39.083221,-0.37454 c 0.87644,-0.79316 0.61817,-1.6204 -0.7069,-2.26417 -1.52239,-0.73964 -1.92572,-0.45462 -1.44916,1.02405 0.56334,1.74792 1.19408,2.11071 2.15606,1.24012 z m -21.51859,-1.94607 c 0.0496,-0.36231 0.27751,-0.86827 0.50636,-1.12434 0.32762,-0.3666 0.35415,-0.59162 0.1248,-1.05834 -0.16021,-0.326 -0.36059,-0.84256 -0.4453,-1.1479 -0.28692,-1.03428 -2.21626,-1.50996 -3.2017,-0.78939 -0.62246,0.45515 -0.35867,0.83098 0.32604,0.46453 1.11261,-0.59545 3.0184,0.48305 2.58962,1.46548 -0.11351,0.26008 -0.18823,0.55992 -0.16605,0.66631 0.0662,0.31732 -1.23319,1.05688 -1.53219,0.87209 -0.15192,-0.0939 -0.27622,-0.39478 -0.27622,-0.66865 0,-0.68673 -0.40977,-0.87627 -1.09807,-0.5079 -0.48259,0.25827 -0.63881,0.22966 -0.93151,-0.17063 -0.33199,-0.45403 -0.35167,-0.44863 -0.35167,0.0966 0,0.31762 0.23813,0.72621 0.52917,0.90797 0.29104,0.18175 0.52916,0.53768 0.52916,0.79095 0,0.49684 1.05662,0.89395 1.71073,0.64294 0.21395,-0.0821 0.46344,-0.0288 0.55443,0.11841 0.29764,0.4816 1.04007,0.11572 1.1324,-0.55808 z m -21.691705,-1.55577 c 0.218056,-0.13817 0.255791,-0.29123 0.09613,-0.38991 -0.144569,-0.0893 -0.409984,0.0148 -0.589812,0.23151 -0.357023,0.43018 -0.07703,0.52002 0.493687,0.1584 z m 15.323165,-3.37224 c 0.4704,-0.12604 0.53618,-0.23896 0.30294,-0.52 -0.32097,-0.38675 -1.300707,-0.0606 -1.300707,0.43294 0,0.29487 0.167565,0.30949 0.997767,0.0871 z m 20.43348,-0.75783 c 0,-0.22048 -0.23518,-0.39687 -0.52916,-0.39687 -0.52712,0 -0.68822,0.28192 -0.35278,0.61736 0.32224,0.32224 0.88194,0.18232 0.88194,-0.22049 z"
       id="path1" /></g></svg>
