<?xml version="1.0" encoding="UTF-8" standalone="no"?>
<!-- Created with Inkscape (http://www.inkscape.org/) -->

<svg
   width="57.94379mm"
   height="72.760452mm"
   viewBox="0 0 57.943792 72.760451"
   version="1.1"
   id="svg1"
   xml:space="preserve"
   inkscape:version="1.4 (86a8ad7, 2024-10-11)"
   sodipodi:docname="ArgoKnowledge.svg"
   xmlns:inkscape="http://www.inkscape.org/namespaces/inkscape"
   xmlns:sodipodi="http://sodipodi.sourceforge.net/DTD/sodipodi-0.dtd"
   xmlns="http://www.w3.org/2000/svg"
   xmlns:svg="http://www.w3.org/2000/svg"><sodipodi:namedview
     id="namedview1"
     pagecolor="#505050"
     bordercolor="#eeeeee"
     borderopacity="1"
     inkscape:showpageshadow="0"
     inkscape:pageopacity="0"
     inkscape:pagecheckerboard="0"
     inkscape:deskcolor="#505050"
     inkscape:document-units="mm"
     inkscape:zoom="1.4396184"
     inkscape:cx="79.88228"
     inkscape:cy="164.62696"
     inkscape:window-width="1920"
     inkscape:window-height="1010"
     inkscape:window-x="1529"
     inkscape:window-y="-6"
     inkscape:window-maximized="1"
     inkscape:current-layer="layer1" /><defs
     id="defs1" /><g
     inkscape:label="Layer 1"
     inkscape:groupmode="layer"
     id="layer1"
     transform="translate(-63.114039,-47.158196)"><path
       style="fill:#000000"
       d="m 63.662409,119.22147 c -0.542025,-0.68907 -0.54837,-0.89657 -0.54837,-17.93279 0,-15.171397 0.04933,-17.306085 0.411878,-17.823696 0.28166,-0.402127 0.683177,-0.588038 1.27,-0.588038 0.471967,0 1.000997,0.142875 1.175622,0.3175 0.240081,0.240081 0.3175,4.29669 0.3175,16.636353 0,13.477851 0.06297,16.371111 0.361714,16.619051 0.259047,0.21499 3.206652,0.28051 10.384896,0.23083 6.564457,-0.0454 9.980293,-0.16066 9.898891,-0.33394 -0.06836,-0.14552 -0.901798,-0.5136 -1.852083,-0.81795 -0.950286,-0.30435 -2.382636,-0.72107 -3.183001,-0.92604 -1.043113,-0.26714 -3.165814,-0.37268 -7.495779,-0.37268 -5.674128,0 -6.063355,-0.0312 -6.416147,-0.51359 -0.315361,-0.43125 -0.375575,-3.30238 -0.375575,-17.908296 0,-10.744389 0.09934,-17.655993 0.259839,-18.078133 0.142911,-0.375885 0.560548,-0.797757 0.928083,-0.937494 0.367534,-0.139736 1.975444,-0.399419 3.573133,-0.577074 2.316338,-0.257565 3.455061,-0.254863 5.620355,0.01334 1.493506,0.18499 3.600418,0.572286 4.682026,0.860658 1.081608,0.288372 2.063874,0.584456 2.182813,0.657964 0.118939,0.07351 0.216252,0.781469 0.216252,1.573245 0,0.791776 -0.0893,1.436666 -0.198437,1.433088 -0.109141,-0.0036 -0.904248,-0.242601 -1.766905,-0.531161 -0.862658,-0.28856 -2.767658,-0.716478 -4.233334,-0.95093 -1.788699,-0.286122 -3.360793,-0.371866 -4.781533,-0.260789 -1.164166,0.09102 -2.384557,0.238093 -2.711979,0.326836 -0.595312,0.16135 -0.595312,0.16135 -0.59506,15.674762 l 2.53e-4,15.513404 4.828393,0.0152 c 4.083601,0.0128 5.18811,0.10601 7.16039,0.60422 1.282597,0.32398 2.83041,0.77472 3.439583,1.00164 0.609173,0.22692 1.345713,0.50367 1.636754,0.61499 0.291042,0.11132 1.046434,0.45744 1.67865,0.76914 0.632215,0.31171 1.195752,0.56674 1.252304,0.56674 0.05655,0 0.134597,-3.06586 0.173434,-6.81302 0.07061,-6.81302 0.07061,-6.81302 1.251643,-6.89714 0.889321,-0.0633 1.265088,0.0308 1.521354,0.38129 0.253298,0.34641 0.340324,1.9748 0.340324,6.36798 0,3.24641 0.04306,5.90256 0.0957,5.90256 0.05263,0 0.915835,-0.37301 1.918229,-0.82892 1.002393,-0.4559 2.179721,-0.93944 2.616283,-1.07454 0.436563,-0.1351 1.389058,-0.4027 2.116668,-0.59467 0.7276,-0.19198 2.27541,-0.4939 3.43958,-0.67094 1.19996,-0.18249 3.7485,-0.28212 5.88454,-0.23006 2.9591,0.0721 3.7968,0.0162 3.90261,-0.26053 0.0741,-0.19381 0.13472,-7.19247 0.13472,-15.552575 0,-14.227566 -0.0296,-15.212372 -0.46302,-15.39034 -0.25466,-0.104573 -2.42755,-0.176902 -4.82864,-0.16073 -3.66525,0.02469 -4.7052,0.124996 -6.48229,0.625263 -1.16417,0.327722 -2.29527,0.612147 -2.513542,0.632055 -0.30848,0.02813 -0.396875,-0.283681 -0.396875,-1.399977 0,-1.36621 0.03867,-1.447823 0.793747,-1.675339 0.43656,-0.131541 1.27,-0.350855 1.85208,-0.487365 0.58209,-0.136509 2.30849,-0.415984 3.83646,-0.621055 2.11822,-0.284291 3.46945,-0.312248 5.68854,-0.117699 1.60073,0.140338 3.26761,0.393049 3.70417,0.561581 0.43656,0.168533 0.88122,0.432245 0.98814,0.586028 0.10691,0.153783 0.19438,8.316323 0.19438,18.13898 0,9.822653 -0.0899,18.000753 -0.19977,18.173543 -0.10987,0.1728 -0.495,0.42638 -0.85584,0.56351 -0.38186,0.14511 -1.20902,0.15862 -1.97899,0.0323 -0.72761,-0.11935 -2.69214,-0.22372 -4.36563,-0.23193 -1.67349,-0.008 -4.11427,0.16688 -5.42396,0.38907 -1.30969,0.2222 -3.15515,0.66314 -4.101036,0.97987 -0.945885,0.31673 -1.956677,0.73129 -2.246204,0.92124 -0.436842,0.28661 1.228867,0.33358 9.78958,0.27606 l 10.316,-0.0693 0.0682,-16.511779 c 0.0481,-11.660372 0.15483,-16.616204 0.36313,-16.867187 0.16223,-0.195474 0.63151,-0.355407 1.04285,-0.355407 0.53717,0 0.93804,0.249308 1.42281,0.88487 0.67492,0.88487 0.67492,0.88487 0.67492,18.612113 0,16.83785 -0.0243,17.74922 -0.48385,18.16513 -0.4438,0.40164 -2.79666,0.43788 -28.423505,0.43788 -27.939652,0 -27.939652,0 -28.488022,-0.69714 z M 89.668717,99.078624 c -0.165293,-0.106913 -0.444704,-1.444543 -0.620914,-2.972511 -0.17621,-1.527969 -0.418794,-3.671094 -0.539075,-4.7625 -0.120281,-1.091407 -0.290218,-2.639219 -0.377638,-3.439584 -0.08742,-0.800364 -0.29536,-2.444105 -0.462091,-3.652756 -0.22819,-1.654176 -0.422881,-2.261627 -0.787387,-2.456705 -0.398321,-0.213175 -0.484239,-0.587109 -0.484239,-2.107524 0,-1.848368 0,-1.848368 5.225521,-1.776629 5.225521,0.07174 5.225521,0.07174 5.305705,1.779804 0.06958,1.4823 0.0063,1.763779 -0.478634,2.129581 -0.455641,0.343691 -0.603179,0.858787 -0.799091,2.789852 -0.132151,1.302585 -0.356973,3.380367 -0.499603,4.617294 -0.142631,1.236927 -0.450202,3.851334 -0.683491,5.809793 -0.23329,1.958458 -0.551803,3.71463 -0.707807,3.902604 -0.180308,0.217258 -0.922482,0.340294 -2.037184,0.337718 -0.964448,-0.0022 -1.88878,-0.09153 -2.054072,-0.198437 z M 88.849615,75.623685 C 88.379337,75.452657 87.486368,74.954049 86.86524,74.515667 86.192842,74.041101 85.507039,73.242991 85.170234,72.54309 84.859109,71.896555 84.472156,70.877508 84.310338,70.278541 84.14852,69.679574 84.020305,68.727074 84.025417,68.161874 c 0.0051,-0.5652 0.16712,-1.763019 0.360017,-2.661819 0.192896,-0.898801 0.616458,-2.148957 0.941248,-2.778125 0.32479,-0.629168 0.803699,-1.382067 1.064243,-1.673109 0.260544,-0.291042 0.68109,-0.93893 0.934547,-1.439751 0.253457,-0.500822 0.572335,-1.274728 0.708617,-1.719792 0.136282,-0.445064 0.404235,-1.404519 0.595452,-2.132123 0.191216,-0.727605 0.568109,-2.960027 0.83754,-4.960938 0.26943,-2.000911 0.567964,-3.638021 0.663409,-3.638021 0.09544,0 0.4728,0.625078 0.838568,1.389063 0.365768,0.763984 0.901983,2.103437 1.19159,2.976562 0.289606,0.873125 0.653335,2.123281 0.808286,2.778125 0.154951,0.654844 0.421997,1.845469 0.593436,2.645834 0.171438,0.800364 0.393061,1.745423 0.492495,2.10013 0.09943,0.354707 0.307884,0.687286 0.463222,0.739066 0.157443,0.05248 0.363325,-0.445289 0.465222,-1.124789 0.153631,-1.024487 0.24389,-1.168224 0.56581,-0.901054 0.210661,0.174833 0.547138,0.688429 0.747727,1.141325 0.200588,0.452895 0.750535,1.775946 1.222104,2.940113 0.471569,1.164167 0.970477,2.473854 1.108685,2.910417 0.138209,0.436562 0.405491,1.562632 0.593961,2.502377 0.287789,1.434965 0.282931,1.879925 -0.03033,2.778125 -0.205152,0.588224 -0.806524,1.702665 -1.336382,2.476535 -0.529857,0.773871 -1.449323,1.731532 -2.043257,2.128136 -0.593933,0.396605 -1.412903,0.864766 -1.819932,1.040359 -0.40703,0.175593 -1.538124,0.305054 -2.513542,0.287692 -0.975419,-0.01736 -2.158261,-0.171499 -2.628538,-0.342527 z m 3.939728,-1.923438 c 0.241364,-0.212606 0.580691,-0.729004 0.754059,-1.147552 0.173368,-0.418547 0.257742,-1.332674 0.187498,-2.031393 -0.07024,-0.698719 -0.254564,-1.746648 -0.4096,-2.328731 -0.155036,-0.582083 -0.675016,-2.042357 -1.15551,-3.245053 -0.551411,-1.380205 -1.005107,-2.160883 -1.230116,-2.116667 -0.196069,0.03853 -0.782125,1.082085 -1.302347,2.319012 -0.81388,1.93516 -0.946961,2.544297 -0.953774,4.365625 -0.0055,1.468222 -0.118316,2.200439 -0.368284,2.39012 -0.295948,0.224572 -0.254924,0.407504 0.229491,1.023337 0.324421,0.412436 0.957143,0.911226 1.406048,1.108423 0.452454,0.198756 1.169926,0.289664 1.60994,0.203988 0.436563,-0.085 0.99123,-0.328503 1.232595,-0.541109 z"
       id="path2521" /></g></svg>
