<?xml version="1.0" encoding="UTF-8" standalone="no"?>
<!-- Created with Inkscape (http://www.inkscape.org/) -->

<svg
   width="71.70208mm"
   height="78.129379mm"
   viewBox="0 0 71.702076 78.129381"
   version="1.1"
   id="svg1"
   xml:space="preserve"
   inkscape:version="1.4 (86a8ad7, 2024-10-11)"
   sodipodi:docname="Armor.svg"
   xmlns:inkscape="http://www.inkscape.org/namespaces/inkscape"
   xmlns:sodipodi="http://sodipodi.sourceforge.net/DTD/sodipodi-0.dtd"
   xmlns="http://www.w3.org/2000/svg"
   xmlns:svg="http://www.w3.org/2000/svg"><sodipodi:namedview
     id="namedview1"
     pagecolor="#505050"
     bordercolor="#eeeeee"
     borderopacity="1"
     inkscape:showpageshadow="0"
     inkscape:pageopacity="0"
     inkscape:pagecheckerboard="0"
     inkscape:deskcolor="#505050"
     inkscape:document-units="mm"
     inkscape:zoom="1.4396184"
     inkscape:cx="61.12731"
     inkscape:cy="152.81827"
     inkscape:window-width="1920"
     inkscape:window-height="1010"
     inkscape:window-x="1529"
     inkscape:window-y="-6"
     inkscape:window-maximized="1"
     inkscape:current-layer="layer1" /><defs
     id="defs1" /><g
     inkscape:label="Layer 1"
     inkscape:groupmode="layer"
     id="layer1"
     transform="translate(-63.969807,-94.152365)"><path
       style="fill:#000000"
       d="m 99.740349,172.2813 c -0.624791,-0.23631 -35.770542,-35.54436 -35.770542,-35.93573 0,-0.21035 0.74414,-1.39118 1.653646,-2.62407 3.894907,-5.27977 9.561583,-15.08981 10.586422,-18.32701 0.91721,-2.89723 1.049845,-3.93882 0.706673,-5.54957 -0.805911,-3.78272 -3.290407,-6.85471 -7.623902,-9.4267 -1.181312,-0.701125 -2.147422,-1.4155 -2.146913,-1.587501 5.17e-4,-0.174178 1.260635,-0.646647 2.844271,-1.06643 1.56384,-0.414535 3.200532,-0.863069 3.637095,-0.996742 3.153273,-0.965515 7.667249,-2.09404 7.946817,-1.986759 0.185713,0.07126 0.418504,0.497656 0.517315,0.947537 0.214733,0.977673 1.253638,2.274991 2.216863,2.768275 0.382848,0.196064 1.350932,0.498732 2.151296,0.672595 2.611688,0.567339 5.531921,-0.567507 8.855555,-3.441399 l 1.821973,-1.575431 h 2.693942 2.69394 l 2.0772,1.726947 c 3.34063,2.777337 6.16123,3.829799 8.79725,3.282563 1.9647,-0.407869 3.35313,-1.319899 3.89064,-2.555665 0.71003,-1.632388 0.83355,-1.793692 1.35104,-1.764309 0.42221,0.02397 1.74568,0.364142 6.57992,1.691231 1.91408,0.52545 7.0365,1.852566 7.15056,1.852566 0.069,0 0.12548,0.165673 0.12548,0.368162 0,0.202489 -1.24933,1.164597 -2.77628,2.13802 -3.15645,2.0122 -4.77173,3.68665 -6.00512,6.22507 -0.72868,1.49968 -0.83821,2.00763 -0.85576,3.96875 -0.0118,1.32232 0.12892,2.63051 0.34162,3.175 1.85844,4.75741 4.04718,8.73037 8.93024,16.20997 2.49151,3.81636 3.5403,5.62087 3.5403,6.0913 0,0.52637 -35.54798,35.8644 -35.931541,35.71933 z m 30.110711,-36.45677 c 0,-0.14879 -0.55897,-1.10269 -1.24215,-2.11978 -2.57688,-3.83635 -6.82731,-10.96974 -7.80208,-13.09405 -1.95569,-4.26204 -2.53953,-5.98289 -2.76647,-8.15414 -0.19345,-1.85087 0.25151,-4.67358 1.02826,-6.52306 0.30725,-0.73155 1.13258,-2.19559 1.83407,-3.25343 0.7015,-1.05783 1.27545,-1.96669 1.27545,-2.01967 0,-0.053 -0.30335,-0.15434 -0.67412,-0.22521 -0.50577,-0.0967 -0.98286,0.12626 -1.91037,0.8927 -2.15446,1.78035 -4.53235,2.60562 -7.52291,2.61092 -3.64728,0.006 -6.77662,-1.296 -10.30144,-4.287567 -0.82013,-0.696049 -1.72059,-1.265545 -2.001023,-1.265545 -0.280436,0 -0.859581,0.373249 -1.286989,0.829441 -1.391259,1.484961 -5.107226,3.675661 -7.255301,4.277281 -2.2646,0.63426 -6.581987,0.45289 -8.192981,-0.34418 -0.225541,-0.11159 -0.721292,-0.34729 -1.10167,-0.52378 -0.380378,-0.17649 -0.977653,-0.58614 -1.327279,-0.91033 -1.192893,-1.10611 -1.908578,-1.44096 -2.549691,-1.19294 -0.591689,0.22889 -0.58322,0.25453 0.625122,1.89254 0.673716,0.91328 1.338277,1.95638 1.476801,2.318 0.138525,0.36161 0.408469,1.01646 0.599877,1.4552 1.196361,2.74233 1.208631,6.85123 0.03083,10.32273 -1.133045,3.33956 -3.744036,8.32689 -7.064315,13.49375 -1.683239,2.61937 -3.210429,5.04763 -3.393756,5.39612 -0.321609,0.61136 0.192968,1.15967 14.645178,15.60524 l 14.978498,14.97161 14.949229,-14.94067 c 8.22207,-8.21737 14.94923,-15.0624 14.94923,-15.21118 z m -33.07292,21.24203 c -0.800364,-0.75708 -5.146145,-4.96477 -9.657291,-9.35043 -4.511146,-4.38567 -9.124818,-8.84202 -10.252605,-9.90302 -2.200755,-2.07042 -2.378203,-2.50589 -1.565152,-3.84095 0.265865,-0.43657 0.801201,-1.3593 1.189636,-2.05052 0.388435,-0.69123 1.003716,-1.78537 1.367292,-2.43143 0.363575,-0.64607 1.652899,-2.88348 2.865163,-4.97204 1.212265,-2.08856 2.296123,-4.09004 2.408574,-4.44774 0.399963,-1.27225 0.684601,-3.61971 0.960369,-7.92035 0.179149,-2.79385 0.39198,-4.42906 0.592604,-4.55305 0.172181,-0.10641 0.611701,-0.11175 0.976712,-0.0119 0.365011,0.0999 1.735219,0.1696 3.044907,0.15492 2.561793,-0.0287 5.719428,-0.88376 8.537592,-2.31183 0.75168,-0.3809 1.642775,-0.69255 1.980212,-0.69255 0.337436,0 2.224317,0.64643 4.193067,1.43652 3.94257,1.5822 5.81112,1.92553 8.30047,1.52514 0.86905,-0.13978 1.71006,-0.20427 1.8689,-0.14332 0.18297,0.0702 0.30702,1.29513 0.33849,3.3426 0.0956,6.22076 0.46174,8.18283 2.00062,10.72201 2.45026,4.04298 6.22281,11.58134 6.42769,12.84389 0.14297,0.88101 0.0248,1.0228 -4.57931,5.49428 -2.59933,2.52447 -6.45247,6.26876 -8.56252,8.32065 -8.68819,8.4487 -10.367954,10.03936 -10.666797,10.10097 -0.172378,0.0355 -0.968258,-0.55481 -1.768623,-1.31188 z"
       id="path1" /></g></svg>
