<?xml version="1.0" encoding="UTF-8" standalone="no"?>
<!-- Created with Inkscape (http://www.inkscape.org/) -->

<svg
   width="82.233032mm"
   height="82.321335mm"
   viewBox="0 0 82.233031 82.321337"
   version="1.1"
   id="svg1"
   xml:space="preserve"
   inkscape:version="1.4 (86a8ad7, 2024-10-11)"
   sodipodi:docname="AT.svg"
   xmlns:inkscape="http://www.inkscape.org/namespaces/inkscape"
   xmlns:sodipodi="http://sodipodi.sourceforge.net/DTD/sodipodi-0.dtd"
   xmlns="http://www.w3.org/2000/svg"
   xmlns:svg="http://www.w3.org/2000/svg"><sodipodi:namedview
     id="namedview1"
     pagecolor="#505050"
     bordercolor="#eeeeee"
     borderopacity="1"
     inkscape:showpageshadow="0"
     inkscape:pageopacity="0"
     inkscape:pagecheckerboard="0"
     inkscape:deskcolor="#505050"
     inkscape:document-units="mm"
     inkscape:zoom="1.4396184"
     inkscape:cx="82.660794"
     inkscape:cy="95.858736"
     inkscape:window-width="1920"
     inkscape:window-height="1010"
     inkscape:window-x="1529"
     inkscape:window-y="-6"
     inkscape:window-maximized="1"
     inkscape:current-layer="layer1" /><defs
     id="defs1" /><g
     inkscape:label="Layer 1"
     inkscape:groupmode="layer"
     id="layer1"
     transform="translate(-62.666913,-84.924584)"><path
       style="fill:#000000"
       d="m 96.936611,166.785 c -1.018646,-0.1876 -2.566458,-0.53986 -3.439583,-0.7828 -0.873125,-0.24294 -1.944688,-0.53667 -2.38125,-0.65274 -1.865615,-0.49603 -5.626266,-2.21282 -8.1818,-3.73511 -16.834194,-10.02787 -24.201219,-29.67504 -18.200212,-48.53829 2.715942,-8.53715 10.383671,-18.004061 18.047637,-22.282398 0.509323,-0.284324 1.461823,-0.814333 2.116667,-1.177797 5.172729,-2.871068 15.11304,-5.132024 20.30336,-4.618067 7.87488,0.779787 10.58996,1.457202 16.1338,4.025389 2.27813,1.055349 6.94426,3.943881 8.14932,5.04478 0.29335,0.267992 1.22245,1.06745 2.06467,1.776573 9.30869,7.83764 14.8136,22.89365 13.01002,35.58259 -2.16549,15.23514 -11.59442,27.28615 -25.9268,33.13676 -5.72494,2.33698 -15.58548,3.34645 -21.695829,2.22111 z m 3.474499,-11.79406 c 0.49012,-0.30291 0.90964,-0.7494 0.93227,-0.99219 0.13989,-1.50069 -0.39863,-2.39906 -1.449106,-2.4174 -0.659243,-0.0115 -1.303259,0.68603 -1.152944,1.24877 0.104553,0.39143 0.152984,0.37101 0.314761,-0.13271 0.410851,-1.27924 2.154439,-0.12292 1.808629,1.19945 -0.27294,1.04373 -2.920601,1.14116 -3.683266,0.13553 -0.833721,-1.09931 -0.488248,-1.95742 1.576029,-3.91467 2.716727,-2.57586 3.526677,-5.08357 1.949437,-6.03572 -4.050644,-2.44531 -7.261602,-5.24021 -8.164986,-7.10703 -4.324199,-8.93581 -0.654088,-16.37579 9.501206,-19.26065 2.87967,-0.81804 7.42295,0.99465 11.24265,4.48565 1.3565,1.23976 1.5451,1.51179 2.39603,3.4559 2.58385,5.90332 -0.6356,13.40146 -7.50042,17.46859 -1.98437,1.17567 -1.98437,1.17567 -2.06371,2.84943 -0.0793,1.67377 -0.0793,1.67377 2.04592,3.70255 2.79712,2.67017 3.18356,4.47633 1.05764,4.94326 -2.05782,0.45197 -3.36823,-0.56064 -2.47993,-1.91636 0.43608,-0.66554 1.44008,-0.81891 1.44008,-0.21998 0,0.4652 0.43762,0.77468 0.63769,0.45096 0.21547,-0.34865 -0.75856,-1.36139 -1.30935,-1.36139 -1.62128,0 -2.02757,2.50721 -0.55388,3.41801 3.75393,2.32005 6.37698,-1.49088 3.71843,-5.40238 -1.54649,-2.27534 -1.57572,-2.43395 -0.61409,-3.33224 1.11644,-1.04292 1.36012,-0.99096 3.23816,0.69052 4.67333,4.18421 10.75804,3.59775 10.75804,-1.03689 0,-1.81804 -2.38934,-2.94879 -3.16569,-1.49816 -0.40853,0.76335 -0.3344,1.07573 0.25527,1.07573 0.35278,0 0.52917,-0.17639 0.52917,-0.52917 0,-0.64335 0.45229,-0.68076 1.10365,-0.0913 1.10927,1.00388 -0.10545,2.47253 -2.04503,2.47253 -1.3914,0 -5.0273,-3.13096 -4.83149,-4.1605 0.0733,-0.38565 2.19276,-2.19942 6.21328,-5.31726 12.0871,-9.3733 11.4338,-8.54878 9.99534,-12.61495 -1.86216,-5.26383 -2.80441,-7.95997 -3.19011,-9.12812 -0.21622,-0.65485 -0.49422,-1.42875 -0.61779,-1.7198 -0.12357,-0.29104 -0.68254,-1.68804 -1.24216,-3.10444 -1.16039,-2.93698 -0.26447,-2.31689 -6.97319,-4.82629 -1.81901,-0.6804 -3.54541,-1.34337 -3.83646,-1.47326 -4.64615,-2.07364 -12.46589,-4.81653 -13.15943,-4.61587 -0.49591,0.14348 -3.757715,1.39194 -5.890566,2.25462 -0.291041,0.11772 -2.017448,0.76864 -3.836458,1.44649 -1.81901,0.67786 -3.545417,1.33315 -3.836458,1.45621 -0.291042,0.12306 -2.285339,0.89869 -4.431771,1.72361 -2.490822,0.95729 -3.902604,1.63579 -3.902604,1.8756 0,0.20665 -0.10796,0.58247 -0.239911,0.83515 -0.385457,0.73816 -1.852352,4.46499 -2.292655,5.82479 -0.222476,0.68707 -0.510811,1.48735 -0.640744,1.77839 -0.312443,0.69986 -2.246996,6.06619 -3.060832,8.49056 -0.989157,2.94665 -0.969947,2.97622 4.918975,7.57191 12.341477,9.63124 11.86403,9.20694 11.379287,10.11269 -0.456161,0.85234 -2.086828,2.50915 -3.052662,3.1016 -1.990298,1.22086 -4.74064,-0.0706 -3.818758,-1.79316 0.410813,-0.76761 1.302848,-0.82689 1.493137,-0.0992 0.155839,0.59593 0.501629,0.69679 0.68032,0.19844 0.434371,-1.21142 -1.696839,-1.75109 -2.751248,-0.69668 -1.157782,1.15778 -0.08102,4.11557 1.78155,4.8938 2.770036,1.15739 5.656845,0.26325 8.832707,-2.73579 1.317657,-1.24429 1.691992,-1.34065 2.653108,-0.68292 1.293672,0.88531 1.271469,1.16533 -0.283127,3.57059 -2.635159,4.07711 -0.164426,7.82285 3.61806,5.48515 z M 82.312815,125.99585 c -1.17617,-0.47323 -1.257899,-2.82937 -0.127896,-3.68708 1.260542,-0.9568 3.506901,0.41607 3.506901,2.14326 0,1.15777 -2.031561,2.08596 -3.379005,1.54382 z m 40.033225,-0.65371 c -0.5514,-0.67007 -0.40873,-1.57401 -0.26399,-2.03714 0.66972,-2.14288 4.3548,-1.25828 3.99865,0.96661 -0.3167,1.97841 -2.47172,2.60527 -3.73466,1.07053 z m -32.499482,-4.93505 c -1.096681,-1.1231 -1.297146,-2.37789 -0.596387,-3.73301 1.15258,-2.22884 4.913131,-2.13947 5.865301,0.13939 1.411793,3.3789 -2.724097,6.19975 -5.268914,3.59362 z m 23.611752,-0.0849 c -2.26576,-1.8762 -1.52431,-5.00904 1.63252,-5.45667 2.74954,-0.38987 4.08669,2.44885 3.41252,4.16177 -0.83673,2.02918 -3.00987,2.98016 -5.04504,1.2949 z m -6.62532,20.58845 c 0.4953,-0.2476 0.999,-0.45018 1.11934,-0.45018 0.48803,0 3.10456,-1.87473 3.93231,-2.81749 5.27673,-6.00986 2.72494,-14.4958 -5.29074,-17.59433 -1.179,-0.45575 -4.93834,-0.32587 -5.62277,-0.055 -0.26018,0.0936 -0.52639,0.19435 -0.71679,0.25508 -3.15445,1.00618 -7.418771,5.96191 -7.418771,10.31267 0,1.80185 0.115972,2.33453 0.887873,4.07821 1.190827,2.69 4.316491,5.82083 5.811223,5.82083 0.186351,0 0.465425,0.12661 0.620165,0.28135 0.79803,0.79803 5.19702,0.90924 6.67816,0.16883 z"
       id="path119"
       sodipodi:nodetypes="ssssssssssssssssssssssscsssscsssssscssssssscsccssssscsscscscssssssssssssssssssssssssssssscscscscssssscc" /></g></svg>
