<?xml version="1.0" encoding="UTF-8" standalone="no"?>
<!-- Created with Inkscape (http://www.inkscape.org/) -->

<svg
   width="27.975628mm"
   height="27.790205mm"
   viewBox="0 0 27.975629 27.790204"
   version="1.1"
   id="svg1"
   xml:space="preserve"
   inkscape:version="1.4 (86a8ad7, 2024-10-11)"
   sodipodi:docname="BabelianDebt.svg"
   xmlns:inkscape="http://www.inkscape.org/namespaces/inkscape"
   xmlns:sodipodi="http://sodipodi.sourceforge.net/DTD/sodipodi-0.dtd"
   xmlns="http://www.w3.org/2000/svg"
   xmlns:svg="http://www.w3.org/2000/svg"><sodipodi:namedview
     id="namedview1"
     pagecolor="#505050"
     bordercolor="#eeeeee"
     borderopacity="1"
     inkscape:showpageshadow="0"
     inkscape:pageopacity="0"
     inkscape:pagecheckerboard="0"
     inkscape:deskcolor="#505050"
     inkscape:document-units="mm"
     inkscape:zoom="4"
     inkscape:cx="49.25"
     inkscape:cy="49.5"
     inkscape:window-width="1920"
     inkscape:window-height="1010"
     inkscape:window-x="4601"
     inkscape:window-y="-6"
     inkscape:window-maximized="1"
     inkscape:current-layer="layer1" /><defs
     id="defs1" /><g
     inkscape:label="Layer 1"
     inkscape:groupmode="layer"
     id="layer1"
     transform="translate(-60.172309,-120.74975)"><path
       style="fill:#000000;fill-opacity:1"
       d="m 75.491332,148.32112 c -5.670196,-1.50048 -8.109356,-7.02756 -5.518385,-12.50452 2.144181,-4.53252 6.074999,-6.30043 10.828013,-4.86999 0.664278,0.19992 1.096015,0.42341 1.300591,0.38983 0.145732,-0.0239 0.130115,-0.24741 0.209815,-0.38983 0.119745,-0.21397 0.368909,-0.38904 0.553698,-0.38904 0.07533,0 0.301995,0.1111 0.405821,0.003 0.150873,-0.15725 0.0684,-0.71124 0.191706,-0.99139 0.208163,-0.47295 0.552823,-0.96574 0.880245,-1.10939 0.359911,-0.1579 0.744415,0.18736 0.817678,-0.099 0.03153,-0.12325 0.22513,-0.47535 0.161377,-0.79706 -0.02962,-0.14949 -0.274021,-0.008 -0.355856,-0.16596 -0.134521,-0.26006 -0.128323,-0.83299 -0.214286,-1.16303 -0.218281,-0.83804 -0.511898,-2.11728 -0.595657,-2.44797 -0.08185,-0.32316 0.536024,-0.15797 0.02271,-0.46862 -0.253842,-0.15362 -0.584358,-0.18565 -0.777901,-0.13404 -0.164034,0.0438 -0.06118,0.47561 -0.194634,0.63642 -0.720172,0.093 -4.441721,0.62732 -4.43127,-0.17334 -0.07399,-0.54136 -0.515469,-0.58777 -0.769327,-0.49251 -0.08776,0.0329 -0.0669,0.28856 -0.175417,0.37019 -0.242985,0.18278 -0.462271,0.43504 -1.010303,0.96134 -1.174034,1.12748 -1.843608,1.87095 -2.340737,1.44126 -0.351737,-0.30402 -1.238232,0.0545 -1.095829,0.64574 0.05952,0.24711 0.703324,0.49148 0.804711,1.01926 0.205734,1.07095 -1.311977,2.55791 -4.226445,4.33318 -1.912846,1.16516 -5.770072,2.60078 -6.987781,2.60078 -0.491934,0 -1.843786,-1.58248 -2.668896,-3.12421 -0.409729,-0.76558 0.141767,-1.84007 1.486209,-2.89559 1.218806,-0.95689 4.966773,-3.24061 5.318371,-3.24061 0.139811,0 0.77322,-0.23551 1.407575,-0.52336 1.685483,-0.76481 3.273971,-0.71226 3.823536,0.12648 0.175505,0.26785 0.409574,0.50174 0.523724,0.61939 0.07142,0.0736 0.615236,-0.35938 0.546251,-0.54649 -0.04431,-0.22155 -0.568226,-0.80316 -0.468918,-1.03652 0.253494,-0.59568 2.016221,-2.23713 2.997521,-2.83716 0.294665,-0.18018 0.917303,0.51244 1.139592,0.75807 0.191266,0.21135 0.367165,0.42 0.566751,0.47937 0.18359,0.0546 0.614534,-0.002 0.843798,-0.0102 0.185013,-0.006 0.04466,-0.31012 0.04466,-0.47815 0,-0.14865 0.0749,-0.73762 0.225423,-0.84534 0.351823,-0.25179 4.036162,-0.31649 4.423064,-0.0538 0.144193,0.0979 0.102819,1.12048 0.297655,1.22289 0.547981,0.28802 1.287679,0.43744 1.857158,0.66523 0.173643,0.0694 0.381323,-0.15197 0.508607,-0.20036 0.435102,-0.16543 0.959274,-0.18808 1.229522,0.1349 0.366575,0.43811 0.442733,1.48269 0.84398,3.39478 0.13617,0.6489 0.04628,0.78328 -0.745219,1.11399 -0.301248,0.12587 -0.798363,0.024 -0.883902,0.27231 -0.07325,0.21263 -0.344019,0.89487 -0.230474,1.3216 0.03871,0.1455 0.215104,0.17862 0.333418,0.26513 0.366605,0.26807 0.721801,0.58655 0.116223,1.53959 -0.367213,0.57791 -0.461251,0.95549 -0.368975,1.62199 0.03975,0.28711 0.533993,0.33418 0.631306,0.65624 0.08112,0.26848 -0.454317,0.7317 -0.420281,1.04325 0.0559,0.51163 0.67536,0.87217 0.890172,1.19786 2.047579,3.10448 0.441133,9.4392 -2.972222,11.72039 -1.961819,1.31111 -6.462001,2.04557 -8.778163,1.43265 z m 3.432442,-1.60146 c 0.08845,-0.27867 0.08757,-0.79846 -0.0019,-1.1551 -0.568701,-2.26588 1.914207,-5.19107 4.423624,-5.21159 0.390709,-0.003 1.028728,-0.12685 1.41782,-0.27478 1.160598,-0.44126 0.366455,-1.05395 -1.366085,-1.05395 -2.213664,0 -4.495403,-2.33518 -5.180093,-5.30142 -0.501086,-2.17083 -1.337008,-0.73383 -1.754446,3.016 -0.209406,1.88108 0.738474,1.91115 -3.296262,2.77854 -0.322687,0.0394 -1.422633,-0.0735 -1.45646,0.15219 -0.09264,0.61813 -0.216433,0.78186 0.974931,0.89563 2.22782,0.21275 5.320006,3.45369 5.320006,5.57594 0,1.12661 0.620881,1.51751 0.918901,0.57854 z m -2.371207,-5.43968 c -1.320014,-1.16241 -2.031082,-1.55928 -0.650585,-1.41693 0.996748,-0.13419 1.214212,-0.76533 1.448845,-1.70019 0.251015,-1.00012 0.364398,-1.76124 1.465795,0.49066 0.80432,1.1379 1.41677,1.20591 0.872261,1.51757 -0.454093,0.25992 -0.813971,0.8929 -1.242229,1.57671 -0.218359,0.34866 -0.416315,1.07979 -0.541376,0.91898 -0.208594,-0.26821 -0.635323,-0.75506 -1.352711,-1.3868 z M 85.635321,130.942 c 0.597552,-0.79675 0.386511,-1.19206 -0.09319,-1.00798 -0.220134,0.0845 -0.572416,0.0107 -0.782849,-0.16395 -0.313717,-0.26036 -0.413705,-0.19361 -0.555342,0.37071 -0.330331,1.31615 0.668061,1.81899 1.291066,0.98831 z M 65.98076,129.23477 c 4.252161,-2.16907 6.310609,-4.23345 4.221284,-4.23345 -1.725961,0 -9.130504,4.37544 -9.130504,5.39533 0,0.94979 1.435689,0.61 4.90922,-1.16188 z m 20.358489,-3.17511 c 0.194027,0 0.401986,0.21898 0.476421,0.40089 l 0.303835,-0.0551 c 0,0 -0.411039,-2.27306 -0.523029,-2.64318 -0.115926,-0.38312 -0.317467,-0.52949 -0.495886,0.14235 -0.0669,0.2519 -0.881071,-0.16925 -1.006657,0.0702 -0.162916,0.31066 0.151108,0.79742 0.209442,1.15872 0.144924,0.89761 0.20098,1.50087 0.337513,1.4852 0.153824,-0.0177 0.199261,-0.12019 0.239684,-0.24146 0.05824,-0.17473 0.264649,-0.31769 0.458677,-0.31769 z M 76.02217,124.20583 c 0.346583,-0.36176 0.888585,-0.73871 0.92385,-0.92688 0.02178,-0.1162 -0.373936,-0.0808 -0.456798,-0.1637 -0.162294,-0.16229 -0.232115,-0.45916 -0.155157,-0.65971 0.229499,-0.59806 -0.250595,-0.39825 -1.326193,0.55198 -0.666188,0.58854 -1.234119,0.89034 -1.091974,1.07502 0.06901,0.0897 0.65394,0.0266 0.808362,0.19512 0.154416,0.1685 0.07151,0.53891 0.153025,0.63625 0.256788,0.30661 0.475812,-0.01 1.144885,-0.70808 z m 5.247042,-1.03094 c 0.208367,-0.024 1.567981,0.12444 1.084177,-0.27947 -0.543357,-0.45363 -0.278935,-0.46032 -0.181962,-0.59611 0.136847,-0.19162 0.548003,-0.25052 0.316616,-0.53495 -0.187794,-0.23085 -1.079752,-0.0646 -1.506607,-0.0921 -0.773257,-0.0498 -1.389063,0.0232 -1.389063,0.16462 0,0.13971 0.132943,0.25403 0.295428,0.25403 0.172115,0 0.242874,0.27491 0.169522,0.65863 -0.01441,0.0754 -0.400012,0.27231 -0.349043,0.32373 0.149386,0.15071 0.860442,0.15238 1.560932,0.10162 z"
       id="path10"
       sodipodi:nodetypes="cccscssccsssssssccsscssccsccsccscsssssssssscsscssssssscsccccccssscscsccccccssscscccsscsscsccsssssssscsccssssccsssssscsc" /></g></svg>
