<?xml version="1.0" encoding="UTF-8" standalone="no"?>
<!-- Created with Inkscape (http://www.inkscape.org/) -->

<svg
   width="113.50412mm"
   height="67.632957mm"
   viewBox="0 0 113.50412 67.632959"
   version="1.1"
   id="svg1"
   xml:space="preserve"
   inkscape:version="1.4 (86a8ad7, 2024-10-11)"
   sodipodi:docname="Blindspot.svg"
   xmlns:inkscape="http://www.inkscape.org/namespaces/inkscape"
   xmlns:sodipodi="http://sodipodi.sourceforge.net/DTD/sodipodi-0.dtd"
   xmlns="http://www.w3.org/2000/svg"
   xmlns:svg="http://www.w3.org/2000/svg"><sodipodi:namedview
     id="namedview1"
     pagecolor="#505050"
     bordercolor="#eeeeee"
     borderopacity="1"
     inkscape:showpageshadow="0"
     inkscape:pageopacity="0"
     inkscape:pagecheckerboard="0"
     inkscape:deskcolor="#505050"
     inkscape:document-units="mm"
     inkscape:zoom="1.4396184"
     inkscape:cx="161.84844"
     inkscape:cy="116.69759"
     inkscape:window-width="1920"
     inkscape:window-height="1010"
     inkscape:window-x="1529"
     inkscape:window-y="-6"
     inkscape:window-maximized="1"
     inkscape:current-layer="layer1" /><defs
     id="defs1" /><g
     inkscape:label="Layer 1"
     inkscape:groupmode="layer"
     id="layer1"
     transform="translate(-41.011851,-81.279658)"><path
       style="fill:#0b0c0a;stroke:none"
       d="m 125.70331,81.330699 c -3.81907,1.520232 -5.58978,7.639537 -9.52113,8.852928 -1.6283,0.502566 -4.44507,-1.125868 -6.08542,-1.456637 -5.04356,-1.017021 -10.164503,-1.944722 -15.345828,-1.587908 -14.040834,0.966927 -26.866925,7.619133 -38.364584,15.321948 -4.965559,3.32665 -10.53897,7.08613 -14.537588,11.5745 -2.84061,3.18853 2.282168,6.27033 4.483422,8.05672 5.000831,4.05835 10.159433,7.79394 15.610416,11.22744 1.58551,0.99869 5.788818,2.24232 6.635408,3.92649 0.882046,1.75471 -4.199443,3.8556 -4.199443,5.6963 0,1.34594 4.953696,6.28839 6.295285,5.95394 1.61975,-0.40379 3.351794,-2.95573 4.497917,-4.10185 l 11.1125,-11.1125 31.485415,-31.48542 9.525,-9.525 c 1.42847,-1.428466 3.61707,-2.9797 4.58733,-4.7625 0.78064,-1.434365 -4.53899,-7.231164 -6.1787,-6.578451 M 79.934265,126.53832 c -3.955984,-6.92586 -3.108115,-14.51953 0.264583,-21.43125 -6.810295,1.229 -9.420658,10.60534 -6.579875,16.13958 1.449487,2.8238 3.863112,4.03048 6.050709,6.08542 -2.989199,0.87498 -6.80265,-1.63991 -8.523628,-3.97263 -0.778429,-1.05514 -1.254434,-2.99765 -2.394109,-3.69294 -3.756584,-2.29179 -3.210259,2.23731 -2.3296,4.22598 0.432962,0.9777 0.930253,1.92363 1.341087,2.91042 l -0.264584,0.26458 C 61.438886,124.54451 56.68977,120.129 51.359265,116.48415 c 0.616274,-1.66955 2.338948,-2.63234 3.704167,-3.67355 3.616839,-2.75844 8.00825,-6.16357 12.435416,-7.43895 l -2.38125,7.67292 c 1.040103,0 2.713532,0.31253 3.624139,-0.27194 0.796911,-0.51149 1.043036,-1.8487 1.492365,-2.63848 0.827566,-1.4546 1.974847,-2.7354 3.350163,-3.68988 2.261381,-1.56941 4.960275,-1.1751 7.120068,-2.36614 1.62507,-0.89616 2.777604,-2.96006 4.257015,-4.125744 3.01031,-2.371932 6.794615,-3.801419 10.583334,-4.293762 3.110045,-0.40415 6.614658,0.10867 9.524998,1.247582 1.35865,0.531686 3.50986,1.144383 2.15178,2.864485 -2.42601,3.072729 -7.11735,0.531899 -10.618445,0.574899 -4.468772,0.0549 -8.517144,2.75457 -11.290929,6.08439 -2.276383,2.73272 -3.496948,6.50723 -3.36854,10.05417 0.148359,4.09803 2.978363,7.76322 -2.009281,10.05417 m 42.068745,-21.69584 c 1.80774,1.07108 3.5358,2.22265 4.76842,3.96875 1.00497,1.42362 1.31219,4.00442 3.43367,3.43959 l -2.64584,-6.87917 c 5.54734,2.01567 12.73716,6.45698 16.40417,11.1125 -5.72346,2.62168 -10.13029,9.15322 -16.66875,10.31875 1.18466,-1.66404 1.95662,-3.60817 2.55376,-5.55625 0.19424,-0.63369 0.61374,-1.86093 -0.25192,-2.20609 -1.17814,-0.46975 -1.72232,1.49769 -2.12667,2.20609 -1.38225,2.42161 -3.62468,4.39521 -6.26059,5.33147 -1.85239,0.65797 -4.66142,0.10992 -6.26405,1.06589 -1.42093,0.84759 -2.57378,2.76143 -3.79011,3.90996 -1.92147,1.81435 -4.39179,3.19027 -6.87917,4.06082 -2.42271,0.84792 -5.364848,1.50134 -7.937498,1.19348 -1.532534,-0.18339 -3.789413,-1.32013 -5.291667,-0.83927 -2.394169,0.76634 -5.721477,4.9544 -7.14375,6.97348 18.816015,7.20242 41.933575,-3.28822 56.885415,-14.45306 3.60231,-2.68992 7.19455,-5.37972 10.58333,-8.34234 1.18668,-1.03745 3.15278,-2.14396 3.14418,-3.92751 -0.0103,-2.14298 -3.27551,-3.97826 -4.73555,-5.25737 -4.49969,-3.94211 -9.28081,-7.44295 -14.28363,-10.70869 -1.28886,-0.84134 -3.94275,-3.316847 -5.55625,-3.084759 -0.95473,0.13733 -1.74353,1.216531 -2.38125,1.852898 -1.86815,1.864191 -4.03466,3.660761 -5.55625,5.820831 m 5.55625,0.26459 -0.26458,0.26458 0.26458,-0.26458 m -7.67291,1.5875 -2.2214,2.64583 0.58898,8.46667 -2.8655,9.26041 c 8.64846,-1.8538 11.88539,-15.1541 4.49792,-20.37291 m -24.606252,25.13541 c 6.337922,1.8734 13.880092,-2.63533 16.701412,-8.20208 1.10164,-2.17364 1.80838,-4.70102 1.81922,-7.14375 0.003,-0.5839 0.24311,-2.26725 -0.61308,-2.40207 -1.07845,-0.16983 -2.43177,1.743 -3.09089,2.40207 l -8.20208,8.20208 c -2.119427,2.11943 -5.34058,4.41182 -6.614582,7.14375 z"
       id="path2509" /></g></svg>
