<?xml version="1.0" encoding="UTF-8" standalone="no"?>
<!-- Created with Inkscape (http://www.inkscape.org/) -->

<svg
   width="83.127258mm"
   height="77.546486mm"
   viewBox="0 0 83.127255 77.546487"
   version="1.1"
   id="svg1"
   xml:space="preserve"
   inkscape:version="1.4 (86a8ad7, 2024-10-11)"
   sodipodi:docname="Break.svg"
   xmlns:inkscape="http://www.inkscape.org/namespaces/inkscape"
   xmlns:sodipodi="http://sodipodi.sourceforge.net/DTD/sodipodi-0.dtd"
   xmlns="http://www.w3.org/2000/svg"
   xmlns:svg="http://www.w3.org/2000/svg"><sodipodi:namedview
     id="namedview1"
     pagecolor="#505050"
     bordercolor="#eeeeee"
     borderopacity="1"
     inkscape:showpageshadow="0"
     inkscape:pageopacity="0"
     inkscape:pagecheckerboard="0"
     inkscape:deskcolor="#505050"
     inkscape:document-units="mm"
     inkscape:zoom="1.4396184"
     inkscape:cx="68.768223"
     inkscape:cy="127.11702"
     inkscape:window-width="1920"
     inkscape:window-height="1010"
     inkscape:window-x="1529"
     inkscape:window-y="-6"
     inkscape:window-maximized="1"
     inkscape:current-layer="layer1" /><defs
     id="defs1" /><g
     inkscape:label="Layer 1"
     inkscape:groupmode="layer"
     id="layer1"
     transform="translate(-61.515379,-101.1372)"><path
       style="fill:#000000"
       d="m 101.13666,178.11859 c -0.7008,-0.31684 -1.596546,-1.04481 -2.177304,-1.7695 -0.825294,-1.02983 -5.975614,-9.86863 -9.205936,-15.79891 -1.783124,-3.27349 -3.25216,-5.86018 -4.020228,-7.07884 -0.997855,-1.58326 -0.896126,-1.99776 0.985474,-4.01542 1.552351,-1.6646 1.598374,-1.66742 2.456719,-0.15053 0.288206,0.50932 1.626383,2.83104 2.973728,5.15937 2.609848,4.51006 3.12432,5.40649 4.167834,7.26214 0.363947,0.6472 1.001957,1.75377 1.4178,2.45904 0.415844,0.70528 0.756079,1.3287 0.756079,1.38538 0,0.0567 0.345334,0.67653 0.767409,1.37742 0.422075,0.7009 1.258025,2.13286 1.857655,3.18214 0.67751,1.18555 1.21963,1.85814 1.43202,1.77664 0.18797,-0.0721 0.80479,-0.93064 1.37071,-1.90779 0.56592,-0.97715 1.38451,-2.22619 1.81908,-2.77563 0.63455,-0.80229 0.81353,-1.32328 0.90895,-2.64584 0.10485,-1.45328 0.23894,-1.78337 1.14087,-2.80856 0.56213,-0.63895 1.02206,-1.27295 1.02206,-1.40888 0,-0.13593 0.55486,-1.10143 1.23302,-2.14556 0.67816,-1.04413 1.62513,-2.56386 2.10437,-3.37717 1.34077,-2.27538 1.37591,-2.28707 3.39122,-1.12797 0.95593,0.5498 1.73805,1.11361 1.73805,1.25291 0,0.1393 -0.80367,1.51235 -1.78593,3.05123 -0.98227,1.53887 -2.0705,3.3343 -2.4183,3.98985 -0.34779,0.65555 -0.97857,1.58949 -1.40173,2.07543 -0.68171,0.78286 -0.74972,1.0146 -0.59686,2.03391 0.16551,1.10368 0.089,1.27724 -1.88522,4.27584 -1.13174,1.71901 -2.24547,3.56543 -2.47494,4.10317 -0.22947,0.53773 -0.59582,1.0253 -0.8141,1.08349 -0.21828,0.0582 -0.55984,0.6634 -0.75902,1.34491 -0.54612,1.86859 -1.73374,2.22389 -4.00348,1.19773 z m -4.361853,-20.60502 c -0.08786,-0.14216 -0.03935,-0.70771 0.107797,-1.25677 0.147149,-0.54906 0.394871,-2.12703 0.550493,-3.5066 0.370142,-3.28128 1.177084,-4.61854 1.799298,-2.98179 0.152131,0.40018 0.583294,1.52181 0.958145,2.49252 0.37484,0.9707 0.68154,2.00851 0.68154,2.30623 0,0.35757 -0.59719,0.99341 -1.759253,1.87311 -1.836129,1.38998 -2.074634,1.49947 -2.33802,1.0733 z m 36.244143,-0.79967 c -1.66265,-0.71821 -7.31986,-2.72019 -10.05416,-3.55798 -4.33909,-1.32949 -4.43743,-1.37456 -4.94869,-2.26866 -0.24792,-0.43357 -0.7837,-0.91927 -1.19062,-1.07935 -1.32673,-0.52191 -2.82269,-1.25555 -4.6909,-2.30047 -1.7293,-0.96723 -1.86758,-1.11499 -2.41405,-2.57947 -0.31882,-0.85441 -0.69644,-1.5924 -0.83916,-1.63997 -0.37684,-0.12562 -0.65554,3.68761 -0.59934,8.2002 0.0267,2.14643 -0.0527,3.9026 -0.1765,3.9026 -0.23597,0 -0.48465,-0.50906 -1.42177,-2.91041 -1.35518,-3.47265 -1.65983,-5.04794 -1.27468,-6.59117 0.13154,-0.52707 -3.18865,-1.45073 -5.19846,-1.44619 -0.873127,0.002 -2.186401,0.18615 -2.918388,0.4093 -1.659552,0.50591 -2.794554,0.22313 -5.205074,-1.29682 -1.959943,-1.23584 -4.912393,-2.35448 -5.270102,-1.99677 -0.231008,0.23101 -0.533049,1.36444 -1.31616,4.93899 -0.405653,1.85162 -1.180777,3.09343 -2.09132,3.35045 -2.455911,0.69324 -3.07132,0.89702 -3.294063,1.09071 -0.138245,0.12022 -0.425428,0.21858 -0.638185,0.21858 -0.212757,0 -1.528398,0.671 -2.923646,1.4911 -3.972244,2.33483 -4.309528,2.51292 -4.464888,2.35756 -0.177172,-0.17717 2.74012,-3.06803 5.63224,-5.58121 2.519552,-2.18942 3.042708,-2.73631 3.042708,-3.18075 0,-0.18393 0.434003,-1.14798 0.96445,-2.14233 1.018805,-1.9098 1.357426,-2.91127 1.640121,-4.85062 l 0.173554,-1.19062 1.058334,0.0328 c 0.582083,0.018 1.534583,0.17905 2.116666,0.35779 2.55656,0.78502 3.185072,0.71314 7.408334,-0.84725 3.585024,-1.32458 3.644759,-1.36699 4.294357,-3.04834 0.323437,-0.83715 0.811891,-2.41506 1.085453,-3.50646 0.273563,-1.09141 0.709009,-2.6506 0.967659,-3.46486 l 0.47028,-1.48048 -0.84607,-2.53959 c -0.590976,-1.77391 -1.120168,-2.83884 -1.755224,-3.53216 -0.758289,-0.82785 -0.908918,-1.19255 -0.907688,-2.19764 8.12e-4,-0.66278 0.105382,-1.62178 0.232378,-2.13111 0.126996,-0.50932 0.374128,-1.64041 0.549182,-2.51354 0.175054,-0.87312 0.419715,-2.06375 0.543691,-2.64583 0.274984,-1.29108 0.650099,-3.4262 1.18138,-6.7243 0.220691,-1.37004 0.458231,-2.54794 0.527851,-2.61756 0.45927,-0.45927 0.42058,1.52178 -0.11504,5.89125 -1.215694,9.91743 -1.227047,9.51658 0.31477,11.11426 0.42621,0.44166 1.42037,1.71163 2.20925,2.82217 0.78887,1.11053 1.86541,2.34796 2.39229,2.74983 0.94881,0.72369 0.95632,0.74479 0.78492,2.20313 -0.0952,0.80984 -0.24188,1.74665 -0.32599,2.0818 -0.26179,1.04305 0.58061,0.43757 1.04852,-0.75363 l 0.41718,-1.06203 1.5738,1.10988 c 0.86559,0.61043 1.70707,1.02751 1.86996,0.92684 0.16288,-0.10067 0.47832,-0.62138 0.70096,-1.15713 0.22265,-0.53575 0.74722,-1.40189 1.16572,-1.92476 1.1166,-1.39507 1.59398,-2.74554 1.61606,-4.57175 0.0269,-2.22714 0.31635,-3.93931 0.68663,-4.06212 0.19598,-0.065 0.47187,0.65436 0.75279,1.96284 0.24389,1.13599 0.6778,2.87764 0.96425,3.87033 0.84414,2.92526 0.76777,3.36009 -1.35569,7.71947 -1.10868,2.27608 -1.85001,4.11641 -1.77451,4.40514 0.0713,0.27274 8.9e-4,0.83711 -0.15653,1.25414 -0.22431,0.59428 -0.19596,0.95129 0.13112,1.65085 0.22953,0.49093 0.60399,1.34578 0.83213,1.89966 0.65929,1.60065 3.53896,5.41867 5.84786,7.75341 2.24676,2.2719 3.4093,3.10683 6.28003,4.5103 1.62086,0.79242 5.80321,3.42752 7.26479,4.5772 0.84767,0.66678 0.49188,1.00151 -0.57477,0.54075 z m -11.45151,-12.23716 c -0.90151,-0.61846 -1.69146,-1.26064 -1.75543,-1.42706 -0.13562,-0.35284 0.85095,-2.27846 2.06433,-4.0292 0.46675,-0.67346 0.97649,-1.52212 1.13275,-1.88593 0.65839,-1.5328 1.41607,-4.15791 1.41358,-4.89761 -0.002,-0.50795 0.4412,-1.46664 1.22236,-2.64584 1.5017,-2.26688 2.32161,-3.17898 3.58379,-3.98672 0.6634,-0.42455 2.07919,-2.22736 4.45578,-5.67382 5.24636,-7.6081 5.53144,-8.23582 3.89841,-8.58372 -0.47294,-0.10076 -8.36083,-0.2326 -17.52864,-0.29298 -9.16781,-0.0604 -16.82488,-0.16912 -17.01571,-0.24164 -0.26578,-0.101 -0.30484,-0.58111 -0.16695,-2.05215 0.099,-1.05617 0.27683,-2.02534 0.39516,-2.15372 0.11834,-0.12838 2.39612,-0.23265 5.06175,-0.23172 7.13709,0.002 12.53234,-0.009 17.14971,-0.0351 2.25557,-0.013 6.96785,0.0418 10.47174,0.1218 6.08232,0.13881 6.40894,0.17262 7.21555,0.74699 1.25414,0.89302 1.7378,2.23789 1.34233,3.73249 -0.17327,0.65485 -0.59675,1.68808 -0.94108,2.29608 -0.34432,0.60799 -0.62604,1.28508 -0.62604,1.50463 0,0.35872 -0.82966,1.65964 -3.28973,5.15835 -1.11154,1.58083 -2.61205,3.75424 -4.61921,6.69067 -2.20475,3.22548 -2.40036,3.43893 -2.98231,3.25423 -0.97972,-0.31095 -3.39625,3.2393 -3.39625,4.98962 0,1.02291 -1.02251,4.16531 -1.75075,5.38043 -0.27402,0.45722 -1.06376,1.74137 -1.75498,2.85366 -0.69123,1.11229 -1.25677,2.13719 -1.25677,2.27755 0,0.50301 -0.71057,0.23715 -2.32339,-0.86928 z m -43.754278,-5.16966 c -0.375474,-0.68557 -1.907519,-3.38961 -3.404543,-6.00898 -1.497025,-2.61938 -3.08237,-5.41735 -3.522989,-6.21771 -0.440619,-0.80037 -1.179358,-2.05052 -1.641643,-2.77813 -1.369563,-2.1556 -3.492231,-6.25229 -3.968612,-7.65932 -0.522008,-1.54179 -1.122197,-2.52642 -1.541542,-2.52894 -0.276712,-0.002 -0.681435,-0.53613 -1.844872,-2.43628 -0.898265,-1.46707 -0.165193,-2.89546 2.075539,-4.04421 1.376277,-0.70557 1.763471,-0.78456 3.485222,-0.71107 1.065315,0.0455 2.710843,0.0713 3.656728,0.0574 0.945886,-0.0139 3.535495,-0.0511 5.754688,-0.0827 2.348404,-0.0334 5.224562,0.10086 6.881146,0.32121 2.629874,0.34981 2.871241,0.34458 3.175,-0.0688 0.422187,-0.57448 5.432415,-1.07334 7.737084,-0.77035 l 1.5875,0.2087 -0.08379,1.58111 c -0.13428,2.53382 -0.335666,2.69435 -3.207776,2.55703 -1.823437,-0.0872 -2.780555,-0.002 -3.891204,0.34769 -1.495023,0.47024 -4.610958,0.46366 -10.412022,-0.022 -1.428524,-0.11959 -2.439753,-0.0472 -3.610066,0.25831 -0.89413,0.23344 -2.630458,0.42443 -3.858507,0.42443 -1.228049,0 -2.307442,0.0746 -2.398652,0.16584 -0.09121,0.0912 0.008,0.50202 0.220486,0.9129 0.212477,0.41089 0.386821,1.02087 0.38743,1.35552 0.0013,0.68843 1.003915,2.77834 1.926646,4.01582 1.026889,1.37716 2.683514,4.16564 4.42041,7.44055 2.010646,3.79106 3.262511,6.09307 3.453221,6.35 0.242154,0.32623 1.265806,2.12418 1.774714,3.11711 0.353298,0.68933 0.313246,0.86175 -0.633239,2.72604 -0.555715,1.0946 -1.19563,2.15782 -1.422034,2.36271 -0.36263,0.32818 -0.492925,0.22412 -1.094322,-0.87396 z m 41.579748,-6.23409 c 0,-0.051 0.13096,-0.49753 0.29103,-0.99218 0.58124,-1.79623 1.30027,-3.13176 1.84228,-3.42183 0.61497,-0.32912 1.30627,-0.17253 1.30627,0.29588 0,0.29488 -1.46041,2.41163 -2.49453,3.61563 -0.44498,0.51808 -0.94505,0.78398 -0.94505,0.5025 z m -32.127977,-1.91046 c -0.228676,-0.22868 -0.415774,-0.8308 -0.415774,-1.33805 0,-0.50725 -0.132644,-1.44904 -0.294764,-2.09288 -0.16212,-0.64384 -0.222143,-1.35986 -0.133384,-1.59117 0.193643,-0.50462 0.647523,-0.21646 3.318858,2.10706 0.935046,0.8133 1.947078,1.48055 2.248958,1.48278 0.301881,0.002 0.699974,0.1 0.884651,0.21717 0.451217,0.2864 -0.390794,0.70049 -2.490635,1.22488 -2.048074,0.51146 -2.598383,0.50974 -3.11791,-0.01 z m 4.082143,-9.83724 c -0.971765,-0.48545 -1.310839,-1.40349 -0.805965,-2.18213 0.211704,-0.3265 0.490629,-0.16664 1.578011,0.90439 0.726469,0.71555 1.259642,1.40003 1.18483,1.52108 -0.21579,0.34916 -0.95478,0.25726 -1.956876,-0.24334 z"
       id="path1" /></g></svg>
