<?xml version="1.0" encoding="UTF-8" standalone="no"?>
<!-- Created with Inkscape (http://www.inkscape.org/) -->

<svg
   width="26.995989mm"
   height="26.464268mm"
   viewBox="0 0 26.99599 26.464268"
   version="1.1"
   id="svg1"
   xml:space="preserve"
   sodipodi:docname="Captives.svg"
   inkscape:version="1.4 (86a8ad7, 2024-10-11)"
   xmlns:inkscape="http://www.inkscape.org/namespaces/inkscape"
   xmlns:sodipodi="http://sodipodi.sourceforge.net/DTD/sodipodi-0.dtd"
   xmlns="http://www.w3.org/2000/svg"
   xmlns:svg="http://www.w3.org/2000/svg"><sodipodi:namedview
     id="namedview1"
     pagecolor="#505050"
     bordercolor="#eeeeee"
     borderopacity="1"
     inkscape:showpageshadow="0"
     inkscape:pageopacity="0"
     inkscape:pagecheckerboard="0"
     inkscape:deskcolor="#505050"
     inkscape:document-units="mm"
     inkscape:zoom="4.0718557"
     inkscape:cx="78.956628"
     inkscape:cy="37.575005"
     inkscape:window-width="1920"
     inkscape:window-height="1010"
     inkscape:window-x="4601"
     inkscape:window-y="-6"
     inkscape:window-maximized="1"
     inkscape:current-layer="layer1"
     showguides="false" /><defs
     id="defs1"><inkscape:path-effect
       effect="spiro"
       id="path-effect2"
       is_visible="true"
       lpeversion="1" /><inkscape:path-effect
       effect="spiro"
       id="path-effect2-1"
       is_visible="true"
       lpeversion="1" /><inkscape:path-effect
       effect="spiro"
       id="path-effect2-1-6"
       is_visible="true"
       lpeversion="1" /><inkscape:path-effect
       effect="spiro"
       id="path-effect2-14"
       is_visible="true"
       lpeversion="1" /></defs><g
     inkscape:label="Layer 1"
     inkscape:groupmode="layer"
     id="layer1"
     transform="translate(-75.695322,-85.220053)"><path
       style="fill:#000000"
       d="m 92.354763,111.17255 c 0.371017,-1.16045 0.273892,-2.42461 0.273892,-3.62992 l 1.5875,0.233 v 2.94098 l 0.875765,0.96771 h -3.011049 z m -16.659441,0.14514 c 0.217796,-0.56085 0.525054,-1.08678 0.808169,-1.61775 L 76.464781,98.058278 C 76.443323,91.606991 76.317995,86.210175 76.183675,85.95359 l -0.242388,-0.463021 2.267577,-1.98e-4 -0.07389,12.028598 -0.07389,12.028601 0.782242,1.87217 c -1.042485,-0.0472 -2.123878,0.1002 -3.147999,-0.10205 z m 6.437787,-2.05343 c 0.09142,-1.18551 0.230114,-2.21937 0.308209,-2.29746 0.321174,-0.32118 0.636509,0.4455 0.805273,1.95786 l 0.17921,1.60597 c -0.406529,0.44419 -0.831823,0.88911 -1.45891,0.88911 z m 1.499713,1.90651 c 0,-0.4219 0.529167,-0.0388 0.529167,-2.01561 v -1.43959 h 1.5875 v 2.0453 c 0.369705,0.48794 0.801413,0.94383 1.058333,1.50216 0,0.19782 -3.175,0.23972 -3.175,-0.0923 z m 2.910417,-0.57479 v -3.5002 l 0.926041,-1.02327 v -3.85763 l -0.926041,-1.02327 v -1.942707 c 0.732522,-0.01742 0.924565,-0.03842 3.836458,-0.462624 l 0.463021,0.240619 c 0.574303,0.298449 0.595235,1.315522 0.04882,2.372172 -0.518876,1.28562 -0.455947,2.70542 -0.485804,4.06754 l 0.900596,1.69465 0.1317,3.38118 -0.726251,0.8773 h -2.992464 z m 8.891849,0.40488 c -0.223184,-0.58161 -0.16682,-3.57152 0.07919,-4.20053 l 0.202592,-0.51801 0.173805,1.84092 c 0.235507,2.49445 0.221228,3.29614 -0.05871,3.29614 -0.129952,0 -0.308546,-0.18834 -0.396875,-0.41852 z m 4.998772,-0.69533 V 98.493543 86.681194 l -0.986897,-1.455208 c 0.809767,-0.02485 1.614997,0.02794 2.413277,0.166213 l 0.83107,0.166214 -0.66995,0.808348 0.0519,12.036009 0.0519,12.03601 0.27881,0.27881 c 0.54904,0.54904 0.25473,0.70215 -1.34969,0.70215 h -1.628512 c 0.335914,-0.37151 0.672012,-0.74285 1.008092,-1.11421 z m -8.459313,-4.24397 -0.419531,-0.59531 1.602806,-0.1658 v -1.06469 l -1.719792,0.1722 v -0.39688 -0.39687 l 0.668095,-0.0138 c 0.851622,-0.0175 1.31628,-0.30581 1.31628,-0.81664 v -0.40228 l -1.586982,0.34856 0.163161,-0.42519 c 0.400777,-1.04441 1.55841,-1.07048 2.680592,-0.0604 1.065516,0.72539 0.68721,3.72298 -0.370222,4.11763 -1.044293,0.38974 -1.874985,0.35134 -2.334407,-0.30058 z m -9.135475,-3.62726 1.047793,-0.53455 c 1.24741,-0.63638 1.944592,-0.67651 2.39179,-0.13767 l 0.329377,0.39688 h -1.38771 v 0.79375 h 1.852083 v 0.76181 l -1.979974,0.1642 -0.16898,0.89218 1.937162,0.1662 -0.57477,0.72761 -0.57477,0.7276 h -1.032335 -1.032336 c -0.799813,-1.54674 -0.80733,-1.61275 -0.80733,-3.95801 z m 1.202762,-3.251903 c -0.08925,-0.909505 -0.128493,-4.170808 -0.0872,-7.24734 l 0.07506,-5.593334 -0.890257,-0.983446 3.132851,0.17898 -0.620001,1.143945 -0.05316,6.879167 c -0.02924,3.783542 -0.0669,6.968461 -0.08369,7.077611 -0.349513,0.27828 -0.874663,0.19843 -1.311335,0.19843 z m 8.586821,1.352263 v -6.604684 -6.60468 l -0.766748,-1.835087 h 3.178004 l -0.823756,1.176076 v 7.084879 c 0,3.896683 -0.0893,7.068666 -0.198437,7.048846 -0.126305,-0.0229 -0.209978,-0.0383 -1.389063,-0.26535 z m -5.750575,-3.270492 -0.337705,-7.026927 0.531463,-1.041753 c 0.292304,-0.572964 0.776182,-1.172722 1.075283,-1.332796 0.830841,-0.444653 2.021128,-0.05162 2.691985,0.888892 l 0.598924,0.839667 0.18244,7.24994 -1.349017,1.349018 h -2.587867 z"
       id="path2867"
       sodipodi:nodetypes="scccccscccccccccccscsccscscccsscccccccsssccccccccssssccccsccccssccccccccccsccscsccccsccccccccccccccccccccsscccccccscccsssscccccs" /></g></svg>
