<?xml version="1.0" encoding="UTF-8" standalone="no"?>
<!-- Created with Inkscape (http://www.inkscape.org/) -->

<svg
   width="84.751762mm"
   height="77.522873mm"
   viewBox="0 0 84.751765 77.522874"
   version="1.1"
   id="svg1"
   xml:space="preserve"
   inkscape:version="1.4 (86a8ad7, 2024-10-11)"
   sodipodi:docname="City.svg"
   xmlns:inkscape="http://www.inkscape.org/namespaces/inkscape"
   xmlns:sodipodi="http://sodipodi.sourceforge.net/DTD/sodipodi-0.dtd"
   xmlns="http://www.w3.org/2000/svg"
   xmlns:svg="http://www.w3.org/2000/svg"><sodipodi:namedview
     id="namedview1"
     pagecolor="#505050"
     bordercolor="#eeeeee"
     borderopacity="1"
     inkscape:showpageshadow="0"
     inkscape:pageopacity="0"
     inkscape:pagecheckerboard="0"
     inkscape:deskcolor="#505050"
     inkscape:document-units="mm"
     inkscape:zoom="1.4396184"
     inkscape:cx="105.58353"
     inkscape:cy="149.34513"
     inkscape:window-width="1920"
     inkscape:window-height="1010"
     inkscape:window-x="1529"
     inkscape:window-y="-6"
     inkscape:window-maximized="1"
     inkscape:current-layer="layer1" /><defs
     id="defs1" /><g
     inkscape:label="Layer 1"
     inkscape:groupmode="layer"
     id="layer1"
     transform="translate(-55.857907,-72.784006)"><path
       style="fill:#000000"
       d="m 56.238531,150.01605 c -0.09887,-0.15998 0.750381,-1.65265 1.887235,-3.31703 1.136854,-1.66438 2.197109,-3.13412 2.356122,-3.26609 0.159012,-0.13197 0.99937,-0.27642 1.867462,-0.321 1.578349,-0.0811 1.578349,-0.0811 1.71064,-1.53625 0.132292,-1.45521 0.132292,-1.45521 1.322917,-1.5875 1.190625,-0.1323 1.190625,-0.1323 1.190625,-16.53646 0,-16.40417 0,-16.40417 -1.256771,-16.48481 -1.219381,-0.0782 -1.256878,-0.1058 -1.260384,-0.92605 -0.002,-0.46496 -0.0754,-1.11329 -0.16315,-1.44071 -0.156385,-0.58355 -0.237349,-0.59531 -4.097429,-0.59531 h -3.937891 v -4.998776 c 0,-4.314154 0.05732,-5.020771 0.418514,-5.159375 0.230183,-0.08833 2.085384,-0.160599 4.122668,-0.160599 3.704153,0 3.704153,0 5.289588,-0.929198 0.87199,-0.511059 2.499368,-1.502059 3.616395,-2.202221 1.117028,-0.700163 3.133754,-1.946586 4.481614,-2.769829 1.34786,-0.823243 3.550516,-2.170937 4.894792,-2.994874 1.344276,-0.823937 3.634763,-2.233388 5.089971,-3.132114 1.455208,-0.898725 3.717396,-2.292885 5.027083,-3.098133 1.309688,-0.805248 3.955153,-2.434204 5.878813,-3.619901 1.923659,-1.185698 3.585177,-2.155814 3.692262,-2.155814 0.107085,0 1.24332,0.652531 2.524963,1.450069 1.28165,0.797537 3.3706,2.090942 4.64212,2.874232 1.27151,0.78329 4.21684,2.594198 6.54518,4.024241 2.32833,1.430042 5.42395,3.328624 6.87916,4.219069 1.45521,0.890446 5.1096,3.129975 8.12086,4.976732 5.47503,3.357741 5.47503,3.357741 8.61454,3.357741 2.09958,0 3.28983,0.109917 3.59332,0.331837 0.40451,0.295787 0.44594,0.849114 0.3813,5.09323 l -0.0725,4.761393 -3.35988,0.0739 c -3.35988,0.0739 -3.35988,0.0739 -3.43958,1.45521 -0.0797,1.38126 -0.0797,1.38126 -1.46877,1.46123 -1.38906,0.08 -1.38906,0.08 -1.38906,16.6026 0,16.52264 0,16.52264 1.29461,16.52264 0.93644,0 1.33904,0.11578 1.45521,0.41851 0.0883,0.23018 0.1606,0.94456 0.1606,1.5875 0,1.16899 0,1.16899 1.57915,1.16899 1.57916,0 1.57916,0 2.59904,1.38906 0.56094,0.76398 1.63043,2.29778 2.37665,3.40844 0.74621,1.11065 1.28321,2.09292 1.19332,2.18281 -0.0899,0.0899 -19.06751,0.16344 -42.172478,0.16344 -30.252255,0 -42.05935,-0.0814 -42.188811,-0.29088 z m 27.797501,-26.56433 v -16.40417 l -3.021478,-0.0752 c -2.239278,-0.0558 -3.077297,0.0127 -3.237094,0.26458 -0.118589,0.1869 -0.21744,7.44406 -0.219668,16.12703 -0.0022,8.68297 0.06962,15.9792 0.159665,16.21386 0.139977,0.36477 0.60997,0.41587 3.241146,0.35236 l 3.077429,-0.0743 z m 17.535588,0.52916 c 0.0402,-8.73125 0.008,-16.14289 -0.0712,-16.47031 -0.13911,-0.57401 -0.25195,-0.59531 -3.153631,-0.59531 -2.500067,0 -3.036539,0.0708 -3.169959,0.41851 -0.08833,0.23018 -0.160599,7.59222 -0.160599,16.36007 0,8.76786 0.08295,16.02451 0.184335,16.12589 0.101385,0.10139 1.5599,0.151 3.241146,0.11025 l 3.056808,-0.0741 z m 17.38941,-0.52916 v -16.40417 h -3.175 -3.175 l -0.0686,16.13958 c -0.0377,8.87677 -0.0103,16.29221 0.0611,16.47876 0.0976,0.2553 0.89964,0.32072 3.24361,0.26458 l 3.11392,-0.0746 z"
       id="path2509" /></g></svg>
