<?xml version="1.0" encoding="UTF-8" standalone="no"?>
<!-- Created with Inkscape (http://www.inkscape.org/) -->

<svg
   width="82.740883mm"
   height="82.759827mm"
   viewBox="0 0 82.740879 82.759829"
   version="1.1"
   id="svg1"
   xml:space="preserve"
   inkscape:version="1.4 (86a8ad7, 2024-10-11)"
   sodipodi:docname="CombatAction.svg"
   xmlns:inkscape="http://www.inkscape.org/namespaces/inkscape"
   xmlns:sodipodi="http://sodipodi.sourceforge.net/DTD/sodipodi-0.dtd"
   xmlns="http://www.w3.org/2000/svg"
   xmlns:svg="http://www.w3.org/2000/svg"><sodipodi:namedview
     id="namedview1"
     pagecolor="#505050"
     bordercolor="#eeeeee"
     borderopacity="1"
     inkscape:showpageshadow="0"
     inkscape:pageopacity="0"
     inkscape:pagecheckerboard="0"
     inkscape:deskcolor="#505050"
     inkscape:document-units="mm"
     inkscape:zoom="1.4396184"
     inkscape:cx="86.828565"
     inkscape:cy="111.83519"
     inkscape:window-width="1920"
     inkscape:window-height="1010"
     inkscape:window-x="1529"
     inkscape:window-y="-6"
     inkscape:window-maximized="1"
     inkscape:current-layer="layer1" /><defs
     id="defs1" /><g
     inkscape:label="Layer 1"
     inkscape:groupmode="layer"
     id="layer1"
     transform="translate(-60.563563,-88.878993)"><path
       style="fill:#000000"
       d="m 95.73443,171.3851 c -7.149797,-1.24691 -12.123144,-3.29013 -18.29283,-7.51531 -0.849969,-0.58208 -2.866599,-2.36802 -4.481399,-3.96875 -4.070686,-4.03521 -5.489876,-5.91435 -7.693777,-10.18727 -2.351004,-4.55813 -3.282741,-7.2667 -4.368472,-12.69919 -0.439767,-2.20038 -0.447927,-11.52558 -0.01169,-13.36146 0.172891,-0.7276 0.495469,-2.10939 0.71684,-3.07065 1.919858,-8.33655 7.213681,-16.82602 13.759035,-22.064763 0.727263,-0.582084 1.381827,-1.132414 1.454588,-1.222957 0.07276,-0.09054 1.144323,-0.81998 2.38125,-1.620973 8.019504,-5.193164 18.012576,-7.616501 26.994435,-6.546197 2.31463,0.275817 5.7117,0.920759 6.87223,1.30471 0.3638,0.120361 1.19724,0.373155 1.85208,0.561765 0.65485,0.18861 1.30969,0.418419 1.45521,0.510688 0.14552,0.09227 1.09802,0.511063 2.11667,0.930655 1.01864,0.419591 2.42287,1.096558 3.12049,1.504372 0.69763,0.407813 1.32653,0.741478 1.39756,0.741478 0.071,0 1.04806,0.644385 2.17117,1.431966 4.75505,3.334466 8.2116,6.841996 11.23465,11.400326 1.53636,2.31662 3.79134,6.72856 4.39499,8.59896 0.16438,0.50932 0.49121,1.52135 0.7263,2.24896 0.75454,2.33531 1.19079,4.677 1.55121,8.3265 0.2951,2.98814 0.29348,4.16379 -0.0101,7.27604 -0.76355,7.82907 -2.72765,13.35125 -7.05054,19.82299 -1.95721,2.93011 -7.64421,8.68094 -10.54935,10.66776 -5.04974,3.45352 -11.13863,5.83064 -17.8168,6.95575 -1.88163,0.31701 -10.060329,0.29959 -11.923797,-0.0254 z m 24.47396,-8.69032 c 0,-0.13693 -0.11906,-0.32255 -0.26458,-0.41249 -0.14553,-0.0899 -0.26459,-0.33156 -0.26459,-0.53694 0,-0.40374 -0.54132,-1.63789 -2.94434,-6.71278 -0.85446,-1.80454 -1.55357,-3.5524 -1.55357,-3.88414 0,-0.54419 0.0775,-0.58093 0.79268,-0.37582 0.43598,0.12504 1.15035,0.48202 1.5875,0.7933 1.02476,0.72969 1.00576,0.37424 -0.0651,-1.21809 -0.61039,-0.90764 -1.09021,-1.32571 -1.65365,-1.44084 -1.19526,-0.24425 -2.37235,-0.93137 -3.60618,-2.10508 -0.61058,-0.58084 -1.15031,-1.05607 -1.19938,-1.05607 -0.20454,0 -0.0697,2.29612 0.14843,2.52677 0.51154,0.54103 1.64305,3.84539 1.48611,4.33988 -0.18148,0.57177 0.31012,1.47763 1.59995,2.94821 0.45891,0.52322 1.35096,1.71385 1.98232,2.64583 0.63136,0.93199 1.48737,2.05171 1.90225,2.48827 0.41487,0.43656 0.95292,1.12117 1.19568,1.52136 0.43818,0.72233 0.85645,0.95609 0.85645,0.47863 z m -6.33495,-5.34619 c -0.36479,-0.77456 -0.93835,-1.40157 -1.75148,-1.91471 -1.93792,-1.22295 -1.83532,-0.48032 0.23643,1.71116 1.97847,2.09281 2.43364,2.15396 1.51505,0.20355 z M 80.256305,153.9052 c 2.110052,-1.04288 5.32474,-2.87037 7.14375,-4.06109 4.563766,-2.98743 4.21224,-2.85348 7.670075,-2.92273 2.792729,-0.0559 4.750664,-0.39063 6.67852,-1.1417 1.01445,-0.39521 0.70896,-0.9301 -1.03524,-1.81262 -0.798709,-0.40412 -1.799748,-1.03242 -2.224531,-1.39623 l -0.772334,-0.66146 -0.02393,-3.26899 c -0.01498,-2.04664 0.08437,-3.37731 0.265713,-3.55865 0.209807,-0.20981 0.289647,0.008 0.289647,0.78921 0,0.59337 0.151699,1.20475 0.337109,1.35862 0.18541,0.15388 1.882046,0.7026 3.770306,1.21939 1.88827,0.51678 3.76998,1.05349 4.18159,1.19269 1.0053,0.33996 1.80736,-0.0563 2.42129,-1.19632 0.63217,-1.17387 0.65739,-3.23561 0.0451,-3.68336 -0.84605,-0.61865 -9.976396,-1.0103 -10.167778,-0.43615 -0.148287,0.44486 -0.587577,0.37806 -0.587577,-0.0893 0,-0.21828 -0.119063,-0.39688 -0.264584,-0.39688 -0.14552,0 -0.264583,0.094 -0.264583,0.20886 0,0.46376 -3.509865,4.01441 -4.763531,4.81889 -1.641327,1.05323 -1.97722,0.89128 -0.636759,-0.30702 3.036821,-2.71477 4.51401,-4.55891 5.15895,-6.44052 0.199516,-0.58208 0.573562,-1.44891 0.831214,-1.92628 0.257653,-0.47736 0.468459,-1.09542 0.468459,-1.37344 0,-0.79351 0.178757,-0.82645 0.846692,-0.11547 0.493467,0.52527 0.789367,0.68302 0.445257,0.68302 -0.613616,0 -1.291949,0.98802 -1.291949,1.98229 0,1.29062 0.752944,1.67456 3.300019,1.68275 1.16816,0.004 3.31426,0.12254 4.76909,0.26397 2.57747,0.25056 2.65688,0.24192 3.10298,-0.33756 0.59055,-0.76713 0.61783,-3.1124 0.049,-4.21242 -0.39998,-0.77347 -0.47958,-0.80524 -1.62443,-0.64832 -0.66211,0.0908 -1.60948,0.165 -2.10526,0.165 -0.72345,0 -0.9904,0.15589 -1.35213,0.78961 -0.56197,0.9845 -0.67788,1.0244 -2.3028,0.79267 -1.00452,-0.0274 -1.94924,-0.29005 -2.913011,-0.54175 l 0.300541,-0.20897 c 0.16394,0.23454 1.63101,0.5255 2.42233,0.52676 0.69822,-0.0218 1.18711,-0.17692 1.27439,-0.40437 0.0779,-0.20296 0.01,-1.24476 -0.15131,-2.3151 -0.1611,-1.07035 -0.395,-2.68532 -0.51978,-3.58882 -0.31773,-2.30071 -0.98827,-3.54052 -2.13295,-3.94385 -2.662145,-0.93799 -8.19574,0.0812 -9.675807,1.78217 -1.388404,1.5956 -3.597019,5.7208 -3.949238,7.37629 -0.32531,1.52901 -1.168997,2.78935 -2.146597,3.20669 -0.129608,0.0553 -1.247683,0.65906 -2.48461,1.34162 -1.236927,0.68256 -3.26099,1.75412 -4.497917,2.38125 l -2.248958,1.14023 -0.06945,9.59114 c -0.05491,7.58347 4.75e-4,9.59129 0.264583,9.59182 0.183716,3.7e-4 2.060436,-0.85259 4.170488,-1.89547 z m 18.162271,-26.62165 c -0.06692,-0.30113 -0.0128,-1.05836 0.07166,-0.84729 0.07643,0.191 0.643715,1.97056 0.555795,2.05848 -0.08792,0.0879 -0.522504,-0.73894 -0.583075,-1.0115 z m -0.76598,-2.12029 c -0.113258,-0.26094 0.01822,-0.61963 0.108951,-0.71037 0.268682,-0.26868 0.980729,2.07433 0.857065,2.59571 -0.10963,0.46221 -0.694595,-1.27694 -0.89136,-1.73057 z m 27.926054,23.9371 c -0.279,-0.31702 -1.3265,-1.5289 -2.32778,-2.69307 -1.00128,-1.16417 -2.86663,-3.18823 -4.14524,-4.49792 -2.62909,-2.693 -3.09935,-3.72226 -2.03975,-4.46443 0.53167,-0.3724 1.60634,-0.43036 7.9795,-0.43036 4.11396,0 7.30222,-0.1017 7.22268,-0.23039 -0.0783,-0.12671 -0.71042,-0.29152 -1.40467,-0.36625 -3.00402,-0.32331 -9.28095,-1.28643 -10.1828,-1.56242 -1.21563,-0.37201 -1.99927,-1.17682 -2.21988,-2.27983 -0.14811,-0.74055 -0.083,-0.87401 0.54233,-1.11176 0.91543,-0.34805 5.35657,-0.35251 5.57097,-0.006 0.1888,0.30549 1.45624,0.36318 1.45315,0.0662 -10e-4,-0.10914 -0.26903,-0.33213 -0.59531,-0.49553 -0.32629,-0.1634 -1.47061,-0.7343 -2.54293,-1.26867 -2.02381,-1.00853 -4.87954,-3.24633 -4.63914,-3.63531 0.21311,-0.34481 0.94576,-0.26374 1.40954,0.15598 0.32693,0.29586 1.72264,0.40851 6.37083,0.51418 3.27371,0.0744 5.65454,0.0776 5.29074,0.007 -0.3638,-0.0706 -0.89958,-0.23542 -1.19063,-0.36634 -1.60381,-0.72141 -4.43271,-1.88999 -5.82083,-2.4045 -1.59882,-0.59261 -3.83646,-1.94957 -3.83646,-2.32653 0,-0.40812 2.04837,-1.29635 4.63021,-2.00778 1.45521,-0.40099 2.91933,-0.83576 3.2536,-0.96615 0.33426,-0.1304 0.92958,-0.24043 1.32291,-0.24453 0.65243,-0.007 3.80151,-0.95829 3.49328,-1.0555 -0.0728,-0.0229 -2.92582,-0.10019 -6.34014,-0.17166 -3.41431,-0.0715 -6.41281,-0.23963 -6.66333,-0.3737 -0.25052,-0.13408 -0.75395,-0.24377 -1.11873,-0.24377 -0.87713,0 -0.97924,-0.22794 -0.662,-1.47776 0.18485,-0.72827 0.54276,-1.23841 1.17074,-1.66871 0.85923,-0.58875 2.50096,-3.45494 2.50096,-4.36625 0,-0.20215 0.53578,-0.96347 1.19063,-1.69182 1.04657,-1.16404 1.46131,-1.90796 1.06368,-1.90796 -0.74248,0 -2.28792,1.03973 -3.04806,2.05067 -0.50932,0.67737 -1.34276,1.63574 -1.85208,2.12971 -1.21572,1.1791 -4.67335,4.0217 -4.89182,4.0217 -0.22111,0 0.0527,-0.85987 0.80032,-2.51354 1.47702,-3.26698 1.77425,-4.36563 1.18108,-4.36563 -0.14552,0 -0.26458,0.12433 -0.26458,0.27629 0,0.15196 -0.90191,1.58071 -2.00425,3.175 -2.23544,3.2331 -2.79162,3.54439 -3.8007,2.12727 -0.78099,-1.09679 -0.51272,-2.19422 2.12366,-8.68741 0.59801,-1.47287 0.77681,-1.92562 1.65089,-4.180391 0.51052,-1.316949 1.01629,-2.864761 1.12394,-3.439584 0.1769,-0.944688 0.15444,-1.010949 -0.23369,-0.689452 -0.35476,0.293846 -2.8286,5.110597 -2.8286,5.507477 0,0.36651 -5.03349,8.76722 -5.77531,9.63878 -1.48828,1.7486 -2.42527,1.22015 -3.22281,-1.81763 -0.68642,-2.61452 -1.51412,-5.40524 -2.37147,-7.99576 -0.40937,-1.236932 -0.81892,-2.576385 -0.91011,-2.976568 -0.200124,-0.878235 -0.82619,-0.957318 -1.047288,-0.132291 -0.08775,0.327422 -0.16346,1.666875 -0.168254,2.976559 -0.01036,2.82908 -0.35695,4.23036 -1.559243,6.30399 l -0.893753,1.54149 -1.229241,-1.21076 c -0.676082,-0.66592 -1.309534,-1.21076 -1.407671,-1.21076 -0.09814,0 0.114312,0.58284 0.472109,1.2952 0.745039,1.48334 0.81503,2.09787 0.263056,2.30968 -0.481502,0.18477 -1.80129,-0.74839 -8.686616,-6.14195 -2.055023,-1.60978 -2.705943,-1.48307 -1.336148,0.26009 0.559646,0.71219 1.612852,1.96706 2.340456,2.78859 0.727604,0.82154 2.076165,2.42097 2.996802,3.5543 1.147553,1.41266 1.800016,2.01219 2.075013,1.90666 0.409925,-0.1573 3.128934,1.34043 4.320893,2.38012 0.363802,0.31732 0.98888,0.63486 1.389063,0.70565 0.645316,0.11414 0.727604,0.0482 0.727604,-0.583 0,-0.39143 0.344462,-1.23813 0.765472,-1.88154 0.42101,-0.64341 0.983179,-1.91398 1.249266,-2.82349 0.26609,-0.9095 0.55396,-1.65364 0.63972,-1.65364 0.0858,0 0.30788,0.62508 0.4936,1.38906 0.18573,0.76399 0.51331,1.87216 0.72797,2.46261 0.36894,1.01482 0.4827,1.09816 2.07986,1.52375 0.92927,0.24761 2.29882,0.82893 3.04346,1.29182 1.32372,0.82287 1.38149,0.83367 2.59341,0.48451 1.49878,-0.4318 1.82023,-0.43188 4.01746,-9.2e-4 1.9349,0.37951 3.54964,1.31672 4.04111,2.34552 0.18132,0.37956 0.59645,0.72815 0.9225,0.77466 0.65727,0.0937 0.65903,0.0965 0.43224,0.68756 -0.11419,0.29756 -0.51562,0.41968 -1.38906,0.42256 -1.64454,0.005 -2.00433,0.24913 -1.61838,1.0962 0.2268,0.49776 0.21414,1.00111 -0.0526,2.09268 -0.30983,1.26788 -0.43698,1.44715 -1.07883,1.521 -0.85283,0.0981 -0.83557,0.0457 -0.33236,1.01052 0.51544,0.98831 0.50373,2.08556 -0.0319,2.99237 -0.4183,0.70813 -0.40326,0.77116 0.53352,2.23558 l 0.96396,1.50691 -0.64482,0.84795 c -0.52567,0.69126 -0.66598,1.23909 -0.75932,2.96462 -0.063,1.16416 -0.24446,2.58964 -0.40329,3.16772 l -0.28877,1.05105 1.57291,1.63803 c 1.57069,1.63571 2.01332,2.46071 1.10989,2.06869 -0.60676,-0.26329 -2.18281,-0.48214 -2.18281,-0.3031 0,0.0768 0.41809,0.39805 0.9291,0.71387 0.511,0.31582 1.42091,0.98512 2.02202,1.48733 0.6011,0.50221 1.64152,1.16237 2.31204,1.46703 2.47832,1.12606 3.8917,1.82401 4.9233,2.43123 1.16156,0.68371 1.53564,0.45854 0.74005,-0.44545 z m -18.74079,-5.05348 c 0.85547,-0.35744 1.72886,-1.54357 1.72886,-2.34794 0,-0.54133 -0.78127,-1.11043 -1.98437,-1.44548 -7.534765,-2.09834 -8.334378,-2.11683 -8.334378,-0.19275 0,1.04355 0.876489,1.86593 3.174998,2.97901 2.8489,1.3796 4.00768,1.59513 5.41489,1.00716 z m 20.17804,-11.95465 c -0.0879,-0.0879 -0.31612,-0.0973 -0.50712,-0.0209 -0.21107,0.0845 -0.14837,0.14716 0.15985,0.15985 0.27892,0.0115 0.43519,-0.051 0.34727,-0.13896 z m -19.21644,-4.68969 c 2.50541,-0.44452 2.61935,-0.58997 2.61935,-3.34393 0,-3.07517 -0.25247,-3.32873 -3.26964,-3.28387 -1.18488,0.0176 -2.49314,0.16783 -2.90726,0.33381 -0.71194,0.28535 -0.74529,0.37002 -0.6127,1.55547 0.24631,2.20205 0.5929,3.88241 0.9271,4.49483 0.36574,0.67023 0.69822,0.69521 3.24315,0.24369 z M 90.410218,114.31307 c 0.268869,-0.43503 -1.640878,-1.64015 -2.599152,-1.64015 -1.242054,0 -1.18686,0.35132 0.184302,1.17312 1.11766,0.66987 2.164381,0.8723 2.41485,0.46703 z"
       id="path1"
       sodipodi:nodetypes="cssssscssssssssssssssscsssccccsssssscsscsssssccsssscscssscssssscscsssssssssssscssscsssccccccccscsscssccsscssccscccssssscsssccsssscsssssscccsssssssscscsscssscsscsssssscsssssscscscssssssssssscccsscccscscscsssssssccsssssssccsssscscssssss" /></g></svg>
