<?xml version="1.0" encoding="UTF-8" standalone="no"?>
<!-- Created with Inkscape (http://www.inkscape.org/) -->

<svg
   width="143.19885mm"
   height="81.058075mm"
   viewBox="0 0 143.19885 81.058077"
   version="1.1"
   id="svg1"
   xml:space="preserve"
   inkscape:version="1.4 (86a8ad7, 2024-10-11)"
   sodipodi:docname="ComplicatedAction.svg"
   xmlns:inkscape="http://www.inkscape.org/namespaces/inkscape"
   xmlns:sodipodi="http://sodipodi.sourceforge.net/DTD/sodipodi-0.dtd"
   xmlns="http://www.w3.org/2000/svg"
   xmlns:svg="http://www.w3.org/2000/svg"><sodipodi:namedview
     id="namedview1"
     pagecolor="#505050"
     bordercolor="#eeeeee"
     borderopacity="1"
     inkscape:showpageshadow="0"
     inkscape:pageopacity="0"
     inkscape:pagecheckerboard="0"
     inkscape:deskcolor="#505050"
     inkscape:document-units="mm"
     inkscape:zoom="2.0359279"
     inkscape:cx="215.6265"
     inkscape:cy="173.38532"
     inkscape:window-width="1920"
     inkscape:window-height="1010"
     inkscape:window-x="1529"
     inkscape:window-y="-6"
     inkscape:window-maximized="1"
     inkscape:current-layer="layer1" /><defs
     id="defs1" /><g
     inkscape:label="Layer 1"
     inkscape:groupmode="layer"
     id="layer1"
     transform="translate(-32.510568,-88.205228)"><path
       id="path1"
       style="fill:#000000"
       d="M 74.053769 87.889485 C 66.157108 87.710544 57.780632 90.090923 50.888258 94.554194 C 49.673311 95.340951 48.620852 96.057455 48.549382 96.146345 C 48.477914 96.235286 47.834868 96.776086 47.120529 97.347822 C 40.691485 102.49347 35.49185 110.83199 33.606108 119.0204 C 33.38867 119.96458 33.072093 121.32157 32.902275 122.03624 C 32.473788 123.83949 32.481692 132.99922 32.913644 135.1605 C 33.980082 140.49645 34.895111 143.15703 37.204338 147.63416 C 39.369076 151.83115 40.76315 153.67676 44.7615 157.64027 C 46.347605 159.21255 48.328433 160.967 49.163298 161.53874 C 55.223201 165.68873 60.108208 167.69544 67.130677 168.9202 L 67.131194 168.9202 C 68.962256 169.23931 76.994554 169.25636 78.842624 168.945 C 85.402124 167.83989 91.38284 165.50501 96.342847 162.11286 C 98.424645 160.68912 101.94968 157.30332 104.45656 154.45545 C 104.34003 154.61479 104.23226 154.78928 104.10775 154.93501 L 106.54636 157.28887 C 111.1215 161.7051 114.73561 164.08039 120.09489 166.19427 C 142.5267 175.0421 168.06785 162.31939 174.14585 139.26981 C 174.29934 138.68773 174.54866 137.73523 174.70034 137.15314 C 174.9516 136.18886 175.36316 132.89482 175.60933 129.8771 C 177.00725 112.74016 163.56578 94.354049 146.15634 89.58964 C 141.44356 88.2999 140.68446 88.205228 135.04384 88.205228 C 129.42242 88.205228 128.85516 88.276376 123.93134 89.595324 C 117.83023 91.229636 111.61333 94.859901 106.73343 99.638122 C 105.94274 100.41978 105.11028 101.56055 104.33409 102.49583 C 102.00771 99.707605 99.351652 97.300507 96.051392 94.986209 C 94.94824 94.212624 93.988446 93.579577 93.918706 93.579577 C 93.848938 93.579577 93.230896 93.251506 92.545663 92.850939 C 91.86044 92.450372 90.481273 91.785645 89.480734 91.37351 C 88.480185 90.961374 87.544725 90.549984 87.401791 90.459354 C 87.258857 90.368724 86.615634 90.142834 85.972421 89.957576 C 85.329217 89.772317 84.510746 89.52441 84.153411 89.406188 C 83.013504 89.02906 79.676417 88.395528 77.402918 88.124613 C 76.300137 87.993202 75.181863 87.915048 74.053769 87.889485 z M 86.438026 94.149051 C 86.522292 94.172576 86.490296 94.415572 86.381698 94.995511 C 86.275961 95.560117 85.778821 97.080568 85.277373 98.374116 C 84.418825 100.58882 84.24315 101.03311 83.655767 102.47981 C 81.066235 108.85762 80.802994 109.93584 81.570106 111.01314 C 82.561255 112.40507 83.107495 112.09899 85.303211 108.92334 C 86.385963 107.35738 87.272083 105.95445 87.272083 105.80519 C 87.272083 105.65593 87.388565 105.53389 87.531499 105.53389 C 88.114129 105.53389 87.822653 106.61255 86.37188 109.82148 C 85.637541 111.44576 85.368185 112.29058 85.585365 112.29058 C 85.799953 112.29058 89.196123 109.49858 90.390239 108.34043 C 90.890509 107.85524 91.709497 106.91391 92.209766 106.24857 C 92.956398 105.2556 94.474096 104.23422 95.203382 104.23422 C 95.593946 104.23422 95.186457 104.96517 94.158485 106.10853 C 93.515271 106.82394 92.989047 107.57137 92.989047 107.76993 C 92.989047 108.66504 91.376828 111.48026 90.532866 112.05855 C 89.916045 112.4812 89.564114 112.9824 89.382549 113.69773 C 89.070946 114.92534 89.171612 115.14932 90.033155 115.14932 C 90.391453 115.14932 90.885727 115.25689 91.131796 115.38858 C 91.377864 115.52027 94.322978 115.6858 97.676616 115.756 C 101.03026 115.82621 103.83264 115.90197 103.90414 115.92447 C 104.20689 116.01996 101.11367 116.9541 100.47283 116.9611 C 100.08649 116.96512 99.502003 117.07331 99.173682 117.20139 C 98.845352 117.32947 97.407363 117.75631 95.978012 118.15017 C 93.442051 118.84896 91.429969 119.72127 91.429969 120.12214 C 91.429969 120.4924 93.627805 121.82571 95.198214 122.40779 C 96.561668 122.91316 99.340384 124.06081 100.91569 124.7694 C 101.20156 124.89799 101.72779 125.05967 102.08513 125.12907 C 102.44246 125.19827 100.10408 125.19545 96.888551 125.12235 C 92.322959 125.01856 90.951656 124.90756 90.630535 124.61696 C 90.174997 124.2047 89.455446 124.12532 89.246123 124.464 C 89.009995 124.84607 91.815104 127.04423 93.802951 128.03484 C 94.856216 128.55971 95.979981 129.12026 96.300473 129.28076 C 96.620955 129.44125 96.884468 129.66035 96.88545 129.76755 C 96.888486 130.05927 95.643592 130.0025 95.458147 129.70244 C 95.247557 129.36219 90.885293 129.36677 89.98613 129.70864 C 89.371908 129.94217 89.307867 130.07317 89.453346 130.80056 C 89.670035 131.88397 90.440063 132.6743 91.634091 133.0397 C 92.519916 133.31079 98.684911 134.25692 101.63555 134.57449 C 102.31746 134.64789 102.93841 134.8097 103.01531 134.93416 C 103.09344 135.06056 99.962025 135.1605 95.921168 135.1605 C 89.661258 135.1605 88.605625 135.21743 88.083403 135.58321 C 87.042632 136.31219 87.504528 137.32333 90.086899 139.96848 C 91.342789 141.25489 93.174998 143.24281 94.158485 144.38629 C 95.141862 145.52965 96.170987 146.72007 96.445167 147.03161 C 97.226122 147.91917 96.858815 148.14025 95.718079 147.46879 C 94.704811 146.87236 93.316479 146.18688 90.882199 145.08083 C 90.223594 144.78158 89.201954 144.13286 88.611536 143.63957 C 88.021107 143.14629 87.127013 142.48889 86.625094 142.17868 C 86.123164 141.86848 85.712489 141.55283 85.712489 141.47743 C 85.712489 141.30157 87.260566 141.51647 87.856544 141.77508 C 88.743921 142.16014 88.309467 141.34982 86.766688 139.74317 L 85.221562 138.13448 L 85.505266 137.10198 C 85.661274 136.53417 85.839228 135.13402 85.901108 133.99055 C 85.992789 132.29568 86.130986 131.75756 86.647315 131.07858 L 87.280352 130.24607 L 86.333639 128.76554 C 85.413505 127.32714 85.398773 127.26536 85.80964 126.56981 C 86.335749 125.67912 86.347444 124.6012 85.841163 123.63046 C 85.346895 122.68279 85.329566 122.73467 86.167241 122.63827 C 86.797686 122.56573 86.9228 122.38965 87.227125 121.1443 C 87.48912 120.07213 87.501571 119.57752 87.278801 119.08861 C 86.899709 118.25659 87.253051 118.01719 88.868368 118.01219 C 89.726287 118.00936 90.120465 117.88899 90.232626 117.59672 C 90.455386 117.01617 90.453953 117.0133 89.808363 116.9213 C 89.488107 116.87562 89.080056 116.53344 88.901958 116.16063 C 88.419221 115.15011 86.833208 114.22965 84.932691 113.85689 C 82.774505 113.43359 82.458826 113.43381 80.986679 113.85793 C 79.796294 114.20089 79.739745 114.19024 78.439547 113.38199 C 77.70814 112.92733 76.362823 112.35602 75.450066 112.11281 C 73.881288 111.69478 73.769681 111.61305 73.407297 110.61626 C 73.196452 110.03631 72.874525 108.94771 72.692095 108.19729 C 72.509675 107.44689 72.29165 106.83303 72.20737 106.83303 C 72.123134 106.83303 71.840346 107.56388 71.578984 108.45722 C 71.317625 109.35057 70.765198 110.59872 70.351669 111.2307 C 69.938141 111.86268 69.599777 112.69417 69.599777 113.07865 C 69.599777 113.69859 69.518941 113.76333 68.885092 113.65122 C 68.492021 113.58168 67.878171 113.26993 67.520834 112.95824 C 66.350056 111.93703 63.679289 110.46589 63.276649 110.6204 C 63.006538 110.72405 62.365692 110.1352 61.23853 108.74764 C 60.334253 107.63445 59.009716 106.06332 58.295041 105.25638 C 57.580367 104.44945 56.545657 103.21707 55.995956 102.51753 C 54.650502 100.80535 55.290032 100.68108 57.308538 102.26225 C 64.071512 107.55997 65.367888 108.47645 65.840833 108.29496 C 66.382999 108.08692 66.314251 107.48334 65.582451 106.02636 C 65.231012 105.32665 65.022514 104.75409 65.118914 104.75409 C 65.215307 104.75409 65.83719 105.28907 66.501258 105.94316 L 67.708936 107.13224 L 68.586402 105.61864 C 69.76733 103.58186 70.107912 102.20505 70.118092 99.426249 C 70.122801 98.139838 70.197266 96.824524 70.283456 96.502913 C 70.500625 95.692553 71.115766 95.769987 71.312334 96.632621 C 71.401904 97.025689 71.803724 98.34152 72.205819 99.556473 C 73.047934 102.10095 73.86117 104.8422 74.535393 107.41026 C 75.31876 110.39406 76.239257 110.91269 77.701091 109.19516 C 78.429729 108.33909 83.373613 100.08803 83.373613 99.728039 C 83.373613 99.33821 85.803282 94.606651 86.151738 94.318033 C 86.294701 94.199613 86.387466 94.134936 86.438026 94.149051 z M 143.53222 98.988549 C 143.73808 99.023493 143.96533 99.185424 144.30426 99.450536 C 144.69465 99.755903 145.39943 99.975024 146.02405 99.985904 C 147.62573 100.01381 151.31922 104.77497 154.21993 110.55063 C 155.86286 113.82191 156.09843 113.27664 151.50589 116.84689 C 150.33597 117.7564 149.269 118.50054 149.13497 118.50054 C 148.86466 118.50054 142.66852 112.31251 142.03928 111.41415 C 141.82062 111.10197 140.84188 110.17102 139.86422 109.34554 C 137.56905 107.40763 137.52977 107.32737 138.22298 105.99742 C 139.02885 104.45133 139.42679 104.2313 141.42743 104.2213 C 142.6768 104.21531 143.2785 104.09555 143.51981 103.80479 C 144.25877 102.9144 143.44427 102.7634 136.94915 102.58885 C 127.39307 102.33204 126.20632 101.83983 133.85322 101.30469 C 135.89051 101.16212 138.41125 101.04365 139.45494 101.04165 C 141.33965 101.03776 141.35866 101.03085 142.25839 99.979703 C 142.90479 99.224535 143.1891 98.930309 143.53222 98.988549 z M 135.69238 108.44637 C 136.23714 108.44637 139.97701 111.57933 142.0553 113.77679 C 145.52265 117.44296 146.59238 118.632 147.03123 119.30669 C 147.46127 119.96785 147.44781 120.00549 146.32429 121.28228 C 145.04593 122.73503 145.60856 123.05373 139.94122 117.66183 C 137.58633 115.4214 136.51172 114.47102 135.12601 113.40214 C 133.65357 112.26638 133.30356 111.61403 133.72713 110.79455 C 134.31427 109.65859 135.32883 108.44637 135.69238 108.44637 z M 59.348206 111.25137 C 60.289451 111.25137 62.16563 112.43534 61.901539 112.86264 C 61.655521 113.26071 60.62739 113.06171 59.529591 112.40375 C 58.182794 111.59655 58.128223 111.25137 59.348206 111.25137 z M 131.96755 112.27611 C 132.45913 112.35317 133.37874 113.23563 135.72236 115.52346 C 137.623 117.37885 140.33137 119.95849 141.74111 121.25592 C 144.68359 123.96398 144.58705 123.66952 143.37719 126.25303 C 142.18782 128.79277 142.06529 129.49077 142.56328 130.88738 C 142.97076 132.03018 142.97064 132.03017 141.31013 133.6655 C 140.39685 134.56493 138.76201 136.34225 137.67728 137.61513 C 135.48018 140.19332 135.53766 140.1665 134.25009 139.23622 C 133.20758 138.483 131.072 137.46201 128.23082 136.35888 C 127.1758 135.94925 126.31259 135.53327 126.31259 135.43387 C 126.31259 135.33452 126.55211 134.10621 126.84486 132.70432 C 127.21249 130.94332 127.32517 129.71192 127.20866 128.72058 C 127.02502 127.15807 127.36658 126.70697 128.74242 126.69797 C 129.07941 126.69574 129.5262 126.58574 129.73512 126.45354 C 130.42123 126.01939 129.5642 125.37919 128.29697 125.37919 C 127.00152 125.37919 126.76105 125.1524 126.37151 123.56224 C 126.0407 122.21183 126.0718 122.10222 127.45723 119.75679 C 128.51216 117.97085 128.51233 117.97085 130.54644 117.97085 C 132.21642 117.97085 132.66283 117.88003 133.04035 117.46287 C 133.85491 116.5628 132.84208 116.34778 127.14562 116.2123 C 122.01791 116.09034 118.37509 115.7297 118.37509 115.34414 C 118.37509 115.03116 123.7668 114.53033 127.13167 114.53075 C 130.44982 114.53116 130.51491 114.50547 131.32934 112.87762 C 131.53145 112.47366 131.6726 112.22988 131.96755 112.27611 z M 69.815268 117.49853 C 70.715251 117.50813 71.544875 117.61857 72.198585 117.8489 C 73.322924 118.24506 73.98198 119.46273 74.294064 121.72256 C 74.416627 122.61 74.645873 124.19608 74.80411 125.24741 C 74.962531 126.29873 75.029459 127.32233 74.952939 127.52169 C 74.86721 127.74509 74.387148 127.89717 73.701335 127.91857 C 72.963249 127.91739 71.659549 127.66019 71.388815 127.43694 C 71.285549 127.33245 71.152105 127.21215 70.951116 126.99821 C 70.663646 126.69222 70.481322 126.55199 70.352703 126.52795 C 70.276001 126.15245 70.103378 125.59446 69.970297 125.18695 C 69.960361 124.46646 69.363415 122.5811 69.122287 122.82224 C 69.033172 122.91136 68.904071 123.26357 69.015317 123.51987 L 69.08818 123.6718 C 69.22281 123.98218 69.537348 124.87499 69.755323 125.2531 C 69.756615 125.37959 69.74822 125.51698 69.767209 125.60243 L 69.811134 125.79828 C 69.849499 125.97092 70.036878 126.35353 70.190955 126.59203 C 70.141915 126.68721 70.119642 126.85506 70.119642 127.1119 C 70.119642 127.38498 69.912797 127.99178 69.659722 128.46065 C 69.406649 128.92954 69.039205 129.7808 68.843234 130.35253 C 68.209754 132.20071 66.7587 134.01223 63.775843 136.67876 C 62.459202 137.85576 62.788967 138.01507 64.401128 136.98055 C 65.632516 136.19037 69.079912 132.7025 69.079912 132.24698 C 69.079912 132.13413 69.196911 132.04183 69.339845 132.04183 C 69.48278 132.04183 69.599777 132.21759 69.599777 132.43199 C 69.599777 132.89104 70.031351 132.95628 70.177003 132.51932 C 70.364984 131.95538 79.332974 132.34007 80.16399 132.94772 C 80.765398 133.38752 80.741001 135.41257 80.120065 136.56558 C 79.517044 137.68534 78.728835 138.07463 77.741399 137.74071 C 77.337103 137.60399 75.488872 137.07679 73.634156 136.5692 C 71.779451 136.06159 70.113139 135.523 69.931023 135.37186 C 69.748908 135.22072 69.599777 134.61988 69.599777 134.03706 C 69.599777 133.26987 69.521636 133.05583 69.315557 133.26191 C 69.137435 133.44003 69.039881 134.74702 69.054591 136.7573 L 69.077845 139.96848 L 69.836455 140.61805 C 70.25369 140.9754 71.236819 141.5926 72.021335 141.98954 C 73.734541 142.85638 74.03475 143.38161 73.038327 143.7698 C 71.144729 144.50752 69.221622 144.83627 66.47852 144.89117 C 63.08213 144.95919 63.427282 144.82797 58.944613 147.76232 C 57.157927 148.93188 54.000544 150.72687 51.927987 151.75122 C 49.855431 152.77557 48.012049 153.61348 47.831597 153.61312 C 47.572182 153.6126 47.517734 151.64018 47.571664 144.19147 L 47.639877 134.77086 L 49.849045 133.65103 C 51.063992 133.03504 53.051917 131.98207 54.266863 131.31164 C 55.48181 130.64121 56.580236 130.04819 56.707541 129.99389 C 57.667769 129.58397 58.49641 128.34605 58.815939 126.84421 C 59.161899 125.21813 61.33104 121.16643 62.694772 119.59918 C 63.785097 118.34615 67.115319 117.46973 69.815268 117.49853 z M 78.342913 119.20902 C 81.306469 119.16495 81.554603 119.41414 81.554603 122.43466 C 81.554603 125.13968 81.442522 125.2826 78.981633 125.71922 C 76.481926 126.16272 76.155539 126.13828 75.796298 125.47996 C 75.468037 124.87842 75.127692 123.22764 74.885759 121.06472 C 74.755525 119.90034 74.787984 119.81745 75.487273 119.53717 C 75.894034 119.37414 77.179089 119.22632 78.342913 119.20902 z M 151.07646 119.57902 C 151.23345 119.59709 151.35067 119.69387 151.41959 119.87771 C 151.60653 120.37636 151.46273 120.69674 150.6155 121.67502 C 148.99823 123.54245 145.36259 128.79775 145.36259 129.26784 C 145.36259 131.22053 153.05224 142.31252 154.40597 142.31252 C 154.5253 142.31252 154.62301 142.55065 154.62301 142.84169 C 154.62301 143.64712 153.42163 143.52924 152.6004 142.64325 C 152.22947 142.24306 150.89547 140.49618 149.63624 138.76132 C 146.52033 134.46849 145.97307 133.86855 145.6339 134.37502 C 145.26139 134.93127 145.31265 135.02727 148.41615 139.56902 C 151.49068 144.06837 151.46009 143.93554 149.85638 145.7521 C 149.5352 146.1159 148.85441 146.91957 148.34381 147.53804 C 147.16363 148.96751 146.87205 148.94278 145.08613 147.26364 C 144.27921 146.50496 142.49327 145.03254 141.11738 143.99149 C 136.86927 140.77721 136.99401 141.00478 138.57024 139.35973 C 139.20022 138.70225 140.39605 137.31149 141.22745 136.26948 C 142.05886 135.22747 143.39363 133.89169 144.19367 133.30067 C 145.64829 132.22608 145.64818 132.22602 144.66135 130.88169 C 143.67453 129.53735 143.67497 129.53717 144.69959 127.52428 C 146.92064 123.16095 149.97752 119.45259 151.07646 119.57902 z M 80.214116 126.35019 C 80.728923 126.32955 80.846537 126.48939 81.141191 127.05919 C 81.699912 128.13966 81.673188 130.44342 81.093132 131.19692 C 80.654959 131.7661 80.576924 131.77427 78.045256 131.52817 C 76.616278 131.38925 74.508706 131.27327 73.361304 131.26927 C 70.85949 131.26122 70.119642 130.88383 70.119642 129.61614 C 70.119642 128.67221 70.74197 127.74258 71.327837 127.68085 C 72.170981 127.90138 73.006202 128.11467 73.887887 128.13871 C 75.483933 128.36632 75.597781 128.32694 76.149765 127.35994 C 76.505067 126.73748 76.767255 126.58428 77.477849 126.58428 C 77.964819 126.58428 78.895596 126.51173 79.54594 126.42253 C 79.827066 126.384 80.042514 126.35707 80.214116 126.35019 z M 121.39507 127.23127 C 124.61743 127.23127 124.61749 127.23101 124.93593 129.088 C 125.31356 131.29023 125.3466 133.65908 125.01603 134.81169 C 124.68906 135.95178 125.98405 137.19851 128.82614 138.47916 C 129.99031 139.00374 131.24046 139.57114 131.60426 139.74058 C 131.96806 139.91002 132.98009 140.54348 133.85322 141.14825 C 134.72634 141.75302 135.9765 142.51616 136.63134 142.84375 C 138.43553 143.7463 141.5938 146.03848 143.6149 147.91218 C 146.84136 150.90333 146.39887 150.77525 153.56468 150.78125 C 160.08808 150.78646 160.97301 150.86966 160.97301 151.47785 C 160.97301 151.68276 160.70512 151.94666 160.3777 152.06386 L 160.3777 152.06335 C 159.77754 152.27817 110.43899 152.38808 109.5777 152.17652 C 108.76421 151.97669 109.07951 151.64608 110.23916 151.48302 C 110.85763 151.39605 111.89941 151.20449 112.55426 151.05721 C 113.27982 150.89404 119.32566 150.79176 128.03239 150.79676 C 135.89052 150.80076 142.54652 150.79911 142.82373 150.79211 C 143.31094 150.77974 143.312 150.76157 142.84905 150.25002 C 142.39147 149.74445 142.03427 149.72085 134.81854 149.72085 C 117.93406 149.72085 115.49212 148.60079 131.60426 148.24652 C 135.7516 148.15533 139.24149 147.98977 139.35986 147.87859 C 139.5895 147.66289 137.25871 145.72733 134.64697 143.96513 C 133.10879 142.92729 130.22186 141.40375 127.50322 140.19482 C 126.77561 139.87126 125.64452 139.35608 124.98968 139.05019 C 124.05335 138.61281 123.20567 138.4819 121.02093 138.4373 C 114.09147 138.2959 112.05585 137.30298 117.84593 136.88856 C 122.82353 136.53229 122.08703 135.85401 116.44085 135.59458 C 115.1216 135.53397 114.09525 135.46582 113.2121 135.39408 C 113.26473 135.06053 113.31413 134.71892 113.36093 134.37709 C 114.66303 134.23097 116.11126 134.11397 116.97053 134.1125 C 118.75376 134.10968 118.84166 133.88424 117.5493 132.63197 C 115.81881 130.95515 115.80672 130.86281 117.06406 128.93297 C 118.17259 127.23152 118.17271 127.23127 121.39507 127.23127 z M 97.64561 130.25486 C 97.735894 130.25858 97.81328 130.2825 97.85645 130.32565 C 97.942807 130.41204 97.789349 130.47338 97.515386 130.46208 C 97.212643 130.44961 97.15097 130.38798 97.358289 130.30498 C 97.452092 130.26743 97.555326 130.25113 97.64561 130.25486 z M 70.917526 136.76557 C 72.038986 136.79151 74.085921 137.31118 77.786357 138.3417 C 78.968078 138.6708 79.735076 139.23006 79.735076 139.76177 C 79.735076 140.55185 78.877257 141.717 78.036988 142.06809 C 76.654784 142.64561 75.516726 142.43357 72.71845 141.07849 C 70.460786 139.98519 69.599777 139.17757 69.599777 138.15257 C 69.599777 137.20762 69.796066 136.73964 70.917526 136.76557 z M 82.161801 143.73672 C 82.209999 143.73672 82.740294 144.20335 83.340024 144.77387 C 84.551929 145.92672 85.707905 146.60153 86.881926 146.84144 C 87.435353 146.95452 87.906574 147.36534 88.506117 148.25686 C 89.557944 149.82089 89.576745 150.16989 88.570195 149.45317 C 88.140813 149.14742 87.43935 148.7967 87.011117 148.67389 C 86.308643 148.47242 86.232353 148.50885 86.232353 149.04337 C 86.232353 149.36921 86.919083 151.08565 87.758359 152.85813 C 90.118678 157.84284 90.650172 159.05548 90.650172 159.45204 C 90.650172 159.65377 90.76716 159.89084 90.910104 159.97914 C 91.053038 160.06748 91.170037 160.24978 91.170037 160.38428 C 91.170037 160.85326 90.759137 160.62352 90.328744 159.91403 C 90.090298 159.52095 89.562154 158.84886 89.154656 158.42006 C 88.747148 157.99126 87.906177 156.8912 87.286036 155.97577 C 86.665895 155.06035 85.789624 153.89089 85.338868 153.37696 C 84.071958 151.93252 83.589133 151.04262 83.767388 150.48101 C 83.921539 149.99531 82.809978 146.74964 82.307528 146.21822 C 82.093276 145.99167 81.960896 143.73672 82.161801 143.73672 z M 157.94891 143.89175 C 159.03589 143.92273 160.11156 144.10306 160.62523 144.41627 C 162.22594 145.39229 162.27876 146.05545 160.91565 148.06721 C 160.15374 149.19168 160.15398 149.19169 155.05141 149.19169 C 149.04846 149.19169 149.24902 149.28733 150.95812 147.24193 C 151.69902 146.35524 152.36211 145.48216 152.43141 145.30148 C 152.50075 145.1208 152.99219 144.89384 153.52385 144.79764 C 154.0555 144.70148 154.81194 144.46058 155.20489 144.26175 C 155.76348 143.97911 156.86192 143.86077 157.94891 143.89175 z M 81.927707 152.68863 C 82.081511 152.62286 82.513563 152.80196 83.227369 153.25242 C 84.02605 153.75644 84.589369 154.37214 84.947677 155.13293 C 85.849944 157.04868 85.402709 156.98907 83.459396 154.93345 C 82.187562 153.58812 81.671365 152.79825 81.927707 152.68863 z " /></g></svg>
