<?xml version="1.0" encoding="UTF-8" standalone="no"?>
<!-- Created with Inkscape (http://www.inkscape.org/) -->

<svg
   width="29.104267mm"
   height="26.284323mm"
   viewBox="0 0 29.104268 26.284323"
   version="1.1"
   id="svg1"
   xml:space="preserve"
   sodipodi:docname="Defector.svg"
   inkscape:version="1.4 (86a8ad7, 2024-10-11)"
   xmlns:inkscape="http://www.inkscape.org/namespaces/inkscape"
   xmlns:sodipodi="http://sodipodi.sourceforge.net/DTD/sodipodi-0.dtd"
   xmlns="http://www.w3.org/2000/svg"
   xmlns:svg="http://www.w3.org/2000/svg"><sodipodi:namedview
     id="namedview1"
     pagecolor="#505050"
     bordercolor="#eeeeee"
     borderopacity="1"
     inkscape:showpageshadow="0"
     inkscape:pageopacity="0"
     inkscape:pagecheckerboard="0"
     inkscape:deskcolor="#505050"
     inkscape:document-units="mm"
     inkscape:zoom="4.0718557"
     inkscape:cx="24.927209"
     inkscape:cy="31.435298"
     inkscape:window-width="1920"
     inkscape:window-height="1010"
     inkscape:window-x="4601"
     inkscape:window-y="-6"
     inkscape:window-maximized="1"
     inkscape:current-layer="layer1"
     showguides="false" /><defs
     id="defs1"><inkscape:path-effect
       effect="spiro"
       id="path-effect2"
       is_visible="true"
       lpeversion="1" /><inkscape:path-effect
       effect="spiro"
       id="path-effect2-1"
       is_visible="true"
       lpeversion="1" /><inkscape:path-effect
       effect="spiro"
       id="path-effect2-1-6"
       is_visible="true"
       lpeversion="1" /><inkscape:path-effect
       effect="spiro"
       id="path-effect2-14"
       is_visible="true"
       lpeversion="1" /></defs><g
     inkscape:label="Layer 1"
     inkscape:groupmode="layer"
     id="layer1"
     transform="translate(-74.901572,-85.622862)"><path
       id="path2866"
       style="display:inline;fill:#000000;fill-opacity:1"
       d="m 85.760956,85.622862 -0.86558,0.246497 -0.86558,0.247013 -0.07906,1.214396 -0.07958,1.214396 -1.044897,0.840259 c -0.574868,0.461976 -1.045414,1.012791 -1.045414,1.224215 0,0.525119 0.697522,0.487163 0.903304,-0.04909 l 0.166398,-0.433048 1.383378,0.159163 c 0.760863,0.08746 1.681034,0.230037 2.044836,0.316777 0.363803,0.08674 0.03638,-0.156439 -0.727604,-0.540019 L 84.162088,89.366303 V 88.87486 c 0,-0.270102 0.238125,-0.566505 0.529166,-0.658875 l 0.529167,-0.167948 v -0.611332 c 0,-0.336177 0.188481,-0.767634 0.418579,-0.958598 l 0.418062,-0.346749 0.50798,0.316777 0.69143,0.535367 -0.05736,-0.450618 c -0.01895,-0.14867 -0.421687,-0.446988 -0.782382,-0.611332 z m -7.212479,0.211873 -0.241038,0.405509 c 0.260946,0.304185 -0.150106,1.182748 -0.540827,1.342188 l -0.332279,0.205156 0.449068,0.942061 c 0.246981,0.517923 0.56225,0.941545 0.700216,0.941545 0.447886,0 1.345137,-1.517081 1.345137,-2.27428 v -0.737423 l -0.30174,0.132322 -0.104078,0.632179 -0.307833,0.211667 -0.333313,-0.900203 z m 21.120674,1.420585 c -0.623395,0.537947 -2.013032,3.41256 -2.013313,4.165121 v 0.558622 c -0.43114,-0.08241 -0.862301,-0.164707 -1.293461,-0.247013 l -1.644345,0.821655 c -1.937464,0.968163 -2.121647,0.987625 -2.750736,0.292489 -0.401007,-0.469748 -0.889562,-0.529167 -1.455208,-0.529167 v 2.394169 c 1.33857,0.509737 1.385827,0.516248 2.965193,0.516248 l 1.323951,-1.190625 c 1.753659,-1.57669 2.909624,-1.648264 2.153873,-0.133326 -0.55602,1.521477 -0.649492,3.169281 -0.82889,4.768185 l -1.075386,1.783872 c -1.369485,2.2717 -1.780507,3.08685 -2.250936,4.69455 -0.171919,0.58754 0.207683,1.7268 -0.195472,2.2348 -1.061045,1.33696 -0.567225,3.87624 -0.867774,3.68549 -0.127086,-0.0807 -0.695393,0.45004 -0.695393,0.58344 0,0.49139 1.267345,0.22226 1.95492,-0.41496 l 0.709,-0.65681 c 0.155986,-1.13598 -0.03371,-2.04151 -0.237847,-2.93741 0.776534,-2.50516 2.135587,-5.41932 3.598892,-7.57978 l 0.174666,-1.690848 c 0.125985,-1.420902 0.423661,-2.813871 0.731738,-4.203361 L 97.695638,93.376394 97.418652,92.58161 h 0.251147 c 0.137951,0 0.250631,0.263786 0.250631,0.586011 v 0.585494 l 0.451135,-0.450618 0.450619,-0.451136 -0.516765,-0.419096 C 98.020981,92.20177 97.917024,92.076223 98.074417,92.153213 l 0.286287,0.140043 0.438216,-1.39113 c 0.241147,-0.765007 0.785875,-1.724051 1.21078,-2.131136 0.5333,-0.537845 1.0666,-0.662273 1.5999,-0.558105 1.1766,0.11711 1.82174,1.374737 1.39848,2.047082 -0.55763,0.885799 -1.36566,1.842462 -0.51016,2.05706 0.45583,0.114343 1.50792,-2.178417 1.50792,-3.066996 0,-1.025687 -0.35358,-1.763219 -1.54235,-2.31748 -1.20899,-0.56369 -1.81421,-0.436445 -2.794339,0.322769 z m -12.487609,0.01757 c -0.20027,0.01831 -0.476085,0.448297 -0.626836,0.529167 l -0.525549,0.281637 h 0.911056 0.692464 l -0.04858,-0.327629 C 87.558985,87.58685 87.462415,87.2472 87.181542,87.27289 Z m 0.315226,1.458309 -0.264067,0.103353 -0.09767,0.310059 -0.36742,0.241329 v 0.453719 l 0.59738,-0.448035 c 0,0 0.143255,-0.52833 0.131775,-0.660425 z m -9.687781,0.677995 c -0.272692,-0.0047 -0.710204,0.306198 -1.103292,0.857312 l -0.613399,0.859896 -0.0016,2.248958 -0.0016,2.248959 -0.593762,1.114144 -0.593762,1.113627 0.02222,1.135331 0.0217,1.134819 0.355017,-1.455213 c 0.195206,-0.800365 0.660713,-2.110052 1.034045,-2.910417 0.373332,-0.800365 0.68218,-1.871927 0.68678,-2.38125 0.0046,-0.509323 0.243905,-1.445104 0.531751,-2.079459 0.287846,-0.634355 0.523482,-1.318965 0.523482,-1.521354 0,-0.246048 -0.104069,-0.362544 -0.267684,-0.365353 z m 1.956987,0.077 c -0.781933,-0.01156 -2.475219,2.760949 -2.480469,4.198193 -0.0014,0.388112 -0.419303,1.950568 -0.928626,3.472657 -0.509322,1.522089 -0.926041,2.997446 -0.926041,3.278346 v 0.51057 l 0.727604,0.28784 c 0.400182,0.15814 0.871735,0.30024 1.047998,0.31574 0.523212,0.046 1.134748,-2.557044 1.138948,-4.848799 0.0046,-2.503051 0.588867,-5.279413 1.323434,-6.287989 l 0.519348,-0.713651 -0.278536,-0.172083 c -0.04326,-0.02673 -0.09153,-0.04005 -0.14366,-0.04082 z m 0.559655,0.648022 -0.579809,1.033529 -0.57981,1.034046 -0.280086,2.233455 c -0.154034,1.228443 -0.280086,2.925075 -0.280086,3.770312 0,0.845236 -0.178594,1.964252 -0.396875,2.486672 -0.218281,0.52242 -0.396875,1.0546 -0.396875,1.18235 0,0.12774 0.173866,0.23203 0.386539,0.23203 h 0.387057 l 0.248563,-0.99219 c 0.136742,-0.5457 0.313942,-2.711647 0.394292,-4.813138 l 0.146244,-3.820955 0.558622,-0.75551 c 0.307206,-0.415518 0.521173,-0.943332 0.475423,-1.173055 z m 7.292578,0.262517 -0.316776,0.162264 0.325045,0.198954 0.312642,-0.182935 z m 0.633037,0.147794 -0.626319,0.52555 -0.446484,-0.391708 -0.389124,0.395842 -1.441772,-0.322978 c -1.42435,-0.318756 -2.13166,-0.218156 -1.835547,0.260966 0.08372,0.135466 -0.271705,0.246497 -0.789616,0.246497 -1.177678,0 -1.245174,0.46655 -0.08372,0.578776 l 0.858346,0.08268 c 0.225112,0.471736 0.449996,0.943579 0.674894,1.415417 0.879207,0.128457 1.635896,0.444152 2.286682,1.061434 0.555467,0.612726 2.776947,3.744322 3.386357,4.773869 l 0.219625,0.371554 -0.305408,-0.188619 c -0.424687,-0.262471 -0.386951,0.02756 0.248047,1.907893 0.304401,0.90138 0.661589,1.63866 0.79375,1.63866 0.340858,0 0.298107,-0.44169 -0.12299,-1.26969 -0.672063,-1.32147 -0.718322,-2.05018 -0.05374,-0.84698 l 0.657841,1.19063 0.01085,-0.79375 c 0.006,-0.43657 -0.233411,-1.194265 -0.531751,-1.683619 -0.298335,-0.489355 -0.476441,-0.955513 -0.395841,-1.036113 0.216821,-0.216821 0.02855,0.470772 0.411344,0.470772 0.407351,0 0.314413,-0.734419 -0.193787,-1.530656 l -0.45837,-0.718302 c 0.305396,0.24225 0.611076,0.484142 0.91674,0.726054 0.02956,-0.811642 -0.513561,-1.535229 -0.917773,-2.202966 l -0.91829,-1.487248 0.311092,-0.822689 c 0.94318,-2.498769 -1.351165,0.479934 -1.607654,0.478007 -0.648938,-0.316113 -1.199531,-0.821726 -1.762166,-1.272274 1.421229,0.270228 1.462795,0.271058 2.729032,-0.04703 l -0.14056,-0.538469 C 88.657462,91.219785 88.533408,90.69553 88.251241,90.54452 Z m -7.487399,0.93431 -0.414445,0.633037 -0.414961,0.632519 -0.06873,2.754871 -0.06925,2.754354 0.427881,0.08682 c 0.235257,0.04784 0.784596,-0.213538 1.221114,-0.580843 l 0.79375,-0.66766 0.432531,0.477491 c 0.237731,0.26269 0.432015,0.736169 0.432015,1.052132 0,0.315964 0.108359,0.574642 0.240813,0.574642 0.462723,0 2.963029,-2.155331 3.262333,-2.812232 L 86.909203,95.72096 C 86.626087,95.248042 86.34366,94.774713 86.061193,94.301408 85.326811,94.059737 84.592255,93.818594 83.857709,93.577421 83.665534,93.15681 83.474063,92.735879 83.282551,92.314966 l -0.735356,0.05633 c -0.404902,0.03085 -0.970784,-0.157426 -1.259354,-0.418579 z m 9.46764,1.235067 -0.278536,0.479041 c -0.15327,0.2635 -0.213179,0.650452 -0.132809,0.859895 0.244562,0.637319 0.427596,0.428035 0.419096,-0.47904 z m -2.934705,3.522266 -0.784965,1.067635 c -0.431718,0.587045 -1.394073,1.44237 -2.138887,1.900659 l -1.35444,0.833026 -0.751375,-0.110073 -0.750859,-0.110587 0.0041,0.68213 c 0.0022,0.37497 0.106208,0.84281 0.230994,1.03973 l 0.22686,0.35811 0.628902,-0.32504 c 0.345929,-0.17881 1.045621,-0.62194 1.554944,-0.98444 l 0.926041,-0.658869 -1.521354,1.514119 -1.521354,1.51412 v 0.65267 0.65267 l 0.365352,-0.0853 c 0.493984,-0.11572 5.981355,-4.928336 6.164999,-5.406905 -0.0636,-0.946046 -0.768597,-1.762739 -1.278958,-2.533655 z m -4.457609,2.147672 -0.564823,0.302307 -0.564824,0.302307 0.366386,0.232028 c 0.570138,0.361075 0.763261,0.285685 0.763261,-0.298173 z m 6.251815,1.26969 c -0.380398,0.476618 -0.760438,0.953518 -1.140499,1.430398 0.285011,0.51683 1.305612,2.38828 1.440259,4.86791 l -0.803089,-2.57037 c -0.323867,-0.97238 -0.674681,-1.85204 -0.77928,-1.9544 -0.560466,-0.0727 -1.074987,0.39376 -1.529623,0.69194 v 8.18968 h 0.272852 c 0.150088,0 0.341537,-0.17859 0.425297,-0.39687 0.08376,-0.21829 0.437249,-0.39688 0.785482,-0.39688 0.659781,0 1.670775,-0.8169 1.719275,-1.38906 0.01542,-0.1819 0.02219,-0.68792 0.01499,-1.12448 l -0.01292,-0.79375 0.276469,1.18081 0.275952,1.1808 -0.94878,0.86972 c -0.52189,0.47827 -1.180174,0.86971 -1.462959,0.86971 -0.602328,0 -1.345655,0.66838 -1.345655,1.20975 v 0.37775 h 3.661792 l 0.194304,-1.78593 c 0.106723,-0.98226 0.197771,-2.79798 0.202571,-4.0349 l 0.0093,-2.24896 z m -3.815788,3.436478 c -0.547248,0.418 -1.171389,0.76153 -1.642277,1.26608 0,0.0286 -0.616492,3.34915 -1.074353,4.83278 1.630378,0.2493 2.538326,1.91357 2.976046,1.91357 0.291771,0 0.267013,-7.18121 -0.02636,-7.64449 z m -2.171444,6.9541 v 1.85208 h 2.320272 c -0.691397,-0.62608 -1.284563,-1.85208 -2.320272,-1.85208 z"
       sodipodi:nodetypes="ccccccscccsccsscsccccccccccccssccccccsccccsccccscsssssccccccccssccccsccccsssssscccccssccccccssccccccccssssssscsccssccssccccsssscccccccccccccccccsscccccccssscccsssscccscssccccccccccccssccccccccccsccccccsccccccccccccsccccscccccccccccsscccccsscccccccccccsccsccscc" /></g></svg>
