<?xml version="1.0" encoding="UTF-8" standalone="no"?>
<!-- Created with Inkscape (http://www.inkscape.org/) -->

<svg
   width="126.37505mm"
   height="128.0827mm"
   viewBox="0 0 126.37504 128.0827"
   version="1.1"
   id="svg1"
   xml:space="preserve"
   inkscape:version="1.4 (86a8ad7, 2024-10-11)"
   sodipodi:docname="Diolkos.svg"
   xmlns:inkscape="http://www.inkscape.org/namespaces/inkscape"
   xmlns:sodipodi="http://sodipodi.sourceforge.net/DTD/sodipodi-0.dtd"
   xmlns="http://www.w3.org/2000/svg"
   xmlns:svg="http://www.w3.org/2000/svg"><sodipodi:namedview
     id="namedview1"
     pagecolor="#505050"
     bordercolor="#eeeeee"
     borderopacity="1"
     inkscape:showpageshadow="0"
     inkscape:pageopacity="0"
     inkscape:pagecheckerboard="0"
     inkscape:deskcolor="#505050"
     inkscape:document-units="mm"
     inkscape:zoom="0.53606888"
     inkscape:cx="25.183331"
     inkscape:cy="222.91911"
     inkscape:window-width="1920"
     inkscape:window-height="1111"
     inkscape:window-x="-9"
     inkscape:window-y="-9"
     inkscape:window-maximized="1"
     inkscape:current-layer="layer1" /><defs
     id="defs1" /><g
     inkscape:label="Layer 1"
     inkscape:groupmode="layer"
     id="layer1"
     transform="translate(-70.858681,-59.946191)"><path
       style="fill:#000000;fill-opacity:1"
       d="m 118.58578,187.90566 -0.49494,-0.10065 0.28459,-11.85515 c -8.0183,-0.16032 -11.91402,0.25825 -31.699367,0.29955 -1.749537,0.004 -2.80635,-0.0993 -2.866319,-0.2792 -0.04549,-0.13646 -7.629219,-4.35176 -7.644086,-4.87624 l -0.02515,-0.88714 3.462354,-0.0381 109.789408,-0.34532 c 0.49193,0.49193 -3.05246,4.2745 -4.00535,4.2745 -0.16096,0 -0.29266,0.10615 -0.29266,0.2359 0,0.12974 -0.30252,0.31183 -0.67228,0.40463 -0.40666,0.10206 -0.59958,0.28635 -0.48828,0.46644 0.11109,0.17974 0.0651,0.22424 -0.11601,0.1123 -0.16499,-0.10198 -0.53417,-0.0601 -0.82039,0.0931 -11.4626,0.47865 -22.9749,0.27937 -34.45361,0.27982 0.35219,4.07256 0.47819,8.16086 0.64897,12.24402 l -0.63837,-0.16022 c -0.35111,-0.0881 -0.7968,-0.0623 -0.99043,0.0574 -0.70577,0.43619 -1.60465,-0.30206 -1.74141,-1.43022 -0.3921,-3.27224 -0.492,-6.56663 -0.63928,-9.85573 l -0.041,-0.85989 h -1.09458 -1.09459 c 0.30739,4.03058 0.48252,8.06919 0.66354,12.10692 -3.70414,-0.0543 -18.24975,0.22041 -18.52168,-0.0515 -0.0795,-0.0796 -0.303,-0.0132 -0.49657,0.14745 -1.12013,0.59858 -0.42973,-10.49641 -0.39294,-11.93834 h -1.00688 -1.00688 l -0.50166,11.40529 c -0.034,0.77333 -1.93078,0.76123 -3.10416,0.55051 z m -45.111274,-20.11274 -1.307913,-1.29422 -1.307912,-1.29422 2.798782,-20.06146 8.001705,-1.0916 0.800632,-0.51036 c 6.272897,-0.90049 14.951909,-0.69047 21.59498,-0.85061 1.88629,0.9142 3.388,1.20646 5.30803,0.42934 2.66802,1.35577 4.22382,0.57263 7.12778,-0.72024 l 3.24605,0.21749 -0.0244,-0.59765 c -0.0134,-0.32871 0.0587,-2.35383 0.16015,-4.50026 0.13046,-2.75907 0.0996,-3.90814 -0.10514,-3.9215 -1.11193,-0.0726 -2.7037,-0.0365 -2.80367,0.0634 -0.0661,0.0661 -0.98597,0.0254 -2.04422,-0.0904 -2.63067,-0.28786 -3.0399,-0.29426 -4.64011,-0.0725 -1.15637,0.16024 -1.48405,0.11076 -1.92815,-0.29115 -0.64104,-0.58014 -3.56193,-0.8829 -4.02738,-0.41745 -0.1638,0.16379 -0.66095,0.29854 -1.10479,0.29944 -0.44384,8.9e-4 -1.15783,0.18458 -1.58664,0.40819 -0.85013,0.44331 -9.322732,0.734 -9.573371,0.32846 -0.260539,-0.42156 -10.152179,0.4785 -10.152179,6e-4 0,-0.33731 -2.419596,-3.64924 -2.666019,-3.64924 -0.315535,0 -0.454737,-1.32155 -0.141562,-1.34395 l 108.908231,-1.15559 c 0.79694,-0.009 -1.8966,3.4103 -2.79073,4.51949 -0.74098,0.91925 -1.22825,1.04554 -2.42186,0.9681 -1.32111,-0.0857 -8.92644,-0.59865 -10.20212,-0.68808 -0.40018,-0.0281 -0.7276,-0.15419 -0.7276,-0.28031 0,-0.12611 -0.26789,-0.15033 -0.59532,-0.0538 -2.20647,0.65037 -9.2016,0.97782 -12.50156,0.58522 -0.7276,-0.0866 -1.62057,-0.0494 -1.98437,0.0825 -1.15239,0.41793 -8.99411,0.73726 -9.5573,0.38919 -0.10765,-0.0665 -0.2636,-0.0111 -0.34656,0.1231 -0.083,0.13423 -0.39726,0.17962 -0.69844,0.10086 -0.49193,-0.12865 -0.53336,-0.0522 -0.40756,0.75244 0.077,0.4926 0.20908,2.08627 0.29348,3.54148 0.18856,3.25125 0.26722,3.94057 0.49096,4.30258 0.12138,0.1964 3.8026,0.25901 12.00376,0.20417 10.03272,-0.0671 11.91842,-0.0203 12.4197,0.30814 0.32506,0.21299 0.74606,0.41918 0.93555,0.4582 0.18949,0.039 0.52313,0.13815 0.74141,0.2203 1.15416,0.43435 2.09688,0.40363 3.03448,-0.0989 0.89119,-0.47765 1.03515,-0.49043 1.43619,-0.12749 1.53389,1.38815 7.13398,0.76247 6.56,-0.73293 -0.0838,-0.21823 1.20022,-0.29535 4.67955,-0.28106 l 4.79498,0.0197 4.0697,20.63775 -4.18899,4.25588 z m 51.701514,-27.29737 c 0.21822,-7.97007 0.2979,-7.16553 -0.70214,-7.08933 -1.0269,0.0782 -0.96893,-0.16257 -1.10158,4.57579 -0.13043,4.65872 -0.12505,4.68496 0.93868,4.57881 l 0.8107,-0.0809 z m 17.99248,-0.0661 c -0.0661,-1.05503 -0.19614,-3.08206 -0.28904,-4.50451 l -0.1689,-2.58628 -0.91602,0.0617 -0.91601,0.0617 0.15222,1.59855 c 0.0837,0.8792 0.20154,2.75773 0.26182,4.17451 0.12677,2.97918 0.17899,3.11257 1.21866,3.11257 h 0.77739 z M 80.267314,126.37659 c -1.82086,-0.0342 -2.718759,-0.74041 -1.505976,-1.18455 1.092861,-0.40023 1.415099,-2.93872 0.601153,-4.7357 -0.296005,-0.6535 -0.325823,-1.09315 -0.12561,-1.85208 0.232669,-0.88196 0.514304,-2.88859 0.678132,-4.83163 0.03067,-0.3638 0.293425,-1.19724 0.583891,-1.85208 0.447073,-1.76991 0.960725,-4.39152 0.321066,-6.36588 -0.124467,-1.17879 39.2096,-0.18331 40.16237,-1.13608 0.0822,-0.0822 0.21109,-2.29746 0.28636,-4.922726 l 0.0714,-4.795034 -25.523131,0.324848 c -0.0026,0.194512 -0.08607,-0.433547 -0.209343,-0.601341 -0.954359,-0.537231 -5.259583,-0.727344 -5.965591,0.190929 -0.275706,0.358599 -0.423945,0.407349 -0.513235,0.168785 -1.975125,-2.207359 -1.082462,-1.431953 -2.196858,-3.368715 -0.741577,-1.123779 -0.773567,-1.106811 1.869739,-0.991757 1.672662,0.07281 89.739719,-1.310256 89.986029,-1.327402 l 1.24106,-0.08639 c 0.14746,-0.01026 -1.02656,1.430419 -1.6814,2.330367 -0.65485,0.899947 -1.19063,1.777789 -1.19063,1.950759 0,0.53983 -1.33707,0.607143 -15.74271,0.792545 -7.7126,0.09926 -14.91588,0.195362 -16.00729,0.213556 l -1.98437,0.03308 0.038,1.320746 c 0.19224,6.68624 0.51768,9.12151 1.16549,8.72114 0.19244,-0.11893 22.25929,-0.45465 32.52605,-0.49484 l 6.74202,-0.0264 c 2.87156,4.62975 3.36222,10.15879 4.77221,21.43125 l -2.77813,0.0295 c -1.52797,0.0162 -104.557882,1.08503 -105.620716,1.0651 z M 126.1176,103.78461 c 0.32046,-9.173354 0.28582,-9.53873 -0.86088,-9.079261 -0.34086,0.136579 -0.45634,0.255873 -0.25662,0.265097 0.25503,0.01178 0.28421,0.115221 0.098,0.3475 -0.1458,0.181901 -0.32148,2.325026 -0.3904,4.762504 l -0.1253,4.43177 h 0.75487 c 0.64095,0 0.75872,-0.10981 0.7803,-0.72761 z m 14.92756,-0.96781 c -0.0767,-0.93248 -0.2008,-3.150513 -0.2757,-4.928959 -0.15468,-3.672433 -0.15291,-3.666275 -1.01013,-3.502407 l -0.63297,0.121001 0.0928,2.026328 c 0.0511,1.114481 0.14399,3.262978 0.20649,4.774437 0.11639,2.8149 0.26846,3.19213 1.29033,3.20097 0.4145,0.004 0.45253,-0.19183 0.32913,-1.69137 z M 86.049371,88.253251 c -0.163491,-0.426048 2.419957,-15.078927 2.147462,-18.184457 -0.06072,-0.628427 0.0036,-0.91249 0.181367,-0.80119 1.292239,0.80902 32.70199,-0.09866 33.84707,0.03822 0.3367,0.04025 0.43551,-5.051111 0.42727,-6.086006 -0.0711,-3.514648 -0.55092,-3.020959 3.3174,-2.920952 0.2836,0.0073 -0.48177,8.932535 0.23553,8.913284 l 0.81272,-0.02181 0.13229,-4.054674 c 0.0728,-2.23007 0.0567,-4.257352 -0.0358,-4.505069 -0.22513,-0.603214 10.38353,-0.89295 10.40859,-0.514544 l 0.39212,5.920348 c 0.12674,1.160262 0.0797,3.019768 0.27185,3.026268 0.24649,0.0083 0.98268,0.144251 0.94485,-0.285295 -0.0238,-0.270143 -0.20606,-2.587066 -0.3032,-4.25535 -0.14414,-2.475534 -0.0961,-3.235479 -0.15657,-4.386524 l 2.65774,0.03379 c 0.0641,8.14e-4 0.16961,5.843454 0.5046,8.756427 l 34.94928,-1.124483 c 0.4757,-0.0153 0.54801,0.874312 0.63261,1.190626 0.28675,1.072132 0.5948,1.747853 0.83415,4.081859 0.0329,0.261995 -0.95141,1.053355 -0.72697,1.943401 0.64467,2.556525 1.73395,2.632878 1.83639,3.726912 0.38444,4.105787 0.77489,8.218292 0.79262,8.301259 0.12521,0.5859 -93.973757,1.546264 -94.10359,1.207919 z"
       id="path1"
       sodipodi:nodetypes="ccccsscccssssscccccsscccccscccsccccccccccccccccscsscsssscssscscccccscsssscssscsccccscsscscscccccsccccsssscsscccscccssssssccssccccccscccsccccsccsccccscsssscccscssscccscssssccs" /></g></svg>
