<?xml version="1.0" encoding="UTF-8" standalone="no"?>
<!-- Created with Inkscape (http://www.inkscape.org/) -->

<svg
   width="25.207706mm"
   height="23.191648mm"
   viewBox="0 0 25.207706 23.191648"
   version="1.1"
   id="svg1"
   xml:space="preserve"
   inkscape:version="1.4 (86a8ad7, 2024-10-11)"
   sodipodi:docname="Diversion.svg"
   xmlns:inkscape="http://www.inkscape.org/namespaces/inkscape"
   xmlns:sodipodi="http://sodipodi.sourceforge.net/DTD/sodipodi-0.dtd"
   xmlns="http://www.w3.org/2000/svg"
   xmlns:svg="http://www.w3.org/2000/svg"><sodipodi:namedview
     id="namedview1"
     pagecolor="#505050"
     bordercolor="#eeeeee"
     borderopacity="1"
     inkscape:showpageshadow="0"
     inkscape:pageopacity="0"
     inkscape:pagecheckerboard="0"
     inkscape:deskcolor="#505050"
     inkscape:document-units="mm"
     inkscape:zoom="2.4516274"
     inkscape:cx="109.72304"
     inkscape:cy="-8.5657389"
     inkscape:window-width="1920"
     inkscape:window-height="1010"
     inkscape:window-x="4601"
     inkscape:window-y="-6"
     inkscape:window-maximized="1"
     inkscape:current-layer="layer1" /><defs
     id="defs1" /><g
     inkscape:label="Layer 1"
     inkscape:groupmode="layer"
     id="layer1"
     transform="translate(-96.992733,-131.64981)"><path
       id="path1"
       style="fill:#000000"
       d="m 114.66432,131.64985 c -0.17643,-0.003 -0.2997,0.18672 -0.43718,0.54777 -0.12467,0.32743 -0.76997,1.72326 -1.43402,3.10162 -0.66405,1.37835 -1.15361,2.55934 -1.08831,2.62464 0.0653,0.0653 0.38577,-0.12177 0.71262,-0.41599 1.07229,-0.96521 1.26475,-0.98287 0.95239,-0.0868 -0.15523,0.4453 -0.95388,1.39362 -1.77508,2.10736 -5.48958,4.77128 -6.40234,5.66021 -7.14944,6.96599 -0.9026,1.57762 -1.23957,3.14825 -0.97668,4.54959 0.11779,0.62786 0.9367,1.81798 1.079,1.71256 0.13939,-0.10327 -0.39622,-1.48836 -0.39222,-2.18592 0.004,-0.60987 0.21218,-1.54519 0.46302,-2.07842 0.47869,-1.01757 2.29682,-3.15459 2.63808,-3.10059 0.61088,0.0967 0.90147,-0.0722 0.75965,-0.44183 -0.0877,-0.22848 -0.045,-0.34093 0.0961,-0.25373 0.3253,0.20105 3.53051,-2.31009 4.26486,-3.3414 0.30771,-0.43213 1.03284,-1.08457 1.61179,-1.45004 0.74549,-0.47061 1.2449,-1.08409 1.711,-2.1022 0.36197,-0.79064 0.72272,-1.43764 0.80202,-1.43764 0.0793,0 0.55917,0.36476 1.0666,0.81029 0.50744,0.44554 0.98362,0.74909 1.05782,0.67489 0.19778,-0.19778 -1.88801,-3.96973 -2.87269,-5.19503 -0.54741,-0.68117 -0.8625,-1.00178 -1.08934,-1.0051 z m 4.94543,0.96273 c -0.94366,0.008 -1.85575,0.0515 -2.08307,0.0594 -0.28012,0.01 -0.34519,1.17562 -0.0114,1.45055 0.30836,0.25395 1.1008,0.12558 1.49086,0.12558 0.86162,0 0.97354,-0.0108 0.35864,0.92759 -0.10713,0.16349 -0.48065,0.71924 -0.52865,0.84646 -0.14177,0.37565 0.71614,1.65157 0.97358,1.62057 0.37806,-0.0455 0.79825,-1.0139 1.4242,-2.00091 0.85334,-1.34559 1.31702,-2.61693 0.64648,-2.87424 -0.35189,-0.13504 -1.32701,-0.16302 -2.27067,-0.15503 z m -9.10745,0.0677 c -1.10789,-0.008 -2.76029,0.0164 -5.23172,0.062 -4.03709,0.0745 -7.521612,0.0434 -7.776273,0.14469 -0.491964,0.19573 -0.637611,1.11754 -0.367419,1.63659 0.107074,0.20569 0.67339,1.2142 1.16582,2.16008 0.492429,0.94589 1.210927,2.32854 1.629358,3.05614 0.418424,0.72761 0.875064,1.5476 1.031464,1.83865 0.1564,0.29104 0.42211,0.76088 0.54053,0.94516 0.20868,0.32469 0.71902,0.31485 1.41749,-0.22583 0.26213,-0.20291 0.052,-0.70082 -0.47904,-1.58388 l -1.15704,-1.92391 -0.94206,-1.74822 c -0.437985,-0.81279 -0.944017,-1.69458 -0.992187,-2.0376 -0.08628,-0.61436 -0.05059,-0.64025 2.425687,-0.67903 l 1.94614,-0.0305 4.83485,-0.0294 c 3.91365,-0.0176 4.61444,-0.22162 4.22713,-1.23093 -0.092,-0.23973 -0.42626,-0.34128 -2.27273,-0.35399 z m -7.08122,2.02365 c -1.10689,0.55856 -2.0348,2.38101 -1.78697,3.50935 0.019,0.0866 0.0257,0.14713 0.0367,0.21704 l 5.1e-4,-5.2e-4 0.46302,0.8537 c 0,0 0.47582,0.54025 0.79944,0.74724 0.65461,0.41872 1.43433,0.56741 1.74976,0.56741 1.50653,0 2.90422,-1.68224 2.90422,-3.49591 0,-0.97112 -0.88954,-2.05251 -2.08153,-2.54093 -0.74229,-0.20129 -1.38168,-0.17961 -2.08515,0.14262 z m 14.6637,3.9331 c -0.18332,-0.002 -0.37541,0.0529 -0.53433,0.18345 -0.3568,0.29318 -0.77726,1.04725 -1.21181,1.88825 -0.95344,1.84523 -1.60714,2.64128 -1.60714,1.95699 0,-0.20829 0.17495,-0.60997 0.3886,-0.89245 0.83653,-1.10601 0.34826,-1.1442 -0.58704,-0.046 -0.5457,0.64076 -1.56913,1.55014 -2.27428,2.02106 -1.63455,1.09161 -1.3995,1.36465 0.40566,0.47129 0.76254,-0.37738 1.42615,-0.64608 1.47485,-0.59738 0.0487,0.0487 -0.75045,1.41708 -1.77612,3.04116 -1.02566,1.62408 -1.75328,3.15967 -1.86501,3.34243 l -1.36374,2.23087 c -0.0953,0.002 -0.47963,-0.7814 -0.93689,-1.59163 -0.51882,-0.9193 -0.82786,-1.34745 -1.13068,-1.33325 -0.18196,0.009 -0.71553,0.44824 -0.84698,0.78083 l -0.15916,0.40256 0.25166,0.62787 1.6335,2.6882 0.90278,0.89297 c 0.093,0.0919 0.72629,0.32998 1.01596,-0.17311 3.32045,-5.76699 5.99699,-10.3905 8.86768,-15.48381 -0.061,-0.24215 -0.34196,-0.40633 -0.64751,-0.41031 z m -10.25932,3.11453 c -0.36566,-0.0771 -3.3123,2.07695 -3.98684,2.68046 -0.39788,0.35599 -1.13853,1.46613 -1.22163,1.53893 -0.16288,0.14254 -0.59096,0.96908 -0.83819,1.76113 -0.28312,0.90701 -0.11979,1.99504 -0.11679,2.16266 0.001,0.0715 0.36421,-1.57953 0.59273,-2.03967 0.36938,-0.74379 0.70631,-1.22614 0.91932,-1.48208 0.41362,-0.49696 0.81486,-1.19135 1.81023,-2.01022 0.99537,-0.81886 2.87838,-2.45554 2.87838,-2.5647 0,-0.0261 -0.0128,-0.0414 -0.0372,-0.0465 z m -2.60294,0.1695 c -0.13693,0 -0.323,0.11908 -0.4129,0.26459 -0.0277,0.0449 -0.37003,0.24956 -0.20929,0.24856 0.0853,-6e-4 0.30144,0.016 0.45837,0.016 0.22687,0 0.41238,-0.11905 0.41238,-0.26458 0,-0.14552 -0.11162,-0.26459 -0.24856,-0.26459 z m 5.32474,2.95848 c -0.80673,0.44649 -1.45424,0.84099 -2.14561,1.42265 -0.46465,0.39092 -0.99776,0.78233 -1.49655,1.27848 -0.61103,0.60781 -1.09553,1.62512 -0.90485,1.56062 0.0879,-0.0297 0.83238,-0.97814 1.54151,-1.55494 0.65171,-0.53014 1.11489,-0.42284 1.29397,-0.49764 0.55251,-0.23085 1.31311,-0.82162 1.55391,-1.30432 0.22455,-0.4498 0.2592,-0.96105 0.15762,-0.90485 z m 0.62993,1.66036 c -0.0314,-0.002 -0.1262,0.0401 -0.28215,0.11989 -0.29104,0.14887 -0.70776,0.39185 -0.92604,0.54002 -0.21832,0.14816 -0.26138,0.27137 -0.0956,0.27337 0.16578,0.002 0.5825,-0.24077 0.92604,-0.54002 0.30682,-0.26726 0.43015,-0.39045 0.37775,-0.39326 z"
       sodipodi:nodetypes="sssssscssscssssssssssscsssssssssscssssssssccsssccccccsccssscccccsssssssccsccccccccccscsssssscsscssccssssccccssssccssssc" /></g></svg>
