<?xml version="1.0" encoding="UTF-8" standalone="no"?>
<!-- Created with Inkscape (http://www.inkscape.org/) -->

<svg
   width="68.40197mm"
   height="75.564774mm"
   viewBox="0 0 68.401972 75.564775"
   version="1.1"
   id="svg1"
   xml:space="preserve"
   inkscape:version="1.4 (86a8ad7, 2024-10-11)"
   sodipodi:docname="Doom.svg"
   xmlns:inkscape="http://www.inkscape.org/namespaces/inkscape"
   xmlns:sodipodi="http://sodipodi.sourceforge.net/DTD/sodipodi-0.dtd"
   xmlns="http://www.w3.org/2000/svg"
   xmlns:svg="http://www.w3.org/2000/svg"><sodipodi:namedview
     id="namedview1"
     pagecolor="#505050"
     bordercolor="#eeeeee"
     borderopacity="1"
     inkscape:showpageshadow="0"
     inkscape:pageopacity="0"
     inkscape:pagecheckerboard="0"
     inkscape:deskcolor="#505050"
     inkscape:document-units="mm"
     inkscape:zoom="2.0359279"
     inkscape:cx="111.25148"
     inkscape:cy="196.47061"
     inkscape:window-width="1920"
     inkscape:window-height="1010"
     inkscape:window-x="4601"
     inkscape:window-y="-6"
     inkscape:window-maximized="1"
     inkscape:current-layer="layer1" /><defs
     id="defs1" /><g
     inkscape:groupmode="layer"
     id="layer6"
     inkscape:label="Layer 2"
     style="fill:#ffffff"><path
       id="path3"
       style="baseline-shift:baseline;display:inline;overflow:visible;vector-effect:none;enable-background:accumulate;stop-color:#000000;stop-opacity:1"
       d="m 38.411609,13.324768 -10.383862,2.480986 -9.924459,12.221993 -10.0164431,20.308321 4.2271321,9.649023 3.424597,-0.02429 c -1.99e-4,-1.55e-4 0.03258,-3.62e-4 0.03256,-5.17e-4 0.267253,0.2158 0.590287,0.487979 0.673861,0.561207 0.125601,0.11006 0.720914,0.903223 1.322917,1.762683 0.602004,0.85946 1.292521,1.685246 1.534273,1.835546 0.333495,0.20733 0.888766,0.06627 2.301668,-0.584977 1.729393,-0.79712 1.938266,-0.835458 2.929537,-0.538468 0.587073,0.1759 1.233039,0.509743 1.435572,0.742073 0.202532,0.23233 0.757778,1.494274 1.233516,2.803964 0.475738,1.30969 1.159015,3.006332 1.51877,3.770312 0.459922,0.97671 0.807427,1.389063 1.169955,1.389063 0.283572,0 0.733855,-0.116736 1.000455,-0.259416 0.382594,-0.20476 0.569817,-0.129309 0.889869,0.359151 0.223018,0.34037 0.533212,1.379847 0.689363,2.309937 0.15615,0.9301 0.419031,2.375983 0.583944,3.212723 0.288704,1.46486 0.330915,1.521355 1.129647,1.521355 0.810788,0 0.836877,-0.03897 1.154451,-1.713074 0.178708,-0.94206 0.324528,-2.132683 0.324528,-2.645833 0,-0.51314 0.119063,-0.93276 0.264584,-0.93276 0.145521,0 0.502709,-0.238117 0.79375,-0.529167 0.337827,-0.33783 0.531367,-0.887924 0.535367,-1.521354 0.0032,-0.5457 0.239343,-1.50727 0.525033,-2.13682 0.36477,-0.80378 0.655151,-1.118483 0.975651,-1.056783 0.274161,0.0528 0.52871,0.440193 0.63717,0.970483 0.0993,0.48555 0.293805,0.996088 0.432015,1.134298 0.15865,0.15865 0.377386,0.09939 0.593246,-0.160714 0.18804,-0.22658 0.403107,-1.268551 0.478007,-2.315621 0.0856,-1.1963 0.343581,-2.301235 0.694531,-2.972945 0.53273,-1.01961 0.631868,-1.077759 2.143538,-1.265039 0.87163,-0.10799 1.969978,-0.25176 2.440678,-0.31936 0.47071,-0.0676 1.087783,-0.247103 1.371493,-0.398943 0.286184,-0.153158 0.672821,-2.715904 0.544153,-3.248897 l 16.416569,-0.115755 z"
       sodipodi:nodetypes="cccccccsssssssssssssssssscscssscssssccc" /></g><g
     inkscape:label="Layer 1"
     inkscape:groupmode="layer"
     id="layer1"
     transform="translate(-62.604784,-74.900675)"><path
       style="display:inline;fill:#000000"
       d="m 96.118763,148.94412 c -0.164913,-0.83674 -0.427601,-2.28234 -0.583751,-3.21244 -0.156151,-0.93009 -0.46638,-1.96957 -0.689398,-2.30994 -0.320052,-0.48846 -0.507622,-0.56419 -0.890216,-0.35943 -0.2666,0.14268 -0.716741,0.25942 -1.000313,0.25942 -0.362528,0 -0.709765,-0.41236 -1.169687,-1.38907 -0.359755,-0.76398 -1.043341,-2.46062 -1.519079,-3.77031 -0.475738,-1.30969 -1.030686,-2.57134 -1.233218,-2.80367 -0.202533,-0.23233 -0.848574,-0.56632 -1.435647,-0.74222 -0.991271,-0.29699 -1.200234,-0.25857 -2.929627,0.53855 -1.412902,0.65125 -1.968275,0.79242 -2.30177,0.58509 -0.241752,-0.1503 -0.932097,-0.97647 -1.534101,-1.83593 -0.602003,-0.85946 -1.197315,-1.65269 -1.322916,-1.76275 -0.125601,-0.11005 -0.526022,-0.42762 -0.889824,-0.7057 -0.661458,-0.50561 -0.661458,-0.50561 -0.07349,-1.25512 0.32338,-0.41222 0.960444,-1.38025 1.415697,-2.15118 0.583848,-0.98868 0.839375,-1.77489 0.867245,-2.66836 0.03236,-1.03733 -0.128165,-1.5261 -0.886531,-2.69937 -0.926042,-1.43267 -0.926042,-1.43267 -1.00913,-5.98719 -0.07104,-3.89418 -0.01606,-4.69976 0.379217,-5.55625 0.254269,-0.55095 0.781845,-1.47798 1.172393,-2.06007 0.390547,-0.58208 1.081972,-1.7727 1.536498,-2.64583 0.454527,-0.87313 1.140045,-2.12328 1.523375,-2.77813 0.38333,-0.65484 1.043927,-1.69504 1.467992,-2.31155 0.424066,-0.61652 1.602902,-1.836906 2.619635,-2.711982 1.016734,-0.875076 1.964612,-1.591047 2.106397,-1.591047 0.141784,0 0.257789,0.07533 0.257789,0.167403 0,0.09207 -0.212455,0.359963 -0.472122,0.595313 -0.259668,0.23535 -0.933257,1.06471 -1.496866,1.843023 -1.024743,1.41511 -1.024743,1.41511 -0.548046,2.24896 0.262183,0.45861 0.718402,1.10173 1.013819,1.42916 0.388178,0.43023 0.836153,0.59643 1.615482,0.59936 0.593097,0.002 1.248714,0.11186 1.456928,0.24362 0.27823,0.17607 0.102912,0.29158 -0.661459,0.43582 -0.572015,0.10794 -1.367419,0.19674 -1.767564,0.19735 -0.515225,7.8e-4 -1.024541,-0.32061 -1.745295,-1.10133 -0.559767,-0.60633 -1.184875,-1.09791 -1.38913,-1.09239 -0.204254,0.006 -0.728559,0.49916 -1.165122,1.09696 -0.436562,0.59781 -1.031875,1.51667 -1.322916,2.04192 -0.291042,0.52524 -0.785948,1.37106 -1.099792,1.8796 -0.313844,0.50853 -0.922434,1.63898 -1.352423,2.51211 -0.493704,1.0025 -0.90843,2.4401 -1.125438,3.9012 -0.278991,1.87843 -0.280447,2.59607 -0.0077,3.81466 0.184745,0.82553 0.608479,1.98702 0.94163,2.58109 0.333152,0.59407 0.780385,1.11554 0.993851,1.15882 0.251586,0.051 0.447176,-0.21658 0.555995,-0.76067 0.09233,-0.46166 0.167874,-1.74127 0.167874,-2.84359 0,-1.47532 0.07794,-1.92628 0.295346,-1.70888 0.16244,0.16244 0.356028,1.58524 0.430195,3.16178 0.101734,2.16247 0.02706,3.28877 -0.304055,4.58621 -0.241398,0.94589 -0.963875,2.74826 -1.605504,4.00528 -0.939249,1.84008 -1.10513,2.36191 -0.851186,2.67768 0.173477,0.21571 0.822685,0.83934 1.442685,1.38585 1.127272,0.99365 1.127272,0.99365 2.206267,0.2796 0.593448,-0.39272 2.110238,-1.05188 3.370645,-1.4648 1.260406,-0.41292 2.589305,-0.7912 2.953107,-0.84062 0.612929,-0.0833 0.655926,-0.0184 0.586049,0.88479 -0.0455,0.58803 0.190644,1.6294 0.595312,2.6253 0.368897,0.90786 0.670722,1.84176 0.670722,2.07533 0,0.23358 0.185345,0.6893 0.411878,1.01272 0.226533,0.32342 0.634747,0.58804 0.907143,0.58804 0.272396,0 0.679394,-0.18413 0.904442,-0.40918 0.225047,-0.22504 0.591243,-1.02226 0.813769,-1.77159 0.270866,-0.9121 0.316772,-1.45023 0.138889,-1.62811 -0.146137,-0.14614 -0.265704,-0.56215 -0.265704,-0.92446 0,-0.36232 0.135947,-1.38031 0.302105,-2.26219 0.166158,-0.88189 0.408872,-2.04991 0.539365,-2.59562 0.130493,-0.5457 0.353659,-0.99218 0.495925,-0.99218 0.142266,0 0.42389,0.38695 0.625831,0.85989 0.201941,0.47294 0.493155,1.33615 0.647141,1.91823 0.153987,0.58208 0.350523,1.89177 0.436747,2.91042 0.08622,1.01864 0.223053,2.23903 0.304065,2.71198 0.08101,0.47294 0.301419,0.85989 0.489791,0.85989 0.188373,0 0.710904,-0.55619 1.161181,-1.23598 0.5386,-0.81316 0.81868,-1.56523 0.81868,-2.19839 0,-0.52932 0.16668,-1.19036 0.3704,-1.46896 0.35217,-0.48162 0.44662,-0.48679 1.91823,-0.10496 1.44912,0.37599 1.55311,0.45568 1.63074,1.24974 0.0746,0.76339 0.16879,0.84814 0.94243,0.84814 0.64731,0 1.00372,-0.19504 1.44359,-0.79001 0.32124,-0.4345 0.86832,-0.86134 1.21574,-0.94854 0.34742,-0.0872 0.88886,-0.0209 1.20322,0.14735 0.45339,0.24265 0.69988,0.2218 1.19227,-0.10083 0.3414,-0.22369 0.69479,-0.73817 0.7853,-1.14328 0.0905,-0.40511 0.56755,-1.20045 1.06008,-1.76742 0.73955,-0.85134 0.85415,-1.13962 0.65803,-1.65544 -0.13061,-0.34353 -0.40854,-0.95121 -0.61763,-1.3504 -0.2091,-0.3992 -0.8149,-1.14253 -1.34624,-1.65185 -0.53134,-0.50932 -1.2099,-1.31923 -1.50792,-1.79979 -0.48204,-0.77729 -0.52118,-1.122 -0.35453,-3.1226 0.12542,-1.50556 0.28758,-2.21544 0.49064,-2.14776 0.16682,0.0556 0.4292,0.50828 0.58309,1.00594 0.15388,0.49766 0.44202,1.23226 0.6403,1.63244 0.19829,0.40018 0.5009,0.7276 0.67247,0.7276 0.17156,0 0.44272,-0.28705 0.60258,-0.63789 0.15985,-0.35084 0.36498,-1.03545 0.45583,-1.52135 0.0909,-0.48591 0.0328,-1.47333 -0.12911,-2.19428 -0.16187,-0.72095 -0.44864,-1.67345 -0.63728,-2.11667 -0.18863,-0.44322 -0.48033,-1.23102 -0.64822,-1.75068 -0.1679,-0.51965 -0.30563,-1.23403 -0.30608,-1.5875 -4.5e-4,-0.35347 -0.39981,-1.41658 -0.88748,-2.36246 -0.48767,-0.94589 -1.55106,-2.96995 -2.36308,-4.49792 -1.47641,-2.77812 -1.47641,-2.77812 -2.55244,-2.77812 -0.8996,0 -1.07605,-0.0868 -1.07616,-0.52917 -9e-5,-0.334635 -0.41334,-0.790159 -1.12414,-1.239119 -0.6182,-0.390474 -2.13604,-1.084803 -3.37296,-1.542955 -2.012091,-0.745267 -2.457962,-0.817737 -4.233335,-0.688065 -1.091406,0.07972 -2.817812,0.220984 -3.836458,0.313931 -1.23756,0.11292 -1.764294,0.08099 -1.5875,-0.09624 0.145521,-0.145877 0.800365,-0.336311 1.455208,-0.423187 0.654844,-0.08688 1.845469,-0.232236 2.645834,-0.323022 0.800364,-0.09079 1.647763,-0.333707 1.883109,-0.539825 0.347137,-0.304027 0.646766,-0.318466 1.5875,-0.0765 0.637779,0.164045 1.576318,0.356072 2.085642,0.426728 0.50932,0.07066 1.34276,0.314679 1.85208,0.542273 0.50932,0.227594 1.51387,0.694561 2.23233,1.037704 0.71846,0.343143 1.397,0.623897 1.50786,0.623897 0.11087,0 -0.1793,-0.412531 -0.64483,-0.916736 -0.53632,-0.580886 -1.47645,-1.149705 -2.56619,-1.552652 -0.94589,-0.349754 -2.492521,-0.720276 -3.436965,-0.823382 -0.944445,-0.103105 -1.870958,-0.315095 -2.058917,-0.471087 -0.243363,-0.201974 -0.624959,-0.199864 -1.325536,0.0073 -0.541085,0.160023 -1.972489,0.413328 -3.180896,0.5629 -1.208407,0.149573 -2.637157,0.476015 -3.175,0.725427 -0.537842,0.249412 -1.729683,1.106638 -2.648535,1.904946 -0.918851,0.798308 -2.177303,2.117688 -2.796558,2.931954 -0.619255,0.81427 -1.564108,2.22814 -2.099673,3.14195 -0.535565,0.9138 -0.973754,1.75335 -0.973754,1.86566 0,0.11232 -0.773869,1.44539 -1.719709,2.96239 -1.719708,2.75818 -1.719708,2.75818 -1.719791,7.42222 -6.3e-5,3.50057 0.0961,4.88661 0.385476,5.55625 0.212058,0.49072 0.627992,1.2494 0.924299,1.68596 0.348789,0.51389 0.536254,1.21354 0.531692,1.98438 -0.0053,0.8912 -0.20164,1.45677 -0.780829,2.24895 -0.42558,0.58209 -1.083816,1.55759 -1.462747,2.16778 -0.633406,1.01997 -0.658633,1.16733 -0.312833,1.82732 0.206873,0.39483 0.839299,1.03242 1.405392,1.41687 0.566092,0.38446 1.029258,0.87185 1.029258,1.0831 0,0.32729 -1.185263,0.3841 -8.013475,0.3841 -6.836161,0 -8.050015,-0.0583 -8.262189,-0.39687 -0.136792,-0.21829 -0.176927,-0.62714 -0.08919,-0.90856 0.08774,-0.28142 0.680334,-1.39259 1.316877,-2.46926 0.636543,-1.07667 1.157351,-1.99206 1.157351,-2.0342 0,-0.0421 0.654843,-1.16803 1.455208,-2.50197 0.800365,-1.33393 1.455208,-2.46503 1.455208,-2.51354 0,-0.0485 0.654844,-1.1796 1.455209,-2.51354 0.800364,-1.33394 1.455208,-2.46808 1.455208,-2.52031 0,-0.0522 0.457601,-0.85127 1.01689,-1.77565 0.55929,-0.92437 1.316363,-2.21646 1.682384,-2.87131 0.366021,-0.65484 0.914057,-1.62934 1.217856,-2.16556 0.3038,-0.53621 0.836394,-1.42918 1.183542,-1.98437 0.347149,-0.55519 0.992993,-1.66429 1.435209,-2.46465 0.442217,-0.80037 1.250707,-2.22912 1.796644,-3.175 0.545937,-0.94589 1.198993,-2.07698 1.451237,-2.51354 0.252243,-0.43657 1.011587,-1.726327 1.687431,-2.866138 0.675843,-1.13981 1.228806,-2.106863 1.228806,-2.149007 0,-0.04214 0.654844,-1.168028 1.455209,-2.501966 0.800364,-1.333939 1.455208,-2.465033 1.455208,-2.513542 0,-0.04851 0.654844,-1.179603 1.455208,-2.513542 0.800365,-1.333938 1.455209,-2.468076 1.455209,-2.520306 0,-0.05223 0.4576,-0.851272 1.01689,-1.77565 0.55929,-0.924378 1.316926,-2.216469 1.683637,-2.871313 0.366711,-0.654844 1.35903,-2.38125 2.205154,-3.836458 0.846124,-1.455209 1.547003,-2.660808 1.557509,-2.679111 0.0105,-0.0183 0.277643,-0.112656 0.593639,-0.209673 0.400889,-0.123083 0.727961,-0.01172 1.08216,0.368472 0.279192,0.299678 0.675494,0.86814 0.88067,1.26325 0.205177,0.39511 1.549397,2.744585 2.987157,5.221055 1.43776,2.476471 2.91493,5.038455 3.28259,5.693299 0.36766,0.654844 1.12608,1.946934 1.68537,2.871312 0.55929,0.924378 1.01689,1.711081 1.01689,1.74823 0,0.03715 1.20459,2.138338 2.67686,4.669312 1.47228,2.530975 3.04171,5.256616 3.48763,6.056976 0.44591,0.80037 1.44398,2.51222 2.21792,3.80412 0.77395,1.2919 1.40717,2.3886 1.40717,2.43711 0,0.0485 0.65485,1.17961 1.45521,2.51354 0.80036,1.33394 1.45521,2.46504 1.45521,2.51355 0,0.0485 0.65484,1.1796 1.45521,2.51354 0.80036,1.33394 1.4552,2.46503 1.4552,2.51354 0,0.0485 0.65485,1.1796 1.45521,2.51354 0.80037,1.33394 1.45521,2.4628 1.45521,2.50857 0,0.0458 0.79084,1.42955 1.75741,3.07505 0.96658,1.6455 2.09767,3.60557 2.51354,4.3557 0.41588,0.75013 0.75613,1.54961 0.75613,1.77663 0,0.22701 -0.23029,0.536 -0.51177,0.68664 -0.32531,0.1741 -3.94663,0.27389 -9.93927,0.27389 -6.04057,0 -9.61282,0.0992 -9.94334,0.27607 -0.28371,0.15184 -0.90096,0.33138 -1.37167,0.39898 -0.4707,0.0676 -1.56898,0.21125 -2.44061,0.31924 -1.51167,0.18728 -1.61056,0.24566 -2.14329,1.26527 -0.35095,0.67171 -0.60911,1.7764 -0.69471,2.9727 -0.0749,1.04707 -0.29006,2.08914 -0.4781,2.31572 -0.21586,0.2601 -0.43452,0.31932 -0.59317,0.16067 -0.13821,-0.13821 -0.33254,-0.64855 -0.43184,-1.1341 -0.10846,-0.53029 -0.36281,-0.91791 -0.63697,-0.97071 -0.3205,-0.0617 -0.61109,0.25296 -0.97586,1.05674 -0.28569,0.62955 -0.52205,1.59112 -0.52525,2.13682 -0.004,0.63343 -0.19715,1.18352 -0.534977,1.52135 -0.291041,0.29105 -0.648229,0.52917 -0.79375,0.52917 -0.145521,0 -0.264583,0.41985 -0.264583,0.93299 0,0.51315 -0.146215,1.70378 -0.324923,2.64584 -0.317574,1.6741 -0.343683,1.71284 -1.154471,1.71284 -0.798732,0 -0.840688,-0.0565 -1.129392,-1.52136 z M 84.490016,125.92444 c -0.33632,-0.0584 -0.677301,-0.27776 -0.757735,-0.48736 -0.08043,-0.20961 -0.0022,-0.72897 0.173957,-1.15414 0.176111,-0.42517 1.030717,-1.45075 1.899127,-2.27907 1.578925,-1.50604 1.578925,-1.50604 3.232534,-1.37331 1.135555,0.0911 1.9811,0.33947 2.698951,0.79263 0.574938,0.36295 1.205718,0.85314 1.401733,1.08932 0.210603,0.25376 0.289415,0.69628 0.192664,1.08176 -0.09005,0.35879 -0.444992,0.97933 -0.788761,1.37899 -0.625036,0.72664 -0.625036,0.72664 -0.817509,0.12021 -0.169468,-0.53394 -0.308003,-0.58558 -1.159014,-0.43203 -0.531596,0.0959 -1.621382,0.39625 -2.421747,0.66738 -0.800365,0.27113 -1.812396,0.53998 -2.248958,0.59742 -0.436563,0.0574 -1.068921,0.0566 -1.405242,-0.002 z m 16.642544,-1.1297 c -0.74067,-0.58547 -1.346678,-1.1715 -1.346678,-1.3023 0,-0.1308 0.506018,-0.67772 1.124478,-1.21539 0.61846,-0.53767 1.53501,-1.15371 2.03676,-1.36898 0.57578,-0.24702 1.28254,-0.33218 1.91609,-0.23087 0.55209,0.0883 1.47399,0.42715 2.04867,0.75304 0.57468,0.32589 1.34955,0.85963 1.72194,1.18609 0.37238,0.32646 0.67706,0.77294 0.67706,0.99219 0,0.21924 -0.23184,0.63047 -0.51521,0.91383 -0.28336,0.28337 -1.02751,0.65523 -1.65364,0.82635 -0.85358,0.23329 -1.42075,0.23678 -2.26672,0.014 -0.62055,-0.16345 -1.24563,-0.29718 -1.38906,-0.29718 -0.14343,0 -0.26078,0.17859 -0.26078,0.39687 0,0.21828 -0.16791,0.39688 -0.37312,0.39688 -0.20521,0 -0.97912,-0.47902 -1.71979,-1.06449 z m -5.580011,-7.37497 c -0.363802,-0.0888 -1.178513,-0.43695 -1.810469,-0.77368 -0.751361,-0.40035 -1.481607,-0.58315 -2.11005,-0.52819 -0.747159,0.0653 -0.981675,-0.0197 -1.053757,-0.38186 -0.05099,-0.25625 0.285481,-0.94341 0.747721,-1.52704 0.462241,-0.58363 1.389155,-1.43867 2.059809,-1.90009 0.938059,-0.6454 1.501573,-0.83895 2.442599,-0.83895 0.937092,0 1.622747,0.23371 2.931163,0.9991 0.939364,0.54951 1.982265,1.39946 2.317555,1.88878 0.33529,0.48932 0.542,0.99908 0.45936,1.13279 -0.0826,0.13371 -0.58626,0.31386 -1.11917,0.40034 -0.532911,0.0865 -1.399005,0.446 -1.924657,0.79894 -0.525651,0.35293 -1.253385,0.69786 -1.617187,0.7665 -0.363802,0.0686 -0.959115,0.0521 -1.322917,-0.0366 z"
       id="path2509"
       sodipodi:nodetypes="cssssssscsssssssssssssssssssssccsssscssssscsssssssssssscssssssssssssssssscssscsssssssssssssssssccscsscssssssssssssssssssscsssssssssscssssssssssssssssssssssssssssssssssssssscssssssssssssscssscssscscssssscccscscssssscsccccssscssscscssscccsccsssssccsccc" /></g></svg>
