<?xml version="1.0" encoding="UTF-8" standalone="no"?>
<!-- Created with Inkscape (http://www.inkscape.org/) -->

<svg
   width="72.718765mm"
   height="44.835533mm"
   viewBox="0 0 72.718764 44.835532"
   version="1.1"
   id="svg1"
   xml:space="preserve"
   inkscape:version="1.4 (86a8ad7, 2024-10-11)"
   sodipodi:docname="Elation.svg"
   xmlns:inkscape="http://www.inkscape.org/namespaces/inkscape"
   xmlns:sodipodi="http://sodipodi.sourceforge.net/DTD/sodipodi-0.dtd"
   xmlns="http://www.w3.org/2000/svg"
   xmlns:svg="http://www.w3.org/2000/svg"><sodipodi:namedview
     id="namedview1"
     pagecolor="#505050"
     bordercolor="#eeeeee"
     borderopacity="1"
     inkscape:showpageshadow="0"
     inkscape:pageopacity="0"
     inkscape:pagecheckerboard="0"
     inkscape:deskcolor="#505050"
     inkscape:document-units="mm"
     inkscape:zoom="2.4516274"
     inkscape:cx="106.86779"
     inkscape:cy="84.841604"
     inkscape:window-width="1920"
     inkscape:window-height="1010"
     inkscape:window-x="4601"
     inkscape:window-y="-6"
     inkscape:window-maximized="1"
     inkscape:current-layer="layer1" /><defs
     id="defs1" /><g
     inkscape:label="Layer 1"
     inkscape:groupmode="layer"
     id="layer1"
     transform="translate(-71.262004,-121.12193)"><path
       id="path2"
       style="fill:#000000"
       d="m 123.14359,121.12435 c -2.20578,-0.0414 -5.35367,0.45056 -8.09304,1.28985 -4.66727,1.42996 -7.01503,1.67683 -8.87595,0.93224 -0.5813,-0.23259 -1.73712,-0.42323 -2.56883,-0.42323 -1.84694,0 -3.973894,0.98034 -4.975411,2.2934 l -0.67231,0.8816 h -2.993616 c -2.76764,0 -3.18044,0.0698 -5.476668,0.92294 -1.36587,0.50749 -2.602115,1.07491 -2.747636,1.26091 -0.145521,0.18599 -0.763542,0.72783 -1.37356,1.20406 -1.513397,1.18149 -2.242722,2.40933 -2.038118,3.43235 0.128664,0.64331 0.04919,0.86352 -0.396875,1.10225 -0.398142,0.21308 -0.557072,0.55381 -0.557072,1.19321 0,1.39528 -0.204792,1.67585 -2.216919,3.03496 -2.277839,1.5386 -4.662248,3.64525 -4.662248,4.11913 0,0.19005 -0.567931,0.92524 -1.261938,1.63401 -1.659211,1.6945 -2.971395,4.32617 -2.971395,5.95881 0,2.49994 2.975818,4.97695 5.978963,4.97695 1.259768,0 1.513379,0.10886 2.780709,1.19063 2.209903,1.88634 3.748992,2.36832 7.313765,2.29082 1.63711,-0.0356 3.899297,-0.0802 5.027084,-0.0992 2.300923,-0.0387 5.578435,0.53033 6.245613,1.08417 0.289855,0.24062 0.769902,0.31096 1.409212,0.20722 1.50763,-0.24466 3.09946,0.24807 4.99401,1.54513 1.66899,1.14261 1.81486,1.18959 3.66955,1.18959 1.7623,0 2.02092,0.0719 2.95951,0.82062 1.33258,1.06296 3.19813,2.00424 4.9351,2.49029 1.99531,0.55833 4.14778,0.31567 4.78058,-0.53899 0.30356,-0.40998 0.74912,-0.65584 1.19063,-0.65784 0.40263,-0.002 1.43027,-0.50882 2.39313,-1.18132 1.36166,-0.95102 1.9886,-1.21278 3.24994,-1.35548 0.89039,-0.10074 1.83333,-0.38936 2.19108,-0.67076 0.34538,-0.27168 0.90713,-0.49408 1.24798,-0.49454 0.34085,-4.6e-4 1.28117,-0.44695 2.0898,-0.99219 2.05139,-1.38321 7.03313,-6.38614 7.52047,-7.55251 0.22121,-0.52942 0.40204,-1.66563 0.40204,-2.52491 0,-1.06027 0.2884,-2.44496 0.89762,-4.30826 1.56993,-4.8016 1.87733,-8.95142 0.82682,-11.16521 -0.73318,-1.54507 -2.56398,-3.38176 -3.57342,-3.58531 -0.68172,-0.13748 -1.11397,-0.47078 -1.65468,-1.27589 -0.54364,-0.80946 -1.04974,-1.19802 -1.96836,-1.51102 -0.6802,-0.23177 -1.44808,-0.42168 -1.70635,-0.42168 -0.88964,0 -1.74526,-0.58299 -2.17351,-1.48105 -0.23613,-0.49517 -0.54872,-0.9002 -0.69453,-0.9002 -0.14581,0 -0.58012,-0.47626 -0.96532,-1.05834 -0.4364,-0.65945 -0.90372,-1.05833 -1.23972,-1.05833 -0.29658,0 -1.27163,-0.35663 -2.16679,-0.79272 -0.95321,-0.46437 -2.27714,-0.86039 -3.19567,-0.95549 -0.27273,-0.0282 -0.56856,-0.0447 -0.88367,-0.0506 z m -12.53877,8.49044 c 0.0876,-0.003 0.18459,0.0253 0.28526,0.0863 0.4032,0.24909 0.73277,0.76317 0.73277,1.14257 0,0.37943 -0.32957,0.68988 -0.73277,0.68988 -0.40321,0 -0.73329,-0.51397 -0.73329,-1.14257 0,-0.47145 0.18522,-0.76451 0.44803,-0.77618 z m 0.28577,4.37028 c 3.3452,0.26184 5.60985,0.56493 8.38554,2.11925 2.39444,1.31631 4.5002,2.85792 4.68085,3.42615 0.24023,0.75583 -0.0419,0.88627 -1.05368,0.48265 -3.5243,-1.40591 -9.4941,-2.61482 -12.91394,-2.61482 -3.88091,0 -9.21833,1.3588 -11.198287,2.59054 l -0.01395,-0.0848 -4.036446,2.16782 c -0.791912,0.23995 -0.235588,-0.73578 0.320394,-1.34152 2.37172,-2.9317 5.380209,-4.24337 8.770519,-5.63169 2.40034,-0.98293 4.66938,-1.11662 7.059,-1.11363 z m 0.47026,4.89944 c 1.29686,-0.0333 2.46135,0.196 2.46135,0.71314 0,0.40323 0.49487,0.73328 1.09967,0.73328 1.61885,0 1.43843,4.59874 -0.24029,6.11798 -1.85032,1.67446 -6.8814,1.59892 -8.44342,-0.12713 -0.66784,-0.73793 -1.1856,-2.4683 -1.1529,-3.84886 l 0.0589,-2.50889 1.00769,2.19935 c 0.99798,2.17926 1.00704,2.18209 1.03973,0.3297 0.0194,-1.02815 0.42823,-2.26536 0.91209,-2.74919 0.53077,-0.53074 1.96031,-0.82613 3.25717,-0.85938 z m -9.14466,1.41645 h 0.001 c 0.9453,0.0474 1.34204,0.89747 1.34204,2.62878 0,3.94125 2.76862,6.35333 7.37061,6.42287 4.73635,0.0715 7.29102,-2.10636 7.29102,-6.21668 0,-3.23888 0.72632,-3.46384 4.92425,-1.52239 5.13584,2.37529 5.09763,3.63997 -0.17932,6.04253 -2.20666,1.00465 -4.01164,2.021 -4.01164,2.25929 0,0.23828 -1.86687,0.7725 -4.14806,1.18598 -4.98486,0.90352 -7.5652,-0.17788 -13.70718,-2.03502 -3.27333,-1.04242 -4.369684,-1.57657 -5.697324,-2.29495 l -1.570447,-1.06764 c -2.421982,-1.48391 2.00519,-3.23269 4.706689,-4.29328 l 1.350306,-0.5302 c 1.051256,-0.41271 1.760856,-0.60774 2.328026,-0.57929 z m 12.74289,3.69538 c -0.27976,0 -1.00285,0.49488 -1.60766,1.09968 -0.60483,0.60483 -0.78675,1.09967 -0.40411,1.09967 0.38261,0 1.10623,-0.49484 1.60818,-1.09967 0.50203,-0.6048 0.68336,-1.09968 0.40359,-1.09968 z m -6.3283,1.09399 c -0.3943,-0.0432 -0.67334,0.10238 -0.67334,0.39533 0,0.39054 0.49487,0.71003 1.09967,0.71003 0.60483,0 1.09968,-0.12946 1.09968,-0.28784 0,-0.15848 -0.49485,-0.47784 -1.09968,-0.71003 -0.15128,-0.0579 -0.29488,-0.0931 -0.42633,-0.10749 z m 8.99015,6.26267 c 0.35704,3.9e-4 0.59996,0.23106 0.59996,0.6904 0,0.39389 -0.78397,1.23023 -1.74252,1.85828 -4.15238,2.72087 -7.81529,2.70371 -11.1125,-0.0527 l -2.17352,-1.81694 2.93264,0.54984 c 3.69573,0.69297 9.27069,0.398 10.20868,-0.54002 0.45895,-0.45892 0.93024,-0.68924 1.28726,-0.68885 z m -17.0372,1.44074 c 0.3794,0 0.89347,0.32957 1.14256,0.73277 0.24909,0.4032 -0.0618,0.73329 -0.69039,0.73329 -0.62861,0 -1.142569,-0.33009 -1.142569,-0.73329 0,-0.4032 0.310999,-0.73277 0.690399,-0.73277 z m 20.93619,0 c 0.6048,0 1.09967,0.32957 1.09967,0.73277 0,0.4032 -0.49487,0.73329 -1.09967,0.73329 -0.60481,0 -1.09968,-0.33009 -1.09968,-0.73329 0,-0.4032 0.49487,-0.73277 1.09968,-0.73277 z" /></g></svg>
