<?xml version="1.0" encoding="UTF-8" standalone="no"?>
<!-- Created with Inkscape (http://www.inkscape.org/) -->

<svg
   width="83.92849mm"
   height="82.273285mm"
   viewBox="0 0 83.928486 82.273286"
   version="1.1"
   id="svg1"
   xml:space="preserve"
   inkscape:version="1.4 (86a8ad7, 2024-10-11)"
   sodipodi:docname="Exhaust.svg"
   xmlns:inkscape="http://www.inkscape.org/namespaces/inkscape"
   xmlns:sodipodi="http://sodipodi.sourceforge.net/DTD/sodipodi-0.dtd"
   xmlns="http://www.w3.org/2000/svg"
   xmlns:svg="http://www.w3.org/2000/svg"><sodipodi:namedview
     id="namedview1"
     pagecolor="#505050"
     bordercolor="#eeeeee"
     borderopacity="1"
     inkscape:showpageshadow="0"
     inkscape:pageopacity="0"
     inkscape:pagecheckerboard="0"
     inkscape:deskcolor="#505050"
     inkscape:document-units="mm"
     inkscape:zoom="1.4396184"
     inkscape:cx="75.714508"
     inkscape:cy="138.23108"
     inkscape:window-width="1920"
     inkscape:window-height="1010"
     inkscape:window-x="1529"
     inkscape:window-y="-6"
     inkscape:window-maximized="1"
     inkscape:current-layer="layer1" /><defs
     id="defs1" /><g
     inkscape:label="Layer 1"
     inkscape:groupmode="layer"
     id="layer1"
     transform="translate(-59.755573,-98.177692)"><path
       style="fill:#000000"
       d="m 80.6682,180.02832 c -1.552986,-0.54365 -3.10211,-1.54143 -3.475033,-2.23824 -1.025901,-1.91691 -1.946192,-4.98803 -1.973993,-6.58745 -0.02629,-1.51267 -0.181622,-2.00657 -1.289754,-4.10104 -0.692924,-1.30969 -1.420321,-2.55985 -1.616436,-2.77813 -0.196116,-0.21828 -0.612873,-1.11125 -0.926129,-1.98437 -0.313255,-0.87313 -0.789007,-2.18281 -1.057227,-2.91042 -0.911634,-2.473 -2.429998,-6.60964 -2.962039,-8.06979 -0.291631,-0.80036 -0.628148,-1.69333 -0.747814,-1.98438 -1.461221,-3.55385 -2.636722,-7.42559 -2.639233,-8.69282 -0.0019,-0.98003 0.952623,-3.28122 1.648759,-3.97468 0.716927,-0.71418 1.772957,-1.22586 4.69922,-2.27693 1.673489,-0.60109 3.280833,-1.1992 3.571875,-1.32913 0.291042,-0.12993 1.064948,-0.41132 1.719792,-0.62529 0.654843,-0.21398 2.321718,-0.82758 3.704166,-1.36355 1.382448,-0.53598 2.811198,-1.07127 3.175,-1.18954 0.619531,-0.20141 2.534785,-0.90123 7.9375,-2.9003 4.030059,-1.49118 4.338493,-1.58343 6.658786,-1.99158 2.684534,-0.47223 4.06729,-0.99559 4.43228,-1.67759 0.15122,-0.28255 1.24736,-0.851 2.58923,-1.34275 1.27985,-0.46902 2.56512,-0.95108 2.85616,-1.07125 0.29104,-0.12016 0.94589,-0.36157 1.45521,-0.53646 0.50932,-0.17489 1.16417,-0.41443 1.45521,-0.5323 0.29104,-0.11787 1.71979,-0.65122 3.175,-1.18522 1.45521,-0.534 3.24115,-1.18934 3.96875,-1.45631 0.7276,-0.26697 2.45401,-0.91837 3.83646,-1.44756 3.22651,-1.23508 4.63925,-1.41586 6.28204,-0.80384 1.49001,0.5551 2.20189,1.15838 3.27037,2.77149 0.53978,0.81492 0.74311,1.38736 0.63946,1.80031 -0.10161,0.40485 0.0594,0.88763 0.48592,1.45705 0.64391,0.85965 0.89498,1.46905 1.12276,2.72519 0.0686,0.37814 0.28847,0.9447 0.48866,1.25904 0.2002,0.31434 0.85708,2.05981 1.45973,3.87882 0.90053,2.71809 2.08821,5.88398 3.72217,9.92187 0.11777,0.29104 0.76767,2.01745 1.44422,3.83646 0.67654,1.81901 1.3408,3.58078 1.47613,3.91505 0.13532,0.33427 0.24604,0.98144 0.24604,1.43816 0,0.45672 0.22105,1.07619 0.49123,1.37661 0.27018,0.30042 0.79343,1.4077 1.16278,2.46061 0.64015,1.82492 0.65336,1.9764 0.28266,3.24096 -0.21387,0.72962 -0.76689,1.88798 -1.22892,2.57414 -0.86524,1.28498 -1.23667,1.4949 -5.20567,2.9421 -3.77317,1.37579 -6.79505,2.49202 -7.27604,2.68765 -0.29104,0.11837 -1.18401,0.45382 -1.98438,0.74545 -0.80036,0.29164 -2.64583,0.96767 -4.10104,1.50231 -1.45521,0.53463 -3.24114,1.18948 -3.96875,1.45521 -1.21423,0.44345 -4.66712,1.71099 -7.9375,2.91383 -0.7276,0.26761 -2.51354,0.92348 -3.96875,1.45748 -1.45521,0.534 -2.88396,1.06735 -3.175,1.18523 -0.29104,0.11787 -0.88635,0.33525 -1.32291,0.48307 -0.43657,0.14782 -1.64729,0.59157 -2.6905,0.98612 -1.543218,0.58364 -2.039611,0.66754 -2.663242,0.45015 -0.844182,-0.29429 -1.187285,-0.16236 -2.757591,1.06035 -0.513949,0.40018 -1.161339,0.73025 -1.438645,0.73349 -0.277306,0.003 -0.801849,0.23871 -1.165651,0.52328 -0.363802,0.28457 -0.786916,0.52005 -0.940253,0.52328 -0.341184,0.007 -5.864865,1.77902 -6.600372,2.11719 -0.516117,0.2373 -3.004836,1.07621 -3.118101,1.05107 -0.03129,-0.007 -0.583262,-0.1969 -1.226595,-0.4221 z m 3.757919,-2.49704 c 1.195852,-0.44831 2.650527,-0.99684 3.23261,-1.21896 0.582084,-0.22212 1.713178,-0.61869 2.513542,-0.88126 2.203117,-0.72278 3.298274,-1.234 4.135247,-1.93037 1.269573,-1.05629 1.878107,-1.25959 3.626329,-1.21149 1.589996,0.0437 3.248983,-0.43327 7.451963,-2.14268 0.29104,-0.11837 1.18401,-0.45383 1.98438,-0.74546 0.80036,-0.29163 2.64583,-0.96767 4.10104,-1.5023 1.45521,-0.53464 3.24115,-1.18948 3.96875,-1.45521 1.21423,-0.44345 4.66712,-1.711 7.9375,-2.91384 0.7276,-0.26761 2.51354,-0.92347 3.96875,-1.45748 1.45521,-0.534 2.88396,-1.06735 3.175,-1.18522 0.29104,-0.11787 0.88635,-0.33595 1.32292,-0.48463 1.99316,-0.67878 6.13031,-2.22609 6.54484,-2.44779 0.25269,-0.13514 0.61737,-0.24571 0.8104,-0.24571 0.69032,0 1.9969,-1.8001 2.42541,-3.34152 0.19777,-0.71142 -0.54337,-2.96424 -1.21546,-3.69456 -0.2803,-0.30459 -0.61447,-1.19756 -0.74261,-1.98438 -0.20703,-1.27128 -0.66028,-2.727 -1.35157,-4.341 -0.12466,-0.29104 -0.40252,-1.06495 -0.61746,-1.71979 -0.58955,-1.79611 -1.72365,-4.73264 -2.40129,-6.21771 -0.51792,-1.13502 -2.09551,-5.42931 -2.7702,-7.54062 -0.11625,-0.36381 -0.3632,-1.13771 -0.54878,-1.7198 -0.18557,-0.58208 -0.54485,-1.35599 -0.7984,-1.71979 -0.25354,-0.3638 -0.54303,-1.15286 -0.64331,-1.75346 -0.11688,-0.70003 -0.46086,-1.35886 -0.9583,-1.83544 -0.64433,-0.6173 -0.77598,-0.95599 -0.77598,-1.99623 0,-1.14322 -0.0967,-1.3356 -1.10596,-2.19946 -1.3844,-1.18499 -2.69541,-1.25071 -5.37748,-0.26954 -1.01802,0.37242 -2.62484,0.95682 -3.57073,1.29866 -0.94588,0.34185 -2.73182,0.99653 -3.96875,1.45485 -1.23693,0.45832 -3.02286,1.11316 -3.96875,1.45521 -0.94588,0.34204 -2.73182,1.00174 -3.96875,1.46599 -1.23693,0.46426 -2.45177,0.90433 -2.69966,0.97794 -0.24788,0.0736 -0.64251,0.42658 -0.87694,0.78437 -0.54729,0.83527 -2.12734,1.49277 -4.625482,1.9248 -3.209575,0.55506 -5.350563,1.16927 -8.334375,2.39099 -0.291042,0.11917 -0.945886,0.35976 -1.455209,0.53466 -0.509323,0.17489 -1.164166,0.41442 -1.455208,0.53229 -0.46956,0.19017 -3.20848,1.20208 -7.14375,2.63929 -0.727604,0.26573 -2.513542,0.92057 -3.96875,1.4552 -1.455208,0.53464 -3.300677,1.21106 -4.101042,1.50317 -4.754874,1.73535 -5.254687,2.07285 -6.058048,4.09061 -0.393494,0.98832 -0.03198,2.63176 1.389312,6.31589 0.224561,0.58209 0.838396,2.24896 1.364077,3.70417 0.525681,1.45521 1.1755,3.24115 1.444042,3.96875 0.268542,0.72761 0.925093,2.51354 1.459002,3.96875 1.245869,3.39571 1.403802,3.77979 2.012722,4.89479 2.751085,5.03756 3.483399,6.76854 3.47001,8.20209 -0.02312,2.47555 1.337511,6.03323 2.537329,6.63443 1.865225,0.93462 2.02793,0.93317 4.627069,-0.0412 z M 124.5681,155.16066 c -1.04533,-0.47354 -1.58194,-0.69057 -2.91041,-1.17712 -0.85344,-0.31256 -3.64429,-1.61277 -4.89479,-2.28041 -1.3379,-0.71429 -4.43208,-1.77133 -6.10217,-2.08464 -0.51759,-0.0971 -0.90929,-0.32886 -0.90929,-0.53801 0,-0.46072 1.44342,-0.48363 3.9885,-0.0633 1.0128,0.16726 1.91266,0.23292 1.99967,0.1459 0.087,-0.087 -0.21269,-0.60818 -0.66602,-1.15814 -0.45333,-0.54997 -0.82424,-1.14338 -0.82424,-1.3187 0,-0.17532 -0.26789,-0.4 -0.59531,-0.4993 -0.32742,-0.0993 -0.83344,-0.39379 -1.12448,-0.65445 -0.29104,-0.26066 -1.08046,-0.81252 -1.75427,-1.22636 -1.11106,-0.68239 -2.71831,-1.89901 -4.85113,-3.67208 -0.46576,-0.3872 -1.12106,-0.65223 -1.61264,-0.65223 -0.50777,0 -1.02303,-0.21643 -1.3321,-0.55953 -0.27721,-0.30775 -0.80168,-0.67605 -1.16548,-0.81845 -1.50325,-0.5884 -4.617269,-1.28452 -6.414638,-1.43396 -1.701428,-0.14145 -2.199777,-0.0647 -4.382279,0.67509 -3.455711,1.17134 -6.249238,2.78716 -7.988502,4.62068 -0.800365,0.84375 -1.623611,1.85044 -1.829436,2.2371 -0.627827,1.17944 -2.139314,5.16887 -2.139314,5.64653 0,0.24707 -0.119063,0.52281 -0.264583,0.61274 -0.784,0.48454 0.389175,-5.99414 1.46747,-8.10388 0.562667,-1.10088 3.296108,-4.76596 4.587554,-6.15112 1.706711,-1.83057 5.042352,-3.77297 7.911395,-4.60695 1.974034,-0.57381 9.911543,-0.55772 12.491913,0.0253 1.80448,0.40773 4.0892,1.14862 4.7625,1.54439 0.21828,0.1283 0.9014,0.46503 1.51803,0.74829 0.61664,0.28325 2.59962,1.88909 4.40663,3.56853 1.80701,1.67945 3.40856,3.05354 3.55899,3.05354 0.15043,0 0.35536,-0.56555 0.45539,-1.25677 0.10003,-0.69123 0.29688,-1.40124 0.43744,-1.57781 0.14056,-0.17657 0.32224,-1.29381 0.40373,-2.48275 0.14644,-2.13647 0.15296,-2.1528 0.55887,-1.39875 0.22589,0.41962 0.49647,1.4178 0.60131,2.21816 0.23191,1.77059 0.46374,2.87016 0.75308,3.57188 0.75163,1.82292 1.60428,5.90558 2.04452,9.78958 0.0825,0.72761 0.35511,1.62057 0.60586,1.98438 0.42711,0.61967 0.6167,1.19901 0.97409,2.97656 0.17502,0.87052 -0.316,0.95284 -1.76586,0.29605 z m -17.26406,-6.35826 c 0.1819,-0.0734 0.47956,-0.0734 0.66146,0 0.1819,0.0734 0.0331,0.13345 -0.33073,0.13345 -0.3638,0 -0.51263,-0.06 -0.33073,-0.13345 z m -42.376458,20.21131 c -1.69859,-0.24608 -1.927975,-0.36148 -3.215665,-1.61772 -0.920924,-0.89843 -1.483522,-1.70817 -1.67519,-2.41107 -0.37789,-1.38583 -0.371637,-29.87386 0.007,-31.75 0.146831,-0.7276 0.330756,-2.24173 0.408723,-3.36472 0.114851,-1.65426 0.06119,-2.12237 -0.282737,-2.46629 -0.377294,-0.37729 -0.423203,-1.73891 -0.412881,-12.2457 0.01239,-12.61017 0.04427,-12.95636 1.338425,-14.53248 1.181483,-1.438903 1.680913,-1.706325 4.423737,-2.368711 0.337921,-0.08161 0.897491,0.0031 1.243489,0.188301 0.461474,0.246973 0.82649,0.263811 1.369974,0.0632 1.140557,-0.421012 28.783923,-0.419735 29.458204,0.0014 0.410394,0.256295 0.629237,0.255453 1.044718,-0.004 0.295167,-0.184335 1.383981,-0.328228 2.483641,-0.328228 1.76877,0 2.08245,0.08313 3.24473,0.859896 0.70767,0.472943 1.67363,1.438892 2.14657,2.146562 l 0.8599,1.28668 v 8.28885 c 0,5.16549 -0.0984,8.34966 -0.26104,8.45019 -0.39961,0.24698 -4.55192,1.76407 -5.2563,1.92046 -0.3424,0.076 -1.00281,0.51848 -1.46758,0.98325 -0.841519,0.84152 -2.554162,1.46411 -4.027522,1.46411 -0.398171,0 -1.14912,0.13769 -1.668774,0.30597 -1.053408,0.34113 -5.677922,2.00336 -6.501077,2.33673 -0.291042,0.11787 -0.886354,0.33555 -1.322917,0.48373 -0.436562,0.14818 -2.282031,0.82503 -4.101041,1.50411 -1.819011,0.67907 -3.902605,1.4517 -4.630209,1.71693 -0.727604,0.26524 -2.513541,0.91968 -3.96875,1.45432 -1.455208,0.53463 -3.270911,1.2006 -4.034896,1.47993 -3.772,1.37911 -4.482316,1.736 -5.487399,2.75709 -1.159281,1.17774 -2.257219,3.6098 -2.242238,4.96682 0.01309,1.18567 0.583876,3.36127 1.577597,6.01312 0.46351,1.23693 1.1226,3.02286 1.464645,3.96875 0.342044,0.94589 0.973522,2.67229 1.403284,3.83646 0.429762,1.16416 1.275487,3.48588 1.879389,5.15937 0.603901,1.67349 1.211663,3.24946 1.350581,3.50214 0.138919,0.25269 0.252579,0.61619 0.252579,0.80777 0,0.19159 0.349034,0.82296 0.775631,1.40304 0.426598,0.58008 1.01604,1.66462 1.309872,2.41007 0.468093,1.18756 0.484036,1.37465 0.12877,1.51097 -0.614646,0.23587 -5.546329,0.11849 -7.615212,-0.18124 z"
       id="path1" /></g></svg>
