<?xml version="1.0" encoding="UTF-8" standalone="no"?>
<!-- Created with Inkscape (http://www.inkscape.org/) -->

<svg
   width="188.78123mm"
   height="198.84766mm"
   viewBox="0 0 188.78124 198.84767"
   version="1.1"
   id="svg1"
   xml:space="preserve"
   inkscape:version="1.4 (86a8ad7, 2024-10-11)"
   sodipodi:docname="Fire.svg"
   xmlns:inkscape="http://www.inkscape.org/namespaces/inkscape"
   xmlns:sodipodi="http://sodipodi.sourceforge.net/DTD/sodipodi-0.dtd"
   xmlns="http://www.w3.org/2000/svg"
   xmlns:svg="http://www.w3.org/2000/svg"><sodipodi:namedview
     id="namedview1"
     pagecolor="#505050"
     bordercolor="#eeeeee"
     borderopacity="1"
     inkscape:showpageshadow="0"
     inkscape:pageopacity="0"
     inkscape:pagecheckerboard="0"
     inkscape:deskcolor="#505050"
     inkscape:document-units="mm"
     inkscape:zoom="0.45254834"
     inkscape:cx="-17.67767"
     inkscape:cy="329.2466"
     inkscape:window-width="1920"
     inkscape:window-height="1010"
     inkscape:window-x="4601"
     inkscape:window-y="-6"
     inkscape:window-maximized="1"
     inkscape:current-layer="svg1" /><defs
     id="defs1"><inkscape:path-effect
       effect="fillet_chamfer"
       id="path-effect55"
       is_visible="true"
       lpeversion="1"
       nodesatellites_param="F,0,0,1,0,0,0,1 @ F,0,0,1,0,0,0,1 @ F,0,0,1,0,0,0,1 @ F,0,0,1,0,0,0,1 @ F,0,0,1,0,0,0,1 @ F,0,0,1,0,0,0,1 @ F,0,0,1,0,0,0,1 @ F,0,0,1,0,0,0,1 @ F,0,0,1,0,0,0,1 @ F,0,0,1,0,0,0,1 @ F,0,0,1,0,0,0,1 @ F,0,0,1,0,0,0,1 @ F,0,0,1,0,0,0,1 @ F,0,0,1,0,0,0,1 @ F,0,0,1,0,0,0,1 @ F,0,0,1,0,0,0,1 @ F,0,0,1,0,0,0,1 @ F,0,0,1,0,0,0,1 @ F,0,0,1,0,0,0,1 @ F,0,0,1,0,0,0,1 @ F,0,0,1,0,0,0,1 @ F,0,0,1,0,0,0,1 @ F,0,0,1,0,0,0,1 @ F,0,0,1,0,0,0,1 @ F,0,0,1,0,0,0,1 @ F,0,0,1,0,0,0,1 @ F,0,0,1,0,0,0,1 @ F,0,0,1,0,0,0,1 @ F,0,0,1,0,0,0,1 @ F,0,0,1,0,0,0,1 @ F,0,0,1,0,0,0,1 @ F,0,0,1,0,0,0,1 @ F,0,0,1,0,0,0,1 @ F,0,0,1,0,0,0,1 @ F,0,0,1,0,0,0,1 @ F,0,0,1,0,0,0,1 @ F,0,0,1,0,0,0,1 @ F,0,0,1,0,0,0,1 @ F,0,0,1,0,0,0,1 @ F,0,0,1,0,0,0,1 @ F,0,0,1,0,0,0,1 @ F,0,0,1,0,0,0,1 @ F,0,0,1,0,0,0,1 @ F,0,0,1,0,0,0,1 @ F,0,0,1,0,0,0,1 @ F,0,0,1,0,0,0,1 @ F,0,0,1,0,0,0,1 @ F,0,0,1,0,0,0,1 @ F,0,0,1,0,0,0,1 @ F,0,0,1,0,0,0,1 @ F,0,0,1,0,0,0,1 @ F,0,0,1,0,0,0,1 @ F,0,0,1,0,0,0,1 @ F,0,0,1,0,0,0,1 @ F,0,0,1,0,0,0,1 @ F,0,0,1,0,0,0,1 @ F,0,0,1,0,0,0,1 | F,0,0,1,0,0,0,1 @ F,0,0,1,0,0,0,1 @ F,0,0,1,0,0,0,1 @ F,0,0,1,0,0,0,1 @ F,0,0,1,0,0,0,1 @ F,0,0,1,0,0,0,1 @ F,0,0,1,0,0,0,1 @ F,0,0,1,0,0,0,1 @ F,0,0,1,0,0,0,1 @ F,0,0,1,0,0,0,1 @ F,0,0,1,0,0,0,1 @ F,0,0,1,0,0,0,1 @ F,0,0,1,0,0,0,1 @ F,0,0,1,0,0,0,1 @ F,0,0,1,0,0,0,1 @ F,0,0,1,0,0,0,1 @ F,0,0,1,0,0,0,1 @ F,0,0,1,0,0,0,1 @ F,0,0,1,0,0,0,1 @ F,0,0,1,0,0,0,1 | F,0,0,1,0,0,0,1 @ F,0,0,1,0,0,0,1 @ F,0,0,1,0,0,0,1 @ F,0,0,1,0,0,0,1 @ F,0,0,1,0,0,0,1 @ F,0,0,1,0,0,0,1 @ F,0,0,1,0,0,0,1 @ F,0,0,1,0,0,0,1 @ F,0,0,1,0,0,0,1 @ F,0,0,1,0,0,0,1 @ F,0,0,1,0,0,0,1 @ F,0,0,1,0,0,0,1 @ F,0,0,1,0,0,0,1 @ F,0,0,1,0,0,0,1 @ F,0,0,1,0,0,0,1 @ F,0,0,1,0,0,0,1 @ F,0,0,1,0,0,0,1 @ F,0,0,1,0,0,0,1 @ F,0,0,1,0,0,0,1 @ F,0,0,1,0,0,0,1 @ F,0,0,1,0,0,0,1 @ F,0,0,1,0,0,0,1 @ F,0,0,1,0,0,0,1 @ F,0,0,1,0,0,0,1 @ F,0,0,1,0,0,0,1 @ F,0,0,1,0,0,0,1 @ F,0,0,1,0,0,0,1 @ F,0,0,1,0,0,0,1 @ F,0,0,1,0,0,0,1 @ F,0,0,1,0,0,0,1 @ F,0,0,1,0,0,0,1 @ F,0,0,1,0,0,0,1 @ F,0,0,1,0,0,0,1 @ F,0,0,1,0,0,0,1 @ F,0,0,1,0,0,0,1 @ F,0,0,1,0,0,0,1 @ F,0,0,1,0,0,0,1 @ F,0,0,1,0,0,0,1 @ F,0,0,1,0,0,0,1 @ F,0,0,1,0,0,0,1 @ F,0,0,1,0,0,0,1 @ F,0,0,1,0,0,0,1 @ F,0,0,1,0,0,0,1 @ F,0,0,1,0,0,0,1 @ F,0,0,1,0,0,0,1 @ F,0,0,1,0,0,0,1 @ F,0,0,1,0,0,0,1 | F,0,0,1,0,0,0,1 @ F,0,0,1,0,0,0,1 @ F,0,0,1,0,0,0,1 @ F,0,0,1,0,0,0,1 @ F,0,0,1,0,0,0,1"
       radius="0"
       unit="px"
       method="auto"
       mode="F"
       chamfer_steps="1"
       flexible="false"
       use_knot_distance="true"
       apply_no_radius="true"
       apply_with_radius="true"
       only_selected="false"
       hide_knots="false" /></defs><path
     id="path70"
     style="display:inline"
     d="m 103.21902,0 c -0.66204,1.6608742 -1.18345,3.4890019 -2.59054,4.2653732 -2.71003,2.0539615 -5.79431,2.7725652 -9.027361,3.677294 C 79.218692,10.691495 68.743358,22.132664 74.607332,36.144564 c 1.031746,2.606241 3.520205,3.662214 5.745386,5.170743 7.186101,4.709815 12.448537,7.02352 17.347771,14.277682 l 2.339911,3.463871 c 0.71988,3.810706 1.08902,3.391338 -0.914671,6.902421 l -1.62161,2.840654 0.06873,-2.945557 c 0.97755,-1.96097 -0.725846,-6.112051 -1.22938,-6.270935 -1.44395,4.58116 -5.475186,6.805456 -9.20977,9.655225 -4.092733,3.291376 -8.476872,6.181231 -12.802836,9.150345 -3.259951,2.270908 -4.798939,5.080864 -6.826457,8.376233 l -2.069124,5.544882 c -1.701056,4.249359 -3.608612,9.093062 0.358634,12.491222 3.985179,4.88881 4.790861,7.51424 -2.668571,4.25604 -5.59881,-3.21987 -4.976042,-10.487012 -4.239532,-14.153138 -3.230331,-1.224135 -3.472967,-1.757781 -5.299418,-4.47776 -0.355022,0.0039 -0.710036,0.0084 -1.065051,0.0129 -2.938784,5.78148 -3.536316,8.792448 -3.463354,15.167028 -0.615117,0.007 -2.45308,-1.52393 -2.45308,-1.52393 -2.0709,-6.349562 2.637536,-12.087218 5.469435,-17.571014 l 17.44338,-17.336409 c 3.376537,-5.457058 5.935511,-9.724178 5.412073,-16.594336 -0.283764,-5.184123 -6.074599,-10.847204 -9.993705,-13.709241 -0.691563,0.130758 -4.475769,-3.243479 -1.49967,1.043962 l 3.635437,3.676778 c 4.255284,3.759918 3.699973,4.07593 4.496366,9.001518 -0.735664,6.67099 -4.625663,9.363267 -9.365837,13.226583 -7.278052,6.226827 -15.214671,9.269019 -20.479887,17.611845 -1.814799,2.455398 -3.07437,5.161466 -4.33927,7.915795 -2.745925,6.006462 -2.611319,9.346139 0.189132,16.206759 2.616151,4.97914 1.921531,9.6014 2.005565,15.06265 1.027377,4.17804 2.599017,6.64768 4.983158,10.0738 4.52011,4.3882 8.966424,9.17193 15.84296,9.09399 l 2.920752,-0.0336 c 0.204115,-0.33872 0.407975,-0.6776 0.611849,-1.01647 l -3.316593,-1.33067 c -3.773174,-1.15893 -3.826464,-2.02884 -5.92677,-4.90771 l 6.132959,-5.79965 c 3.210072,-4.93552 -1.921476,-6.22158 -7.347344,-7.37888 8.856771,-5.8187 13.488073,-2.25776 17.60461,1.12552 5.210423,8.26669 -2.981655,3.85287 8.434104,15.38097 7.009847,7.07795 9.219797,8.15244 16.546795,3.57088 0.819342,-0.68372 1.593997,-1.35255 -0.012,-1.22783 -3.087704,0.7145 -5.490929,0.7451 -7.20059,0.0821 -3.610667,-1.81669 -0.842978,-2.66046 0.64957,-3.03289 3.906336,-0.37262 4.848109,-7.2149 1.22111,-11.4267 -2.623301,-3.08232 -6.564456,-4.83398 -9.999901,-6.92877 -4.123341,-8.90336 -1.171433,-12.19745 3.019971,-16.67495 2.384931,-2.15248 2.938169,-1.73468 1.053165,2.10452 -1.709334,7.13423 -1.50086,8.8073 2.533695,14.75517 3.376014,1.82633 7.376858,2.64548 10.19886,5.30768 1.936568,2.01417 2.487531,5.13859 3.904671,7.87343 2.44332,3.10185 5.02634,2.85072 7.74527,-0.66198 1.17757,-2.84195 0.0293,-5.36083 -1.61334,-7.77058 -3.41991,-3.17689 -0.0111,-4.45591 4.95267,0.11885 l 2.1301,1.96371 c 1.41653,2.3188 -0.76368,6.67875 -1.47644,9.11468 l -1.52083,5.19814 c -0.43876,4.60551 -1.21631,9.62679 4.22816,7.01196 3.77884,-1.35031 1.98725,0.90378 1.32964,2.42412 -1.1527,2.58053 -9.27792,6.34801 -9.47753,6.43011 1.2567,-0.0685 2.46416,-0.36486 3.68395,-0.64751 11.41136,-2.80224 14.37659,-9.15514 14.83267,-20.33416 -3.20852,-3.40834 -3.06265,-3.22531 -3.11308,-7.6476 2.6708,-4.08921 5.05159,-5.38718 9.0842,-7.81244 l 3.12591,-0.22841 c 5.83825,0.16336 9.38358,-1.70296 10.5761,-7.79537 l 0.67851,-3.46594 c 0.3709,-1.51932 0.77184,-2.7349 1.75079,1.89383 l 0.0414,3.60494 c 0.0619,5.46981 -0.52474,6.54333 -5.61984,11.29492 -1.5383,0.94413 -3.07676,1.88799 -4.61522,2.83187 0.9435,3.76389 1.87384,6.68339 0.88315,10.53631 -0.71115,3.66513 -4.63668,5.68989 -7.51944,8.09356 4.1319,0.26915 7.38534,-3.3637 10.27586,-6.05158 7.78574,-7.04993 15.4969,-9.28452 20.33054,-19.79931 2.45313,-6.57085 -4.24262,-7.93399 2.36361,-20.968221 l 2.12442,-2.85048 c 4.8769,-6.002614 -0.28,-12.741361 -5.89947,-18.398871 -3.03026,-2.417334 -2.2466,-0.766475 -1.21945,1.144097 0.35242,0.27844 2.58289,6.364427 0.19533,4.410067 -1.70394,-2.866826 -3.09623,-5.904108 -5.32525,-8.417058 -6.00055,-5.009242 -15.97354,-8.31605 -15.78198,-17.761706 -0.13022,-2.064744 0.36004,-4.049741 0.74363,-6.059578 -2.67325,2.372376 -2.51377,2.651236 -3.40289,6.307108 -1.92955,7.932772 -0.44498,11.217673 4.83743,19.412769 2.24419,3.793608 5.64342,6.724303 8.69611,9.866064 3.68586,4.975083 3.91569,6.160379 1.82058,11.778608 -0.77569,1.504651 -1.49719,2.806091 -1.12655,0.012 -0.89715,-5.393712 0.11118,-7.947 -3.89433,-11.770334 l -2.40864,-2.299085 c -1.54048,1.568304 -1.56577,4.206121 -2.09341,6.271452 l -1.42782,5.591387 c -4.37627,6.087171 -10.05439,10.947141 -15.54634,15.993341 -2.6,0.42086 -0.98124,-1.03329 -0.0258,-2.19263 l 6.7293,-7.21817 -0.4625,-7.975741 -0.46199,-7.975734 -0.44648,-4.987292 c -0.1648,-2.183682 -0.26195,-4.338308 -0.86068,-6.442206 -0.67648,1.351957 -1.15431,2.786258 -1.67405,4.202547 l -0.56586,7.855851 c -0.80983,11.253296 -0.89117,11.568324 -10.70219,22.304585 -1.48497,1.43403 -2.86939,1.91261 -3.96668,-0.33642 -0.19184,-3.93056 0.81242,-5.43807 -1.5776,-8.71006 -2.28305,-2.773933 -2.00968,-6.550416 -0.6098,-9.720336 1.0647,-2.555495 2.59521,-5.322831 1.80299,-8.12922 l -5.23586,7.102409 c -1.41173,1.609909 -1.29428,0.763854 -0.43873,-1.267623 1.44295,-3.645537 3.10403,-4.808453 6.06009,-7.516337 8.54692,-7.25728 17.66564,-11.592451 17.72605,-24.302909 -0.75977,-8.74487 -7.80635,-13.759717 -10.29549,-15.270386 -3.69309,-2.362684 -6.94895,-2.878472 -11.16521,-2.335258 -1.53152,0.278473 -1.66831,0.66013 -0.4098,1.300179 l 3.5879,1.551843 c 7.36335,3.18527 8.63007,5.881355 8.70175,12.543421 l -1.49861,-0.480591 c -0.92358,-6.474068 -4.19903,-9.082112 -9.91103,-11.996684 -2.65773,-1.659877 -5.60904,-2.466015 -8.56692,-3.398759 C 96.8001,38.770741 94.021257,36.827087 90.989459,34.819014 83.273259,32.410357 80.832635,26.737215 80.747192,19.269576 83.489116,13.001952 85.0319,12.60423 91.237509,10.594653 94.532454,8.9281949 97.827047,7.2610398 101.12166,5.5939252 103.40477,4.2788307 103.25427,2.1194238 103.21902,0 Z m 78.72284,32.990234 c -4.16709,0.997966 -7.96966,1.443478 -12.17703,0.320921 l -15.33137,-0.05271 -15.33188,-0.05271 c -9.5815,1.543437 -7.98701,0.06458 -11.72745,1.489837 l -0.79116,1.042314 c 0.34282,1.825727 5.83429,8.456973 8.31835,9.400977 3.25666,0.392881 6.32704,-0.393149 9.50743,-0.806168 l 10.02471,-0.01912 10.0242,-0.0186 c 3.04928,0.984274 9.64747,1.52032 9.64747,1.52032 0.89834,1.484041 -0.9126,3.736322 -1.66966,5.023466 -2.34237,4.038838 -14.80397,20.292011 -14.50558,22.073588 0.6165,3.696079 7.4185,6.759377 10.06605,4.99245 0,0 14.35753,-20.339838 17.32815,-26.358597 1.63076,-3.300668 0.61111,-2.423366 1.61023,-3.548104 4.79946,-6.158865 0.50533,-11.989808 -4.99246,-15.007864 z M 29.414225,33.83101 c -3.785522,2.438717 -7.556728,1.675991 -11.294401,0.663514 -4.112107,-0.02466 -8.062181,0.373787 -12.025623,1.380794 C 2.5807405,38.395663 0.89637656,39.241648 0,43.681044 l 0.41031,1.249536 c 1.0757364,2.62534 2.7321503,5.371905 4.959388,7.186124 1.9317485,1.573528 2.9141402,2.951362 4.027144,7.567497 1.027193,4.260237 4.968882,8.188096 5.802747,10.817428 4.704699,5.729793 8.780346,14.861496 12.552205,21.650874 l 5.17e-4,0.65164 c 0.971084,1.604818 2.337445,3.007227 3.804935,1.853158 0,0 4.10386,-6.666586 5.520077,-8.929172 0.08953,-1.183697 0.07764,-1.935433 -0.629871,-2.879927 C 31.521169,73.5556 25.475074,64.835465 20.71243,55.458113 17.604803,52.554161 19.791277,52.369874 18.301725,48.388261 l 0.867653,-2.250509 c 4.558024,0.602996 7.990437,0.358426 12.406995,-0.464571 0.344328,-0.25501 0.688936,-0.509641 1.033528,-0.764294 l 3.811137,-0.05581 3.811654,-0.05581 c 5.808228,1.332332 18.726853,1.690275 19.798275,0.978755 0.551487,-2.082328 -1.827344,-8.209997 -3.329513,-9.517765 C 56.095259,35.730626 52.375127,35.228301 46.915488,34.505392 46.522521,34.367423 46.129371,34.229976 45.736232,34.092498 43.926113,33.728952 32.094954,33.472211 29.414225,33.83101 Z m 40.980444,110.07855 c -2.700897,0.01 -7.397895,-0.54613 -10.086251,-0.31218 -1.379136,0.40916 -2.166359,1.11428 -1.89493,2.34872 5.810913,11.16389 26.926522,46.80748 26.926522,46.80748 1.217095,1.82215 2.780506,3.14737 4.496879,4.47208 1.991642,2.68593 10.493631,1.6677 10.802441,-1.11376 0.60787,-3.13965 9.9179,-17.8323 10.84792,-18.92753 0.80131,-2.04743 2.95173,-3.69947 2.94207,-5.95364 -2.19915,-4.15432 -0.31184,-4.81094 3.15747,-7.45794 0.2447,-2.47071 1.64211,-4.12347 2.57245,-6.30091 1.72022,-3.08769 -0.60132,-2.34635 -2.44223,-2.06034 -2.82976,2.22444 -9.26087,1.36576 -10.9492,2.27118 -0.78201,0.36747 -1.31532,1.09401 -1.91461,1.69809 -1.9391,5.03943 -4.39994,10.95565 -7.815031,17.95291 -1.164978,3.06818 -2.298005,4.84879 -3.349873,4.73204 -1.860365,-0.20649 -3.356892,-4.47852 -3.542207,-4.71235 C 89.8047,175.7634 76.115523,154.79091 73.259781,146.75528 Z"
     sodipodi:nodetypes="cccccccccccccccccccccccccccccccccccccccccccccccccccccccccccccccccccccccccccccccccccccccccccccccccccccccccccccccccccccccccccccccccccccccccccccccccccccccccccccccccccccccccccccccccccccccsccc" /></svg>
