<?xml version="1.0" encoding="UTF-8" standalone="no"?>
<!-- Created with Inkscape (http://www.inkscape.org/) -->

<svg
   width="59.020588mm"
   height="82.519394mm"
   viewBox="0 0 59.020585 82.519395"
   version="1.1"
   id="svg1"
   xml:space="preserve"
   inkscape:version="1.4 (86a8ad7, 2024-10-11)"
   sodipodi:docname="Gear.svg"
   xmlns:inkscape="http://www.inkscape.org/namespaces/inkscape"
   xmlns:sodipodi="http://sodipodi.sourceforge.net/DTD/sodipodi-0.dtd"
   xmlns="http://www.w3.org/2000/svg"
   xmlns:svg="http://www.w3.org/2000/svg"><sodipodi:namedview
     id="namedview1"
     pagecolor="#505050"
     bordercolor="#eeeeee"
     borderopacity="1"
     inkscape:showpageshadow="0"
     inkscape:pageopacity="0"
     inkscape:pagecheckerboard="0"
     inkscape:deskcolor="#505050"
     inkscape:document-units="mm"
     inkscape:zoom="1.4396184"
     inkscape:cx="34.036797"
     inkscape:cy="161.15382"
     inkscape:window-width="1920"
     inkscape:window-height="1010"
     inkscape:window-x="1529"
     inkscape:window-y="-6"
     inkscape:window-maximized="1"
     inkscape:current-layer="layer1" /><defs
     id="defs1" /><g
     inkscape:label="Layer 1"
     inkscape:groupmode="layer"
     id="layer1"
     transform="translate(-70.880061,-92.122914)"><path
       style="fill:#000000"
       d="m 96.910632,169.41676 c -1.617222,-2.87404 -3.174687,-5.64224 -3.461034,-6.15156 -0.286346,-0.50933 -1.507507,-2.65245 -2.713689,-4.7625 -1.206183,-2.11006 -2.552734,-4.49131 -2.992335,-5.29167 -0.439601,-0.80037 -1.313939,-2.32825 -1.942973,-3.3953 -0.629034,-1.06705 -1.143698,-1.97762 -1.143698,-2.02348 0,-0.0459 -0.457601,-0.8397 -1.016891,-1.76408 -0.55929,-0.92437 -1.333196,-2.24623 -1.719792,-2.93745 -1.544664,-2.76183 -2.133426,-3.79724 -2.857239,-5.02483 -0.415843,-0.70527 -0.756078,-1.32139 -0.756078,-1.36915 0,-0.0478 -0.892969,-1.66507 -1.984376,-3.59404 -1.091406,-1.92897 -1.984375,-3.52823 -1.984375,-3.55392 0,-0.0257 -0.77807,-1.40944 -1.729045,-3.07503 l -1.729046,-3.02835 2.721233,-0.13229 2.721233,-0.13229 0.160628,-2.77812 c 0.164548,-2.84594 0.628612,-6.23045 1.015786,-7.40834 0.119583,-0.3638 0.363866,-1.19724 0.542851,-1.85208 1.45671,-5.32961 5.452866,-10.43144 11.113028,-14.187851 1.224364,-0.812559 5.317752,-2.745482 5.814158,-2.745482 0.153141,0 0.485183,-0.116498 0.737869,-0.258884 0.780499,-0.439801 3.766442,-1.313078 5.554263,-1.624413 2.34885,-0.409034 9.2909,-0.160446 11.17704,0.40024 5.59867,1.664291 6.22019,1.96453 5.93392,2.866485 -0.26122,0.823031 -4.8529,8.766495 -5.34589,9.248225 -0.42721,0.41745 -0.69582,0.41223 -4.29219,-0.0835 -4.15136,-0.57222 -6.47842,-0.51922 -9.525003,0.21691 -4.871011,1.17696 -9.610047,5.07478 -12.436764,10.22916 -1.4281,2.60406 -2.644487,5.99888 -2.644487,7.38051 0,1.51226 0.287237,1.6199 0.71088,0.2664 1.012683,-3.23541 3.943507,-6.9059 6.829745,-8.55341 3.721733,-2.12441 5.046274,-2.50117 10.138889,-2.88398 4.15134,-0.31205 4.89078,-0.56652 3.42951,-1.18021 -1.19911,-0.5036 -2.02993,-0.50974 -5.10173,-0.0377 -4.118605,0.63284 -8.516587,2.66213 -11.368918,5.24578 -1.468905,1.33054 -1.595983,0.7868 -0.330886,-1.4158 1.835952,-3.19649 3.86878,-4.97053 7.698802,-6.7187 3.074355,-1.40326 4.113502,-1.54473 10.194662,-1.38786 5.3657,0.13842 6.37405,0.26191 6.37405,0.78066 0,0.28778 -0.56236,1.62792 -1.34769,3.21168 -0.27742,0.55946 -0.5044,1.51494 -0.5044,2.12329 0,1.02726 0.14299,1.24706 2.00614,3.08385 1.10337,1.08777 2.33576,2.454 2.73864,3.03609 1.04915,1.51581 2.13439,3.5289 2.13439,3.95924 0,0.20272 0.1871,0.55568 0.41577,0.78436 0.35211,0.3521 1.28398,0.41577 6.08542,0.41577 3.11831,0 5.66964,0.0674 5.66964,0.14971 0,0.0823 -2.26218,4.10719 -5.02708,8.9441 l -5.02708,8.7944 v 7.52185 7.52186 l -0.82932,1.66772 c -0.91961,1.84933 -1.81463,2.63232 -1.81913,1.59144 -0.001,-0.33254 -0.11847,-2.27149 -0.26006,-4.30879 -0.14159,-2.03729 -0.37869,-6.56166 -0.52688,-10.05416 -0.1482,-3.4925 -0.3437,-7.1846 -0.43445,-8.20467 -0.16278,-1.82965 -0.15206,-1.87163 0.79408,-3.11115 0.82206,-1.07695 0.95909,-1.45564 0.95909,-2.65052 0,-0.8475 -0.16536,-1.63012 -0.42177,-1.9962 -0.40632,-0.5801 -0.44751,-0.58585 -1.12448,-0.15691 -0.38649,0.24488 -1.00036,0.71736 -1.36417,1.04995 -0.3638,0.33259 -0.95911,0.6446 -1.32291,0.69336 -0.7656,0.10259 -0.7616,-0.0491 -0.10807,4.09942 0.44139,2.80189 0.44172,2.98814 0.007,3.65224 -0.55548,0.84777 -1.01016,1.04633 -1.89022,0.82545 -1.43103,-0.35917 -1.71214,-0.98036 -1.71608,-3.79212 -0.002,-1.41883 -0.0709,-2.83052 -0.15324,-3.13709 -0.16051,-0.59796 -0.47583,-0.78865 -5.91017,-3.57424 -1.95441,-1.00181 -3.871568,-1.82148 -4.26035,-1.82148 -0.951844,0 -2.319232,0.96222 -3.250647,2.28747 -0.614428,0.87422 -0.729547,1.25219 -0.583668,1.91638 0.377962,1.72085 3.940774,3.31762 8.103635,3.63188 1.30369,0.0984 2.45466,0.3104 2.55771,0.47108 0.16402,0.25577 0.73043,3.38767 1.65579,9.15569 0.15175,0.94588 0.38652,2.37463 0.52171,3.175 0.1352,0.80036 0.36118,2.16958 0.50219,3.04271 0.14101,0.87312 0.50674,2.99811 0.81273,4.7222 0.30599,1.72408 0.47888,3.37876 0.3842,3.67706 -0.0947,0.2983 -0.56729,0.93751 -1.05025,1.42047 -0.73182,0.73182 -3.59357,5.29505 -5.91304,9.4287 -0.30621,0.54571 -0.80662,1.43868 -1.11204,1.98438 -1.15653,2.06646 -1.61435,2.71198 -1.92338,2.71198 -0.17537,0 -1.642036,-2.35149 -3.259258,-5.22552 z"
       id="path1" /></g></svg>
