<?xml version="1.0" encoding="UTF-8" standalone="no"?>
<!-- Created with Inkscape (http://www.inkscape.org/) -->

<svg
   width="316.05615mm"
   height="316.05563mm"
   viewBox="0 0 316.05615 316.05564"
   version="1.1"
   id="svg1"
   xml:space="preserve"
   sodipodi:docname="GT-Q.svg"
   inkscape:version="1.4 (86a8ad7, 2024-10-11)"
   xmlns:inkscape="http://www.inkscape.org/namespaces/inkscape"
   xmlns:sodipodi="http://sodipodi.sourceforge.net/DTD/sodipodi-0.dtd"
   xmlns="http://www.w3.org/2000/svg"
   xmlns:svg="http://www.w3.org/2000/svg"><sodipodi:namedview
     id="namedview1"
     pagecolor="#505050"
     bordercolor="#eeeeee"
     borderopacity="1"
     inkscape:showpageshadow="0"
     inkscape:pageopacity="0"
     inkscape:pagecheckerboard="0"
     inkscape:deskcolor="#505050"
     inkscape:document-units="mm"
     inkscape:zoom="0.50898197"
     inkscape:cx="460.72359"
     inkscape:cy="603.16479"
     inkscape:window-width="1920"
     inkscape:window-height="1010"
     inkscape:window-x="4601"
     inkscape:window-y="-6"
     inkscape:window-maximized="1"
     inkscape:current-layer="layer1" /><defs
     id="defs1"><inkscape:path-effect
       effect="spiro"
       id="path-effect2"
       is_visible="true"
       lpeversion="1" /><inkscape:path-effect
       effect="spiro"
       id="path-effect2-1"
       is_visible="true"
       lpeversion="1" /><inkscape:path-effect
       effect="spiro"
       id="path-effect2-1-6"
       is_visible="true"
       lpeversion="1" /><inkscape:path-effect
       effect="spiro"
       id="path-effect2-14"
       is_visible="true"
       lpeversion="1" /></defs><g
     inkscape:label="Layer 1"
     inkscape:groupmode="layer"
     id="layer1"
     transform="translate(58.201171,18.455466)"><path
       id="path4"
       style="fill:#000000;fill-opacity:1;stroke-width:0.264999"
       d="M 99.826909,-18.455466 A 158.02786,158.02786 0 0 0 -58.201171,139.57261 158.02786,158.02786 0 0 0 99.826909,297.60018 158.02786,158.02786 0 0 0 257.85499,139.57261 158.02786,158.02786 0 0 0 99.826909,-18.455466 Z m 20.424081,51.467143 c 2.36231,0.06152 4.70869,0.791047 6.66005,2.124418 2.60182,1.777829 4.46474,4.616367 5.01934,7.718392 0.63053,3.526812 -0.39915,7.179534 -2.0867,10.339938 -1.68755,3.160403 -4.00611,5.929058 -6.1836,8.774141 -0.72806,0.951275 -1.44725,1.921968 -1.95699,3.006018 -0.50974,1.08405 -0.8023,2.29968 -0.63303,3.485575 0.15856,1.11091 0.72396,2.150025 1.53169,2.929021 0.80773,0.778996 1.84884,1.301481 2.94504,1.541508 2.19239,0.480053 4.51986,-0.168867 6.42389,-1.357024 1.90403,-1.188156 3.44061,-2.877063 4.85087,-4.622973 1.41026,-1.745911 2.72651,-3.577489 4.31447,-5.163509 4.57597,-4.570412 11.16253,-6.764603 17.62838,-6.909656 3.47591,-0.07798 6.99583,0.402603 10.21281,1.721342 3.21698,1.318739 6.12088,3.509128 8.0114,6.426998 1.30808,2.018924 2.11576,4.375267 2.21382,6.778914 0.0981,2.403648 -0.52813,4.847845 -1.85984,6.851262 -1.33171,2.003416 -3.37673,3.543369 -5.69939,4.169771 -2.32266,0.626402 -4.90448,0.308789 -6.95462,-0.949813 -0.92859,-0.570075 -1.76479,-1.351233 -2.19625,-2.351794 -0.21572,-0.500281 -0.32527,-1.049592 -0.28887,-1.593185 0.0364,-0.543592 0.22215,-1.080714 0.55294,-1.513603 0.39492,-0.516806 0.97802,-0.866165 1.5937,-1.075903 0.61568,-0.209738 1.26734,-0.289311 1.91513,-0.347782 0.64779,-0.05847 1.29981,-0.09705 1.93683,-0.22841 0.63703,-0.131359 1.26564,-0.36175 1.77612,-0.764811 0.55928,-0.441589 0.9536,-1.081096 1.1219,-1.773535 0.16829,-0.69244 0.1138,-1.433202 -0.13023,-2.102714 -0.24402,-0.669513 -0.67424,-1.266977 -1.21491,-1.731161 -0.54067,-0.464184 -1.18977,-0.796506 -1.87585,-0.989087 -1.37217,-0.385162 -2.8615,-0.206366 -4.19045,0.308508 -1.32894,0.514875 -2.51298,1.348913 -3.59513,2.276347 -4.74919,4.070201 -7.64742,9.907405 -12.11088,14.289051 -4.40034,4.319669 -10.36523,7.101312 -16.52716,7.331852 -6.16193,0.230539 -12.44715,-2.186724 -16.61191,-6.733956 -3.09651,-3.380894 -4.97415,-7.899383 -4.98884,-12.483993 -0.0147,-4.584609 1.88246,-9.181832 5.25911,-12.282971 1.28646,-1.181491 2.75917,-2.138277 4.14548,-3.200838 1.38632,-1.062561 2.7131,-2.262603 3.57343,-3.782715 0.65978,-1.165761 1.02449,-2.503255 1.00717,-3.842659 -0.0173,-1.339405 -0.42149,-2.677165 -1.18235,-3.779615 -0.76086,-1.102449 -1.88014,-1.960857 -3.15485,-2.372465 -1.27471,-0.411607 -2.69846,-0.366362 -3.92948,0.161748 -1.14431,0.490913 -2.11633,1.408742 -2.59312,2.559017 -0.23839,0.575137 -0.35285,1.202902 -0.32143,1.824694 0.0314,0.621793 0.20974,1.236995 0.52555,1.773536 0.3502,0.594954 0.86673,1.096683 1.10226,1.745629 0.18902,0.520802 0.17692,1.108579 -0.015,1.628325 -0.19191,0.519745 -0.55896,0.969568 -1.01855,1.278991 -0.45958,0.309424 -1.00819,0.479765 -1.56166,0.504879 -0.55347,0.02511 -1.11054,-0.0927 -1.6154,-0.32091 -1.00972,-0.456424 -1.78731,-1.341809 -2.25775,-2.345077 -0.47043,-1.003268 -0.6549,-2.119992 -0.69918,-3.227193 -0.12591,-3.148695 0.88587,-6.337783 2.83755,-8.811865 1.95168,-2.474083 4.83331,-4.205646 7.94112,-4.726844 0.77695,-0.130299 1.56591,-0.184321 2.35335,-0.163814 z m -42.866639,0.27957 c 0.787438,-0.02051 1.576392,0.033 2.353345,0.163297 3.107811,0.521198 5.988921,2.253278 7.940601,4.72736 1.951679,2.474083 2.963983,5.66317 2.838069,8.811865 -0.04428,1.107201 -0.228749,2.223926 -0.699182,3.227194 -0.470433,1.003267 -1.248025,1.888652 -2.257743,2.345076 -0.504859,0.228212 -1.061932,0.345508 -1.615405,0.320394 -0.553474,-0.02511 -1.102075,-0.194939 -1.561662,-0.504362 -0.459588,-0.309423 -0.826637,-0.759763 -1.018543,-1.279508 -0.191906,-0.519746 -0.204524,-1.107007 -0.0155,-1.627808 0.235532,-0.648947 0.752581,-1.151193 1.102775,-1.746147 0.315813,-0.536541 0.49413,-1.151742 0.52555,-1.773535 0.03142,-0.621793 -0.08304,-1.249041 -0.321428,-1.824178 -0.476784,-1.150274 -1.448808,-2.068103 -2.593123,-2.559017 -1.231018,-0.528109 -2.654767,-0.573355 -3.929476,-0.161747 -1.274709,0.411608 -2.393986,1.270015 -3.154846,2.372465 -0.760861,1.10245 -1.16504,2.44021 -1.182357,3.779614 -0.01732,1.339405 0.347397,2.676382 1.007174,3.842143 0.860326,1.520111 2.187112,2.720671 3.573425,3.783232 1.386313,1.06256 2.859024,2.019346 4.145483,3.200838 3.376655,3.101139 5.273279,7.698361 5.258594,12.282971 -0.01468,4.58461 -1.891809,9.102582 -4.988326,12.483476 -4.164752,4.547232 -10.44998,6.965012 -16.611906,6.734472 C 60.017941,89.658803 54.052527,86.87716 49.652194,82.55749 45.188728,78.175845 42.291012,72.338641 37.541822,68.26844 c -1.082149,-0.927435 -2.266188,-1.761473 -3.595129,-2.276347 -1.328942,-0.514874 -2.818279,-0.694188 -4.190442,-0.309025 -0.686082,0.192581 -1.335697,0.524903 -1.876372,0.989087 -0.540674,0.464184 -0.970371,1.061648 -1.214396,1.73116 -0.244025,0.669513 -0.298519,1.410792 -0.130224,2.103231 0.168294,0.69244 0.562615,1.331946 1.121895,1.773535 0.510484,0.403061 1.139097,0.632936 1.776119,0.764295 0.637022,0.131358 1.289042,0.169938 1.936833,0.22841 0.647791,0.05847 1.298931,0.13856 1.914612,0.348299 0.61568,0.209738 1.199295,0.559097 1.594217,1.075903 0.330796,0.432889 0.516531,0.969493 0.552938,1.513086 0.03641,0.543593 -0.07366,1.092904 -0.289388,1.593184 -0.431451,1.000562 -1.267136,1.78172 -2.195731,2.351795 -2.050136,1.258601 -4.631953,1.576215 -6.954615,0.949813 -2.322661,-0.626402 -4.367681,-2.166355 -5.699393,-4.169772 -1.331713,-2.003416 -1.95789,-4.447097 -1.859835,-6.850744 0.09805,-2.403648 0.905736,-4.760507 2.213818,-6.779432 1.890519,-2.91787 4.794418,-5.107742 8.011398,-6.426481 3.216979,-1.318738 6.736903,-1.799319 10.212813,-1.721342 6.465845,0.145054 13.052408,2.338728 17.628381,6.909139 1.587951,1.586021 2.904201,3.417599 4.314466,5.16351 1.410264,1.74591 2.946835,3.434817 4.850866,4.622973 1.904031,1.188157 4.231502,1.837593 6.423898,1.35754 1.096197,-0.240027 2.137309,-0.762512 2.945039,-1.541508 0.80773,-0.778996 1.373129,-1.81811 1.53169,-2.92902 0.169264,-1.185896 -0.123296,-2.402043 -0.633036,-3.486092 -0.509741,-1.08405 -1.228925,-2.054743 -1.956987,-3.006018 -2.177495,-2.845083 -4.496051,-5.613738 -6.183602,-8.774142 -1.687551,-3.160404 -2.717233,-6.812609 -2.086694,-10.33942 0.554593,-3.102026 2.417513,-5.940564 5.019332,-7.718392 1.951364,-1.333372 4.297744,-2.062897 6.660058,-2.124418 z m 79.371899,57.034761 c 0,0 39.82044,31.366332 59.73072,47.233292 1.0881,1.30191 0.81933,2.43455 -0.046,3.49229 l -58.76592,45.76259 -13.23279,-22.05447 c 0,0 6.80029,-15.25409 6.98407,-27.56783 0.18379,-12.31373 -8.63823,-26.46557 -8.63823,-26.46557 l 9.18962,-1.65364 z m -114.485518,1.383895 4.77852,18.746657 9.18962,1.65365 c 0,0 -8.82202,14.15184 -8.638232,26.46557 0.183785,12.31374 6.984069,27.56782 6.984069,27.56782 l -13.232784,22.05395 -58.765922,-45.76258 c -0.865311,-1.05774 -1.134093,-2.18986 -0.04599,-3.49177 C 2.4502832,123.07624 42.270732,91.709903 42.270732,91.709903 Z m 57.016675,3.418913 A 44.185425,44.185425 0 0 1 143.47282,139.31423 44.185425,44.185425 0 0 1 99.287407,183.49965 44.185425,44.185425 0 0 1 55.10199,139.31423 44.185425,44.185425 0 0 1 99.287407,95.128816 Z m 80.166163,18.354434 a 7.6271658,7.6271658 0 0 0 -7.62692,7.62744 7.6271658,7.6271658 0 0 0 7.62692,7.62693 7.6271658,7.6271658 0 0 0 7.62744,-7.62693 7.6271658,7.6271658 0 0 0 -7.62744,-7.62744 z m -159.88016,1.3839 a 7.6271658,7.6271658 0 0 0 -7.627442,7.62744 7.6271658,7.6271658 0 0 0 7.627442,7.62692 7.6271658,7.6271658 0 0 0 7.626924,-7.62692 7.6271658,7.6271658 0 0 0 -7.626924,-7.62744 z m 79.487654,11.57862 A 13.048886,13.048886 0 0 0 86.012248,139.49458 13.048886,13.048886 0 0 0 99.061064,152.5434 13.048886,13.048886 0 0 0 112.1104,139.49458 13.048886,13.048886 0 0 0 99.061064,126.44577 Z m 80.248846,25.12198 a 7.6271658,7.6271658 0 0 0 -7.62744,7.62692 7.6271658,7.6271658 0 0 0 7.62744,7.62744 7.6271658,7.6271658 0 0 0 7.62693,-7.62744 7.6271658,7.6271658 0 0 0 -7.62693,-7.62692 z m -159.59284,1.38389 a 7.6271658,7.6271658 0 0 0 -7.626924,7.62693 7.6271658,7.6271658 0 0 0 7.626924,7.62692 7.6271658,7.6271658 0 0 0 7.627442,-7.62692 7.6271658,7.6271658 0 0 0 -7.627442,-7.62693 z m 48.261137,36.07945 c 5.783035,0.0923 11.551449,2.48385 15.455904,6.74688 3.096517,3.38089 4.973642,7.89887 4.988326,12.48348 0.01469,4.5846 -1.881939,9.18183 -5.258594,12.28297 -1.286459,1.18149 -2.75917,2.13827 -4.145483,3.20083 -1.386313,1.06257 -2.713616,2.26312 -3.573942,3.78324 -0.659777,1.16576 -1.023974,2.50273 -1.006657,3.84214 0.01732,1.3394 0.421496,2.67716 1.182357,3.77961 0.76086,1.10245 1.87962,1.96086 3.154329,2.37247 1.27471,0.41161 2.698975,0.36636 3.929993,-0.16175 1.144315,-0.49091 2.116339,-1.40874 2.593123,-2.55902 0.238392,-0.57513 0.352847,-1.20238 0.321428,-1.82417 -0.03142,-0.6218 -0.209737,-1.237 -0.52555,-1.77354 -0.350194,-0.59495 -0.867243,-1.0972 -1.102775,-1.74615 -0.189021,-0.5208 -0.17692,-1.10806 0.01499,-1.6278 0.191906,-0.51975 0.558955,-0.97009 1.018542,-1.27951 0.459587,-0.30943 1.008705,-0.47925 1.562179,-0.50436 0.553473,-0.0251 1.110546,0.0927 1.615405,0.32091 1.009718,0.45642 1.786793,1.34181 2.257226,2.34507 0.470434,1.00327 0.654906,2.12 0.699183,3.2272 0.125914,3.14869 -0.885874,6.33778 -2.837553,8.81186 -1.951679,2.47408 -4.83279,4.20565 -7.940601,4.72684 -3.107811,0.5212 -6.412101,-0.18329 -9.01392,-1.96112 -2.601819,-1.77782 -4.464222,-4.61636 -5.018815,-7.71839 -0.630539,-3.52681 0.398626,-7.17901 2.086177,-10.33942 1.687552,-3.1604 4.006624,-5.92906 6.184119,-8.77414 0.728062,-0.95127 1.44673,-1.92197 1.95647,-3.00602 0.50974,-1.08405 0.802817,-2.30019 0.633553,-3.48609 -0.158561,-1.11091 -0.724476,-2.15002 -1.532206,-2.92902 -0.80773,-0.779 -1.848326,-1.30148 -2.944523,-1.54151 -2.192396,-0.48005 -4.519867,0.16939 -6.423898,1.35754 -1.904031,1.18816 -3.440602,2.87706 -4.850866,4.62298 -1.410265,1.74591 -2.726515,3.57748 -4.314466,5.1635 -4.575973,4.57042 -11.163053,6.76409 -17.628898,6.90914 -3.47591,0.078 -6.995317,-0.4026 -10.212296,-1.72134 -3.21698,-1.31874 -6.121395,-3.50861 -8.011914,-6.42648 -1.308083,-2.01892 -2.115764,-4.37578 -2.213819,-6.77943 -0.09805,-2.40365 0.528639,-4.84733 1.860352,-6.85075 1.331712,-2.00341 3.376732,-3.54336 5.699393,-4.16977 2.322662,-0.6264 4.904479,-0.30879 6.954615,0.94982 0.928595,0.57007 1.76428,1.35123 2.195731,2.35179 0.215726,0.50028 0.325279,1.04959 0.288872,1.59319 -0.03641,0.54359 -0.222142,1.08019 -0.552938,1.51308 -0.394923,0.51681 -0.978021,0.86617 -1.593701,1.0759 -0.615681,0.20974 -1.267338,0.28983 -1.915129,0.3483 -0.647791,0.0585 -1.299294,0.097 -1.936316,0.22841 -0.637022,0.13136 -1.265635,0.36124 -1.776119,0.7643 -0.55928,0.44159 -0.953601,1.08109 -1.121895,1.77353 -0.168295,0.69244 -0.113801,1.43372 0.130224,2.10323 0.244026,0.66952 0.673722,1.26698 1.214397,1.73116 0.540674,0.46419 1.190289,0.79651 1.876371,0.98909 1.372163,0.38516 2.8615,0.20585 4.190442,-0.30902 1.328942,-0.51488 2.512463,-1.34892 3.594612,-2.27635 4.749191,-4.0702 7.647423,-9.90741 12.110889,-14.28905 4.400333,-4.31967 10.365747,-7.10131 16.527673,-7.33185 0.385121,-0.0144 0.770466,-0.0186 1.156002,-0.0124 z m 62.963083,0.27957 c 0.38553,-0.006 0.7714,-0.002 1.15652,0.0124 6.16192,0.23054 12.12682,3.01218 16.52715,7.33185 4.46347,4.38164 7.3617,10.21885 12.11089,14.28905 1.08215,0.92743 2.26567,1.76147 3.59462,2.27635 1.32894,0.51487 2.81879,0.69367 4.19095,0.3085 0.68609,-0.19258 1.33518,-0.5249 1.87586,-0.98908 0.54067,-0.46419 0.97037,-1.06113 1.21439,-1.73065 0.24403,-0.66951 0.29904,-1.41079 0.13075,-2.10323 -0.1683,-0.69244 -0.56262,-1.33194 -1.1219,-1.77353 -0.51048,-0.40306 -1.1391,-0.63346 -1.77612,-0.76481 -0.63702,-0.13136 -1.28904,-0.16994 -1.93683,-0.22841 -0.64779,-0.0585 -1.29945,-0.13805 -1.91513,-0.34779 -0.61568,-0.20973 -1.19878,-0.55909 -1.5937,-1.0759 -0.3308,-0.43289 -0.51653,-0.97001 -0.55294,-1.5136 -0.0364,-0.54359 0.0731,-1.09291 0.28887,-1.59319 0.43145,-1.00056 1.26714,-1.78172 2.19573,-2.35179 2.05014,-1.2586 4.63247,-1.57622 6.95514,-0.94981 2.32266,0.6264 4.36716,2.16635 5.69887,4.16977 1.33172,2.00341 1.95841,4.44761 1.86035,6.85126 -0.0981,2.40365 -0.90573,4.75999 -2.21381,6.77891 -1.89052,2.91787 -4.79442,5.10826 -8.0114,6.427 -3.21698,1.31874 -6.73691,1.79932 -10.21282,1.72134 -6.46584,-0.14505 -13.0524,-2.33924 -17.62838,-6.90965 -1.58795,-1.58602 -2.90471,-3.4176 -4.31498,-5.16351 -1.41026,-1.74591 -2.94683,-3.43482 -4.85087,-4.62298 -1.90403,-1.18815 -4.23098,-1.83707 -6.42338,-1.35702 -1.09619,0.24003 -2.13731,0.76251 -2.94504,1.54151 -0.80773,0.779 -1.37312,1.81811 -1.53169,2.92902 -0.16926,1.1859 0.1233,2.40153 0.63304,3.48558 0.50974,1.08404 1.22841,2.05474 1.95647,3.00601 2.1775,2.84509 4.49657,5.61374 6.18412,8.77414 1.68755,3.16041 2.71723,6.81313 2.08669,10.33994 -0.55459,3.10203 -2.41751,5.94057 -5.01933,7.71839 -2.60182,1.77783 -5.90611,2.48181 -9.01392,1.96061 -3.10781,-0.5212 -5.98892,-2.25276 -7.9406,-4.72685 -1.95168,-2.47408 -2.96347,-5.66317 -2.83755,-8.81186 0.0443,-1.1072 0.22875,-2.22393 0.69918,-3.22719 0.47043,-1.00327 1.24751,-1.88866 2.25723,-2.34508 0.50486,-0.22821 1.06193,-0.34603 1.6154,-0.32091 0.55348,0.0251 1.10259,0.19545 1.56218,0.50488 0.45959,0.30942 0.82664,0.75924 1.01854,1.27899 0.19191,0.51974 0.20401,1.10752 0.015,1.62832 -0.23553,0.64895 -0.75258,1.15068 -1.10278,1.74563 -0.31581,0.53654 -0.49413,1.15175 -0.52554,1.77354 -0.0314,0.62179 0.0836,1.24956 0.32194,1.82469 0.47678,1.15028 1.44881,2.06811 2.59312,2.55902 1.23102,0.52811 2.65477,0.57336 3.92948,0.16175 1.27471,-0.41161 2.39398,-1.27002 3.15484,-2.37247 0.76087,-1.10245 1.16504,-2.44021 1.18236,-3.77961 0.0173,-1.33941 -0.3474,-2.6769 -1.00717,-3.84266 -0.86033,-1.52011 -2.18711,-2.72016 -3.57343,-3.78272 -1.38631,-1.06256 -2.85902,-2.01934 -4.14548,-3.20083 -3.37666,-3.10114 -5.2738,-7.69837 -5.25911,-12.28298 0.0147,-4.5846 1.89232,-9.10309 4.98884,-12.48399 3.90446,-4.26303 9.67235,-6.65406 15.45539,-6.74636 z" /></g></svg>
