<?xml version="1.0" encoding="UTF-8" standalone="no"?>
<!-- Created with Inkscape (http://www.inkscape.org/) -->

<svg
   width="85.084831mm"
   height="85.994446mm"
   viewBox="0 0 85.08483 85.994445"
   version="1.1"
   id="svg1"
   xml:space="preserve"
   inkscape:version="1.4 (86a8ad7, 2024-10-11)"
   sodipodi:docname="Hope.svg"
   xmlns:inkscape="http://www.inkscape.org/namespaces/inkscape"
   xmlns:sodipodi="http://sodipodi.sourceforge.net/DTD/sodipodi-0.dtd"
   xmlns="http://www.w3.org/2000/svg"
   xmlns:svg="http://www.w3.org/2000/svg"><sodipodi:namedview
     id="namedview1"
     pagecolor="#505050"
     bordercolor="#eeeeee"
     borderopacity="1"
     inkscape:showpageshadow="0"
     inkscape:pageopacity="0"
     inkscape:pagecheckerboard="0"
     inkscape:deskcolor="#505050"
     inkscape:document-units="mm"
     inkscape:zoom="0.7198092"
     inkscape:cx="80.576908"
     inkscape:cy="102.80502"
     inkscape:window-width="1147"
     inkscape:window-height="1002"
     inkscape:window-x="4602"
     inkscape:window-y="0"
     inkscape:window-maximized="0"
     inkscape:current-layer="layer2" /><defs
     id="defs1" /><g
     inkscape:groupmode="layer"
     id="layer2"
     inkscape:label="Black"
     transform="translate(-17.719506,-62.43558)"
     style="display:inline"><path
       style="fill:#000000;fill-opacity:1"
       d="m 59.560742,148.13471 c -0.507053,-0.28269 -1.131122,-0.51398 -1.386821,-0.51398 -0.255698,0 -0.613618,-0.23812 -0.795376,-0.52916 -0.181759,-0.29105 -0.476235,-0.52917 -0.654392,-0.52917 -0.178156,0 -0.463655,-0.26789 -0.634442,-0.59531 -0.170787,-0.32742 -0.476084,-0.77391 -0.678438,-0.99219 -0.661952,-0.71405 -1.930336,-2.76994 -1.935261,-3.13681 -0.0026,-0.19727 -0.302471,-0.71242 -0.666273,-1.14478 -0.363802,-0.43235 -0.661458,-0.94642 -0.661458,-1.14237 0,-0.19595 -0.289925,-0.70083 -0.644278,-1.12195 -0.354352,-0.42113 -0.730784,-1.11487 -0.836515,-1.54166 -0.105731,-0.42678 -0.397514,-0.92202 -0.648407,-1.10053 -0.250893,-0.1785 -0.538745,-0.65356 -0.63967,-1.05568 -0.100926,-0.40212 -0.295299,-0.80022 -0.431942,-0.88467 -0.136642,-0.0845 -0.355236,-0.52592 -0.485766,-0.98105 -0.616462,-2.14948 5.880482,-2.27342 6.77056,-0.12916 0.226904,0.54663 0.569402,1.08408 0.761107,1.19435 0.191704,0.11026 0.492353,0.64604 0.668108,1.19062 0.175756,0.54458 0.541873,1.20315 0.813596,1.46348 0.271722,0.26033 0.49404,0.63814 0.49404,0.83959 0,0.20145 0.297656,0.72001 0.661458,1.15237 0.363802,0.43235 0.661458,0.97024 0.661458,1.19531 0,0.67631 0.477453,0.75621 0.678613,0.11355 0.10315,-0.32953 0.468909,-0.93571 0.812799,-1.34706 0.34389,-0.41134 0.625255,-0.91061 0.625255,-1.10947 0,-0.19887 0.234064,-0.52552 0.520142,-0.7259 0.475592,-0.33311 1.331941,-2.84371 1.331941,-3.90491 0,-0.75809 1.047719,-2.61577 1.655909,-2.93603 0.326177,-0.17176 0.677586,-0.4433 0.780909,-0.60341 0.103322,-0.16012 1.353478,-0.42484 2.778125,-0.58827 1.424646,-0.16344 2.760268,-0.34203 2.968049,-0.39688 0.733094,-0.19351 0.993333,1.28029 0.334458,1.89413 -0.318973,0.29717 -0.584789,0.74403 -0.590703,0.99302 -0.0059,0.24899 -0.363101,0.86493 -0.79375,1.36876 -0.430648,0.50382 -0.782997,1.03023 -0.782997,1.16979 0,0.13956 -0.183075,0.45604 -0.406834,0.70329 -0.338003,0.37349 -0.351739,0.57047 -0.08119,1.16426 0.236774,0.51966 0.245217,0.76442 0.03094,0.89686 -0.162089,0.10017 -0.377284,0.51114 -0.478209,0.91326 -0.100926,0.40212 -0.384245,0.87718 -0.629598,1.05568 -0.245354,0.17851 -0.599816,0.70291 -0.787695,1.16533 -0.187878,0.46242 -0.568842,1.04642 -0.846587,1.29778 -0.277745,0.25135 -0.50499,0.65823 -0.50499,0.90416 0,0.24593 -0.227417,0.65296 -0.505371,0.90451 -0.277954,0.25154 -0.583836,0.76998 -0.679738,1.15208 -0.0959,0.38211 -0.463797,0.96297 -0.817546,1.29081 -0.353748,0.32785 -0.643179,0.88942 -0.643179,1.24794 0,1.53442 -2.20689,2.57193 -3.700038,1.73947 z M 25.616627,134.37122 c -0.696834,-0.57439 -1.074739,-1.16 -1.283451,-1.98887 -0.162697,-0.64613 -0.400231,-1.23931 -0.527853,-1.31819 -0.684289,-0.42291 -2.446128,-9.60887 -1.686653,-10.0176 2.390489,-1.28651 2.938725,0.0997 4.11806,0.50741 0.722903,0.24993 1.053099,0.69208 2.809106,0.3708 0.267198,-0.0489 2.638573,-0.39152 3.373875,-0.93799 2.078187,-1.5445 1.36782,-0.96684 4.199386,-3.10303 2.005278,-1.51282 3.272001,-2.55931 3.631237,-2.6687 0.359235,-0.10939 0.89128,-0.41368 1.182322,-0.67622 0.291042,-0.26253 0.975651,-0.55975 1.521354,-0.66049 0.545703,-0.10074 0.992188,-0.2909 0.992188,-0.42258 0,-0.13168 0.410653,-0.43525 0.912564,-0.67459 1.010689,-0.48197 0.947385,-1.06502 -0.215927,-1.98877 -0.541294,-0.42983 -0.560703,-0.62185 -0.475174,-4.70099 0.08917,-4.25285 0.08917,-4.25285 -0.727604,-5.01583 -0.449227,-0.41964 -0.816776,-0.97373 -0.816776,-1.231311 0,-0.25758 -0.189335,-0.677539 -0.420745,-0.933244 -0.231409,-0.255704 -0.528186,-0.943106 -0.659504,-1.527558 -0.131318,-0.584452 -0.537295,-1.502557 -0.902172,-2.040233 -0.364877,-0.537676 -0.663412,-1.110932 -0.663412,-1.273902 0,-0.162969 -0.238125,-0.44502 -0.529167,-0.626778 -0.291042,-0.181759 -0.529167,-0.464636 -0.529167,-0.628617 0,-0.163981 -0.278273,-0.556043 -0.618385,-0.871248 -0.523566,-0.485225 -0.646043,-0.932911 -0.798758,-2.919681 -0.0992,-1.290619 -0.326947,-2.523013 -0.506094,-2.738653 -0.384924,-0.463337 -0.746182,-14.704665 -0.392144,-15.458932 0.437421,-0.931912 2.034513,-0.314718 2.753499,1.064086 0.268358,0.514633 0.726049,1.203667 1.017091,1.531188 1.463495,1.646932 3.003504,3.728231 3.058219,4.133142 0.08734,0.646335 -0.01342,0.970759 -0.431285,1.388622 -0.311721,0.311721 -0.328275,0.416417 -0.06615,0.418342 0.192296,0.0014 0.88541,0.419822 1.540253,0.9298 0.654844,0.509978 1.42875,1.11226 1.719792,1.338406 0.291042,0.226146 1.124479,0.851284 1.852083,1.389196 1.72877,1.278067 2.311267,1.773822 3.860179,3.285342 0.708323,0.691224 1.402721,1.256771 1.543108,1.256771 0.140387,0 0.410828,0.208359 0.600981,0.463021 0.190153,0.254661 0.792216,0.669454 1.337919,0.921761 0.545704,0.252307 0.992188,0.565284 0.992188,0.695505 0,0.13022 0.357187,0.384716 0.79375,0.565546 0.436562,0.18083 0.79375,0.427829 0.79375,0.548885 0,0.121057 0.520416,0.450308 1.15648,0.73167 0.636065,0.281361 1.236404,0.640885 1.334088,0.798941 0.09768,0.158056 0.643472,0.412819 1.212863,0.566139 0.56939,0.153321 1.202097,0.445608 1.406016,0.649527 0.203919,0.203919 0.834355,0.450026 1.40097,0.546905 0.566614,0.09688 1.383724,0.425998 1.8158,0.731374 0.914364,0.646241 2.35808,0.692168 3.004336,0.09557 1.663289,-1.535475 2.29287,-2.028386 2.789329,-2.183822 0.310471,-0.0972 0.844461,-0.395353 1.186646,-0.662552 0.342185,-0.267199 1.022552,-0.560932 1.511927,-0.652739 0.489376,-0.09181 1.026948,-0.332207 1.194605,-0.534222 0.167657,-0.202014 0.79373,-0.498945 1.391273,-0.659847 0.597543,-0.160902 1.426246,-0.578475 1.841563,-0.927941 0.415316,-0.349465 0.871687,-0.635392 1.014157,-0.635392 0.142471,0 -0.0652,-0.278894 -0.461482,-0.619764 -0.836448,-0.719483 -0.745063,-1.211088 0.328242,-1.765775 0.417804,-0.215922 0.915224,-0.600945 1.105376,-0.855606 0.190153,-0.254662 0.496104,-0.463021 0.679891,-0.463021 0.183787,0 0.582614,-0.285749 0.886282,-0.634999 0.303668,-0.349249 0.932575,-0.718559 1.39757,-0.820689 0.464995,-0.10213 1.053334,-0.39358 1.30742,-0.647666 0.254086,-0.254086 0.982994,-0.545289 1.619795,-0.647117 0.6368,-0.101829 1.382011,-0.387833 1.656023,-0.635565 0.752683,-0.680496 3.939302,-0.57734 5.332535,0.172623 0.579929,0.312169 1.257787,0.56758 1.506352,0.56758 0.248564,0 0.607515,0.221044 0.797668,0.491209 0.190152,0.270166 0.610396,0.574821 0.933874,0.677012 0.959267,0.303047 3.030791,2.93389 3.248781,4.12596 0.22992,1.257352 0.0496,1.45293 -1.701063,1.845267 -0.705146,0.158026 -1.562444,0.507853 -1.905107,0.777392 -0.342664,0.269539 -1.021737,0.56487 -1.509053,0.656291 -0.487315,0.09142 -1.163949,0.462053 -1.503631,0.823627 -0.339681,0.361574 -0.767418,0.657408 -0.950527,0.657408 -0.183108,0 -0.408502,0.238125 -0.500875,0.529167 -0.09237,0.291041 -0.270142,0.529166 -0.395042,0.529166 -0.124899,0 -0.8287,0.595313 -1.564002,1.322917 -0.735301,0.727604 -1.398993,1.322916 -1.474871,1.322916 -0.85893,0 -3.211644,3.180526 -2.633118,3.559591 0.827942,0.542489 0.887889,2.143239 0.116966,3.123309 -0.323074,0.41072 -0.632168,1.41666 -0.800936,2.60663 -0.151156,1.06579 -0.445432,2.19817 -0.653946,2.5164 -0.208514,0.31823 -0.4925,1.49188 -0.63108,2.60811 -0.13858,1.11623 -0.43092,2.229 -0.649643,2.47284 -0.218723,0.24383 -0.483594,0.90613 -0.588603,1.47177 -0.105008,0.56563 -0.412739,1.25024 -0.683845,1.52135 -0.271107,0.27111 -0.492922,0.60072 -0.492922,0.73247 0,0.22459 -0.737244,1.18091 -2.721915,3.53076 -0.460898,0.54571 -0.944033,0.99219 -1.073632,0.99219 -0.1296,0 -0.64245,0.35719 -1.139668,0.79375 -0.497217,0.43656 -1.049842,0.79375 -1.228055,0.79375 -0.178213,0 -0.472735,0.23813 -0.654493,0.52917 -0.181759,0.29104 -0.470616,0.52916 -0.641905,0.52916 -0.171289,0 -0.557233,0.22214 -0.857654,0.49364 -1.283938,1.16035 -2.711397,0.83948 -3.186249,-0.71621 -0.189078,-0.61946 -0.189078,-0.61946 -0.536387,0.05 -0.666476,1.28463 -3.630376,4.14134 -4.296737,4.14134 -0.346173,0 -1.247111,0.28426 -2.002084,0.63168 -0.971149,0.44691 -2.069231,0.67909 -3.753928,0.79376 -1.309688,0.0891 -2.8575,0.33543 -3.439583,0.54733 -1.492492,0.5433 -6.427875,0.54945 -7.199524,0.009 -1.441358,-1.00957 -2.54952,-0.3137 -4.264718,0.48735 -1.077874,0.5034 -2.605743,1.78124 -3.398983,2.55035 -2.035902,1.97395 -2.160287,2.38084 -3.941022,3.75412 -1.098454,0.73456 -2.027784,1.5059 -2.999192,2.38236 -0.45593,0.39177 -1.194313,2.43552 -2.236975,2.5288 -1.763673,0.15058 -2.094613,-0.7786 -3.70886,-2.6924 -0.917759,-1.08807 -1.707733,-1.9728 -2.758134,-3.42344 z m 39.00599,-14.21021 c 0.415156,-0.47801 0.75483,-1.02898 0.75483,-1.22438 0,-0.1954 0.17998,-0.50464 0.399955,-0.6872 0.219976,-0.18257 0.641514,-0.82222 0.936752,-1.42146 0.295238,-0.59924 0.882316,-1.68484 1.304617,-2.41244 0.422302,-0.72761 0.916755,-1.62058 1.098784,-1.98438 0.182029,-0.3638 0.491768,-0.85521 0.688309,-1.09202 0.392121,-0.47246 1.331398,-2.15065 2.130491,-3.80652 0.281898,-0.58414 0.707403,-1.2238 0.945567,-1.42146 0.238164,-0.19766 0.43317,-0.55316 0.433348,-0.79 1.78e-4,-0.23684 0.300535,-0.77971 0.667461,-1.20637 1.154441,-1.34237 1.200167,-1.33569 -9.685603,-1.41458 -11.986168,-0.0868 -11.5689,-0.1326 -10.683903,1.17151 0.358447,0.5282 0.651722,1.10777 0.651722,1.28792 0,0.18016 0.185473,0.48149 0.412162,0.66962 0.226688,0.18814 0.589166,0.70873 0.805506,1.15688 0.216339,0.44815 0.740422,1.41012 1.164628,2.13773 0.424207,0.7276 1.0198,1.82893 1.323542,2.44739 0.303742,0.61847 0.647688,1.12448 0.764325,1.12448 0.116637,0 0.415238,0.44649 0.663556,0.99219 0.782343,1.71927 1.596679,3.16992 2.076177,3.69847 0.254661,0.28071 0.463021,0.69198 0.463021,0.91394 0,0.22195 0.287023,0.71325 0.63783,1.09178 0.350806,0.37853 0.725859,1.08052 0.833449,1.55999 0.116905,0.52097 0.248538,0.71206 0.327132,0.47488 0.07233,-0.21828 0.471185,-0.78797 0.886342,-1.26597 z M 66.43578,91.87053 c -0.218281,-0.08026 -0.575469,-0.296602 -0.79375,-0.480758 -0.218281,-0.184156 -1.072335,-0.472818 -1.897897,-0.641471 -0.825562,-0.168653 -1.644697,-0.479759 -1.8203,-0.691347 -0.175602,-0.211588 -0.798178,-0.461285 -1.383501,-0.554882 -0.585323,-0.0936 -1.256102,-0.360422 -1.49062,-0.592944 -0.234518,-0.232523 -0.752186,-0.569044 -1.150373,-0.747825 -0.398186,-0.178781 -0.723975,-0.506203 -0.723975,-0.727604 0,-0.221401 -0.104618,-0.402548 -0.232484,-0.402548 -0.306951,0 -0.752506,-1.185704 -0.961899,-2.559792 -0.168324,-1.104584 -0.168324,-1.104584 -0.70239,-0.570518 -1.838326,1.838326 -4.245245,-1.52138 -2.484094,-3.467431 0.244318,-0.269968 0.556142,-1.281199 0.692942,-2.24718 0.136799,-0.965981 0.441322,-2.198782 0.676717,-2.739558 0.326159,-0.749289 0.46888,-2.295961 0.599845,-6.500535 0.167211,-5.368223 0.188605,-5.530871 0.791754,-6.019271 0.82269,-0.666174 2.050166,-0.652682 2.474761,0.0272 0.181759,0.291041 0.43867,0.529166 0.570914,0.529166 0.257379,0 3.084837,2.921297 4.052282,4.18677 0.504213,0.65954 0.610996,1.245217 0.78537,4.307549 0.110997,1.949322 0.242001,3.288766 0.29112,2.976541 0.309325,-1.966223 3.459812,-1.927927 3.490914,0.04243 0.0046,0.293197 0.263591,1.007572 0.575473,1.5875 0.627569,1.166931 0.989794,4.902797 1.056957,10.901105 0.04653,4.155699 -0.474118,5.100064 -2.417766,4.385397 z m -26.208882,19.73203 c -0.07395,-0.0739 -0.484473,1.1697 -1.70645,1.01648 -2.520834,-0.31609 -4.080777,-1.29843 -3.936215,-3.53016 0.04518,-0.69752 -4.570209,-7.90338 -5.357278,-8.73662 C 28.590398,99.678367 19.019811,81.450867 18.918702,81.1308 c -0.101109,-0.320067 -0.404878,-0.73752 -0.675044,-0.927672 -1.320606,-0.929493 0.07638,-4.813643 1.73129,-4.813643 0.232834,0 0.423334,-0.104618 0.423334,-0.232484 0,-0.564082 1.842865,-0.79363 7.326183,-0.912552 7.157118,-0.155224 6.78959,-0.309931 6.659725,2.80333 -0.1255,3.008624 -0.03468,2.944652 -4.407289,3.104206 -3.625494,0.132292 -3.625494,0.132292 -3.551315,0.926042 0.07996,0.855576 14.238989,27.629033 14.770615,28.277733 0.997142,1.21673 0.09402,3.31012 -0.969303,2.2468 z M 98.847237,83.303668 c -0.943893,-0.932684 -2.131049,-1.828766 -2.422804,-1.828766 -0.188717,0 -0.531189,-0.287028 -0.761049,-0.637839 -0.331733,-0.506287 -0.728615,-0.67197 -1.924329,-0.80333 -2.814645,-0.309214 -11.289384,-0.445817 -12.798334,-0.206293 -2.071372,0.328799 -2.891216,0.153166 -3.943357,-0.844777 -2.342293,-2.221636 -3.035915,-3.559257 -2.252149,-4.343175 0.518051,-0.518152 23.901741,-0.787676 25.424935,-0.293052 1.97751,0.642151 3.37146,4.071222 2.21335,5.444755 -0.1987,0.23565 -0.53986,0.970588 -0.75814,1.633195 -0.50605,1.536163 -2.060923,2.587966 -2.778123,1.879282 z"
       id="path55"
       sodipodi:nodetypes="sssssscsssssscssssssssssssssssssssssssssssssssssscsssssssssssssssssssssssssssssssssssssssssssssssssssssssssssssssssssssssssssssssssssssssssssssssssscscsssscsccssssssssssscssssssssssssssssssssssssssssssssssscsssssssssssssssssssssssssssss" /></g><g
     inkscape:label="Red"
     inkscape:groupmode="layer"
     id="layer1"
     transform="translate(-59.526991,-117.41564)"
     style="display:inline" /></svg>
