<?xml version="1.0" encoding="UTF-8" standalone="no"?>
<!-- Created with Inkscape (http://www.inkscape.org/) -->

<svg
   width="65.082047mm"
   height="94.684669mm"
   viewBox="0 0 65.082046 94.684669"
   version="1.1"
   id="svg1"
   xml:space="preserve"
   inkscape:version="1.4 (86a8ad7, 2024-10-11)"
   sodipodi:docname="Inspire.svg"
   xmlns:inkscape="http://www.inkscape.org/namespaces/inkscape"
   xmlns:sodipodi="http://sodipodi.sourceforge.net/DTD/sodipodi-0.dtd"
   xmlns="http://www.w3.org/2000/svg"
   xmlns:svg="http://www.w3.org/2000/svg"><sodipodi:namedview
     id="namedview1"
     pagecolor="#505050"
     bordercolor="#eeeeee"
     borderopacity="1"
     inkscape:showpageshadow="0"
     inkscape:pageopacity="0"
     inkscape:pagecheckerboard="0"
     inkscape:deskcolor="#505050"
     inkscape:document-units="mm"
     inkscape:zoom="1.4396184"
     inkscape:cx="106.27816"
     inkscape:cy="157.68067"
     inkscape:window-width="1147"
     inkscape:window-height="1002"
     inkscape:window-x="4602"
     inkscape:window-y="0"
     inkscape:window-maximized="0"
     inkscape:current-layer="layer2" /><defs
     id="defs1"><inkscape:path-effect
       effect="fillet_chamfer"
       id="path-effect55"
       is_visible="true"
       lpeversion="1"
       nodesatellites_param="F,0,0,1,0,0,0,1 @ F,0,0,1,0,0,0,1 @ F,0,0,1,0,0,0,1 @ F,0,0,1,0,0,0,1 @ F,0,0,1,0,0,0,1 @ F,0,0,1,0,0,0,1 @ F,0,0,1,0,0,0,1 @ F,0,0,1,0,0,0,1 @ F,0,0,1,0,0,0,1 @ F,0,0,1,0,0,0,1 @ F,0,0,1,0,0,0,1 @ F,0,0,1,0,0,0,1 @ F,0,0,1,0,0,0,1 @ F,0,0,1,0,0,0,1 @ F,0,0,1,0,0,0,1 @ F,0,0,1,0,0,0,1 @ F,0,0,1,0,0,0,1 @ F,0,0,1,0,0,0,1 @ F,0,0,1,0,0,0,1 @ F,0,0,1,0,0,0,1 @ F,0,0,1,0,0,0,1 @ F,0,0,1,0,0,0,1 @ F,0,0,1,0,0,0,1 @ F,0,0,1,0,0,0,1 @ F,0,0,1,0,0,0,1 @ F,0,0,1,0,0,0,1 @ F,0,0,1,0,0,0,1 @ F,0,0,1,0,0,0,1 @ F,0,0,1,0,0,0,1 @ F,0,0,1,0,0,0,1 @ F,0,0,1,0,0,0,1 @ F,0,0,1,0,0,0,1 @ F,0,0,1,0,0,0,1 @ F,0,0,1,0,0,0,1 @ F,0,0,1,0,0,0,1 @ F,0,0,1,0,0,0,1 @ F,0,0,1,0,0,0,1 @ F,0,0,1,0,0,0,1 @ F,0,0,1,0,0,0,1 @ F,0,0,1,0,0,0,1 @ F,0,0,1,0,0,0,1 @ F,0,0,1,0,0,0,1 @ F,0,0,1,0,0,0,1 @ F,0,0,1,0,0,0,1 @ F,0,0,1,0,0,0,1 @ F,0,0,1,0,0,0,1 @ F,0,0,1,0,0,0,1 @ F,0,0,1,0,0,0,1 @ F,0,0,1,0,0,0,1 @ F,0,0,1,0,0,0,1 @ F,0,0,1,0,0,0,1 @ F,0,0,1,0,0,0,1 @ F,0,0,1,0,0,0,1 @ F,0,0,1,0,0,0,1 @ F,0,0,1,0,0,0,1 @ F,0,0,1,0,0,0,1 @ F,0,0,1,0,0,0,1 | F,0,0,1,0,0,0,1 @ F,0,0,1,0,0,0,1 @ F,0,0,1,0,0,0,1 @ F,0,0,1,0,0,0,1 @ F,0,0,1,0,0,0,1 @ F,0,0,1,0,0,0,1 @ F,0,0,1,0,0,0,1 @ F,0,0,1,0,0,0,1 @ F,0,0,1,0,0,0,1 @ F,0,0,1,0,0,0,1 @ F,0,0,1,0,0,0,1 @ F,0,0,1,0,0,0,1 @ F,0,0,1,0,0,0,1 @ F,0,0,1,0,0,0,1 @ F,0,0,1,0,0,0,1 @ F,0,0,1,0,0,0,1 @ F,0,0,1,0,0,0,1 @ F,0,0,1,0,0,0,1 @ F,0,0,1,0,0,0,1 @ F,0,0,1,0,0,0,1 | F,0,0,1,0,0,0,1 @ F,0,0,1,0,0,0,1 @ F,0,0,1,0,0,0,1 @ F,0,0,1,0,0,0,1 @ F,0,0,1,0,0,0,1 @ F,0,0,1,0,0,0,1 @ F,0,0,1,0,0,0,1 @ F,0,0,1,0,0,0,1 @ F,0,0,1,0,0,0,1 @ F,0,0,1,0,0,0,1 @ F,0,0,1,0,0,0,1 @ F,0,0,1,0,0,0,1 @ F,0,0,1,0,0,0,1 @ F,0,0,1,0,0,0,1 @ F,0,0,1,0,0,0,1 @ F,0,0,1,0,0,0,1 @ F,0,0,1,0,0,0,1 @ F,0,0,1,0,0,0,1 @ F,0,0,1,0,0,0,1 @ F,0,0,1,0,0,0,1 @ F,0,0,1,0,0,0,1 @ F,0,0,1,0,0,0,1 @ F,0,0,1,0,0,0,1 @ F,0,0,1,0,0,0,1 @ F,0,0,1,0,0,0,1 @ F,0,0,1,0,0,0,1 @ F,0,0,1,0,0,0,1 @ F,0,0,1,0,0,0,1 @ F,0,0,1,0,0,0,1 @ F,0,0,1,0,0,0,1 @ F,0,0,1,0,0,0,1 @ F,0,0,1,0,0,0,1 @ F,0,0,1,0,0,0,1 @ F,0,0,1,0,0,0,1 @ F,0,0,1,0,0,0,1 @ F,0,0,1,0,0,0,1 @ F,0,0,1,0,0,0,1 @ F,0,0,1,0,0,0,1 @ F,0,0,1,0,0,0,1 @ F,0,0,1,0,0,0,1 @ F,0,0,1,0,0,0,1 @ F,0,0,1,0,0,0,1 @ F,0,0,1,0,0,0,1 @ F,0,0,1,0,0,0,1 @ F,0,0,1,0,0,0,1 @ F,0,0,1,0,0,0,1 @ F,0,0,1,0,0,0,1 | F,0,0,1,0,0,0,1 @ F,0,0,1,0,0,0,1 @ F,0,0,1,0,0,0,1 @ F,0,0,1,0,0,0,1 @ F,0,0,1,0,0,0,1"
       radius="0"
       unit="px"
       method="auto"
       mode="F"
       chamfer_steps="1"
       flexible="false"
       use_knot_distance="true"
       apply_no_radius="true"
       apply_with_radius="true"
       only_selected="false"
       hide_knots="false" /></defs><g
     inkscape:groupmode="layer"
     id="layer2"
     inkscape:label="Black"
     transform="translate(-25.108788,-55.398287)"
     style="display:inline"><path
       id="path55"
       style="fill:#000000"
       d="m 57.861761,55.405003 c -0.667063,-0.02442 -1.375346,0.01756 -2.119768,0.129191 -3.007771,0.451043 -6.03222,4.277493 -5.285465,8.770524 l 1.398364,8.414473 c 0.108261,0.651378 4.83196,4.797198 5.600692,4.837948 0.618934,0.03281 5.580841,-4.930572 5.632731,-5.258077 l 1.211812,-7.648112 c 0.894435,-5.645446 -1.768925,-9.075016 -6.438366,-9.245947 z M 52.018779,75.05738 c -0.312072,-0.02372 -0.652243,0.140603 -1.07797,0.415478 -0.197257,0.161907 -4.236821,2.533689 -4.326424,2.566939 -0.394213,0.09783 -0.954877,0.39051 -1.245919,0.650606 -0.08954,0.08002 -0.212945,0.142038 -0.318326,0.213941 -0.813465,0.349275 -1.406434,0.431136 -2.5554,0.516764 -1.502401,0.111967 -2.672482,0.453493 -3.576009,1.044381 -0.769172,0.39368 -1.413035,0.918084 -1.748214,1.494482 -0.271345,0.466625 -0.576104,0.908059 -0.676961,0.980819 -0.898174,0.647957 -1.562014,2.436988 -1.701188,3.884 -0.273791,0.808728 -0.448062,1.604454 -0.538985,2.454114 -0.101218,0.945886 -0.409616,2.553229 -0.68523,3.571875 -0.275612,1.018646 -0.580528,2.404652 -0.677478,3.079915 -0.151504,1.055209 -0.445847,1.509828 -2.096513,3.237529 -2.227536,2.331477 -3.22223,3.497997 -3.364652,3.946527 -0.05571,0.17547 -0.316906,0.55749 -0.580327,0.84853 -0.425655,0.47029 -0.669759,1.38178 -1.595768,5.95312 -0.526389,2.59858 0.553455,4.75012 0.553455,5.71128 0,0.1049 1.300969,-0.31058 2.71818,-0.52038 1.417212,-0.20979 2.800412,-0.49756 3.073714,-0.63975 0.273301,-0.14219 1.18224,-0.3976 2.020032,-0.56741 2.018109,-0.40905 2.124455,-0.63221 3.161564,-6.62957 0.311673,-1.80233 0.405585,-1.93691 3.564124,-5.1108 1.468138,-1.47527 2.351181,-2.274242 2.89543,-2.514057 0.293315,0.279642 0.395967,1.187057 0.506946,2.784847 0.07727,1.11253 0.344007,2.31403 0.645955,2.91041 0.282833,0.55863 0.601234,1.43216 0.707451,1.94149 0.19212,0.92123 0.941198,2.37703 1.656746,3.21995 0.81824,0.64233 7.826436,-4.54398 8.710579,-5.22242 1.915895,-1.17652 2.721645,-0.76875 5.114417,0.82114 l 3.96875,2.63705 c 2.895893,1.92419 3.85383,2.24904 4.446757,0.52865 0.200613,-0.58208 0.581172,-1.59411 0.845426,-2.24896 0.835986,-2.07164 1.586984,-4.74238 1.586984,-5.64358 0,-2.289272 0.502571,-2.142785 3.645255,1.06195 3.112431,3.17389 3.204809,3.30847 3.511931,5.1108 1.021969,5.99736 1.126924,6.22052 3.115572,6.62957 0.825562,0.16981 1.721781,0.42522 1.991093,0.56741 0.269311,0.14219 1.632232,0.42996 3.028755,0.63975 1.396523,0.2098 2.601453,0.44398 2.677873,0.52038 0.700101,0.7001 1.064408,-3.1127 0.545703,-5.71128 -0.912491,-4.57134 -1.153073,-5.48283 -1.572514,-5.95312 -0.259575,-0.29104 -0.517158,-0.67254 -0.572058,-0.84801 -0.140343,-0.44853 -1.120025,-1.61504 -3.315043,-3.946531 -1.626571,-1.727701 -1.917249,-2.182837 -2.06654,-3.238046 -0.09553,-0.675263 -0.395553,-2.061269 -0.667143,-3.079915 -0.27159,-1.018646 -0.575671,-2.625989 -0.675411,-3.571875 -0.257829,-2.445045 -1.13675,-4.437342 -3.356384,-7.607804 -0.952105,-1.35996 -2.469584,-2.076423 -4.764568,-2.249992 -1.962238,-0.148404 -2.258234,-0.258103 -4.94285,-1.835547 -0.667748,-0.39236 -1.571067,-0.903925 -2.00763,-1.136365 -0.436562,-0.232441 -1.198457,-0.714821 -1.69292,-1.072286 -1.30975,-0.946865 -1.766643,-1.269892 -2.639632,-0.395841 -0.377499,0.377958 -1.466981,1.585553 -2.369364,2.427242 -1.276002,1.190178 -2.046668,1.2213 -2.703693,0.818889 L 52.90503,75.565876 C 52.539714,75.275449 52.300135,75.078763 52.018779,75.05738 Z m 5.21563,35.73081 c -0.82795,0.0653 -1.673069,0.50231 -2.812232,1.26917 l -26.891382,18.03352 c -1.838764,1.21544 -1.610754,0.30318 -1.610754,10.13013 0,10.06759 0.01947,10.16339 1.871204,9.19376 l 28.486116,-17.76222 c 0.01965,-0.0123 0.03818,-0.0424 0.05736,-0.0625 1.050159,-0.44431 1.947841,-0.35216 3.040125,0.33899 l 28.070638,17.76223 c 1.824702,0.96963 1.843815,0.87434 1.843815,-9.19324 0,-9.82695 0.224423,-8.91521 -1.5875,-10.13065 L 59.945354,111.74833 c -1.072059,-0.71913 -1.882995,-1.02542 -2.710945,-0.96014 z"
       sodipodi:nodetypes="ssccsccsscsscscsscssscssssssssscsssscsssssssssscsssssssssssssscsssccscccccsccs" /></g><g
     inkscape:label="Red"
     inkscape:groupmode="layer"
     id="layer1"
     transform="translate(-66.916273,-110.37834)"
     style="display:inline" /></svg>
