<?xml version="1.0" encoding="UTF-8" standalone="no"?>
<!-- Created with Inkscape (http://www.inkscape.org/) -->

<svg
   width="63.648998mm"
   height="70.90892mm"
   viewBox="0 0 63.648996 70.908921"
   version="1.1"
   id="svg1"
   xml:space="preserve"
   inkscape:version="1.4 (86a8ad7, 2024-10-11)"
   sodipodi:docname="InvertedProgress.svg"
   xmlns:inkscape="http://www.inkscape.org/namespaces/inkscape"
   xmlns:sodipodi="http://sodipodi.sourceforge.net/DTD/sodipodi-0.dtd"
   xmlns="http://www.w3.org/2000/svg"
   xmlns:svg="http://www.w3.org/2000/svg"><sodipodi:namedview
     id="namedview1"
     pagecolor="#505050"
     bordercolor="#eeeeee"
     borderopacity="1"
     inkscape:showpageshadow="0"
     inkscape:pageopacity="0"
     inkscape:pagecheckerboard="0"
     inkscape:deskcolor="#505050"
     inkscape:document-units="mm"
     inkscape:zoom="1.0179639"
     inkscape:cx="-97.744131"
     inkscape:cy="100.20001"
     inkscape:window-width="1920"
     inkscape:window-height="1010"
     inkscape:window-x="4601"
     inkscape:window-y="-6"
     inkscape:window-maximized="1"
     inkscape:current-layer="layer1" /><defs
     id="defs1" /><g
     inkscape:groupmode="layer"
     id="layer8"
     inkscape:label="Layer 2"
     style="display:inline;fill:#ffffff"><path
       id="path2"
       style="fill:#ffffff;stroke-width:0.264583"
       d="M 30.41003,-2.2091675 C 30.090565,6.2705092 27.52337,10.170068 23.152592,15.375806 l -9.052161,0.02222 -5.5531491,16.412434 2.8044801,4.697388 -6.3892742,2.707845 c 3.646319,5.891202 5.0871762,7.325356 15.2119912,12.481409 l 10.950236,11.072192 4.9382,-2.209167 7.276042,-9.048544 C 49.404189,48.365652 55.856163,43.47291 57.957703,39.189855 l -6.115906,-2.020032 1.527038,-2.575553 -9.73894,-19.218982 -6.544303,-0.03411 C 38.423448,9.2961767 35.440074,0.55442115 30.41003,-2.2091675 Z"
       sodipodi:nodetypes="cccccccccccccccc" /></g><g
     inkscape:label="Layer 1"
     inkscape:groupmode="layer"
     id="layer1"
     transform="translate(-71.467793,-103.87697)"
     style="display:inline"><path
       d="m 114.74474,155.21699 c -0.12951,-0.0724 -0.45961,0.10374 -0.98961,0.51831 -0.36381,0.28457 -0.78487,0.52049 -0.93586,0.52349 -0.47332,0.0101 -2.66387,2.47165 -3.14916,3.5388 -0.58485,1.28608 -2.11037,2.98809 -3.17086,3.53725 -1.26918,0.65723 -3.55993,0.53161 -4.82038,-0.26407 -1.39706,-0.88193 -2.540115,-2.22568 -3.273703,-3.84886 -0.447502,-0.99017 -0.818582,-1.41907 -1.424719,-1.64589 -1.194701,-0.44706 -1.739346,-0.66868 -3.069064,-1.25057 -0.654844,-0.28656 -1.468764,-0.60762 -1.808675,-0.71314 -0.718402,-0.223 -0.806123,-0.43883 1.288294,3.16725 1.482828,2.55307 2.067812,3.56634 2.901631,5.02553 0.291041,0.50932 0.767292,1.34277 1.058334,1.85209 0.291042,0.50932 0.752366,1.31299 1.024743,1.78594 0.272377,0.47294 1.178721,2.05051 2.014349,3.50572 0.83563,1.4552 1.68683,2.91373 1.89187,3.24115 0.53046,0.84708 1.5489,0.78046 2.0221,-0.13229 0.20746,-0.40018 1.24298,-2.21588 2.30115,-4.0349 2.0898,-3.59238 2.63824,-4.53992 3.44579,-5.95312 l 1.05833,-1.85209 c 0.74604,-1.30556 1.35837,-2.36554 2.61276,-4.52427 0.89786,-1.54512 1.23852,-2.35574 1.02268,-2.47633 z"
       style="display:inline;fill:#ffffff"
       id="path22" /><path
       d="m 94.628136,119.24554 -11.630814,0.0403 -11.443229,0.0692 -0.08062,0.69402 c -0.04426,0.38172 0.164095,1.12587 0.463021,1.65365 0.660859,1.16682 1.006992,1.76655 3.454053,5.98671 1.054754,1.81901 2.124192,3.66448 2.376599,4.10104 0.252407,0.43656 0.771169,1.32953 1.152385,1.98438 0.381215,0.65484 1.380108,2.4088 2.220019,3.89795 0.839911,1.48915 1.596041,2.70998 1.680001,2.71198 0.08396,0.002 0.294773,-0.91808 0.468705,-2.04587 0.173933,-1.12779 0.462638,-2.46724 0.641305,-2.97656 0.505002,-1.4396 1.906242,-3.71733 3.092834,-5.02709 l 1.362708,-1.56114 0.632519,-1.56218 c 0.776903,-1.91902 2.250774,-3.82686 4.392497,-6.30142 0.566804,-0.65489 1.356232,-1.6655 1.218013,-1.66502 z"
       style="display:inline;fill:#ffffff"
       id="path6" /><path
       d="m 108.55338,119.21815 -0.4594,1.78801 c -0.25269,0.98361 -0.57857,2.20524 -0.72399,2.71456 -0.45394,1.58984 -0.71594,3.02992 -0.58859,3.23598 0.0672,0.10879 0.44353,-0.005 0.83612,-0.25167 0.96601,-0.60796 3.84851,-2.79716 4.05402,-3.07888 0.46441,-0.63664 0.44537,0.55841 -0.0377,2.3611 -0.29983,1.11886 -0.48161,2.09756 -0.40411,2.17506 0.0775,0.0775 0.37529,-0.12893 0.66146,-0.45889 0.48254,-0.55638 0.72036,-1.23663 1.60145,-4.57801 0.18227,-0.69123 0.4215,-1.25677 0.53175,-1.25677 0.11026,0 0.58156,0.98226 1.04696,2.18281 0.4654,1.20055 0.95474,2.45626 1.08779,2.79053 0.13304,0.33427 0.24185,1.45081 0.24185,2.48098 0,1.9829 -0.6278,3.61706 -2.36523,6.15415 -0.83142,1.21415 -1.23232,2.26653 -0.863,2.26653 0.13578,0 0.91897,-0.64574 1.74046,-1.43506 1.41469,-1.35929 2.45917,-3.17379 3.85713,-6.70088 0.18745,-0.47294 0.41943,-0.8599 0.51573,-0.8599 0.17999,0 0.68103,2.52753 0.97617,4.9258 0.18156,1.47536 -0.1848,3.62343 -0.86093,5.04827 -0.53418,1.1257 -0.32999,1.35528 1.45934,1.63814 0.75476,0.11931 1.44906,0.29358 1.54306,0.38758 l 0.91674,0.30282 1.51619,-2.57917 c 0.31959,-0.53904 0.7983,-1.40891 1.08934,-1.91823 l 1.05833,-1.85208 c 0.71871,-1.25774 1.20602,-2.10118 3.43958,-5.95313 1.82966,-3.1554 2.16365,-3.73229 3.483,-6.01927 1.22052,-2.11566 1.3677,-2.51344 1.09192,-2.95072 -0.23746,-0.37653 -1.69967,-0.43034 -13.35629,-0.49144 z"
       style="display:inline;fill:#ffffff"
       id="path5" /><path
       id="path3"
       style="display:inline"
       d="M 102.92634 103.87697 C 102.80217 103.87697 102.68757 104.75069 102.67157 105.81845 C 102.63997 107.92289 102.05016 110.0989 100.77246 112.82733 C 99.761105 114.98702 98.422909 116.92726 95.905578 119.88426 C 92.816537 123.51282 90.790914 126.28094 90.067691 127.86207 C 89.707801 128.64887 89.413468 129.35992 89.413468 129.44182 C 89.413468 129.52372 88.747696 130.32348 87.933971 131.21949 C 85.845905 133.51871 84.80752 135.87475 84.396203 139.24432 C 84.033769 142.21343 84.241513 141.93707 81.740551 142.77072 C 79.888557 143.38805 79.359969 143.64544 79.364469 143.92724 C 79.374369 144.54024 82.292754 147.77279 84.625646 149.75479 C 86.482589 151.33243 92.636266 154.7618 95.631176 155.88775 C 95.922218 155.99717 96.696124 156.28121 97.350968 156.51923 C 98.404445 156.90215 98.633025 157.1389 99.335343 158.57492 C 100.20823 160.35971 101.03627 161.36823 102.24576 162.11941 C 103.42379 162.85106 105.23431 162.77415 106.3592 161.94423 C 107.22749 161.30362 108.98925 158.84314 108.99625 158.26125 C 109.00025 157.91808 111.44517 155.77463 112.6968 155.017 C 113.20612 154.70871 114.15862 154.24653 114.81347 153.99019 C 118.73556 152.45487 127.21931 145.37642 126.93107 143.8797 C 126.85357 143.47708 126.22525 143.22407 121.54174 141.71032 C 121.09484 141.56588 120.38047 141.43875 119.95424 141.42765 C 118.8017 141.39775 117.31562 140.77317 117.40142 140.35485 C 117.44232 140.15554 117.69501 139.51635 117.96315 138.93426 C 118.2313 138.35218 118.58472 137.54295 118.74863 137.13592 C 119.09221 136.28281 119.15505 132.98114 118.82769 132.98114 C 118.70704 132.98114 118.34158 133.54668 118.01586 134.23791 C 117.28399 135.79107 116.74855 136.41007 114.46672 138.33895 C 113.18389 139.42335 112.44748 139.8603 111.90357 139.8603 C 111.48388 139.8603 111.07186 139.74922 110.98786 139.61329 C 110.75118 139.23033 111.59423 137.32541 113.2208 134.56864 C 114.99195 131.56684 115.45954 130.23338 115.28476 128.68269 C 115.13066 127.31551 114.51851 125.91923 114.14839 126.0906 C 114.00483 126.1571 113.74715 126.62015 113.5753 127.12 C 113.40346 127.61986 112.74861 128.55716 112.12009 129.20256 C 110.6387 130.72373 107.94729 132.75609 107.65421 132.57496 C 107.52858 132.49726 107.71881 131.90183 108.07693 131.25204 C 108.43503 130.60226 109.02571 129.53079 109.38951 128.87079 C 110.05931 127.65564 110.23004 126.89572 109.83341 126.89572 C 109.7138 126.89572 108.75175 127.49103 107.69556 128.21864 C 106.63936 128.94624 105.66574 129.54155 105.53186 129.54155 C 105.39798 129.54155 105.28847 129.09512 105.28847 128.54937 C 105.28847 127.26566 105.81376 124.87272 106.98656 120.8103 C 107.57022 118.78859 107.7889 115.19627 107.45733 113.08158 C 107.30421 112.105 106.75348 110.39756 106.23363 109.28749 C 105.71378 108.17742 105.28847 107.21382 105.28847 107.14602 C 105.28847 106.86049 103.13265 103.87697 102.92634 103.87697 z M 98.380879 123.11197 C 98.399459 123.11597 98.409301 123.1294 98.409301 123.1528 C 98.409301 123.56275 97.169395 125.39789 95.436356 127.55201 C 92.594098 131.08484 91.000968 134.65145 91.000968 137.48319 C 91.000968 139.53618 91.738537 141.75038 92.848917 143.03065 C 93.343199 143.60057 93.384565 143.87413 93.226672 145.53541 C 93.129172 146.56132 92.998283 147.49023 92.935733 147.59937 C 92.563576 148.24877 88.87822 147.14489 87.901415 146.09145 C 87.54453 145.70657 86.895262 144.60397 86.458609 143.64095 C 85.781864 142.14842 85.661992 141.55403 85.646772 139.61587 C 85.636502 138.30844 85.785423 136.89365 85.997139 136.28636 C 87.014336 133.36862 89.397503 130.48272 93.514509 127.18407 C 94.678675 126.2513 96.256253 124.88642 97.020238 124.15067 C 97.688724 123.50688 98.25079 123.08262 98.380879 123.11197 z M 108.25935 128.92247 L 107.85265 129.70795 C 107.62917 130.1401 106.86642 131.44022 106.15715 132.59718 C 103.92112 136.24458 102.84529 139.5061 102.51499 143.6394 C 102.36769 145.48261 102.20631 146.11199 101.73468 146.68211 C 101.0044 147.56489 99.700447 149.98783 99.283149 151.23739 C 99.113057 151.74671 98.892467 152.84804 98.793257 153.68478 C 98.685346 154.59495 98.485229 155.20614 98.294579 155.20614 C 97.840769 155.20614 97.0128 154.18612 96.124686 152.53188 C 94.597898 149.68803 93.96371 146.54272 94.441585 144.1882 C 94.994192 141.46547 97.089597 138.00096 99.64075 135.59235 C 101.08615 134.22771 105.94036 130.40425 107.46405 129.43045 L 108.25935 128.92247 z M 117.85566 136.20471 C 117.95774 136.30411 117.4199 137.61377 116.66038 139.11513 L 115.27959 141.84468 L 115.20621 144.73339 C 115.13721 147.46573 115.09997 147.63886 114.51064 147.93888 C 113.66328 148.37027 111.32577 148.63695 110.87831 148.35332 C 110.25451 147.95792 110.6083 145.01207 111.49687 143.20377 C 112.29348 141.58263 117.4968 135.8554 117.85566 136.20471 z M 116.48107 141.91806 L 117.43346 142.07722 C 118.76467 142.29973 120.81566 142.71619 122.2218 143.04977 C 122.87665 143.20511 123.74601 143.39884 124.15347 143.48024 C 125.29285 143.70784 124.92093 144.33133 123.28013 144.94475 C 121.56711 145.58517 120.18016 145.76002 119.44368 145.42792 C 119.15264 145.29668 118.49085 145.18077 117.97296 145.17057 C 116.45844 145.14067 116.09701 144.71495 116.30433 143.20429 L 116.48107 141.91806 z M 106.091 142.75005 C 106.12922 142.75185 106.16952 142.76966 106.20262 142.80276 C 106.43393 143.03407 105.66498 144.82628 104.44459 146.89915 C 102.83461 149.63385 102.40616 151.59402 102.88861 154.0212 C 103.47898 156.99136 104.43011 158.4334 106.28066 159.16403 C 106.7536 159.35075 107.14055 159.59591 107.14055 159.7087 C 107.14055 159.8215 106.7196 160.28336 106.20521 160.735 C 103.07646 163.48208 98.995244 159.08037 99.748237 153.77108 C 100.01932 151.85973 101.5769 148.19463 102.5677 147.13635 C 102.84018 146.84531 103.70136 145.77373 104.4818 144.75509 C 105.26224 143.73644 105.94188 142.85354 105.99178 142.79294 C 106.01668 142.76254 106.0527 142.74805 106.091 142.75005 z M 84.235489 143.0353 C 84.634002 143.0353 86.016599 145.28547 85.769762 145.53231 C 85.510461 145.79161 84.822271 145.6517 83.459309 145.06257 C 81.903578 144.39012 81.475968 144.1328 81.475968 143.86833 C 81.475968 143.6687 83.574215 143.0353 84.235489 143.0353 z M 84.242207 146.87124 C 84.347926 146.8716 84.474915 146.90423 84.600842 146.96943 C 85.134135 147.24553 87.748932 148.12431 89.413468 148.5869 C 90.068312 148.76889 90.949591 149.02318 91.371488 149.15173 C 91.793386 149.28027 92.420243 149.3853 92.764684 149.3853 C 93.218717 149.3853 93.492988 149.62178 93.762039 150.2452 C 93.966148 150.71814 94.381088 151.66913 94.683947 152.35877 C 94.986806 153.04841 95.234301 153.73301 95.234301 153.88012 C 95.234301 154.19888 94.981672 154.20056 94.440551 153.88632 C 94.22227 153.75943 93.061508 153.17553 91.860863 152.58873 C 88.467538 150.93028 83.681622 147.50285 84.012247 146.96788 C 84.052197 146.90328 84.136488 146.87136 84.242207 146.87176 L 84.242207 146.87124 z M 122.44194 146.99527 C 122.47111 147.00009 122.48638 147.01004 122.48638 147.02524 C 122.48638 147.81013 117.89673 150.90466 113.49055 153.0905 C 110.52363 154.56234 110.35098 154.57654 108.21025 153.53234 C 106.98701 152.93568 105.02388 151.2495 105.02388 150.79504 C 105.02388 150.6521 106.36334 150.38966 108.00045 150.21213 C 113.03208 149.66647 115.45859 149.13697 120.30357 147.52754 C 121.20398 147.22843 121.98176 147.02637 122.3143 146.99579 C 122.36973 146.99069 122.41278 146.99044 122.44194 146.99527 z M 103.84204 151.50197 C 103.91965 151.50197 104.37251 151.89136 104.84818 152.36703 C 105.5999 153.11875 106.56477 153.78945 109.20864 155.39786 C 109.7277 155.71363 109.7691 155.83439 109.47736 156.18592 C 109.28785 156.41425 108.71448 156.86358 108.20302 157.18431 C 106.59001 158.19581 105.95657 158.22562 105.19907 157.32539 C 104.83347 156.89091 104.34658 155.89035 104.11748 155.10227 C 103.71793 153.72786 103.54763 151.50197 103.84204 151.50197 z " /></g></svg>
