<?xml version="1.0" encoding="UTF-8" standalone="no"?>
<!-- Created with Inkscape (http://www.inkscape.org/) -->

<svg
   width="75.240379mm"
   height="76.669182mm"
   viewBox="0 0 75.240382 76.669182"
   version="1.1"
   id="svg1"
   xml:space="preserve"
   inkscape:version="1.4 (86a8ad7, 2024-10-11)"
   sodipodi:docname="Lock.svg"
   xmlns:inkscape="http://www.inkscape.org/namespaces/inkscape"
   xmlns:sodipodi="http://sodipodi.sourceforge.net/DTD/sodipodi-0.dtd"
   xmlns="http://www.w3.org/2000/svg"
   xmlns:svg="http://www.w3.org/2000/svg"><sodipodi:namedview
     id="namedview1"
     pagecolor="#505050"
     bordercolor="#eeeeee"
     borderopacity="1"
     inkscape:showpageshadow="0"
     inkscape:pageopacity="0"
     inkscape:pagecheckerboard="0"
     inkscape:deskcolor="#505050"
     inkscape:document-units="mm"
     inkscape:zoom="1.4396184"
     inkscape:cx="104.19428"
     inkscape:cy="158.3753"
     inkscape:window-width="1920"
     inkscape:window-height="1010"
     inkscape:window-x="1529"
     inkscape:window-y="-6"
     inkscape:window-maximized="1"
     inkscape:current-layer="layer1" /><defs
     id="defs1" /><g
     inkscape:label="Layer 1"
     inkscape:groupmode="layer"
     id="layer1"
     transform="translate(-56.319402,-70.4743)"><path
       style="fill:#000000"
       d="m 58.171486,146.83391 c -0.436563,-0.19354 -1.031875,-0.61877 -1.322917,-0.94495 -0.518041,-0.58059 -0.529167,-0.96714 -0.529167,-18.38456 0,-14.28695 0.06923,-17.92087 0.351463,-18.44829 0.193305,-0.36124 0.687925,-0.85555 1.099157,-1.09847 0.599593,-0.35419 1.460214,-0.44167 4.344891,-0.44167 H 65.71211 V 97.201013 c 0,-6.54191 0.106163,-10.776048 0.290235,-11.575521 0.159629,-0.693312 0.39881,-1.694625 0.531514,-2.22514 0.132703,-0.530515 0.539518,-1.602078 0.904032,-2.38125 0.364514,-0.779173 0.909146,-1.833396 1.210293,-2.342719 0.301148,-0.509323 1.222243,-1.620977 2.046879,-2.470343 0.824637,-0.849366 2.228834,-2.069757 3.120438,-2.711979 0.891605,-0.642223 1.732445,-1.167678 1.868533,-1.167678 0.136088,0 0.716281,-0.22398 1.289317,-0.497733 0.573036,-0.273753 1.898825,-0.690472 2.946197,-0.926041 1.603231,-0.360591 3.812078,-0.428309 13.970686,-0.428309 10.182726,0 12.363646,0.06714 13.970686,0.430112 1.04737,0.236561 2.4401,0.665146 3.09494,0.95241 0.65484,0.287264 1.44788,0.643924 1.76231,0.792578 0.31443,0.148653 1.38569,0.881224 2.38059,1.627934 0.99772,0.748824 2.41774,2.168847 3.16656,3.166562 0.74671,0.994899 1.47901,2.066165 1.62733,2.380593 0.14832,0.314427 0.48145,1.047936 0.74029,1.630019 0.25884,0.582083 0.68363,1.951302 0.94398,3.042708 0.41261,1.729671 0.47453,3.334308 0.4824,12.501562 l 0.009,10.517192 3.63802,9.8e-4 c 3.13915,8.6e-4 3.75396,0.0717 4.4835,0.51652 0.55998,0.34143 0.94426,0.85485 1.13799,1.52036 0.20418,0.70144 0.26845,6.25594 0.21285,18.39622 -0.0796,17.39137 -0.0796,17.39137 -0.94461,18.25625 -0.86495,0.86487 -0.86495,0.86487 -36.247914,0.92219 -28.962627,0.0469 -35.526989,-0.007 -36.17671,-0.29458 z m 40.61354,-7.4063 c 0,-1.65735 -0.126534,-5.13733 -0.281187,-7.7333 -0.281187,-4.71994 -0.281187,-4.71994 1.043667,-5.86137 0.728674,-0.62779 1.599344,-1.58288 1.934834,-2.12243 0.33549,-0.53955 0.75701,-1.39772 0.93672,-1.90705 0.17971,-0.50932 0.32675,-1.46182 0.32675,-2.11666 0,-0.65485 -0.14704,-1.60735 -0.32675,-2.11667 -0.17971,-0.50932 -0.60308,-1.37047 -0.94082,-1.91367 -0.33774,-0.5432 -1.09544,-1.39966 -1.683773,-1.90326 -0.588335,-0.50359 -1.621689,-1.18193 -2.296341,-1.50743 -0.998429,-0.4817 -1.669666,-0.58978 -3.607892,-0.58093 -2.039872,0.009 -2.582489,0.11208 -3.784973,0.71682 -0.772049,0.38827 -1.919448,1.22168 -2.549776,1.852 -0.630329,0.63033 -1.326341,1.5496 -1.546694,2.04283 -0.220353,0.49322 -0.531469,1.30149 -0.69137,1.79614 -0.1599,0.49466 -0.290728,1.27025 -0.290728,1.72353 0,0.45328 0.225584,1.44132 0.501297,2.19564 0.275713,0.75432 0.757775,1.73168 1.071247,2.17191 0.313473,0.44023 1.115732,1.1906 1.782799,1.66748 1.212849,0.86707 1.212849,0.86707 1.042228,4.30665 -0.09384,1.89177 -0.246864,5.43388 -0.340052,7.87135 l -0.169432,4.43177 h 4.935123 4.935123 z M 113.0233,98.652424 c 0.0546,-5.743141 -0.0215,-9.365091 -0.22246,-10.583333 -0.17124,-1.038066 -0.7161,-2.69573 -1.23969,-3.77158 -0.65392,-1.343637 -1.39424,-2.345437 -2.4677,-3.33927 -0.84344,-0.780876 -2.06077,-1.675008 -2.70518,-1.98696 -0.64441,-0.311953 -1.85066,-0.744046 -2.68056,-0.960209 -1.1911,-0.310241 -3.39826,-0.393022 -10.478934,-0.393022 -6.819787,0 -9.306085,0.08835 -10.371986,0.368565 -0.771085,0.202712 -1.759159,0.524972 -2.195722,0.716135 -0.436562,0.191163 -1.329531,0.702199 -1.984375,1.135637 -0.654844,0.433437 -1.685732,1.298919 -2.290863,1.923293 -0.605131,0.624375 -1.520813,2.001312 -2.034849,3.05986 -0.514036,1.058549 -1.018589,2.341353 -1.121229,2.850676 -0.10264,0.509323 -0.233277,5.025344 -0.290303,10.035603 -0.05703,5.010261 -0.04308,9.267501 0.03099,9.460531 0.110555,0.2881 3.702281,0.33882 20.052235,0.28314 l 19.917556,-0.0678 z"
       id="path2509" /></g></svg>
