<?xml version="1.0" encoding="UTF-8" standalone="no"?>
<!-- Created with Inkscape (http://www.inkscape.org/) -->

<svg
   width="103.41766mm"
   height="104.16061mm"
   viewBox="0 0 103.41766 104.16061"
   version="1.1"
   id="svg1"
   xml:space="preserve"
   inkscape:version="1.4 (86a8ad7, 2024-10-11)"
   sodipodi:docname="Lumbering.svg"
   xmlns:inkscape="http://www.inkscape.org/namespaces/inkscape"
   xmlns:sodipodi="http://sodipodi.sourceforge.net/DTD/sodipodi-0.dtd"
   xmlns="http://www.w3.org/2000/svg"
   xmlns:svg="http://www.w3.org/2000/svg"><sodipodi:namedview
     id="namedview1"
     pagecolor="#505050"
     bordercolor="#eeeeee"
     borderopacity="1"
     inkscape:showpageshadow="0"
     inkscape:pageopacity="0"
     inkscape:pagecheckerboard="0"
     inkscape:deskcolor="#505050"
     inkscape:document-units="mm"
     inkscape:zoom="0.7198092"
     inkscape:cx="182.6873"
     inkscape:cy="243.11998"
     inkscape:window-width="1920"
     inkscape:window-height="1010"
     inkscape:window-x="4601"
     inkscape:window-y="-6"
     inkscape:window-maximized="1"
     inkscape:current-layer="layer1" /><defs
     id="defs1" /><g
     inkscape:label="Layer 1"
     inkscape:groupmode="layer"
     id="layer1"
     transform="translate(-57.293915,-83.047592)"><path
       style="fill:#000000"
       d="m 108.1857,186.80682 c -0.0956,-0.30138 -0.67644,-1.16493 -1.29063,-1.91899 -0.61419,-0.75406 -1.45316,-2.08496 -1.86438,-2.95756 -0.41122,-0.8726 -1.01742,-1.90927 -1.3471,-2.3037 -0.32968,-0.39444 -0.81263,-1.28741 -1.07321,-1.98438 -0.26058,-0.69697 -0.7531,-1.64172 -1.0945,-2.09945 -0.66397,-0.8902 -1.658462,-3.45961 -1.658462,-4.28485 0,-0.27506 -0.225922,-0.78731 -0.502048,-1.13835 -0.276127,-0.35104 -0.706131,-1.46842 -0.955564,-2.48308 -1.096257,-4.4594 -1.676851,-4.66958 -4.760096,-1.72323 -2.686024,2.56676 -6.191928,5.56695 -6.505327,5.56695 -0.16373,0 -0.731542,0.34134 -1.261806,0.75854 -1.526709,1.20117 -2.884569,1.76968 -5.772943,2.417 l -2.69216,0.60335 -2.327076,-0.72554 c -2.103842,-0.65595 -2.471353,-0.87392 -3.831091,-2.27219 -1.893511,-1.94716 -2.219112,-2.8641 -2.203416,-6.20512 0.0135,-2.87339 0.493215,-4.65676 1.624606,-6.03957 0.336557,-0.41135 0.611922,-0.90824 0.611922,-1.10421 0,-0.19597 0.398198,-0.87798 0.884884,-1.51557 0.486687,-0.6376 1.302918,-1.80758 1.813848,-2.59996 0.51093,-0.79238 1.842467,-2.36443 2.958971,-3.49344 1.116505,-1.12902 2.145742,-2.35716 2.287194,-2.72921 0.664106,-1.74673 0.04594,-2.59148 -2.124064,-2.90265 -1.934054,-0.27733 -5.108427,-1.20544 -5.820833,-1.70187 -0.363802,-0.25351 -1.281611,-0.66421 -2.039576,-0.91267 -0.757964,-0.24845 -1.810431,-0.74511 -2.338814,-1.10368 -0.528384,-0.35857 -1.753279,-1.01132 -2.721989,-1.45055 -0.968711,-0.43924 -2.059369,-1.07389 -2.423685,-1.41035 -0.364317,-0.33645 -1.268879,-0.94559 -2.010139,-1.35364 -1.519618,-0.83652 -2.573374,-2.16592 -2.44349,-3.08266 0.05968,-0.42126 0.491648,-0.83273 1.373407,-1.30824 0.707486,-0.38152 1.36233,-0.81239 1.455208,-0.95749 0.09288,-0.14509 0.776975,-0.57048 1.520215,-0.9453 0.743239,-0.37483 1.695739,-0.96878 2.116666,-1.31989 0.741676,-0.61866 3.084907,-1.77217 3.599973,-1.77217 0.139613,0 0.76453,-0.36675 1.388705,-0.815 0.624174,-0.44825 2.121001,-1.1017 3.326282,-1.45211 1.205281,-0.35041 2.380932,-0.80512 2.612558,-1.01046 0.231626,-0.20535 1.247516,-0.50005 2.257534,-0.65489 2.266894,-0.34753 3.239637,-1.11264 2.819499,-2.21769 -0.144394,-0.37978 -1.10348,-1.56238 -2.131302,-2.628 -2.95685,-3.06557 -3.090721,-3.21649 -3.596158,-4.05415 -0.263419,-0.43656 -0.804611,-1.15093 -1.202648,-1.5875 -0.398036,-0.43656 -1.001672,-1.34265 -1.341412,-2.01352 -0.33974,-0.67088 -0.943095,-1.6857 -1.34079,-2.25514 -0.86879,-1.244 -1.261294,-3.12303 -1.261294,-6.03818 0,-3.08903 0.487023,-4.467063 2.218161,-6.276311 2.110754,-2.205993 2.686433,-2.442231 5.983922,-2.45559 2.804422,-0.01136 5.422528,0.534224 6.35,1.323272 0.218281,0.185703 1.11125,0.725985 1.984375,1.200628 1.656324,0.900399 2.377799,1.455086 6.172663,4.745691 3.108251,2.69522 4.714377,3.96395 5.018114,3.96395 0.517333,0 0.882369,-0.80245 1.500362,-3.29818 0.348644,-1.40797 0.820354,-2.844524 1.048246,-3.19233 0.227891,-0.347806 0.715785,-1.555802 1.084208,-2.684436 0.36842,-1.128633 0.88626,-2.294189 1.15074,-2.590122 0.26449,-0.295934 0.93466,-1.520327 1.48927,-2.720874 0.55461,-1.200547 1.0925,-2.182812 1.1953,-2.182812 0.1028,0 0.39436,-0.543185 0.6479,-1.207077 0.25354,-0.663892 0.8948,-1.727683 1.42501,-2.36398 0.53021,-0.636297 1.20818,-1.551628 1.50661,-2.034069 0.36341,-0.587504 0.7129,-0.851797 1.05833,-0.800343 0.66225,0.09865 2.4108,2.031425 2.92254,3.230469 0.21737,0.509322 0.75233,1.372134 1.1888,1.917359 0.79333,0.991024 2.08549,3.506577 2.09036,4.069515 10e-4,0.164082 0.18257,0.447702 0.40254,0.630266 0.43005,0.356906 1.17029,1.903187 1.71634,3.585237 0.18613,0.573328 0.573,1.376695 0.85972,1.785261 0.67651,0.964004 1.46299,3.582026 1.68217,5.599626 0.19308,1.77734 0.45199,2.25649 1.21935,2.25649 0.74334,0 1.52305,-0.62231 6.16943,-4.92391 0.33166,-0.30705 1.06076,-0.83466 1.62022,-1.17246 0.55945,-0.337809 1.47683,-1.020889 2.0386,-1.517958 0.56177,-0.497069 1.45474,-1.082644 1.98437,-1.301276 0.52964,-0.218633 1.14157,-0.554843 1.35985,-0.747133 1.0893,-0.959604 3.27969,-1.495823 6.08541,-1.489749 3.28487,0.0071 3.88438,0.21681 5.90526,2.065558 1.61249,1.475137 2.40883,3.034378 2.70506,5.296528 0.27447,2.09594 -1.00805,7.75915 -1.75717,7.75915 -0.10593,0 -0.68011,0.90382 -1.27597,2.00849 -1.08601,2.01339 -2.34675,3.7322 -3.88911,5.30215 -1.68459,1.71472 -4.06932,4.62039 -4.06932,4.95827 0,0.79534 1.95837,1.70522 4.63021,2.15126 0.58209,0.0972 1.23693,0.3295 1.45521,0.51628 0.21828,0.18678 1.44076,0.66762 2.71661,1.06854 1.27586,0.40092 2.75075,1.07146 3.27753,1.4901 0.52678,0.41864 1.13141,0.76116 1.34361,0.76116 0.46015,0 1.4556,0.52872 3.77475,2.00492 4.63633,2.95115 5.82083,3.82966 5.82083,4.31711 0,0.65249 -1.73915,2.21952 -3.57187,3.21834 -0.87313,0.47586 -1.82598,1.0769 -2.11745,1.33566 -0.29147,0.25876 -1.24397,0.79489 -2.11666,1.1914 -0.8727,0.39651 -1.97034,1.01028 -2.4392,1.36395 -0.46887,0.35366 -1.77775,0.93685 -2.90863,1.29597 -1.13089,0.35913 -2.23555,0.80361 -2.45482,0.98775 -0.63558,0.53377 -2.62726,1.15977 -4.63199,1.45586 -1.34422,0.19854 -1.97744,0.42717 -2.30923,0.83377 -0.43415,0.53203 -0.43213,0.60901 0.0403,1.53034 0.27358,0.53358 1.29533,1.80357 2.27055,2.82222 0.97522,1.01864 2.0547,2.29028 2.39883,2.82587 0.34413,0.53558 0.91793,1.24996 1.27511,1.5875 0.35717,0.33754 0.96156,1.20703 1.34308,1.93221 0.38151,0.72517 0.91252,1.55861 1.18001,1.85208 0.7638,0.83798 1.23445,1.96354 1.70259,4.07177 0.56817,2.55867 0.54417,4.28556 -0.0885,6.36618 -0.43139,1.41869 -0.77437,1.95041 -2.05885,3.19181 -1.36472,1.31895 -1.75982,1.54266 -3.45002,1.95346 -1.04983,0.25517 -2.2423,0.47342 -2.64993,0.48501 -1.62565,0.0462 -6.33845,-1.34667 -7.32684,-2.16548 -0.29104,-0.24111 -1.09922,-0.72843 -1.79597,-1.08294 -0.69674,-0.35451 -1.44727,-0.91802 -1.66785,-1.25224 -0.22058,-0.33423 -1.02269,-1.00535 -1.78248,-1.49138 -0.75978,-0.48603 -2.03331,-1.52446 -2.83006,-2.30763 -2.43722,-2.39567 -4.16915,-3.18219 -4.71616,-2.14174 -0.13388,0.25466 -0.32712,1.11786 -0.42941,1.91823 -0.27597,2.15935 -0.90406,4.24157 -1.60969,5.3364 -0.34412,0.53393 -0.70996,1.30783 -0.81297,1.71979 -0.26372,1.05461 -1.34442,3.44856 -1.63896,3.6306 -0.13537,0.0837 -0.51572,0.83874 -0.84524,1.67797 -0.32952,0.83922 -0.91888,1.94258 -1.30971,2.4519 -0.39082,0.50933 -1.04787,1.52136 -1.46011,2.24896 -0.78057,1.37769 -2.32691,3.17292 -3.09456,3.59262 -0.3403,0.18606 -0.48625,0.11428 -0.61917,-0.30452 z m 1.81887,-21.61438 c 0.34584,-0.54784 0.80397,-1.14145 1.01807,-1.31914 0.2141,-0.17769 0.71871,-1.18797 1.12136,-2.24507 0.40264,-1.05711 0.83984,-2.1006 0.97154,-2.31888 0.13171,-0.21829 0.37039,-0.69454 0.53039,-1.05834 0.57805,-1.31425 0.69415,-1.45652 1.2569,-1.54018 0.40527,-0.0603 1.07168,0.39524 2.29033,1.56545 2.13605,2.05114 2.81369,2.14609 4.38294,0.61414 l 1.06152,-1.03628 h 3.49271 c 3.25666,0 3.54881,-0.0421 4.32275,-0.623 0.45652,-0.34265 0.97517,-0.93796 1.15256,-1.32292 0.57079,-1.23873 0.64283,-3.58678 0.15573,-5.07598 -0.50204,-1.53491 -0.40763,-1.81185 1.14798,-3.36745 0.4481,-0.44811 0.81473,-1.00516 0.81473,-1.23791 0,-0.23274 -0.89296,-1.37802 -1.98437,-2.54506 -1.09141,-1.16704 -1.98438,-2.34697 -1.98438,-2.62206 0,-0.50209 0.22283,-0.61989 1.75271,-0.92668 0.45467,-0.0912 1.1005,-0.45725 1.43519,-0.8135 0.33468,-0.35625 0.77031,-0.64773 0.96806,-0.64773 0.63549,0 2.82536,-1.24975 3.84769,-2.19587 1.53855,-1.42384 1.29974,-2.29149 -0.92866,-3.37412 -0.69267,-0.33651 -1.45526,-0.82828 -1.69465,-1.0928 -0.2394,-0.26453 -0.56564,-0.4817 -0.72499,-0.48259 -0.15935,-9e-4 -0.62217,-0.17504 -1.0285,-0.38699 -0.40633,-0.21194 -1.1537,-0.46319 -1.66082,-0.55832 -1.70994,-0.32079 -1.65286,-0.93084 0.27869,-2.97838 1.18621,-1.25745 1.72403,-2.03634 1.72403,-2.49679 0,-0.37699 -0.5038,-1.34497 -1.15377,-2.21678 -1.77684,-2.3833 -1.81762,-2.50671 -1.21741,-3.68398 0.79699,-1.56324 0.68866,-3.30886 -0.31908,-5.14194 -0.73728,-1.34111 -1.01445,-1.59771 -2.30242,-2.13154 l -1.46424,-0.6069 -1.73247,0.48275 c -2.36198,0.65816 -2.76751,0.60806 -3.98553,-0.49235 -1.52979,-1.38207 -2.03149,-1.27918 -4.37987,0.89826 -2.05796,1.90817 -3.28896,2.41667 -3.28896,1.3586 0,-0.27142 -0.21697,-0.77743 -0.48215,-1.12448 -0.26519,-0.34705 -0.76261,-1.4049 -1.10538,-2.35078 -0.34278,-0.94589 -0.89971,-2.05635 -1.23764,-2.4677 -0.33792,-0.41135 -0.61441,-0.8487 -0.61441,-0.97189 0,-0.46296 -1.38912,-1.85208 -1.85208,-1.85208 -0.52368,0 -1.85209,1.41462 -1.85209,1.97228 0,0.1893 -0.17139,0.48642 -0.38088,0.66028 -0.45105,0.37434 -1.85657,3.30839 -2.3103,4.8228 -0.17572,0.58651 -0.46478,1.12214 -0.64236,1.19028 -0.48145,0.18475 -1.78595,-0.57091 -3.28704,-1.9041 -1.619825,-1.43863 -2.279399,-1.48969 -3.566222,-0.27606 -1.125691,1.06167 -2.022572,1.31847 -3.305196,0.9464 -0.508362,-0.14747 -1.745762,-0.26813 -2.749777,-0.26813 -1.825084,0 -1.825755,2.7e-4 -3.082716,1.25723 -0.850647,0.85065 -1.359021,1.63524 -1.571975,2.42609 -0.317869,1.18048 -0.299849,1.38998 0.289112,3.36116 0.389197,1.30259 0.08224,2.27216 -1.116441,3.52647 -1.261212,1.31974 -1.071867,2.01554 1.23107,4.52389 1.098269,1.19623 1.961472,2.35511 1.918229,2.57529 -0.04324,0.22018 -0.673936,0.60532 -1.40154,0.85587 -2.715817,0.93519 -3.187711,1.13757 -3.704167,1.58857 -0.291042,0.25416 -0.82452,0.55206 -1.185507,0.66201 -0.691299,0.21055 -2.118986,1.13225 -2.448462,1.58071 -0.694189,0.94488 0.92956,2.91752 3.138313,3.81263 0.854694,0.34637 1.918742,0.89928 2.364552,1.22868 0.445809,0.3294 1.249481,0.7823 1.785937,1.00644 0.536456,0.22415 0.975375,0.57323 0.975375,0.77573 0,0.20251 -0.833437,1.28248 -1.852083,2.39995 -1.018646,1.11746 -1.852083,2.19513 -1.852083,2.39482 0,0.19968 0.536131,0.95937 1.191403,1.68819 1.365643,1.51892 1.468404,2.02412 0.810576,3.98498 -0.419539,1.25056 -0.436006,1.60683 -0.14064,3.0427 0.404025,1.9641 0.440545,2.01429 2.43406,3.34551 1.819748,1.21518 3.152872,1.38761 4.222613,0.54615 1.403909,-1.10432 2.844067,-0.84722 4.306548,0.7688 0.751005,0.82985 1.306584,0.65974 3.106584,-0.95119 0.915007,-0.8189 1.921627,-1.65953 2.236937,-1.86808 0.96056,-0.63533 1.5724,0.0187 2.64549,2.82782 0.52809,1.38244 1.16763,2.75166 1.4212,3.0427 0.25356,0.29105 0.78743,1.18401 1.18637,1.98438 1.09887,2.2046 1.63773,2.38195 2.60101,0.85601 z m 4.00806,-15.80146 c -2.93465,-3.02284 -4.95686,-4.90422 -5.26891,-4.90196 -0.2991,0.002 -2.47459,1.95321 -5.31443,4.76616 -3.578009,3.54413 -4.972263,4.7625 -5.450026,4.7625 -0.474613,0 -1.66166,-1.02136 -4.552748,-3.91728 -3.152026,-3.15729 -3.875226,-4.01709 -3.727668,-4.43177 0.100692,-0.28297 2.382932,-2.74507 5.071644,-5.47134 l 4.888566,-4.95684 -0.447678,-0.68324 c -0.538369,-0.82166 -0.35542,-0.62653 -5.373232,-5.73101 -2.483967,-2.52686 -4.034896,-4.30751 -4.034896,-4.63251 0,-0.32781 1.4035,-1.91691 3.702416,-4.19204 4.019464,-3.97787 4.28539,-4.19015 4.968027,-3.96587 0.54391,0.1787 3.103285,2.6216 6.977425,6.65989 1.54856,1.61418 3.05503,2.99749 3.34771,3.07402 0.41442,0.10838 1.26215,-0.60015 3.83204,-3.20278 5.19097,-5.2571 6.44408,-6.38465 7.0956,-6.38465 0.40838,0 1.73588,1.1317 4.25195,3.6248 2.012,1.99364 3.72899,3.84788 3.81553,4.12054 0.16473,0.51904 -0.34211,2.04425 -0.67933,2.04425 -0.10739,0 -2.18548,2.08071 -4.61796,4.62382 -3.76022,3.93121 -4.39487,4.71152 -4.23687,5.20933 0.10221,0.32203 2.2245,2.65038 4.71621,5.17411 2.49171,2.52374 4.64659,4.8937 4.78864,5.2666 0.23136,0.60735 0.13488,0.79033 -0.92604,1.75639 -0.65137,0.59312 -1.83915,1.69258 -2.63952,2.44324 -3.08833,2.89655 -4.27204,3.83718 -4.83747,3.84409 -0.41784,0.005 -1.95599,-1.40349 -5.34898,-4.89845 z"
       id="path1" /></g></svg>
