<?xml version="1.0" encoding="UTF-8" standalone="no"?>
<!-- Created with Inkscape (http://www.inkscape.org/) -->

<svg
   width="65.227135mm"
   height="83.626083mm"
   viewBox="0 0 65.227132 83.626085"
   version="1.1"
   id="svg1"
   xml:space="preserve"
   inkscape:version="1.4 (86a8ad7, 2024-10-11)"
   sodipodi:docname="OneHanded.svg"
   xmlns:inkscape="http://www.inkscape.org/namespaces/inkscape"
   xmlns:sodipodi="http://sodipodi.sourceforge.net/DTD/sodipodi-0.dtd"
   xmlns="http://www.w3.org/2000/svg"
   xmlns:svg="http://www.w3.org/2000/svg"><sodipodi:namedview
     id="namedview1"
     pagecolor="#505050"
     bordercolor="#eeeeee"
     borderopacity="1"
     inkscape:showpageshadow="0"
     inkscape:pageopacity="0"
     inkscape:pagecheckerboard="0"
     inkscape:deskcolor="#505050"
     inkscape:document-units="mm"
     inkscape:zoom="1.0179639"
     inkscape:cx="356.59417"
     inkscape:cy="55.011772"
     inkscape:window-width="1920"
     inkscape:window-height="1010"
     inkscape:window-x="4601"
     inkscape:window-y="-6"
     inkscape:window-maximized="1"
     inkscape:current-layer="g2" /><defs
     id="defs1" /><g
     inkscape:label="Layer 1 copy"
     inkscape:groupmode="layer"
     id="g2"
     transform="translate(-63.979353,-96.581562)"><path
       id="path2"
       style="fill:#ffffff;stroke-width:1.06997"
       d="m 78.419596,96.598357 c -3.311699,-0.09905 -5.566563,0.245063 -6.95955,0.898587 -0.421073,0.197547 -1.244434,0.702886 -1.597951,1.396382 -0.577804,1.133474 -0.99817,1.587894 -0.99817,5.335074 0,3.53905 0.12698,4.67366 0.374605,6.10225 0.168622,0.97281 0.470457,1.91211 0.753795,2.22454 l 0.740858,1.41303 -2.917256,1.14117 0.01188,-0.002 c -0.351401,0.13399 -0.613131,0.30922 -0.934309,0.56637 -1.973065,1.57976 -2.887291,4.68837 -2.913001,9.90431 -0.02014,4.08809 0.215139,7.38875 1.546947,11.30559 0.864526,2.54258 1.260929,4.21102 2.771809,5.64098 2.407508,2.27854 12.46844,8.04477 15.654352,9.05338 0.588257,0.18622 0.530957,0.90791 0.686303,1.19505 0.175452,0.32433 0.09888,4.29542 0.09888,12.59378 0,10.9006 0.162954,12.91166 0.477917,13.17025 0.212292,0.17429 2.608222,0.9607 4.313651,1.12966 1.705427,0.16895 3.154221,0.35826 3.219441,0.42116 0.240272,0.2316 6.792221,0.1034 9.274373,-0.18138 3.81026,-0.43716 6.49859,-0.97956 11.10062,-2.23966 3.98803,-1.09198 9.50284,-3.6471 13.73353,-6.36292 l 2.34817,-1.5074 -5.1e-4,-21.61677 c -2.5e-4,-23.38646 0.0114,-23.18272 -1.58182,-27.88409 -0.85636,-2.5269 -2.14519,-5.41775 -2.41587,-5.41775 l -1.6552,-2.59261 -0.005,0.01 c 0.22463,-1.05922 0.3826,-2.28828 0.45423,-3.62045 0.1855,-3.45006 -0.006,-4.00599 -2.00608,-5.83014 -1.42307,-1.29763 -3.07339,-1.62409 -4.59662,-1.60455 -0.58168,0.007 -1.26079,0.16832 -1.77251,0.31243 l -1.00045,0.66086 -0.49916,1.13605 c 0.054,-0.55048 -0.33657,-0.92895 -0.4861,-1.10668 -0.96327,-1.14498 -3.95788,-3.121636 -6.99243,-3.708568 -1.70521,-0.329813 -2.09623,-0.31699 -3.48402,0.115755 -0.92668,0.28897 -1.68985,0.722033 -1.87431,1.062984 L 98.750473,98.27941 97.59137,97.725439 c -2.443031,-1.167638 -3.818141,-1.266384 -6.952547,-0.499711 -2.077562,0.453701 -1.845481,0.471511 -4.217198,1.604031 L 84.76784,97.776197 82.840181,97.106155 C 81.845262,96.73877 81.077569,96.677847 78.419596,96.598357 Z"
       sodipodi:nodetypes="cscssccccccscccssscsscccccccscscccssccccccccc" /></g><g
     inkscape:label="Layer 1"
     inkscape:groupmode="layer"
     id="layer1"
     transform="translate(-63.979352,-96.581562)"><path
       style="display:inline;fill:#000000"
       d="m 93.479889,177.6082 c -0.06063,-0.0591 -1.407301,-0.23732 -2.992595,-0.39608 -1.585294,-0.15877 -3.043809,-0.42266 -3.241146,-0.58644 -0.292777,-0.24298 -0.358793,-2.60743 -0.358793,-12.85048 0,-7.79775 -0.09946,-12.73853 -0.262553,-13.04329 -0.144403,-0.26982 -0.70995,-0.63376 -1.25677,-0.80876 -2.96149,-0.94777 -11.940692,-6.28214 -14.178611,-8.42323 -1.40445,-1.34369 -1.9543,-2.27324 -2.757927,-4.66243 -1.237993,-3.68056 -1.712766,-6.60957 -1.694041,-10.45104 0.02389,-4.9013 0.873742,-7.8222 2.70782,-9.30665 0.827179,-0.66949 1.207456,-0.76112 4.21471,-1.01562 1.818023,-0.15385 3.662684,-0.3816 4.099247,-0.50611 0.436562,-0.12451 1.74625,-0.4202 2.910416,-0.6571 1.164167,-0.23689 2.624391,-0.54754 3.244943,-0.69032 0.620552,-0.14279 1.476729,-0.25961 1.902614,-0.25961 0.425886,0 0.847923,-0.11907 0.93786,-0.26459 0.08994,-0.14552 0.677831,-0.26458 1.306432,-0.26458 1.023091,0 1.177742,0.0841 1.475148,0.80209 0.711513,1.71774 -0.244484,6.14621 -1.754068,8.12538 -0.497664,0.65247 -1.448579,1.28314 -3.149768,2.089 -2.052906,0.97247 -2.692627,1.15436 -4.059919,1.15436 -0.905633,0 -1.623033,0.11695 -1.623033,0.26459 0,0.36136 3.391514,0.33717 4.95714,-0.0354 1.551906,-0.36927 2.200375,-0.61413 3.970459,-1.49924 l 1.386974,-0.69354 0.994275,0.9673 c 1.066358,1.03743 3.004991,2.03931 3.964365,2.04877 0.8609,0.009 4.82205,2.15341 7.167632,3.88119 2.30318,1.69654 6.50878,5.8433 9.01265,8.88655 1.74134,2.11645 2.42883,2.44388 1.75743,0.83699 -1.64882,-3.94618 -8.47605,-10.92803 -13.30103,-13.60228 -0.618464,-0.34278 -1.124479,-0.72038 -1.124479,-0.83911 0,-0.45389 1.043214,-0.17945 2.932829,0.77156 1.832,0.92202 2.12132,0.98774 4.3676,0.99219 2.17478,0.004 2.48925,-0.0597 3.27686,-0.66713 l 0.87121,-0.6719 1.35336,0.66843 c 1.0937,0.54018 1.73407,0.66626 3.33772,0.65713 3.10055,-0.0177 4.13924,-0.79621 6.15298,-4.61197 0.65278,-1.23693 1.53554,-2.84427 1.9617,-3.57188 0.42616,-0.7276 0.93227,-1.70987 1.12468,-2.18281 0.19241,-0.47294 0.43435,-0.85989 0.53765,-0.85989 0.25161,0 1.44997,2.7161 2.246,5.09057 1.48102,4.41776 1.47029,4.22665 1.47053,26.20234 l 2.1e-4,20.3127 -2.18281,1.41647 c -3.93267,2.55199 -9.05903,4.95292 -12.76614,5.97903 -4.27786,1.18408 -6.77689,1.69377 -10.31875,2.10455 -2.307302,0.2676 -8.397664,0.38788 -8.621011,0.17025 z m 9.679341,-51.86932 c -1.5288,-0.61607 -3.286515,-1.48601 -3.411689,-1.68854 -0.15527,-0.25123 0.255739,-6.7213 0.633149,-9.96701 0.15229,-1.30969 0.3833,-4.42428 0.51337,-6.92131 0.13006,-2.49703 0.36663,-4.78325 0.52571,-5.08049 0.17146,-0.32037 0.88097,-0.72697 1.74238,-0.99851 1.29003,-0.40664 1.65358,-0.41887 3.23866,-0.10895 2.82079,0.55152 5.92541,2.29468 6.4244,3.60711 0.25158,0.6617 -0.46213,4.46247 -1.56074,8.31152 -0.14537,0.50933 -0.34664,1.2237 -0.44726,1.5875 -0.10063,0.3638 -0.53727,1.85209 -0.9703,3.30729 -1.00105,3.36395 -1.24951,4.2665 -1.5084,5.47932 -0.31251,1.46399 -0.90568,2.19043 -2.07457,2.54064 -1.25762,0.37679 -2.04252,0.35946 -3.10471,-0.0686 z m 9.39271,0.0738 c -2.91326,-1.20426 -2.79428,-0.65745 -1.29999,-5.97462 0.13291,-0.47294 0.34963,-1.24684 0.48159,-1.71979 0.13197,-0.47294 0.54225,-1.84164 0.91174,-3.04154 0.66294,-2.15287 1.69334,-6.22804 2.29161,-9.06314 0.48732,-2.30934 0.49117,-2.31593 1.45661,-2.49705 1.39226,-0.26119 2.94968,0.28843 4.27252,1.50779 1.85959,1.7141 2.0375,2.23672 1.86506,5.47866 -0.13547,2.54689 -0.59645,4.70897 -1.25623,5.8919 -0.14094,0.25269 -0.25625,0.57487 -0.25625,0.71596 0,0.14109 -0.35107,0.85196 -0.78017,1.5797 -0.42909,0.72775 -1.26098,2.25705 -1.84865,3.39844 -1.23838,2.40526 -2.10155,3.29332 -3.61958,3.72398 -1.27012,0.36032 -1.34591,0.36031 -2.21826,-2.9e-4 z m -19.701545,-1.29317 c -0.57663,-0.28765 -1.389287,-0.84845 -1.805904,-1.24623 -0.864992,-0.82588 -0.861291,-1.17081 0.04467,-4.16198 1.229425,-4.05916 0.551165,-7.11776 -1.69284,-7.63383 -0.579564,-0.13328 -1.086208,-0.26893 -1.125875,-0.30145 -0.03967,-0.0325 -0.131394,-1.06779 -0.203838,-2.30062 -0.07245,-1.23283 -0.248349,-2.64819 -0.3909,-3.14523 -0.14255,-0.49704 -0.259182,-1.77065 -0.259182,-2.83024 0,-2.25485 -0.216027,-2.0886 4.101042,-3.156048 2.91361,-0.720423 4.191936,-0.627523 6.462875,0.469678 l 1.077749,0.52071 -0.0081,2.57351 c -0.0044,1.41543 -0.185735,4.71664 -0.402892,7.33601 -0.217157,2.61938 -0.499139,6.586 -0.626627,8.81473 -0.127487,2.22872 -0.273608,4.07857 -0.324712,4.11078 -0.0511,0.0322 -0.575567,0.38161 -1.165472,0.77643 -1.262477,0.84497 -2.241817,0.89122 -3.680029,0.17378 z m -19.92059,-10.76764 c -0.293581,-0.29358 -0.785577,-1.20676 -1.093325,-2.02929 -0.476787,-1.27433 -0.559542,-2.07272 -0.559542,-5.39827 0,-3.52113 0.05821,-4.01821 0.595313,-5.08331 0.328613,-0.65166 0.91298,-1.331196 1.304391,-1.516827 1.294862,-0.614101 3.753131,-0.906974 6.831546,-0.813897 2.470741,0.0747 3.214856,0.193118 3.958487,0.629928 l 0.915779,0.537926 0.622717,3.95992 c 0.902391,5.73838 0.993125,7.0893 0.50869,7.57373 -0.22001,0.22001 -1.512463,0.61039 -2.872117,0.86751 -1.359654,0.25712 -3.357599,0.70002 -4.439878,0.98422 -1.082279,0.28421 -2.703642,0.58546 -3.603028,0.66944 -1.409617,0.13163 -1.7089,0.079 -2.169033,-0.38108 z"
       id="path1" /></g></svg>
