<?xml version="1.0" encoding="UTF-8" standalone="no"?>
<!-- Created with Inkscape (http://www.inkscape.org/) -->

<svg
   width="88.218529mm"
   height="77.109276mm"
   viewBox="0 0 88.218525 77.109277"
   version="1.1"
   id="svg1"
   xml:space="preserve"
   inkscape:version="1.4 (86a8ad7, 2024-10-11)"
   sodipodi:docname="Opening.svg"
   xmlns:inkscape="http://www.inkscape.org/namespaces/inkscape"
   xmlns:sodipodi="http://sodipodi.sourceforge.net/DTD/sodipodi-0.dtd"
   xmlns="http://www.w3.org/2000/svg"
   xmlns:svg="http://www.w3.org/2000/svg"><sodipodi:namedview
     id="namedview1"
     pagecolor="#505050"
     bordercolor="#eeeeee"
     borderopacity="1"
     inkscape:showpageshadow="0"
     inkscape:pageopacity="0"
     inkscape:pagecheckerboard="0"
     inkscape:deskcolor="#505050"
     inkscape:document-units="mm"
     inkscape:zoom="1.4396184"
     inkscape:cx="77.798394"
     inkscape:cy="113.22445"
     inkscape:window-width="1920"
     inkscape:window-height="1010"
     inkscape:window-x="1529"
     inkscape:window-y="-6"
     inkscape:window-maximized="1"
     inkscape:current-layer="layer1" /><defs
     id="defs1" /><g
     inkscape:label="Layer 1"
     inkscape:groupmode="layer"
     id="layer1"
     transform="translate(-59.113033,-104.81266)"><path
       style="fill:#000000"
       d="m 102.841,181.62851 c -2.03671,-0.87029 -2.38146,-1.04607 -2.38355,-1.21532 -10e-4,-0.10231 -0.39264,-0.60274 -0.869724,-1.11206 -0.732274,-0.78176 -2.030817,-2.84323 -4.416584,-7.01146 -0.249875,-0.43656 -1.916222,-3.3536 -3.702993,-6.48229 -1.786772,-3.1287 -3.64977,-6.38459 -4.139996,-7.23532 -1.002473,-1.73966 -1.134847,-2.55427 -0.415072,-2.55427 0.261938,0 0.58936,-0.10435 0.727604,-0.2319 0.138245,-0.12755 0.925898,-0.4793 1.75034,-0.78167 1.680008,-0.61615 1.585904,-0.66302 2.698942,1.3443 0.383275,0.69123 1.010453,1.82232 1.393729,2.51354 0.383275,0.69123 0.782848,1.37584 0.887939,1.52136 0.105092,0.14552 0.548087,0.91943 0.984434,1.71979 0.733431,1.34529 1.475065,2.6752 2.803391,5.02708 0.287661,0.50933 0.822493,1.46183 1.188514,2.11667 0.366021,0.65484 1.101186,1.91088 1.633706,2.79119 0.53252,0.88031 1.04591,1.80304 1.14088,2.05052 0.34045,0.88719 0.96369,0.41782 2.04412,-1.53943 0.604,-1.09417 1.38289,-2.32777 1.73089,-2.74133 0.86508,-1.02809 1.17676,-1.94966 1.17676,-3.47938 0,-1.07068 0.1419,-1.45811 0.81473,-2.22442 0.76923,-0.87609 2.1661,-3.06145 4.51813,-7.06841 1.47769,-2.51741 1.46951,-2.51346 3.58918,-1.72994 0.98648,0.36464 2.12101,0.73582 2.52119,0.82484 0.40018,0.089 0.72761,0.27466 0.72761,0.41254 0,0.13787 -0.87571,1.59411 -1.94602,3.2361 -1.07031,1.64199 -2.22648,3.52121 -2.56925,4.17605 -0.34278,0.65485 -1.03939,1.63746 -1.54802,2.18359 -0.87845,0.94321 -0.91095,1.04481 -0.6486,2.02769 0.32357,1.21228 0.46492,0.90366 -2.4611,5.37327 -1.21225,1.85176 -2.2041,3.47974 -2.2041,3.61772 0,0.13799 -0.29529,0.60182 -0.6562,1.03073 -0.36091,0.42892 -0.88887,1.32265 -1.17324,1.98607 -0.72132,1.68276 -1.66175,2.11043 -3.19764,1.45415 z m -1.71979,-27.61617 c -5.172131,-1.48996 -7.633952,-2.83825 -10.55073,-5.77844 -0.805626,-0.81209 -1.587692,-1.47652 -1.737924,-1.47652 -0.266069,0 -3.072499,-2.03431 -4.099261,-2.97145 -0.430733,-0.39313 -0.444864,-0.46814 -0.08819,-0.46814 0.233594,0 0.464404,0.0929 0.512911,0.20649 0.04851,0.11357 1.516944,0.78933 3.263194,1.5017 1.74625,0.71237 3.903051,1.62274 4.792891,2.02306 3.724625,1.67562 8.552839,2.76694 11.105589,2.5102 2.81398,-0.28301 7.25568,-1.55167 10.36272,-2.95986 0.76471,-0.34658 2.13393,-0.9404 3.04271,-1.31961 0.90879,-0.37921 2.04355,-0.87231 2.52169,-1.09578 0.47815,-0.22346 0.94448,-0.33118 1.03629,-0.23937 0.0918,0.0918 0.11732,0.20467 0.0567,0.2508 -1.21987,0.92807 -3.46348,2.54901 -4.04419,2.92178 -0.41742,0.26796 -1.63573,1.30017 -2.70736,2.29379 -1.88969,1.75215 -4.36696,3.22524 -6.22542,3.70191 -0.49038,0.12578 -1.77652,0.47365 -2.85808,0.77304 -2.27698,0.6303 -2.6018,0.63967 -4.38352,0.1264 z m -19.299188,-2.73213 c -0.209874,-0.33958 -0.133085,-0.47765 1.358497,-2.44259 0.622763,-0.8204 1.306968,-1.55867 1.520455,-1.64059 0.256085,-0.0983 0.853473,0.43582 1.755694,1.56965 0.752144,0.94523 1.323266,1.75279 1.269161,1.79458 -0.05411,0.0418 -1.050873,0.22122 -2.215039,0.39873 -1.164167,0.17752 -2.430133,0.38732 -2.813258,0.46624 -0.383124,0.0789 -0.777104,0.0132 -0.87551,-0.14602 z m 39.275228,-0.22658 c -1.23693,-0.22472 -2.29297,-0.44427 -2.34677,-0.48789 -0.12838,-0.10412 1.6934,-2.58216 2.21904,-3.0184 0.33993,-0.28211 0.5175,-0.23543 1.0666,0.28042 0.94736,0.89 2.30885,3.09581 2.10971,3.41803 -0.20166,0.3263 -0.19102,0.32697 -3.04858,-0.19216 z m -20.6375,-4.01837 c -0.3638,-0.11523 -1.316304,-0.35612 -2.116668,-0.5353 -3.189591,-0.71407 -9.897252,-3.32255 -12.567709,-4.88734 -1.018646,-0.59688 -2.745052,-1.54593 -3.836459,-2.10898 -1.091406,-0.56306 -2.103437,-1.11507 -2.248958,-1.2267 -0.145521,-0.11162 -1.098021,-0.46001 -2.116667,-0.7742 -2.659787,-0.82037 -3.836458,-1.35906 -3.836458,-1.75637 0,-0.38896 1.034298,-2.33223 2.095961,-3.93795 0.611909,-0.92548 1.030763,-1.18585 3.336788,-2.0742 1.450373,-0.55873 2.875168,-1.11232 3.16621,-1.23021 6.815277,-2.76051 8.760545,-3.38671 9.189178,-2.95808 0.168044,0.16805 0.158186,0.72526 -0.02821,1.59438 -0.493112,2.2993 -0.673438,6.96838 -0.311487,8.0651 0.454301,1.37655 4.036616,4.90585 5.720076,5.63543 1.736534,0.75258 5.774183,1.68954 7.258573,1.68439 0.65484,-0.002 1.66687,-0.125 2.24895,-0.27272 4.44491,-1.12802 5.55958,-1.74177 7.9656,-4.38602 2.9481,-3.23999 3.0693,-3.72907 2.35104,-9.4876 -0.21712,-1.74072 -0.39476,-3.25876 -0.39476,-3.37343 0,-0.73189 3.41332,0.32648 9.12812,2.83034 0.43657,0.19127 1.95461,0.7965 3.37344,1.34496 l 2.57969,0.99718 v 1.00782 c 0,0.55592 0.31657,1.65328 0.70601,2.44733 0.65878,1.34323 0.67832,1.48177 0.2922,2.07107 -0.23382,0.35685 -0.9149,0.78235 -1.5659,0.97827 -2.23428,0.67242 -2.76336,0.88158 -5.25314,2.07667 -1.38245,0.66357 -3.20709,1.67359 -4.05475,2.24448 -0.84766,0.57088 -2.21688,1.32915 -3.04271,1.68504 -0.82583,0.35589 -1.79916,0.77804 -2.16296,0.93811 -0.3638,0.16007 -0.89958,0.39014 -1.19063,0.51127 -0.29104,0.12113 -1.18401,0.49941 -1.98437,0.84064 -1.34159,0.57196 -3.81679,1.28997 -6.94911,2.0158 -1.43047,0.33147 -4.75867,0.3551 -5.75089,0.0408 z m -0.667641,-7.37465 c -3.202971,-1.42382 -4.539147,-2.59496 -5.8757,-5.14998 -0.65836,-1.25855 -0.717887,-1.61254 -0.680007,-4.04383 0.03556,-2.282 0.142293,-2.87737 0.743487,-4.14712 0.720274,-1.52124 1.374771,-2.06565 1.761882,-1.46553 0.120517,0.18683 0.160966,0.63734 0.08989,1.00114 -0.306801,1.5703 -0.22865,5.74932 0.123977,6.62956 0.758621,1.89368 1.870559,3.10048 3.810745,4.13584 1.703937,0.90929 2.073637,1.00498 3.868367,1.00132 1.66769,-0.003 2.23587,-0.12983 3.56029,-0.79216 2.51127,-1.25586 3.60625,-2.57816 4.38558,-5.29602 0.33491,-1.168 0.2262,-3.8863 -0.22123,-5.53164 -0.34284,-1.26072 -0.16625,-1.65547 0.47924,-1.07131 0.90366,0.81781 1.61693,2.98988 1.7677,5.38308 0.13084,2.07674 0.0794,2.43366 -0.55677,3.86212 -1.27893,2.87179 -2.60454,4.10651 -5.92652,5.52017 -2.32416,0.98904 -5.05571,0.97576 -7.330928,-0.0356 z m 1.818231,-3.22057 c -1.618747,-0.65303 -4.08152,-2.99883 -4.977917,-4.74148 -0.711797,-1.38377 -0.633189,-4.32804 0.159906,-5.98928 l 0.624711,-1.30853 1.852083,-0.3148 c 2.346117,-0.39877 4.492277,-0.39877 7.011457,1e-5 l 1.98438,0.31413 0.6319,1.27445 c 0.4076,0.82205 0.67853,1.9261 0.76325,3.11022 0.11941,1.66886 0.0549,1.99115 -0.70999,3.54477 -1.55918,3.16716 -4.9588,5.07105 -7.33978,4.11051 z m -31.681937,-7.53639 c -0.234289,-0.35757 -0.680711,-1.33856 -0.992048,-2.17997 -0.311337,-0.84141 -0.787345,-1.84588 -1.057796,-2.23215 -0.27045,-0.38626 -0.491728,-0.76381 -0.491728,-0.83898 0,-0.0752 -0.835796,-1.54508 -1.857324,-3.26645 -1.021528,-1.72137 -2.09614,-3.78461 -2.388028,-4.58497 -0.759725,-2.08319 -1.05093,-2.58532 -1.579472,-2.72354 -0.747125,-0.19538 -2.472044,-3.08796 -2.44874,-4.10639 0.04056,-1.7724 2.316488,-3.24948 5.495439,-3.56654 1.164166,-0.11611 2.384557,-0.19871 2.711979,-0.18355 2.176666,0.10075 3.754715,0.0439 4.49961,-0.16199 1.102399,-0.30477 7.609259,-7.3e-4 11.044661,0.51607 2.568305,0.38636 2.667916,0.38229 3.399457,-0.13913 0.708333,-0.50488 1.069287,-0.53156 6.006132,-0.44386 3.169816,0.0563 5.362029,0.20286 5.528719,0.36961 0.191903,0.19196 0.06295,0.83804 -0.422463,2.11666 -1.068912,2.8156 -0.932401,2.73876 -4.567998,2.57126 -2.524673,-0.11632 -3.397334,-0.0557 -4.588238,0.31892 -1.534605,0.48269 -1.360765,0.48297 -10.85366,-0.0172 -1.994606,-0.10509 -3.375911,-0.0616 -3.836458,0.12086 -0.395812,0.15679 -2.029345,0.3119 -3.630074,0.34468 -1.60073,0.0328 -3.006184,0.10709 -3.123231,0.16511 -0.117048,0.058 -0.02775,0.38794 0.198437,0.73315 0.226189,0.34521 0.411252,0.96666 0.411252,1.38101 0,0.96631 0.82655,2.67457 2.285157,4.72281 0.634935,0.89161 1.154426,1.69297 1.154426,1.7808 0,0.0878 0.397607,0.78709 0.883571,1.5539 1.135478,1.79169 2.556013,4.40325 2.556013,4.69906 0,0.24264 -2.981375,3.17193 -3.567651,3.50532 -0.216582,0.12316 -0.501718,-0.0452 -0.769944,-0.45453 z m 62.873527,-1.14811 c -1.05675,-0.97237 -1.91995,-1.90309 -1.91823,-2.06825 0.002,-0.16517 0.30765,-0.49983 0.67985,-0.7437 0.37219,-0.24387 1.53305,-1.72905 2.57968,-3.3004 1.04664,-1.57135 2.80796,-4.15371 3.91405,-5.73859 3.29227,-4.71739 3.52965,-5.44669 1.89153,-5.81135 -0.9013,-0.20064 -6.55452,-0.28369 -24.04277,-0.35322 l -6.11726,-0.0243 -0.69576,-1.95986 c -0.38268,-1.07793 -0.69577,-2.13054 -0.69577,-2.33913 0,-0.32012 1.59854,-0.40315 10.2526,-0.53251 5.63894,-0.0843 13.05058,-0.0521 16.47032,0.0715 3.41974,0.1236 6.8883,0.15812 7.70791,0.0767 1.2425,-0.12343 1.6717,-0.046 2.58205,0.46561 1.48667,0.83556 1.95422,1.63138 1.91967,3.26754 -0.0204,0.96577 -0.29203,1.88173 -0.95967,3.23604 -0.51217,1.03894 -0.93121,2.01795 -0.93121,2.17558 0,0.15763 -1.57758,2.56783 -3.50573,5.356 -1.92815,2.78817 -4.04151,5.85728 -4.69636,6.82025 -0.65484,0.96297 -1.48828,2.07018 -1.85208,2.46047 l -0.66146,0.70962 z m -57.213016,0.78189 c 0,-0.50587 3.519039,-3.78712 6.237669,-5.81617 2.733109,-2.03985 7.687026,-4.80346 8.610454,-4.80346 0.233127,0 0.827435,-0.27175 1.320685,-0.60388 1.678646,-1.13034 2.969102,-1.58024 6.697132,-2.33491 4.314136,-0.87332 4.771066,-0.89696 7.355186,-0.38052 1.05916,0.21167 2.67338,0.52633 3.58714,0.69925 0.91377,0.17292 1.72446,0.41645 1.80155,0.54119 0.0771,0.12473 0.30994,0.22678 0.51745,0.22678 0.20751,0 0.94462,0.34405 1.63803,0.76455 0.69341,0.42051 1.94968,0.96087 2.79171,1.20081 2.92373,0.83314 10.51428,5.91263 12.85204,8.60041 0.74784,0.8598 1.35971,1.64024 1.35971,1.7343 0,0.2597 -0.99474,-0.0825 -3.04271,-1.04664 -4.3335,-2.04017 -5.49996,-2.48116 -9.525,-3.60108 -9.3371,-2.59792 -16.14464,-3.06542 -22.75417,-1.5626 -6.971711,1.58516 -11.35334,2.8284 -13.567129,3.84953 -0.767962,0.35423 -1.442113,0.64405 -1.498112,0.64405 -0.056,0 -0.927862,0.47625 -1.937472,1.05834 -1.8292,1.05461 -2.444163,1.26346 -2.444163,0.83005 z m 25.254936,-17.74027 c 0.0703,-0.23099 0.29924,-1.07483 0.50869,-1.8752 0.69675,-2.66249 1.41162,-4.31205 1.77215,-4.08923 0.57904,0.35787 1.29418,2.22691 1.91895,5.01527 0.0652,0.29105 0.19439,0.71157 0.28705,0.93449 0.14381,0.34599 -0.18164,0.40747 -2.22311,0.41999 -2.06574,0.0127 -2.37417,-0.0425 -2.26373,-0.40532 z"
       id="path1" /></g></svg>
