<?xml version="1.0" encoding="UTF-8" standalone="no"?>
<!-- Created with Inkscape (http://www.inkscape.org/) -->

<svg
   width="25.163725mm"
   height="24.800262mm"
   viewBox="0 0 25.163724 24.800261"
   version="1.1"
   id="svg1"
   xml:space="preserve"
   inkscape:version="1.4 (86a8ad7, 2024-10-11)"
   sodipodi:docname="Overbreak.svg"
   xmlns:inkscape="http://www.inkscape.org/namespaces/inkscape"
   xmlns:sodipodi="http://sodipodi.sourceforge.net/DTD/sodipodi-0.dtd"
   xmlns="http://www.w3.org/2000/svg"
   xmlns:svg="http://www.w3.org/2000/svg"><sodipodi:namedview
     id="namedview1"
     pagecolor="#505050"
     bordercolor="#eeeeee"
     borderopacity="1"
     inkscape:showpageshadow="0"
     inkscape:pageopacity="0"
     inkscape:pagecheckerboard="0"
     inkscape:deskcolor="#505050"
     inkscape:document-units="mm"
     inkscape:zoom="4.9032548"
     inkscape:cx="24.677486"
     inkscape:cy="45.683941"
     inkscape:window-width="1920"
     inkscape:window-height="1010"
     inkscape:window-x="4601"
     inkscape:window-y="-6"
     inkscape:window-maximized="1"
     inkscape:current-layer="layer1" /><defs
     id="defs1" /><g
     inkscape:label="Layer 1"
     inkscape:groupmode="layer"
     id="layer1"
     transform="translate(-92.951324,-129.13087)"><path
       id="path8"
       style="opacity:1;fill:#000000"
       d="m 104.95687,129.13212 c -0.004,0.002 -0.009,0.005 -0.0134,0.01 -0.0119,0.0119 -0.0527,0.21329 -0.0904,0.44752 -0.0908,0.56389 -0.15506,0.92906 -0.20206,1.1498 -0.0213,0.0995 -0.063,0.30339 -0.093,0.45268 -0.03,0.14928 -0.0724,0.34234 -0.094,0.42944 -0.0218,0.0871 -0.0396,0.251 -0.0398,0.36431 -2e-4,0.17184 0.0259,0.23415 0.15555,0.37569 0.10858,0.11854 0.19867,0.3008 0.29972,0.6041 l 0.1447,0.43408 -0.0801,0.25322 c -0.0442,0.13922 -0.11918,0.40561 -0.16588,0.59221 -0.0468,0.1866 -0.13022,0.45631 -0.18552,0.59944 -0.11107,0.28746 -0.12087,0.29495 -0.73381,0.52142 -0.72206,0.26678 -0.82999,0.27891 -1.2671,0.14469 -0.0995,-0.0306 -0.26224,-0.058 -0.36174,-0.061 l -0.18087,-0.005 -0.0294,0.2036 c -0.0483,0.33157 -0.10641,0.50289 -0.2806,0.82941 -0.0907,0.17001 -0.16485,0.33499 -0.16485,0.36639 0,0.076 -0.0896,0.16929 -0.52038,0.54363 -0.49447,0.42968 -0.99304,0.92417 -0.96274,0.95447 0.0266,0.0266 0.0841,-0.004 0.76326,-0.40308 0.23855,-0.14021 0.46332,-0.25528 0.49972,-0.25528 0.0364,0 0.0854,-0.0166 0.10903,-0.0372 0.0381,-0.0331 0.14338,-0.068 0.56328,-0.18655 0.15568,-0.0439 0.2882,-0.25599 0.3576,-0.57258 0.13392,-0.61114 0.18581,-0.80489 0.22531,-0.84439 0.0612,-0.0612 0.56562,0.12977 0.90072,0.34107 0.41214,0.25992 0.60612,0.30819 0.88986,0.22169 0.12514,-0.0382 0.34993,-0.0694 0.4992,-0.0698 0.34363,-7.8e-4 0.91133,0.15692 0.88883,0.24702 -0.0658,0.26385 -0.0136,0.53333 0.21808,1.12706 0.16018,0.4106 0.20258,0.49764 0.24288,0.49764 0.0211,0 0.035,-0.30016 0.03,-0.66714 -0.01,-0.77153 0.0379,-1.42348 0.10232,-1.40198 0.0244,0.008 0.0892,0.13401 0.14366,0.28009 0.0934,0.25039 0.11722,0.27594 0.41289,0.44131 0.31941,0.17865 0.57519,0.30406 0.80202,0.39326 0.0696,0.0274 0.16121,0.11039 0.20361,0.18449 0.0874,0.15287 0.10407,0.16027 0.84594,0.38757 0.46748,0.14325 1.43449,0.48596 1.71876,0.60875 l 5.2e-4,-5.2e-4 c 0.1824,0.0787 0.24312,0.0215 0.0982,-0.0925 -0.24988,-0.19656 -0.96518,-0.64742 -1.2423,-0.7829 -0.49082,-0.23996 -0.68918,-0.38257 -1.07332,-0.77101 -0.39476,-0.39918 -0.88721,-1.05183 -0.99994,-1.3255 -0.039,-0.0947 -0.10343,-0.24115 -0.14263,-0.32505 -0.0559,-0.1196 -0.0606,-0.18055 -0.0222,-0.28215 0.0269,-0.0713 0.0391,-0.16776 0.0269,-0.21446 -0.0129,-0.0494 0.11378,-0.36377 0.30334,-0.75292 0.36305,-0.74533 0.37634,-0.81968 0.23202,-1.31982 -0.049,-0.16972 -0.12314,-0.46774 -0.16484,-0.66197 -0.048,-0.22371 -0.0952,-0.34648 -0.12868,-0.33538 -0.0633,0.021 -0.11282,0.31374 -0.11782,0.69453 -0.004,0.31223 -0.085,0.54283 -0.27595,0.78135 -0.0715,0.0894 -0.16137,0.23757 -0.19947,0.32917 -0.038,0.0916 -0.0921,0.18073 -0.11989,0.19793 -0.0279,0.0172 -0.17188,-0.0543 -0.31988,-0.15865 l -0.26872,-0.18965 -0.0713,0.1819 c -0.08,0.20365 -0.22402,0.307 -0.17932,0.12867 0.0144,-0.0573 0.0395,-0.21759 0.0558,-0.35605 0.0293,-0.24934 0.0279,-0.25299 -0.13436,-0.37672 -0.0901,-0.0687 -0.2744,-0.2804 -0.40927,-0.47026 -0.13488,-0.18987 -0.30434,-0.40664 -0.37724,-0.48214 -0.2636,-0.27315 -0.26211,-0.20453 -0.0543,-1.90014 0.0859,-0.70037 0.0972,-1.04225 0.0336,-1.01751 z m 4.19509,0.0196 c -0.0502,3e-5 -0.0936,0.007 -0.12919,0.0202 -0.37759,0.1449 -0.32838,0.26029 0.32349,0.75706 0.42294,0.32231 1.16604,1.00274 1.65106,1.51205 0.70525,0.74065 0.85214,1.0757 0.73433,1.67432 -0.10746,0.54601 0.0313,0.98251 0.51211,1.61282 0.49946,0.65482 0.65887,1.18478 0.65887,2.1885 0,1.07507 -0.16049,1.54321 -0.85317,2.48822 -0.46934,0.6403 -0.87117,1.25357 -0.89297,1.36271 -0.0218,0.10914 -0.0547,0.30624 -0.0729,0.4377 -0.0182,0.13146 -0.8761,0.66724 -1.90634,1.19062 -1.03023,0.52339 -2.09489,0.95136 -2.36575,0.95136 -0.27087,0 -0.56587,0.11907 -0.65577,0.26459 -0.0899,0.14552 -0.40735,0.26458 -0.70538,0.26458 -0.37296,0 -0.49446,0.12371 -0.38964,0.39688 0.0994,0.25901 -0.006,0.39515 -0.30231,0.39015 -0.2501,-0.004 -0.93101,-0.23253 -1.51309,-0.50798 -0.56428,-0.26703 -0.89835,-0.47154 -1.04179,-0.57464 -0.0733,-0.0526 0.41308,0.0607 0.69866,0.0522 0.39333,-0.0118 1.01841,-0.15927 1.38906,-0.32815 0.37065,-0.16887 0.94369,-0.47491 1.05162,-0.67593 -0.79108,-0.18095 -1.20392,-0.2207 -1.65623,-0.34158 -1.45886,-0.43634 -1.72454,-0.60318 -2.35128,-0.83251 l -3.128489,-2.51715 c -0.214143,-0.1723 -0.498646,-0.60733 -0.604614,-0.96274 -0.186144,-0.62432 -0.06746,-1.24258 -0.01292,-1.29708 0.08559,-0.0856 0.161783,0.98536 0.245463,1.13895 0.124007,0.2276 0.564409,0.007 0.915189,-0.18035 0.389281,-0.20834 -0.113786,-0.65346 0.02946,-2.37091 0.09919,-1.1894 0.458694,-2.34762 0.617017,-2.65617 0.232519,-0.32205 0.646844,-0.83437 1.020094,-1.23455 0.47232,-0.50642 0.78336,-0.88263 0.51366,-0.88263 -0.21313,0 -0.87692,0.34224 -1.203542,0.57102 -0.650387,0.50532 -1.046718,0.8433 -1.566829,1.5968 l -0.413412,0.65991 -0.767912,1.27692 c 0.252211,-1.34412 0.254224,-1.65749 0.993221,-2.34869 l -1.949751,-0.0134 c -0.877272,-0.006 -1.918063,0.17923 -2.380217,0.40979 -0.593122,0.29588 -0.775271,0.5347 -0.655774,0.85989 0.091,0.24763 0.34816,0.74777 0.571025,1.11157 0.222865,0.36381 1.035294,1.28409 1.805574,2.04483 1.234735,1.21945 1.400432,1.51042 1.400432,2.45928 0.02692,0.31112 0.237358,0.86089 0.526066,1.4826 -2.080869,-0.79498 -1.384962,-0.36557 -3.01222,-1.29191 1.064657,1.8925 2.277564,3.06985 4.421436,3.84266 l -0.03617,-0.0656 c 0.386797,0.60131 0.755074,1.10242 1.00924,1.31827 0.349713,0.29698 0.494983,0.41879 0.958603,0.78083 0.4906,0.36204 1.21658,0.99504 1.85312,1.25677 1.17876,0.56837 1.91827,0.7725 3.51296,1.00614 0.12847,0.0188 -2.11508,0.0232 -2.66599,-0.22686 -0.5509,-0.25005 -1.76837,-0.78872 -2.53266,-1.16376 -0.76429,-0.37503 -1.449955,-0.62178 -1.523425,-0.54828 -0.07347,0.0735 0.217199,0.61786 0.645956,1.20974 0.428759,0.59189 1.144179,1.29133 1.589569,1.55443 0.44538,0.26309 0.80977,0.60298 0.80977,0.75499 0,0.15201 0.29766,0.59726 0.66146,0.98961 0.36381,0.39234 0.66146,0.83578 0.66146,0.98547 0,0.14968 0.36744,0.86907 0.81649,1.59886 0.44904,0.72979 0.97456,1.32706 1.16788,1.32706 0.19331,0 0.73897,-0.62508 1.21285,-1.38907 0.47388,-0.76398 1.25044,-2.07125 1.72548,-2.90525 0.47503,-0.834 0.7632,-1.57868 0.64027,-1.65468 -0.0618,-0.0382 -0.91209,0.37382 -1.60404,0.5917 -0.68436,0.21546 -1.21163,0.23715 -1.11673,0.15865 0.21812,-0.18041 2.36831,-1.29215 3.27732,-1.92909 1.12633,-0.78921 1.53147,-0.94224 1.82211,-1.28415 -0.82241,-0.28968 -0.33966,-0.76377 0.5178,-1.53221 0.43252,-0.42443 0.98509,-0.98384 0.98909,-1.16117 0.004,-0.18739 -2.14933,0.63547 -2.41846,0.72037 -0.3724,0.11754 1.4204,-0.86144 1.86914,-1.26142 0.30683,-0.27349 0.86565,-0.9145 1.25005,-1.52342 0.38439,-0.60892 0.69866,-1.28994 0.69866,-1.51309 0,-0.22315 0.14883,-0.67058 0.33073,-0.99425 0.1819,-0.32368 0.53176,-0.74005 0.77722,-0.92553 0.24547,-0.18549 0.9406,-1.23343 1.54512,-2.32854 0.92779,-1.68074 1.14125,-2.12208 0.85111,-2.47168 -0.26585,-0.32038 -0.29292,-0.27052 -2.09806,-0.2682 l -1.12861,0.0207 c 0.16963,0.61228 0.48719,1.74579 0.42581,2.54661 -0.13512,-0.7568 -0.25113,-1.69682 -0.85731,-2.52026 -0.24982,-0.0742 -0.39642,-0.26179 -0.56586,-0.52038 -0.2197,-0.3353 -0.52607,-0.60978 -0.68109,-0.60978 -0.15502,0 -1.03313,-0.48957 -1.95131,-1.08779 -0.93298,-0.60786 -1.6345,-0.93714 -1.98592,-0.93689 z m -5.87509,3.03341 c -0.0125,0.002 -0.022,0.0109 -0.031,0.0248 -0.0863,0.13312 -0.0287,0.2901 0.13746,0.3731 0.17133,0.0856 0.29796,0.10156 0.33486,0.0419 0.0128,-0.0207 -0.0784,-0.13811 -0.20257,-0.26045 -0.13942,-0.13734 -0.20134,-0.18659 -0.23874,-0.17931 z m -0.69712,1.18545 c -0.0191,0.001 -0.0305,0.0141 -0.0388,0.0357 -0.0152,0.0395 -0.004,0.16225 0.0233,0.27233 0.0277,0.11007 0.0501,0.27091 0.0501,0.35761 0,0.0865 0.0323,0.18911 0.0713,0.22841 0.0888,0.0892 0.18261,0.0896 0.53278,0.002 0.35902,-0.0897 0.50302,-0.16039 0.42582,-0.20929 -0.0316,-0.02 -0.0993,-0.0369 -0.1509,-0.0372 -0.0516,-3.7e-4 -0.22512,-0.11468 -0.38499,-0.25374 -0.34254,-0.29793 -0.47145,-0.39976 -0.52865,-0.39584 z m 6.04304,0.43925 c -0.0259,0.004 -0.0533,0.0133 -0.0796,0.0274 -0.0927,0.0496 -0.21531,0.27787 -0.31471,0.58498 -0.0274,0.0845 -0.0501,0.1605 -0.0501,0.1695 0,0.0482 0.0856,0.003 0.16174,-0.0858 0.17681,-0.20585 0.42633,-0.56816 0.42633,-0.61856 0,-0.0601 -0.0661,-0.09 -0.14366,-0.0775 z m -3.99717,3.51762 c -0.0796,0.0143 -0.15802,0.24269 -0.20154,0.62838 -0.0266,0.23587 -0.0688,0.50555 -0.0941,0.59945 -0.0254,0.0939 -0.0337,0.19067 -0.0186,0.21497 0.045,0.0729 0.0855,0.0542 0.39946,-0.18345 0.19868,-0.1504 0.30127,-0.25929 0.30127,-0.32039 0,-0.0509 -0.0527,-0.22833 -0.11679,-0.39429 -0.0641,-0.16597 -0.13781,-0.35732 -0.16381,-0.42582 -0.0332,-0.0874 -0.0698,-0.12534 -0.10594,-0.11885 z" /></g></svg>
