<?xml version="1.0" encoding="UTF-8" standalone="no"?>
<!-- Created with Inkscape (http://www.inkscape.org/) -->

<svg
   width="93.608597mm"
   height="93.656937mm"
   viewBox="0 0 93.608595 93.656938"
   version="1.1"
   id="svg1"
   xml:space="preserve"
   inkscape:version="1.4 (86a8ad7, 2024-10-11)"
   sodipodi:docname="PastPortal.svg"
   xmlns:inkscape="http://www.inkscape.org/namespaces/inkscape"
   xmlns:sodipodi="http://sodipodi.sourceforge.net/DTD/sodipodi-0.dtd"
   xmlns="http://www.w3.org/2000/svg"
   xmlns:svg="http://www.w3.org/2000/svg"><sodipodi:namedview
     id="namedview1"
     pagecolor="#505050"
     bordercolor="#eeeeee"
     borderopacity="1"
     inkscape:showpageshadow="0"
     inkscape:pageopacity="0"
     inkscape:pagecheckerboard="0"
     inkscape:deskcolor="#505050"
     inkscape:document-units="mm"
     inkscape:zoom="1.5162318"
     inkscape:cx="119.70466"
     inkscape:cy="181.70045"
     inkscape:window-width="1920"
     inkscape:window-height="1111"
     inkscape:window-x="-9"
     inkscape:window-y="-9"
     inkscape:window-maximized="1"
     inkscape:current-layer="layer1" /><defs
     id="defs1" /><g
     inkscape:label="Layer 1"
     inkscape:groupmode="layer"
     id="layer1"
     transform="translate(-91.034888,-94.325761)"><path
       style="fill:#000000"
       d="m 130.36473,187.8662 c 0,0 -10.09061,-3.75921 -14.51028,-6.31316 -6.65673,-3.99842 -11.69506,-11.05461 -15.23296,-17.63985 -3.541494,-6.59192 -5.671705,-13.29526 -3.41288,-25.60872 1.39251,-7.59094 2.149457,-8.54933 6.67456,-15.82635 3.57822,-5.75433 10.095,-10.31414 11.36631,-11.16978 3.81389,-2.85505 5.09205,-3.40087 0.5809,-2.23345 -5.96222,1.49372 -13.70768,8.65076 -15.44195,10.80191 -3.060932,3.79672 -5.614854,8.51032 -8.133722,14.51 -1.055283,2.51356 -1.422536,2.38774 -1.114689,-0.38189 1.002032,-9.01492 13.626971,-35.020019 44.079841,-33.87212 3.79821,0.17455 6.99702,0.52666 10.66258,1.74289 6.85733,2.26436 10.0825,4.30599 14.97205,8.64054 1.8834,1.63126 5.46122,5.50487 5.44785,5.89826 -0.0192,0.56367 4.6918,6.81894 4.95222,6.57563 0.46551,-0.43489 -1.61721,-6.46179 -3.03477,-8.78193 -4.87076,-8.70271 -13.1258,-14.477689 -22.20686,-18.357252 -2.45368,-0.978437 -2.97659,-1.531883 -1.44096,-1.525105 5.44088,0.02401 19.74039,8.072307 24.38438,14.105547 5.92584,7.69857 8.21112,14.48678 9.85208,22.94748 1.12662,6.7506 -0.51642,14.29347 -1.66557,18.8706 -1.31806,5.24967 -8.43462,15.28485 -15.39664,19.92569 -3.57265,2.38148 -4.16818,3.17625 -5.21511,3.59575 -1.24822,0.50015 0.78849,0.45408 2.49938,-0.0565 12.6389,-4.14562 20.33554,-14.60348 25.01433,-26.24387 0.83114,-2.0676 0.59606,1.95763 0.46449,2.36261 -2.15707,6.63972 -3.00243,12.9403 -14.79599,22.90793 -2.96369,2.50484 -5.93232,4.02403 -8.54802,5.23022 -23.23603,10.92211 -42.51243,-1.02799 -49.33792,-9.04786 -1.58524,-1.86264 -3.63523,-4.59301 -4.61445,-6.14599 -1.35145,-2.14329 -1.94391,-2.89033 -2.14401,-2.70339 -1.25682,1.17418 6.11443,16.08139 14.32246,20.64774 0.49179,0.2736 0.95068,0.58684 1.01977,0.6961 0.36456,0.57653 7.66602,4.21002 10.33721,5.14419 1.69421,0.59251 2.12432,0.92954 1.58206,1.23973 -0.29454,0.16848 -1.57956,0.27419 -1.96569,0.0644 z m 18.02067,-7.76087 c 5.56918,-1.18009 8.28116,-2.41968 4.06125,-1.85632 -1.03886,0.13868 -2.48135,0.3313 -3.20554,0.42802 -4.58923,0.61295 -12.35609,-0.63537 -16.20568,-2.60466 -4.06177,-2.07784 -3.79564,-2.92495 0.74215,-2.3623 2.52726,0.31337 9.58229,0.47146 11.11045,0.24898 6.72048,-0.62784 12.70674,-3.68853 18.18328,-7.46918 7.20598,-5.10137 12.45776,-14.29332 13.79419,-22.07266 1.2872,-5.91212 1.00882,-11.96681 -0.73358,-17.76225 -0.95511,-2.86845 -1.38423,-3.4915 -1.21225,-1.76006 0.92349,7.43094 -0.0967,20.24405 -4.09827,24.19002 -0.53423,0.52681 -0.76872,-0.82847 -0.27596,-4.48544 0.6045,-4.48619 1.15409,-13.83796 -3.00992,-21.81069 -1.1479,-2.19786 -5.65995,-8.53251 -6.02074,-8.85653 -2.58048,-2.31754 -16.92735,-14.607089 -32.31198,-12.02059 -2.85619,0.19396 -5.40449,1.17291 -8.0168,2.19797 7.66698,-0.75967 12.4308,-1.0889 19.54499,1.33805 2.42082,0.81178 4.55775,2.21041 4.53205,2.96628 -0.0253,0.7432 -0.15576,0.74944 -4.9056,0.23459 -9.02359,-0.97812 -16.8011,0.52112 -23.58369,4.5461 -6.62505,3.93152 -15.12037,11.62135 -17.899397,25.92394 -0.716539,3.68774 -0.432263,11.94452 0.497333,14.44503 0.109652,0.29494 0.338242,1.07706 0.507983,1.73806 0.372171,1.44924 1.153481,3.48078 1.341131,3.48716 0.0744,0.003 0.0797,-0.0927 0.0112,-0.21179 -0.93152,-1.62847 -1.1199,-11.97397 -0.29038,-15.94662 1.49002,-7.13578 5.3641,-12.27226 4.57498,-6.06576 -1.18355,9.30871 0.99415,22.81735 4.02239,24.95169 0.15948,0.1124 0.20205,0.20319 0.0946,0.20177 -0.35865,-0.005 2.58489,4.43923 4.01995,6.06903 3.23354,3.67234 6.655,6.35966 10.77151,8.46023 1.2881,0.65729 2.55919,1.31991 2.82463,1.47248 1.24585,0.71612 6.19654,2.12691 9.73831,2.77509 2.13816,0.39131 8.78357,0.16412 11.39691,-0.38964 z M 120.67054,163.3129 c -4.56562,-4.86434 -10.99368,-13.73485 -3.54667,-31.1174 1.35947,-3.17322 0.63385,-3.14405 -2.17502,0.19043 -4.1663,4.94593 -6.02092,12.25027 -4.94941,19.49295 0.43714,2.95476 0.10334,3.39195 -0.59019,0.77302 -3.48562,-13.16231 2.79805,-26.98219 14.7764,-32.49826 11.0537,-5.09035 21.53836,-0.0341 22.1256,0.25748 3.68506,1.8297 3.95154,1.8288 2.79172,-0.009 -1.39279,-2.20744 -6.04204,-5.11144 -10.25107,-6.40299 -4.07306,-1.12064 -7.87537,-0.91927 -11.89469,-0.54238 -1.02365,0.0861 -3.67635,0.87524 -4.24371,0.70133 2.30124,-1.15078 4.91578,-1.87652 7.46694,-2.19006 4.13148,-0.29969 9.54801,0.0828 11.18448,0.78986 13.02316,4.10816 18.89265,14.12146 19.81914,22.41804 1.07071,9.5881 -4.02148,16.90884 -3.55774,17.80785 0.54944,1.06517 5.821,-5.24367 6.52345,-7.80707 2.03665,-5.27144 3.3267,-13.33428 0.71526,-18.54456 -0.1893,-0.24455 -0.19214,-0.3663 -0.008,-0.36005 1.02717,0.0349 2.51531,7.10997 2.35557,11.199 -0.21716,9.0165 -3.07263,15.0634 -9.46186,20.99156 -5.21615,4.55688 -10.56758,6.46323 -17.57839,6.262 -4.57566,-0.13133 -5.95364,-0.4895 -12.13962,-3.15539 -1.74411,-0.75164 -1.98929,-0.76211 -1.64881,-0.0704 2.68374,5.45216 16.37029,9.83828 23.30705,7.4692 0.68538,-0.23408 1.59687,-0.24877 1.58928,-0.0256 -0.0347,1.02063 -7.50472,2.59639 -10.01827,2.31065 -6.57519,-0.74746 -14.95499,-1.93498 -20.59144,-7.94021 z m 24.07691,-0.7938 c 0.67052,-0.31815 4.02299,-0.67717 4.80475,-1.16175 l 0.54324,-0.40502 -0.53331,0.11286 c -6.10173,1.29121 -14.59211,-1.00182 -9.0503,-2.44426 4.55147,-1.08807 8.69748,-2.71495 12.31087,-5.75616 6.2657,-5.62394 8.37362,-15.07997 5.20019,-23.32775 -0.83337,-2.16591 -1.02771,-1.98852 -0.36411,0.33233 0.20014,0.69993 1.4248,7.29291 -1.3872,10.53396 -0.90158,-0.72183 -1.17541,-1.81688 -1.40988,-2.90881 -1.39923,-7.01073 -5.02065,-12.07388 -10.86504,-15.19048 -1.79242,-0.95584 -9.3944,-4.4499 -18.74967,-0.68712 -2.05488,0.82649 -1.88875,0.93965 0.35707,0.2432 4.54164,-1.40838 11.32186,-0.61867 11.03262,1.28502 -0.10905,0.71791 -0.45023,0.88328 -3.17807,1.54054 -6.10848,1.47181 -9.90614,3.82009 -12.86561,7.95546 -4.14227,5.76959 -5.8883,15.9848 -1.84827,22.50766 0.0587,0.002 -0.16186,-0.80965 -0.49008,-1.80363 -1.24646,-3.77478 -0.37054,-10.53587 1.35734,-10.47713 0.60218,0.0205 0.72782,0.28277 1.62036,3.38294 4.81967,16.74072 18.32902,17.03474 23.5151,16.26814 z"
       id="path1"
       sodipodi:nodetypes="ccsssccsssssssssssscsssssssssssssssccsssscsssssssssscscssssscssscssssccsssscsssssccsssssscssscsssscccsssssccssscssssssc" /></g></svg>
