<?xml version="1.0" encoding="UTF-8" standalone="no"?>
<!-- Created with Inkscape (http://www.inkscape.org/) -->

<svg
   version="1.1"
   id="svg1"
   width="83"
   height="72"
   viewBox="0 0 83 72"
   sodipodi:docname="Potential.svg"
   inkscape:version="1.4 (86a8ad7, 2024-10-11)"
   xmlns:inkscape="http://www.inkscape.org/namespaces/inkscape"
   xmlns:sodipodi="http://sodipodi.sourceforge.net/DTD/sodipodi-0.dtd"
   xmlns="http://www.w3.org/2000/svg"
   xmlns:svg="http://www.w3.org/2000/svg">
  <defs
     id="defs1" />
  <sodipodi:namedview
     id="namedview1"
     pagecolor="#505050"
     bordercolor="#eeeeee"
     borderopacity="1"
     inkscape:showpageshadow="0"
     inkscape:pageopacity="0"
     inkscape:pagecheckerboard="0"
     inkscape:deskcolor="#505050"
     inkscape:zoom="7.9353094"
     inkscape:cx="24.510701"
     inkscape:cy="49.147422"
     inkscape:window-width="1920"
     inkscape:window-height="1010"
     inkscape:window-x="1529"
     inkscape:window-y="-6"
     inkscape:window-maximized="1"
     inkscape:current-layer="g1" />
  <g
     inkscape:groupmode="layer"
     inkscape:label="Image"
     id="g1">
    <path
       style="fill:#000000"
       d="m 52.924667,52.710439 -8.005195,-6.8334 c 0,0 -0.729875,-1.578828 -1.492915,-8.885838 -0.08895,-0.851751 0.598149,-2.496359 0.463929,-3.470463 -0.550846,-3.997793 -2.223429,-7.997893 -2.974599,-10.820984 l -1.092964,-4.107641 -0.690238,-1.250981 0.04471,-1.175067 1.116138,-0.916311 0.973791,-7.4074562 c 0.128829,-3.023328 0.558905,-4.8168813 1.089109,-6.2554455 l 0.483424,0.2811534 c -0.381569,3.5832134 1.976682,6.320878 3.231586,9.5307703 l 1.898428,4.855952 0.833548,-0.06229 c -0.824201,3.714198 0.747108,8.329357 0.747108,8.329357 l -1.547042,0.78842 c -1.659187,4.590801 1.747254,8.377909 6.700678,8.946848 l 0.413115,5.577851 c 2.640742,0.957339 3.920169,1.307876 4.057595,3.166848 0.06956,0.940916 0.307283,1.579767 1.083316,2.916388 1.6505,2.842785 3.967,6.631199 5.14777,8.418699 1.180784,1.7875 1.990184,3.228893 1.798674,3.203096 -0.19151,-0.0258 -14.279974,-4.829508 -14.279974,-4.829508 z M 40.317464,35.920121 38.399712,46.269069 c 0,0 -1.002704,1.421267 -6.950262,5.734175 -0.693282,0.502744 -2.461158,0.729584 -3.23779,1.33269 -3.187353,2.475188 -5.806976,5.932284 -7.885839,7.984703 l -3.01155,2.999641 -0.738552,1.22308 -1.040123,0.548567 -1.351497,-0.508769 -6.9026184,2.858765 c -2.6830249,1.39946 -4.4514504,1.923361 -5.9624469,2.183115 l 0.00191,-0.559233 c 3.2942849,-1.460379 4.4868535,-4.871234 6.6398885,-7.562449 l 3.2571288,-4.071291 -0.470555,-0.690841 c 3.628961,-1.14246 6.84102,-4.810072 6.84102,-4.810072 l 1.456089,0.945912 c 4.805547,-0.857364 6.383205,-5.700608 4.400293,-10.275339 l 4.624748,-3.145598 c -0.490636,-2.765735 -0.826471,-4.0491 0.714981,-5.097235 0.780203,-0.530514 1.214727,-1.055711 1.984576,-2.395903 1.637349,-2.85038 3.760886,-6.750232 4.718975,-8.666332 0.958082,-1.916112 1.802002,-3.337569 1.875374,-3.158801 0.07337,0.17877 3.243059,13.327763 2.954009,14.782274 z m -8.207243,17.785824 9.951951,-3.425957 c 0,0 1.730746,0.173015 8.412926,3.226388 0.77892,0.355916 1.846754,1.783001 2.754065,2.162052 3.723669,1.555658 8.022478,2.133731 10.832415,2.932699 l 4.093601,1.144429 1.42819,0.04067 0.989567,0.635248 0.222559,1.426834 5.886701,4.600591 c 2.539049,1.64631 3.865717,2.927619 4.835729,4.11491 l -0.487698,0.273672 c -2.89302,-2.14836 -6.44899,-1.507085 -9.851455,-2.056109 l -5.147276,-0.830568 -0.369639,0.7497 C 62.880781,66.104317 58.107058,65.11423 58.107058,65.11423 l 0.106439,-1.733094 C 55.101292,59.62048 50.10897,60.631791 47.103367,64.610038 l -5.014879,-2.476704 c -2.16575,1.788727 -3.117451,2.712889 -4.788668,1.887238 -0.845885,-0.4179 -1.516951,-0.537537 -3.062486,-0.54779 -3.287111,-0.02181 -7.727056,0.0499 -9.866541,0.159345 -2.139492,0.109456 -3.792228,0.07474 -3.672751,-0.07714 0.11948,-0.151876 11.412185,-9.849053 11.412185,-9.849053 z"
       id="path1"
       sodipodi:nodetypes="ccssscccccccsccccccssssccccssccccccccsccccccsscsccccssccccccccsccccccsssscc" />
  </g>
</svg>
