<?xml version="1.0" encoding="UTF-8" standalone="no"?>
<!-- Created with Inkscape (http://www.inkscape.org/) -->

<svg
   width="58.931507mm"
   height="49.566898mm"
   viewBox="0 0 58.931505 49.566899"
   version="1.1"
   id="svg1"
   xml:space="preserve"
   inkscape:version="1.4 (86a8ad7, 2024-10-11)"
   sodipodi:docname="Precision.svg"
   xmlns:inkscape="http://www.inkscape.org/namespaces/inkscape"
   xmlns:sodipodi="http://sodipodi.sourceforge.net/DTD/sodipodi-0.dtd"
   xmlns="http://www.w3.org/2000/svg"
   xmlns:svg="http://www.w3.org/2000/svg"><sodipodi:namedview
     id="namedview1"
     pagecolor="#505050"
     bordercolor="#eeeeee"
     borderopacity="1"
     inkscape:showpageshadow="0"
     inkscape:pageopacity="0"
     inkscape:pagecheckerboard="0"
     inkscape:deskcolor="#505050"
     inkscape:document-units="mm"
     inkscape:zoom="2.0359279"
     inkscape:cx="139.98531"
     inkscape:cy="124.75884"
     inkscape:window-width="1920"
     inkscape:window-height="1010"
     inkscape:window-x="4601"
     inkscape:window-y="-6"
     inkscape:window-maximized="1"
     inkscape:current-layer="layer1" /><defs
     id="defs1" /><g
     inkscape:label="Layer 1"
     inkscape:groupmode="layer"
     id="layer1"
     transform="translate(-73.736947,-104.81264)"><path
       id="path15"
       d="m 103.05299,104.81266 c -0.3782,0.007 -1.04747,1.61323 -1.70067,4.10931 -0.20945,0.80037 -0.4382,1.64435 -0.5085,1.87534 -0.11044,0.36282 0.1982,0.41784 2.26394,0.40514 2.04147,-0.0125 2.36693,-0.0741 2.22312,-0.42013 -0.0927,-0.22292 -0.22212,-0.64326 -0.28732,-0.93431 -0.62477,-2.78836 -1.3397,-4.65733 -1.91874,-5.0152 -0.0225,-0.0139 -0.0466,-0.0206 -0.0718,-0.0202 z m 0.43149,9.44904 c -1.14392,-0.0424 -2.33333,0.17144 -5.029662,0.71726 -3.72803,0.75467 -5.01862,1.20441 -6.697266,2.33475 -0.49325,0.33213 -1.087206,0.60409 -1.320333,0.60409 -0.923428,0 -5.877735,2.76348 -8.610844,4.80333 -2.71863,2.02905 -6.237345,5.31031 -6.237345,5.81618 0,0.43341 0.615095,0.22469 2.444295,-0.82992 1.00961,-0.58209 1.88135,-1.05834 1.93735,-1.05834 0.056,0 0.730137,-0.28966 1.498099,-0.64389 2.213789,-1.02113 6.59542,-2.26473 13.567131,-3.84989 6.609525,-1.50282 13.417065,-1.03522 22.754165,1.5627 4.02504,1.11992 5.1915,1.56116 9.525,3.60133 2.04797,0.96414 3.04271,1.30614 3.04271,1.04644 0,-0.0941 -0.61177,-0.87446 -1.35961,-1.73426 -2.33776,-2.68778 -9.92871,-7.76737 -12.85244,-8.60051 -0.84203,-0.23994 -2.09815,-0.78045 -2.79156,-1.20096 -0.69341,-0.4205 -1.43064,-0.76429 -1.63815,-0.76429 -0.20751,0 -0.44018,-0.10213 -0.51728,-0.22686 -0.0771,-0.12474 -0.88767,-0.36813 -1.80144,-0.54105 -0.91376,-0.17292 -2.52822,-0.48751 -3.58738,-0.69918 -0.96904,-0.19367 -1.63908,-0.31149 -2.32544,-0.33693 z m -0.77462,9.525 c -1.14471,-1e-5 -2.26756,0.0998 -3.440622,0.2992 l -1.852083,0.31471 -0.624768,1.30845 c -0.793095,1.66124 -0.871994,4.60553 -0.160197,5.9893 0.896397,1.74265 3.359245,4.0888 4.97799,4.74183 2.38098,0.96054 5.78094,-0.9437 7.34012,-4.11086 0.76494,-1.55362 0.82945,-1.87563 0.71004,-3.54449 -0.0847,-1.18412 -0.35567,-2.28835 -0.76327,-3.1104 l -0.632,-1.27435 -1.98437,-0.31419 c -1.25959,-0.1994 -2.42614,-0.2992 -3.57084,-0.2992 z m -7.305502,0.8294 c -0.381153,-0.0288 -0.884514,0.56284 -1.424719,1.70377 -0.150299,0.31744 -0.269767,0.59246 -0.364836,0.86248 v 5.2e-4 c -0.285067,0.8099 -0.351607,1.57287 -0.378271,3.28404 -0.01894,1.21564 -0.01339,1.91166 0.07906,2.46135 v 5.1e-4 c 0.04623,0.27463 0.11436,0.51269 0.211874,0.76068 v 5.2e-4 c 0.04875,0.12394 0.105009,0.25027 0.169499,0.38499 v 5.1e-4 c 0.06452,0.13476 0.137407,0.27795 0.219624,0.43512 0.751811,1.4372 1.503575,2.43644 2.587439,3.2892 0.361288,0.28426 0.759225,0.55248 1.206645,0.81494 0.14914,0.0875 0.304038,0.1743 0.464571,0.26097 0.321067,0.17333 0.66555,0.34555 1.037663,0.52038 0.186056,0.0874 0.379107,0.17559 0.579293,0.26458 0.71101,0.31606 1.46642,0.53478 2.24018,0.65578 0.15475,0.0242 0.31012,0.0446 0.46612,0.061 1.56013,0.16401 3.17176,-0.0629 4.62452,-0.68109 3.32198,-1.41366 4.64784,-2.64829 5.92677,-5.52008 0.31798,-0.714 0.48985,-1.16055 0.56586,-1.68775 v -5.2e-4 c 0.076,-0.52742 0.0561,-1.13565 -0.009,-2.17402 -0.15077,-2.3932 -0.86419,-4.56533 -1.76785,-5.38314 -0.64549,-0.58416 -0.82188,-0.18947 -0.47904,1.07125 0.44743,1.64534 0.55608,4.36397 0.22117,5.53197 -0.14612,0.5096 -0.30345,0.96987 -0.47904,1.39009 v 5.2e-4 c -0.23407,0.56011 -0.50103,1.04857 -0.81752,1.48621 v 5.2e-4 c -0.71227,0.98479 -1.67679,1.71212 -3.08922,2.41846 -1.32442,0.66233 -1.8923,0.7892 -3.55999,0.7922 -1.79473,0.004 -2.16456,-0.0922 -3.868498,-1.00149 -1.940186,-1.03536 -3.052,-2.24199 -3.810621,-4.13567 -0.132209,-0.33002 -0.22569,-1.12405 -0.274918,-2.07016 v -5.1e-4 c -0.08203,-1.57724 -0.04086,-3.57746 0.150895,-4.5589 0.07107,-0.3638 0.0306,-0.81414 -0.08992,-1.00097 -0.09678,-0.15003 -0.210396,-0.22823 -0.337447,-0.23823 z m 21.283452,0.16382 c -0.23269,0.0136 -0.35295,0.0881 -0.35295,0.22531 0,0.11467 0.17769,1.63271 0.39481,3.37343 0.71826,5.75853 0.59682,6.24781 -2.35128,9.4878 -2.40602,2.64425 -3.52049,3.25827 -7.9654,4.38629 -0.58208,0.14772 -1.59412,0.27034 -2.24896,0.27234 -0.3711,0.001 -0.90179,-0.0562 -1.51619,-0.15503 -1.84318,-0.29656 -4.439881,-0.96467 -5.742282,-1.52911 -0.105216,-0.0456 -0.218106,-0.1022 -0.33693,-0.16846 -0.118824,-0.0663 -0.243644,-0.14236 -0.373621,-0.22686 -1.819673,-1.18309 -4.612,-4.03551 -5.009513,-5.23999 -0.361951,-1.09672 -0.18202,-5.76584 0.311092,-8.06514 0.186394,-0.86912 0.196466,-1.42669 0.02842,-1.59474 -0.02679,-0.0268 -0.05976,-0.0494 -0.09922,-0.0677 -0.03946,-0.0183 -0.08525,-0.0321 -0.139009,-0.0414 -0.752651,-0.12947 -2.987508,0.65207 -8.950875,3.06752 -0.291042,0.11789 -1.715842,0.67117 -3.166215,1.2299 -2.306025,0.88835 -2.724838,1.14881 -3.336747,2.07429 -1.061663,1.60572 -2.095996,3.54878 -2.095996,3.93774 0,0.39731 1.176671,0.93611 3.836458,1.75648 1.018646,0.31419 1.971146,0.6625 2.116667,0.77412 0.145521,0.11163 1.157552,0.66374 2.248958,1.2268 1.091407,0.56305 2.817812,1.51203 3.836458,2.10891 2.670457,1.56479 9.378118,4.17349 12.567709,4.88756 0.800364,0.17918 1.752866,0.42014 2.116666,0.53537 0.62014,0.19645 2.15272,0.26073 3.56413,0.2005 0.84684,-0.0361 1.65,-0.11704 2.18643,-0.24133 3.13232,-0.72583 5.60785,-1.44394 6.94944,-2.0159 0.80036,-0.34123 1.69334,-0.71964 1.98438,-0.84077 0.29105,-0.12113 0.82682,-0.35101 1.19062,-0.51108 0.3638,-0.16007 1.33683,-0.58256 2.16266,-0.93845 0.82583,-0.35589 2.19505,-1.11377 3.04271,-1.68465 0.84766,-0.57089 2.6726,-1.58125 4.05505,-2.24482 2.48978,-1.19509 3.01863,-1.40394 5.25291,-2.07636 0.651,-0.19592 1.33198,-0.62139 1.5658,-0.97824 0.28951,-0.44185 0.35079,-0.63059 0.0858,-1.26348 v -5.2e-4 c -0.0884,-0.2111 -0.21306,-0.47138 -0.37776,-0.80719 -0.38944,-0.79405 -0.7059,-1.89147 -0.7059,-2.44739 v -1.00769 l -2.57968,-0.99736 c -1.41883,-0.54846 -2.93687,-1.15387 -3.37344,-1.34514 -4.2861,-1.87789 -7.27755,-2.94264 -8.50543,-3.04891 -0.10232,-0.009 -0.19218,-0.0113 -0.26975,-0.007 z M 84.645325,143.3178 c -0.356674,0 -0.342883,0.0751 0.08785,0.46819 1.026762,0.93714 3.833422,2.9714 4.099491,2.9714 0.150232,0 0.932252,0.6643 1.737878,1.47639 2.916778,2.94019 5.378649,4.2885 10.550776,5.77846 1.78172,0.51327 2.10622,0.50421 4.3832,-0.12609 1.08156,-0.29939 2.36784,-0.6473 2.85822,-0.77308 1.85846,-0.47667 4.33577,-1.94995 6.22546,-3.7021 1.07163,-0.99362 2.28991,-2.02596 2.70733,-2.29392 0.58071,-0.37277 2.82433,-1.99371 4.0442,-2.92178 0.0606,-0.0461 0.0348,-0.15883 -0.0568,-0.25063 -0.0918,-0.0918 -0.55796,0.0158 -1.03611,0.23926 -0.47814,0.22347 -1.61302,0.71685 -2.52181,1.09606 -0.90878,0.37921 -2.278,0.97272 -3.04271,1.3193 -3.10704,1.40819 -7.54869,2.67701 -10.36267,2.96002 -2.55275,0.25674 -7.380644,-0.83482 -11.105269,-2.51044 -0.88984,-0.40032 -3.046739,-1.31024 -4.792989,-2.02261 -1.74625,-0.71237 -3.214857,-1.38815 -3.263367,-1.50172 -0.04851,-0.11359 -0.279036,-0.20671 -0.51263,-0.20671 z m 0.108003,3.8685 c -0.01866,0.001 -0.03619,0.005 -0.05219,0.0109 -0.213487,0.0819 -0.898074,0.81981 -1.520837,1.64021 -1.491582,1.96494 -1.567931,2.10317 -1.358057,2.44275 0.09841,0.15922 0.492275,0.22514 0.875399,0.14624 0.383125,-0.0789 1.649098,-0.2886 2.813265,-0.46612 1.164166,-0.17751 2.160742,-0.35714 2.214852,-0.39894 0.0541,-0.0418 -0.517029,-0.84949 -1.269173,-1.79472 -0.845833,-1.06297 -1.42334,-1.59846 -1.703256,-1.58027 z m 36.558492,0.18965 c -0.10994,0.006 -0.21462,0.0658 -0.3421,0.17157 -0.52564,0.43624 -2.34736,2.9143 -2.21898,3.01842 0.0538,0.0436 1.10969,0.26311 2.34662,0.48783 2.85756,0.51913 2.84674,0.51853 3.0484,0.19223 0.19914,-0.32222 -1.16208,-2.52839 -2.10944,-3.41839 -0.27455,-0.25793 -0.45632,-0.39835 -0.61184,-0.43925 -0.0389,-0.0102 -0.076,-0.0144 -0.11266,-0.0124 z" /></g></svg>
