<?xml version="1.0" encoding="UTF-8" standalone="no"?>
<!-- Created with Inkscape (http://www.inkscape.org/) -->

<svg
   width="49.52673mm"
   height="45.575508mm"
   viewBox="0 0 49.52673 45.575509"
   version="1.1"
   id="svg1"
   xml:space="preserve"
   inkscape:version="1.4 (86a8ad7, 2024-10-11)"
   sodipodi:docname="PrimordialZoneMarker.svg"
   xmlns:inkscape="http://www.inkscape.org/namespaces/inkscape"
   xmlns:sodipodi="http://sodipodi.sourceforge.net/DTD/sodipodi-0.dtd"
   xmlns="http://www.w3.org/2000/svg"
   xmlns:svg="http://www.w3.org/2000/svg"><sodipodi:namedview
     id="namedview1"
     pagecolor="#505050"
     bordercolor="#eeeeee"
     borderopacity="1"
     inkscape:showpageshadow="0"
     inkscape:pageopacity="0"
     inkscape:pagecheckerboard="0"
     inkscape:deskcolor="#505050"
     inkscape:document-units="mm"
     inkscape:zoom="2.8792368"
     inkscape:cx="142.91982"
     inkscape:cy="61.821937"
     inkscape:window-width="1920"
     inkscape:window-height="1010"
     inkscape:window-x="4601"
     inkscape:window-y="-6"
     inkscape:window-maximized="1"
     inkscape:current-layer="layer1" /><defs
     id="defs1" /><g
     inkscape:groupmode="layer"
     id="layer6"
     inkscape:label="Layer 2"
     style="display:inline;fill:#ffffff"
     transform="translate(-80.610016,-10.117916)" /><g
     inkscape:label="Layer 1"
     inkscape:groupmode="layer"
     id="layer1"
     transform="translate(-143.2148,-85.018591)"
     style="display:inline"><path
       id="path2"
       style="display:inline;fill:#000000;fill-opacity:1"
       d="m 185.68201,85.018591 v 21.580079 l 2.01539,1.22111 -2.01539,1.41077 v 21.36355 l 7.05952,-22.79034 z m -11.90628,6.407361 c -0.1129,0.0053 -0.22762,0.03469 -0.35657,0.08372 -0.34353,0.13061 -0.95112,0.408443 -1.35031,0.617533 -0.3992,0.2091 -1.14226,0.814831 -1.65158,1.346171 -0.50932,0.53134 -1.31933,1.209898 -1.79989,1.507918 -0.77729,0.48204 -1.1222,0.521151 -3.1228,0.354501 -1.50556,-0.12542 -2.21538,-0.28735 -2.14768,-0.49041 0.0556,-0.16682 0.50848,-0.429537 1.00614,-0.583427 0.49766,-0.15388 1.23228,-0.441991 1.63246,-0.640271 0.40018,-0.19829 0.72761,-0.50074 0.72761,-0.67231 0,-0.17156 -0.28737,-0.442687 -0.63821,-0.602547 -0.35084,-0.15985 -1.03545,-0.364986 -1.52135,-0.455786 -0.48591,-0.0909 -1.47323,-0.03271 -2.19418,0.129191 -0.72095,0.16187 -1.67345,0.44853 -2.11667,0.63717 -0.44322,0.18863 -1.23114,0.480133 -1.7508,0.648023 -0.51965,0.1679 -1.23403,0.305474 -1.5875,0.305924 -0.35347,4.5e-4 -1.41625,0.400131 -2.36213,0.887801 -0.94589,0.48767 -2.96994,1.551144 -4.49791,2.363164 -2.77812,1.47641 -2.77813,1.476269 -2.77813,2.552299 0,0.899594 -0.0868,1.075784 -0.52916,1.075894 -0.33463,9e-5 -0.79025,0.41368 -1.23921,1.12448 -0.39047,0.6182 -1.08489,2.136 -1.54305,3.37292 -0.55894,1.50907 -0.7394,2.13706 -0.74001,3.10576 -2e-4,0.3229 0.0198,0.68374 0.0522,1.12758 0.0797,1.09141 0.16538,2.82438 0.31368,3.83646 0.13171,0.89892 0.48832,1.68545 0.87643,2.45618 0.23535,0.25966 1.06447,0.93345 1.84278,1.49706 1.41511,1.02475 1.41511,1.02447 2.24896,0.54777 0.45861,-0.26218 1.10194,-0.71847 1.42937,-1.01389 0.43023,-0.38818 0.59655,-0.83607 0.59945,-1.6154 0.002,-0.5931 0.11163,-1.24855 0.24339,-1.45676 0.17607,-0.27823 0.2914,-0.10291 0.43564,0.66146 0.10794,0.57201 0.19679,1.36719 0.1974,1.76733 7.8e-4,0.51523 -0.3205,1.02487 -1.10122,1.74563 -0.60633,0.55976 -1.09794,1.1848 -1.09244,1.38906 0.006,0.20425 0.49929,0.72823 1.09709,1.16479 0.59781,0.43656 1.51648,1.03188 2.04173,1.32292 0.52524,0.29105 1.37093,0.78634 1.87947,1.10019 0.50853,0.31384 1.63938,0.92238 2.51251,1.35237 1.0025,0.4937 2.43996,0.9085 3.90106,1.12551 1.87843,0.27899 2.59616,0.27994 3.81475,0.008 0.82553,-0.18475 1.98717,-0.60839 2.58124,-0.94154 0.59407,-0.33315 1.11528,-0.78028 1.15858,-0.99374 0.051,-0.25159 -0.21658,-0.44722 -0.76067,-0.55604 -0.46166,-0.0923 -1.74144,-0.16795 -2.84376,-0.16795 -1.47532,0 -1.92634,-0.0781 -1.70894,-0.29558 0.16244,-0.16244 1.58554,-0.35575 3.16208,-0.42995 2.16247,-0.10174 3.28885,-0.0273 4.58629,0.30386 0.94589,0.2414 2.7479,0.96395 4.00492,1.60558 1.84008,0.93928 2.3621,1.10506 2.67787,0.85111 0.21571,-0.17347 0.83946,-0.8228 1.38597,-1.4428 0.99365,-1.12727 0.99361,-1.12707 0.27956,-2.20607 -0.39272,-0.59345 -1.0521,-2.11045 -1.46502,-3.37085 -0.41292,-1.26041 -0.79086,-2.589 -0.84026,-2.9528 -0.0833,-0.61295 -0.0185,-0.65591 0.8847,-0.58601 0.58803,0.0455 1.62926,-0.19064 2.62516,-0.59531 0.90786,-0.3689 1.84176,-0.67076 2.07533,-0.67076 0.23358,0 0.68944,-0.18533 1.01286,-0.41186 0.32342,-0.22654 0.58807,-0.63504 0.58807,-0.90744 0,-0.27239 -0.18422,-0.67929 -0.40927,-0.90434 -0.22504,-0.22505 -1.02214,-0.59137 -1.77147,-0.8139 -0.9121,-0.27086 -1.45045,-0.31637 -1.62833,-0.13849 -0.14614,0.14614 -0.56218,0.26561 -0.92449,0.26561 -0.36232,0 -1.37999,-0.13614 -2.26187,-0.3023 -0.88189,-0.16615 -2.05,-0.40901 -2.59571,-0.5395 -0.5457,-0.1305 -0.99219,-0.35331 -0.99219,-0.49558 0,-0.14226 0.38696,-0.42386 0.8599,-0.6258 0.47294,-0.20194 1.33615,-0.49352 1.91823,-0.64751 0.58208,-0.15399 1.89176,-0.35046 2.91041,-0.43666 1.01864,-0.0862 2.23903,-0.22286 2.71198,-0.30386 0.47294,-0.081 0.8599,-0.30152 0.8599,-0.48989 0,-0.18837 -0.55631,-0.7109 -1.2361,-1.16117 -0.81316,-0.5386 -1.56516,-0.81856 -2.19832,-0.81856 -0.52932,0 -1.19056,-0.1668 -1.46916,-0.37052 -0.48162,-0.35217 -0.48673,-0.44662 -0.1049,-1.91823 0.37599,-1.44912 0.45547,-1.55331 1.24953,-1.63091 0.76344,-0.0746 0.84853,-0.168413 0.84853,-0.942053 0,-0.64731 -0.19516,-1.00397 -0.79013,-1.44384 -0.4345,-0.32124 -0.86158,-0.86801 -0.94878,-1.21543 -0.0872,-0.34742 -0.0205,-0.889184 0.14779,-1.203544 0.24265,-0.45339 0.22135,-0.699785 -0.10128,-1.192175 -0.22369,-0.3414 -0.73798,-0.694982 -1.14309,-0.785482 -0.40511,-0.0905 -1.20036,-0.567353 -1.76733,-1.059883 -0.6385,-0.554648 -0.96047,-0.757446 -1.29914,-0.741557 z m -3.49281,4.301029 c 0.21924,0 0.63079,0.231844 0.91415,0.515214 0.28337,0.28336 0.65519,1.027516 0.82631,1.653646 0.23329,0.85358 0.23668,1.421074 0.0139,2.267049 -0.16345,0.62055 -0.29714,1.24563 -0.29714,1.38906 0,0.14343 0.1786,0.26045 0.39688,0.26045 0.21828,0 0.39687,0.16789 0.39687,0.3731 0,0.20521 -0.47906,0.97912 -1.06453,1.71979 -0.58547,0.74067 -1.17145,1.34669 -1.30225,1.34669 -0.1308,0 -0.67776,-0.50602 -1.21543,-1.12448 -0.53767,-0.61846 -1.15364,-1.53482 -1.36891,-2.03657 -0.18527,-0.43184 -0.27954,-0.93736 -0.27233,-1.4304 0.002,-0.16435 0.016,-0.32738 0.0413,-0.48576 0.0883,-0.552089 0.42703,-1.473772 0.75292,-2.048452 0.32589,-0.57468 0.85952,-1.349469 1.18598,-1.721859 0.32646,-0.37238 0.77294,-0.677478 0.99219,-0.677478 z m -8.18503,7.757149 c 0.0277,0.002 0.0505,0.007 0.0672,0.0176 0.13371,0.0826 0.31402,0.58589 0.4005,1.1188 0.0865,0.53291 0.44597,1.39929 0.79891,1.92494 0.35293,0.52565 0.69773,1.25316 0.76637,1.61696 0.0686,0.3638 0.052,0.95911 -0.0367,1.32291 -0.0888,0.3638 -0.43687,1.17879 -0.7736,1.81075 -0.40035,0.75136 -0.58309,1.4815 -0.52813,2.10995 0.0653,0.74716 -0.0197,0.9816 -0.38189,1.05368 -0.25625,0.051 -0.94341,-0.28552 -1.52704,-0.74776 -0.58363,-0.46224 -1.43872,-1.38916 -1.90014,-2.05982 -0.6454,-0.93805 -0.83871,-1.50121 -0.83871,-2.44223 0,-0.9371 0.23351,-1.62318 0.9989,-2.9316 0.54951,-0.93936 1.39946,-1.98189 1.88878,-2.31718 0.42815,-0.29337 0.87174,-0.48817 1.06557,-0.47697 z m 7.87497,8.18245 c 0.0997,0.003 0.19973,0.0161 0.2961,0.0403 0.35879,0.09 0.97907,0.44482 1.37873,0.78859 0.72664,0.62504 0.72684,0.62505 0.12041,0.81752 -0.53394,0.16947 -0.58557,0.30809 -0.43202,1.1591 0.0959,0.5316 0.39601,1.6212 0.66714,2.42156 0.27113,0.80037 0.53994,1.8124 0.59738,2.24896 0.0574,0.43656 0.0564,1.06928 -0.002,1.4056 h 5.1e-4 c -0.0584,0.33632 -0.27771,0.67713 -0.48731,0.75757 -0.20961,0.0804 -0.72928,0.002 -1.15445,-0.17415 -0.42517,-0.17611 -1.45061,-1.0307 -2.27893,-1.89911 -1.12953,-1.18419 -1.41167,-1.47992 -1.42627,-2.25154 -0.005,-0.25721 0.02,-0.56742 0.0532,-0.98082 0.0911,-1.13556 0.33904,-1.98121 0.7922,-2.69906 0.36295,-0.57494 0.85316,-1.20544 1.08934,-1.40146 0.19032,-0.15795 0.48692,-0.24182 0.786,-0.23306 z"
       sodipodi:nodetypes="cccccccccsssccccscccccsccscscscccssccsssscscssscsccsccccsssscsssssssssccsssssssssssssscsscccscccsssssssccscssccccccscsscscscccccscscccccsccsscc" /></g></svg>
