<?xml version="1.0" encoding="UTF-8" standalone="no"?>
<!-- Created with Inkscape (http://www.inkscape.org/) -->

<svg
   width="63.648998mm"
   height="70.90892mm"
   viewBox="0 0 63.648996 70.908921"
   version="1.1"
   id="svg1"
   xml:space="preserve"
   inkscape:version="1.4 (86a8ad7, 2024-10-11)"
   sodipodi:docname="Progress.svg"
   xmlns:inkscape="http://www.inkscape.org/namespaces/inkscape"
   xmlns:sodipodi="http://sodipodi.sourceforge.net/DTD/sodipodi-0.dtd"
   xmlns="http://www.w3.org/2000/svg"
   xmlns:svg="http://www.w3.org/2000/svg"><sodipodi:namedview
     id="namedview1"
     pagecolor="#505050"
     bordercolor="#eeeeee"
     borderopacity="1"
     inkscape:showpageshadow="0"
     inkscape:pageopacity="0"
     inkscape:pagecheckerboard="0"
     inkscape:deskcolor="#505050"
     inkscape:document-units="mm"
     inkscape:zoom="1.4396184"
     inkscape:cx="31.258283"
     inkscape:cy="116.69759"
     inkscape:window-width="1920"
     inkscape:window-height="1010"
     inkscape:window-x="1529"
     inkscape:window-y="-6"
     inkscape:window-maximized="1"
     inkscape:current-layer="layer1" /><defs
     id="defs1" /><g
     inkscape:label="Layer 1"
     inkscape:groupmode="layer"
     id="layer1"
     transform="translate(-71.467793,-103.87697)"><path
       style="fill:#000000"
       d="m 102.28217,174.18999 c -0.20504,-0.32742 -1.05649,-1.78594 -1.89212,-3.24114 -0.835627,-1.45521 -1.742176,-3.03279 -2.014553,-3.50573 -0.272377,-0.47295 -0.733356,-1.27662 -1.024398,-1.78594 -0.291042,-0.50932 -0.767292,-1.34276 -1.058333,-1.85208 -0.833819,-1.45919 -1.41898,-2.47264 -2.901808,-5.02571 -2.094417,-3.60608 -2.00649,-3.3899 -1.288088,-3.1669 0.339911,0.10552 1.153802,0.4263 1.808646,0.71286 1.329718,0.58189 1.873975,0.80373 3.068676,1.25079 0.606137,0.22682 0.977401,0.65565 1.424903,1.64582 0.733588,1.62318 1.876465,2.96692 3.273525,3.84885 1.26045,0.79568 3.55131,0.92106 4.82049,0.26383 1.06049,-0.54916 2.58625,-2.25102 3.1711,-3.5371 0.48529,-1.06715 2.67575,-3.52881 3.14907,-3.53895 0.15099,-0.003 0.57218,-0.23872 0.93599,-0.52329 1.41332,-1.10552 1.40328,-0.5143 -0.0333,1.9579 -1.25439,2.15873 -1.86654,3.21884 -2.61258,4.5244 -0.29104,0.50932 -0.76729,1.34276 -1.05833,1.85208 -0.80755,1.4132 -1.356,2.36074 -3.4458,5.95312 -1.05817,1.81902 -2.0937,3.63472 -2.30116,4.0349 -0.4732,0.91275 -1.49151,0.97937 -2.02197,0.13229 z m -0.0363,-12.07048 c -1.20949,-0.75118 -2.03753,-1.75958 -2.910416,-3.54437 -0.702318,-1.43602 -0.930898,-1.67282 -1.984375,-2.05574 -0.654844,-0.23802 -1.42875,-0.52229 -1.719792,-0.63171 -2.99491,-1.12595 -9.148948,-4.55516 -11.005891,-6.1328 -2.332892,-1.982 -5.251284,-5.21459 -5.261168,-5.82759 -0.0045,-0.2818 0.52444,-0.53925 2.376434,-1.15658 2.500962,-0.83365 2.293003,-0.55747 2.655437,-3.52658 0.411317,-3.36957 1.449915,-5.72519 3.537981,-8.02441 0.813725,-0.89601 1.479499,-1.69616 1.479499,-1.7781 0,-0.0819 0.294455,-0.79272 0.654345,-1.57952 0.723223,-1.58113 2.748862,-4.34929 5.837903,-7.97785 2.517331,-2.957 3.855338,-4.89714 4.866713,-7.05683 1.2777,-2.72843 1.86729,-4.90464 1.89892,-7.00908 0.016,-1.06776 0.13079,-1.94138 0.25496,-1.94138 0.20631,0 2.36216,2.98366 2.36216,3.26919 0,0.0678 0.42533,1.03147 0.94518,2.14154 0.51985,1.11007 1.07046,2.81732 1.22358,3.7939 0.33157,2.11469 0.11263,5.70699 -0.47103,7.7287 -1.1728,4.06242 -1.69773,6.45526 -1.69773,7.73897 0,0.54575 0.10954,0.99228 0.24342,0.99228 0.13388,0 1.10758,-0.59531 2.16378,-1.32291 1.05619,-0.72761 2.01822,-1.32292 2.13783,-1.32292 0.39663,0 0.22581,0.75984 -0.44399,1.97499 -0.3638,0.66 -0.95444,1.73165 -1.31254,2.38143 -0.35809,0.64979 -0.54829,1.24495 -0.42266,1.3226 0.29308,0.18113 2.98408,-1.85106 4.46547,-3.37223 0.62852,-0.6454 1.28336,-1.58244 1.4552,-2.0823 0.17185,-0.49985 0.42991,-0.96321 0.57347,-1.02968 0.37012,-0.17137 0.98228,1.22501 1.13638,2.59219 0.17478,1.55069 -0.29279,2.88412 -2.06394,5.88592 -1.62657,2.75677 -2.46978,4.66156 -2.2331,5.04452 0.084,0.13593 0.49613,0.24714 0.91582,0.24714 0.54391,0 1.27999,-0.43695 2.56282,-1.52135 2.28183,-1.92888 2.81758,-2.54788 3.54945,-4.10104 0.32572,-0.69123 0.69092,-1.25677 0.81157,-1.25677 0.3274,0 0.26488,3.30162 -0.0787,4.15473 -0.16391,0.40703 -0.51741,1.21631 -0.78556,1.79839 -0.26814,0.58209 -0.52099,1.22141 -0.56187,1.42072 -0.0858,0.41832 1.40017,1.04276 2.55271,1.07269 0.42623,0.0111 1.1406,0.13831 1.5875,0.28275 4.68351,1.51375 5.31185,1.76667 5.38939,2.16929 0.28824,1.49672 -8.19539,8.57535 -12.11748,10.11067 -0.65485,0.25634 -1.60735,0.71832 -2.11667,1.02661 -1.25163,0.75763 -3.69669,2.90095 -3.70083,3.24412 -0.007,0.58189 -1.76865,3.04227 -2.63694,3.68288 -1.12489,0.82992 -2.93524,0.90717 -4.11327,0.17552 z m 3.95954,-1.38453 c 0.51439,-0.45164 0.93525,-0.91344 0.93525,-1.02624 0,-0.11279 -0.38695,-0.35785 -0.85989,-0.54457 -1.85055,-0.73063 -2.80176,-2.1728 -3.39213,-5.14296 -0.48245,-2.42718 -0.0542,-4.38755 1.55582,-7.12225 1.22039,-2.07287 1.98955,-3.86475 1.75824,-4.09606 -0.0662,-0.0662 -0.16119,-0.0708 -0.21109,-0.0101 -0.0499,0.0606 -0.72926,0.94368 -1.5097,1.96233 -0.78044,1.01864 -1.64193,2.0902 -1.91441,2.38125 -0.9908,1.05828 -2.54818,4.72334 -2.819261,6.63469 -0.752993,5.30929 3.328421,9.71102 6.457171,6.96394 z m 1.99747,-3.55081 c 0.51146,-0.32073 1.08497,-0.76997 1.27448,-0.9983 0.29174,-0.35153 0.25059,-0.47232 -0.26847,-0.78809 -2.64387,-1.60841 -3.60901,-2.27923 -4.36073,-3.03095 -0.47567,-0.47567 -0.92836,-0.86486 -1.00597,-0.86486 -0.29441,0 -0.12412,2.22596 0.27543,3.60037 0.2291,0.78808 0.71566,1.78835 1.08126,2.22283 0.7575,0.90023 1.39099,0.8705 3.004,-0.141 z m -9.409481,-3.49939 c 0.09921,-0.83674 0.319542,-1.93807 0.489634,-2.44739 0.417298,-1.24956 1.721257,-3.67249 2.451537,-4.55527 0.47163,-0.57012 0.63304,-1.1995 0.78034,-3.04271 0.3303,-4.1333 1.406,-7.39465 3.64203,-11.04205 0.70927,-1.15696 1.47242,-2.45715 1.6959,-2.8893 l 0.40631,-0.78573 -0.79493,0.50805 c -1.52369,0.9738 -6.37815,4.79715 -7.823551,6.16179 -2.551153,2.40861 -4.646723,5.87315 -5.19933,8.59588 -0.477875,2.35452 0.156791,5.4999 1.683579,8.34375 0.888114,1.65424 1.71562,2.67434 2.16943,2.67434 0.19065,0 0.39114,-0.61119 0.499051,-1.52136 z m 14.697261,-0.59435 c 4.40618,-2.18584 8.99584,-5.28027 8.99584,-6.06516 0,-0.12252 -0.98227,0.10353 -2.18282,0.50234 -4.84498,1.60943 -7.27149,2.13889 -12.30312,2.68455 -1.63711,0.17753 -2.97656,0.43974 -2.97656,0.58268 0,0.45446 1.96277,2.14106 3.18601,2.73772 2.14073,1.0442 2.31373,1.02971 5.28065,-0.44213 z m -18.256248,0.78991 c 0,-0.14711 -0.247794,-0.83172 -0.550653,-1.52136 -0.302859,-0.68964 -0.717652,-1.64084 -0.921761,-2.11378 -0.269051,-0.62342 -0.543332,-0.8599 -0.997365,-0.8599 -0.344441,0 -0.971445,-0.10517 -1.393343,-0.23371 -0.421897,-0.12855 -1.302867,-0.38262 -1.957711,-0.56461 -1.664536,-0.46259 -4.279296,-1.34143 -4.812589,-1.61753 -0.251854,-0.13039 -0.508856,-0.13127 -0.58875,-0.002 -0.330625,0.53497 4.455231,3.96246 7.848556,5.62091 1.200645,0.5868 2.361585,1.17073 2.579866,1.29762 0.541121,0.31456 0.79375,0.31276 0.79375,-0.006 z m 19.276138,-5.94147 c 0.58933,-0.30002 0.62695,-0.47334 0.6959,-3.20568 l 0.0729,-2.88851 1.38095,-2.72975 c 0.75952,-1.50136 1.29742,-2.81104 1.19534,-2.91041 -0.35886,-0.34931 -5.56204,5.37787 -6.35865,6.99901 -0.88857,1.8083 -1.24256,4.75443 -0.61876,5.14983 0.44746,0.28363 2.78497,0.0169 3.63233,-0.41449 z m -21.574898,-0.3395 c 0.06255,-0.10914 0.193498,-1.03782 0.291003,-2.06373 0.157893,-1.66128 0.116584,-1.93527 -0.377698,-2.50519 -1.11038,-1.28027 -1.847878,-3.49419 -1.847878,-5.54718 0,-2.83174 1.592852,-6.39857 4.43511,-9.9314 1.733039,-2.15412 2.973223,-3.989 2.973223,-4.39895 0,-0.18709 -0.625078,0.26182 -1.389062,0.99758 -0.763985,0.73575 -2.341563,2.1009 -3.505729,3.03367 -4.117006,3.29865 -6.500313,6.18431 -7.51751,9.10205 -0.211716,0.60729 -0.360604,2.02244 -0.350337,3.32987 0.01522,1.93816 0.135027,2.53215 0.811772,4.02468 0.436653,0.96302 1.085912,2.06585 1.442797,2.45073 0.976805,1.05344 4.662152,2.15727 5.034309,1.50787 z m -7.165803,-2.06686 c 0.246837,-0.24684 -1.135955,-2.49721 -1.534468,-2.49721 -0.661274,0 -2.759302,0.63338 -2.759302,0.83301 0,0.26447 0.427632,0.52201 1.983363,1.19446 1.362962,0.58913 2.051106,0.72904 2.310407,0.46974 z m 37.510401,-0.58762 c 1.6408,-0.61342 2.01251,-1.23686 0.87313,-1.46446 -0.40746,-0.0814 -1.27662,-0.27509 -1.93147,-0.43043 -1.40614,-0.33358 -3.45743,-0.7503 -4.78864,-0.97281 l -0.95219,-0.15916 -0.17652,1.28624 c -0.20732,1.51066 0.15392,1.93639 1.66844,1.9663 0.51789,0.0102 1.17975,0.12597 1.47079,0.25721 0.73648,0.3321 2.12344,0.15753 3.83646,-0.48289 z m -12.17084,-3.49709 c 0,-0.14552 -0.11906,-0.26458 -0.26458,-0.26458 -0.14552,0 -0.26458,0.11906 -0.26458,0.26458 0,0.14552 0.11906,0.26459 0.26458,0.26459 0.14552,0 0.26458,-0.11907 0.26458,-0.26459 z m 11.29433,-0.70011 c -0.094,-0.094 -0.78846,-0.26856 -1.54322,-0.38787 -1.78933,-0.28286 -1.99353,-0.51201 -1.45935,-1.63771 0.67613,-1.42484 1.04247,-3.57305 0.86091,-5.04841 -0.29514,-2.39827 -0.79591,-4.9259 -0.9759,-4.9259 -0.0963,0 -0.32844,0.38696 -0.51589,0.8599 -1.39796,3.52709 -2.44237,5.34152 -3.85706,6.70081 -0.82149,0.78932 -1.60472,1.43513 -1.7405,1.43513 -0.36932,0 0.0314,-1.05264 0.86282,-2.26679 1.73743,-2.53709 2.36553,-4.17112 2.36553,-6.15402 0,-1.03017 -0.10885,-2.14654 -0.24189,-2.48081 -0.13305,-0.33427 -0.62268,-1.59002 -1.08808,-2.79057 -0.4654,-1.20055 -0.93638,-2.18281 -1.04664,-2.18281 -0.11025,0 -0.34958,0.56554 -0.53185,1.25677 -0.88109,3.34138 -1.11913,4.02176 -1.60167,4.57814 -0.28617,0.32996 -0.58374,0.53649 -0.66127,0.45896 -0.0775,-0.0775 0.10435,-1.05638 0.40418,-2.17524 0.48309,-1.80269 0.50221,-2.99758 0.0378,-2.36094 -0.20551,0.28172 -3.08816,2.47089 -4.05417,3.07885 -0.39259,0.24708 -0.76881,0.36024 -0.83605,0.25145 -0.12735,-0.20606 0.13452,-1.64607 0.58846,-3.23591 0.14542,-0.50932 0.47115,-1.73081 0.72384,-2.71442 l 0.45943,-1.78839 13.08944,0.0686 c 11.65662,0.0611 13.11864,0.11488 13.3561,0.49141 0.27578,0.43728 0.12862,0.83496 -1.0919,2.95062 -1.31935,2.28698 -1.65314,2.86387 -3.4828,6.01927 -2.23356,3.85195 -2.72088,4.69539 -3.43959,5.95313 -0.29104,0.50932 -0.76729,1.34276 -1.05833,1.85208 -0.29104,0.50932 -0.78123,1.37253 -1.08931,1.91823 -1.24308,2.20186 -1.89637,2.81311 -2.43303,2.27645 z m -41.264147,-3.07464 c -0.839911,-1.48915 -1.839015,-3.24332 -2.22023,-3.89816 -0.381216,-0.65485 -0.899635,-1.54782 -1.152042,-1.98438 -0.252407,-0.43656 -1.321904,-2.28203 -2.376658,-4.10104 -2.447061,-4.22016 -2.79306,-4.81988 -3.453919,-5.9867 -0.298926,-0.52778 -0.507285,-1.27192 -0.46302,-1.65364 l 0.08048,-0.69404 11.443229,-0.069 c 7.097649,-0.0428 11.443229,0.0265 11.443229,0.18234 0,0.13822 -0.463749,0.78713 -1.030553,1.44202 -2.141723,2.47456 -3.505251,4.43066 -4.392397,6.30127 -0.504179,1.0631 -1.402086,2.46869 -1.99535,3.12353 -1.186592,1.30976 -2.588006,3.58749 -3.093008,5.02709 -0.178667,0.50932 -0.467157,1.84877 -0.64109,2.97656 -0.173932,1.12779 -0.384938,2.04852 -0.4689,2.04608 -0.08396,-0.002 -0.83986,-1.22283 -1.679771,-2.71198 z"
       id="path1" /></g></svg>
