<?xml version="1.0" encoding="UTF-8" standalone="no"?>
<!-- Created with Inkscape (http://www.inkscape.org/) -->

<svg
   width="18.396429mm"
   height="29.571299mm"
   viewBox="0 0 18.396428 29.571297"
   version="1.1"
   id="svg1"
   xml:space="preserve"
   inkscape:version="1.4 (86a8ad7, 2024-10-11)"
   sodipodi:docname="Provoke.svg"
   xmlns:inkscape="http://www.inkscape.org/namespaces/inkscape"
   xmlns:sodipodi="http://sodipodi.sourceforge.net/DTD/sodipodi-0.dtd"
   xmlns="http://www.w3.org/2000/svg"
   xmlns:svg="http://www.w3.org/2000/svg"><sodipodi:namedview
     id="namedview1"
     pagecolor="#505050"
     bordercolor="#eeeeee"
     borderopacity="1"
     inkscape:showpageshadow="0"
     inkscape:pageopacity="0"
     inkscape:pagecheckerboard="0"
     inkscape:deskcolor="#505050"
     inkscape:document-units="mm"
     inkscape:zoom="3.4671247"
     inkscape:cx="11.825361"
     inkscape:cy="55.665722"
     inkscape:window-width="1920"
     inkscape:window-height="1010"
     inkscape:window-x="4601"
     inkscape:window-y="-6"
     inkscape:window-maximized="1"
     inkscape:current-layer="layer1" /><defs
     id="defs1" /><g
     inkscape:label="Layer 1"
     inkscape:groupmode="layer"
     id="layer1"
     transform="translate(-96.77911,-127.01421)"><path
       style="opacity:1;fill:#000000"
       d="m 101.07588,156.24811 c -0.55197,-0.20598 -1.355364,-0.62499 -1.785323,-0.93115 -0.42996,-0.30616 -1.128511,-1.06066 -1.552336,-1.67667 -0.423824,-0.61601 -0.811055,-1.35224 -0.860513,-1.63607 -0.05763,-0.3307 0.04159,-0.48805 0.276242,-0.43809 0.03335,0.007 0.190653,0.0749 0.315937,0.21535 0.256504,0.2875 0.443096,0.58156 0.471141,0.5459 0.03879,-0.0493 -0.223666,-0.4148 -0.375173,-0.81695 -0.142436,-0.37807 -0.188073,-0.5341 -0.231546,-0.73805 -0.102193,-0.47944 -0.298758,-1.63357 -0.436812,-2.56474 -0.164607,-1.11027 -0.157452,-2.20895 0.02079,-3.19188 0.149486,-0.82436 0.507181,-2.16857 0.794878,-2.98711 0.328344,-0.9342 0.462777,-1.78982 0.361094,-2.29823 -0.103915,-0.51958 -0.05528,-0.80996 0.135665,-0.80996 0.16371,0 0.549126,0.25147 0.856478,0.55882 0.478341,0.47834 0.542046,0.79075 0.44234,2.16918 -0.06407,0.88569 -0.640236,3.5151 0.496008,5.59723 -0.638021,-2.2295 0.0874,-5.78095 0.47148,-6.71351 0.38414,-0.93257 1.53941,-3.19476 2.56727,-5.02709 1.02788,-1.83233 1.93173,-3.77799 2.00859,-4.32369 0.13022,-0.92456 0.0936,-0.99219 -0.53765,-0.99219 -0.37256,0 -0.8645,-0.1871 -1.09317,-0.41577 -0.22868,-0.22868 -0.41533,-0.5561 -0.41479,-0.72761 5.5e-4,-0.1715 0.23692,-0.69878 0.52528,-1.17172 0.28836,-0.47295 0.6451,-0.8599 0.79276,-0.8599 0.14766,0 0.26847,0.41672 0.26847,0.92604 0,0.81772 0.0794,0.92604 0.67886,0.92604 0.37336,0 0.93891,0.13689 1.25677,0.3042 0.31785,0.1673 0.66539,0.43519 0.7723,0.59531 0.10691,0.16011 0.19621,0.92613 0.19844,1.70225 0.003,0.95006 -0.2484,2.0416 -0.76856,3.34067 -0.42495,1.06125 -0.85329,2.46736 -0.95185,3.1247 -0.13082,0.87236 -0.0585,1.44952 0.26764,2.1369 0.30976,0.65275 0.72134,1.03232 1.34122,1.2369 0.69239,0.2285 1.01852,0.20241 1.62945,0.044 0.53921,-0.13983 0.82746,-0.37786 0.85653,-0.90079 0.0349,-0.62705 -0.60773,-0.70445 -1.33401,-1.06825 -1.07704,-0.32334 -1.4941,-0.71672 -1.54136,-0.96562 -0.0473,-0.2489 0.14105,-0.95492 0.38547,-1.47 0.24442,-0.51509 0.57526,-0.85973 0.67884,-0.93652 0.42464,-0.31479 0.23443,0.28538 0.1295,0.83767 -0.0782,0.41138 -0.0863,0.94227 0.3817,1.0706 0.42038,0.1474 0.87914,0.25697 1.48347,0.42958 0.60432,0.1726 1.36335,0.52806 1.68672,0.78991 0.33495,0.27124 0.74983,0.78586 0.74983,1.17814 0,0.37895 -0.65264,1.37469 -1.25329,2.23098 -0.60027,0.85575 -1.01383,1.83696 -1.09141,2.16007 -0.0675,0.28091 0.005,1.20603 0.0263,1.14081 0.19161,-0.58933 0.4035,-0.86219 0.95691,-1.41559 0.53773,-0.53773 0.7263,-0.63478 1.41839,-0.74925 0.41966,-0.0694 1.24663,0.14744 1.16448,0.17944 -0.32433,0.12636 -0.65318,0.33234 -1.16008,0.63759 -0.3638,0.28617 -1.60261,1.27376 -0.75628,1.72361 1.13098,0.60114 1.92027,1.06805 3.11277,2.26278 l 0.2638,1.64667 c -0.004,1.02344 -0.33753,2.04181 -0.64525,2.70501 -0.27007,0.58209 -1.01439,1.41325 -1.50564,1.88 -0.49126,0.46675 -1.38884,1.02352 -1.99463,1.23725 -0.60578,0.21374 -1.6242,0.467 -2.26313,0.56282 -0.88943,0.13338 -1.2426,0.0767 -1.50687,-0.2417 -0.54058,-0.24223 0.0942,-1.27805 0.16956,-1.47441 0.0754,-0.19637 -0.41679,-0.2353 -0.91228,-0.86145 -0.49549,-0.62615 -1.07407,-1.62363 -1.23062,-2.20495 -0.15653,-0.58133 -0.19784,-1.29887 -0.1083,-1.65567 0.0895,-0.35679 0.2525,-0.90913 0.60378,-1.2604 0.43092,-0.43093 0.86453,-0.37561 1.48693,-0.37561 0.50735,0 1.47778,-0.0334 1.43105,-0.54188 0.13272,-0.21477 -0.52013,-0.42028 -1.71495,-0.33385 -0.99786,0.0722 -1.53032,-0.0599 -2.13859,0.38637 -0.21304,0.15629 -0.40174,0.44866 -0.67624,0.79094 -0.35709,0.44528 -0.36579,0.78899 -0.47973,1.20597 -0.14765,0.5404 -0.0239,1.36731 -0.0239,3.24111 v 3.32265 l -0.79376,0.0537 c -0.43655,0.0295 -1.24536,-0.11484 -1.79731,-0.32082 z m 7.24708,-2.70942 c 0.15251,-0.40018 0.3445,-1.08479 0.42664,-1.52136 0.0821,-0.43656 0.34664,-1.0641 0.54111,-1.28961 0.19448,-0.2255 0.72927,-1.03103 0.9436,-1.6385 0.21432,-0.60746 0.0544,-0.95443 -0.0639,-1.02753 -0.11829,-0.0731 -0.53831,0.0917 -0.75849,0.34294 -0.22018,0.25123 -0.50865,0.81159 -0.74599,1.28022 -0.23733,0.46863 -0.59846,0.98156 -0.87244,1.12819 -0.37934,0.20302 -0.62821,0.075 -1.13485,-0.32351 -0.36593,-0.28784 -0.89609,-0.98951 -0.98228,-0.98951 -0.0862,0 -0.26298,0.71895 -0.26298,1.16063 0,0.44168 0.22533,1.19077 0.41383,1.61578 0.18792,0.42369 0.61026,1.10134 0.8998,1.42876 0.28954,0.32742 0.86194,0.65553 0.98569,0.65553 0.12376,0 0.45771,-0.42185 0.61022,-0.82203 z m -4.3321,-5.03002 c 0.45115,-0.42034 0.11667,-0.77973 -0.22219,-1.29689 -0.3978,-0.60712 -0.58448,-0.71188 -0.0869,-1.21074 0.16338,-0.16381 0.3966,-0.455 0.55372,-0.56088 0.21334,-0.14377 0.29185,-0.17224 0.56204,-0.17375 0.39683,-0.002 1.14867,-0.0152 1.36574,-0.15239 0.25622,-0.16199 0.37008,-0.55665 0.19974,-0.71312 -0.1443,-0.13256 -0.92609,-0.12473 -1.47049,-0.12425 -0.30914,-0.0102 -0.7578,-0.0355 -1.0357,0.12584 -0.33114,0.19229 -0.62942,0.63341 -0.92387,0.93721 l -0.78518,0.94628 0.65428,1.31111 c 0.33018,0.75078 0.62252,1.51626 0.65379,1.51969 0.0313,0.003 0.28541,-0.37555 0.53502,-0.60811 z m 1.53925,-1.87687 c 0.0341,-0.13047 0.3528,-0.76429 0.33673,-0.88165 -0.0198,-0.14433 -0.34491,-0.12514 -0.50754,-0.0947 -0.24256,0.0232 -0.39117,-0.0372 -0.51819,0.16302 -0.12703,0.20054 -0.24184,0.79144 -0.24407,0.97334 -9.6e-4,0.0873 -0.22183,0.77069 -0.18352,0.91072 0.0416,0.15184 0.34633,-0.24274 0.45106,-0.24274 0.10002,0 0.43667,-0.0343 0.5277,-0.12909 0.0922,-0.096 0.0996,-0.55254 0.13783,-0.6989 z m -2.74627,-2.23814 c -0.002,-0.15789 0.14503,-0.63828 0.50883,-0.98005 0.3638,-0.34178 0.82362,-0.61479 0.82362,-0.73494 0,-0.12016 -0.18149,-0.40925 -0.39165,-0.40925 -0.21017,0 -0.72049,0.35851 -1.08157,0.68594 -0.36109,0.32742 -0.83153,1.07136 -0.92883,1.5541 -0.10549,0.52332 0.19235,1.5087 0.31066,1.50947 0.0714,4.7e-4 0.32911,-0.38714 0.54209,-0.59265 0.16311,-0.19033 0.2236,-0.55769 0.21685,-1.03262 z m 4.68643,-1.01344 c 0,-0.14552 -0.40562,-0.37417 -0.46962,-0.36951 -0.13097,0.01 -1.05255,0.80831 -1.14249,0.95383 -0.0899,0.14552 0.65675,0.19625 0.81083,0.19625 0.1541,0 0.80128,-0.63505 0.80128,-0.78057 z"
       id="path9"
       sodipodi:nodetypes="cssccsssssscssscccssssccssscccccccsscccssccssssscsscsccccccccsccssccssssccccsccccccsssssssssssscsccsccccscscccssscssssccscssscss" /></g></svg>
