<?xml version="1.0" encoding="UTF-8" standalone="no"?>
<!-- Created with Inkscape (http://www.inkscape.org/) -->

<svg
   width="73.59024mm"
   height="67.830215mm"
   viewBox="0 0 73.590243 67.830216"
   version="1.1"
   id="svg1"
   xml:space="preserve"
   inkscape:version="1.4 (86a8ad7, 2024-10-11)"
   sodipodi:docname="R&amp;R.svg"
   xmlns:inkscape="http://www.inkscape.org/namespaces/inkscape"
   xmlns:sodipodi="http://sodipodi.sourceforge.net/DTD/sodipodi-0.dtd"
   xmlns="http://www.w3.org/2000/svg"
   xmlns:svg="http://www.w3.org/2000/svg"><sodipodi:namedview
     id="namedview1"
     pagecolor="#505050"
     bordercolor="#eeeeee"
     borderopacity="1"
     inkscape:showpageshadow="0"
     inkscape:pageopacity="0"
     inkscape:pagecheckerboard="0"
     inkscape:deskcolor="#505050"
     inkscape:document-units="mm"
     inkscape:zoom="1.4396184"
     inkscape:cx="93.77485"
     inkscape:cy="136.14719"
     inkscape:window-width="1920"
     inkscape:window-height="1010"
     inkscape:window-x="1529"
     inkscape:window-y="-6"
     inkscape:window-maximized="1"
     inkscape:current-layer="layer1" /><defs
     id="defs1" /><g
     inkscape:label="Layer 1"
     inkscape:groupmode="layer"
     id="layer1"
     transform="translate(-59.097527,-76.295128)"><path
       style="fill:#000000"
       d="m 91.545059,144.00167 c -1.164166,-0.11881 -3.050285,-0.41455 -4.191375,-0.6572 -1.141089,-0.24264 -3.10562,-0.77808 -4.365624,-1.18987 -1.260005,-0.41179 -3.597611,-1.36352 -5.19468,-2.11494 -1.59707,-0.75143 -3.301531,-1.66963 -3.78769,-2.04044 -0.48616,-0.37081 -0.817717,-0.74041 -0.736794,-0.82134 0.08092,-0.0809 0.65429,-0.24109 1.274148,-0.35593 0.619859,-0.11484 1.484203,-0.28909 1.920766,-0.38722 0.436562,-0.0981 1.74625,-0.62121 2.910416,-1.1624 1.164167,-0.5412 2.683244,-1.41981 3.375727,-1.95247 0.692483,-0.53267 1.448119,-0.96849 1.679191,-0.96849 0.231073,0 0.944437,0.46152 1.585256,1.02559 0.640818,0.56407 1.968776,1.43994 2.951017,1.94639 0.982241,0.50644 2.381205,1.08672 3.108809,1.28952 0.779171,0.21716 2.573531,0.36871 4.365625,0.36871 1.794526,0 3.585399,-0.15143 4.365629,-0.36914 0.7276,-0.20303 2.15635,-0.76664 3.175,-1.25245 1.01864,-0.48582 2.56411,-1.42103 3.43437,-2.07825 0.87027,-0.65722 1.65475,-1.19495 1.74331,-1.19495 0.0886,0 0.60643,0.38695 1.15083,0.8599 0.5444,0.47294 1.66861,1.27756 2.49825,1.78805 0.82963,0.51049 2.3977,1.20972 3.48458,1.55383 1.08689,0.34412 2.15397,0.67797 2.3713,0.7419 0.30384,0.0894 0.2427,0.2346 -0.26458,0.62846 -0.36285,0.28172 -1.90989,1.14844 -3.43786,1.92605 -1.52796,0.77761 -3.19484,1.56377 -3.70416,1.74702 -0.50933,0.18326 -1.16417,0.42833 -1.45521,0.54461 -0.29104,0.11628 -1.18401,0.40184 -1.98438,0.63458 -0.80036,0.23273 -2.5481,0.65499 -3.88386,0.93835 -1.48981,0.31604 -3.944536,0.56409 -6.35,0.64168 -2.156739,0.0696 -4.873844,0.0293 -6.038011,-0.0896 z M 69.981518,133.51659 c -0.363802,-0.0645 -1.0591,-0.18189 -1.545106,-0.26083 -0.531694,-0.0864 -1.364499,-0.58485 -2.090914,-1.25156 -0.663996,-0.60942 -1.873698,-1.88759 -2.688227,-2.84037 -0.814528,-0.95279 -1.778617,-2.12575 -2.142419,-2.60658 -0.363802,-0.48083 -1.106809,-1.57019 -1.651126,-2.42079 -0.55689,-0.87025 -0.876622,-1.61642 -0.731159,-1.70632 0.14218,-0.0879 0.706593,-0.0298 1.254251,0.12899 0.547658,0.15881 1.948242,0.46235 3.112409,0.67451 1.164166,0.21217 2.711979,0.38576 3.439583,0.38576 0.727604,0 2.275417,-0.1713 3.439583,-0.38066 1.164167,-0.20936 2.652448,-0.55245 3.307292,-0.76242 0.654843,-0.20998 1.88822,-0.6976 2.740837,-1.08362 0.852617,-0.38602 2.446692,-1.29292 3.542389,-2.01534 1.095697,-0.72242 2.076986,-1.31349 2.180642,-1.31349 0.103657,0 0.950363,0.57118 1.88157,1.26929 0.931207,0.69812 2.352239,1.58738 3.15785,1.97614 0.805611,0.38877 1.996235,0.89566 2.645833,1.12643 0.649598,0.23077 2.074055,0.59164 3.165462,0.80194 1.091406,0.2103 2.579687,0.38236 3.307291,0.38236 0.727604,0 2.275417,-0.18076 3.439583,-0.4017 1.164168,-0.22094 2.533388,-0.53569 3.042708,-0.69945 0.50932,-0.16376 1.69995,-0.64949 2.64583,-1.0794 0.94589,-0.42992 2.63871,-1.42483 3.76182,-2.21093 1.12311,-0.78609 2.09907,-1.42926 2.1688,-1.42926 0.0697,0 0.91992,0.60033 1.88932,1.33406 0.96939,0.73374 2.55328,1.72911 3.51974,2.21195 0.96646,0.48284 2.35251,1.0631 3.08012,1.28947 0.7276,0.22637 2.13983,0.55666 3.13828,0.73398 0.99845,0.17732 2.54626,0.25165 3.43958,0.16517 0.89332,-0.0865 2.51719,-0.3973 3.60859,-0.69074 1.09141,-0.29344 2.13321,-0.53632 2.31511,-0.53975 0.1819,-0.003 0.33073,0.0856 0.33073,0.19774 0,0.11218 -0.68461,1.23245 -1.52136,2.48949 -0.83674,1.25704 -1.99756,2.8619 -2.5796,3.56635 -0.58204,0.70445 -1.65198,1.9174 -2.37765,2.69543 -0.72566,0.77804 -1.6782,1.60342 -2.11675,1.8342 -0.54675,0.28771 -1.54576,0.42521 -3.1786,0.43747 -1.40968,0.0106 -2.75909,-0.12795 -3.30729,-0.33954 -0.50933,-0.19659 -1.2237,-0.49104 -1.5875,-0.65433 -0.36381,-0.1633 -1.31646,-0.73092 -2.11702,-1.2614 -0.80056,-0.53047 -1.93165,-1.48822 -2.51354,-2.12834 -0.58189,-0.64011 -1.35709,-1.56061 -1.72267,-2.04555 -0.66468,-0.8817 -0.66468,-0.8817 -1.87964,0.68282 -0.66823,0.86049 -1.7409,1.99549 -2.38371,2.52222 -0.64281,0.52674 -1.82103,1.29986 -2.61827,1.71804 -0.79724,0.41819 -2.04484,0.93216 -2.77244,1.14216 -0.727608,0.20999 -2.394483,0.37946 -3.704171,0.37659 -1.843658,-0.004 -2.787543,-0.15058 -4.180919,-0.64909 -1.048344,-0.37507 -2.427412,-1.14959 -3.303315,-1.85523 -0.827005,-0.66625 -1.960713,-1.86244 -2.519353,-2.65821 -0.558639,-0.79576 -1.127934,-1.62543 -1.265099,-1.84371 -0.205322,-0.32674 -0.377196,-0.23578 -0.972644,0.51478 -0.397789,0.50141 -1.220978,1.41272 -1.829308,2.02513 -0.60833,0.61242 -1.620361,1.46058 -2.248958,1.88482 -0.628597,0.42424 -1.682556,1.01941 -2.342132,1.32261 -0.659576,0.3032 -1.671607,0.67838 -2.248958,0.83374 -0.577352,0.15536 -1.883167,0.33642 -2.901813,0.40237 -1.018646,0.0659 -2.14974,0.0671 -2.513542,0.003 z m 16.678737,-26.98771 c -0.649351,-0.2036 -1.352333,-0.54188 -1.562182,-0.75173 -0.332336,-0.33233 -0.328065,-0.46316 0.03312,-1.01439 0.228063,-0.34807 0.335732,-0.74284 0.239265,-0.87727 -0.09647,-0.13443 -0.613935,-0.57116 -1.149929,-0.97052 -0.535993,-0.39935 -1.086961,-0.7261 -1.224373,-0.7261 -0.137412,0 -0.406084,-0.18826 -0.597048,-0.41836 -0.272292,-0.32809 -0.279282,-0.52712 -0.0324,-0.92245 0.173146,-0.27725 0.314811,-0.78491 0.314811,-1.128131 0,-0.343223 -0.20836,-0.791323 -0.463021,-0.995778 -0.254661,-0.204455 -0.760677,-0.543083 -1.124479,-0.752507 -0.363802,-0.209424 -1.19724,-0.639613 -1.852083,-0.955975 -0.654844,-0.316362 -1.905,-0.814773 -2.778125,-1.10758 -0.873125,-0.292806 -2.242344,-0.663603 -3.042709,-0.823993 -0.800364,-0.160389 -2.52677,-0.421432 -3.836458,-0.580094 -1.309687,-0.158662 -2.794483,-0.350267 -3.299547,-0.425789 -0.784134,-0.117252 -0.848525,-0.17636 -0.440734,-0.404572 0.26266,-0.146991 2.283237,-0.268439 4.490172,-0.269884 2.764292,-0.0018 4.552882,0.12787 5.749271,0.416846 0.955164,0.23071 2.260559,0.604314 2.900878,0.830232 0.640319,0.225917 1.823352,0.726273 2.628963,1.111902 0.805611,0.385628 1.762403,0.899493 2.126205,1.141921 0.363802,0.242428 1.045079,0.570696 1.513948,0.729484 0.540275,0.182971 1.150706,0.20318 1.666759,0.05518 0.447847,-0.128441 1.999701,-1.133117 3.448563,-2.232613 1.448861,-1.099496 2.70143,-1.999084 2.783486,-1.999084 0.08206,0 0.646895,-0.341773 1.255198,-0.759495 0.608302,-0.417722 2.058504,-1.242057 3.222671,-1.831856 1.164166,-0.589798 2.950103,-1.426367 3.968753,-1.85904 1.01864,-0.432674 2.92364,-1.139237 4.23333,-1.57014 1.30969,-0.430902 2.8575,-0.921093 3.43958,-1.089311 0.58209,-0.168219 2.18943,-0.601552 3.57188,-0.962963 1.38244,-0.361411 2.90049,-0.657411 3.37343,-0.657778 0.47295,-3.67e-4 0.8599,0.122132 0.8599,0.27222 0,0.150088 -0.20836,0.34322 -0.46302,0.429183 -0.25466,0.08596 -0.93927,0.349832 -1.52135,0.586377 -0.58209,0.236546 -2.44095,1.103715 -4.13082,1.927042 -1.68986,0.823327 -4.09789,2.158462 -5.35117,2.966967 -1.25329,0.808504 -2.6151,1.643969 -3.02626,1.856589 -0.41117,0.212619 -2.27462,1.58418 -4.141021,3.047913 -1.866398,1.463733 -3.973762,3.204145 -4.683029,3.867581 -0.709268,0.663436 -1.289578,1.429866 -1.289578,1.703176 0,0.2733 0.07227,0.68525 0.160599,0.91544 0.130573,0.34026 0.622324,0.41851 2.630218,0.41851 1.358291,0 2.542879,0.11854 2.632419,0.26341 0.08954,0.14488 -0.171324,0.57676 -0.579698,0.95973 -0.408373,0.38297 -1.159367,0.97503 -1.668875,1.3157 -0.509508,0.34066 -1.629476,0.86128 -2.488816,1.15694 -1.04608,0.3599 -2.18269,0.52891 -3.439247,0.51139 -1.032244,-0.0144 -2.408095,-0.19274 -3.057446,-0.39633 z M 111.9628,97.455948 c -0.28123,-0.637417 -0.72835,-1.135948 -1.1754,-1.31054 -0.39683,-0.15498 -1.25729,-0.412293 -1.91213,-0.571805 -0.65485,-0.159513 -1.36922,-0.360375 -1.5875,-0.446361 -0.25395,-0.100035 -0.0634,-0.231105 0.52916,-0.363946 0.50933,-0.114184 1.28323,-0.142597 1.7198,-0.06314 0.43656,0.07946 1.32953,0.450989 1.98437,0.825626 0.97344,0.556905 1.55261,0.685069 3.175,0.702591 1.43644,0.01551 2.17915,0.151725 2.68976,0.493297 0.38797,0.259525 0.76556,0.628666 0.8391,0.820313 0.10596,0.276123 -0.0679,0.296316 -0.83768,0.09729 -0.53426,-0.138138 -1.59389,-0.316612 -2.35472,-0.396609 -1.30772,-0.137499 -1.39776,-0.107525 -1.6471,0.548297 -0.14507,0.38156 -0.42239,0.693746 -0.61627,0.693746 -0.19388,0 -0.55675,-0.462941 -0.80639,-1.028758 z M 75.033625,87.033985 c 0.668607,-0.614343 2.076869,-1.890893 3.129471,-2.836779 1.052602,-0.945885 2.458832,-2.01329 3.124957,-2.37201 1.170463,-0.630314 1.370876,-0.650628 5.967781,-0.60488 3.057642,0.03043 4.956684,-0.05737 5.316686,-0.24581 0.308021,-0.161231 1.512539,-1.008863 2.676706,-1.883628 1.164167,-0.874764 2.77151,-1.881837 3.571875,-2.23794 1.325559,-0.589773 1.679149,-0.633181 3.968749,-0.487202 1.38245,0.08814 3.49581,0.232011 4.69635,0.319712 1.20055,0.0877 2.18282,0.268464 2.18282,0.401696 0,0.133232 -0.26789,0.346926 -0.59532,0.474876 -0.32742,0.127949 -2.02406,0.432522 -3.77031,0.676829 -1.74625,0.244307 -3.91345,0.672585 -4.816,0.95173 -0.902559,0.279146 -2.259168,0.872015 -3.014691,1.317487 -0.755524,0.445473 -1.773242,1.114712 -2.261597,1.487198 -0.488355,0.372487 -0.887918,0.832 -0.887918,1.021141 0,0.189141 0.404905,0.594138 0.899789,0.899993 0.494884,0.305855 0.973835,0.749061 1.064335,0.984902 0.0905,0.235841 -0.01585,0.704117 -0.236328,1.040614 -0.240611,0.36722 -0.789159,0.684655 -1.372109,0.794018 -0.53418,0.100212 -1.160159,0.06432 -1.391065,-0.07975 -0.230907,-0.144076 -0.552097,-0.522624 -0.713756,-0.841217 -0.16166,-0.318593 -0.566121,-0.868998 -0.898803,-1.223122 -0.332682,-0.354123 -1.021177,-0.781253 -1.529989,-0.949176 -0.582291,-0.192173 -1.670909,-0.242849 -2.937656,-0.136749 -1.106898,0.09271 -2.786449,0.369189 -3.732334,0.614396 -0.945886,0.245207 -3.360926,1.255789 -5.366757,2.245738 -2.005831,0.989948 -3.791769,1.796535 -3.96875,1.792414 -0.176982,-0.0041 0.225257,-0.510137 0.893864,-1.124479 z"
       id="path2509" /></g></svg>
