<?xml version="1.0" encoding="UTF-8" standalone="no"?>
<!-- Created with Inkscape (http://www.inkscape.org/) -->

<svg
   width="79.705505mm"
   height="80.131149mm"
   viewBox="0 0 79.705504 80.131152"
   version="1.1"
   id="svg1"
   xml:space="preserve"
   inkscape:version="1.4 (86a8ad7, 2024-10-11)"
   sodipodi:docname="Speed.svg"
   xmlns:inkscape="http://www.inkscape.org/namespaces/inkscape"
   xmlns:sodipodi="http://sodipodi.sourceforge.net/DTD/sodipodi-0.dtd"
   xmlns="http://www.w3.org/2000/svg"
   xmlns:svg="http://www.w3.org/2000/svg"><sodipodi:namedview
     id="namedview1"
     pagecolor="#505050"
     bordercolor="#eeeeee"
     borderopacity="1"
     inkscape:showpageshadow="0"
     inkscape:pageopacity="0"
     inkscape:pagecheckerboard="0"
     inkscape:deskcolor="#505050"
     inkscape:document-units="mm"
     inkscape:zoom="1.4396184"
     inkscape:cx="81.271537"
     inkscape:cy="122.25462"
     inkscape:window-width="1920"
     inkscape:window-height="1010"
     inkscape:window-x="1529"
     inkscape:window-y="-6"
     inkscape:window-maximized="1"
     inkscape:current-layer="layer1" /><defs
     id="defs1" /><g
     inkscape:label="Layer 1"
     inkscape:groupmode="layer"
     id="layer1"
     transform="translate(-62.171255,-79.839359)"><path
       style="fill:#2a546d;stroke:none"
       d="m 92.598339,84.788565 v 0.529167 c 3.964406,4.36e-4 7.908681,0.529167 11.906251,0.529167 3.5847,0 7.46272,-0.509893 10.84792,0.79375 -2.56267,3.307938 -8.751,-0.40646 -9.16447,5.55625 -0.16562,2.388432 5.19922,5.788536 6.77934,7.408334 2.17964,2.234377 4.34125,4.517527 6.48147,6.793217 0.81683,0.86853 1.81226,2.49153 3.04761,2.73954 1.01523,0.20382 1.9401,-0.86173 2.64563,-1.43357 2.08909,-1.69322 4.75651,-3.25495 6.52946,-5.27472 0.9997,-1.13888 0.0696,-2.723815 -0.47569,-3.882801 -1.47492,-3.13489 -3.25266,-6.118473 -5.17183,-8.995833 -1.5731,-2.358513 -4.14385,-6.94436 -6.78872,-8.167986 -0.81084,-0.375122 -1.71898,0.038 -2.55989,-0.261119 -0.8407,-0.299045 -1.67698,-1.345372 -2.61153,-1.279638 -1.50248,0.105687 -1.56732,3.044517 -3.21338,3.508588 -2.3622,0.665972 -5.23311,0.283074 -7.66884,0.389737 -3.551981,0.155554 -7.07157,0.575022 -10.583331,1.047917 m 9.346571,9.53725 c -1.30633,0.723898 -2.88998,3.837718 -2.191589,5.275538 0.792249,1.631047 3.130639,2.964087 4.486689,4.125947 2.75579,2.36118 5.26949,5.03217 7.9377,7.49694 1.02462,0.94649 3.88801,4.41284 5.44376,3.50165 0.92213,-0.54008 2.64249,-2.32108 2.52865,-3.47899 -0.13759,-1.39956 -2.0064,-2.95706 -2.87387,-3.96875 -2.902,-3.38447 -6.2095,-6.77415 -9.59666,-9.67628 -1.13024,-0.968392 -4.05027,-4.209469 -5.73468,-3.276055 M 75.665005,104.36773 v 0.52917 c 5.21691,1.55644 11.788115,1.03244 17.197918,1.05853 0.972292,0.005 5.162661,-0.15025 5.389254,1.05916 0.301593,1.60973 -5.310422,0.87168 -6.155239,1.21696 -1.55431,0.63524 -3.688649,4.83158 -3.883007,6.45493 -0.15336,1.28092 0.173409,4.23376 1.512167,4.83069 1.558547,0.69494 3.212732,-0.30577 4.195158,1.51931 l -3.960381,1.1941 -0.01225,3.03924 -1.085894,6.61458 -0.224774,2.74158 3.695798,1.77777 10.318755,5.00565 7.15702,-8.46667 3.32995,-3.519 -0.43852,-5.74141 2.73178,-6.35 -1.93232,-2.5703 -5.55625,-5.10262 -6.97124,-6.81466 -3.391401,-3.014529 -4.189645,3.443869 -17.72688,1.09365 m 41.539586,25.66459 v 0.26458 c -3.88637,2.39874 -6.29438,5.88028 -9.32779,9.17447 -0.83393,0.90563 -3.07934,2.31041 -2.831,3.74499 0.33064,1.91002 4.87375,4.1275 6.33796,5.24533 2.06437,1.57602 5.24331,5.56957 7.67291,6.17525 2.04398,0.50954 5.89875,-5.16485 6.47658,-6.87754 0.47554,-1.40951 -0.98718,-2.87851 -1.71408,-3.96875 -1.71752,-2.57604 -7.42553,-8.29426 -5.82083,-11.37708 h 0.26458 c 2.50873,4.404 5.96004,9.0633 9.23368,12.93681 0.53135,0.62874 3.86766,2.22538 3.26748,0.12576 -0.33501,-1.17197 -3.10326,-3.01974 -3.96834,-4.06674 -2.68474,-3.24927 -4.98497,-6.67861 -7.09762,-10.31875 -0.87062,-1.50011 -2.18062,-3.26979 -2.41881,-5.02708 -0.20207,-1.4908 1.0468,-2.59974 1.84473,-3.70417 1.68485,-2.33204 3.2551,-4.67378 5.11589,-6.87917 1.40628,-1.6667 2.91527,-2.74888 1.96049,-5.02708 -4.23033,1.86069 -7.1489,6.93611 -9.23837,10.84792 -0.68679,1.28579 -1.88993,3.01202 -1.97926,4.49791 -0.0842,1.40049 1.2756,3.30001 2.2218,4.23334 M 71.167088,119.1844 c 2.03041,2.0813 8.368508,1.22256 11.112501,1.03465 0.82431,-0.0564 2.887556,0.0291 3.43203,-0.66513 0.616154,-0.78562 0.02386,-2.37019 0.01245,-3.27994 -0.02185,-1.743 0.583262,-3.21546 1.318018,-4.7625 -3.042275,0.73047 -4.576481,4.5596 -7.144772,6.15381 -2.278886,1.41457 -6.12386,0.62961 -8.730229,1.51911 m 6.614584,14.02292 -12.964584,0.79375 v 0.52916 c 3.75466,0.47452 7.596027,0.88236 11.377084,1.04793 1.828058,0.08 3.744357,-0.49377 5.027083,1.06874 l -10.054167,0.79375 c 0.438539,1.32561 1.938955,1.2972 3.175,1.4742 3.221489,0.4613 6.649558,-0.31112 9.789584,0.27703 2.680873,0.50215 5.225422,2.04538 7.672917,3.19705 5.758576,2.7097 12.966083,6.00751 16.933333,11.1913 l -29.36875,0.79375 c 1.295417,1.79622 5.421387,0.89943 7.408334,1.13387 6.20382,0.732 12.53965,0.45363 18.785416,0.45363 3.03229,0 6.14853,-0.65541 8.46667,1.5875 -3.9458,0.69988 -8.65728,0 -12.7,0 H 74.871255 c -3.284915,0 -6.3051,0.28693 -9.525,0.96871 -1.176268,0.24907 -2.72967,0.14608 -3.175,1.41254 h 59.795835 14.02292 c 1.80476,0 4.00453,0.43984 4.7625,-1.5875 -6.48066,-2.36194 -14.36717,1.23879 -20.90209,-0.85295 -4.50071,-1.44062 -8.3295,-6.86452 -12.17083,-9.61707 -3.17959,-2.27838 -7.11887,-4.80124 -10.583334,-6.5758 -2.588553,-1.3259 -5.553739,-2.09301 -7.9375,-3.80032 -3.868325,-2.77059 -1.597729,-6.31454 -1.875766,-10.37469 -0.08406,-1.22746 -0.03674,-4.00999 -1.35946,-4.60285 -0.93244,-0.41794 -2.37866,-0.15965 -3.379358,-0.15965 -3.72684,0 -5.455869,-0.17375 -7.591256,3.175 -0.456184,0.7154 -1.079209,1.48683 -1.066499,2.38125 0.02847,2.00337 2.770428,3.81536 3.895255,5.29167 m 45.508338,21.96041 c 3.31988,0.7904 7.15699,-0.13962 10.58333,0.0104 1.53707,0.0673 3.50986,0.69295 5.00238,0.0945 1.29561,-0.51947 3.35538,-3.4366 2.9488,-4.86642 -0.74611,-2.6238 -3.86751,-2.91057 -6.0991,-2.91143 -5.55334,-0.002 -9.85047,2.68362 -12.43541,7.67291 z"
       id="path2509" /></g></svg>
