<?xml version="1.0" encoding="UTF-8" standalone="no"?>
<!-- Created with Inkscape (http://www.inkscape.org/) -->

<svg
   width="89.460411mm"
   height="82.772827mm"
   viewBox="0 0 89.460413 82.772826"
   version="1.1"
   id="svg1"
   xml:space="preserve"
   inkscape:version="1.4 (86a8ad7, 2024-10-11)"
   sodipodi:docname="SummonCharge.svg"
   xmlns:inkscape="http://www.inkscape.org/namespaces/inkscape"
   xmlns:sodipodi="http://sodipodi.sourceforge.net/DTD/sodipodi-0.dtd"
   xmlns="http://www.w3.org/2000/svg"
   xmlns:svg="http://www.w3.org/2000/svg"><sodipodi:namedview
     id="namedview1"
     pagecolor="#505050"
     bordercolor="#eeeeee"
     borderopacity="1"
     inkscape:showpageshadow="0"
     inkscape:pageopacity="0"
     inkscape:pagecheckerboard="0"
     inkscape:deskcolor="#505050"
     inkscape:document-units="mm"
     inkscape:zoom="1.0179639"
     inkscape:cx="109.53237"
     inkscape:cy="111.98825"
     inkscape:window-width="1920"
     inkscape:window-height="1010"
     inkscape:window-x="4601"
     inkscape:window-y="-6"
     inkscape:window-maximized="1"
     inkscape:current-layer="layer2" /><defs
     id="defs1" /><g
     inkscape:groupmode="layer"
     id="layer2"
     inkscape:label="Layer 2"><path
       style="fill:#ffffff;stroke-width:0.264583"
       d="m 14.886757,15.438119 29.13026,50.26578 28.762684,-50.357674 z"
       id="path1" /></g><g
     inkscape:label="Layer 1"
     inkscape:groupmode="layer"
     id="layer1"
     transform="translate(-49.011193,-39.791626)"><path
       style="fill:#000000"
       d="m 92.134903,121.70455 c -0.287835,-0.47294 -2.89655,-4.96755 -5.797145,-9.98802 -2.900595,-5.02047 -5.574538,-9.66391 -5.942096,-10.31875 -0.367558,-0.65484 -1.221366,-2.123196 -1.897352,-3.263007 -0.675985,-1.13981 -1.229065,-2.241139 -1.229065,-2.447396 0,-0.306961 0.72019,-0.375013 3.968751,-0.375013 2.182812,0 3.96875,-0.06809 3.96875,-0.151323 0,-0.08323 -0.327422,-0.708211 -0.727604,-1.388851 -0.400182,-0.680641 -0.906198,-1.5466 -1.124479,-1.924355 -0.218282,-0.377754 -0.811311,-1.419645 -1.317844,-2.315314 -0.506532,-0.89567 -1.044597,-1.62849 -1.195698,-1.62849 -0.151102,0 -0.661018,0.684609 -1.133146,1.521354 -0.472128,0.836745 -1.1641,2.057136 -1.537716,2.711979 -0.373615,0.654844 -0.967311,1.634557 -1.319324,2.17714 -0.352013,0.542583 -0.640023,1.044946 -0.640023,1.116362 0,0.07142 -0.597269,1.141044 -1.327263,2.376951 -0.787855,1.333866 -1.459908,2.196043 -1.653646,2.12147 -0.179511,-0.0691 -1.219352,-1.689204 -2.310758,-3.600234 -1.091407,-1.91103 -2.225434,-3.903836 -2.520061,-4.428457 -0.294627,-0.524621 -1.025347,-1.787294 -1.623822,-2.80594 -0.598476,-1.018646 -1.339683,-2.298568 -1.647128,-2.844271 -0.307444,-0.545703 -0.809803,-1.438672 -1.116352,-1.984375 -0.306549,-0.545703 -0.647804,-1.11125 -0.758344,-1.256771 -0.11054,-0.14552 -0.514571,-0.83013 -0.897846,-1.521354 -0.383276,-0.691224 -1.011473,-1.816063 -1.395995,-2.499643 -0.384521,-0.68358 -1.055997,-1.844439 -1.49217,-2.579687 -0.436172,-0.735249 -1.014532,-1.72739 -1.285245,-2.204759 -0.270713,-0.477369 -0.492205,-0.983385 -0.492205,-1.124479 0,-0.149371 1.160531,-0.256536 2.778125,-0.256536 1.836674,0 2.778125,-0.0982 2.778125,-0.289769 0,-0.159374 -0.342855,-0.903514 -0.761901,-1.653646 -0.419046,-0.750132 -1.446072,-2.554501 -2.282279,-4.00971 -0.836208,-1.455208 -1.728946,-3.003021 -1.983863,-3.439583 -0.254917,-0.436563 -0.910162,-1.567656 -1.456099,-2.513542 -0.545937,-0.945885 -1.354427,-2.374635 -1.796643,-3.175 -0.442217,-0.800364 -1.088061,-1.909457 -1.43521,-2.46465 -0.347148,-0.555193 -0.879742,-1.448162 -1.183542,-1.984375 -0.303799,-0.536213 -0.850138,-1.50446 -1.214085,-2.15166 -0.363947,-0.647199 -1.007777,-1.763638 -1.430734,-2.480974 -0.422957,-0.717337 -0.731808,-1.497497 -0.686336,-1.73369 0.07497,-0.389404 1.519963,-0.435808 15.498544,-0.497723 13.59441,-0.06021 15.434113,-0.02074 15.570277,0.334098 0.08492,0.221309 0.03471,0.549692 -0.111582,0.72974 -0.146293,0.180047 -0.516801,0.773844 -0.82335,1.319547 -0.306549,0.545703 -0.807246,1.438672 -1.112659,1.984375 -0.305414,0.545703 -0.780086,1.360875 -1.054827,1.811493 -0.274741,0.450618 -0.421732,0.897102 -0.326647,0.992187 0.09509,0.09508 1.872418,0.172882 3.949629,0.172882 2.07721,0 3.837134,-0.09771 3.910941,-0.217131 0.07381,-0.119422 -0.115337,-0.625438 -0.420319,-1.124479 -0.304982,-0.499041 -0.760499,-1.264536 -1.01226,-1.701098 -0.251762,-0.436563 -0.903591,-1.567656 -1.448511,-2.513542 -0.54492,-0.945885 -1.23116,-2.13651 -1.524977,-2.645833 -0.293818,-0.509323 -0.832057,-1.461823 -1.196088,-2.116667 -0.364031,-0.654843 -0.891576,-1.518735 -1.172323,-1.919758 -0.280747,-0.401024 -0.470468,-0.936805 -0.421603,-1.190625 0.08305,-0.431401 1.063322,-0.466261 15.034212,-0.534644 8.219948,-0.04023 15.213258,-0.0082 15.540678,0.07119 0.32742,0.07939 0.59531,0.322816 0.59531,0.540954 0,0.218138 -0.47625,1.180539 -1.05833,2.138667 -0.58209,0.958129 -1.05834,1.779577 -1.05834,1.82544 0,0.04586 -0.55296,1.015961 -1.2288,2.155771 -0.67585,1.139811 -1.43519,2.429571 -1.68743,2.866133 -0.25225,0.436563 -0.87861,1.529344 -1.39193,2.428402 -0.51331,0.899058 -0.86522,1.70273 -0.78201,1.785937 0.0832,0.08321 2.27457,0.151286 4.86969,0.151286 3.69512,0 4.7184,-0.07459 4.7184,-0.343958 0,-0.189177 -0.11045,-0.457068 -0.24545,-0.595313 -0.135,-0.138244 -0.68618,-1.02526 -1.22484,-1.971145 -0.53866,-0.945886 -1.31995,-2.331304 -1.7362,-3.078708 -0.75681,-1.358915 -0.75681,-1.358915 -0.16422,-1.517741 0.32592,-0.08735 7.26009,-0.152083 15.40925,-0.143842 8.14917,0.0082 15.01516,0.09591 15.25775,0.194824 0.40966,0.167032 0.4081,0.245799 -0.0219,1.105883 -0.25464,0.509323 -0.73371,1.402292 -1.06459,1.984375 -0.33088,0.582084 -0.69204,1.177396 -0.80258,1.322917 -0.11054,0.145521 -0.51458,0.83013 -0.89785,1.521354 -0.38328,0.691224 -1.01317,1.822318 -1.39977,2.513542 -0.38659,0.691224 -1.1605,2.01308 -1.71979,2.937458 -0.55929,0.924378 -1.01689,1.712625 -1.01689,1.75166 0,0.03903 -0.7902,1.425851 -1.75601,3.081813 -0.9658,1.655962 -2.02508,3.48709 -2.35395,4.069173 -0.32887,0.582083 -1.20554,2.10952 -1.94816,3.394304 -0.74262,1.284784 -1.35021,2.445644 -1.35021,2.579688 0,0.134044 0.83343,0.243716 1.85208,0.243716 1.01865,0 1.85065,0.0893 1.8489,0.198438 -0.002,0.10914 -0.31082,0.734218 -0.6868,1.389062 -0.37599,0.654844 -0.95519,1.666875 -1.28711,2.248958 -0.33192,0.582084 -1.04945,1.83224 -1.59452,2.778125 -0.54506,0.945886 -1.23142,2.136511 -1.52524,2.645834 -0.29382,0.509323 -0.83368,1.461823 -1.19971,2.116666 -0.36602,0.654844 -1.12309,1.946935 -1.68238,2.871313 -0.55929,0.924378 -1.01689,1.712929 -1.01689,1.752336 0,0.03941 -1.20879,2.140598 -2.68619,4.669313 -1.47741,2.528715 -2.8491,4.912557 -3.0482,5.297427 -0.19911,0.38487 -0.53017,0.839322 -0.73569,1.009894 -0.29739,0.24681 -0.45341,0.184976 -0.76419,-0.302889 -0.21478,-0.33716 -0.93712,-1.545591 -1.60521,-2.685401 -0.66808,-1.139811 -1.21469,-2.106864 -1.21469,-2.149007 0,-0.04214 -0.62628,-1.133634 -1.39175,-2.425534 -0.76546,-1.291901 -1.55948,-2.676332 -1.7645,-3.076514 -0.20501,-0.400182 -0.45712,-0.727604 -0.56023,-0.727604 -0.10311,0 -0.30917,0.148828 -0.45791,0.330729 -0.14874,0.181901 -1.05629,1.677049 -2.01677,3.322552 -0.96049,1.645502 -1.74634,3.044486 -1.74634,3.108854 0,0.06437 1.84547,0.117031 4.10104,0.117031 2.25558,0 4.10105,0.06694 4.10105,0.148759 0,0.08182 -1.59293,2.909552 -3.53984,6.283854 -1.9469,3.3743 -3.77574,6.55181 -4.06408,7.06113 -0.28833,0.50933 -0.88111,1.52761 -1.317286,2.26286 -0.436172,0.73525 -1.090815,1.86634 -1.454762,2.51354 -0.363947,0.6472 -0.929369,1.65298 -1.256492,2.23506 -0.327123,0.58209 -0.685212,1.1774 -0.795752,1.32292 -0.11054,0.14552 -0.497738,0.80036 -0.860439,1.45521 -0.362701,0.65484 -0.927103,1.66687 -1.254226,2.24896 -0.327123,0.58208 -0.715723,1.20716 -0.863555,1.38906 -0.147831,0.1819 -0.363558,0.33073 -0.479392,0.33073 -0.115834,0 -0.446108,-0.38696 -0.733943,-0.8599 z m 2.235941,-6.35 c 0.700101,-1.20055 1.407922,-2.42094 1.572936,-2.71198 0.165014,-0.29104 0.953019,-1.66026 1.751122,-3.04271 0.798104,-1.38244 2.511718,-4.35854 3.808038,-6.61355 1.29631,-2.255 2.44392,-4.312972 2.55025,-4.57326 0.17935,-0.439081 -0.002,-0.467811 -2.51041,-0.397906 -2.703726,0.07534 -2.703726,0.07534 -5.484984,4.896586 -1.529691,2.65169 -2.921502,4.87708 -3.092913,4.94532 -0.179704,0.0715 -0.963858,-1.01671 -1.852083,-2.57033 -0.847236,-1.48192 -1.719022,-3.00425 -1.937303,-3.38297 -0.218282,-0.37872 -0.811311,-1.42139 -1.317844,-2.317063 -0.920968,-1.628489 -0.920968,-1.628489 -3.638021,-1.628489 -1.494379,0 -2.717053,0.05266 -2.717053,0.117031 0,0.06437 0.775954,1.463352 1.724343,3.108851 0.948388,1.64551 1.898524,3.28948 2.111413,3.65328 0.212888,0.36381 1.954345,3.37013 3.869905,6.68073 1.915559,3.3106 3.574378,6.01927 3.686264,6.01927 0.111887,0 0.776239,-0.98226 1.47634,-2.18281 z m 0.162466,-14.85646 c 0.691224,-1.217782 1.256771,-2.346972 1.256771,-2.509312 0,-0.198316 -0.906419,-0.295164 -2.762511,-0.295164 -1.519381,0 -2.832713,0.113591 -2.918516,0.252423 -0.0858,0.138832 0.452218,1.322165 1.195603,2.629623 0.763965,1.34366 1.486448,2.3249 1.661745,2.25689 0.170575,-0.0662 0.875684,-1.11668 1.566908,-2.33446 z m -3.241147,-5.48466 c 0,-0.164413 -0.938912,-1.920585 -2.086472,-3.902604 -1.14756,-1.982018 -2.321553,-4.020389 -2.608872,-4.529712 -0.28732,-0.509322 -0.879268,-1.527608 -1.31544,-2.262856 -0.436172,-0.735249 -1.090815,-1.866342 -1.454762,-2.513542 -0.363947,-0.6472 -0.902118,-1.593445 -1.195936,-2.102768 C 82.336864,79.192625 81.650624,78.002 81.105704,77.056114 80.560784,76.110229 79.90594,74.979135 79.650496,74.542573 79.395051,74.10601 78.740207,72.974917 78.195287,72.029031 77.650367,71.083146 76.995524,69.952052 76.740079,69.51549 76.484634,69.078927 75.82979,67.947833 75.28487,67.001948 74.73995,66.056062 74.08174,64.911515 73.822181,64.45851 c -0.259559,-0.453006 -0.63195,-1.10785 -0.827535,-1.455209 -0.195585,-0.347359 -0.526134,-0.843505 -0.734554,-1.102547 -0.351547,-0.436934 -0.432845,-0.384385 -1.124479,0.726824 -0.410044,0.658795 -0.745535,1.305784 -0.745535,1.437755 0,0.131971 0.431281,0.995525 0.958402,1.91901 0.527122,0.923485 1.167403,2.036251 1.422848,2.472813 0.255445,0.436563 0.910289,1.567656 1.455209,2.513542 0.544919,0.945885 1.231159,2.13651 1.524977,2.645833 0.293817,0.509323 0.833686,1.461823 1.199707,2.116667 0.366021,0.654844 1.123094,1.946934 1.682384,2.871312 0.55929,0.924378 1.016891,1.723421 1.016891,1.77565 0,0.05223 0.654843,1.186368 1.455208,2.520306 0.800365,1.333939 1.455209,2.454541 1.455209,2.490228 0,0.03569 1.20176,2.133834 2.670578,4.662549 1.468818,2.528715 2.793084,4.746491 2.942814,4.928392 0.156258,0.189833 0.878379,0.330729 1.695047,0.330729 0.881149,0 1.422811,-0.113803 1.422811,-0.298934 z m 10.858057,-7.701786 c 2.54104,-4.400396 4.7503,-8.240161 4.90946,-8.532812 0.15916,-0.292651 0.68047,-1.186936 1.15845,-1.987301 0.47798,-0.800364 2.46112,-4.223837 4.40696,-7.607716 1.94585,-3.383879 3.53791,-6.29045 3.53791,-6.459046 0,-0.168596 -0.30678,-0.83002 -0.68174,-1.469831 -0.55139,-0.940882 -0.75268,-1.104408 -1.05284,-0.855301 -0.20411,0.169396 -0.53294,0.622886 -0.73073,1.007756 -0.19779,0.38487 -0.69516,1.295076 -1.10526,2.02268 -0.41011,0.727604 -1.20325,2.079226 -1.76254,3.003604 -0.55929,0.924378 -1.01689,1.718212 -1.01689,1.764075 0,0.04586 -0.55308,1.015961 -1.22907,2.155771 -0.67598,1.139811 -1.52979,2.608164 -1.89735,3.263008 -0.36756,0.654844 -3.04331,5.298281 -5.94612,10.31875 -2.902813,5.020469 -5.572663,9.634141 -5.933001,10.252604 -0.655161,1.124479 -0.655161,1.124479 1.033765,1.124479 1.688925,0 1.688925,0 6.308996,-8.00072 z m 11.71735,4.480365 c 0.94271,-1.641806 1.96389,-3.426374 2.2693,-3.965706 0.30541,-0.539333 0.78703,-1.389559 1.07025,-1.889392 0.28323,-0.499833 0.79899,-1.363036 1.14614,-1.91823 0.34714,-0.555193 0.99299,-1.664285 1.4352,-2.46465 0.44222,-0.800364 1.24476,-2.229114 1.78342,-3.175 0.53866,-0.945885 1.08983,-1.832901 1.22483,-1.971146 0.135,-0.138244 0.24546,-0.465666 0.24546,-0.727604 0,-0.443072 -0.37661,-0.47625 -5.40595,-0.47625 -5.40594,0 -5.40594,0 -5.91313,0.727604 -0.27896,0.400183 -1.59675,2.613534 -2.92843,4.918558 -1.33169,2.305024 -2.42125,4.355231 -2.42125,4.556015 0,0.200783 0.25155,0.815167 0.559,1.365296 0.30744,0.55013 1.00443,1.774142 1.54886,2.720027 0.54444,0.945885 1.49039,2.585773 2.10212,3.644194 0.61174,1.058422 1.21528,1.860724 1.34121,1.782895 0.12593,-0.07783 1.00027,-1.484805 1.94297,-3.126611 z m -39.111867,1.086615 c 0.582084,-1.045568 1.299392,-2.324693 1.594019,-2.842501 0.294627,-0.517807 1.038768,-1.795678 1.653646,-2.839713 0.614879,-1.044035 1.117961,-2.075994 1.117961,-2.293242 0,-0.217248 -0.535781,-1.301232 -1.190625,-2.408853 -0.654844,-1.107621 -1.190625,-2.081345 -1.190625,-2.163831 0,-0.08249 -0.221105,-0.466009 -0.491344,-0.852276 -0.270238,-0.386266 -0.792281,-1.247466 -1.160095,-1.913777 -0.367813,-0.666311 -0.830193,-1.469983 -1.02751,-1.785937 -0.350732,-0.561612 -0.490509,-0.574463 -6.248239,-0.574463 -3.239214,0 -5.889035,0.0893 -5.888491,0.198438 5.43e-4,0.10914 0.256245,0.615156 0.568225,1.124479 0.311979,0.509323 0.773222,1.283229 1.024983,1.719791 0.251761,0.436563 0.90371,1.567657 1.448774,2.513542 0.545065,0.945886 1.291822,2.255573 1.65946,2.910417 0.367638,0.654844 1.736388,3.036094 3.041668,5.291666 1.305279,2.255573 2.606858,4.487995 2.892397,4.960938 0.28554,0.472943 0.658281,0.859099 0.828313,0.858126 0.170033,-9.74e-4 0.7854,-0.857235 1.367483,-1.902804 z m 19.017563,-4.251131 c 0.2732,-0.470664 0.736518,-1.272472 1.029595,-1.781795 0.293078,-0.509323 0.832341,-1.461823 1.198362,-2.116667 0.366021,-0.654844 1.123094,-1.946934 1.682384,-2.871312 0.55929,-0.924378 1.01689,-1.723421 1.01689,-1.775651 0,-0.05223 0.654844,-1.186367 1.455213,-2.520305 0.80036,-1.333939 1.4552,-2.465033 1.4552,-2.513542 0,-0.04851 0.65485,-1.179603 1.45521,-2.513542 0.80037,-1.333938 1.45521,-2.459823 1.45521,-2.501966 0,-0.04214 0.51306,-0.949665 1.14013,-2.016716 0.62708,-1.06705 1.52878,-2.6247 2.0038,-3.461445 0.86366,-1.521354 0.86366,-1.521354 -14.633887,-1.521354 -9.392186,0 -15.497544,0.09707 -15.497544,0.246385 0,0.135511 1.50023,2.844183 3.333845,6.019271 1.833616,3.175087 3.603338,6.249135 3.932717,6.831219 0.329378,0.582083 1.39104,2.427552 2.359247,4.101041 0.968207,1.67349 1.938388,3.340365 2.155956,3.704167 0.217568,0.363802 1.057538,1.815288 1.8666,3.225525 0.838852,1.462161 1.604958,2.512147 1.782683,2.443254 0.171414,-0.06645 0.535189,-0.505902 0.808389,-0.976567 z M 71.977578,72.400604 c 0,-0.232197 -0.221148,-0.738213 -0.491441,-1.124479 -0.270293,-0.386266 -0.538263,-0.821365 -0.595491,-0.966885 -0.05723,-0.145521 -0.504265,-0.952698 -0.993419,-1.793726 -0.707327,-1.216147 -0.962758,-1.468235 -1.247908,-1.231582 -0.197195,0.163658 -0.801653,1.089897 -1.343239,2.058309 -0.541585,0.968412 -1.134713,2.049868 -1.318061,2.403236 -0.183348,0.353368 -0.272895,0.740321 -0.198994,0.859896 0.0739,0.119574 1.496558,0.217408 3.161459,0.217408 2.594993,0 3.027094,-0.06026 3.027094,-0.422177 z m 49.741672,0.145474 c 0,-0.152186 -0.27178,-0.777264 -0.60395,-1.389062 -0.33217,-0.611798 -1.17603,-2.094625 -1.87524,-3.295172 -0.69921,-1.200547 -1.36356,-2.182813 -1.47633,-2.182813 -0.11277,0 -1.06186,1.488308 -2.10909,3.30735 -1.04723,1.819042 -1.83048,3.426386 -1.74056,3.571875 0.0968,0.156552 1.72306,0.264525 3.98433,0.264525 2.4824,0 3.82084,-0.09693 3.82084,-0.276703 z M 65.995669,66.466939 c 0.91483,-1.574471 1.196247,-2.296296 1.061242,-2.722051 -0.101048,-0.318669 -0.470381,-1.033647 -0.82074,-1.58884 -0.350359,-0.555194 -0.88558,-1.448162 -1.189379,-1.984375 -0.3038,-0.536214 -0.850138,-1.50446 -1.214085,-2.15166 -0.363947,-0.6472 -1.001958,-1.753767 -1.417801,-2.459039 -0.415843,-0.705272 -0.756079,-1.393858 -0.756079,-1.530191 0,-0.144532 2.448624,-0.277566 5.873083,-0.319086 5.873083,-0.07121 5.873083,-0.07121 7.119797,-2.234904 0.994162,-1.725387 1.166787,-2.194368 0.852153,-2.315104 -0.217008,-0.08327 -5.325917,-0.151408 -11.353131,-0.151408 -6.90014,0 -10.958569,0.09501 -10.958569,0.256536 0,0.141095 0.221492,0.64711 0.492205,1.124479 0.270713,0.477369 0.849073,1.46951 1.285245,2.204759 0.436172,0.735248 1.090815,1.866342 1.454762,2.513541 0.363947,0.6472 0.902119,1.593446 1.195936,2.102769 0.293818,0.509323 0.980176,1.699947 1.52524,2.645833 0.545065,0.945885 1.292652,2.255573 1.661304,2.910417 0.368653,0.654843 1.127878,1.946934 1.687168,2.871312 0.55929,0.924378 1.016891,1.732239 1.016891,1.795246 0,0.06301 0.191617,0.407004 0.425816,0.764437 0.234199,0.357433 0.513152,0.595901 0.619896,0.52993 0.106744,-0.06597 0.754314,-1.084142 1.439046,-2.262601 z m 57.659131,1.046397 c 0.27828,-0.499545 2.08533,-3.646701 4.01567,-6.99368 1.93033,-3.346979 3.76224,-6.531901 4.0709,-7.077604 0.30867,-0.545703 0.80157,-1.416502 1.09534,-1.93511 0.29377,-0.518607 0.71091,-1.212721 0.92697,-1.542474 0.21606,-0.329754 0.31305,-0.679345 0.21553,-0.77687 -0.0975,-0.09752 -5.1581,-0.177317 -11.24572,-0.177317 -6.97107,0 -11.06841,0.09497 -11.06841,0.256536 0,0.141095 0.22129,0.64711 0.49175,1.124479 0.27046,0.477369 0.79449,1.403725 1.16451,2.058569 0.67277,1.190625 0.67277,1.190625 5.72596,1.262484 3.78046,0.05376 5.05295,0.153719 5.05221,0.396875 -5.4e-4,0.178758 -0.25624,0.741734 -0.56822,1.251057 -0.31198,0.509323 -0.78779,1.312995 -1.05735,1.785938 -0.26956,0.472942 -0.70995,1.246849 -0.97864,1.719791 -0.26869,0.472943 -0.864,1.524348 -1.32289,2.336456 -0.83436,1.47656 -0.83436,1.47656 -0.23041,2.645833 0.33217,0.643101 1.0726,1.974178 1.6454,2.95795 0.5728,0.983772 1.15845,1.749678 1.30145,1.702013 0.14299,-0.04766 0.48767,-0.495381 0.76595,-0.994926 z M 70.045487,59.593615 c 0.431698,-0.800365 0.942751,-1.707328 1.135672,-2.015473 0.192921,-0.308145 0.276181,-0.75463 0.185021,-0.992188 -0.135029,-0.35188 -0.571795,-0.431172 -2.356861,-0.427871 -1.205114,0.0022 -2.369446,0.116785 -2.587405,0.25457 -0.345756,0.218574 -0.329397,0.378316 0.128288,1.25272 0.288517,0.55121 0.924853,1.639569 1.414079,2.418576 0.489226,0.779007 0.981032,1.314789 1.092902,1.190625 0.111869,-0.124163 0.556606,-0.880595 0.988304,-1.680959 z M 118.80033,58.50824 c 0.45685,-0.742476 0.79333,-1.546148 0.74773,-1.785937 -0.063,-0.331335 -0.43158,-0.452447 -1.53555,-0.504585 -0.79895,-0.03773 -1.63097,0.04706 -1.84892,0.188424 -0.34624,0.224569 -0.33053,0.383602 0.12443,1.259231 0.2864,0.55121 0.68678,1.270091 0.88974,1.597512 0.20296,0.327422 0.46417,0.595313 0.58047,0.595313 0.11631,0 0.58525,-0.607481 1.0421,-1.349958 z m -4.92426,0.353069 c 0.0691,-0.111726 -0.16023,-0.677273 -0.50952,-1.256771 -0.34928,-0.579497 -0.90477,-1.13106 -1.23441,-1.225696 -0.32964,-0.09463 -8.63607,-0.182306 -18.458726,-0.194824 -9.822658,-0.01252 -18.102909,0.04266 -18.40056,0.122621 -0.29765,0.07996 -0.853897,0.663103 -1.236104,1.295873 -0.382207,0.63277 -0.624847,1.220566 -0.5392,1.306213 0.08565,0.08565 9.177603,0.155723 20.204346,0.155723 11.026744,0 20.105124,-0.09141 20.174174,-0.203139 z M 99.106823,51.788406 c 0.600136,-1.018646 1.391767,-2.387864 1.759187,-3.042708 0.36741,-0.654844 1.2211,-2.123197 1.89709,-3.263008 0.67599,-1.13981 1.22906,-2.241139 1.22906,-2.447396 0,-0.317652 -1.69299,-0.375013 -11.068399,-0.375013 -6.087622,0 -11.144261,0.07586 -11.236976,0.168572 -0.09271,0.09271 0.06604,0.498047 0.352778,0.90074 0.286742,0.402692 0.52135,0.798456 0.52135,0.879474 0,0.08102 0.654843,1.238711 1.455208,2.572649 0.800365,1.333939 1.455209,2.467873 1.455209,2.519854 0,0.05198 0.374561,0.721379 0.832358,1.487549 0.457797,0.766171 0.997998,1.663483 1.200445,1.994028 0.364732,0.595513 0.414323,0.600337 5.439811,0.529167 5.071723,-0.07182 5.071723,-0.07182 6.162879,-1.923908 z"
       id="path2521" /></g></svg>
