<?xml version="1.0" encoding="UTF-8" standalone="no"?>
<!-- Created with Inkscape (http://www.inkscape.org/) -->

<svg
   width="72.745789mm"
   height="72.757057mm"
   viewBox="0 0 72.745785 72.757059"
   version="1.1"
   id="svg1"
   xml:space="preserve"
   inkscape:version="1.4 (86a8ad7, 2024-10-11)"
   sodipodi:docname="Support.svg"
   xmlns:inkscape="http://www.inkscape.org/namespaces/inkscape"
   xmlns:sodipodi="http://sodipodi.sourceforge.net/DTD/sodipodi-0.dtd"
   xmlns="http://www.w3.org/2000/svg"
   xmlns:svg="http://www.w3.org/2000/svg"><sodipodi:namedview
     id="namedview1"
     pagecolor="#505050"
     bordercolor="#eeeeee"
     borderopacity="1"
     inkscape:showpageshadow="0"
     inkscape:pageopacity="0"
     inkscape:pagecheckerboard="0"
     inkscape:deskcolor="#505050"
     inkscape:document-units="mm"
     inkscape:zoom="1.4396184"
     inkscape:cx="86.828565"
     inkscape:cy="111.83519"
     inkscape:window-width="1920"
     inkscape:window-height="1010"
     inkscape:window-x="1529"
     inkscape:window-y="-6"
     inkscape:window-maximized="1"
     inkscape:current-layer="layer1" /><defs
     id="defs1" /><g
     inkscape:label="Layer 1"
     inkscape:groupmode="layer"
     id="layer1"
     transform="translate(-66.365681,-95.871872)"><path
       style="fill:#000000"
       d="m 99.66563,168.29343 c -0.627284,-0.48161 -1.035405,-1.37969 -1.035405,-2.27842 0,-0.66936 0.23515,-0.96436 1.437495,-1.80333 10.60891,-7.40272 16.54552,-14.89407 18.30245,-23.09567 0.65893,-3.076 0.39037,-8.52616 -0.5541,-11.2449 -0.81897,-2.35747 -1.82552,-4.40169 -2.28966,-4.65008 -0.25674,-0.13741 -4.80853,-0.24471 -10.38088,-0.24471 -5.997937,0 -9.985252,-0.0997 -10.079357,-0.25192 -0.259018,-0.4191 3.547381,-3.37431 5.945297,-4.61581 3.73808,-1.93536 5.60395,-2.38469 9.92188,-2.38937 3.81449,-0.004 4.6563,0.13416 8.33437,1.36911 3.60767,1.21131 6.4859,2.80437 10.55644,5.84284 3.21874,2.40264 4.28563,2.92553 6.00669,2.94396 2.69885,0.0289 3.28062,0.79099 3.28062,4.29756 0,3.40135 -0.75835,4.17967 -4.07437,4.18171 -2.04914,0.001 -3.05929,0.58746 -3.859,2.23945 -0.44904,0.92758 -0.5673,1.54594 -0.47646,2.49133 0.15107,1.57219 0.89499,2.60417 2.88203,3.99799 1.70257,1.19429 1.93226,1.61059 1.57533,2.85515 -0.57448,2.00309 -2.85143,5.08384 -3.75741,5.08384 -0.14353,0 -1.05713,-0.38696 -2.03023,-0.8599 -3.16237,-1.53697 -5.57113,-0.98122 -6.81589,1.57257 -0.66525,1.36484 -0.59566,2.82544 0.22473,4.71642 1.13747,2.62185 1.14011,2.69693 0.12821,3.65127 -1.21475,1.14566 -3.92692,2.5613 -4.90708,2.5613 -0.57932,0 -1.01857,-0.25411 -1.61661,-0.93524 -0.45164,-0.51439 -0.82116,-1.04983 -0.82116,-1.18987 0,-0.14004 -0.43058,-0.7312 -0.95683,-1.31371 -0.92153,-1.02001 -1.01765,-1.05909 -2.60518,-1.05909 -3.15604,0 -4.48506,1.29115 -4.92285,4.78256 -0.29722,2.37043 -0.46492,2.71613 -1.60305,3.30467 -0.92603,0.47888 -5.20018,0.50851 -5.81002,0.0403 z m -13.867697,-3.78648 c -3.783114,-1.92295 -4.222796,-2.6455 -3.054223,-5.01921 1.547669,-3.14377 1.283672,-5.20322 -0.866671,-6.76092 -1.477753,-1.07047 -3.206317,-1.05247 -5.579608,0.0581 -1.194786,0.55911 -1.964536,0.76846 -2.412285,0.65608 -1.167771,-0.29309 -3.565337,-4.09801 -3.565337,-5.65816 0,-0.79423 0.882228,-1.7766 2.172873,-2.4195 0.394716,-0.19662 1.079326,-0.71108 1.521355,-1.14325 0.737828,-0.72136 0.803688,-0.93175 0.803688,-2.56731 0,-1.41199 -0.123494,-1.96302 -0.595312,-2.65626 -0.999383,-1.4684 -1.8379,-1.91629 -3.956003,-2.1131 -3.579832,-0.33263 -4.026483,-0.87925 -3.876008,-4.74353 0.123935,-3.18271 0.378778,-3.451 3.552931,-3.74031 2.679437,-0.24422 3.361019,-0.62581 4.261116,-2.38566 0.673927,-1.31765 0.771546,-2.96138 0.23447,-3.94804 -0.198031,-0.36381 -1.235608,-1.38475 -2.305729,-2.26876 -2.416723,-1.99642 -2.522408,-2.45981 -1.097253,-4.81108 2.05632,-3.39259 2.756789,-3.93253 4.116108,-3.17277 1.428616,0.79849 1.517764,0.97783 1.517764,3.05321 0,1.85449 0.12257,2.90637 0.838914,7.1994 2.127682,12.75115 8.64337,21.65733 17.97964,24.57604 1.876097,0.58651 6.336177,1.23927 6.924617,1.01347 0.29787,-0.1143 2.40956,-3.40752 3.09641,-4.8289 1.0481,-2.16896 7.31415,-12.55853 7.57416,-12.55853 0.36999,0 0.40433,0.1162 0.8691,2.94092 1.88788,11.4739 -5.22277,21.32371 -19.284676,26.71354 -3.089968,1.18436 -3.453109,1.46457 -5.226567,4.03306 -1.018381,1.47491 -1.641215,1.56918 -3.643474,0.55144 z m 11.814534,-21.95318 c -4.65099,-1.74255 -8.689204,-4.80801 -11.052287,-8.38994 -1.262511,-1.91369 -2.779202,-5.18273 -3.096428,-6.67397 -0.09287,-0.43656 -0.35521,-1.62718 -0.582979,-2.64583 -0.527761,-2.36028 -0.601546,-10.1585 -0.117674,-12.43679 0.563974,-2.65545 0.469181,-5.32804 -0.249918,-7.04617 -0.821746,-1.96338 -0.645062,-2.56175 1.098177,-3.7192 2.11761,-1.40601 2.997453,-1.800965 4.012055,-1.800965 0.957763,0 1.64471,0.662875 2.527699,2.439115 1.038301,2.08867 3.554079,2.79997 5.833279,1.64928 1.627834,-0.82184 2.645834,-2.85 2.645834,-5.271278 0,-1.595717 0.361259,-2.049665 1.984375,-2.493511 2.38923,-0.653342 5.31331,-0.164945 5.93183,0.990768 0.15723,0.293794 0.28588,1.32946 0.28588,2.301479 0,2.382742 0.67001,3.591512 2.40426,4.337572 2.75591,1.18556 4.64127,0.40901 6.55518,-2.7 1.07564,-1.747295 1.7893,-1.877433 4.15589,-0.75784 2.07663,0.98243 3.55342,2.27364 3.55342,3.1069 0,0.35049 -0.42968,1.53036 -0.95483,2.62194 -0.73571,1.52922 -0.91769,2.18121 -0.79298,2.84107 0.2418,1.27945 1.06908,2.46969 2.26804,3.26312 1.23028,0.81417 2.50103,0.90416 4.10998,0.29108 2.8374,-1.0812 3.26827,-1.20327 3.77719,-1.07019 0.53,0.1386 1.87329,1.93198 2.82361,3.76968 0.71664,1.38583 0.60964,2.62321 -0.29049,3.35954 -0.41474,0.33925 -0.89121,0.62111 -1.05884,0.62634 -0.16763,0.005 -1.29872,-0.45774 -2.51354,-1.02884 -3.04151,-1.42983 -6.40107,-2.77489 -8.29418,-3.32072 -0.87313,-0.25175 -1.88516,-0.56056 -2.24896,-0.68625 -3.50073,-1.20948 -11.59342,-1.56523 -15.43526,-0.67852 -3.90604,0.90152 -7.124877,2.53429 -10.171376,5.15946 -1.585724,1.36643 -4.830849,5.55753 -4.887722,6.31254 -0.02017,0.26776 2.189371,4.33049 4.910092,9.02829 2.72072,4.69779 4.946764,8.71226 4.946764,8.92104 0,0.4721 -0.02835,0.46801 -2.076091,-0.2992 z"
       id="path1" /></g></svg>
