<?xml version="1.0" encoding="UTF-8" standalone="no"?>
<!-- Created with Inkscape (http://www.inkscape.org/) -->

<svg
   width="79.231697mm"
   height="75.674515mm"
   viewBox="0 0 79.231693 75.674516"
   version="1.1"
   id="svg1"
   xml:space="preserve"
   inkscape:version="1.4 (86a8ad7, 2024-10-11)"
   sodipodi:docname="ThreeHanded.svg"
   xmlns:inkscape="http://www.inkscape.org/namespaces/inkscape"
   xmlns:sodipodi="http://sodipodi.sourceforge.net/DTD/sodipodi-0.dtd"
   xmlns="http://www.w3.org/2000/svg"
   xmlns:svg="http://www.w3.org/2000/svg"><sodipodi:namedview
     id="namedview1"
     pagecolor="#505050"
     bordercolor="#eeeeee"
     borderopacity="1"
     inkscape:showpageshadow="0"
     inkscape:pageopacity="0"
     inkscape:pagecheckerboard="0"
     inkscape:deskcolor="#505050"
     inkscape:document-units="mm"
     inkscape:zoom="1.4396184"
     inkscape:cx="61.821938"
     inkscape:cy="150.73439"
     inkscape:window-width="1920"
     inkscape:window-height="1010"
     inkscape:window-x="1529"
     inkscape:window-y="-6"
     inkscape:window-maximized="1"
     inkscape:current-layer="layer1" /><defs
     id="defs1" /><g
     inkscape:label="Layer 1"
     inkscape:groupmode="layer"
     id="layer1"
     transform="translate(-63.705223,-94.681535)"><path
       style="fill:#000000"
       d="m 95.221125,168.57011 c -1.296917,-2.22674 -2.016846,-3.50018 -3.028985,-5.35781 -0.436084,-0.80036 -0.883743,-1.57427 -0.9948,-1.71979 -0.111056,-0.14552 -0.572598,-0.97896 -1.025648,-1.85208 l -0.823729,-1.5875 1.262189,-0.17526 c 0.694203,-0.0964 1.917031,-0.18748 2.717396,-0.20242 1.332523,-0.0249 2.126111,-0.22616 3.96875,-1.00665 0.363802,-0.1541 0.744118,-0.20332 0.845147,-0.10938 0.155092,0.1442 4.990555,8.47359 6.627095,11.41558 0.28332,0.50932 0.62297,1.03915 0.75477,1.1774 0.13181,0.13824 0.23965,0.46566 0.23965,0.7276 0,0.44093 -0.35234,0.47625 -4.75082,0.47625 h -4.750834 z m -19.80064,0.22691 c -3.678676,-2.67356 -8.387423,-8.21315 -10.889491,-12.81091 -0.845108,-1.55296 -1.038097,-2.29881 -0.594816,-2.29881 0.13308,0 1.585614,-0.81584 3.227854,-1.81297 l 2.98589,-1.81298 0.04063,-4.074 c 0.05147,-5.16085 0.246806,-5.86484 2.157416,-7.77545 2.755316,-2.75532 5.389882,-4.18626 7.45668,-4.05004 1.090524,0.0719 1.291596,0.20241 2.362764,1.53378 0.643942,0.80036 1.48494,1.81239 1.868884,2.24895 1.881118,2.13892 2.71228,3.32553 2.632293,3.75799 -0.105874,0.57242 -1.719011,1.40449 -3.074337,1.58578 -0.816057,0.10916 -1.217453,-0.0304 -2.371395,-0.82463 -0.821509,-0.56541 -1.389063,-0.81601 -1.389063,-0.61332 0,0.1885 0.654844,1.68375 1.455209,3.32279 1.281279,2.62388 1.455208,3.17382 1.455208,4.60111 0,1.57653 -1.151613,6.7013 -1.619531,7.20705 -0.307921,0.33282 -0.298648,1.20386 0.01282,1.20386 0.516457,0 1.75782,-3.16219 2.328996,-5.93278 0.117694,-0.5709 0.33075,-1.0716 0.473458,-1.11269 0.246636,-0.071 5.551135,10.25239 5.551135,10.80338 0,0.14441 -0.47625,0.53117 -1.058334,0.85945 -0.582083,0.32829 -3.335903,1.90574 -6.119599,3.50544 -2.783697,1.5997 -5.245938,2.97942 -5.471647,3.06603 -0.233153,0.0895 -0.846839,-0.15973 -1.421025,-0.57703 z M 106.083,167.52698 c -1.95457,-3.37217 -3.49504,-6.14805 -3.49504,-6.29799 0,-0.0823 0.49105,-1.00914 1.09122,-2.0597 0.60017,-1.05056 1.32509,-2.32683 1.61094,-2.83616 0.88963,-1.58517 1.10867,-1.71857 2.25696,-1.37454 0.90305,0.27057 1.049,0.43755 1.34292,1.53646 0.25132,0.93966 0.7133,1.60821 1.94236,2.81085 l 1.61262,1.57794 -0.5679,1.09809 c -1.22753,2.37353 -4.15785,7.14877 -4.44571,7.24472 -0.16742,0.0558 -0.77418,-0.70905 -1.34837,-1.69967 z m 12.15213,-6.31982 c -2.23398,-0.47103 -5.27421,-1.98074 -6.62117,-3.28792 -0.91877,-0.89164 -1.0885,-1.22198 -1.0885,-2.11857 0,-0.58422 0.10906,-1.26896 0.24234,-1.52165 0.49497,-0.93836 1.05221,-2.37896 1.86391,-4.8187 0.45878,-1.37896 0.96544,-2.58833 1.1259,-2.6875 0.61131,-0.37782 2.06311,0.58672 3.03425,2.01588 0.45881,0.67521 0.61277,1.27093 0.61277,2.37102 0,0.80809 -0.11906,1.46925 -0.26458,1.46925 -0.14552,0 -0.26459,0.14552 -0.26459,0.32338 0,0.54271 0.94452,-0.57638 2.83625,-3.36046 1.7142,-2.52281 1.88068,-2.68285 3.74439,-3.5994 1.07273,-0.52756 3.09679,-1.22879 4.49791,-1.55829 1.40112,-0.3295 2.72609,-0.67035 2.94437,-0.75744 0.78762,-0.31425 -2.01852,-0.34545 -3.43958,-0.0382 -1.41465,0.30583 -1.69868,0.39488 -3.2536,1.02 -1.44636,0.58149 -1.50332,0.70415 2.4883,-5.35898 2.69985,-4.10099 3.33077,-4.90401 3.74876,-4.77135 0.27642,0.0877 3.20079,1.73035 6.49862,3.65026 l 5.99604,3.49075 -0.08,1.44499 c -0.044,0.79474 -0.17916,1.80217 -0.30034,2.23874 -0.12117,0.43656 -0.37639,1.50812 -0.56716,2.38125 -0.80547,3.68663 -5.09127,12.83229 -6.01341,12.83229 -0.21747,0 -1.30007,-0.52145 -2.40578,-1.15879 -1.1057,-0.63733 -2.46048,-1.41123 -3.01061,-1.71979 -1.00457,-0.56344 -2.18667,-0.74092 -2.35115,-0.35301 -0.2691,0.63464 -6.18695,3.86317 -7.49653,4.08979 -0.43656,0.0756 -1.55112,-0.0223 -2.47679,-0.21751 z m -29.282393,-5.14101 c -0.785665,-0.29624 -1.234246,-0.94134 -1.135603,-1.63312 0.06476,-0.45416 0.318846,-0.65334 1.012497,-0.7937 0.509323,-0.10306 1.461823,-0.32035 2.116667,-0.48286 0.654844,-0.16251 1.526237,-0.3624 1.936429,-0.44419 0.410193,-0.0818 1.71988,-0.4835 2.910417,-0.89268 1.344644,-0.46214 2.25965,-0.65038 2.4155,-0.49693 0.344488,0.33919 0.266734,2.04151 -0.126836,2.7769 -0.57365,1.07188 -2.967893,1.89329 -5.944885,2.03956 -1.455208,0.0715 -2.888092,0.0387 -3.184186,-0.073 z m 17.673083,-3.11217 c -1.95794,-1.0197 -2.97952,-1.98778 -2.97952,-2.82348 0,-1.30583 2.21324,-4.90987 3.01515,-4.90987 0.17725,0 1.32753,0.40725 2.55617,0.905 1.93534,0.78406 2.22955,0.98737 2.20147,1.52136 -0.0383,0.7287 -1.62629,5.23205 -2.0133,5.70958 -0.41348,0.51019 -1.26375,0.38705 -2.77997,-0.40259 z m -20.71373,-1.71407 c -1.045988,-2.30437 -1.083276,-2.26098 4.130824,-4.80628 2.559075,-1.24923 4.800509,-2.27133 4.980962,-2.27133 0.424959,0 1.291613,0.98846 1.692761,1.93068 0.173293,0.40703 0.315077,1.32557 0.315077,2.04121 0,1.00289 -0.114075,1.36221 -0.497635,1.56749 -0.703822,0.37667 -2.560347,0.96469 -4.264864,1.35082 -0.800365,0.1813 -2.241951,0.55065 -3.203526,0.82076 -2.432656,0.68336 -2.568284,0.65612 -3.153599,-0.63335 z m 31.42997,-4.01543 c -0.54373,-0.63768 -1.54209,-1.42736 -2.21856,-1.75484 -1.18455,-0.57343 -1.2609,-0.57875 -2.06777,-0.14422 -0.70189,0.37799 -0.96437,0.39893 -1.61789,0.12911 -0.42905,-0.17715 -1.31587,-0.51771 -1.97071,-0.7568 -0.97719,-0.35679 -1.20612,-0.56741 -1.27709,-1.17497 -0.0476,-0.40714 0.0607,-1.11441 0.24063,-1.57171 0.35399,-0.89981 1.51265,-2.28666 1.91041,-2.28666 0.13518,0 0.81346,0.41671 1.5073,0.92604 0.69384,0.50932 1.33997,0.92604 1.43585,0.92604 0.0959,0 1.13777,0.71577 2.3153,1.5906 1.17753,0.87483 2.60117,1.84925 3.16365,2.16539 1.21892,0.68507 1.28917,1.23725 0.2951,2.31938 l -0.72761,0.79206 z m -33.737949,-0.60345 c -0.487558,-1.04983 -0.41791,-1.66498 0.188512,-1.66498 0.285583,0 1.17361,-0.24483 1.973394,-0.54407 1.641778,-0.61426 2.796642,-1.78802 2.803801,-2.84967 0.0047,-0.70302 0.721432,-1.44101 2.829335,-2.91343 l 0.84973,-0.59355 1.069457,1.102 c 1.021668,1.05276 1.63936,2.40298 1.402433,3.0656 -0.140795,0.39376 -9.655622,5.11507 -10.302808,5.11231 -0.265719,-0.001 -0.631953,-0.32253 -0.813854,-0.71421 z m 34.329689,-3.81397 c -1.23693,-0.87991 -3.04017,-2.12812 -4.0072,-2.7738 -0.96703,-0.64567 -1.89571,-1.33959 -2.06373,-1.54205 -0.66297,-0.79882 1.06732,-3.26003 2.80663,-3.99225 0.58911,-0.24801 0.89317,-0.24415 1.41221,0.0179 0.94555,0.4774 6.87917,6.65011 6.87917,7.15636 0,0.40337 -0.81036,1.71781 -1.49375,2.42293 -0.5688,0.58688 -1.24091,0.34167 -3.53333,-1.2891 z m 3.09964,-5.60705 c -1.48652,-1.50093 -3.22748,-3.18438 -3.8688,-3.74102 -1.26534,-1.09825 -1.26506,-1.5399 10e-4,-2.19123 1.41724,-0.72888 3.27999,-0.17207 5.03283,1.50441 0.86032,0.82283 2.8787,4.48794 2.8787,5.22733 0,0.78953 -0.63957,1.92947 -1.08255,1.92947 -0.14233,0 -1.47503,-1.22803 -2.96156,-2.72896 z m -35.540719,0.28156 c -0.988293,-1.20054 -1.891946,-2.2225 -2.008118,-2.271 -0.922592,-0.38523 0.92226,-2.43409 3.123316,-3.46871 1.601333,-0.75271 2.038454,-0.69043 3.022855,0.43074 0.841695,0.95864 2.101621,3.34064 2.106689,3.98287 0.0026,0.33458 -3.818908,3.50892 -4.224339,3.50892 -0.122929,0 -1.03211,-0.98227 -2.020403,-2.18282 z m 39.748199,-2.71005 c -1.00603,-1.71979 -2.36157,-3.25897 -3.75445,-4.26311 -0.87754,-0.63262 -0.86352,-0.68803 0.87659,-3.46517 0.47432,-0.75699 0.8624,-1.42639 0.8624,-1.48755 0,-0.0612 0.65485,-1.2026 1.45521,-2.53654 0.80037,-1.33393 1.45521,-2.46196 1.45521,-2.50671 0,-0.0448 0.57071,-1.0409 1.26824,-2.21364 1.06356,-1.78816 1.34111,-2.09149 1.71979,-1.87957 0.24835,0.13898 0.45155,0.35063 0.45155,0.47033 0,0.1197 0.65095,1.30255 1.44656,2.62856 0.79561,1.32601 1.74212,2.96614 2.10337,3.64473 l 0.6568,1.23381 -0.61212,1.08543 c -2.81123,4.98492 -6.25781,10.55869 -6.6968,10.83001 -0.13377,0.0827 -0.68833,-0.61059 -1.23235,-1.54058 z m -50.180025,-1.63929 c -0.212559,-0.26362 -0.556454,-0.77696 -0.76421,-1.14076 -2.719252,-4.76168 -3.723303,-6.60955 -3.723303,-6.85242 0,-0.20119 1.464303,-0.29133 4.732693,-0.29133 h 4.732693 l 1.392961,2.44739 c 0.766128,1.34607 1.6029,2.82003 1.859493,3.27547 l 0.466534,0.82807 -0.969791,0.91803 c -0.897491,0.84959 -1.019105,0.89171 -1.63125,0.5649 -0.86941,-0.46417 -2.519166,-0.43624 -3.836458,0.0649 -1.77114,0.67385 -1.859892,0.68114 -2.259362,0.18572 z m 32.124495,-4.82533 c -0.59056,-0.25479 -0.74033,-0.77211 -1.04281,-3.60207 -0.19772,-1.84985 -0.0177,-2.10898 1.60476,-2.3099 0.58208,-0.0721 1.81381,-0.26849 2.73717,-0.43647 2.26308,-0.4117 2.61815,-0.26262 2.83609,1.1907 0.27164,1.8114 0.0179,4.29062 -0.49131,4.79979 -0.50731,0.50732 -4.68374,0.77219 -5.6439,0.35795 z m -6.79972,-0.40761 c -0.478635,-0.47863 -0.464382,-1.45664 0.0984,-6.75574 0.14683,-1.38245 0.29331,-3.04932 0.32551,-3.70416 l 0.0585,-1.19063 1.28913,-0.082 1.28912,-0.082 -0.19026,0.87572 c -0.10464,0.48164 -0.24869,1.76811 -0.3201,2.85882 -0.12822,1.95814 -0.11957,1.99169 0.68768,2.66561 0.72597,0.60607 0.84718,0.91625 1.08212,2.76933 0.32946,2.59846 0.15727,2.83183 -2.20014,2.98194 -1.31685,0.0838 -1.7715,0.0116 -2.12005,-0.33696 z m -5.274692,-0.50703 c -0.977732,-0.36098 -1.715101,-0.83153 -2.121621,-1.35392 -0.226121,-0.29056 -0.03355,-2.26297 0.322904,-3.30729 0.124175,-0.3638 0.549136,-1.85208 0.944358,-3.30729 1.059676,-3.90172 1.070189,-3.91753 2.504023,-3.76483 0.658413,0.0701 1.498984,0.24862 1.867937,0.39667 l 0.670822,0.26918 -0.200822,2.60782 c -0.110453,1.43431 -0.273975,3.76026 -0.363382,5.16879 -0.08941,1.40854 -0.301299,2.75071 -0.470868,2.98261 -0.432923,0.59205 -1.976072,0.74291 -3.153351,0.30826 z m -6.057824,-1.74454 c -1.520391,-1.25324 -1.499977,-3.6781 0.05655,-6.71698 1.604249,-3.13205 1.806458,-3.33959 3.255691,-3.34163 1.529588,-0.002 1.518659,-0.27776 0.173041,4.36382 -0.60913,2.10113 -1.327551,5.26022 -1.327551,5.83759 0,0.91323 -0.953106,0.85015 -2.157727,-0.1428 z m 26.117516,-2.18906 c -0.0554,-0.1819 -0.22569,-0.72242 -0.37848,-1.20115 -0.24953,-0.78187 -0.20889,-0.92992 0.39942,-1.45521 0.91468,-0.78985 1.57473,-2.16386 1.80614,-3.75979 0.1055,-0.7276 0.31432,-1.47174 0.46404,-1.65365 0.19877,-0.24149 1.51501,-0.33072 4.87833,-0.33072 3.84328,0 4.63125,0.0655 4.7579,0.39552 0.14918,0.38877 -3.92817,7.74359 -4.50889,8.13324 -0.15934,0.10691 -1.87102,0.19621 -3.80374,0.19843 -2.58404,0.003 -3.54068,-0.0835 -3.61472,-0.32667 z m -44.591405,-0.39688 c 0.0032,-0.25466 0.238714,-0.76068 0.523284,-1.12448 0.28457,-0.3638 0.520047,-0.76214 0.523283,-0.8852 0.0032,-0.12305 0.226988,-0.53977 0.497227,-0.92604 0.270238,-0.38626 0.789426,-1.23808 1.15375,-1.89292 0.364324,-0.65485 0.897519,-1.60735 1.184877,-2.11667 l 0.522471,-0.92604 6.36415,-0.0708 c 3.854694,-0.0429 6.643182,0.0353 7.071795,0.19827 l 0.707646,0.26904 -1.186254,2.2484 c -0.894865,1.69611 -1.231512,2.67102 -1.370506,3.96892 l -0.184253,1.72053 h -7.906676 c -7.356021,0 -7.906267,-0.0322 -7.900794,-0.46302 z m 33.926925,-1.83152 c -0.44973,-0.17787 -0.42282,-2.18292 0.0443,-3.30091 0.50833,-1.21661 1.2184,-1.80485 2.86549,-2.37386 0.76433,-0.26404 1.27062,-0.48632 1.1251,-0.49394 -0.14552,-0.008 -1.9828,-0.18865 -4.08284,-0.40228 -3.49615,-0.35564 -3.9384,-0.46122 -5.242293,-1.25146 -0.783215,-0.47468 -2.445911,-1.90733 -3.694878,-3.18368 -1.248968,-1.27634 -2.333008,-2.25846 -2.408979,-2.18249 -0.308534,0.30853 0.723064,1.71164 2.791433,3.7967 1.202583,1.21229 2.186515,2.26797 2.186515,2.34596 0,0.078 -0.267891,0.069 -0.595313,-0.0199 -0.327422,-0.089 -2.972929,-0.29124 -5.878906,-0.4495 -2.905976,-0.15827 -5.495585,-0.40121 -5.754687,-0.53988 -0.434166,-0.23236 -0.471094,-0.82125 -0.471094,-7.51275 0,-7.24011 0.0017,-7.261713 0.595313,-7.642174 1.346625,-0.863059 7.635531,-2.502751 11.707812,-3.052551 3.033297,-0.409527 7.401247,-0.372145 7.765257,0.06646 0.17135,0.206464 0.31949,1.894913 0.36312,4.138783 0.0593,3.048632 0.15134,3.830112 0.47058,3.994872 0.21828,0.11265 0.81359,0.38734 1.32292,0.61041 0.50932,0.22307 1.86822,1.00345 3.01978,1.73417 1.15155,0.73071 2.16851,1.36178 2.25991,1.40237 0.41813,0.18566 1.53799,2.02895 1.813,2.9842 0.70557,2.45078 0.84193,3.2723 0.84333,5.08078 10e-4,1.75428 -0.13615,2.39142 -0.85199,3.94769 -0.27035,0.58774 -1.44984,1.04444 -3.24757,1.25746 -1.0729,0.12713 -5.48983,0.89136 -6.21771,1.07581 -0.21828,0.0553 -0.54571,0.0417 -0.72761,-0.0302 z"
       id="path1" /></g></svg>
