<?xml version="1.0" encoding="UTF-8" standalone="no"?>
<!-- Created with Inkscape (http://www.inkscape.org/) -->

<svg
   width="83.200233mm"
   height="90.245338mm"
   viewBox="0 0 83.200232 90.245342"
   version="1.1"
   id="svg1"
   xml:space="preserve"
   inkscape:version="1.4 (86a8ad7, 2024-10-11)"
   sodipodi:docname="TimeWound.svg"
   xmlns:inkscape="http://www.inkscape.org/namespaces/inkscape"
   xmlns:sodipodi="http://sodipodi.sourceforge.net/DTD/sodipodi-0.dtd"
   xmlns="http://www.w3.org/2000/svg"
   xmlns:svg="http://www.w3.org/2000/svg"><sodipodi:namedview
     id="namedview1"
     pagecolor="#505050"
     bordercolor="#eeeeee"
     borderopacity="1"
     inkscape:showpageshadow="0"
     inkscape:pageopacity="0"
     inkscape:pagecheckerboard="0"
     inkscape:deskcolor="#505050"
     inkscape:document-units="mm"
     inkscape:zoom="1.5162318"
     inkscape:cx="157.95738"
     inkscape:cy="142.7882"
     inkscape:window-width="1920"
     inkscape:window-height="1111"
     inkscape:window-x="-9"
     inkscape:window-y="-9"
     inkscape:window-maximized="1"
     inkscape:current-layer="layer1" /><defs
     id="defs1" /><g
     inkscape:label="Layer 1"
     inkscape:groupmode="layer"
     id="layer1"
     transform="translate(-88.710001,-81.454379)"><path
       id="path1"
       style="fill:#000000;fill-opacity:1"
       d="m 122.00477,81.471973 c -0.84739,-0.14485 -1.12445,0.593258 -1.27796,2.639115 -0.48691,6.489428 -1.5489,9.213588 -5.98408,15.478125 -3.73092,5.269807 -8.80486,9.878757 -13.53922,14.322637 -5.616037,5.17724 -12.281885,14.33085 -12.483478,17.75603 -0.04922,0.83625 0.06103,1.03816 0.822689,1.50895 7.846329,4.84985 11.603489,8.17721 16.452229,14.56965 2.63681,3.4763 7.20498,8.67619 9.78803,11.14144 3.815,3.64101 3.44407,3.37663 8.86354,6.32003 2.20828,1.19936 4.50596,2.95175 5.37332,4.09897 0.49509,0.65484 1.33403,1.45823 1.86448,1.78491 1.54256,0.94999 2.55878,0.80282 3.84318,-0.55656 0.95148,-1.00701 3.07423,-3.54699 3.07423,-3.76256 0,-0.105 0.59532,-1.11882 1.32292,-2.25309 1.13608,-1.97932 2.40131,-3.87538 3.94204,-5.57232 4.2203,-4.19253 6.36108,-9.05865 10.10206,-13.16866 0.4248,-0.44451 0.77256,-0.92853 0.77256,-1.07538 0,-0.14684 0.10633,-0.26717 0.23616,-0.26717 0.12984,0 1.64789,-1.38358 3.37344,-3.07475 2.94027,-2.88168 5.17554,-4.72049 5.42964,-4.46639 0.0609,0.0609 0.52249,-0.24131 1.02578,-0.6718 0.94656,-0.80966 2.61782,-1.72924 2.96571,-1.63194 0.10913,0.0305 0.19844,-0.0511 0.19844,-0.18138 0,-0.13032 0.77089,-0.60859 1.71307,-1.06299 0.94217,-0.45441 1.82429,-1.03404 1.96009,-1.28777 0.32038,-0.59864 -0.56474,-3.22639 -1.59525,-4.73615 -0.4152,-0.60831 -0.75499,-1.23338 -0.75499,-1.38906 0,-0.15571 -0.10454,-0.25344 -0.23255,-0.21704 -0.35598,0.10117 -2.96975,-2.22658 -6.61045,-5.88698 -2.89037,-2.90602 -3.7975,-3.92946 -5.80016,-6.54586 -0.24956,-0.32604 -1.04904,-1.26407 -1.77664,-2.08462 -0.72761,-0.82054 -2.27542,-2.71799 -3.43958,-4.2168 -1.16417,-1.49881 -3.00963,-3.78272 -4.10104,-5.07514 -1.0914,-1.29242 -2.28203,-2.740088 -2.64583,-3.21686 -0.86159,-1.129135 -6.36929,-6.641972 -6.63577,-6.641972 -4.36077,-4.238654 -9.83584,-7.269388 -15.19236,-10.153385 -0.4257,-0.228854 -0.77173,-0.374947 -1.0542,-0.42323 z m 3.19929,3.962032 c 0.90798,0 6.62428,3.477444 9.0997,5.53558 3.84441,3.196362 9.05228,8.698081 12.29176,12.985255 1.59438,2.11004 5.73922,7.859 6.96237,9.65729 0.4949,0.72761 1.24471,1.70485 1.66656,2.17144 0.42185,0.46659 1.49102,1.68941 2.37557,2.71715 0.88456,1.02775 2.71615,2.76001 4.07055,3.84938 3.94232,3.17087 4.89214,5.24171 3.49643,7.62331 -0.71064,1.21261 -2.97802,3.60506 -4.14032,4.36872 -2.45397,1.61232 -7.65064,7.18148 -9.66556,10.35854 -0.4153,0.65484 -0.88738,1.30969 -1.04903,1.45521 -0.16164,0.14552 -0.69739,0.8599 -1.19063,1.5875 -1.32335,1.95212 -3.91056,5.30302 -7.86412,10.18542 -1.85065,2.28543 -4.01586,5.161 -4.74648,6.30298 -0.49504,0.77378 -1.61564,2.11322 -2.48977,2.97656 -0.87412,0.86333 -1.73351,1.56876 -1.90996,1.56786 -0.48143,-0.002 -1.54554,-0.60543 -3.13159,-1.77456 -0.78235,-0.5767 -1.7203,-1.20384 -2.08411,-1.39372 -2.76001,-1.44053 -8.28691,-6.37896 -11.6179,-10.38076 -3.33338,-4.00467 -5.12989,-6.27446 -5.71438,-7.2192 -0.27009,-0.43657 -0.75699,-1.0914 -1.0821,-1.4552 -0.32511,-0.3638 -0.98817,-1.26156 -1.4733,-1.99523 -2.76935,-4.18813 -6.54095,-8.47545 -9.81335,-11.15539 -1.226905,-1.00477 -1.96217,-1.84793 -2.345593,-2.68924 -3.935296,-12.33438 25.085383,-28.04534 28.342443,-39.061187 0.18335,-0.654844 0.42168,-1.190625 0.5297,-1.190625 0.1995,0 0.57259,-1.630561 0.68677,-3.002917 0.11312,-1.359559 0.37446,-2.024166 0.79633,-2.024166 z m -0.54829,9.408728 c -0.12936,0.009 -0.19488,0.114325 -0.28215,0.321428 -0.1058,0.251062 -0.22283,0.932553 -0.25993,1.514636 -0.14104,2.21119 -0.48552,3.767033 -1.24489,5.622393 -2.18548,4.50964 -5.30025,7.85105 -8.35398,10.89494 -3.13937,3.04277 -6.24115,5.77172 -9.16843,9.14725 -1.50489,1.80864 -2.83031,3.77401 -3.56051,5.27926 -1.3491,2.78106 -1.4405,2.51846 1.56425,4.51239 3.24042,2.15032 6.90502,5.70011 9.54567,9.2475 3.62425,4.86875 3.97542,5.29436 6.41201,7.77317 2.24648,2.28541 3.70485,3.37383 6.21357,4.63589 1.26255,0.63515 3.03815,2.06585 4.59766,3.70468 l 1.2392,1.30173 1.11414,-0.14934 c 0.61281,-0.0822 1.20483,-0.30729 1.31568,-0.50023 0.22585,-0.3931 0.55729,-0.82409 2.096,-2.72697 0.5862,-0.72494 1.06557,-1.44262 1.06557,-1.59473 0,-0.2449 0.3246,-0.90031 2.73265,-3.94136 2.12399,-2.68232 4.87843,-5.55264 6.85849,-8.65477 0.25466,-0.23565 0.46302,-0.49974 0.46302,-0.58704 0,-0.25686 4.43539,-4.45037 5.40122,-5.10667 1.18913,-0.58418 2.06082,-1.02837 3.12643,-1.94872 0.31239,-0.29105 0.76518,-0.52916 1.00614,-0.52916 0.24097,0 0.78383,-0.30098 1.20664,-0.66921 0.42282,-0.36824 0.96966,-0.61973 1.21492,-0.55863 0.68149,0.16981 0.80144,-0.55893 0.34829,-2.1177 -1.36379,-4.69118 -1.39205,-1.47119 -9.22889,-10.96522 -4.41845,-5.35278 -7.83725,-9.66061 -7.83725,-9.87485 0,-0.29771 -4.84668,-5.60359 -5.68854,-6.22753 -0.29105,-0.2157 -1.06494,-0.88645 -1.71979,-1.49086 -0.65484,-0.60442 -1.54782,-1.284124 -1.98438,-1.510503 -0.43656,-0.22638 -1.31938,-0.891964 -1.96163,-1.478979 -0.64226,-0.587015 -1.27027,-1.004129 -1.39578,-0.926559 -0.19653,0.121453 -4.06422,-2.45009 -4.83537,-2.396236 z m 2.87786,3.054594 c 0.1769,0.01784 0.43586,0.135541 0.87334,0.363802 1.96568,1.025611 4.85314,3.143091 6.97786,5.117001 1.98205,1.84136 5.42194,5.80447 5.72885,6.60011 0.071,0.18407 0.44731,0.67566 0.83664,1.09244 0.66953,0.71673 1.42348,1.78158 4.79403,6.77478 0.81581,1.20854 2.91971,3.59835 4.90409,5.56969 2.43369,2.41768 3.52104,3.68665 3.62717,4.23333 0.27796,1.43175 -0.8487,3.02319 -3.64267,5.14594 -2.26753,1.72276 -4.55099,4.05225 -6.35414,6.48229 -0.43192,0.58208 -0.84852,1.11783 -0.92552,1.19063 -0.077,0.0728 -0.33224,0.4357 -0.56741,0.80615 -0.3777,0.59497 -2.37038,3.15837 -3.58273,4.6085 -2.01627,2.41174 -4.89343,6.04618 -5.55728,7.02077 -0.44605,0.65484 -1.38617,1.75616 -2.08928,2.44739 -0.70311,0.69122 -1.35887,1.25677 -1.45727,1.25677 -0.24931,0 -4.34905,-2.78778 -5.79138,-3.93826 -3.07338,-2.45149 -7.39175,-7.3833 -10.58333,-12.0866 -2.82033,-4.15621 -4.46915,-6.21282 -6.78099,-8.45633 -2.19893,-2.13394 -2.49554,-2.53453 -2.77864,-3.76101 -0.28922,-1.25295 -0.26097,-1.51449 0.32195,-2.99517 0.35128,-0.89228 0.97358,-1.96 1.36632,-2.38797 1.6895,-1.84107 3.11355,-3.74568 5.58467,-6.0203 0.41582,-0.3868 1.73663,-1.68558 2.93523,-2.88613 2.8572,-2.19365 5.18458,-4.99276 7.47758,-7.42487 2.86758,-2.46741 2.99166,-5.35784 4.30051,-8.515758 0.11068,-0.17299 0.2055,-0.255032 0.3824,-0.237195 z M 126.836,108.26207 c -0.14233,0.053 -0.21607,0.17159 -0.22272,0.35605 -0.0297,0.82468 -0.40707,3.14193 -0.5116,3.14193 -0.0223,0 -0.0791,0.19882 -0.12609,0.44183 -0.14082,0.7275 -2.37604,4.02379 -3.40909,5.02708 -0.15374,0.15493 -0.17646,0.24261 -0.28268,0.37466 -0.0706,0.0326 -0.0935,0.007 -0.22996,0.12092 -1.32231,1.10095 -4.73132,4.78476 -4.52582,4.60437 0.52811,-0.46359 -0.63335,0.59105 -1.79007,1.73426 -1.56043,1.5422 -2.58932,3.02477 -3.06906,4.42299 l -0.29197,0.85111 1.78697,1.29914 c 2.44898,1.78124 2.68242,2.02372 6.22649,6.46214 3.26372,4.08733 4.22134,5.00296 6.99906,6.69158 0.92662,0.56331 1.86676,1.30138 2.08876,1.64021 0.22201,0.33882 0.71362,0.78498 1.09295,0.99116 1.01761,0.55309 2.14509,0.4296 2.14509,-0.23513 0,-0.17059 0.23813,-0.48218 0.52917,-0.69195 1.36367,-2.58143 3.58672,-4.72462 5.29683,-7.14375 1.04294,-1.48819 1.35921,-1.84916 3.10938,-3.5481 2.11386,-2.05198 3.07933,-2.8019 3.60804,-2.8019 0.23164,0 0.42117,-0.0922 0.42117,-0.20515 0,-0.11291 0.53206,-0.44034 1.18235,-0.72761 0.6503,-0.28728 1.22449,-0.70104 1.27589,-0.91932 0.16366,-0.695 -0.89814,-2.45729 -2.16886,-3.59978 -0.67644,-0.60817 -2.47682,-2.6822 -4.00078,-4.60902 -6.57444,-8.31238 -8.30638,-10.09906 -11.99359,-12.37237 -1.67203,-1.03088 -2.71286,-1.46434 -3.13986,-1.30535 z m 2.34301,1.87379 c 0.53439,0.11745 1.42575,0.74321 2.91455,1.92959 2.13261,1.69943 4.59168,4.5855 6.91689,8.11837 0.94214,1.43146 2.69076,3.63412 3.88607,4.89479 1.19531,1.26067 2.2562,2.62996 2.35748,3.04323 0.16166,0.65967 0.0294,0.89677 -1.08366,1.942 -3.71045,3.4845 -4.70122,4.53139 -6.64869,7.02128 -3.74586,4.78918 -6.17136,7.74257 -6.52311,7.9437 -0.51962,0.2971 -2.63928,-1.00819 -4.57595,-2.81792 -2.01856,-1.88625 -3.8253,-4.12432 -6.00015,-7.4321 -0.86111,-1.30969 -2.44344,-3.30473 -3.51658,-4.43332 -1.34132,-1.41065 -1.90856,-2.19625 -1.81436,-2.51355 0.0754,-0.25385 0.21517,-0.78888 0.31057,-1.18907 0.0954,-0.40018 0.29239,-0.7276 0.4377,-0.7276 0.14532,0 0.19594,-0.1786 0.11214,-0.39688 -0.096,-0.25029 0.003,-0.39687 0.26872,-0.39687 0.2259,-0.0248 3.56468,-3.88297 5.3144,-5.52318 0.75991,-0.71234 4.54298,-4.40249 5.58107,-5.44143 0.82774,-0.82842 1.12937,-1.85291 1.29033,-2.90221 0.0611,-0.84572 0.23817,-1.23625 0.77256,-1.11879 z"
       sodipodi:nodetypes="ccscscssssssssssssssscsscsscsscsssssscssssssssssssssscsssssssscsccscsccsssscccssssssscsscscsccscssssccccscsssssssssscssssssscscccsccscccssccsssssssssccsccssssscsscccscccccsscsscs" /></g></svg>
