<?xml version="1.0" encoding="UTF-8" standalone="no"?>
<!-- Created with Inkscape (http://www.inkscape.org/) -->

<svg
   width="83.153297mm"
   height="83.986343mm"
   viewBox="0 0 83.1533 83.986343"
   version="1.1"
   id="svg1"
   xml:space="preserve"
   inkscape:version="1.4 (86a8ad7, 2024-10-11)"
   sodipodi:docname="TimelineBattle.svg"
   xmlns:inkscape="http://www.inkscape.org/namespaces/inkscape"
   xmlns:sodipodi="http://sodipodi.sourceforge.net/DTD/sodipodi-0.dtd"
   xmlns="http://www.w3.org/2000/svg"
   xmlns:svg="http://www.w3.org/2000/svg"><sodipodi:namedview
     id="namedview1"
     pagecolor="#505050"
     bordercolor="#eeeeee"
     borderopacity="1"
     inkscape:showpageshadow="0"
     inkscape:pageopacity="0"
     inkscape:pagecheckerboard="0"
     inkscape:deskcolor="#505050"
     inkscape:document-units="mm"
     inkscape:zoom="1.4396184"
     inkscape:cx="82.660794"
     inkscape:cy="124.3385"
     inkscape:window-width="1920"
     inkscape:window-height="1010"
     inkscape:window-x="1529"
     inkscape:window-y="-6"
     inkscape:window-maximized="1"
     inkscape:current-layer="layer1" /><defs
     id="defs1" /><g
     inkscape:label="Layer 1"
     inkscape:groupmode="layer"
     id="layer1"
     transform="translate(-51.636441,-55.014472)"><path
       style="fill:#100f10;stroke:none"
       d="m 105.68383,77.14251 c 5.46198,0 8.28776,2.820826 6.61458,8.202083 0.94483,-0.150855 4.09574,-0.917374 4.67431,-1.616899 0.80917,-0.978324 0.0776,-2.549049 0.48507,-3.674768 0.31234,-0.862952 1.15663,-1.323272 1.53605,-2.138713 1.55339,-3.338536 2.3184,-6.879066 5.21082,-9.480902 1.96246,-1.765291 4.30746,-3.436668 6.61459,-4.718405 0.96511,-0.536175 2.9715,-0.945219 3.51307,-1.925577 0.52982,-0.959066 0.55755,-4.910327 -0.16168,-5.74734 -1.02736,-1.19559 -5.34325,-1.436088 -6.4382,-0.249888 -0.83817,0.908012 -0.80562,2.999309 -1.514,4.152492 -2.00783,3.268567 -5.11242,6.50767 -8.09919,8.892941 -2.70537,2.160535 -5.73696,3.500699 -8.7386,4.960937 -0.83891,0.408115 -2.10626,0.157533 -2.81487,0.68351 -0.59823,0.444046 -0.79712,1.964371 -0.88195,2.660529 m -31.750001,8.73125 c -0.620586,-1.256129 -1.328581,-1.895779 -1.528704,-3.439584 -0.364695,-2.813365 3.669777,-6.747763 6.548437,-5.107928 1.390383,0.792034 1.799586,3.419938 2.204862,4.843345 0.225764,0.792926 0.98459,2.014695 0.712905,2.645833 v 0.264584 l 1.058333,-0.264584 2.38125,2.38125 c -0.37855,1.958577 4.126513,6.239865 5.55625,7.672917 6.351397,6.366127 12.418168,12.947337 18.785418,19.314587 -4.07023,-2.51397 -7.48198,-6.68823 -10.847918,-10.05417 -4.963408,-4.963409 -10.144741,-9.615576 -15.08125,-14.552084 -1.899297,-1.899298 -3.927699,-3.654226 -5.820833,-5.55625 -0.616363,-0.619257 -1.736066,-1.605049 -1.27882,-2.616434 0.56043,-1.239625 3.097887,1.297563 3.924653,1.558101 -0.647701,-4.056648 -6.831921,-4.951087 -6.864467,-0.264583 -0.02126,3.061974 3.08474,3.28245 4.821296,4.953589 1.617238,1.556317 2.814642,3.849257 4.314177,5.570946 4.846526,5.56453 11.106912,10.026435 16.778994,14.713775 6.081398,5.02559 11.903608,10.66043 17.381658,16.33802 4.04901,4.1965 8.04257,7.77662 12.51626,11.54612 0.68145,0.57419 4.28563,3.71571 4.93889,2.14607 1.13973,-2.73851 -0.70509,-5.57399 -2.19016,-7.64352 -3.27863,-4.56892 -7.25098,-8.471 -11.2154,-12.43542 -9.283,-9.283 -17.45318,-19.612423 -26.215795,-29.368747 -1.629156,-1.813903 -3.782121,-2.9234 -5.423958,-4.703702 -1.620529,-1.7572 -3.1389,-3.601928 -3.961403,-5.879631 -0.412911,-1.143442 -0.300308,-3.661195 -1.205324,-4.409728 -1.194271,-0.987771 -3.567099,-0.08421 -4.990335,-0.382171 -0.892032,-0.186754 -1.093861,-1.129477 -1.881482,-1.47726 C 75.859091,71.008178 74.13828,70.867844 72.610912,70.167798 68.328547,68.205047 64.784831,64.739827 62.395055,60.738343 61.753252,59.6637 61.69549,57.420636 60.88105,56.637302 c -1.073315,-1.032318 -4.469646,-0.917943 -5.725289,-0.330729 -1.624861,0.759885 -1.8544,5.447995 -0.712905,6.732179 1.543608,1.736562 4.961602,2.189805 6.849769,3.895248 2.497399,2.255717 5.345696,4.542359 6.974709,7.562676 0.873679,1.619867 0.753554,3.634751 1.499307,5.284319 0.364153,0.805491 1.192335,1.238858 1.440509,2.124015 0.715828,2.553126 -0.717858,3.96875 2.726679,3.96875 m 25.135417,1.5875 3.439584,-5.55625 c -2.516914,0.920054 -6.232461,4.225444 -6.879168,6.879166 0.650417,0.505505 1.479048,1.821796 2.403298,1.793285 1.167851,-0.03603 2.0926,-1.635349 2.80018,-2.403297 2.12286,-2.304006 7.48067,-5.82661 8.02569,-8.914988 -4.98272,-1.339873 -5.59517,6.66882 -9.789584,8.202084 m 10.583334,-8.202084 1.5875,1.852084 c 0.28114,-1.520713 -0.0509,-1.845628 -1.5875,-1.852084 m 2.38125,6.085417 c -3.80711,1.119743 -6.63154,3.829672 -9.78958,6.085417 1.6027,-3.027335 4.37187,-4.275389 7.14375,-6.004572 0.8961,-0.559018 2.24522,-1.714777 1.76388,-2.961863 -0.56946,-1.47541 -2.62283,1.107019 -3.0868,1.558101 -2.03617,1.979603 -4.24913,3.893811 -6.4088,5.739988 -0.74576,0.63751 -2.324122,1.680372 -2.469442,2.726679 -0.223388,1.608392 2.333372,2.987911 3.586572,2.19016 2.34854,-1.495019 4.07951,-4.473306 6.08542,-6.423493 0.95616,-0.929599 2.5889,-1.731149 3.175,-2.910417 M 85.310912,99.367509 c -3.07392,5.806301 -8.575869,10.103421 -12.780845,15.022451 -2.899345,3.39169 -6.289761,6.42941 -9.444155,9.5838 -3.434046,3.43404 -6.511657,6.83621 -9.260417,10.84792 -0.405592,0.59194 -3.218014,3.68393 -1.785938,4.13778 0.898862,0.28488 1.749871,-0.97794 2.315105,-1.4699 1.693286,-1.47379 3.761654,-2.70717 5.55625,-4.08635 7.977408,-6.13078 14.90211,-13.47745 22.754167,-19.7482 2.703117,-2.15874 5.202331,-4.54009 7.9375,-6.66603 0.807271,-0.62746 2.274728,-1.67412 1.028934,-2.66788 -2.043423,-1.63002 -5.73375,2.24045 -7.114351,3.50573 -3.594635,3.29439 -7.242444,6.71667 -10.524537,10.31875 -1.596532,1.75218 -4.288811,4.91829 -6.67338,5.29901 1.650578,-3.11776 4.714661,-5.43901 7.14375,-7.9375 3.087296,-3.1755 5.837263,-6.66025 8.995834,-9.78958 1.4994,-1.48552 7.025015,-5.69795 1.852083,-6.350001 m 24.606248,15.169451 c 0.20461,0 0.0424,0.13171 -0.0882,0.0882 z"
       id="path2521" /></g></svg>
