<?xml version="1.0" encoding="UTF-8" standalone="no"?>
<!-- Created with Inkscape (http://www.inkscape.org/) -->

<svg
   width="59.020588mm"
   height="82.519394mm"
   viewBox="0 0 59.020585 82.519395"
   version="1.1"
   id="svg1"
   xml:space="preserve"
   inkscape:version="1.4 (86a8ad7, 2024-10-11)"
   sodipodi:docname="Tireless.svg"
   xmlns:inkscape="http://www.inkscape.org/namespaces/inkscape"
   xmlns:sodipodi="http://sodipodi.sourceforge.net/DTD/sodipodi-0.dtd"
   xmlns="http://www.w3.org/2000/svg"
   xmlns:svg="http://www.w3.org/2000/svg"><sodipodi:namedview
     id="namedview1"
     pagecolor="#505050"
     bordercolor="#eeeeee"
     borderopacity="1"
     inkscape:showpageshadow="0"
     inkscape:pageopacity="0"
     inkscape:pagecheckerboard="0"
     inkscape:deskcolor="#505050"
     inkscape:document-units="mm"
     inkscape:zoom="1.0179639"
     inkscape:cx="6.8764715"
     inkscape:cy="180.75297"
     inkscape:window-width="1536"
     inkscape:window-height="890"
     inkscape:window-x="-6"
     inkscape:window-y="421"
     inkscape:window-maximized="1"
     inkscape:current-layer="layer1" /><defs
     id="defs1" /><g
     inkscape:label="Layer 1"
     inkscape:groupmode="layer"
     id="layer1"
     transform="translate(-70.880061,-92.122914)"><path
       id="path1"
       style="fill:#000000"
       d="m 103.73335,92.136867 c -1.01059,0.02545 -1.88499,0.08636 -2.4722,0.188619 -1.787819,0.311335 -4.773682,1.184906 -5.554181,1.624707 -0.252686,0.142386 -0.584798,0.258899 -0.737939,0.258899 -0.496406,0 -4.589751,1.933009 -5.814115,2.745568 -5.660162,3.75641 -9.656307,8.85815 -11.113017,14.18776 -0.178985,0.65484 -0.423537,1.48829 -0.54312,1.85209 -0.387174,1.17789 -0.850893,4.56239 -1.015441,7.40833 l -0.160714,2.77813 -2.721281,0.13229 -2.721281,0.13229 1.729093,3.02824 c 0.950975,1.66559 1.729094,3.04905 1.729094,3.07475 0,0.0257 0.892969,1.62533 1.984375,3.5543 1.091407,1.92897 1.984375,3.5463 1.984375,3.5941 0,0.0478 0.340183,0.66364 0.756026,1.36891 0.723813,1.22759 1.312526,2.26318 2.85719,5.02501 0.242201,0.43305 0.449494,0.70545 0.84772,1.38073 l 3.214654,-4.89618 19.662942,26.44103 c 1.71356,-2.86299 2.95263,-4.97886 3.47302,-5.49925 0.48296,-0.48296 0.95589,-1.12229 1.05059,-1.42059 0.0947,-0.2983 -0.0785,-1.95269 -0.38448,-3.67677 -0.30599,-1.72409 -0.67134,-3.84908 -0.81235,-4.7222 -0.14101,-0.87313 -0.3671,-2.24235 -0.5023,-3.04271 -0.13519,-0.80037 -0.37018,-2.22912 -0.52193,-3.175 -0.92536,-5.76802 -1.49169,-8.90026 -1.65571,-9.15603 -0.10305,-0.16068 -1.25378,-0.37237 -2.55747,-0.47077 -4.162858,-0.31426 -7.725933,-1.91097 -8.103895,-3.63182 -0.145879,-0.66419 -0.03048,-1.04246 0.583944,-1.91668 0.931415,-1.32525 2.298603,-2.2872 3.250447,-2.2872 0.388782,0 2.305794,0.81979 4.260204,1.8216 5.43434,2.78559 5.74972,2.97598 5.91023,3.57394 0.0823,0.30657 0.15148,1.71845 0.15348,3.13728 0.004,2.81176 0.28463,3.43284 1.71566,3.79201 0.88006,0.22088 1.33485,0.0225 1.89033,-0.82527 0.43472,-0.6641 0.43467,-0.8506 -0.007,-3.65249 -0.65353,-4.14852 -0.6576,-3.9969 0.108,-4.09949 0.3638,-0.0488 0.95912,-0.36039 1.32292,-0.69298 0.36381,-0.33259 0.97777,-0.80519 1.36426,-1.05007 0.67697,-0.42894 0.71815,-0.42352 1.12447,0.15658 0.25641,0.36608 0.42168,1.14876 0.42168,1.99626 0,1.19488 -0.13705,1.57354 -0.95911,2.65049 -0.94614,1.23952 -0.95705,1.28179 -0.79427,3.11144 0.0907,1.02007 0.2864,4.71216 0.4346,8.20466 0.14819,3.4925 0.38551,8.01688 0.5271,10.05417 0.14159,2.0373 0.25893,3.97624 0.25993,4.30878 0.004,1.04088 0.8994,0.2577 1.81901,-1.59163 l 0.82941,-1.6676 v -7.52202 -7.52151 l 5.02708,-8.79481 c 2.7649,-4.83691 5.02709,-8.86186 5.02709,-8.94416 0,-0.0823 -2.55163,-0.14934 -5.66994,-0.14934 -4.80144,0 -5.73331,-0.0639 -6.08542,-0.416 -0.22867,-0.22868 -0.41548,-0.58173 -0.41548,-0.78445 0,-0.43034 -1.08508,-2.44312 -2.13423,-3.95893 -0.40288,-0.58209 -1.63548,-1.94822 -2.73885,-3.03599 -1.86315,-1.83679 -2.00608,-2.05679 -2.00608,-3.08405 0,-0.60835 0.22694,-1.56392 0.50436,-2.12338 0.78533,-1.58376 1.34772,-2.92391 1.34772,-3.21169 0,-0.51875 -1.00859,-0.6419 -6.37429,-0.78032 -6.08116,-0.15687 -7.120368,-0.0157 -10.194723,1.38752 -3.830022,1.74817 -5.862803,3.52248 -7.698755,6.71897 -1.265097,2.2026 -1.137659,2.74595 0.331246,1.41541 2.852331,-2.58365 7.25021,-4.61283 11.368812,-5.24567 3.0718,-0.47204 3.90239,-0.46588 5.1015,0.0377 1.46127,0.61369 0.72209,0.86824 -3.42925,1.18029 -5.092613,0.38281 -6.417181,0.75965 -10.138914,2.88406 -2.886238,1.64751 -5.817391,5.31808 -6.830074,8.55349 -0.423643,1.3535 -0.710551,1.24561 -0.710551,-0.26665 0,-1.38163 1.216183,-4.77637 2.644283,-7.38043 2.826717,-5.15438 7.565956,-9.05239 12.436967,-10.22935 3.046579,-0.73613 5.373639,-0.78875 9.524999,-0.21653 3.59637,0.49573 3.86504,0.50065 4.29225,0.0832 0.49299,-0.48173 5.0847,-8.424979 5.34592,-9.24801 0.28627,-0.901955 -0.33533,-1.202201 -5.934,-2.866492 -1.41461,-0.420515 -5.67311,-0.665475 -8.7049,-0.589111 z m -0.21889,77.324113 -13.297472,-12.1574 c -0.808704,-0.73937 -0.07929,0.15306 0.518749,1.19926 1.206182,2.11005 2.4277,4.25317 2.714046,4.7625 0.286347,0.50932 1.843548,3.27752 3.46077,6.15156 h 5.17e-4 c 1.617222,2.87403 3.083863,5.22552 3.25923,5.22552 0.30903,0 0.76687,-0.64551 1.9234,-2.71197 0.30542,-0.5457 0.80587,-1.43867 1.11208,-1.98438 0.15873,-0.2829 0.14572,-0.19954 0.30868,-0.48509 z"
       sodipodi:nodetypes="csssssccccccssssscccscssscscssssccscssssssssssccccccsscsscscsscssccscsscscssssccssccssscc" /><path
       id="path2-8"
       style="fill:#000000;stroke-width:0.260717"
       d="m 86.205776,141.30816 -21.91965,29.97186 2.091855,0.27091 19.956112,-18.71771 20.840617,19.06449 1.31326,-0.81627 z m -0.191974,14.59868 -10.949133,15.55905 2.305212,0.19197 8.964212,-6.46701 9.860435,7.1071 1.600461,-0.76841 z" /></g></svg>
