<?xml version="1.0" encoding="UTF-8" standalone="no"?>
<!-- Created with Inkscape (http://www.inkscape.org/) -->

<svg
   width="63.30027mm"
   height="77.483978mm"
   viewBox="0 0 63.300272 77.483979"
   version="1.1"
   id="svg1"
   xml:space="preserve"
   inkscape:version="1.4 (86a8ad7, 2024-10-11)"
   sodipodi:docname="Titan.svg"
   xmlns:inkscape="http://www.inkscape.org/namespaces/inkscape"
   xmlns:sodipodi="http://sodipodi.sourceforge.net/DTD/sodipodi-0.dtd"
   xmlns="http://www.w3.org/2000/svg"
   xmlns:svg="http://www.w3.org/2000/svg"><sodipodi:namedview
     id="namedview1"
     pagecolor="#505050"
     bordercolor="#eeeeee"
     borderopacity="1"
     inkscape:showpageshadow="0"
     inkscape:pageopacity="0"
     inkscape:pagecheckerboard="0"
     inkscape:deskcolor="#505050"
     inkscape:document-units="mm"
     inkscape:zoom="1.4396184"
     inkscape:cx="65.295081"
     inkscape:cy="159.06993"
     inkscape:window-width="1920"
     inkscape:window-height="1010"
     inkscape:window-x="1529"
     inkscape:window-y="-6"
     inkscape:window-maximized="1"
     inkscape:current-layer="layer1" /><defs
     id="defs1" /><g
     inkscape:label="Layer 1"
     inkscape:groupmode="layer"
     id="layer1"
     transform="translate(-66.573532,-70.138177)"><path
       style="fill:#000000"
       d="m 97.859253,147.21771 c -0.108448,-0.26546 -0.839365,-1.55422 -1.62426,-2.86391 -0.784895,-1.30969 -1.633536,-2.73844 -1.885869,-3.175 -0.252332,-0.43656 -0.904629,-1.56766 -1.449549,-2.51354 -0.54492,-0.94589 -1.20065,-2.07698 -1.457179,-2.51354 -0.256529,-0.43657 -1.686089,-2.87735 -3.176801,-5.42396 -1.490712,-2.54662 -2.918575,-4.9874 -3.173029,-5.42396 -0.254455,-0.43656 -0.908488,-1.56766 -1.453408,-2.51354 -0.54492,-0.94589 -1.198395,-2.07698 -1.452168,-2.51354 -0.253773,-0.43657 -1.684008,-2.87735 -3.178301,-5.42396 -1.494294,-2.54662 -3.015457,-5.15974 -3.380365,-5.80694 -0.364907,-0.6472 -1.020335,-1.77829 -1.456508,-2.51354 -0.436172,-0.73525 -1.000857,-1.694 -1.254855,-2.13056 -0.253998,-0.43656 -1.675653,-2.87735 -3.159233,-5.42396 -1.48358,-2.546615 -2.806944,-4.743318 -2.940807,-4.881563 -0.133864,-0.138245 -0.243389,-0.518352 -0.243389,-0.844683 0,-0.506464 0.160948,-0.605239 1.099363,-0.674687 1.022195,-0.07565 1.124377,-0.155647 1.455714,-1.139692 0.195994,-0.582084 0.462709,-1.296459 0.592701,-1.5875 0.129992,-0.291042 0.56728,-1.243542 0.971752,-2.116667 0.404472,-0.873125 1.345891,-2.503752 2.092043,-3.623616 0.746152,-1.119864 2.124339,-2.891718 3.062638,-3.937453 0.938299,-1.045736 2.612113,-2.59273 3.719587,-3.437765 1.107474,-0.845035 2.476693,-1.797688 3.042709,-2.117006 0.566015,-0.319318 1.683963,-0.908055 2.484327,-1.308304 0.800365,-0.400249 2.229115,-0.994566 3.175001,-1.320704 0.945885,-0.326138 2.13651,-0.699577 2.645833,-0.829865 0.509323,-0.130289 2.046762,-0.413106 3.416531,-0.628483 1.369768,-0.215377 3.265016,-0.391595 4.21166,-0.391595 0.946645,0 2.504829,0.122019 3.462639,0.271152 0.9578,0.149134 2.39631,0.399725 3.19667,0.556868 0.80037,0.157143 1.69333,0.384497 1.98438,0.505232 0.29104,0.120734 1.30307,0.481224 2.24895,0.801088 0.94589,0.319864 2.19605,0.846626 2.77813,1.170582 0.58208,0.323957 1.53458,0.854852 2.11667,1.179767 0.58208,0.324916 1.91918,1.245523 2.97132,2.045795 1.05215,0.800271 2.74341,2.366968 3.75836,3.481548 1.01495,1.11458 2.40115,2.859947 3.08046,3.878593 0.6793,1.018645 1.6882,2.804583 2.24201,3.968749 0.5538,1.164167 1.18139,2.652448 1.39464,3.307292 0.34,1.0441 0.49699,1.207164 1.27567,1.325018 0.65222,0.09871 0.86782,0.254567 0.8121,0.587063 -0.0417,0.248969 -0.50276,1.200523 -1.02454,2.114566 -0.52179,0.914042 -1.15727,2.019082 -1.41219,2.455645 -0.25492,0.436562 -1.14694,1.984375 -1.98226,3.439585 -0.83533,1.45521 -1.81876,3.18161 -2.1854,3.83646 -0.36663,0.65484 -0.75259,1.30968 -0.85769,1.4552 -0.10509,0.14553 -0.55001,0.91943 -0.98871,1.7198 -0.43871,0.80036 -1.24432,2.22911 -1.79026,3.175 -0.54593,0.94588 -1.20118,2.07698 -1.4561,2.51354 -0.25491,0.43656 -1.14681,1.98437 -1.982,3.43958 -0.83518,1.45521 -1.72533,3.00302 -1.9781,3.43958 -0.25278,0.43657 -1.44566,2.52016 -2.65084,4.63021 -1.20519,2.11005 -2.39683,4.19365 -2.6481,4.63021 -0.25127,0.43656 -2.33579,4.06797 -4.63227,8.06979 -2.29649,4.00182 -4.444334,7.75229 -4.773,8.33438 -0.328665,0.58208 -0.788806,1.09694 -1.022536,1.14412 -0.23373,0.0472 -0.513693,-0.13141 -0.622141,-0.39688 z m 6.549247,-19.13578 c 0.10163,-0.0728 0.70886,-0.96504 1.34939,-1.98284 0.64053,-1.0178 1.3432,-2.16332 1.56148,-2.5456 0.21828,-0.38228 1.64703,-2.76423 3.175,-5.29321 2.77812,-4.59815 2.77812,-4.59815 2.85886,-10.05758 0.0807,-5.45944 0.0807,-5.45944 -1.05833,-5.9931 -0.62649,-0.29351 -1.61532,-0.75121 -2.19741,-1.0171 -0.58208,-0.2659 -1.65364,-0.84397 -2.38125,-1.284607 -0.7276,-0.440634 -1.91823,-1.206365 -2.64583,-1.701625 -0.72761,-0.495259 -2.10976,-1.685139 -3.07147,-2.644177 -0.9617,-0.959039 -1.95766,-2.071128 -2.213238,-2.47131 -0.255582,-0.400183 -0.615901,-0.727605 -0.80071,-0.727605 -0.184809,0 -0.513675,0.267891 -0.730813,0.595313 -0.217139,0.327422 -1.094035,1.295284 -1.948659,2.150805 -0.854624,0.855521 -2.189281,2.027775 -2.965904,2.60501 -0.776624,0.577234 -2.383967,1.606951 -3.571875,2.288256 -1.187908,0.68131 -2.849645,1.59265 -3.692748,2.0252 -1.532916,0.78646 -1.532916,0.78646 -1.455209,5.95961 0.07771,5.17314 0.07771,5.17314 2.963702,9.92187 1.587297,2.6118 3.016047,4.99196 3.175,5.28925 0.158953,0.29728 0.942059,1.5772 1.740235,2.84427 0.798177,1.26706 1.543326,2.30375 1.655888,2.30375 0.112562,0 0.0965,-0.20836 -0.03569,-0.46302 -0.132193,-0.25466 -0.604158,-1.71318 -1.04881,-3.24115 -0.726833,-2.49763 -0.787584,-2.97847 -0.601708,-4.7625 0.113713,-1.0914 0.154063,-2.19273 0.08967,-2.44739 -0.0644,-0.25466 -0.218162,-0.46302 -0.341704,-0.46302 -0.123541,0 -1.240748,-0.66235 -2.482683,-1.47188 -1.241934,-0.80954 -2.258062,-1.61819 -2.258062,-1.797 0,-0.17881 0.514196,-0.82976 1.142659,-1.44655 1.142659,-1.12143 1.142659,-1.12143 4.696354,-1.04728 3.553695,0.0742 3.553695,0.0742 3.685987,3.13913 0.122944,2.8484 0.184652,3.13349 0.873361,4.03489 0.407588,0.53347 0.883838,0.96918 1.058333,0.96826 0.174495,-9.2e-4 0.554505,-0.38787 0.844466,-0.85989 0.422838,-0.68834 0.553778,-1.48674 0.661458,-4.03323 0.13425,-3.175 0.13425,-3.175 3.68795,-3.24916 3.5537,-0.0742 3.5537,-0.0742 4.69635,1.04728 0.62846,0.61679 1.14266,1.26913 1.14266,1.44964 0,0.18052 -1.13109,1.06094 -2.51354,1.95649 -2.34632,1.51996 -2.51354,1.68694 -2.51354,2.5099 0,0.48489 0.11985,1.19685 0.26634,1.58214 0.14649,0.38529 0.27882,1.31578 0.29408,2.06775 0.0165,0.81282 -0.24765,2.22551 -0.65141,3.48388 -0.37354,1.16417 -0.74471,2.47385 -0.82483,2.91042 -0.0801,0.43656 -0.0676,0.61515 0.0279,0.39687 0.0954,-0.21828 0.2567,-0.4564 0.35833,-0.52916 z M 88.044062,98.761445 c 0.778761,-0.410014 1.950186,-1.094624 2.603165,-1.521354 0.65298,-0.42673 1.420147,-0.954467 1.704816,-1.172748 0.284669,-0.218281 1.210162,-1.041253 2.056651,-1.828827 0.846489,-0.787573 1.960387,-2.06669 2.475328,-2.842481 0.563754,-0.849332 1.194036,-1.475229 1.584167,-1.573145 0.356351,-0.08944 0.817677,-0.09747 1.025169,-0.01785 0.207491,0.07962 0.878802,0.836603 1.491792,1.682181 0.613,0.845577 1.66389,2.114036 2.33532,2.818798 0.67142,0.704763 1.88163,1.734865 2.68934,2.289118 0.80771,0.554252 2.27612,1.436144 3.26312,1.95976 0.98701,0.523615 2.03897,0.952028 2.33771,0.952028 0.49559,0 0.52818,-0.110053 0.37211,-1.256771 -0.0941,-0.691224 -0.48783,-1.911614 -0.87501,-2.711979 -0.38718,-0.800364 -1.13006,-1.990829 -1.65085,-2.645478 -0.5208,-0.654648 -1.07623,-1.328263 -1.2343,-1.496922 -0.15807,-0.168659 -0.93197,-0.720102 -1.71979,-1.22543 -0.78781,-0.505327 -1.64955,-1.160496 -1.91496,-1.45593 -0.27912,-0.31069 -1.26741,-0.729489 -2.34415,-0.993357 -1.37637,-0.337296 -2.388467,-0.411961 -3.883055,-0.286463 -1.111812,0.09336 -2.489927,0.29964 -3.062478,0.458408 -0.572552,0.158768 -1.661226,0.572365 -2.419276,0.919105 -0.908266,0.415449 -1.926747,1.228997 -2.986643,2.385686 -0.884602,0.965388 -1.96769,2.492825 -2.406861,3.394304 -0.439171,0.90148 -0.976927,2.227275 -1.195013,2.946212 -0.218086,0.718936 -0.397808,1.455985 -0.399384,1.637886 -0.0016,0.181901 0.16364,0.330729 0.367144,0.330729 0.203504,0 1.007176,-0.335466 1.785938,-0.74548 z m -1.755446,-7.753133 c 0.699771,-0.890696 1.991248,-2.148699 2.869949,-2.795562 0.878701,-0.646863 2.131365,-1.419255 2.783698,-1.716427 0.652333,-0.297172 1.789435,-0.725412 2.526894,-0.951645 0.822253,-0.252245 2.364139,-0.414018 3.986668,-0.418277 2.020685,-0.0053 3.066055,0.130155 4.424355,0.573306 0.97818,0.319139 2.3474,0.893286 3.04271,1.275884 0.6953,0.382597 1.78756,1.118677 2.42725,1.635732 0.63969,0.517055 1.70059,1.632276 2.35756,2.478268 1.1945,1.538169 1.1945,1.538169 7.10517,1.538169 4.68013,0 5.91066,-0.07177 5.91066,-0.344725 0,-0.189599 -0.47561,-1.328226 -1.05691,-2.530283 -0.5813,-1.202057 -1.61815,-2.972071 -2.30412,-3.933365 -0.68596,-0.961294 -2.02606,-2.511209 -2.97798,-3.444255 -0.95193,-0.933046 -2.44515,-2.206367 -3.31828,-2.829601 -0.87312,-0.623234 -2.42093,-1.561847 -3.43958,-2.085806 -1.01865,-0.52396 -2.74633,-1.244156 -3.83929,-1.600436 -1.09297,-0.35628 -2.75984,-0.794116 -3.70417,-0.972968 -0.94433,-0.178853 -3.02665,-0.325187 -4.627375,-0.325187 -1.600729,0 -3.683048,0.146334 -4.627376,0.325187 -0.944327,0.178852 -2.611203,0.625293 -3.704167,0.992091 -1.092964,0.366798 -2.463457,0.907841 -3.045541,1.202318 -0.582083,0.294478 -1.846802,1.043291 -2.810485,1.664029 -0.963684,0.620739 -2.606649,1.934704 -3.651033,2.919923 -1.044384,0.985219 -2.554645,2.72184 -3.356135,3.859158 -0.80149,1.137319 -1.926728,3.069683 -2.50053,4.294144 -0.573801,1.22446 -1.043275,2.357575 -1.043275,2.518033 0,0.203492 1.708942,0.291743 5.649511,0.291743 5.649512,0 5.649512,0 6.921822,-1.619448 z"
       id="path2509" /></g></svg>
