<?xml version="1.0" encoding="UTF-8" standalone="no"?>
<!-- Created with Inkscape (http://www.inkscape.org/) -->

<svg
   width="67.37941mm"
   height="59.377144mm"
   viewBox="0 0 67.379408 59.377144"
   version="1.1"
   id="svg1"
   xml:space="preserve"
   inkscape:version="1.4 (86a8ad7, 2024-10-11)"
   sodipodi:docname="Truth.svg"
   xmlns:inkscape="http://www.inkscape.org/namespaces/inkscape"
   xmlns:sodipodi="http://sodipodi.sourceforge.net/DTD/sodipodi-0.dtd"
   xmlns="http://www.w3.org/2000/svg"
   xmlns:svg="http://www.w3.org/2000/svg"><sodipodi:namedview
     id="namedview1"
     pagecolor="#505050"
     bordercolor="#eeeeee"
     borderopacity="1"
     inkscape:showpageshadow="0"
     inkscape:pageopacity="0"
     inkscape:pagecheckerboard="0"
     inkscape:deskcolor="#505050"
     inkscape:document-units="mm"
     inkscape:zoom="1.0179639"
     inkscape:cx="48.1353"
     inkscape:cy="7.8588246"
     inkscape:window-width="1920"
     inkscape:window-height="1010"
     inkscape:window-x="4601"
     inkscape:window-y="-6"
     inkscape:window-maximized="1"
     inkscape:current-layer="layer1" /><defs
     id="defs1" /><g
     inkscape:label="Layer 1"
     inkscape:groupmode="layer"
     id="layer1"
     transform="translate(-64.493297,-128.367)"><path
       id="path1"
       style="fill:#000000"
       d="m 113.28369,128.36716 c -0.13478,0.003 -0.23455,0.0434 -0.28215,0.12041 -0.18127,0.29357 -23.964449,0.28544 -24.997958,-0.008 -0.414856,-0.11789 -1.203984,5.7e-4 -2.116667,0.31781 -1.669815,0.58041 -3.778878,0.61268 -5.285465,0.0811 -1.274448,-0.44966 -5.809742,-0.36616 -7.188192,0.13229 -0.683476,0.24717 -1.156413,0.26681 -1.717208,0.0713 -1.723437,-0.6008 -5.620418,0.1082 -6.639388,1.20768 -0.710412,0.76655 -0.710795,0.7727 -0.214457,1.9606 0.21251,0.50861 2.781457,4.96726 3.932059,6.94479 0.762323,1.24496 1.08405,1.87689 1.14515,2.24896 0.03581,0.21809 0.309108,0.59434 0.607715,0.83613 0.298606,0.2418 0.546788,0.59879 0.551388,0.79375 0.0046,0.19495 0.226348,0.56087 0.400492,0.87281 l 12.477791,22.35109 0.001,-0.0222 0.612882,1.09813 c 0.87137,1.56047 1.284487,2.51263 2.366781,4.23333 0.503417,0.80036 1.641027,2.76489 2.528011,4.36563 2.248521,4.05787 3.057011,5.47384 3.471623,6.07818 2.262423,5.52202 3.525267,5.42994 4.722192,5.69319 0.886462,-0.005 1.470766,-0.39712 2.250509,-1.2268 1.541832,-1.64058 2.369752,-3.8339 3.588412,-5.71903 1.69537,-4.83672 9.18737,-17.00813 13.97279,-25.01294 0.34967,-0.55391 0.76903,-1.83377 0.94723,-2.89027 0.17593,-1.04298 0.48857,-2.03676 0.69505,-2.20813 0.20649,-0.17137 0.37569,-0.53625 0.37569,-0.8108 0,-0.65905 1.25239,-1.89757 2.24896,-2.22416 0.49039,-0.16071 0.96314,-0.59867 1.23713,-1.14566 0.24391,-0.48694 0.6904,-1.14792 0.99219,-1.46916 0.30179,-0.32125 0.55039,-0.69534 0.55139,-0.83148 2.79035,-3.42577 4.74066,-7.37545 6.71845,-11.33522 l 0.63562,-1.25522 c -0.27926,-0.55008 -0.61657,-1.08502 -0.74052,-1.69551 -8.9e-4,-0.15389 -0.46783,-0.48549 -1.03767,-0.7369 l -1.03611,-0.45682 -4.71857,-0.15142 c -5.62636,-0.1807 -4.74203,-0.17949 -7.59541,-0.009 -1.29122,0.0773 -2.62652,0.0345 -2.96726,-0.0951 -0.18888,-0.0718 -0.35873,-0.1063 -0.49351,-0.10335 z m 5.11184,3.84421 c 1.64418,0.0367 3.62011,0.16652 6.18773,0.39584 2.43474,0.21745 2.44126,1.0165 0.0331,3.98684 -0.49178,0.60658 -0.894,1.16949 -0.894,1.25109 0,0.0816 -0.59531,0.9644 -1.32292,1.96163 -0.7276,0.99723 -1.32325,1.92256 -1.32395,2.05621 -0.001,0.26133 -1.01258,1.35065 -3.10523,3.34605 -1.41563,1.34983 -2.97915,3.98457 -2.97915,5.01985 0,0.67491 -1.1825,3.912 -1.52135,4.1646 -0.10904,0.0813 -0.50463,0.7431 -0.87902,1.47071 -1.03373,2.009 -2.1281,3.92307 -2.49597,4.36563 -0.18144,0.21828 -0.89761,1.4089 -1.59163,2.64583 -0.69402,1.23692 -1.92952,3.261 -2.74506,4.49792 -0.81555,1.23693 -1.66867,2.60614 -1.896,3.04271 -0.67162,1.28975 -1.15221,2.07255 -1.51361,2.46496 -0.65412,0.71025 -1.38028,2.4165 -1.38028,3.24321 0,0.53686 -0.44819,1.55156 -1.256766,2.84531 -0.691224,1.106 -1.379286,2.25346 -1.529105,2.54971 -0.606064,1.19841 -3.034957,-1.4253 -3.034957,-3.27835 -1.869147,-2.53863 -4.21381,-8.40159 -5.796029,-10.06037 -1.683167,-0.90078 -4.094277,-9.65305 -5.134054,-9.24284 0,0 -12.198471,-21.48195 -13.02091,-22.52576 -0.869923,-1.74411 -1.486994,-3.07669 0.845947,-3.55792 1.941022,-0.17562 6.569591,-0.50948 6.700883,-0.48318 1.792573,0.3588 7.230987,0.60088 7.408333,0.3297 0.183062,-0.27992 2.190724,-0.40144 2.586923,-0.15658 0.177846,0.11026 0.462896,0.11393 0.633036,0.009 0.278245,-0.17197 12.507979,-0.17953 19.931079,-0.0124 1.60073,0.0361 3.80338,-0.038 4.89479,-0.16485 1.24156,-0.14428 2.55401,-0.20103 4.1982,-0.16433 z m -25.401555,7.95507 c -0.07514,0.0146 -0.144768,0.0555 -0.191203,0.11937 -0.09287,0.12778 -1.87599,0.25549 -3.962032,0.28319 l -3.792533,0.0501 -0.656808,0.43046 -0.656807,0.43047 0.314709,0.37878 c 0.173081,0.20855 0.23278,0.37931 0.132292,0.37931 -0.100488,0 0.04914,0.32742 0.332796,0.7276 0.283658,0.40018 1.095452,1.91823 1.803507,3.37344 0.742247,1.52548 7.176852,12.33267 8.300269,14.56449 0.509323,1.01184 1.015339,1.87955 1.124479,1.92805 0.109138,0.0485 0.198438,0.19637 0.198438,0.32866 0,0.23467 0.718931,1.16546 1.657263,2.1456 l 0.466638,0.48731 0.636654,-0.41703 c 0.349986,-0.22932 0.89267,-0.9625 1.206128,-1.62936 0.313455,-0.66685 0.739575,-1.38243 0.947225,-1.59008 2.54357,-7.40994 8.12951,-13.0191 11.39672,-19.83083 l 0.43564,-0.91777 -0.44494,-0.44494 -0.44493,-0.44493 -9.1674,-0.0806 c -5.041949,-0.0443 -9.277719,-0.14852 -9.412863,-0.23202 -0.06757,-0.0418 -0.148101,-0.0539 -0.223242,-0.0393 z"
       sodipodi:nodetypes="scssccccscsccccccscscssssssssscccscccsssssssssssssssscssssssccscscsssssscccccsssssscccsssscccssccc" /></g></svg>
