<?xml version="1.0" encoding="UTF-8" standalone="no"?>
<!-- Created with Inkscape (http://www.inkscape.org/) -->

<svg
   width="79.242783mm"
   height="82.49498mm"
   viewBox="0 0 79.242779 82.494981"
   version="1.1"
   id="svg1"
   xml:space="preserve"
   inkscape:version="1.4 (86a8ad7, 2024-10-11)"
   sodipodi:docname="TwoHanded.svg"
   xmlns:inkscape="http://www.inkscape.org/namespaces/inkscape"
   xmlns:sodipodi="http://sodipodi.sourceforge.net/DTD/sodipodi-0.dtd"
   xmlns="http://www.w3.org/2000/svg"
   xmlns:svg="http://www.w3.org/2000/svg"><sodipodi:namedview
     id="namedview1"
     pagecolor="#505050"
     bordercolor="#eeeeee"
     borderopacity="1"
     inkscape:showpageshadow="0"
     inkscape:pageopacity="0"
     inkscape:pagecheckerboard="0"
     inkscape:deskcolor="#505050"
     inkscape:document-units="mm"
     inkscape:zoom="1.4396184"
     inkscape:cx="75.714508"
     inkscape:cy="150.03976"
     inkscape:window-width="1920"
     inkscape:window-height="1010"
     inkscape:window-x="1529"
     inkscape:window-y="-6"
     inkscape:window-maximized="1"
     inkscape:current-layer="layer1" /><defs
     id="defs1" /><g
     inkscape:label="Layer 1"
     inkscape:groupmode="layer"
     id="layer1"
     transform="translate(-59.990048,-94.949804)"><path
       style="fill:#000000"
       d="m 93.45984,177.23859 -1.058333,-0.16089 -0.07405,-3.37344 c -0.04073,-1.85539 0.0069,-3.37344 0.105817,-3.37344 0.09893,0 1.00993,0.47857 2.024452,1.06349 2.059323,1.18728 3.698596,1.78724 5.636544,2.06291 l 1.30307,0.18536 0.0811,1.57788 c 0.11113,2.16201 -0.0678,2.26364 -3.901981,2.21657 -1.682056,-0.0206 -3.534534,-0.10995 -4.116619,-0.19844 z m -10.715625,-2.66381 c -0.218281,-0.12696 -1.349375,-0.68312 -2.513542,-1.23591 -5.411428,-2.56956 -10.811704,-6.99289 -14.816598,-12.13617 -2.212407,-2.84128 -5.424027,-8.72155 -5.424027,-9.93104 v -0.57168 l 5.655703,0.19197 c 3.110638,0.10559 6.906369,0.10673 8.434959,0.003 l 2.779255,-0.18943 1.124672,-2.26968 c 1.430834,-2.88755 3.747607,-6.4489 4.736547,-7.28103 1.44151,-1.21295 5.256607,-2.14095 8.886573,-2.1616 2.241697,-0.0128 2.833533,0.0774 3.874682,0.59035 1.437891,0.70838 1.71638,1.25065 2.067003,4.02481 0.137942,1.0914 0.423444,2.81781 0.634449,3.83646 0.211005,1.01864 0.464674,2.46769 0.56371,3.22009 0.158512,1.20428 0.116183,1.40221 -0.353642,1.65365 -0.7135,0.38185 -1.279099,0.36037 -2.85813,-0.10855 -1.621646,-0.48158 -2.237323,-0.99253 -3.042527,-2.52502 l -0.620962,-1.18184 -0.08396,0.874 c -0.05115,0.53241 0.125015,1.22818 0.450735,1.78023 l 0.534696,0.90625 -0.656291,0.77995 c -0.360961,0.42898 -0.873475,1.43829 -1.138921,2.24291 -0.843585,2.55707 -2.15695,4.40643 -5.410507,7.61858 -3.265196,3.22363 -3.374055,3.82777 -0.299273,1.66089 2.027007,-1.42849 5.942064,-5.88902 5.942064,-6.76995 0,-0.21091 0.09198,-0.24197 0.24812,-0.0838 0.154738,0.15676 0.05841,0.79904 -0.255945,1.70656 -0.614867,1.77509 -0.654162,3.20902 -0.116437,4.24887 0.336058,0.64986 0.347305,0.88381 0.06615,1.37592 -0.223339,0.39091 -0.383833,2.1705 -0.471051,5.22313 l -0.132292,4.63021 -3.704166,0.0546 c -2.037292,0.03 -3.882761,-0.0493 -4.101042,-0.17626 z m 15.733374,-3.04624 c -1.366128,-0.43181 -4.87534,-2.27286 -5.808557,-3.04736 -0.490855,-0.40737 -0.529888,-2.25598 -0.06909,-3.27201 0.355741,-0.78439 0.362626,-0.78481 2.844271,-0.1742 0.654844,0.16113 1.607344,0.39501 2.116667,0.51972 3.40627,0.83411 6.30442,1.69459 6.81302,2.02286 1.17441,0.75798 0.57334,2.62858 -1.24949,3.88858 -0.77933,0.5387 -3.04374,0.56911 -4.646823,0.0624 z m 4.507251,-5.97381 c -0.43656,-0.1232 -2.81781,-0.75479 -5.291666,-1.40353 -2.473855,-0.64875 -4.706276,-1.26287 -4.960938,-1.36472 -0.594099,-0.23761 -0.627461,-2.05164 -0.0626,-3.40355 0.380889,-0.9116 0.46157,-0.95809 1.653646,-0.95293 0.689271,0.003 3.277283,0.18 5.751128,0.39338 2.47386,0.21338 4.82056,0.38953 5.2149,0.39145 1.52521,0.007 1.61457,3.42087 0.14879,5.68352 -0.62538,0.96535 -1.0017,1.06604 -2.45327,0.65638 z m -0.79375,-8.20834 c -1.45521,-0.10383 -4.049854,-0.27773 -5.765879,-0.38645 -2.713012,-0.17188 -3.169427,-0.26816 -3.498563,-0.73807 -0.432025,-0.6168 -0.273856,-1.64947 0.365046,-2.38334 0.330325,-0.37943 0.653766,-0.45127 1.485818,-0.33003 3.232649,0.47104 3.958363,0.45715 4.833891,-0.0925 0.472947,-0.29693 0.859897,-0.71482 0.859897,-0.92864 0,-0.39118 0.39531,-0.49659 3.04271,-0.81135 0.7276,-0.0865 1.6951,-0.22128 2.15,-0.29951 0.78889,-0.13566 0.84693,-0.084 1.25677,1.11882 0.54853,1.60985 0.55702,3.77766 0.0178,4.5475 -0.44714,0.63838 -0.24056,0.62516 -4.7475,0.3036 z m -1.71474,-7.37905 c -0.31341,-0.5856 -1.029878,-4.19335 -1.248028,-6.28437 -0.13206,-1.26581 -0.09202,-1.40264 0.483349,-1.65171 1.961779,-0.84922 6.226579,-0.74748 7.143279,0.17041 1.08083,1.08223 1.1251,6.35721 0.06,7.15007 -0.23634,0.17593 -0.97918,0.38673 -1.65075,0.46844 -0.67158,0.0817 -1.79568,0.26518 -2.498,0.40772 -1.76091,0.3574 -1.97201,0.33338 -2.28987,-0.26056 z m -2.249108,-10.36823 c -0.811808,-1.22673 -2.428317,-2.0588 -4.488204,-2.31023 l -1.337531,-0.16326 -0.07997,-1.38907 c -0.06853,-1.19033 -0.01175,-1.38961 0.396875,-1.39291 1.024896,-0.008 5.135313,-1.86243 7.753418,-3.49747 0.27751,-0.17331 0.55344,-0.26008 0.61317,-0.19283 0.0597,0.0673 0.17501,2.17614 0.25617,4.68643 l 0.14756,4.56415 -0.70715,0.15052 c -0.38894,0.0828 -0.964185,0.25383 -1.278336,0.38011 -0.485366,0.19511 -0.677076,0.0696 -1.275999,-0.83544 z m 4.745248,-4.26237 c -0.0712,-0.18553 -0.0975,-3.31175 -0.0585,-6.94715 l 0.0709,-6.60981 1.32292,1.4299 c 1.34987,1.45904 4.1436,3.46489 4.82586,3.46489 0.208,0 -0.89055,-1.21133 -2.44123,-2.69186 -1.55068,-1.48052 -3.15031,-3.17716 -3.55473,-3.77031 -1.21401,-1.78054 -2.13719,-3.57677 -2.13719,-4.15832 0,-0.30116 -0.35719,-1.07681 -0.79375,-1.72367 -0.436567,-0.64686 -0.793755,-1.27333 -0.793755,-1.39215 0,-0.11882 0.252369,-0.8233 0.56082,-1.56552 0.331065,-0.79664 0.483125,-1.54274 0.371185,-1.82122 -0.1496,-0.37212 -0.32526,-0.1788 -0.83184,0.91544 -0.353208,0.76295 -0.96139,1.59632 -1.351516,1.85194 -1.796975,1.17742 -4.601434,1.52639 -5.080031,0.63213 -0.145521,-0.27191 -0.213814,-0.54515 -0.151763,-0.6072 0.133139,-0.13314 0.765062,-3.51293 1.352324,-7.2328 0.501832,-3.17874 0.799968,-3.80822 2.128625,-4.49439 0.854746,-0.44142 1.547717,-0.5262 4.325111,-0.52916 4.27882,-0.005 7.06884,0.72094 8.87022,2.30658 0.65117,0.57318 1.18395,1.14741 1.18395,1.27607 0,0.12865 0.60513,1.16033 1.34474,2.29261 1.2822,1.96297 2.62401,4.57087 2.62401,5.09995 0,0.67373 1.36215,0.79522 8.91627,0.79522 h 7.89273 l 1.35289,2.18281 c 2.18943,3.53252 3.35676,6.00747 4.39897,9.32656 1.37469,4.37797 1.77558,6.49315 1.85542,9.78959 l 0.0577,2.38125 -18.06541,0.068 c -14.44654,0.0544 -18.09135,4.1e-4 -18.19486,-0.26936 z m -14.013972,-2.60709 c -0.791769,-0.38522 -1.71695,-1.87871 -1.712335,-2.76416 0.0074,-1.42458 -0.44065,-1.22283 7.139699,-3.21471 4.910663,-1.29037 5.174458,-1.31876 5.560039,-0.59829 0.490199,0.91594 0.422409,2.29717 -0.149818,3.05265 -0.589401,0.77815 -4.421443,2.91114 -6.200062,3.45108 -1.369301,0.41568 -3.853233,0.45501 -4.637523,0.0734 z m -2.197347,-6.45076 c -0.302895,-0.38507 -0.739351,-1.349 -0.969902,-2.14207 -0.340841,-1.17245 -0.36161,-1.6341 -0.111125,-2.47015 l 0.30806,-1.02821 3.338943,-0.15798 c 1.836419,-0.0869 4.470037,-0.28911 5.852485,-0.44937 1.382448,-0.16026 2.927025,-0.24908 3.432393,-0.19739 0.812777,0.0831 0.977327,0.23554 1.425395,1.32027 0.64438,1.55996 0.44402,2.54193 -0.562338,2.75609 -2.940668,0.6258 -6.550781,1.5174 -8.925659,2.2044 -3.252056,0.94075 -3.180039,0.93763 -3.788252,0.16441 z m -1.512579,-7.82412 c -0.745823,-1.44226 -0.402529,-5.10038 0.569899,-6.07281 0.150035,-0.15003 1.306564,-0.18346 2.84677,-0.0823 2.047317,0.13448 2.619912,0.25924 2.716654,0.59192 0.581184,1.9986 1.977722,2.59838 4.616668,1.98275 2.344732,-0.54699 2.519198,-0.44711 3.426984,1.9619 0.284901,0.75604 0.269102,0.93887 -0.114315,1.32291 -0.462348,0.4631 -1.17858,0.53507 -9.858828,0.99065 l -3.742832,0.19644 z m 1.426757,-7.85075 -1.757408,-0.0919 -0.293113,-1.16406 c -0.612243,-2.43143 -0.153178,-5.64092 0.906119,-6.335 0.766556,-0.50226 5.124257,-0.58174 6.455307,-0.11774 l 0.854337,0.29783 -0.114084,1.6204 c -0.142108,2.01846 -0.661162,4.84904 -1.008039,5.49719 -0.27478,0.51343 -0.539462,0.52882 -5.043119,0.29329 z m 5.911366,-9.11778 c -0.207319,-0.20732 -0.3175,-1.29842 -0.3175,-3.144142 0,-3.387763 -0.360271,-3.135909 4.777465,-3.339769 4.26352,-0.169172 4.56207,-0.03406 4.42999,2.00485 l -0.0793,1.224685 -1.719791,0.158922 c -3.199296,0.29564 -5.113921,1.127294 -5.983242,2.598934 -0.534327,0.90455 -0.648418,0.95569 -1.107592,0.49652 z"
       id="path1" /></g></svg>
