<?xml version="1.0" encoding="UTF-8" standalone="no"?>
<!-- Created with Inkscape (http://www.inkscape.org/) -->

<svg
   width="28.535721mm"
   height="25.392397mm"
   viewBox="0 0 28.535719 25.392396"
   version="1.1"
   id="svg1"
   xml:space="preserve"
   inkscape:version="1.4 (86a8ad7, 2024-10-11)"
   sodipodi:docname="Vault.svg"
   xmlns:inkscape="http://www.inkscape.org/namespaces/inkscape"
   xmlns:sodipodi="http://sodipodi.sourceforge.net/DTD/sodipodi-0.dtd"
   xmlns="http://www.w3.org/2000/svg"
   xmlns:svg="http://www.w3.org/2000/svg"><sodipodi:namedview
     id="namedview1"
     pagecolor="#505050"
     bordercolor="#eeeeee"
     borderopacity="1"
     inkscape:showpageshadow="0"
     inkscape:pageopacity="0"
     inkscape:pagecheckerboard="0"
     inkscape:deskcolor="#505050"
     inkscape:document-units="mm"
     inkscape:zoom="2.4516274"
     inkscape:cx="29.368248"
     inkscape:cy="36.71031"
     inkscape:window-width="1920"
     inkscape:window-height="1010"
     inkscape:window-x="4601"
     inkscape:window-y="-6"
     inkscape:window-maximized="1"
     inkscape:current-layer="layer1" /><defs
     id="defs1" /><g
     inkscape:label="Layer 1"
     inkscape:groupmode="layer"
     id="layer1"
     transform="translate(-93.091569,-130.03166)"><path
       style="opacity:1;fill:#000000"
       d="m 94.780682,154.47617 c -0.247393,-0.52135 -0.67791,-2.08183 -0.956705,-3.46774 -0.278795,-1.38591 -0.582357,-3.67126 -0.674583,-5.07856 -0.125463,-1.91447 -0.05383,-3.12319 0.284491,-4.8005 0.309559,-1.53472 0.841256,-2.98122 1.685799,-4.58628 0.691363,-1.31394 1.837022,-2.97251 2.606331,-3.77317 0.771283,-0.80272 1.990108,-1.71607 2.781885,-2.08467 0.84811,-0.39483 1.88322,-0.65505 2.59979,-0.65358 0.8566,0.002 1.53714,0.22008 2.42575,0.77818 0.67932,0.42666 1.58179,1.2876 2.00548,1.9132 0.42369,0.62561 0.96476,1.48971 1.19071,2.07179 l 0.46811,1.5023 0.8728,-0.11041 1.01844,-0.0683 0.0241,-1.70583 c 0.0106,-0.75224 0.0631,-1.207 0.32321,-1.30682 0.221,-0.0848 2.20312,0.89934 4.56406,2.26612 2.29537,1.32881 4.50007,2.60392 4.89933,2.83358 0.39926,0.22966 0.72669,0.60085 0.72761,0.82488 0.001,0.25109 -1.87709,1.49062 -4.89642,3.23158 -2.69552,1.55424 -5.19086,3.02231 -5.40058,2.94184 -0.25525,-0.0979 -0.15073,-0.94506 -0.20341,-1.94837 l -0.0247,-1.45737 h -1.10314 l -1.23268,0.0285 -0.24836,1.34912 c -0.16753,0.91005 -0.85545,2.39267 -1.2316,3.12028 -0.37615,0.7276 -1.1185,1.76921 -1.64968,2.31468 -0.53117,0.54547 -1.3308,1.18054 -1.77696,1.41125 -0.44615,0.23072 -1.42287,0.48017 -2.17048,0.55434 -0.74761,0.0742 -1.693194,0.005 -2.101298,-0.15341 -0.341578,-0.1327 -2.073515,-0.91949 -1.852967,-4.72933 0.09174,-1.58474 0.407046,-2.31786 0.984857,-3.30382 0.403423,-0.68839 1.247699,-1.69843 1.876168,-2.24454 0.62847,-0.54611 1.83774,-1.34835 2.68727,-1.78276 0.84953,-0.43441 1.35705,-0.66446 1.59314,-0.75288 l 0.57314,-0.22914 -0.36013,-0.92744 c -0.16024,-0.31215 -0.49377,-0.79734 -0.86024,-1.19045 -0.36648,-0.39312 -1.0009,-0.78824 -1.40983,-0.87805 -0.47216,-0.10371 -1.16186,0.0217 -1.88978,0.34374 -0.63045,0.27888 -1.476362,0.89934 -1.879798,1.37879 -0.403436,0.47946 -1.012445,1.42218 -1.353353,2.09493 -0.340909,0.67275 -1.153127,2.25564 -1.640048,3.78133 -0.370106,1.6831 -0.885365,5.02423 -0.886865,7.13962 -0.0017,2.4011 0.219672,4.96842 0.325173,5.44137 0.105503,0.47294 0.0893,0.85989 -0.036,0.85989 -0.125302,0 -0.430234,-0.42655 -0.677628,-0.94789 z m 8.608068,-7.53722 c 0.59986,-0.62739 1.12245,-1.50938 1.55062,-2.69354 l 0.58994,-2.02963 c -0.56153,0.13169 -1.08181,0.36487 -1.59474,0.62344 -0.40389,0.20886 -1.17189,0.86405 -1.70665,1.45597 -0.76349,0.84509 -0.96529,1.30475 -1.09632,2.0897 -0.15262,0.91435 0.35333,1.39744 0.83345,1.36625 0.58727,-0.0382 0.98659,-0.31064 1.4237,-0.81219 z"
       id="path11"
       sodipodi:nodetypes="csssscccccccccsccscccccccscccccsssscccscccscssscccccscssc" /><path
       style="opacity:0;fill:#000000"
       d="m 94.780682,154.47617 c -0.247393,-0.52135 -0.67791,-2.08183 -0.956705,-3.46774 -0.278795,-1.38591 -0.582357,-3.67126 -0.674583,-5.07856 -0.125463,-1.91447 -0.05383,-3.12319 0.284491,-4.8005 0.309559,-1.53472 0.841256,-2.98122 1.685799,-4.58628 0.691363,-1.31394 1.837022,-2.97251 2.606331,-3.77317 0.771283,-0.80272 1.990108,-1.71607 2.781885,-2.08467 0.84811,-0.39483 1.88322,-0.65505 2.59979,-0.65358 0.8566,0.002 1.53714,0.22008 2.42575,0.77818 0.67932,0.42666 1.58179,1.2876 2.00548,1.9132 0.42369,0.62561 0.95522,1.61372 1.18117,2.1958 0.27827,0.71684 0.59631,1.08623 0.98565,1.14479 0.31616,0.0476 0.74687,-0.0563 0.95714,-0.23083 0.22415,-0.18603 0.38232,-0.78475 0.38232,-1.44721 0,-0.75231 0.13055,-1.18002 0.39066,-1.27984 0.221,-0.0848 2.20312,0.89934 4.56406,2.26612 2.29537,1.32881 4.50007,2.60392 4.89933,2.83358 0.39926,0.22966 0.72669,0.60085 0.72761,0.82488 0.001,0.25109 -1.87709,1.49062 -4.89642,3.23158 -2.69552,1.55424 -5.06945,2.75849 -5.27917,2.67802 -0.25525,-0.0979 -0.40704,-0.64077 -0.45972,-1.64408 l -0.0787,-1.49784 h -0.91428 c -0.87915,0 -0.93569,0.061 -1.4715,1.5875 -0.30647,0.87312 -0.86499,2.18281 -1.24114,2.91042 -0.37615,0.7276 -1.1185,1.76921 -1.64968,2.31468 -0.53117,0.54547 -1.3308,1.18054 -1.77696,1.41125 -0.44615,0.23072 -1.42287,0.48017 -2.17048,0.55434 -0.74761,0.0742 -1.693194,0.005 -2.101298,-0.15341 -0.504438,-0.19597 -0.916903,-0.68364 -1.288265,-1.52317 -0.443296,-1.00214 -0.524307,-1.61408 -0.4298,-3.24663 0.09174,-1.58474 0.272144,-2.27739 0.849955,-3.26335 0.403423,-0.68839 1.247699,-1.69843 1.876168,-2.24454 0.62847,-0.54611 1.83774,-1.34835 2.68727,-1.78276 0.84953,-0.43441 1.69092,-0.8934 1.86977,-1.01997 0.244,-0.17269 0.25244,-0.37179 0.0338,-0.79766 -0.16024,-0.31215 -0.59119,-0.88917 -0.95766,-1.28228 -0.36648,-0.39312 -1.0009,-0.78824 -1.40983,-0.87805 -0.47216,-0.10371 -1.16186,0.0217 -1.88978,0.34374 -0.63045,0.27888 -1.476362,0.89934 -1.879798,1.37879 -0.403436,0.47946 -1.012445,1.42218 -1.353353,2.09493 -0.340909,0.67275 -1.018225,2.47148 -1.505146,3.99717 -0.855753,2.68138 -0.885365,2.91976 -0.886865,7.13962 -8.54e-4,2.4011 0.08477,4.75258 0.190271,5.22553 0.105503,0.47294 0.0893,0.85989 -0.036,0.85989 -0.125302,0 -0.430234,-0.42655 -0.677628,-0.94789 z m 8.474518,-7.58492 c 0.61894,-0.57015 1.15107,-1.46168 1.57924,-2.64584 0.54247,-1.50024 0.58088,-1.78593 0.24012,-1.78593 -0.2231,0 -0.7361,0.17088 -1.13999,0.37974 -0.40389,0.20886 -1.17189,0.86405 -1.70665,1.45597 -0.76349,0.84509 -0.97231,1.29389 -0.97231,2.0897 0,0.55741 0.0794,1.09285 0.17639,1.18987 0.097,0.097 0.33689,0.17638 0.53305,0.17638 0.19617,0 0.77673,-0.38695 1.29015,-0.85989 z M 88.555611,122.88031 c 0,-0.36546 0.176389,-0.52917 0.570173,-0.52917 0.553415,0 0.556098,0.0156 0.09128,0.52917 -0.263389,0.29104 -0.519967,0.52917 -0.570174,0.52917 -0.05021,0 -0.09128,-0.23813 -0.09128,-0.52917 z m 37.041669,-0.13229 c -0.26976,-0.32504 -0.25168,-0.39688 0.0999,-0.39688 0.2361,0 0.42928,0.1786 0.42928,0.39688 0,0.21828 -0.045,0.39687 -0.0999,0.39687 -0.0549,0 -0.24811,-0.17859 -0.42927,-0.39687 z"
       id="path10" /></g></svg>
