<?xml version="1.0" encoding="UTF-8" standalone="no"?>
<!-- Created with Inkscape (http://www.inkscape.org/) -->

<svg
   width="115.85229mm"
   height="81.929382mm"
   viewBox="0 0 115.85229 81.929384"
   version="1.1"
   id="svg1"
   xml:space="preserve"
   inkscape:version="1.4 (86a8ad7, 2024-10-11)"
   sodipodi:docname="Weakspot.svg"
   xmlns:inkscape="http://www.inkscape.org/namespaces/inkscape"
   xmlns:sodipodi="http://sodipodi.sourceforge.net/DTD/sodipodi-0.dtd"
   xmlns="http://www.w3.org/2000/svg"
   xmlns:svg="http://www.w3.org/2000/svg"><sodipodi:namedview
     id="namedview1"
     pagecolor="#505050"
     bordercolor="#eeeeee"
     borderopacity="1"
     inkscape:showpageshadow="0"
     inkscape:pageopacity="0"
     inkscape:pagecheckerboard="0"
     inkscape:deskcolor="#505050"
     inkscape:document-units="mm"
     inkscape:zoom="1.4396184"
     inkscape:cx="159.06993"
     inkscape:cy="148.6505"
     inkscape:window-width="1920"
     inkscape:window-height="1010"
     inkscape:window-x="1529"
     inkscape:window-y="-6"
     inkscape:window-maximized="1"
     inkscape:current-layer="layer1" /><defs
     id="defs1" /><g
     inkscape:label="Layer 1"
     inkscape:groupmode="layer"
     id="layer1"
     transform="translate(-41.577548,-72.810269)"><path
       style="fill:#0d0f0d;stroke:none"
       d="m 57.812885,72.810269 c 0.685823,2.335911 1.94765,4.539725 2.714226,6.879166 2.494659,7.613222 4.767193,15.313959 6.96389,23.018745 3.104234,10.88793 5.4775,22.55068 9.636468,33.07292 h 0.529167 c 5.124022,-10.05058 8.711473,-21.08231 13.076868,-31.48542 2.460149,-5.86274 6.481783,-12.519794 7.560634,-18.785412 3.577232,4.089552 5.348022,10.699851 7.629642,15.610412 5.34104,11.49516 10.28036,23.18688 15.65369,34.66042 h 0.52917 l 2.77139,-9.26042 4.25456,-15.08125 8.06183,-28.310412 3.69764,-10.318749 h -6.87917 c 0,6.086595 -1.69723,11.882324 -3.24523,17.727082 -2.62019,9.893019 -5.91317,19.855959 -7.86727,29.897919 -2.68055,-2.5303 -4.04526,-7.77227 -5.57749,-11.1125 -3.72612,-8.12287 -7.51326,-16.216495 -11.23417,-24.341669 -1.36169,-2.973461 -2.6182,-5.995128 -3.91751,-8.995833 -0.32316,-0.746345 -0.70633,-2.692858 -1.57872,-2.976158 -1.002325,-0.325497 -1.523345,1.83243 -1.769195,2.446992 -1.12949,2.823446 -2.220496,5.672505 -3.418146,8.466666 -5.229591,12.200838 -10.327815,24.493672 -15.367273,36.777082 -2.940986,-6.31707 -4.305418,-13.93519 -6.231387,-20.6375 -2.514886,-8.751734 -6.20403,-18.070423 -6.20403,-27.252081 h -9.789584 m 98.425005,57.150001 c -1.27643,4.10524 -4.77891,7.49441 -8.46666,9.50356 -1.45874,0.79474 -3.95315,1.26368 -5.13182,2.38248 -0.70863,0.67262 -0.19571,1.82869 -0.22947,2.66604 -0.0472,1.17144 -0.5502,2.29322 -1.30985,3.17112 -2.6361,3.04643 -6.37476,3.08389 -9.99762,3.84401 -2.06236,0.43271 -4.01563,1.28777 -6.08541,1.71612 1.43532,2.23947 8.67656,1.05833 11.1125,1.05833 3.15631,0 9.0804,1.14673 11.90605,-0.27193 1.46869,-0.73738 2.59852,-2.53734 3.72907,-3.70744 1.55404,-1.6084 3.9456,-3.26222 4.95501,-5.28104 1.23971,-2.47942 0.51766,-6.60247 0.33564,-9.26042 -0.12918,-1.88623 0.46038,-4.25978 -0.81744,-5.82083 m -114.300007,0.26458 c -0.144088,3.35587 -0.264583,6.68268 -0.264583,10.05417 0,1.34325 -0.343957,3.26613 0.271933,4.49791 1.044865,2.08973 3.643559,3.91549 5.284317,5.55625 1.20308,1.20308 2.600575,3.20711 4.233334,3.8091 2.785328,1.02695 7.351607,0.15965 10.318751,0.15965 h 8.731251 c 1.362998,-9e-5 2.627383,0.19142 3.439583,-1.05833 -2.139019,-0.49037 -4.205394,-1.30071 -6.35,-1.75674 -3.216114,-0.68388 -6.754506,-0.75596 -9.211422,-3.2979 -0.906922,-0.93832 -1.555247,-2.09662 -1.624859,-3.41203 -0.04727,-0.89318 0.410346,-2.27234 -0.370744,-2.93062 -1.413637,-1.1914 -3.849038,-1.51974 -5.461727,-2.54499 -3.750218,-2.38415 -6.113535,-5.38417 -8.466667,-9.07647 h -0.529167 m 55.297921,23.28333 c -1.643488,-2.3423 -3.803567,-4.33286 -5.820833,-6.35 -0.785732,-0.78568 -1.759821,-2.16336 -2.886735,-2.45087 -0.939255,-0.23962 -1.793544,0.83354 -2.405954,1.37947 -1.865188,1.66273 -3.75833,3.30012 -5.555229,5.03729 -0.51756,0.50036 -2.015563,1.45742 -1.872907,2.31041 0.176152,1.05328 3.487021,0.60287 4.254157,0.60287 4.261926,0 10.226832,0.67111 14.287501,-0.52917 m 4.497916,0.26459 c 5.85338,0 13.39631,1.67115 19.05,0 -1.26096,-2.70223 -4.93018,-5.09765 -7.14375,-7.09884 -0.72152,-0.6523 -1.85039,-1.9826 -2.8998,-1.99438 -0.95976,-0.0108 -1.78052,1.25629 -2.3986,1.86208 -2.14606,2.10342 -5.3442,4.5214 -6.60785,7.23114 z"
       id="path2509" /></g></svg>
