<?xml version="1.0" encoding="UTF-8" standalone="no"?>
<!-- Created with Inkscape (http://www.inkscape.org/) -->

<svg
   width="54.005348mm"
   height="75.756493mm"
   viewBox="0 0 54.005348 75.756493"
   version="1.1"
   id="svg1"
   xml:space="preserve"
   inkscape:version="1.4 (86a8ad7, 2024-10-11)"
   sodipodi:docname="Wounds.svg"
   xmlns:inkscape="http://www.inkscape.org/namespaces/inkscape"
   xmlns:sodipodi="http://sodipodi.sourceforge.net/DTD/sodipodi-0.dtd"
   xmlns="http://www.w3.org/2000/svg"
   xmlns:svg="http://www.w3.org/2000/svg"><sodipodi:namedview
     id="namedview1"
     pagecolor="#505050"
     bordercolor="#eeeeee"
     borderopacity="1"
     inkscape:showpageshadow="0"
     inkscape:pageopacity="0"
     inkscape:pagecheckerboard="0"
     inkscape:deskcolor="#505050"
     inkscape:document-units="mm"
     inkscape:zoom="0.7198092"
     inkscape:cx="120.86536"
     inkscape:cy="154.20753"
     inkscape:window-width="1920"
     inkscape:window-height="1010"
     inkscape:window-x="1529"
     inkscape:window-y="-6"
     inkscape:window-maximized="1"
     inkscape:current-layer="layer1" /><defs
     id="defs1" /><g
     inkscape:label="Layer 1"
     inkscape:groupmode="layer"
     id="layer1"
     transform="translate(-75.603556,-101.96662)"><path
       style="fill:#931e23;stroke:none"
       d="m 78.208796,103.73984 c 3.35873,2.4125 4.11028,6.68089 5.5195,10.58333 0.39299,1.08829 1.66968,3.29616 0.8895,4.4138 -0.85034,1.21814 -5.44639,1.67932 -6.93817,2.20078 l 1.32292,4.7625 8.99583,-1.53891 3.96875,1.00975 c 1.40569,-2.92101 0.37491,-7.18222 0.29868,-10.31875 -0.0653,-2.68562 2.52224,-5.30002 1.64527,-7.92587 -0.71187,-2.13152 -3.70564,-1.50289 -5.3719,-1.94783 -1.48701,-0.39708 -1.31055,-2.35212 -2.68523,-2.89041 -1.52249,-0.59617 -6.01292,1.16806 -7.64515,1.65161 m 11.37728,2.497 c 2.68778,-0.46479 3.90994,3.31407 1.05711,4.03347 -3.1735,0.80026 -4.30054,-3.47259 -1.05711,-4.03347 m 16.139384,11.26133 c 0.61002,-1.67578 1.62839,-3.47413 2.93491,-4.70717 0.61862,-0.58383 1.85683,-1.13789 1.62874,-2.17608 -0.51956,-2.36491 -5.44707,-4.4258 -7.31442,-2.48598 -0.63541,0.66008 -0.42414,1.91801 -0.42423,2.75465 h -0.52917 c -0.41779,-3.73781 -4.616284,-0.60254 -5.876764,1.06895 -2.25018,2.98388 -3.91679,7.91742 -2.91675,11.63105 0.87511,3.2497 3.82517,5.99249 7.206014,4.23333 -0.904704,4.34601 -4.776274,6.13917 -6.943474,9.78958 -1.03532,1.74389 -1.5709,3.75167 -2.49292,5.55625 -1.23336,2.41394 -2.78836,4.37328 -3.18419,7.14375 -0.45873,3.21074 0.19145,6.36255 0.44975,9.525 l 1.32292,-0.52916 c 0.1717,3.98867 2.76785,4.23761 4.49792,7.14375 l -1.5875,-0.52917 c 4.19758,5.94252 12.894434,9.89738 19.843744,11.19457 2.23005,0.41627 5.16165,0.95992 7.40834,0.31215 2.51662,-0.7256 5.71243,-4.23056 6.87916,-6.47964 l -1.85208,0.26459 c 3.91749,-7.44542 6.64428,-16.90847 3.38569,-25.13542 -0.69423,-1.7527 -1.7669,-4.72162 -3.28239,-5.91536 -0.98868,-0.77877 -3.81924,0.21242 -5.13038,0.0802 -4.17312,-0.42074 -8.07871,-4.05141 -8.34132,-8.45237 -0.33741,-5.65466 2.395,-11.6022 8.34132,-12.82841 1.46147,-0.30138 4.72442,1.1466 5.68874,0.46363 2.50542,-1.77443 0.59891,-4.93689 -0.13249,-6.9498 l 2.38125,0.52916 c -1.40382,-2.31386 -4.81364,-3.79246 -7.40834,-3.175 l 1.85209,-2.91041 -5.55625,3.48224 -10.84792,7.10109 m 0,0 v 0.52917 h -0.52917 l 0.52917,-0.52917 m -1.32292,1.85208 -3.70416,8.46667 h -0.26459 c 0.002,-3.10271 1.40937,-6.57747 3.96875,-8.46667 m -28.574994,23.8125 1.85208,-0.52916 c -0.73812,1.01908 -1.91269,1.83261 -2.04868,3.17602 -0.41894,4.13848 4.05686,5.90307 7.34035,4.75699 2.48962,-0.86899 3.21541,-3.30623 4.55528,-5.28718 2.62649,-3.88318 7.19824,-8.20709 7.66046,-12.96458 0.14238,-1.46547 0.52411,-3.13185 -0.29316,-4.48649 -2.06775,-3.4273 -8.71993,-3.04036 -11.658,-1.40539 -4.72294,2.6282 -8.56743,11.37368 -7.40833,16.73979 m 39.158334,-14.81666 h -0.26459 v -0.52917 h -0.26458 c -0.24756,2.87554 -2.6045,4.36436 -0.6882,7.40833 1.83335,2.91221 7.98627,6.54195 10.26117,1.8282 0.56688,-1.17461 0.26897,-2.44179 0.21661,-3.68028 l 1.5875,1.32292 c 0,-3.43617 -1.2196,-6.30989 -4.49791,-7.90076 -1.85843,-0.90183 -5.90635,-1.0654 -6.35,1.55076 m -18.256254,1.5875 -0.52917,2.11666 c 1.2435,-0.36938 2.08079,-0.93347 2.64584,-2.11666 h -2.11667 m -15.61042,22.48958 2.91042,1.1057 2.64583,2.0693 v -3.96875 l -5.55625,0.79375 m 27.262704,16.01607 c 2.34781,-0.1651 2.68468,3.16915 0.25315,3.27789 -2.27979,0.10196 -2.36964,-3.12906 -0.25315,-3.27789 m 3.95813,3.29851 c 0.1308,0.83005 0.01,1.05823 -0.79375,1.32292 l 0.26459,-1.32292 h 0.52916 m 1.33741,1.20982 c 1.64178,-0.38936 2.16562,2.01176 0.50141,2.32307 -1.56653,0.29303 -2.0649,-1.95228 -0.50141,-2.32307 z"
       id="path1" /></g></svg>
